G04 (created by PCBNEW (2013-mar-25)-stable) date Friday, August 07, 2015 09:57:37 AM*
%MOIN*%
G04 Gerber Fmt 3.4, Leading zero omitted, Abs format*
%FSLAX34Y34*%
G01*
G70*
G90*
G04 APERTURE LIST*
%ADD10C,0.006*%
%ADD11C,0.00787402*%
%ADD12C,0.019685*%
%ADD13C,9.84252e-05*%
%ADD14C,0.00590551*%
%ADD15C,0.01*%
G04 APERTURE END LIST*
G54D10*
G54D11*
X50348Y-51701D02*
X50123Y-51701D01*
X50393Y-51532D02*
X50236Y-52123D01*
X50078Y-51532D01*
X49651Y-51588D02*
X49673Y-51560D01*
X49741Y-51532D01*
X49786Y-51532D01*
X49853Y-51560D01*
X49898Y-51616D01*
X49921Y-51673D01*
X49943Y-51785D01*
X49943Y-51870D01*
X49921Y-51982D01*
X49898Y-52038D01*
X49853Y-52095D01*
X49786Y-52123D01*
X49741Y-52123D01*
X49673Y-52095D01*
X49651Y-52066D01*
X64730Y-52095D02*
X64775Y-52123D01*
X64842Y-52123D01*
X64910Y-52095D01*
X64955Y-52038D01*
X64977Y-51982D01*
X65000Y-51870D01*
X65000Y-51785D01*
X64977Y-51673D01*
X64955Y-51616D01*
X64910Y-51560D01*
X64842Y-51532D01*
X64797Y-51532D01*
X64730Y-51560D01*
X64707Y-51588D01*
X64707Y-51785D01*
X64797Y-51785D01*
X64505Y-51532D02*
X64505Y-52123D01*
X64235Y-51532D01*
X64235Y-52123D01*
X64010Y-51532D02*
X64010Y-52123D01*
X63897Y-52123D01*
X63830Y-52095D01*
X63785Y-52038D01*
X63762Y-51982D01*
X63740Y-51870D01*
X63740Y-51785D01*
X63762Y-51673D01*
X63785Y-51616D01*
X63830Y-51560D01*
X63897Y-51532D01*
X64010Y-51532D01*
X56647Y-51701D02*
X56422Y-51701D01*
X56692Y-51532D02*
X56535Y-52123D01*
X56377Y-51532D01*
X55950Y-51588D02*
X55973Y-51560D01*
X56040Y-51532D01*
X56085Y-51532D01*
X56152Y-51560D01*
X56197Y-51616D01*
X56220Y-51673D01*
X56242Y-51785D01*
X56242Y-51870D01*
X56220Y-51982D01*
X56197Y-52038D01*
X56152Y-52095D01*
X56085Y-52123D01*
X56040Y-52123D01*
X55973Y-52095D01*
X55950Y-52066D01*
X73155Y-73889D02*
X73110Y-73861D01*
X73042Y-73861D01*
X72975Y-73889D01*
X72930Y-73945D01*
X72907Y-74001D01*
X72885Y-74114D01*
X72885Y-74198D01*
X72907Y-74311D01*
X72930Y-74367D01*
X72975Y-74423D01*
X73042Y-74451D01*
X73087Y-74451D01*
X73155Y-74423D01*
X73177Y-74395D01*
X73177Y-74198D01*
X73087Y-74198D01*
X69634Y-74451D02*
X69476Y-74170D01*
X69364Y-74451D02*
X69364Y-73861D01*
X69544Y-73861D01*
X69589Y-73889D01*
X69611Y-73917D01*
X69634Y-73973D01*
X69634Y-74057D01*
X69611Y-74114D01*
X69589Y-74142D01*
X69544Y-74170D01*
X69364Y-74170D01*
X59926Y-74282D02*
X60151Y-74282D01*
X59881Y-74451D02*
X60039Y-73861D01*
X60196Y-74451D01*
X63706Y-73889D02*
X63661Y-73861D01*
X63593Y-73861D01*
X63526Y-73889D01*
X63481Y-73945D01*
X63458Y-74001D01*
X63436Y-74114D01*
X63436Y-74198D01*
X63458Y-74311D01*
X63481Y-74367D01*
X63526Y-74423D01*
X63593Y-74451D01*
X63638Y-74451D01*
X63706Y-74423D01*
X63728Y-74395D01*
X63728Y-74198D01*
X63638Y-74198D01*
X52379Y-74226D02*
X52739Y-74226D01*
X66406Y-66380D02*
X66406Y-66886D01*
X66383Y-66943D01*
X66338Y-66971D01*
X66316Y-66971D01*
X66406Y-66183D02*
X66383Y-66212D01*
X66406Y-66240D01*
X66428Y-66212D01*
X66406Y-66183D01*
X66406Y-66240D01*
X66631Y-66774D02*
X66631Y-66183D01*
X66676Y-66549D02*
X66811Y-66774D01*
X66811Y-66380D02*
X66631Y-66605D01*
X66991Y-66746D02*
X67035Y-66774D01*
X67125Y-66774D01*
X67170Y-66746D01*
X67193Y-66690D01*
X67193Y-66661D01*
X67170Y-66605D01*
X67125Y-66577D01*
X67058Y-66577D01*
X67013Y-66549D01*
X66991Y-66493D01*
X66991Y-66465D01*
X67013Y-66408D01*
X67058Y-66380D01*
X67125Y-66380D01*
X67170Y-66408D01*
X67395Y-66718D02*
X67418Y-66746D01*
X67395Y-66774D01*
X67373Y-66746D01*
X67395Y-66718D01*
X67395Y-66774D01*
X67823Y-66746D02*
X67778Y-66774D01*
X67688Y-66774D01*
X67643Y-66746D01*
X67620Y-66718D01*
X67598Y-66661D01*
X67598Y-66493D01*
X67620Y-66437D01*
X67643Y-66408D01*
X67688Y-66380D01*
X67778Y-66380D01*
X67823Y-66408D01*
X68093Y-66774D02*
X68048Y-66746D01*
X68025Y-66718D01*
X68003Y-66661D01*
X68003Y-66493D01*
X68025Y-66437D01*
X68048Y-66408D01*
X68093Y-66380D01*
X68160Y-66380D01*
X68205Y-66408D01*
X68228Y-66437D01*
X68250Y-66493D01*
X68250Y-66661D01*
X68228Y-66718D01*
X68205Y-66746D01*
X68160Y-66774D01*
X68093Y-66774D01*
X68453Y-66774D02*
X68453Y-66380D01*
X68453Y-66437D02*
X68475Y-66408D01*
X68520Y-66380D01*
X68588Y-66380D01*
X68633Y-66408D01*
X68655Y-66465D01*
X68655Y-66774D01*
X68655Y-66465D02*
X68678Y-66408D01*
X68723Y-66380D01*
X68790Y-66380D01*
X68835Y-66408D01*
X68858Y-66465D01*
X68858Y-66774D01*
X69420Y-66155D02*
X69015Y-66915D01*
X69578Y-66774D02*
X69578Y-66183D01*
X69623Y-66549D02*
X69758Y-66774D01*
X69758Y-66380D02*
X69578Y-66605D01*
X69960Y-66774D02*
X69960Y-66380D01*
X69960Y-66183D02*
X69938Y-66212D01*
X69960Y-66240D01*
X69983Y-66212D01*
X69960Y-66183D01*
X69960Y-66240D01*
X70140Y-66380D02*
X70230Y-66774D01*
X70320Y-66493D01*
X70410Y-66774D01*
X70500Y-66380D01*
X70680Y-66774D02*
X70680Y-66380D01*
X70680Y-66183D02*
X70658Y-66212D01*
X70680Y-66240D01*
X70703Y-66212D01*
X70680Y-66183D01*
X70680Y-66240D01*
X70883Y-66746D02*
X70928Y-66774D01*
X71017Y-66774D01*
X71062Y-66746D01*
X71085Y-66690D01*
X71085Y-66661D01*
X71062Y-66605D01*
X71017Y-66577D01*
X70950Y-66577D01*
X70905Y-66549D01*
X70883Y-66493D01*
X70883Y-66465D01*
X70905Y-66408D01*
X70950Y-66380D01*
X71017Y-66380D01*
X71062Y-66408D01*
X71490Y-66774D02*
X71490Y-66183D01*
X71490Y-66746D02*
X71445Y-66774D01*
X71355Y-66774D01*
X71310Y-66746D01*
X71287Y-66718D01*
X71265Y-66661D01*
X71265Y-66493D01*
X71287Y-66437D01*
X71310Y-66408D01*
X71355Y-66380D01*
X71445Y-66380D01*
X71490Y-66408D01*
X71715Y-66774D02*
X71715Y-66380D01*
X71715Y-66493D02*
X71737Y-66437D01*
X71760Y-66408D01*
X71805Y-66380D01*
X71850Y-66380D01*
X47429Y-74142D02*
X47497Y-74170D01*
X47519Y-74198D01*
X47542Y-74254D01*
X47542Y-74339D01*
X47519Y-74395D01*
X47497Y-74423D01*
X47452Y-74451D01*
X47272Y-74451D01*
X47272Y-73861D01*
X47429Y-73861D01*
X47474Y-73889D01*
X47497Y-73917D01*
X47519Y-73973D01*
X47519Y-74029D01*
X47497Y-74086D01*
X47474Y-74114D01*
X47429Y-74142D01*
X47272Y-74142D01*
X47744Y-74451D02*
X47744Y-73861D01*
X47947Y-74282D02*
X48172Y-74282D01*
X47902Y-74451D02*
X48059Y-73861D01*
X48217Y-74451D01*
X48352Y-74423D02*
X48419Y-74451D01*
X48532Y-74451D01*
X48577Y-74423D01*
X48599Y-74395D01*
X48622Y-74339D01*
X48622Y-74282D01*
X48599Y-74226D01*
X48577Y-74198D01*
X48532Y-74170D01*
X48442Y-74142D01*
X48397Y-74114D01*
X48374Y-74086D01*
X48352Y-74029D01*
X48352Y-73973D01*
X48374Y-73917D01*
X48397Y-73889D01*
X48442Y-73861D01*
X48554Y-73861D01*
X48622Y-73889D01*
X48824Y-74226D02*
X49184Y-74226D01*
X49004Y-74451D02*
X49004Y-74001D01*
X78543Y-71062D02*
X78543Y-72637D01*
X74212Y-71062D02*
X78543Y-71062D01*
X69685Y-71062D02*
X69685Y-72637D01*
X73031Y-71062D02*
X69685Y-71062D01*
X69094Y-71062D02*
X69094Y-72637D01*
X64960Y-71062D02*
X69094Y-71062D01*
X60236Y-71062D02*
X60236Y-72637D01*
X63385Y-71062D02*
X60236Y-71062D01*
X73543Y-71498D02*
X73385Y-71217D01*
X73273Y-71498D02*
X73273Y-70908D01*
X73453Y-70908D01*
X73498Y-70936D01*
X73520Y-70964D01*
X73543Y-71020D01*
X73543Y-71105D01*
X73520Y-71161D01*
X73498Y-71189D01*
X73453Y-71217D01*
X73273Y-71217D01*
X73700Y-70908D02*
X74015Y-71498D01*
X74015Y-70908D02*
X73700Y-71498D01*
X63633Y-71330D02*
X63858Y-71330D01*
X63588Y-71498D02*
X63745Y-70908D01*
X63903Y-71498D01*
X64060Y-71498D02*
X64060Y-70908D01*
X64330Y-71498D01*
X64330Y-70908D01*
X64488Y-70908D02*
X64758Y-70908D01*
X64623Y-71498D02*
X64623Y-70908D01*
X77199Y-58900D02*
X77199Y-58309D01*
X77311Y-58309D01*
X77379Y-58338D01*
X77424Y-58394D01*
X77446Y-58450D01*
X77469Y-58562D01*
X77469Y-58647D01*
X77446Y-58759D01*
X77424Y-58816D01*
X77379Y-58872D01*
X77311Y-58900D01*
X77199Y-58900D01*
X77941Y-58844D02*
X77919Y-58872D01*
X77851Y-58900D01*
X77806Y-58900D01*
X77739Y-58872D01*
X77694Y-58816D01*
X77671Y-58759D01*
X77649Y-58647D01*
X77649Y-58562D01*
X77671Y-58450D01*
X77694Y-58394D01*
X77739Y-58338D01*
X77806Y-58309D01*
X77851Y-58309D01*
X77919Y-58338D01*
X77941Y-58366D01*
X45967Y-60081D02*
X45697Y-60081D01*
X45832Y-60081D02*
X45832Y-59491D01*
X45787Y-59575D01*
X45742Y-59631D01*
X45697Y-59659D01*
X46372Y-59491D02*
X46282Y-59491D01*
X46237Y-59519D01*
X46214Y-59547D01*
X46169Y-59631D01*
X46147Y-59744D01*
X46147Y-59969D01*
X46169Y-60025D01*
X46192Y-60053D01*
X46237Y-60081D01*
X46327Y-60081D01*
X46372Y-60053D01*
X46394Y-60025D01*
X46417Y-59969D01*
X46417Y-59828D01*
X46394Y-59772D01*
X46372Y-59744D01*
X46327Y-59715D01*
X46237Y-59715D01*
X46192Y-59744D01*
X46169Y-59772D01*
X46147Y-59828D01*
X46552Y-59491D02*
X46709Y-60081D01*
X46867Y-59491D01*
X67525Y-67589D02*
X67750Y-67589D01*
X67480Y-67758D02*
X67637Y-67168D01*
X67795Y-67758D01*
X68155Y-67365D02*
X68155Y-67758D01*
X67952Y-67365D02*
X67952Y-67674D01*
X67975Y-67730D01*
X68020Y-67758D01*
X68087Y-67758D01*
X68132Y-67730D01*
X68155Y-67702D01*
X68582Y-67365D02*
X68582Y-67843D01*
X68560Y-67899D01*
X68537Y-67927D01*
X68492Y-67955D01*
X68425Y-67955D01*
X68380Y-67927D01*
X68582Y-67730D02*
X68537Y-67758D01*
X68447Y-67758D01*
X68402Y-67730D01*
X68380Y-67702D01*
X68357Y-67646D01*
X68357Y-67477D01*
X68380Y-67421D01*
X68402Y-67393D01*
X68447Y-67365D01*
X68537Y-67365D01*
X68582Y-67393D01*
X69010Y-67365D02*
X69010Y-67758D01*
X68807Y-67365D02*
X68807Y-67674D01*
X68830Y-67730D01*
X68875Y-67758D01*
X68942Y-67758D01*
X68987Y-67730D01*
X69010Y-67702D01*
X69212Y-67730D02*
X69257Y-67758D01*
X69347Y-67758D01*
X69392Y-67730D01*
X69415Y-67674D01*
X69415Y-67646D01*
X69392Y-67589D01*
X69347Y-67561D01*
X69280Y-67561D01*
X69235Y-67533D01*
X69212Y-67477D01*
X69212Y-67449D01*
X69235Y-67393D01*
X69280Y-67365D01*
X69347Y-67365D01*
X69392Y-67393D01*
X69550Y-67365D02*
X69730Y-67365D01*
X69617Y-67168D02*
X69617Y-67674D01*
X69640Y-67730D01*
X69685Y-67758D01*
X69730Y-67758D01*
X70224Y-67224D02*
X70247Y-67196D01*
X70292Y-67168D01*
X70404Y-67168D01*
X70449Y-67196D01*
X70472Y-67224D01*
X70494Y-67280D01*
X70494Y-67336D01*
X70472Y-67421D01*
X70202Y-67758D01*
X70494Y-67758D01*
X70787Y-67168D02*
X70832Y-67168D01*
X70877Y-67196D01*
X70899Y-67224D01*
X70922Y-67280D01*
X70944Y-67393D01*
X70944Y-67533D01*
X70922Y-67646D01*
X70899Y-67702D01*
X70877Y-67730D01*
X70832Y-67758D01*
X70787Y-67758D01*
X70742Y-67730D01*
X70719Y-67702D01*
X70697Y-67646D01*
X70674Y-67533D01*
X70674Y-67393D01*
X70697Y-67280D01*
X70719Y-67224D01*
X70742Y-67196D01*
X70787Y-67168D01*
X71394Y-67758D02*
X71124Y-67758D01*
X71259Y-67758D02*
X71259Y-67168D01*
X71214Y-67252D01*
X71169Y-67308D01*
X71124Y-67336D01*
X71822Y-67168D02*
X71597Y-67168D01*
X71574Y-67449D01*
X71597Y-67421D01*
X71642Y-67393D01*
X71754Y-67393D01*
X71799Y-67421D01*
X71822Y-67449D01*
X71844Y-67505D01*
X71844Y-67646D01*
X71822Y-67702D01*
X71799Y-67730D01*
X71754Y-67758D01*
X71642Y-67758D01*
X71597Y-67730D01*
X71574Y-67702D01*
X47637Y-59097D02*
X47727Y-59097D01*
X47772Y-59125D01*
X47817Y-59181D01*
X47840Y-59294D01*
X47840Y-59491D01*
X47817Y-59603D01*
X47772Y-59659D01*
X47727Y-59687D01*
X47637Y-59687D01*
X47592Y-59659D01*
X47547Y-59603D01*
X47525Y-59491D01*
X47525Y-59294D01*
X47547Y-59181D01*
X47592Y-59125D01*
X47637Y-59097D01*
X48020Y-59659D02*
X48087Y-59687D01*
X48200Y-59687D01*
X48245Y-59659D01*
X48267Y-59631D01*
X48290Y-59575D01*
X48290Y-59519D01*
X48267Y-59462D01*
X48245Y-59434D01*
X48200Y-59406D01*
X48110Y-59378D01*
X48065Y-59350D01*
X48042Y-59322D01*
X48020Y-59266D01*
X48020Y-59209D01*
X48042Y-59153D01*
X48065Y-59125D01*
X48110Y-59097D01*
X48222Y-59097D01*
X48290Y-59125D01*
X48492Y-59687D02*
X48492Y-59097D01*
X48492Y-59378D02*
X48762Y-59378D01*
X48762Y-59687D02*
X48762Y-59097D01*
X48942Y-59097D02*
X49055Y-59687D01*
X49145Y-59266D01*
X49235Y-59687D01*
X49347Y-59097D01*
X60812Y-65067D02*
X60784Y-65112D01*
X60784Y-65202D01*
X60812Y-65247D01*
X60868Y-65292D01*
X60925Y-65314D01*
X61037Y-65314D01*
X61093Y-65292D01*
X61150Y-65247D01*
X61178Y-65202D01*
X61178Y-65112D01*
X61150Y-65067D01*
X60587Y-65157D02*
X60615Y-65269D01*
X60700Y-65382D01*
X60840Y-65449D01*
X60981Y-65472D01*
X61122Y-65449D01*
X61262Y-65382D01*
X61347Y-65269D01*
X61375Y-65157D01*
X61347Y-65044D01*
X61262Y-64932D01*
X61122Y-64865D01*
X60981Y-64842D01*
X60840Y-64865D01*
X60700Y-64932D01*
X60615Y-65044D01*
X60587Y-65157D01*
X61262Y-64640D02*
X60672Y-64640D01*
X60897Y-64640D02*
X60868Y-64595D01*
X60868Y-64505D01*
X60897Y-64460D01*
X60925Y-64437D01*
X60981Y-64415D01*
X61150Y-64415D01*
X61206Y-64437D01*
X61234Y-64460D01*
X61262Y-64505D01*
X61262Y-64595D01*
X61234Y-64640D01*
X61262Y-64145D02*
X61234Y-64190D01*
X61178Y-64212D01*
X60672Y-64212D01*
X60868Y-63762D02*
X61262Y-63762D01*
X60868Y-63965D02*
X61178Y-63965D01*
X61234Y-63942D01*
X61262Y-63897D01*
X61262Y-63830D01*
X61234Y-63785D01*
X61206Y-63762D01*
X61234Y-63357D02*
X61262Y-63402D01*
X61262Y-63492D01*
X61234Y-63537D01*
X61178Y-63560D01*
X60953Y-63560D01*
X60897Y-63537D01*
X60868Y-63492D01*
X60868Y-63402D01*
X60897Y-63357D01*
X60953Y-63335D01*
X61009Y-63335D01*
X61065Y-63560D01*
X61262Y-63132D02*
X60672Y-63132D01*
X60897Y-63132D02*
X60868Y-63087D01*
X60868Y-62997D01*
X60897Y-62952D01*
X60925Y-62930D01*
X60981Y-62907D01*
X61150Y-62907D01*
X61206Y-62930D01*
X61234Y-62952D01*
X61262Y-62997D01*
X61262Y-63087D01*
X61234Y-63132D01*
X61262Y-62705D02*
X60868Y-62705D01*
X60672Y-62705D02*
X60700Y-62727D01*
X60728Y-62705D01*
X60700Y-62682D01*
X60672Y-62705D01*
X60728Y-62705D01*
X61234Y-62502D02*
X61262Y-62457D01*
X61262Y-62367D01*
X61234Y-62322D01*
X61178Y-62300D01*
X61150Y-62300D01*
X61093Y-62322D01*
X61065Y-62367D01*
X61065Y-62435D01*
X61037Y-62480D01*
X60981Y-62502D01*
X60953Y-62502D01*
X60897Y-62480D01*
X60868Y-62435D01*
X60868Y-62367D01*
X60897Y-62322D01*
X61262Y-62030D02*
X61234Y-62075D01*
X61206Y-62097D01*
X61150Y-62120D01*
X60981Y-62120D01*
X60925Y-62097D01*
X60897Y-62075D01*
X60868Y-62030D01*
X60868Y-61962D01*
X60897Y-61917D01*
X60925Y-61895D01*
X60981Y-61872D01*
X61150Y-61872D01*
X61206Y-61895D01*
X61234Y-61917D01*
X61262Y-61962D01*
X61262Y-62030D01*
X60868Y-61670D02*
X61262Y-61670D01*
X60925Y-61670D02*
X60897Y-61647D01*
X60868Y-61602D01*
X60868Y-61535D01*
X60897Y-61490D01*
X60953Y-61467D01*
X61262Y-61467D01*
X61206Y-61242D02*
X61234Y-61220D01*
X61262Y-61242D01*
X61234Y-61265D01*
X61206Y-61242D01*
X61262Y-61242D01*
X60868Y-61017D02*
X61262Y-61017D01*
X60925Y-61017D02*
X60897Y-60995D01*
X60868Y-60950D01*
X60868Y-60883D01*
X60897Y-60838D01*
X60953Y-60815D01*
X61262Y-60815D01*
X61234Y-60410D02*
X61262Y-60455D01*
X61262Y-60545D01*
X61234Y-60590D01*
X61178Y-60613D01*
X60953Y-60613D01*
X60897Y-60590D01*
X60868Y-60545D01*
X60868Y-60455D01*
X60897Y-60410D01*
X60953Y-60388D01*
X61009Y-60388D01*
X61065Y-60613D01*
X60868Y-60253D02*
X60868Y-60073D01*
X60672Y-60185D02*
X61178Y-60185D01*
X61234Y-60163D01*
X61262Y-60118D01*
X61262Y-60073D01*
X64409Y-58338D02*
X64634Y-58338D01*
X64364Y-58506D02*
X64521Y-57916D01*
X64679Y-58506D01*
X65039Y-58478D02*
X64994Y-58506D01*
X64904Y-58506D01*
X64859Y-58478D01*
X64836Y-58450D01*
X64814Y-58394D01*
X64814Y-58225D01*
X64836Y-58169D01*
X64859Y-58141D01*
X64904Y-58113D01*
X64994Y-58113D01*
X65039Y-58141D01*
X65174Y-58113D02*
X65354Y-58113D01*
X65241Y-57916D02*
X65241Y-58422D01*
X65264Y-58478D01*
X65309Y-58506D01*
X65354Y-58506D01*
X65511Y-58506D02*
X65511Y-58113D01*
X65511Y-57916D02*
X65489Y-57944D01*
X65511Y-57972D01*
X65534Y-57944D01*
X65511Y-57916D01*
X65511Y-57972D01*
X65691Y-58113D02*
X65804Y-58506D01*
X65916Y-58113D01*
X66276Y-58478D02*
X66231Y-58506D01*
X66141Y-58506D01*
X66096Y-58478D01*
X66074Y-58422D01*
X66074Y-58197D01*
X66096Y-58141D01*
X66141Y-58113D01*
X66231Y-58113D01*
X66276Y-58141D01*
X66299Y-58197D01*
X66299Y-58253D01*
X66074Y-58309D01*
X64049Y-59243D02*
X64274Y-59243D01*
X64004Y-59412D02*
X64161Y-58821D01*
X64319Y-59412D01*
X64476Y-59018D02*
X64476Y-59412D01*
X64476Y-59074D02*
X64499Y-59046D01*
X64544Y-59018D01*
X64611Y-59018D01*
X64656Y-59046D01*
X64679Y-59102D01*
X64679Y-59412D01*
X64836Y-59018D02*
X65016Y-59018D01*
X64904Y-58821D02*
X64904Y-59327D01*
X64926Y-59384D01*
X64971Y-59412D01*
X65016Y-59412D01*
X65354Y-59384D02*
X65309Y-59412D01*
X65219Y-59412D01*
X65174Y-59384D01*
X65151Y-59327D01*
X65151Y-59102D01*
X65174Y-59046D01*
X65219Y-59018D01*
X65309Y-59018D01*
X65354Y-59046D01*
X65376Y-59102D01*
X65376Y-59159D01*
X65151Y-59215D01*
X65579Y-59018D02*
X65579Y-59412D01*
X65579Y-59074D02*
X65601Y-59046D01*
X65646Y-59018D01*
X65714Y-59018D01*
X65759Y-59046D01*
X65781Y-59102D01*
X65781Y-59412D01*
X66006Y-59018D02*
X66006Y-59412D01*
X66006Y-59074D02*
X66029Y-59046D01*
X66074Y-59018D01*
X66141Y-59018D01*
X66186Y-59046D01*
X66209Y-59102D01*
X66209Y-59412D01*
X66636Y-59412D02*
X66636Y-59102D01*
X66614Y-59046D01*
X66569Y-59018D01*
X66479Y-59018D01*
X66434Y-59046D01*
X66636Y-59384D02*
X66591Y-59412D01*
X66479Y-59412D01*
X66434Y-59384D01*
X66411Y-59327D01*
X66411Y-59271D01*
X66434Y-59215D01*
X66479Y-59187D01*
X66591Y-59187D01*
X66636Y-59159D01*
X64420Y-60317D02*
X64420Y-59727D01*
X64600Y-59727D01*
X64645Y-59755D01*
X64668Y-59783D01*
X64690Y-59839D01*
X64690Y-59924D01*
X64668Y-59980D01*
X64645Y-60008D01*
X64600Y-60036D01*
X64420Y-60036D01*
X64960Y-60317D02*
X64915Y-60289D01*
X64893Y-60261D01*
X64870Y-60205D01*
X64870Y-60036D01*
X64893Y-59980D01*
X64915Y-59952D01*
X64960Y-59924D01*
X65028Y-59924D01*
X65073Y-59952D01*
X65095Y-59980D01*
X65118Y-60036D01*
X65118Y-60205D01*
X65095Y-60261D01*
X65073Y-60289D01*
X65028Y-60317D01*
X64960Y-60317D01*
X65275Y-59924D02*
X65365Y-60317D01*
X65455Y-60036D01*
X65545Y-60317D01*
X65635Y-59924D01*
X65995Y-60289D02*
X65950Y-60317D01*
X65860Y-60317D01*
X65815Y-60289D01*
X65793Y-60233D01*
X65793Y-60008D01*
X65815Y-59952D01*
X65860Y-59924D01*
X65950Y-59924D01*
X65995Y-59952D01*
X66017Y-60008D01*
X66017Y-60064D01*
X65793Y-60120D01*
X66220Y-60317D02*
X66220Y-59924D01*
X66220Y-60036D02*
X66242Y-59980D01*
X66265Y-59952D01*
X66310Y-59924D01*
X66355Y-59924D01*
X53262Y-66324D02*
X53217Y-66296D01*
X53127Y-66296D01*
X53082Y-66324D01*
X53037Y-66380D01*
X53014Y-66437D01*
X53014Y-66549D01*
X53037Y-66605D01*
X53082Y-66661D01*
X53127Y-66690D01*
X53217Y-66690D01*
X53262Y-66661D01*
X53172Y-66099D02*
X53059Y-66127D01*
X52947Y-66212D01*
X52879Y-66352D01*
X52857Y-66493D01*
X52879Y-66633D01*
X52947Y-66774D01*
X53059Y-66858D01*
X53172Y-66886D01*
X53284Y-66858D01*
X53397Y-66774D01*
X53464Y-66633D01*
X53487Y-66493D01*
X53464Y-66352D01*
X53397Y-66212D01*
X53284Y-66127D01*
X53172Y-66099D01*
X53689Y-66774D02*
X53689Y-66183D01*
X53869Y-66183D01*
X53914Y-66212D01*
X53937Y-66240D01*
X53959Y-66296D01*
X53959Y-66380D01*
X53937Y-66437D01*
X53914Y-66465D01*
X53869Y-66493D01*
X53689Y-66493D01*
X54229Y-66774D02*
X54184Y-66746D01*
X54161Y-66718D01*
X54139Y-66661D01*
X54139Y-66493D01*
X54161Y-66437D01*
X54184Y-66408D01*
X54229Y-66380D01*
X54296Y-66380D01*
X54341Y-66408D01*
X54364Y-66437D01*
X54386Y-66493D01*
X54386Y-66661D01*
X54364Y-66718D01*
X54341Y-66746D01*
X54296Y-66774D01*
X54229Y-66774D01*
X54589Y-66774D02*
X54589Y-66380D01*
X54589Y-66183D02*
X54566Y-66212D01*
X54589Y-66240D01*
X54611Y-66212D01*
X54589Y-66183D01*
X54589Y-66240D01*
X54814Y-66380D02*
X54814Y-66774D01*
X54814Y-66437D02*
X54836Y-66408D01*
X54881Y-66380D01*
X54949Y-66380D01*
X54994Y-66408D01*
X55016Y-66465D01*
X55016Y-66774D01*
X55174Y-66380D02*
X55354Y-66380D01*
X55241Y-66183D02*
X55241Y-66690D01*
X55264Y-66746D01*
X55309Y-66774D01*
X55354Y-66774D01*
X56141Y-66774D02*
X55984Y-66493D01*
X55871Y-66774D02*
X55871Y-66183D01*
X56051Y-66183D01*
X56096Y-66212D01*
X56119Y-66240D01*
X56141Y-66296D01*
X56141Y-66380D01*
X56119Y-66437D01*
X56096Y-66465D01*
X56051Y-66493D01*
X55871Y-66493D01*
X56524Y-66746D02*
X56479Y-66774D01*
X56389Y-66774D01*
X56344Y-66746D01*
X56321Y-66690D01*
X56321Y-66465D01*
X56344Y-66408D01*
X56389Y-66380D01*
X56479Y-66380D01*
X56524Y-66408D01*
X56546Y-66465D01*
X56546Y-66521D01*
X56321Y-66577D01*
X56704Y-66380D02*
X56816Y-66774D01*
X56929Y-66380D02*
X56816Y-66774D01*
X56771Y-66915D01*
X56749Y-66943D01*
X56704Y-66971D01*
X57289Y-66746D02*
X57244Y-66774D01*
X57154Y-66774D01*
X57109Y-66746D01*
X57086Y-66690D01*
X57086Y-66465D01*
X57109Y-66408D01*
X57154Y-66380D01*
X57244Y-66380D01*
X57289Y-66408D01*
X57311Y-66465D01*
X57311Y-66521D01*
X57086Y-66577D01*
X57491Y-66746D02*
X57536Y-66774D01*
X57626Y-66774D01*
X57671Y-66746D01*
X57694Y-66690D01*
X57694Y-66661D01*
X57671Y-66605D01*
X57626Y-66577D01*
X57559Y-66577D01*
X57514Y-66549D01*
X57491Y-66493D01*
X57491Y-66465D01*
X57514Y-66408D01*
X57559Y-66380D01*
X57626Y-66380D01*
X57671Y-66408D01*
X58188Y-66183D02*
X58346Y-66774D01*
X58503Y-66183D01*
X58841Y-66746D02*
X58796Y-66774D01*
X58706Y-66774D01*
X58661Y-66746D01*
X58638Y-66690D01*
X58638Y-66465D01*
X58661Y-66408D01*
X58706Y-66380D01*
X58796Y-66380D01*
X58841Y-66408D01*
X58863Y-66465D01*
X58863Y-66521D01*
X58638Y-66577D01*
X59066Y-66380D02*
X59066Y-66774D01*
X59066Y-66437D02*
X59088Y-66408D01*
X59133Y-66380D01*
X59201Y-66380D01*
X59246Y-66408D01*
X59268Y-66465D01*
X59268Y-66774D01*
X59426Y-66380D02*
X59606Y-66380D01*
X59493Y-66183D02*
X59493Y-66690D01*
X59516Y-66746D01*
X59561Y-66774D01*
X59606Y-66774D01*
X59966Y-66380D02*
X59966Y-66774D01*
X59763Y-66380D02*
X59763Y-66690D01*
X59786Y-66746D01*
X59831Y-66774D01*
X59898Y-66774D01*
X59943Y-66746D01*
X59966Y-66718D01*
X60191Y-66774D02*
X60191Y-66380D01*
X60191Y-66493D02*
X60213Y-66437D01*
X60236Y-66408D01*
X60281Y-66380D01*
X60326Y-66380D01*
X60663Y-66746D02*
X60618Y-66774D01*
X60528Y-66774D01*
X60483Y-66746D01*
X60461Y-66690D01*
X60461Y-66465D01*
X60483Y-66408D01*
X60528Y-66380D01*
X60618Y-66380D01*
X60663Y-66408D01*
X60686Y-66465D01*
X60686Y-66521D01*
X60461Y-66577D01*
X60866Y-66746D02*
X60911Y-66774D01*
X61001Y-66774D01*
X61046Y-66746D01*
X61068Y-66690D01*
X61068Y-66661D01*
X61046Y-66605D01*
X61001Y-66577D01*
X60933Y-66577D01*
X60888Y-66549D01*
X60866Y-66493D01*
X60866Y-66465D01*
X60888Y-66408D01*
X60933Y-66380D01*
X61001Y-66380D01*
X61046Y-66408D01*
X61293Y-66746D02*
X61293Y-66774D01*
X61271Y-66830D01*
X61248Y-66858D01*
X62080Y-66774D02*
X61856Y-66774D01*
X61856Y-66183D01*
X62463Y-66774D02*
X62238Y-66774D01*
X62238Y-66183D01*
X62890Y-66718D02*
X62868Y-66746D01*
X62800Y-66774D01*
X62755Y-66774D01*
X62688Y-66746D01*
X62643Y-66690D01*
X62620Y-66633D01*
X62598Y-66521D01*
X62598Y-66437D01*
X62620Y-66324D01*
X62643Y-66268D01*
X62688Y-66212D01*
X62755Y-66183D01*
X62800Y-66183D01*
X62868Y-66212D01*
X62890Y-66240D01*
G54D12*
X57649Y-59139D02*
X57649Y-57958D01*
X58188Y-59139D02*
X57784Y-58464D01*
X58188Y-57958D02*
X57649Y-58633D01*
X58593Y-59139D02*
X58593Y-58352D01*
X58593Y-57958D02*
X58548Y-58014D01*
X58593Y-58070D01*
X58638Y-58014D01*
X58593Y-57958D01*
X58593Y-58070D01*
X58953Y-58352D02*
X59133Y-59139D01*
X59313Y-58577D01*
X59493Y-59139D01*
X59673Y-58352D01*
X60033Y-59139D02*
X60033Y-58352D01*
X60033Y-57958D02*
X59988Y-58014D01*
X60033Y-58070D01*
X60078Y-58014D01*
X60033Y-57958D01*
X60033Y-58070D01*
X60438Y-59083D02*
X60573Y-59139D01*
X60798Y-59139D01*
X60888Y-59083D01*
X60933Y-59026D01*
X60978Y-58914D01*
X60978Y-58802D01*
X60933Y-58689D01*
X60888Y-58633D01*
X60798Y-58577D01*
X60618Y-58520D01*
X60528Y-58464D01*
X60483Y-58408D01*
X60438Y-58295D01*
X60438Y-58183D01*
X60483Y-58070D01*
X60528Y-58014D01*
X60618Y-57958D01*
X60843Y-57958D01*
X60978Y-58014D01*
X61383Y-59139D02*
X61383Y-57958D01*
X61608Y-57958D01*
X61743Y-58014D01*
X61833Y-58127D01*
X61878Y-58239D01*
X61923Y-58464D01*
X61923Y-58633D01*
X61878Y-58858D01*
X61833Y-58970D01*
X61743Y-59083D01*
X61608Y-59139D01*
X61383Y-59139D01*
X62868Y-59139D02*
X62553Y-58577D01*
X62328Y-59139D02*
X62328Y-57958D01*
X62688Y-57958D01*
X62778Y-58014D01*
X62823Y-58070D01*
X62868Y-58183D01*
X62868Y-58352D01*
X62823Y-58464D01*
X62778Y-58520D01*
X62688Y-58577D01*
X62328Y-58577D01*
G54D11*
X53149Y-74606D02*
X53149Y-67519D01*
X53149Y-67519D02*
X59448Y-67519D01*
X59448Y-67519D02*
X59448Y-74606D01*
X63385Y-51377D02*
X63385Y-53937D01*
X63385Y-53937D02*
X61023Y-53937D01*
X61023Y-53937D02*
X61023Y-51377D01*
X70078Y-74606D02*
X70078Y-72047D01*
X70078Y-72047D02*
X72440Y-72047D01*
X72440Y-72047D02*
X72440Y-74606D01*
X60629Y-74606D02*
X60629Y-72047D01*
X60629Y-72047D02*
X62992Y-72047D01*
X62992Y-72047D02*
X62992Y-74606D01*
X49606Y-74606D02*
X49606Y-72047D01*
X49606Y-72047D02*
X51968Y-72047D01*
X51968Y-72047D02*
X51968Y-74606D01*
X59448Y-51377D02*
X59448Y-53937D01*
X59448Y-53937D02*
X57086Y-53937D01*
X57086Y-53937D02*
X57086Y-51377D01*
X50787Y-55511D02*
X50787Y-57086D01*
X50787Y-57086D02*
X51377Y-57086D01*
X53543Y-57086D02*
X54724Y-57086D01*
X54724Y-57086D02*
X54724Y-55511D01*
X54724Y-52165D02*
X54724Y-51377D01*
X50787Y-52165D02*
X50787Y-51377D01*
X64370Y-54921D02*
X64370Y-54527D01*
X64370Y-54527D02*
X60039Y-54527D01*
X60039Y-54527D02*
X60039Y-54921D01*
X64370Y-56889D02*
X64370Y-57283D01*
X64370Y-57283D02*
X60039Y-57283D01*
X60039Y-57283D02*
X60039Y-56889D01*
X51771Y-71456D02*
X52165Y-71456D01*
X52165Y-71456D02*
X52165Y-67125D01*
X52165Y-67125D02*
X51771Y-67125D01*
X49803Y-71456D02*
X49409Y-71456D01*
X49409Y-71456D02*
X49409Y-67125D01*
X49409Y-67125D02*
X49803Y-67125D01*
X68700Y-54724D02*
X67913Y-54724D01*
X67913Y-54724D02*
X67913Y-54921D01*
X69881Y-54921D02*
X69881Y-54724D01*
X69881Y-54724D02*
X69094Y-54724D01*
X69881Y-56889D02*
X69881Y-57086D01*
X69881Y-57086D02*
X67913Y-57086D01*
X67913Y-57086D02*
X67913Y-56889D01*
X68937Y-54606D02*
G75*
G03X68937Y-54606I-39J0D01*
G74*
G01*
X75984Y-58267D02*
X76771Y-58267D01*
X76771Y-58267D02*
X77559Y-57480D01*
X77559Y-57480D02*
X77559Y-53543D01*
X77559Y-53543D02*
X75984Y-53543D01*
X74409Y-58267D02*
X73622Y-58267D01*
X73622Y-58267D02*
X72834Y-57480D01*
X72834Y-57480D02*
X72834Y-53543D01*
X72834Y-53543D02*
X74212Y-53543D01*
X50000Y-60629D02*
X49212Y-60629D01*
X49212Y-60629D02*
X48425Y-61417D01*
X48425Y-61417D02*
X48425Y-65354D01*
X48425Y-65354D02*
X50000Y-65354D01*
X51574Y-60629D02*
X52362Y-60629D01*
X52362Y-60629D02*
X53149Y-61417D01*
X53149Y-61417D02*
X53149Y-65354D01*
X53149Y-65354D02*
X51771Y-65354D01*
X68110Y-60629D02*
X67322Y-60629D01*
X67322Y-60629D02*
X66535Y-61417D01*
X66535Y-61417D02*
X66535Y-65354D01*
X66535Y-65354D02*
X68110Y-65354D01*
X69685Y-60629D02*
X70472Y-60629D01*
X70472Y-60629D02*
X71259Y-61417D01*
X71259Y-61417D02*
X71259Y-65354D01*
X71259Y-65354D02*
X69881Y-65354D01*
X76968Y-65354D02*
X76968Y-60629D01*
X76968Y-60629D02*
X81692Y-60629D01*
X81692Y-60629D02*
X81692Y-65354D01*
X81692Y-65354D02*
X76968Y-65354D01*
X54724Y-64370D02*
X54724Y-65748D01*
X54724Y-65748D02*
X60236Y-65748D01*
X60236Y-65748D02*
X60236Y-64370D01*
X54724Y-61614D02*
X54724Y-60236D01*
X54724Y-60236D02*
X60236Y-60236D01*
X60236Y-60236D02*
X60236Y-61614D01*
X76771Y-66535D02*
X76771Y-65748D01*
X76377Y-66141D02*
X77165Y-66141D01*
G54D13*
G36*
X49570Y-58021D02*
X49569Y-58058D01*
X49569Y-58085D01*
X49568Y-58104D01*
X49567Y-58117D01*
X49565Y-58125D01*
X49562Y-58129D01*
X49559Y-58131D01*
X49550Y-58133D01*
X49531Y-58137D01*
X49504Y-58142D01*
X49472Y-58148D01*
X49435Y-58155D01*
X49433Y-58155D01*
X49396Y-58162D01*
X49362Y-58168D01*
X49332Y-58174D01*
X49311Y-58178D01*
X49298Y-58180D01*
X49298Y-58180D01*
X49291Y-58182D01*
X49284Y-58185D01*
X49278Y-58190D01*
X49272Y-58199D01*
X49264Y-58214D01*
X49255Y-58234D01*
X49243Y-58263D01*
X49228Y-58301D01*
X49222Y-58317D01*
X49209Y-58349D01*
X49199Y-58374D01*
X49192Y-58393D01*
X49189Y-58409D01*
X49190Y-58425D01*
X49195Y-58441D01*
X49205Y-58459D01*
X49221Y-58483D01*
X49242Y-58513D01*
X49267Y-58549D01*
X49288Y-58580D01*
X49307Y-58608D01*
X49323Y-58631D01*
X49335Y-58648D01*
X49340Y-58657D01*
X49340Y-58657D01*
X49341Y-58662D01*
X49339Y-58668D01*
X49333Y-58677D01*
X49322Y-58691D01*
X49306Y-58709D01*
X49282Y-58733D01*
X49252Y-58764D01*
X49239Y-58777D01*
X49209Y-58807D01*
X49182Y-58833D01*
X49159Y-58855D01*
X49141Y-58872D01*
X49130Y-58883D01*
X49126Y-58885D01*
X49119Y-58882D01*
X49105Y-58873D01*
X49083Y-58859D01*
X49056Y-58841D01*
X49024Y-58819D01*
X49006Y-58807D01*
X48973Y-58784D01*
X48943Y-58764D01*
X48918Y-58748D01*
X48899Y-58735D01*
X48887Y-58729D01*
X48884Y-58728D01*
X48876Y-58731D01*
X48860Y-58738D01*
X48838Y-58748D01*
X48823Y-58756D01*
X48795Y-58769D01*
X48776Y-58777D01*
X48765Y-58779D01*
X48763Y-58778D01*
X48760Y-58771D01*
X48752Y-58754D01*
X48741Y-58729D01*
X48727Y-58697D01*
X48711Y-58659D01*
X48693Y-58616D01*
X48678Y-58582D01*
X48651Y-58517D01*
X48629Y-58463D01*
X48610Y-58417D01*
X48595Y-58380D01*
X48583Y-58351D01*
X48574Y-58329D01*
X48567Y-58312D01*
X48563Y-58300D01*
X48560Y-58291D01*
X48559Y-58286D01*
X48558Y-58283D01*
X48558Y-58282D01*
X48563Y-58276D01*
X48575Y-58264D01*
X48593Y-58249D01*
X48600Y-58244D01*
X48651Y-58201D01*
X48691Y-58156D01*
X48720Y-58108D01*
X48738Y-58056D01*
X48747Y-57999D01*
X48747Y-57971D01*
X48741Y-57911D01*
X48725Y-57855D01*
X48699Y-57805D01*
X48665Y-57760D01*
X48623Y-57722D01*
X48576Y-57692D01*
X48524Y-57670D01*
X48469Y-57659D01*
X48410Y-57657D01*
X48360Y-57665D01*
X48305Y-57684D01*
X48254Y-57712D01*
X48209Y-57749D01*
X48171Y-57793D01*
X48142Y-57842D01*
X48125Y-57889D01*
X48117Y-57940D01*
X48117Y-57994D01*
X48124Y-58048D01*
X48139Y-58098D01*
X48150Y-58123D01*
X48173Y-58157D01*
X48203Y-58192D01*
X48237Y-58223D01*
X48267Y-58247D01*
X48284Y-58258D01*
X48295Y-58268D01*
X48301Y-58279D01*
X48301Y-58293D01*
X48296Y-58312D01*
X48286Y-58338D01*
X48275Y-58365D01*
X48261Y-58397D01*
X48245Y-58435D01*
X48228Y-58476D01*
X48210Y-58520D01*
X48192Y-58565D01*
X48174Y-58608D01*
X48157Y-58647D01*
X48143Y-58682D01*
X48132Y-58710D01*
X48124Y-58730D01*
X48121Y-58737D01*
X48112Y-58758D01*
X48104Y-58772D01*
X48095Y-58777D01*
X48082Y-58776D01*
X48063Y-58768D01*
X48038Y-58755D01*
X48014Y-58743D01*
X47993Y-58735D01*
X47978Y-58730D01*
X47973Y-58730D01*
X47966Y-58735D01*
X47950Y-58744D01*
X47929Y-58759D01*
X47903Y-58776D01*
X47874Y-58795D01*
X47845Y-58815D01*
X47817Y-58834D01*
X47792Y-58851D01*
X47772Y-58865D01*
X47760Y-58874D01*
X47759Y-58874D01*
X47747Y-58882D01*
X47739Y-58885D01*
X47733Y-58881D01*
X47719Y-58870D01*
X47700Y-58852D01*
X47676Y-58829D01*
X47649Y-58802D01*
X47627Y-58781D01*
X47598Y-58752D01*
X47572Y-58725D01*
X47550Y-58701D01*
X47534Y-58683D01*
X47524Y-58670D01*
X47522Y-58666D01*
X47526Y-58658D01*
X47535Y-58642D01*
X47549Y-58619D01*
X47568Y-58591D01*
X47589Y-58559D01*
X47601Y-58541D01*
X47624Y-58508D01*
X47644Y-58478D01*
X47660Y-58453D01*
X47672Y-58434D01*
X47679Y-58422D01*
X47680Y-58420D01*
X47678Y-58411D01*
X47672Y-58394D01*
X47662Y-58370D01*
X47651Y-58341D01*
X47639Y-58310D01*
X47626Y-58278D01*
X47613Y-58249D01*
X47602Y-58223D01*
X47594Y-58203D01*
X47588Y-58192D01*
X47587Y-58191D01*
X47578Y-58186D01*
X47557Y-58181D01*
X47524Y-58173D01*
X47480Y-58164D01*
X47423Y-58153D01*
X47365Y-58143D01*
X47339Y-58138D01*
X47318Y-58133D01*
X47303Y-58129D01*
X47300Y-58127D01*
X47297Y-58121D01*
X47295Y-58110D01*
X47294Y-58090D01*
X47293Y-58062D01*
X47292Y-58023D01*
X47292Y-57974D01*
X47292Y-57970D01*
X47292Y-57929D01*
X47293Y-57892D01*
X47294Y-57860D01*
X47295Y-57836D01*
X47296Y-57821D01*
X47297Y-57817D01*
X47304Y-57815D01*
X47321Y-57811D01*
X47347Y-57806D01*
X47379Y-57800D01*
X47417Y-57793D01*
X47435Y-57790D01*
X47474Y-57782D01*
X47510Y-57775D01*
X47541Y-57769D01*
X47565Y-57764D01*
X47580Y-57761D01*
X47582Y-57760D01*
X47588Y-57757D01*
X47595Y-57749D01*
X47603Y-57735D01*
X47614Y-57715D01*
X47627Y-57685D01*
X47641Y-57653D01*
X47655Y-57619D01*
X47667Y-57589D01*
X47677Y-57565D01*
X47683Y-57547D01*
X47686Y-57539D01*
X47682Y-57531D01*
X47673Y-57514D01*
X47659Y-57491D01*
X47641Y-57463D01*
X47619Y-57431D01*
X47606Y-57412D01*
X47583Y-57378D01*
X47563Y-57347D01*
X47546Y-57321D01*
X47533Y-57301D01*
X47525Y-57288D01*
X47524Y-57284D01*
X47525Y-57278D01*
X47532Y-57267D01*
X47546Y-57251D01*
X47566Y-57229D01*
X47594Y-57199D01*
X47626Y-57168D01*
X47655Y-57139D01*
X47682Y-57112D01*
X47705Y-57091D01*
X47723Y-57074D01*
X47735Y-57064D01*
X47739Y-57062D01*
X47746Y-57066D01*
X47761Y-57075D01*
X47783Y-57089D01*
X47811Y-57108D01*
X47844Y-57129D01*
X47870Y-57147D01*
X47904Y-57170D01*
X47935Y-57191D01*
X47962Y-57209D01*
X47983Y-57222D01*
X47996Y-57230D01*
X48000Y-57232D01*
X48008Y-57230D01*
X48025Y-57223D01*
X48049Y-57214D01*
X48077Y-57203D01*
X48107Y-57191D01*
X48138Y-57178D01*
X48165Y-57167D01*
X48188Y-57156D01*
X48204Y-57149D01*
X48211Y-57145D01*
X48214Y-57137D01*
X48219Y-57119D01*
X48225Y-57093D01*
X48232Y-57060D01*
X48239Y-57022D01*
X48245Y-56991D01*
X48253Y-56950D01*
X48260Y-56913D01*
X48267Y-56882D01*
X48272Y-56858D01*
X48275Y-56842D01*
X48277Y-56838D01*
X48284Y-56836D01*
X48302Y-56835D01*
X48330Y-56833D01*
X48366Y-56833D01*
X48410Y-56832D01*
X48432Y-56832D01*
X48478Y-56832D01*
X48514Y-56832D01*
X48541Y-56833D01*
X48560Y-56834D01*
X48572Y-56835D01*
X48580Y-56837D01*
X48585Y-56839D01*
X48587Y-56843D01*
X48589Y-56846D01*
X48591Y-56856D01*
X48596Y-56875D01*
X48601Y-56903D01*
X48608Y-56937D01*
X48615Y-56976D01*
X48619Y-56994D01*
X48626Y-57034D01*
X48633Y-57069D01*
X48639Y-57099D01*
X48643Y-57122D01*
X48646Y-57135D01*
X48647Y-57138D01*
X48653Y-57143D01*
X48669Y-57152D01*
X48692Y-57164D01*
X48720Y-57176D01*
X48751Y-57189D01*
X48782Y-57202D01*
X48811Y-57213D01*
X48837Y-57222D01*
X48856Y-57228D01*
X48867Y-57230D01*
X48869Y-57230D01*
X48875Y-57226D01*
X48891Y-57216D01*
X48913Y-57201D01*
X48941Y-57182D01*
X48973Y-57160D01*
X48996Y-57145D01*
X49030Y-57122D01*
X49061Y-57101D01*
X49088Y-57084D01*
X49108Y-57071D01*
X49121Y-57064D01*
X49125Y-57062D01*
X49131Y-57066D01*
X49145Y-57078D01*
X49164Y-57096D01*
X49187Y-57118D01*
X49212Y-57143D01*
X49239Y-57170D01*
X49265Y-57196D01*
X49289Y-57222D01*
X49310Y-57245D01*
X49327Y-57263D01*
X49337Y-57276D01*
X49340Y-57281D01*
X49336Y-57288D01*
X49327Y-57304D01*
X49313Y-57327D01*
X49294Y-57356D01*
X49273Y-57388D01*
X49258Y-57410D01*
X49235Y-57444D01*
X49214Y-57475D01*
X49197Y-57501D01*
X49185Y-57521D01*
X49177Y-57534D01*
X49176Y-57537D01*
X49178Y-57545D01*
X49185Y-57561D01*
X49194Y-57585D01*
X49205Y-57612D01*
X49218Y-57643D01*
X49231Y-57673D01*
X49243Y-57702D01*
X49254Y-57727D01*
X49262Y-57745D01*
X49268Y-57755D01*
X49268Y-57756D01*
X49275Y-57758D01*
X49292Y-57762D01*
X49317Y-57767D01*
X49349Y-57774D01*
X49387Y-57781D01*
X49415Y-57786D01*
X49455Y-57794D01*
X49492Y-57801D01*
X49522Y-57807D01*
X49546Y-57812D01*
X49560Y-57815D01*
X49564Y-57817D01*
X49566Y-57823D01*
X49567Y-57841D01*
X49568Y-57868D01*
X49569Y-57902D01*
X49570Y-57942D01*
X49570Y-57974D01*
X49570Y-58021D01*
X49570Y-58021D01*
X49570Y-58021D01*
G37*
G36*
X65548Y-63056D02*
X65536Y-63080D01*
X65521Y-63083D01*
X65470Y-63063D01*
X65460Y-63052D01*
X65425Y-63025D01*
X65351Y-62979D01*
X65248Y-62922D01*
X65196Y-62895D01*
X65196Y-62766D01*
X65184Y-62744D01*
X65125Y-62710D01*
X65030Y-62670D01*
X64958Y-62644D01*
X64958Y-62418D01*
X64958Y-62363D01*
X64929Y-62155D01*
X64885Y-62038D01*
X64812Y-61886D01*
X64833Y-62023D01*
X64845Y-62132D01*
X64852Y-62264D01*
X64853Y-62349D01*
X64855Y-62453D01*
X64864Y-62510D01*
X64884Y-62534D01*
X64906Y-62538D01*
X64936Y-62529D01*
X64953Y-62493D01*
X64958Y-62418D01*
X64958Y-62644D01*
X64911Y-62628D01*
X64795Y-62591D01*
X64795Y-62311D01*
X64781Y-62172D01*
X64753Y-62029D01*
X64714Y-61911D01*
X64698Y-61879D01*
X64655Y-61817D01*
X64612Y-61774D01*
X64580Y-61756D01*
X64571Y-61775D01*
X64577Y-61794D01*
X64592Y-61846D01*
X64613Y-61936D01*
X64629Y-62014D01*
X64648Y-62125D01*
X64648Y-62204D01*
X64628Y-62279D01*
X64618Y-62303D01*
X64581Y-62392D01*
X64570Y-62441D01*
X64570Y-62053D01*
X64542Y-61882D01*
X64505Y-61775D01*
X64505Y-61554D01*
X64486Y-61464D01*
X64435Y-61345D01*
X64360Y-61212D01*
X64271Y-61084D01*
X64128Y-60934D01*
X63956Y-60826D01*
X63750Y-60756D01*
X63502Y-60722D01*
X63350Y-60718D01*
X63211Y-60720D01*
X63113Y-60730D01*
X63039Y-60749D01*
X62968Y-60782D01*
X62947Y-60794D01*
X62775Y-60925D01*
X62622Y-61098D01*
X62500Y-61296D01*
X62419Y-61503D01*
X62397Y-61609D01*
X62378Y-61750D01*
X62483Y-61750D01*
X62572Y-61763D01*
X62644Y-61794D01*
X62645Y-61795D01*
X62692Y-61821D01*
X62727Y-61804D01*
X62750Y-61773D01*
X62800Y-61706D01*
X62865Y-61626D01*
X62880Y-61609D01*
X62973Y-61528D01*
X63089Y-61466D01*
X63208Y-61429D01*
X63307Y-61428D01*
X63307Y-61429D01*
X63378Y-61461D01*
X63462Y-61517D01*
X63489Y-61540D01*
X63554Y-61595D01*
X63589Y-61612D01*
X63612Y-61596D01*
X63627Y-61570D01*
X63677Y-61517D01*
X63768Y-61457D01*
X63879Y-61400D01*
X63992Y-61357D01*
X64040Y-61344D01*
X64161Y-61345D01*
X64289Y-61388D01*
X64398Y-61463D01*
X64444Y-61518D01*
X64483Y-61575D01*
X64501Y-61581D01*
X64505Y-61554D01*
X64505Y-61775D01*
X64485Y-61718D01*
X64405Y-61577D01*
X64305Y-61473D01*
X64261Y-61447D01*
X64185Y-61411D01*
X64126Y-61399D01*
X64056Y-61409D01*
X63981Y-61429D01*
X63844Y-61488D01*
X63732Y-61574D01*
X63658Y-61672D01*
X63650Y-61694D01*
X63648Y-61751D01*
X63666Y-61837D01*
X63678Y-61875D01*
X63708Y-62023D01*
X63714Y-62220D01*
X63714Y-62258D01*
X63711Y-62392D01*
X63717Y-62473D01*
X63734Y-62506D01*
X63739Y-62508D01*
X63785Y-62500D01*
X63872Y-62483D01*
X63980Y-62460D01*
X63982Y-62460D01*
X64153Y-62431D01*
X64303Y-62427D01*
X64330Y-62430D01*
X64419Y-62439D01*
X64468Y-62429D01*
X64501Y-62391D01*
X64524Y-62351D01*
X64566Y-62213D01*
X64570Y-62053D01*
X64570Y-62441D01*
X64587Y-62465D01*
X64631Y-62481D01*
X64633Y-62481D01*
X64717Y-62500D01*
X64761Y-62490D01*
X64783Y-62445D01*
X64788Y-62421D01*
X64795Y-62311D01*
X64795Y-62591D01*
X64781Y-62588D01*
X64719Y-62571D01*
X64422Y-62517D01*
X64151Y-62509D01*
X63909Y-62546D01*
X63701Y-62628D01*
X63663Y-62656D01*
X63663Y-62129D01*
X63634Y-61944D01*
X63573Y-61775D01*
X63481Y-61631D01*
X63360Y-61526D01*
X63337Y-61513D01*
X63244Y-61497D01*
X63134Y-61522D01*
X63021Y-61580D01*
X62920Y-61663D01*
X62848Y-61761D01*
X62823Y-61823D01*
X62820Y-61895D01*
X62857Y-61963D01*
X62879Y-61987D01*
X62950Y-62098D01*
X63003Y-62252D01*
X63036Y-62432D01*
X63042Y-62608D01*
X63041Y-62714D01*
X63045Y-62794D01*
X63052Y-62830D01*
X63098Y-62842D01*
X63179Y-62837D01*
X63277Y-62819D01*
X63370Y-62792D01*
X63437Y-62760D01*
X63440Y-62759D01*
X63549Y-62642D01*
X63621Y-62490D01*
X63659Y-62314D01*
X63663Y-62129D01*
X63663Y-62656D01*
X63531Y-62754D01*
X63520Y-62765D01*
X63436Y-62839D01*
X63352Y-62895D01*
X63307Y-62914D01*
X63208Y-62957D01*
X63119Y-63038D01*
X63036Y-63166D01*
X62991Y-63255D01*
X62901Y-63482D01*
X62832Y-63730D01*
X62786Y-63983D01*
X62765Y-64228D01*
X62771Y-64447D01*
X62801Y-64612D01*
X62854Y-64720D01*
X62932Y-64808D01*
X63023Y-64861D01*
X63071Y-64869D01*
X63104Y-64865D01*
X63123Y-64844D01*
X63131Y-64792D01*
X63132Y-64697D01*
X63132Y-64646D01*
X63132Y-64534D01*
X63138Y-64447D01*
X63146Y-64404D01*
X63147Y-64402D01*
X63190Y-64395D01*
X63251Y-64426D01*
X63312Y-64480D01*
X63353Y-64541D01*
X63377Y-64626D01*
X63390Y-64738D01*
X63392Y-64795D01*
X63397Y-64906D01*
X63423Y-64974D01*
X63481Y-65016D01*
X63567Y-65045D01*
X63652Y-65069D01*
X63704Y-65076D01*
X63747Y-65067D01*
X63801Y-65044D01*
X63955Y-64956D01*
X64065Y-64847D01*
X64116Y-64747D01*
X64135Y-64660D01*
X64123Y-64592D01*
X64092Y-64531D01*
X64013Y-64434D01*
X63893Y-64328D01*
X63748Y-64229D01*
X63695Y-64199D01*
X63629Y-64147D01*
X63552Y-64062D01*
X63486Y-63973D01*
X63425Y-63876D01*
X63390Y-63802D01*
X63377Y-63722D01*
X63375Y-63614D01*
X63376Y-63584D01*
X63380Y-63454D01*
X63388Y-63363D01*
X63407Y-63293D01*
X63442Y-63223D01*
X63499Y-63134D01*
X63518Y-63105D01*
X63578Y-63017D01*
X63631Y-62955D01*
X63691Y-62905D01*
X63772Y-62858D01*
X63887Y-62803D01*
X63961Y-62770D01*
X64163Y-62704D01*
X64398Y-62668D01*
X64641Y-62661D01*
X64870Y-62686D01*
X64989Y-62716D01*
X65089Y-62745D01*
X65164Y-62763D01*
X65196Y-62766D01*
X65196Y-62895D01*
X65193Y-62893D01*
X64946Y-62766D01*
X64561Y-62765D01*
X64414Y-62767D01*
X64290Y-62771D01*
X64200Y-62778D01*
X64156Y-62787D01*
X64155Y-62788D01*
X64155Y-62825D01*
X64187Y-62885D01*
X64194Y-62894D01*
X64278Y-62959D01*
X64390Y-62980D01*
X64514Y-62957D01*
X64637Y-62892D01*
X64641Y-62888D01*
X64718Y-62838D01*
X64764Y-62824D01*
X64774Y-62842D01*
X64740Y-62893D01*
X64733Y-62901D01*
X64698Y-62945D01*
X64706Y-62960D01*
X64727Y-62962D01*
X64777Y-62939D01*
X64834Y-62886D01*
X64890Y-62824D01*
X64921Y-62816D01*
X64930Y-62853D01*
X64908Y-62898D01*
X64855Y-62958D01*
X64837Y-62974D01*
X64787Y-63012D01*
X64734Y-63036D01*
X64665Y-63047D01*
X64560Y-63052D01*
X64474Y-63053D01*
X64204Y-63053D01*
X64143Y-62933D01*
X64082Y-62813D01*
X63932Y-62876D01*
X63790Y-62957D01*
X63656Y-63074D01*
X63546Y-63208D01*
X63477Y-63344D01*
X63473Y-63359D01*
X63435Y-63569D01*
X63450Y-63754D01*
X63522Y-63919D01*
X63651Y-64067D01*
X63777Y-64163D01*
X63923Y-64266D01*
X64029Y-64350D01*
X64102Y-64427D01*
X64157Y-64507D01*
X64171Y-64533D01*
X64223Y-64636D01*
X64311Y-64512D01*
X64388Y-64423D01*
X64456Y-64377D01*
X64506Y-64377D01*
X64527Y-64404D01*
X64529Y-64473D01*
X64499Y-64569D01*
X64470Y-64627D01*
X64470Y-64456D01*
X64448Y-64446D01*
X64409Y-64471D01*
X64355Y-64538D01*
X64296Y-64632D01*
X64240Y-64738D01*
X64196Y-64843D01*
X64189Y-64865D01*
X64179Y-64921D01*
X64197Y-64928D01*
X64237Y-64894D01*
X64294Y-64819D01*
X64359Y-64719D01*
X64432Y-64588D01*
X64469Y-64502D01*
X64470Y-64456D01*
X64470Y-64627D01*
X64446Y-64679D01*
X64378Y-64792D01*
X64303Y-64892D01*
X64230Y-64969D01*
X64166Y-65009D01*
X64137Y-65011D01*
X64077Y-65015D01*
X63990Y-65044D01*
X63939Y-65069D01*
X63823Y-65120D01*
X63716Y-65137D01*
X63597Y-65121D01*
X63508Y-65096D01*
X63400Y-65073D01*
X63339Y-65082D01*
X63337Y-65083D01*
X63325Y-65087D01*
X63325Y-64765D01*
X63313Y-64647D01*
X63281Y-64551D01*
X63235Y-64489D01*
X63199Y-64476D01*
X63188Y-64503D01*
X63183Y-64574D01*
X63186Y-64673D01*
X63194Y-64783D01*
X63208Y-64887D01*
X63224Y-64971D01*
X63225Y-64974D01*
X63240Y-65014D01*
X63261Y-65004D01*
X63283Y-64975D01*
X63307Y-64913D01*
X63323Y-64817D01*
X63325Y-64765D01*
X63325Y-65087D01*
X63288Y-65098D01*
X63233Y-65086D01*
X63204Y-65054D01*
X63204Y-65051D01*
X63178Y-65028D01*
X63110Y-64996D01*
X63057Y-64977D01*
X62926Y-64919D01*
X62832Y-64838D01*
X62761Y-64720D01*
X62718Y-64600D01*
X62681Y-64464D01*
X62662Y-64339D01*
X62661Y-64206D01*
X62677Y-64043D01*
X62688Y-63961D01*
X62725Y-63752D01*
X62776Y-63568D01*
X62849Y-63384D01*
X62950Y-63177D01*
X63007Y-63067D01*
X63052Y-62978D01*
X63079Y-62924D01*
X63083Y-62913D01*
X63058Y-62903D01*
X63027Y-62901D01*
X62988Y-62918D01*
X62988Y-62472D01*
X62953Y-62272D01*
X62938Y-62221D01*
X62880Y-62111D01*
X62794Y-62002D01*
X62691Y-61908D01*
X62585Y-61841D01*
X62492Y-61814D01*
X62483Y-61814D01*
X62402Y-61815D01*
X62497Y-61858D01*
X62622Y-61944D01*
X62726Y-62076D01*
X62805Y-62247D01*
X62853Y-62442D01*
X62862Y-62520D01*
X62868Y-62652D01*
X62859Y-62751D01*
X62832Y-62840D01*
X62816Y-62880D01*
X62781Y-62962D01*
X62773Y-62989D01*
X62773Y-62652D01*
X62769Y-62421D01*
X62719Y-62227D01*
X62622Y-62067D01*
X62604Y-62047D01*
X62522Y-61964D01*
X62466Y-61933D01*
X62433Y-61954D01*
X62420Y-62032D01*
X62419Y-62144D01*
X62424Y-62256D01*
X62434Y-62321D01*
X62453Y-62350D01*
X62482Y-62356D01*
X62524Y-62381D01*
X62538Y-62448D01*
X62520Y-62546D01*
X62508Y-62581D01*
X62477Y-62629D01*
X62477Y-62506D01*
X62453Y-62478D01*
X62447Y-62477D01*
X62420Y-62501D01*
X62416Y-62524D01*
X62431Y-62556D01*
X62447Y-62553D01*
X62476Y-62514D01*
X62477Y-62506D01*
X62477Y-62629D01*
X62468Y-62643D01*
X62422Y-62654D01*
X62377Y-62619D01*
X62343Y-62546D01*
X62327Y-62441D01*
X62326Y-62426D01*
X62320Y-62327D01*
X62304Y-62218D01*
X62282Y-62115D01*
X62258Y-62035D01*
X62235Y-61994D01*
X62230Y-61993D01*
X62203Y-62017D01*
X62162Y-62080D01*
X62139Y-62122D01*
X62085Y-62283D01*
X62068Y-62469D01*
X62090Y-62652D01*
X62135Y-62780D01*
X62227Y-62938D01*
X62324Y-63037D01*
X62428Y-63078D01*
X62539Y-63062D01*
X62596Y-63034D01*
X62676Y-62972D01*
X62729Y-62892D01*
X62760Y-62779D01*
X62773Y-62652D01*
X62773Y-62989D01*
X62771Y-63000D01*
X62784Y-63004D01*
X62809Y-62993D01*
X62855Y-62948D01*
X62908Y-62871D01*
X62929Y-62831D01*
X62979Y-62665D01*
X62988Y-62472D01*
X62988Y-62918D01*
X62972Y-62926D01*
X62933Y-62973D01*
X62875Y-63045D01*
X62821Y-63085D01*
X62769Y-63119D01*
X62750Y-63144D01*
X62721Y-63152D01*
X62650Y-63156D01*
X62548Y-63153D01*
X62546Y-63153D01*
X62430Y-63144D01*
X62354Y-63126D01*
X62294Y-63091D01*
X62245Y-63048D01*
X62118Y-62883D01*
X62040Y-62683D01*
X62011Y-62448D01*
X62011Y-62412D01*
X62017Y-62264D01*
X62038Y-62153D01*
X62077Y-62057D01*
X62080Y-62053D01*
X62116Y-61975D01*
X62134Y-61923D01*
X62133Y-61911D01*
X62141Y-61882D01*
X62176Y-61838D01*
X62221Y-61765D01*
X62234Y-61695D01*
X62254Y-61550D01*
X62310Y-61384D01*
X62392Y-61218D01*
X62427Y-61160D01*
X62536Y-61026D01*
X62679Y-60892D01*
X62840Y-60771D01*
X63002Y-60672D01*
X63152Y-60609D01*
X63194Y-60598D01*
X63446Y-60575D01*
X63689Y-60608D01*
X63918Y-60692D01*
X64124Y-60822D01*
X64301Y-60994D01*
X64442Y-61203D01*
X64539Y-61444D01*
X64556Y-61507D01*
X64582Y-61599D01*
X64608Y-61665D01*
X64625Y-61684D01*
X64724Y-61738D01*
X64827Y-61829D01*
X64913Y-61936D01*
X64929Y-61964D01*
X64977Y-62073D01*
X65006Y-62203D01*
X65020Y-62338D01*
X65029Y-62459D01*
X65041Y-62533D01*
X65062Y-62580D01*
X65097Y-62610D01*
X65142Y-62637D01*
X65277Y-62723D01*
X65396Y-62820D01*
X65486Y-62916D01*
X65531Y-62991D01*
X65548Y-63056D01*
X65548Y-63056D01*
X65548Y-63056D01*
G37*
G36*
X63295Y-62295D02*
X63276Y-62344D01*
X63249Y-62356D01*
X63212Y-62331D01*
X63204Y-62295D01*
X63223Y-62246D01*
X63249Y-62235D01*
X63287Y-62260D01*
X63295Y-62295D01*
X63295Y-62295D01*
X63295Y-62295D01*
G37*
G36*
X64385Y-62235D02*
X64365Y-62284D01*
X64322Y-62292D01*
X64285Y-62256D01*
X64284Y-62252D01*
X64284Y-62198D01*
X64334Y-62174D01*
X64344Y-62174D01*
X64377Y-62200D01*
X64385Y-62235D01*
X64385Y-62235D01*
X64385Y-62235D01*
G37*
G54D11*
X60050Y-67955D02*
X60050Y-68377D01*
X60028Y-68461D01*
X59983Y-68517D01*
X59915Y-68546D01*
X59870Y-68546D01*
X60253Y-68011D02*
X60275Y-67983D01*
X60320Y-67955D01*
X60433Y-67955D01*
X60478Y-67983D01*
X60500Y-68011D01*
X60523Y-68068D01*
X60523Y-68124D01*
X60500Y-68208D01*
X60230Y-68546D01*
X60523Y-68546D01*
X60973Y-68546D02*
X60703Y-68546D01*
X60838Y-68546D02*
X60838Y-67955D01*
X60793Y-68039D01*
X60748Y-68096D01*
X60703Y-68124D01*
X63889Y-53290D02*
X63889Y-53712D01*
X63866Y-53796D01*
X63821Y-53852D01*
X63754Y-53880D01*
X63709Y-53880D01*
X64091Y-53346D02*
X64114Y-53318D01*
X64159Y-53290D01*
X64271Y-53290D01*
X64316Y-53318D01*
X64339Y-53346D01*
X64361Y-53402D01*
X64361Y-53458D01*
X64339Y-53543D01*
X64069Y-53880D01*
X64361Y-53880D01*
X64766Y-53290D02*
X64676Y-53290D01*
X64631Y-53318D01*
X64609Y-53346D01*
X64564Y-53430D01*
X64541Y-53543D01*
X64541Y-53768D01*
X64564Y-53824D01*
X64586Y-53852D01*
X64631Y-53880D01*
X64721Y-53880D01*
X64766Y-53852D01*
X64789Y-53824D01*
X64811Y-53768D01*
X64811Y-53627D01*
X64789Y-53571D01*
X64766Y-53543D01*
X64721Y-53515D01*
X64631Y-53515D01*
X64586Y-53543D01*
X64564Y-53571D01*
X64541Y-53627D01*
X70877Y-71302D02*
X70877Y-71723D01*
X70854Y-71808D01*
X70809Y-71864D01*
X70742Y-71892D01*
X70697Y-71892D01*
X71079Y-71358D02*
X71102Y-71330D01*
X71147Y-71302D01*
X71259Y-71302D01*
X71304Y-71330D01*
X71327Y-71358D01*
X71349Y-71414D01*
X71349Y-71470D01*
X71327Y-71555D01*
X71057Y-71892D01*
X71349Y-71892D01*
X71754Y-71498D02*
X71754Y-71892D01*
X71642Y-71273D02*
X71529Y-71695D01*
X71822Y-71695D01*
X61428Y-71302D02*
X61428Y-71723D01*
X61406Y-71808D01*
X61361Y-71864D01*
X61293Y-71892D01*
X61248Y-71892D01*
X61631Y-71358D02*
X61653Y-71330D01*
X61698Y-71302D01*
X61811Y-71302D01*
X61856Y-71330D01*
X61878Y-71358D01*
X61901Y-71414D01*
X61901Y-71470D01*
X61878Y-71555D01*
X61608Y-71892D01*
X61901Y-71892D01*
X62080Y-71358D02*
X62103Y-71330D01*
X62148Y-71302D01*
X62260Y-71302D01*
X62305Y-71330D01*
X62328Y-71358D01*
X62350Y-71414D01*
X62350Y-71470D01*
X62328Y-71555D01*
X62058Y-71892D01*
X62350Y-71892D01*
X48239Y-72089D02*
X48239Y-72511D01*
X48217Y-72595D01*
X48172Y-72651D01*
X48104Y-72679D01*
X48059Y-72679D01*
X48442Y-72145D02*
X48464Y-72117D01*
X48509Y-72089D01*
X48622Y-72089D01*
X48667Y-72117D01*
X48689Y-72145D01*
X48712Y-72201D01*
X48712Y-72258D01*
X48689Y-72342D01*
X48419Y-72679D01*
X48712Y-72679D01*
X49004Y-72089D02*
X49049Y-72089D01*
X49094Y-72117D01*
X49116Y-72145D01*
X49139Y-72201D01*
X49161Y-72314D01*
X49161Y-72455D01*
X49139Y-72567D01*
X49116Y-72623D01*
X49094Y-72651D01*
X49049Y-72679D01*
X49004Y-72679D01*
X48959Y-72651D01*
X48937Y-72623D01*
X48914Y-72567D01*
X48892Y-72455D01*
X48892Y-72314D01*
X48914Y-72201D01*
X48937Y-72145D01*
X48959Y-72117D01*
X49004Y-72089D01*
X59853Y-53290D02*
X59853Y-53712D01*
X59831Y-53796D01*
X59786Y-53852D01*
X59718Y-53880D01*
X59673Y-53880D01*
X60056Y-53346D02*
X60078Y-53318D01*
X60123Y-53290D01*
X60236Y-53290D01*
X60281Y-53318D01*
X60303Y-53346D01*
X60326Y-53402D01*
X60326Y-53458D01*
X60303Y-53543D01*
X60033Y-53880D01*
X60326Y-53880D01*
X60483Y-53290D02*
X60798Y-53290D01*
X60596Y-53880D01*
X48141Y-52601D02*
X48141Y-53023D01*
X48118Y-53107D01*
X48073Y-53163D01*
X48006Y-53191D01*
X47961Y-53191D01*
X48343Y-52657D02*
X48366Y-52629D01*
X48411Y-52601D01*
X48523Y-52601D01*
X48568Y-52629D01*
X48591Y-52657D01*
X48613Y-52713D01*
X48613Y-52769D01*
X48591Y-52854D01*
X48321Y-53191D01*
X48613Y-53191D01*
X48883Y-52854D02*
X48838Y-52826D01*
X48816Y-52798D01*
X48793Y-52741D01*
X48793Y-52713D01*
X48816Y-52657D01*
X48838Y-52629D01*
X48883Y-52601D01*
X48973Y-52601D01*
X49018Y-52629D01*
X49041Y-52657D01*
X49063Y-52713D01*
X49063Y-52741D01*
X49041Y-52798D01*
X49018Y-52826D01*
X48973Y-52854D01*
X48883Y-52854D01*
X48838Y-52882D01*
X48816Y-52910D01*
X48793Y-52966D01*
X48793Y-53079D01*
X48816Y-53135D01*
X48838Y-53163D01*
X48883Y-53191D01*
X48973Y-53191D01*
X49018Y-53163D01*
X49041Y-53135D01*
X49063Y-53079D01*
X49063Y-52966D01*
X49041Y-52910D01*
X49018Y-52882D01*
X48973Y-52854D01*
G54D14*
X55106Y-57433D02*
X55001Y-57433D01*
X55001Y-57639D02*
X55001Y-57245D01*
X55151Y-57245D01*
X55256Y-57283D02*
X55271Y-57264D01*
X55301Y-57245D01*
X55376Y-57245D01*
X55406Y-57264D01*
X55421Y-57283D01*
X55436Y-57320D01*
X55436Y-57358D01*
X55421Y-57414D01*
X55241Y-57639D01*
X55436Y-57639D01*
X55631Y-57245D02*
X55661Y-57245D01*
X55691Y-57264D01*
X55706Y-57283D01*
X55721Y-57320D01*
X55736Y-57395D01*
X55736Y-57489D01*
X55721Y-57564D01*
X55706Y-57602D01*
X55691Y-57620D01*
X55661Y-57639D01*
X55631Y-57639D01*
X55601Y-57620D01*
X55586Y-57602D01*
X55571Y-57564D01*
X55556Y-57489D01*
X55556Y-57395D01*
X55571Y-57320D01*
X55586Y-57283D01*
X55601Y-57264D01*
X55631Y-57245D01*
X55856Y-57283D02*
X55871Y-57264D01*
X55901Y-57245D01*
X55976Y-57245D01*
X56006Y-57264D01*
X56021Y-57283D01*
X56036Y-57320D01*
X56036Y-57358D01*
X56021Y-57414D01*
X55841Y-57639D01*
X56036Y-57639D01*
X45228Y-63397D02*
X45228Y-63502D01*
X45434Y-63502D02*
X45041Y-63502D01*
X45041Y-63352D01*
X45078Y-63247D02*
X45059Y-63232D01*
X45041Y-63202D01*
X45041Y-63127D01*
X45059Y-63097D01*
X45078Y-63082D01*
X45116Y-63067D01*
X45153Y-63067D01*
X45209Y-63082D01*
X45434Y-63262D01*
X45434Y-63067D01*
X45041Y-62872D02*
X45041Y-62842D01*
X45059Y-62812D01*
X45078Y-62797D01*
X45116Y-62782D01*
X45191Y-62767D01*
X45284Y-62767D01*
X45359Y-62782D01*
X45397Y-62797D01*
X45416Y-62812D01*
X45434Y-62842D01*
X45434Y-62872D01*
X45416Y-62902D01*
X45397Y-62917D01*
X45359Y-62932D01*
X45284Y-62947D01*
X45191Y-62947D01*
X45116Y-62932D01*
X45078Y-62917D01*
X45059Y-62902D01*
X45041Y-62872D01*
X45434Y-62467D02*
X45434Y-62647D01*
X45434Y-62557D02*
X45041Y-62557D01*
X45097Y-62587D01*
X45134Y-62617D01*
X45153Y-62647D01*
X64214Y-69844D02*
X64064Y-69844D01*
X64064Y-69450D01*
X64304Y-69488D02*
X64319Y-69469D01*
X64349Y-69450D01*
X64424Y-69450D01*
X64454Y-69469D01*
X64469Y-69488D01*
X64484Y-69525D01*
X64484Y-69563D01*
X64469Y-69619D01*
X64289Y-69844D01*
X64484Y-69844D01*
X64679Y-69450D02*
X64709Y-69450D01*
X64739Y-69469D01*
X64754Y-69488D01*
X64769Y-69525D01*
X64784Y-69600D01*
X64784Y-69694D01*
X64769Y-69769D01*
X64754Y-69806D01*
X64739Y-69825D01*
X64709Y-69844D01*
X64679Y-69844D01*
X64649Y-69825D01*
X64634Y-69806D01*
X64619Y-69769D01*
X64604Y-69694D01*
X64604Y-69600D01*
X64619Y-69525D01*
X64634Y-69488D01*
X64649Y-69469D01*
X64679Y-69450D01*
X65084Y-69844D02*
X64904Y-69844D01*
X64994Y-69844D02*
X64994Y-69450D01*
X64964Y-69506D01*
X64934Y-69544D01*
X64904Y-69563D01*
X72600Y-55076D02*
X72412Y-55181D01*
X72600Y-55256D02*
X72206Y-55256D01*
X72206Y-55136D01*
X72225Y-55106D01*
X72244Y-55091D01*
X72281Y-55076D01*
X72337Y-55076D01*
X72375Y-55091D01*
X72394Y-55106D01*
X72412Y-55136D01*
X72412Y-55256D01*
X72244Y-54956D02*
X72225Y-54941D01*
X72206Y-54911D01*
X72206Y-54836D01*
X72225Y-54806D01*
X72244Y-54791D01*
X72281Y-54776D01*
X72319Y-54776D01*
X72375Y-54791D01*
X72600Y-54971D01*
X72600Y-54776D01*
X72206Y-54581D02*
X72206Y-54551D01*
X72225Y-54521D01*
X72244Y-54506D01*
X72281Y-54491D01*
X72356Y-54476D01*
X72450Y-54476D01*
X72525Y-54491D01*
X72562Y-54506D01*
X72581Y-54521D01*
X72600Y-54551D01*
X72600Y-54581D01*
X72581Y-54611D01*
X72562Y-54626D01*
X72525Y-54641D01*
X72450Y-54656D01*
X72356Y-54656D01*
X72281Y-54641D01*
X72244Y-54626D01*
X72225Y-54611D01*
X72206Y-54581D01*
X72600Y-54176D02*
X72600Y-54356D01*
X72600Y-54266D02*
X72206Y-54266D01*
X72262Y-54296D01*
X72300Y-54326D01*
X72319Y-54356D01*
X69332Y-58623D02*
X69227Y-58436D01*
X69152Y-58623D02*
X69152Y-58230D01*
X69272Y-58230D01*
X69302Y-58248D01*
X69317Y-58267D01*
X69332Y-58305D01*
X69332Y-58361D01*
X69317Y-58398D01*
X69302Y-58417D01*
X69272Y-58436D01*
X69152Y-58436D01*
X69452Y-58267D02*
X69467Y-58248D01*
X69497Y-58230D01*
X69572Y-58230D01*
X69602Y-58248D01*
X69617Y-58267D01*
X69632Y-58305D01*
X69632Y-58342D01*
X69617Y-58398D01*
X69437Y-58623D01*
X69632Y-58623D01*
X69827Y-58230D02*
X69857Y-58230D01*
X69887Y-58248D01*
X69902Y-58267D01*
X69917Y-58305D01*
X69932Y-58380D01*
X69932Y-58473D01*
X69917Y-58548D01*
X69902Y-58586D01*
X69887Y-58605D01*
X69857Y-58623D01*
X69827Y-58623D01*
X69797Y-58605D01*
X69782Y-58586D01*
X69767Y-58548D01*
X69752Y-58473D01*
X69752Y-58380D01*
X69767Y-58305D01*
X69782Y-58267D01*
X69797Y-58248D01*
X69827Y-58230D01*
X70217Y-58230D02*
X70067Y-58230D01*
X70052Y-58417D01*
X70067Y-58398D01*
X70097Y-58380D01*
X70172Y-58380D01*
X70202Y-58398D01*
X70217Y-58417D01*
X70232Y-58455D01*
X70232Y-58548D01*
X70217Y-58586D01*
X70202Y-58605D01*
X70172Y-58623D01*
X70097Y-58623D01*
X70067Y-58605D01*
X70052Y-58586D01*
X69332Y-59805D02*
X69227Y-59617D01*
X69152Y-59805D02*
X69152Y-59411D01*
X69272Y-59411D01*
X69302Y-59430D01*
X69317Y-59448D01*
X69332Y-59486D01*
X69332Y-59542D01*
X69317Y-59580D01*
X69302Y-59598D01*
X69272Y-59617D01*
X69152Y-59617D01*
X69452Y-59448D02*
X69467Y-59430D01*
X69497Y-59411D01*
X69572Y-59411D01*
X69602Y-59430D01*
X69617Y-59448D01*
X69632Y-59486D01*
X69632Y-59523D01*
X69617Y-59580D01*
X69437Y-59805D01*
X69632Y-59805D01*
X69827Y-59411D02*
X69857Y-59411D01*
X69887Y-59430D01*
X69902Y-59448D01*
X69917Y-59486D01*
X69932Y-59561D01*
X69932Y-59655D01*
X69917Y-59730D01*
X69902Y-59767D01*
X69887Y-59786D01*
X69857Y-59805D01*
X69827Y-59805D01*
X69797Y-59786D01*
X69782Y-59767D01*
X69767Y-59730D01*
X69752Y-59655D01*
X69752Y-59561D01*
X69767Y-59486D01*
X69782Y-59448D01*
X69797Y-59430D01*
X69827Y-59411D01*
X70202Y-59542D02*
X70202Y-59805D01*
X70127Y-59392D02*
X70052Y-59673D01*
X70247Y-59673D01*
X48072Y-66497D02*
X47967Y-66310D01*
X47892Y-66497D02*
X47892Y-66104D01*
X48012Y-66104D01*
X48042Y-66122D01*
X48057Y-66141D01*
X48072Y-66179D01*
X48072Y-66235D01*
X48057Y-66272D01*
X48042Y-66291D01*
X48012Y-66310D01*
X47892Y-66310D01*
X48192Y-66141D02*
X48207Y-66122D01*
X48237Y-66104D01*
X48312Y-66104D01*
X48342Y-66122D01*
X48357Y-66141D01*
X48372Y-66179D01*
X48372Y-66216D01*
X48357Y-66272D01*
X48177Y-66497D01*
X48372Y-66497D01*
X48672Y-66497D02*
X48492Y-66497D01*
X48582Y-66497D02*
X48582Y-66104D01*
X48552Y-66160D01*
X48522Y-66197D01*
X48492Y-66216D01*
X48777Y-66104D02*
X48987Y-66104D01*
X48852Y-66497D01*
X66182Y-67679D02*
X66077Y-67491D01*
X66002Y-67679D02*
X66002Y-67285D01*
X66122Y-67285D01*
X66152Y-67304D01*
X66167Y-67322D01*
X66182Y-67360D01*
X66182Y-67416D01*
X66167Y-67454D01*
X66152Y-67472D01*
X66122Y-67491D01*
X66002Y-67491D01*
X66302Y-67322D02*
X66317Y-67304D01*
X66347Y-67285D01*
X66422Y-67285D01*
X66452Y-67304D01*
X66467Y-67322D01*
X66482Y-67360D01*
X66482Y-67397D01*
X66467Y-67454D01*
X66287Y-67679D01*
X66482Y-67679D01*
X66782Y-67679D02*
X66602Y-67679D01*
X66692Y-67679D02*
X66692Y-67285D01*
X66662Y-67341D01*
X66632Y-67379D01*
X66602Y-67397D01*
X67052Y-67285D02*
X66992Y-67285D01*
X66962Y-67304D01*
X66947Y-67322D01*
X66917Y-67379D01*
X66902Y-67454D01*
X66902Y-67604D01*
X66917Y-67641D01*
X66932Y-67660D01*
X66962Y-67679D01*
X67022Y-67679D01*
X67052Y-67660D01*
X67067Y-67641D01*
X67082Y-67604D01*
X67082Y-67510D01*
X67067Y-67472D01*
X67052Y-67454D01*
X67022Y-67435D01*
X66962Y-67435D01*
X66932Y-67454D01*
X66917Y-67472D01*
X66902Y-67510D01*
X73860Y-69253D02*
X73755Y-69066D01*
X73680Y-69253D02*
X73680Y-68860D01*
X73800Y-68860D01*
X73830Y-68878D01*
X73845Y-68897D01*
X73860Y-68935D01*
X73860Y-68991D01*
X73845Y-69028D01*
X73830Y-69047D01*
X73800Y-69066D01*
X73680Y-69066D01*
X73980Y-68897D02*
X73995Y-68878D01*
X74025Y-68860D01*
X74100Y-68860D01*
X74130Y-68878D01*
X74145Y-68897D01*
X74160Y-68935D01*
X74160Y-68972D01*
X74145Y-69028D01*
X73965Y-69253D01*
X74160Y-69253D01*
X74460Y-69253D02*
X74280Y-69253D01*
X74370Y-69253D02*
X74370Y-68860D01*
X74340Y-68916D01*
X74310Y-68953D01*
X74280Y-68972D01*
X74745Y-68860D02*
X74595Y-68860D01*
X74580Y-69047D01*
X74595Y-69028D01*
X74625Y-69010D01*
X74700Y-69010D01*
X74730Y-69028D01*
X74745Y-69047D01*
X74760Y-69085D01*
X74760Y-69178D01*
X74745Y-69216D01*
X74730Y-69235D01*
X74700Y-69253D01*
X74625Y-69253D01*
X74595Y-69235D01*
X74580Y-69216D01*
X72482Y-69253D02*
X72377Y-69066D01*
X72302Y-69253D02*
X72302Y-68860D01*
X72422Y-68860D01*
X72452Y-68878D01*
X72467Y-68897D01*
X72482Y-68935D01*
X72482Y-68991D01*
X72467Y-69028D01*
X72452Y-69047D01*
X72422Y-69066D01*
X72302Y-69066D01*
X72602Y-68897D02*
X72617Y-68878D01*
X72647Y-68860D01*
X72722Y-68860D01*
X72752Y-68878D01*
X72767Y-68897D01*
X72782Y-68935D01*
X72782Y-68972D01*
X72767Y-69028D01*
X72587Y-69253D01*
X72782Y-69253D01*
X73082Y-69253D02*
X72902Y-69253D01*
X72992Y-69253D02*
X72992Y-68860D01*
X72962Y-68916D01*
X72932Y-68953D01*
X72902Y-68972D01*
X73352Y-68991D02*
X73352Y-69253D01*
X73277Y-68841D02*
X73202Y-69122D01*
X73397Y-69122D01*
X69332Y-69253D02*
X69227Y-69066D01*
X69152Y-69253D02*
X69152Y-68860D01*
X69272Y-68860D01*
X69302Y-68878D01*
X69317Y-68897D01*
X69332Y-68935D01*
X69332Y-68991D01*
X69317Y-69028D01*
X69302Y-69047D01*
X69272Y-69066D01*
X69152Y-69066D01*
X69452Y-68897D02*
X69467Y-68878D01*
X69497Y-68860D01*
X69572Y-68860D01*
X69602Y-68878D01*
X69617Y-68897D01*
X69632Y-68935D01*
X69632Y-68972D01*
X69617Y-69028D01*
X69437Y-69253D01*
X69632Y-69253D01*
X69932Y-69253D02*
X69752Y-69253D01*
X69842Y-69253D02*
X69842Y-68860D01*
X69812Y-68916D01*
X69782Y-68953D01*
X69752Y-68972D01*
X70037Y-68860D02*
X70232Y-68860D01*
X70127Y-69010D01*
X70172Y-69010D01*
X70202Y-69028D01*
X70217Y-69047D01*
X70232Y-69085D01*
X70232Y-69178D01*
X70217Y-69216D01*
X70202Y-69235D01*
X70172Y-69253D01*
X70082Y-69253D01*
X70052Y-69235D01*
X70037Y-69216D01*
X73781Y-62163D02*
X73593Y-62268D01*
X73781Y-62343D02*
X73387Y-62343D01*
X73387Y-62223D01*
X73406Y-62193D01*
X73425Y-62178D01*
X73462Y-62163D01*
X73518Y-62163D01*
X73556Y-62178D01*
X73575Y-62193D01*
X73593Y-62223D01*
X73593Y-62343D01*
X73425Y-62043D02*
X73406Y-62028D01*
X73387Y-61998D01*
X73387Y-61923D01*
X73406Y-61893D01*
X73425Y-61878D01*
X73462Y-61863D01*
X73500Y-61863D01*
X73556Y-61878D01*
X73781Y-62058D01*
X73781Y-61863D01*
X73387Y-61668D02*
X73387Y-61638D01*
X73406Y-61608D01*
X73425Y-61593D01*
X73462Y-61578D01*
X73537Y-61563D01*
X73631Y-61563D01*
X73706Y-61578D01*
X73743Y-61593D01*
X73762Y-61608D01*
X73781Y-61638D01*
X73781Y-61668D01*
X73762Y-61698D01*
X73743Y-61713D01*
X73706Y-61728D01*
X73631Y-61743D01*
X73537Y-61743D01*
X73462Y-61728D01*
X73425Y-61713D01*
X73406Y-61698D01*
X73387Y-61668D01*
X73387Y-61458D02*
X73387Y-61263D01*
X73537Y-61368D01*
X73537Y-61323D01*
X73556Y-61293D01*
X73575Y-61278D01*
X73612Y-61263D01*
X73706Y-61263D01*
X73743Y-61278D01*
X73762Y-61293D01*
X73781Y-61323D01*
X73781Y-61413D01*
X73762Y-61443D01*
X73743Y-61458D01*
X73781Y-64131D02*
X73593Y-64236D01*
X73781Y-64311D02*
X73387Y-64311D01*
X73387Y-64191D01*
X73406Y-64161D01*
X73425Y-64146D01*
X73462Y-64131D01*
X73518Y-64131D01*
X73556Y-64146D01*
X73575Y-64161D01*
X73593Y-64191D01*
X73593Y-64311D01*
X73425Y-64011D02*
X73406Y-63997D01*
X73387Y-63967D01*
X73387Y-63892D01*
X73406Y-63862D01*
X73425Y-63847D01*
X73462Y-63832D01*
X73500Y-63832D01*
X73556Y-63847D01*
X73781Y-64026D01*
X73781Y-63832D01*
X73387Y-63637D02*
X73387Y-63607D01*
X73406Y-63577D01*
X73425Y-63562D01*
X73462Y-63547D01*
X73537Y-63532D01*
X73631Y-63532D01*
X73706Y-63547D01*
X73743Y-63562D01*
X73762Y-63577D01*
X73781Y-63607D01*
X73781Y-63637D01*
X73762Y-63667D01*
X73743Y-63682D01*
X73706Y-63697D01*
X73631Y-63712D01*
X73537Y-63712D01*
X73462Y-63697D01*
X73425Y-63682D01*
X73406Y-63667D01*
X73387Y-63637D01*
X73425Y-63412D02*
X73406Y-63397D01*
X73387Y-63367D01*
X73387Y-63292D01*
X73406Y-63262D01*
X73425Y-63247D01*
X73462Y-63232D01*
X73500Y-63232D01*
X73556Y-63247D01*
X73781Y-63427D01*
X73781Y-63232D01*
X72562Y-56651D02*
X72581Y-56666D01*
X72600Y-56711D01*
X72600Y-56741D01*
X72581Y-56786D01*
X72544Y-56816D01*
X72506Y-56831D01*
X72431Y-56846D01*
X72375Y-56846D01*
X72300Y-56831D01*
X72262Y-56816D01*
X72225Y-56786D01*
X72206Y-56741D01*
X72206Y-56711D01*
X72225Y-56666D01*
X72244Y-56651D01*
X72244Y-56531D02*
X72225Y-56516D01*
X72206Y-56486D01*
X72206Y-56411D01*
X72225Y-56381D01*
X72244Y-56366D01*
X72281Y-56351D01*
X72319Y-56351D01*
X72375Y-56366D01*
X72600Y-56546D01*
X72600Y-56351D01*
X72206Y-56156D02*
X72206Y-56126D01*
X72225Y-56096D01*
X72244Y-56081D01*
X72281Y-56066D01*
X72356Y-56051D01*
X72450Y-56051D01*
X72525Y-56066D01*
X72562Y-56081D01*
X72581Y-56096D01*
X72600Y-56126D01*
X72600Y-56156D01*
X72581Y-56186D01*
X72562Y-56201D01*
X72525Y-56216D01*
X72450Y-56231D01*
X72356Y-56231D01*
X72281Y-56216D01*
X72244Y-56201D01*
X72225Y-56186D01*
X72206Y-56156D01*
X72375Y-55871D02*
X72356Y-55901D01*
X72337Y-55916D01*
X72300Y-55931D01*
X72281Y-55931D01*
X72244Y-55916D01*
X72225Y-55901D01*
X72206Y-55871D01*
X72206Y-55811D01*
X72225Y-55781D01*
X72244Y-55766D01*
X72281Y-55751D01*
X72300Y-55751D01*
X72337Y-55766D01*
X72356Y-55781D01*
X72375Y-55811D01*
X72375Y-55871D01*
X72394Y-55901D01*
X72412Y-55916D01*
X72450Y-55931D01*
X72525Y-55931D01*
X72562Y-55916D01*
X72581Y-55901D01*
X72600Y-55871D01*
X72600Y-55811D01*
X72581Y-55781D01*
X72562Y-55766D01*
X72525Y-55751D01*
X72450Y-55751D01*
X72412Y-55766D01*
X72394Y-55781D01*
X72375Y-55811D01*
X69332Y-52287D02*
X69317Y-52305D01*
X69272Y-52324D01*
X69242Y-52324D01*
X69197Y-52305D01*
X69167Y-52268D01*
X69152Y-52230D01*
X69137Y-52155D01*
X69137Y-52099D01*
X69152Y-52024D01*
X69167Y-51987D01*
X69197Y-51949D01*
X69242Y-51931D01*
X69272Y-51931D01*
X69317Y-51949D01*
X69332Y-51968D01*
X69452Y-51968D02*
X69467Y-51949D01*
X69497Y-51931D01*
X69572Y-51931D01*
X69602Y-51949D01*
X69617Y-51968D01*
X69632Y-52005D01*
X69632Y-52043D01*
X69617Y-52099D01*
X69437Y-52324D01*
X69632Y-52324D01*
X69827Y-51931D02*
X69857Y-51931D01*
X69887Y-51949D01*
X69902Y-51968D01*
X69917Y-52005D01*
X69932Y-52080D01*
X69932Y-52174D01*
X69917Y-52249D01*
X69902Y-52287D01*
X69887Y-52305D01*
X69857Y-52324D01*
X69827Y-52324D01*
X69797Y-52305D01*
X69782Y-52287D01*
X69767Y-52249D01*
X69752Y-52174D01*
X69752Y-52080D01*
X69767Y-52005D01*
X69782Y-51968D01*
X69797Y-51949D01*
X69827Y-51931D01*
X70037Y-51931D02*
X70247Y-51931D01*
X70112Y-52324D01*
X67757Y-59767D02*
X67742Y-59786D01*
X67697Y-59805D01*
X67667Y-59805D01*
X67622Y-59786D01*
X67592Y-59748D01*
X67577Y-59711D01*
X67562Y-59636D01*
X67562Y-59580D01*
X67577Y-59505D01*
X67592Y-59467D01*
X67622Y-59430D01*
X67667Y-59411D01*
X67697Y-59411D01*
X67742Y-59430D01*
X67757Y-59448D01*
X67877Y-59448D02*
X67892Y-59430D01*
X67922Y-59411D01*
X67997Y-59411D01*
X68027Y-59430D01*
X68042Y-59448D01*
X68057Y-59486D01*
X68057Y-59523D01*
X68042Y-59580D01*
X67862Y-59805D01*
X68057Y-59805D01*
X68252Y-59411D02*
X68282Y-59411D01*
X68312Y-59430D01*
X68327Y-59448D01*
X68342Y-59486D01*
X68357Y-59561D01*
X68357Y-59655D01*
X68342Y-59730D01*
X68327Y-59767D01*
X68312Y-59786D01*
X68282Y-59805D01*
X68252Y-59805D01*
X68222Y-59786D01*
X68207Y-59767D01*
X68192Y-59730D01*
X68177Y-59655D01*
X68177Y-59561D01*
X68192Y-59486D01*
X68207Y-59448D01*
X68222Y-59430D01*
X68252Y-59411D01*
X68627Y-59542D02*
X68627Y-59805D01*
X68552Y-59392D02*
X68477Y-59673D01*
X68672Y-59673D01*
X69332Y-53468D02*
X69317Y-53487D01*
X69272Y-53505D01*
X69242Y-53505D01*
X69197Y-53487D01*
X69167Y-53449D01*
X69152Y-53412D01*
X69137Y-53337D01*
X69137Y-53280D01*
X69152Y-53205D01*
X69167Y-53168D01*
X69197Y-53130D01*
X69242Y-53112D01*
X69272Y-53112D01*
X69317Y-53130D01*
X69332Y-53149D01*
X69452Y-53149D02*
X69467Y-53130D01*
X69497Y-53112D01*
X69572Y-53112D01*
X69602Y-53130D01*
X69617Y-53149D01*
X69632Y-53187D01*
X69632Y-53224D01*
X69617Y-53280D01*
X69437Y-53505D01*
X69632Y-53505D01*
X69827Y-53112D02*
X69857Y-53112D01*
X69887Y-53130D01*
X69902Y-53149D01*
X69917Y-53187D01*
X69932Y-53262D01*
X69932Y-53355D01*
X69917Y-53430D01*
X69902Y-53468D01*
X69887Y-53487D01*
X69857Y-53505D01*
X69827Y-53505D01*
X69797Y-53487D01*
X69782Y-53468D01*
X69767Y-53430D01*
X69752Y-53355D01*
X69752Y-53262D01*
X69767Y-53187D01*
X69782Y-53149D01*
X69797Y-53130D01*
X69827Y-53112D01*
X70202Y-53112D02*
X70142Y-53112D01*
X70112Y-53130D01*
X70097Y-53149D01*
X70067Y-53205D01*
X70052Y-53280D01*
X70052Y-53430D01*
X70067Y-53468D01*
X70082Y-53487D01*
X70112Y-53505D01*
X70172Y-53505D01*
X70202Y-53487D01*
X70217Y-53468D01*
X70232Y-53430D01*
X70232Y-53337D01*
X70217Y-53299D01*
X70202Y-53280D01*
X70172Y-53262D01*
X70112Y-53262D01*
X70082Y-53280D01*
X70067Y-53299D01*
X70052Y-53337D01*
X67757Y-58586D02*
X67742Y-58605D01*
X67697Y-58623D01*
X67667Y-58623D01*
X67622Y-58605D01*
X67592Y-58567D01*
X67577Y-58530D01*
X67562Y-58455D01*
X67562Y-58398D01*
X67577Y-58323D01*
X67592Y-58286D01*
X67622Y-58248D01*
X67667Y-58230D01*
X67697Y-58230D01*
X67742Y-58248D01*
X67757Y-58267D01*
X67877Y-58267D02*
X67892Y-58248D01*
X67922Y-58230D01*
X67997Y-58230D01*
X68027Y-58248D01*
X68042Y-58267D01*
X68057Y-58305D01*
X68057Y-58342D01*
X68042Y-58398D01*
X67862Y-58623D01*
X68057Y-58623D01*
X68252Y-58230D02*
X68282Y-58230D01*
X68312Y-58248D01*
X68327Y-58267D01*
X68342Y-58305D01*
X68357Y-58380D01*
X68357Y-58473D01*
X68342Y-58548D01*
X68327Y-58586D01*
X68312Y-58605D01*
X68282Y-58623D01*
X68252Y-58623D01*
X68222Y-58605D01*
X68207Y-58586D01*
X68192Y-58548D01*
X68177Y-58473D01*
X68177Y-58380D01*
X68192Y-58305D01*
X68207Y-58267D01*
X68222Y-58248D01*
X68252Y-58230D01*
X68642Y-58230D02*
X68492Y-58230D01*
X68477Y-58417D01*
X68492Y-58398D01*
X68522Y-58380D01*
X68597Y-58380D01*
X68627Y-58398D01*
X68642Y-58417D01*
X68657Y-58455D01*
X68657Y-58548D01*
X68642Y-58586D01*
X68627Y-58605D01*
X68597Y-58623D01*
X68522Y-58623D01*
X68492Y-58605D01*
X68477Y-58586D01*
X56064Y-56437D02*
X55671Y-56437D01*
X55671Y-56362D01*
X55689Y-56317D01*
X55727Y-56287D01*
X55764Y-56272D01*
X55839Y-56257D01*
X55896Y-56257D01*
X55971Y-56272D01*
X56008Y-56287D01*
X56046Y-56317D01*
X56064Y-56362D01*
X56064Y-56437D01*
X55708Y-56137D02*
X55689Y-56122D01*
X55671Y-56092D01*
X55671Y-56017D01*
X55689Y-55988D01*
X55708Y-55973D01*
X55746Y-55958D01*
X55783Y-55958D01*
X55839Y-55973D01*
X56064Y-56152D01*
X56064Y-55958D01*
X55671Y-55763D02*
X55671Y-55733D01*
X55689Y-55703D01*
X55708Y-55688D01*
X55746Y-55673D01*
X55821Y-55658D01*
X55914Y-55658D01*
X55989Y-55673D01*
X56027Y-55688D01*
X56046Y-55703D01*
X56064Y-55733D01*
X56064Y-55763D01*
X56046Y-55793D01*
X56027Y-55808D01*
X55989Y-55823D01*
X55914Y-55838D01*
X55821Y-55838D01*
X55746Y-55823D01*
X55708Y-55808D01*
X55689Y-55793D01*
X55671Y-55763D01*
X55708Y-55538D02*
X55689Y-55523D01*
X55671Y-55493D01*
X55671Y-55418D01*
X55689Y-55388D01*
X55708Y-55373D01*
X55746Y-55358D01*
X55783Y-55358D01*
X55839Y-55373D01*
X56064Y-55553D01*
X56064Y-55358D01*
X67757Y-53505D02*
X67652Y-53318D01*
X67577Y-53505D02*
X67577Y-53112D01*
X67697Y-53112D01*
X67727Y-53130D01*
X67742Y-53149D01*
X67757Y-53187D01*
X67757Y-53243D01*
X67742Y-53280D01*
X67727Y-53299D01*
X67697Y-53318D01*
X67577Y-53318D01*
X67877Y-53149D02*
X67892Y-53130D01*
X67922Y-53112D01*
X67997Y-53112D01*
X68027Y-53130D01*
X68042Y-53149D01*
X68057Y-53187D01*
X68057Y-53224D01*
X68042Y-53280D01*
X67862Y-53505D01*
X68057Y-53505D01*
X68252Y-53112D02*
X68282Y-53112D01*
X68312Y-53130D01*
X68327Y-53149D01*
X68342Y-53187D01*
X68357Y-53262D01*
X68357Y-53355D01*
X68342Y-53430D01*
X68327Y-53468D01*
X68312Y-53487D01*
X68282Y-53505D01*
X68252Y-53505D01*
X68222Y-53487D01*
X68207Y-53468D01*
X68192Y-53430D01*
X68177Y-53355D01*
X68177Y-53262D01*
X68192Y-53187D01*
X68207Y-53149D01*
X68222Y-53130D01*
X68252Y-53112D01*
X68627Y-53112D02*
X68567Y-53112D01*
X68537Y-53130D01*
X68522Y-53149D01*
X68492Y-53205D01*
X68477Y-53280D01*
X68477Y-53430D01*
X68492Y-53468D01*
X68507Y-53487D01*
X68537Y-53505D01*
X68597Y-53505D01*
X68627Y-53487D01*
X68642Y-53468D01*
X68657Y-53430D01*
X68657Y-53337D01*
X68642Y-53299D01*
X68627Y-53280D01*
X68597Y-53262D01*
X68537Y-53262D01*
X68507Y-53280D01*
X68492Y-53299D01*
X68477Y-53337D01*
X67757Y-52324D02*
X67652Y-52137D01*
X67577Y-52324D02*
X67577Y-51931D01*
X67697Y-51931D01*
X67727Y-51949D01*
X67742Y-51968D01*
X67757Y-52005D01*
X67757Y-52062D01*
X67742Y-52099D01*
X67727Y-52118D01*
X67697Y-52137D01*
X67577Y-52137D01*
X67877Y-51968D02*
X67892Y-51949D01*
X67922Y-51931D01*
X67997Y-51931D01*
X68027Y-51949D01*
X68042Y-51968D01*
X68057Y-52005D01*
X68057Y-52043D01*
X68042Y-52099D01*
X67862Y-52324D01*
X68057Y-52324D01*
X68252Y-51931D02*
X68282Y-51931D01*
X68312Y-51949D01*
X68327Y-51968D01*
X68342Y-52005D01*
X68357Y-52080D01*
X68357Y-52174D01*
X68342Y-52249D01*
X68327Y-52287D01*
X68312Y-52305D01*
X68282Y-52324D01*
X68252Y-52324D01*
X68222Y-52305D01*
X68207Y-52287D01*
X68192Y-52249D01*
X68177Y-52174D01*
X68177Y-52080D01*
X68192Y-52005D01*
X68207Y-51968D01*
X68222Y-51949D01*
X68252Y-51931D01*
X68462Y-51931D02*
X68672Y-51931D01*
X68537Y-52324D01*
X72088Y-61773D02*
X71983Y-61586D01*
X71908Y-61773D02*
X71908Y-61379D01*
X72028Y-61379D01*
X72058Y-61398D01*
X72073Y-61417D01*
X72088Y-61454D01*
X72088Y-61511D01*
X72073Y-61548D01*
X72058Y-61567D01*
X72028Y-61586D01*
X71908Y-61586D01*
X72208Y-61417D02*
X72223Y-61398D01*
X72253Y-61379D01*
X72328Y-61379D01*
X72358Y-61398D01*
X72373Y-61417D01*
X72388Y-61454D01*
X72388Y-61492D01*
X72373Y-61548D01*
X72193Y-61773D01*
X72388Y-61773D01*
X72583Y-61379D02*
X72613Y-61379D01*
X72643Y-61398D01*
X72658Y-61417D01*
X72673Y-61454D01*
X72688Y-61529D01*
X72688Y-61623D01*
X72673Y-61698D01*
X72658Y-61736D01*
X72643Y-61754D01*
X72613Y-61773D01*
X72583Y-61773D01*
X72553Y-61754D01*
X72538Y-61736D01*
X72523Y-61698D01*
X72508Y-61623D01*
X72508Y-61529D01*
X72523Y-61454D01*
X72538Y-61417D01*
X72553Y-61398D01*
X72583Y-61379D01*
X72868Y-61548D02*
X72838Y-61529D01*
X72823Y-61511D01*
X72808Y-61473D01*
X72808Y-61454D01*
X72823Y-61417D01*
X72838Y-61398D01*
X72868Y-61379D01*
X72928Y-61379D01*
X72958Y-61398D01*
X72973Y-61417D01*
X72988Y-61454D01*
X72988Y-61473D01*
X72973Y-61511D01*
X72958Y-61529D01*
X72928Y-61548D01*
X72868Y-61548D01*
X72838Y-61567D01*
X72823Y-61586D01*
X72808Y-61623D01*
X72808Y-61698D01*
X72823Y-61736D01*
X72838Y-61754D01*
X72868Y-61773D01*
X72928Y-61773D01*
X72958Y-61754D01*
X72973Y-61736D01*
X72988Y-61698D01*
X72988Y-61623D01*
X72973Y-61586D01*
X72958Y-61567D01*
X72928Y-61548D01*
X46497Y-66460D02*
X46482Y-66479D01*
X46437Y-66497D01*
X46407Y-66497D01*
X46362Y-66479D01*
X46332Y-66441D01*
X46317Y-66404D01*
X46302Y-66329D01*
X46302Y-66272D01*
X46317Y-66197D01*
X46332Y-66160D01*
X46362Y-66122D01*
X46407Y-66104D01*
X46437Y-66104D01*
X46482Y-66122D01*
X46497Y-66141D01*
X46617Y-66141D02*
X46632Y-66122D01*
X46662Y-66104D01*
X46737Y-66104D01*
X46767Y-66122D01*
X46782Y-66141D01*
X46797Y-66179D01*
X46797Y-66216D01*
X46782Y-66272D01*
X46602Y-66497D01*
X46797Y-66497D01*
X47097Y-66497D02*
X46917Y-66497D01*
X47007Y-66497D02*
X47007Y-66104D01*
X46977Y-66160D01*
X46947Y-66197D01*
X46917Y-66216D01*
X47397Y-66497D02*
X47217Y-66497D01*
X47307Y-66497D02*
X47307Y-66104D01*
X47277Y-66160D01*
X47247Y-66197D01*
X47217Y-66216D01*
X45119Y-66460D02*
X45104Y-66479D01*
X45059Y-66497D01*
X45029Y-66497D01*
X44985Y-66479D01*
X44955Y-66441D01*
X44940Y-66404D01*
X44925Y-66329D01*
X44925Y-66272D01*
X44940Y-66197D01*
X44955Y-66160D01*
X44985Y-66122D01*
X45029Y-66104D01*
X45059Y-66104D01*
X45104Y-66122D01*
X45119Y-66141D01*
X45239Y-66141D02*
X45254Y-66122D01*
X45284Y-66104D01*
X45359Y-66104D01*
X45389Y-66122D01*
X45404Y-66141D01*
X45419Y-66179D01*
X45419Y-66216D01*
X45404Y-66272D01*
X45224Y-66497D01*
X45419Y-66497D01*
X45719Y-66497D02*
X45539Y-66497D01*
X45629Y-66497D02*
X45629Y-66104D01*
X45599Y-66160D01*
X45569Y-66197D01*
X45539Y-66216D01*
X45839Y-66141D02*
X45854Y-66122D01*
X45884Y-66104D01*
X45959Y-66104D01*
X45989Y-66122D01*
X46004Y-66141D01*
X46019Y-66179D01*
X46019Y-66216D01*
X46004Y-66272D01*
X45824Y-66497D01*
X46019Y-66497D01*
X58899Y-54649D02*
X58884Y-54668D01*
X58839Y-54686D01*
X58809Y-54686D01*
X58764Y-54668D01*
X58734Y-54630D01*
X58719Y-54593D01*
X58704Y-54518D01*
X58704Y-54461D01*
X58719Y-54386D01*
X58734Y-54349D01*
X58764Y-54311D01*
X58809Y-54293D01*
X58839Y-54293D01*
X58884Y-54311D01*
X58899Y-54330D01*
X59019Y-54330D02*
X59034Y-54311D01*
X59064Y-54293D01*
X59139Y-54293D01*
X59169Y-54311D01*
X59184Y-54330D01*
X59199Y-54368D01*
X59199Y-54405D01*
X59184Y-54461D01*
X59004Y-54686D01*
X59199Y-54686D01*
X59499Y-54686D02*
X59319Y-54686D01*
X59409Y-54686D02*
X59409Y-54293D01*
X59379Y-54349D01*
X59349Y-54386D01*
X59319Y-54405D01*
X59769Y-54293D02*
X59709Y-54293D01*
X59679Y-54311D01*
X59664Y-54330D01*
X59634Y-54386D01*
X59619Y-54461D01*
X59619Y-54611D01*
X59634Y-54649D01*
X59649Y-54668D01*
X59679Y-54686D01*
X59739Y-54686D01*
X59769Y-54668D01*
X59784Y-54649D01*
X59799Y-54611D01*
X59799Y-54518D01*
X59784Y-54480D01*
X59769Y-54461D01*
X59739Y-54443D01*
X59679Y-54443D01*
X59649Y-54461D01*
X59634Y-54480D01*
X59619Y-54518D01*
X57324Y-54649D02*
X57309Y-54668D01*
X57264Y-54686D01*
X57234Y-54686D01*
X57189Y-54668D01*
X57159Y-54630D01*
X57144Y-54593D01*
X57129Y-54518D01*
X57129Y-54461D01*
X57144Y-54386D01*
X57159Y-54349D01*
X57189Y-54311D01*
X57234Y-54293D01*
X57264Y-54293D01*
X57309Y-54311D01*
X57324Y-54330D01*
X57444Y-54330D02*
X57459Y-54311D01*
X57489Y-54293D01*
X57564Y-54293D01*
X57594Y-54311D01*
X57609Y-54330D01*
X57624Y-54368D01*
X57624Y-54405D01*
X57609Y-54461D01*
X57429Y-54686D01*
X57624Y-54686D01*
X57924Y-54686D02*
X57744Y-54686D01*
X57834Y-54686D02*
X57834Y-54293D01*
X57804Y-54349D01*
X57774Y-54386D01*
X57744Y-54405D01*
X58209Y-54293D02*
X58059Y-54293D01*
X58044Y-54480D01*
X58059Y-54461D01*
X58089Y-54443D01*
X58164Y-54443D01*
X58194Y-54461D01*
X58209Y-54480D01*
X58224Y-54518D01*
X58224Y-54611D01*
X58209Y-54649D01*
X58194Y-54668D01*
X58164Y-54686D01*
X58089Y-54686D01*
X58059Y-54668D01*
X58044Y-54649D01*
X64805Y-54649D02*
X64790Y-54668D01*
X64745Y-54686D01*
X64715Y-54686D01*
X64670Y-54668D01*
X64640Y-54630D01*
X64625Y-54593D01*
X64610Y-54518D01*
X64610Y-54461D01*
X64625Y-54386D01*
X64640Y-54349D01*
X64670Y-54311D01*
X64715Y-54293D01*
X64745Y-54293D01*
X64790Y-54311D01*
X64805Y-54330D01*
X64925Y-54330D02*
X64940Y-54311D01*
X64970Y-54293D01*
X65044Y-54293D01*
X65074Y-54311D01*
X65089Y-54330D01*
X65104Y-54368D01*
X65104Y-54405D01*
X65089Y-54461D01*
X64910Y-54686D01*
X65104Y-54686D01*
X65299Y-54293D02*
X65329Y-54293D01*
X65359Y-54311D01*
X65374Y-54330D01*
X65389Y-54368D01*
X65404Y-54443D01*
X65404Y-54536D01*
X65389Y-54611D01*
X65374Y-54649D01*
X65359Y-54668D01*
X65329Y-54686D01*
X65299Y-54686D01*
X65269Y-54668D01*
X65254Y-54649D01*
X65239Y-54611D01*
X65224Y-54536D01*
X65224Y-54443D01*
X65239Y-54368D01*
X65254Y-54330D01*
X65269Y-54311D01*
X65299Y-54293D01*
X65704Y-54686D02*
X65524Y-54686D01*
X65614Y-54686D02*
X65614Y-54293D01*
X65584Y-54349D01*
X65554Y-54386D01*
X65524Y-54405D01*
X74844Y-59570D02*
X74829Y-59589D01*
X74784Y-59608D01*
X74754Y-59608D01*
X74709Y-59589D01*
X74679Y-59551D01*
X74664Y-59514D01*
X74649Y-59439D01*
X74649Y-59383D01*
X74664Y-59308D01*
X74679Y-59270D01*
X74709Y-59233D01*
X74754Y-59214D01*
X74784Y-59214D01*
X74829Y-59233D01*
X74844Y-59251D01*
X74964Y-59251D02*
X74979Y-59233D01*
X75009Y-59214D01*
X75084Y-59214D01*
X75114Y-59233D01*
X75129Y-59251D01*
X75144Y-59289D01*
X75144Y-59326D01*
X75129Y-59383D01*
X74949Y-59608D01*
X75144Y-59608D01*
X75444Y-59608D02*
X75264Y-59608D01*
X75354Y-59608D02*
X75354Y-59214D01*
X75324Y-59270D01*
X75294Y-59308D01*
X75264Y-59326D01*
X75714Y-59345D02*
X75714Y-59608D01*
X75639Y-59195D02*
X75564Y-59476D01*
X75759Y-59476D01*
X66379Y-54649D02*
X66364Y-54668D01*
X66319Y-54686D01*
X66289Y-54686D01*
X66244Y-54668D01*
X66214Y-54630D01*
X66199Y-54593D01*
X66184Y-54518D01*
X66184Y-54461D01*
X66199Y-54386D01*
X66214Y-54349D01*
X66244Y-54311D01*
X66289Y-54293D01*
X66319Y-54293D01*
X66364Y-54311D01*
X66379Y-54330D01*
X66499Y-54330D02*
X66514Y-54311D01*
X66544Y-54293D01*
X66619Y-54293D01*
X66649Y-54311D01*
X66664Y-54330D01*
X66679Y-54368D01*
X66679Y-54405D01*
X66664Y-54461D01*
X66484Y-54686D01*
X66679Y-54686D01*
X66874Y-54293D02*
X66904Y-54293D01*
X66934Y-54311D01*
X66949Y-54330D01*
X66964Y-54368D01*
X66979Y-54443D01*
X66979Y-54536D01*
X66964Y-54611D01*
X66949Y-54649D01*
X66934Y-54668D01*
X66904Y-54686D01*
X66874Y-54686D01*
X66844Y-54668D01*
X66829Y-54649D01*
X66814Y-54611D01*
X66799Y-54536D01*
X66799Y-54443D01*
X66814Y-54368D01*
X66829Y-54330D01*
X66844Y-54311D01*
X66874Y-54293D01*
X67084Y-54293D02*
X67279Y-54293D01*
X67174Y-54443D01*
X67219Y-54443D01*
X67249Y-54461D01*
X67264Y-54480D01*
X67279Y-54518D01*
X67279Y-54611D01*
X67264Y-54649D01*
X67249Y-54668D01*
X67219Y-54686D01*
X67129Y-54686D01*
X67099Y-54668D01*
X67084Y-54649D01*
X61664Y-55671D02*
X61844Y-55671D01*
X61754Y-56064D02*
X61754Y-55671D01*
X61934Y-55708D02*
X61949Y-55689D01*
X61979Y-55671D01*
X62054Y-55671D01*
X62084Y-55689D01*
X62099Y-55708D01*
X62114Y-55746D01*
X62114Y-55783D01*
X62099Y-55839D01*
X61919Y-56064D01*
X62114Y-56064D01*
X62309Y-55671D02*
X62339Y-55671D01*
X62369Y-55689D01*
X62384Y-55708D01*
X62399Y-55746D01*
X62414Y-55821D01*
X62414Y-55914D01*
X62399Y-55989D01*
X62384Y-56027D01*
X62369Y-56046D01*
X62339Y-56064D01*
X62309Y-56064D01*
X62279Y-56046D01*
X62264Y-56027D01*
X62249Y-55989D01*
X62234Y-55914D01*
X62234Y-55821D01*
X62249Y-55746D01*
X62264Y-55708D01*
X62279Y-55689D01*
X62309Y-55671D01*
X62534Y-55708D02*
X62549Y-55689D01*
X62579Y-55671D01*
X62654Y-55671D01*
X62684Y-55689D01*
X62699Y-55708D01*
X62714Y-55746D01*
X62714Y-55783D01*
X62699Y-55839D01*
X62519Y-56064D01*
X62714Y-56064D01*
X50247Y-66497D02*
X50427Y-66497D01*
X50337Y-66891D02*
X50337Y-66497D01*
X50517Y-66535D02*
X50532Y-66516D01*
X50562Y-66497D01*
X50637Y-66497D01*
X50667Y-66516D01*
X50682Y-66535D01*
X50697Y-66572D01*
X50697Y-66610D01*
X50682Y-66666D01*
X50502Y-66891D01*
X50697Y-66891D01*
X50892Y-66497D02*
X50922Y-66497D01*
X50952Y-66516D01*
X50967Y-66535D01*
X50982Y-66572D01*
X50997Y-66647D01*
X50997Y-66741D01*
X50982Y-66816D01*
X50967Y-66854D01*
X50952Y-66872D01*
X50922Y-66891D01*
X50892Y-66891D01*
X50862Y-66872D01*
X50847Y-66854D01*
X50832Y-66816D01*
X50817Y-66741D01*
X50817Y-66647D01*
X50832Y-66572D01*
X50847Y-66535D01*
X50862Y-66516D01*
X50892Y-66497D01*
X51297Y-66891D02*
X51117Y-66891D01*
X51207Y-66891D02*
X51207Y-66497D01*
X51177Y-66554D01*
X51147Y-66591D01*
X51117Y-66610D01*
X71025Y-56437D02*
X70631Y-56437D01*
X70631Y-56362D01*
X70650Y-56317D01*
X70688Y-56287D01*
X70725Y-56272D01*
X70800Y-56257D01*
X70856Y-56257D01*
X70931Y-56272D01*
X70969Y-56287D01*
X71006Y-56317D01*
X71025Y-56362D01*
X71025Y-56437D01*
X70669Y-56137D02*
X70650Y-56122D01*
X70631Y-56092D01*
X70631Y-56017D01*
X70650Y-55988D01*
X70669Y-55973D01*
X70706Y-55958D01*
X70744Y-55958D01*
X70800Y-55973D01*
X71025Y-56152D01*
X71025Y-55958D01*
X70631Y-55763D02*
X70631Y-55733D01*
X70650Y-55703D01*
X70669Y-55688D01*
X70706Y-55673D01*
X70781Y-55658D01*
X70875Y-55658D01*
X70950Y-55673D01*
X70988Y-55688D01*
X71006Y-55703D01*
X71025Y-55733D01*
X71025Y-55763D01*
X71006Y-55793D01*
X70988Y-55808D01*
X70950Y-55823D01*
X70875Y-55838D01*
X70781Y-55838D01*
X70706Y-55823D01*
X70669Y-55808D01*
X70650Y-55793D01*
X70631Y-55763D01*
X71025Y-55358D02*
X71025Y-55538D01*
X71025Y-55448D02*
X70631Y-55448D01*
X70688Y-55478D01*
X70725Y-55508D01*
X70744Y-55538D01*
X74844Y-52680D02*
X74829Y-52699D01*
X74784Y-52718D01*
X74754Y-52718D01*
X74709Y-52699D01*
X74679Y-52662D01*
X74664Y-52624D01*
X74649Y-52549D01*
X74649Y-52493D01*
X74664Y-52418D01*
X74679Y-52380D01*
X74709Y-52343D01*
X74754Y-52324D01*
X74784Y-52324D01*
X74829Y-52343D01*
X74844Y-52362D01*
X74964Y-52362D02*
X74979Y-52343D01*
X75009Y-52324D01*
X75084Y-52324D01*
X75114Y-52343D01*
X75129Y-52362D01*
X75144Y-52399D01*
X75144Y-52437D01*
X75129Y-52493D01*
X74949Y-52718D01*
X75144Y-52718D01*
X75339Y-52324D02*
X75369Y-52324D01*
X75399Y-52343D01*
X75414Y-52362D01*
X75429Y-52399D01*
X75444Y-52474D01*
X75444Y-52568D01*
X75429Y-52643D01*
X75414Y-52680D01*
X75399Y-52699D01*
X75369Y-52718D01*
X75339Y-52718D01*
X75309Y-52699D01*
X75294Y-52680D01*
X75279Y-52643D01*
X75264Y-52568D01*
X75264Y-52474D01*
X75279Y-52399D01*
X75294Y-52362D01*
X75309Y-52343D01*
X75339Y-52324D01*
X75594Y-52718D02*
X75654Y-52718D01*
X75684Y-52699D01*
X75699Y-52680D01*
X75729Y-52624D01*
X75744Y-52549D01*
X75744Y-52399D01*
X75729Y-52362D01*
X75714Y-52343D01*
X75684Y-52324D01*
X75624Y-52324D01*
X75594Y-52343D01*
X75579Y-52362D01*
X75564Y-52399D01*
X75564Y-52493D01*
X75579Y-52530D01*
X75594Y-52549D01*
X75624Y-52568D01*
X75684Y-52568D01*
X75714Y-52549D01*
X75729Y-52530D01*
X75744Y-52493D01*
X50434Y-60161D02*
X50419Y-60179D01*
X50374Y-60198D01*
X50344Y-60198D01*
X50299Y-60179D01*
X50269Y-60142D01*
X50254Y-60104D01*
X50239Y-60029D01*
X50239Y-59973D01*
X50254Y-59898D01*
X50269Y-59861D01*
X50299Y-59823D01*
X50344Y-59805D01*
X50374Y-59805D01*
X50419Y-59823D01*
X50434Y-59842D01*
X50554Y-59842D02*
X50569Y-59823D01*
X50599Y-59805D01*
X50674Y-59805D01*
X50704Y-59823D01*
X50719Y-59842D01*
X50734Y-59880D01*
X50734Y-59917D01*
X50719Y-59973D01*
X50539Y-60198D01*
X50734Y-60198D01*
X51034Y-60198D02*
X50854Y-60198D01*
X50944Y-60198D02*
X50944Y-59805D01*
X50914Y-59861D01*
X50884Y-59898D01*
X50854Y-59917D01*
X51214Y-59973D02*
X51184Y-59955D01*
X51169Y-59936D01*
X51154Y-59898D01*
X51154Y-59880D01*
X51169Y-59842D01*
X51184Y-59823D01*
X51214Y-59805D01*
X51274Y-59805D01*
X51304Y-59823D01*
X51319Y-59842D01*
X51334Y-59880D01*
X51334Y-59898D01*
X51319Y-59936D01*
X51304Y-59955D01*
X51274Y-59973D01*
X51214Y-59973D01*
X51184Y-59992D01*
X51169Y-60011D01*
X51154Y-60048D01*
X51154Y-60123D01*
X51169Y-60161D01*
X51184Y-60179D01*
X51214Y-60198D01*
X51274Y-60198D01*
X51304Y-60179D01*
X51319Y-60161D01*
X51334Y-60123D01*
X51334Y-60048D01*
X51319Y-60011D01*
X51304Y-59992D01*
X51274Y-59973D01*
X68545Y-60358D02*
X68530Y-60376D01*
X68485Y-60395D01*
X68455Y-60395D01*
X68410Y-60376D01*
X68380Y-60339D01*
X68365Y-60301D01*
X68350Y-60226D01*
X68350Y-60170D01*
X68365Y-60095D01*
X68380Y-60058D01*
X68410Y-60020D01*
X68455Y-60001D01*
X68485Y-60001D01*
X68530Y-60020D01*
X68545Y-60039D01*
X68665Y-60039D02*
X68680Y-60020D01*
X68710Y-60001D01*
X68785Y-60001D01*
X68815Y-60020D01*
X68830Y-60039D01*
X68845Y-60076D01*
X68845Y-60114D01*
X68830Y-60170D01*
X68650Y-60395D01*
X68845Y-60395D01*
X69145Y-60395D02*
X68965Y-60395D01*
X69055Y-60395D02*
X69055Y-60001D01*
X69025Y-60058D01*
X68995Y-60095D01*
X68965Y-60114D01*
X69250Y-60001D02*
X69460Y-60001D01*
X69325Y-60395D01*
X78790Y-59805D02*
X78790Y-60123D01*
X78805Y-60161D01*
X78820Y-60179D01*
X78850Y-60198D01*
X78910Y-60198D01*
X78940Y-60179D01*
X78955Y-60161D01*
X78970Y-60123D01*
X78970Y-59805D01*
X79105Y-59842D02*
X79120Y-59823D01*
X79150Y-59805D01*
X79225Y-59805D01*
X79255Y-59823D01*
X79270Y-59842D01*
X79285Y-59880D01*
X79285Y-59917D01*
X79270Y-59973D01*
X79090Y-60198D01*
X79285Y-60198D01*
X79480Y-59805D02*
X79510Y-59805D01*
X79540Y-59823D01*
X79555Y-59842D01*
X79570Y-59880D01*
X79585Y-59955D01*
X79585Y-60048D01*
X79570Y-60123D01*
X79555Y-60161D01*
X79540Y-60179D01*
X79510Y-60198D01*
X79480Y-60198D01*
X79450Y-60179D01*
X79435Y-60161D01*
X79420Y-60123D01*
X79405Y-60048D01*
X79405Y-59955D01*
X79420Y-59880D01*
X79435Y-59842D01*
X79450Y-59823D01*
X79480Y-59805D01*
X79885Y-60198D02*
X79705Y-60198D01*
X79795Y-60198D02*
X79795Y-59805D01*
X79765Y-59861D01*
X79735Y-59898D01*
X79705Y-59917D01*
X72110Y-64960D02*
X72080Y-64941D01*
X72050Y-64904D01*
X72005Y-64848D01*
X71976Y-64829D01*
X71946Y-64829D01*
X71961Y-64923D02*
X71931Y-64904D01*
X71901Y-64866D01*
X71886Y-64791D01*
X71886Y-64660D01*
X71901Y-64585D01*
X71931Y-64548D01*
X71961Y-64529D01*
X72020Y-64529D01*
X72050Y-64548D01*
X72080Y-64585D01*
X72095Y-64660D01*
X72095Y-64791D01*
X72080Y-64866D01*
X72050Y-64904D01*
X72020Y-64923D01*
X71961Y-64923D01*
X72215Y-64566D02*
X72230Y-64548D01*
X72260Y-64529D01*
X72335Y-64529D01*
X72365Y-64548D01*
X72380Y-64566D01*
X72395Y-64604D01*
X72395Y-64641D01*
X72380Y-64698D01*
X72200Y-64923D01*
X72395Y-64923D01*
X72590Y-64529D02*
X72620Y-64529D01*
X72650Y-64548D01*
X72665Y-64566D01*
X72680Y-64604D01*
X72695Y-64679D01*
X72695Y-64773D01*
X72680Y-64848D01*
X72665Y-64885D01*
X72650Y-64904D01*
X72620Y-64923D01*
X72590Y-64923D01*
X72560Y-64904D01*
X72545Y-64885D01*
X72530Y-64848D01*
X72515Y-64773D01*
X72515Y-64679D01*
X72530Y-64604D01*
X72545Y-64566D01*
X72560Y-64548D01*
X72590Y-64529D01*
X72995Y-64923D02*
X72815Y-64923D01*
X72905Y-64923D02*
X72905Y-64529D01*
X72875Y-64585D01*
X72845Y-64623D01*
X72815Y-64641D01*
X53387Y-60592D02*
X53237Y-60592D01*
X53237Y-60198D01*
X53477Y-60236D02*
X53492Y-60217D01*
X53522Y-60198D01*
X53597Y-60198D01*
X53627Y-60217D01*
X53642Y-60236D01*
X53657Y-60273D01*
X53657Y-60311D01*
X53642Y-60367D01*
X53462Y-60592D01*
X53657Y-60592D01*
X53852Y-60198D02*
X53882Y-60198D01*
X53912Y-60217D01*
X53927Y-60236D01*
X53942Y-60273D01*
X53957Y-60348D01*
X53957Y-60442D01*
X53942Y-60517D01*
X53927Y-60554D01*
X53912Y-60573D01*
X53882Y-60592D01*
X53852Y-60592D01*
X53822Y-60573D01*
X53807Y-60554D01*
X53792Y-60517D01*
X53777Y-60442D01*
X53777Y-60348D01*
X53792Y-60273D01*
X53807Y-60236D01*
X53822Y-60217D01*
X53852Y-60198D01*
X54077Y-60236D02*
X54092Y-60217D01*
X54122Y-60198D01*
X54197Y-60198D01*
X54227Y-60217D01*
X54242Y-60236D01*
X54257Y-60273D01*
X54257Y-60311D01*
X54242Y-60367D01*
X54062Y-60592D01*
X54257Y-60592D01*
G54D11*
X75601Y-71302D02*
X75601Y-71723D01*
X75579Y-71808D01*
X75534Y-71864D01*
X75466Y-71892D01*
X75421Y-71892D01*
X75804Y-71358D02*
X75826Y-71330D01*
X75871Y-71302D01*
X75984Y-71302D01*
X76029Y-71330D01*
X76051Y-71358D01*
X76074Y-71414D01*
X76074Y-71470D01*
X76051Y-71555D01*
X75781Y-71892D01*
X76074Y-71892D01*
X76501Y-71302D02*
X76276Y-71302D01*
X76254Y-71583D01*
X76276Y-71555D01*
X76321Y-71526D01*
X76434Y-71526D01*
X76479Y-71555D01*
X76501Y-71583D01*
X76524Y-71639D01*
X76524Y-71780D01*
X76501Y-71836D01*
X76479Y-71864D01*
X76434Y-71892D01*
X76321Y-71892D01*
X76276Y-71864D01*
X76254Y-71836D01*
X66152Y-71302D02*
X66152Y-71723D01*
X66130Y-71808D01*
X66085Y-71864D01*
X66017Y-71892D01*
X65973Y-71892D01*
X66355Y-71358D02*
X66377Y-71330D01*
X66422Y-71302D01*
X66535Y-71302D01*
X66580Y-71330D01*
X66602Y-71358D01*
X66625Y-71414D01*
X66625Y-71470D01*
X66602Y-71555D01*
X66332Y-71892D01*
X66625Y-71892D01*
X66782Y-71302D02*
X67075Y-71302D01*
X66917Y-71526D01*
X66985Y-71526D01*
X67030Y-71555D01*
X67052Y-71583D01*
X67075Y-71639D01*
X67075Y-71780D01*
X67052Y-71836D01*
X67030Y-71864D01*
X66985Y-71892D01*
X66850Y-71892D01*
X66805Y-71864D01*
X66782Y-71836D01*
G54D14*
X70719Y-68269D02*
X70899Y-68269D01*
X70809Y-68663D02*
X70809Y-68269D01*
X70989Y-68307D02*
X71004Y-68288D01*
X71034Y-68269D01*
X71109Y-68269D01*
X71139Y-68288D01*
X71154Y-68307D01*
X71169Y-68344D01*
X71169Y-68382D01*
X71154Y-68438D01*
X70974Y-68663D01*
X71169Y-68663D01*
X71364Y-68269D02*
X71394Y-68269D01*
X71424Y-68288D01*
X71439Y-68307D01*
X71454Y-68344D01*
X71469Y-68419D01*
X71469Y-68513D01*
X71454Y-68588D01*
X71439Y-68625D01*
X71424Y-68644D01*
X71394Y-68663D01*
X71364Y-68663D01*
X71334Y-68644D01*
X71319Y-68625D01*
X71304Y-68588D01*
X71289Y-68513D01*
X71289Y-68419D01*
X71304Y-68344D01*
X71319Y-68307D01*
X71334Y-68288D01*
X71364Y-68269D01*
X71574Y-68269D02*
X71769Y-68269D01*
X71664Y-68419D01*
X71709Y-68419D01*
X71739Y-68438D01*
X71754Y-68457D01*
X71769Y-68494D01*
X71769Y-68588D01*
X71754Y-68625D01*
X71739Y-68644D01*
X71709Y-68663D01*
X71619Y-68663D01*
X71589Y-68644D01*
X71574Y-68625D01*
X74056Y-65082D02*
X74041Y-65101D01*
X73997Y-65119D01*
X73967Y-65119D01*
X73922Y-65101D01*
X73892Y-65063D01*
X73877Y-65026D01*
X73862Y-64951D01*
X73862Y-64895D01*
X73877Y-64820D01*
X73892Y-64782D01*
X73922Y-64745D01*
X73967Y-64726D01*
X73997Y-64726D01*
X74041Y-64745D01*
X74056Y-64763D01*
X74176Y-64763D02*
X74191Y-64745D01*
X74221Y-64726D01*
X74296Y-64726D01*
X74326Y-64745D01*
X74341Y-64763D01*
X74356Y-64801D01*
X74356Y-64838D01*
X74341Y-64895D01*
X74161Y-65119D01*
X74356Y-65119D01*
X74656Y-65119D02*
X74476Y-65119D01*
X74566Y-65119D02*
X74566Y-64726D01*
X74536Y-64782D01*
X74506Y-64820D01*
X74476Y-64838D01*
X74851Y-64726D02*
X74881Y-64726D01*
X74911Y-64745D01*
X74926Y-64763D01*
X74941Y-64801D01*
X74956Y-64876D01*
X74956Y-64970D01*
X74941Y-65044D01*
X74926Y-65082D01*
X74911Y-65101D01*
X74881Y-65119D01*
X74851Y-65119D01*
X74821Y-65101D01*
X74806Y-65082D01*
X74791Y-65044D01*
X74776Y-64970D01*
X74776Y-64876D01*
X74791Y-64801D01*
X74806Y-64763D01*
X74821Y-64745D01*
X74851Y-64726D01*
G54D10*
G36*
X83020Y-68847D02*
X76427Y-68847D01*
X76427Y-66979D01*
X83020Y-66979D01*
X83020Y-68847D01*
X83020Y-68847D01*
G37*
G54D15*
X83020Y-68847D02*
X76427Y-68847D01*
X76427Y-66979D01*
X83020Y-66979D01*
X83020Y-68847D01*
M02*
