G04 (created by PCBNEW (2013-mar-25)-stable) date Friday, August 07, 2015 08:39:55 AM*
%MOIN*%
G04 Gerber Fmt 3.4, Leading zero omitted, Abs format*
%FSLAX34Y34*%
G01*
G70*
G90*
G04 APERTURE LIST*
%ADD10C,0.005*%
%ADD11C,0.00590551*%
%ADD12C,0.00787402*%
%ADD13C,0.011811*%
G04 APERTURE END LIST*
G54D10*
G54D11*
X44488Y-74803D02*
X44488Y-51181D01*
X44488Y-51181D02*
X83464Y-51181D01*
X83464Y-51181D02*
X83464Y-74803D01*
X83464Y-74803D02*
X44488Y-74803D01*
G54D12*
X45590Y-68818D02*
X45748Y-68976D01*
X45748Y-68818D02*
X45590Y-68976D01*
X46771Y-68031D02*
X46929Y-68188D01*
X46929Y-68031D02*
X46771Y-68188D01*
X48346Y-68031D02*
X48503Y-68188D01*
X48503Y-68031D02*
X48346Y-68188D01*
X48937Y-53661D02*
X49094Y-53818D01*
X49094Y-53661D02*
X48937Y-53818D01*
X49921Y-64488D02*
X50078Y-64645D01*
X50078Y-64488D02*
X49921Y-64645D01*
X50708Y-65472D02*
X50866Y-65629D01*
X50866Y-65472D02*
X50708Y-65629D01*
X51496Y-64488D02*
X51653Y-64645D01*
X51653Y-64488D02*
X51496Y-64645D01*
X56220Y-53661D02*
X56377Y-53818D01*
X56377Y-53661D02*
X56220Y-53818D01*
X68031Y-64488D02*
X68188Y-64645D01*
X68188Y-64488D02*
X68031Y-64645D01*
X68818Y-65472D02*
X68976Y-65629D01*
X68976Y-65472D02*
X68818Y-65629D01*
X69311Y-73444D02*
X69468Y-73602D01*
X69468Y-73444D02*
X69311Y-73602D01*
X69606Y-64488D02*
X69763Y-64645D01*
X69763Y-64488D02*
X69606Y-64645D01*
X70393Y-52677D02*
X70551Y-52834D01*
X70551Y-52677D02*
X70393Y-52834D01*
X70393Y-55236D02*
X70551Y-55393D01*
X70551Y-55236D02*
X70393Y-55393D01*
X70393Y-58976D02*
X70551Y-59133D01*
X70551Y-58976D02*
X70393Y-59133D01*
X70688Y-68917D02*
X70846Y-69074D01*
X70846Y-68917D02*
X70688Y-69074D01*
X71574Y-53858D02*
X71732Y-54015D01*
X71732Y-53858D02*
X71574Y-54015D01*
X71673Y-68917D02*
X71830Y-69074D01*
X71830Y-68917D02*
X71673Y-69074D01*
X72362Y-66062D02*
X72519Y-66220D01*
X72519Y-66062D02*
X72362Y-66220D01*
X72952Y-65078D02*
X73110Y-65236D01*
X73110Y-65078D02*
X72952Y-65236D01*
X72952Y-67047D02*
X73110Y-67204D01*
X73110Y-67047D02*
X72952Y-67204D01*
X73937Y-60157D02*
X74094Y-60314D01*
X74094Y-60157D02*
X73937Y-60314D01*
X74330Y-54251D02*
X74488Y-54409D01*
X74488Y-54251D02*
X74330Y-54409D01*
X74330Y-60944D02*
X74488Y-61102D01*
X74488Y-60944D02*
X74330Y-61102D01*
X74527Y-70393D02*
X74685Y-70551D01*
X74685Y-70393D02*
X74527Y-70551D01*
X75118Y-53267D02*
X75275Y-53425D01*
X75275Y-53267D02*
X75118Y-53425D01*
X75118Y-62913D02*
X75275Y-63070D01*
X75275Y-62913D02*
X75118Y-63070D01*
X75905Y-54251D02*
X76062Y-54409D01*
X76062Y-54251D02*
X75905Y-54409D01*
X76496Y-62913D02*
X76653Y-63070D01*
X76653Y-62913D02*
X76496Y-63070D01*
X79055Y-60354D02*
X79212Y-60511D01*
X79212Y-60354D02*
X79055Y-60511D01*
X79055Y-65472D02*
X79212Y-65629D01*
X79212Y-65472D02*
X79055Y-65629D01*
X80039Y-60354D02*
X80196Y-60511D01*
X80196Y-60354D02*
X80039Y-60511D01*
X80039Y-65472D02*
X80196Y-65629D01*
X80196Y-65472D02*
X80039Y-65629D01*
X81023Y-60354D02*
X81181Y-60511D01*
X81181Y-60354D02*
X81023Y-60511D01*
X81023Y-65472D02*
X81181Y-65629D01*
X81181Y-65472D02*
X81023Y-65629D01*
X81811Y-60944D02*
X81968Y-61102D01*
X81968Y-60944D02*
X81811Y-61102D01*
X81811Y-61929D02*
X81968Y-62086D01*
X81968Y-61929D02*
X81811Y-62086D01*
X81811Y-62913D02*
X81968Y-63070D01*
X81968Y-62913D02*
X81811Y-63070D01*
X81811Y-63897D02*
X81968Y-64055D01*
X81968Y-63897D02*
X81811Y-64055D01*
X81811Y-64881D02*
X81968Y-65039D01*
X81968Y-64881D02*
X81811Y-65039D01*
X54698Y-69153D02*
G75*
G03X54698Y-69153I-149J0D01*
G74*
G01*
X55198Y-68153D02*
G75*
G03X55198Y-68153I-149J0D01*
G74*
G01*
X55698Y-69153D02*
G75*
G03X55698Y-69153I-149J0D01*
G74*
G01*
X56198Y-68153D02*
G75*
G03X56198Y-68153I-149J0D01*
G74*
G01*
X56698Y-69153D02*
G75*
G03X56698Y-69153I-149J0D01*
G74*
G01*
X57198Y-68153D02*
G75*
G03X57198Y-68153I-149J0D01*
G74*
G01*
X57698Y-69153D02*
G75*
G03X57698Y-69153I-149J0D01*
G74*
G01*
X58198Y-68153D02*
G75*
G03X58198Y-68153I-149J0D01*
G74*
G01*
X50287Y-73208D02*
X50287Y-73641D01*
X50070Y-73425D02*
X50503Y-73425D01*
X51287Y-73208D02*
X51287Y-73641D01*
X51070Y-73425D02*
X51503Y-73425D01*
X57767Y-52342D02*
X57767Y-52775D01*
X57551Y-52559D02*
X57984Y-52559D01*
X58767Y-52342D02*
X58767Y-52775D01*
X58551Y-52559D02*
X58984Y-52559D01*
X61311Y-73208D02*
X61311Y-73641D01*
X61094Y-73425D02*
X61527Y-73425D01*
X61704Y-52342D02*
X61704Y-52775D01*
X61488Y-52559D02*
X61921Y-52559D01*
X62311Y-73208D02*
X62311Y-73641D01*
X62094Y-73425D02*
X62527Y-73425D01*
X62704Y-52342D02*
X62704Y-52775D01*
X62488Y-52559D02*
X62921Y-52559D01*
X70759Y-73208D02*
X70759Y-73641D01*
X70543Y-73425D02*
X70976Y-73425D01*
X71759Y-73208D02*
X71759Y-73641D01*
X71543Y-73425D02*
X71976Y-73425D01*
G54D13*
X45527Y-76609D02*
X45527Y-75428D01*
X45808Y-75428D01*
X45977Y-75485D01*
X46089Y-75597D01*
X46145Y-75710D01*
X46202Y-75935D01*
X46202Y-76103D01*
X46145Y-76328D01*
X46089Y-76441D01*
X45977Y-76553D01*
X45808Y-76609D01*
X45527Y-76609D01*
X46708Y-76609D02*
X46708Y-75822D01*
X46708Y-76047D02*
X46764Y-75935D01*
X46820Y-75878D01*
X46933Y-75822D01*
X47045Y-75822D01*
X47439Y-76609D02*
X47439Y-75822D01*
X47439Y-75428D02*
X47383Y-75485D01*
X47439Y-75541D01*
X47495Y-75485D01*
X47439Y-75428D01*
X47439Y-75541D01*
X48170Y-76609D02*
X48058Y-76553D01*
X48001Y-76441D01*
X48001Y-75428D01*
X48789Y-76609D02*
X48676Y-76553D01*
X48620Y-76441D01*
X48620Y-75428D01*
X50139Y-76609D02*
X50139Y-75428D01*
X50532Y-76272D01*
X50926Y-75428D01*
X50926Y-76609D01*
X51995Y-76609D02*
X51995Y-75991D01*
X51938Y-75878D01*
X51826Y-75822D01*
X51601Y-75822D01*
X51489Y-75878D01*
X51995Y-76553D02*
X51882Y-76609D01*
X51601Y-76609D01*
X51489Y-76553D01*
X51432Y-76441D01*
X51432Y-76328D01*
X51489Y-76216D01*
X51601Y-76160D01*
X51882Y-76160D01*
X51995Y-76103D01*
X52557Y-75822D02*
X52557Y-77003D01*
X52557Y-75878D02*
X52670Y-75822D01*
X52895Y-75822D01*
X53007Y-75878D01*
X53063Y-75935D01*
X53120Y-76047D01*
X53120Y-76384D01*
X53063Y-76497D01*
X53007Y-76553D01*
X52895Y-76609D01*
X52670Y-76609D01*
X52557Y-76553D01*
X53626Y-76497D02*
X53682Y-76553D01*
X53626Y-76609D01*
X53570Y-76553D01*
X53626Y-76497D01*
X53626Y-76609D01*
X53626Y-75878D02*
X53682Y-75935D01*
X53626Y-75991D01*
X53570Y-75935D01*
X53626Y-75878D01*
X53626Y-75991D01*
X44301Y-78533D02*
X44458Y-78690D01*
X44458Y-78533D02*
X44301Y-78690D01*
X45752Y-77909D02*
X45864Y-77909D01*
X45977Y-77965D01*
X46033Y-78021D01*
X46089Y-78134D01*
X46145Y-78359D01*
X46145Y-78640D01*
X46089Y-78865D01*
X46033Y-78977D01*
X45977Y-79034D01*
X45864Y-79090D01*
X45752Y-79090D01*
X45639Y-79034D01*
X45583Y-78977D01*
X45527Y-78865D01*
X45471Y-78640D01*
X45471Y-78359D01*
X45527Y-78134D01*
X45583Y-78021D01*
X45639Y-77965D01*
X45752Y-77909D01*
X46652Y-78977D02*
X46708Y-79034D01*
X46652Y-79090D01*
X46595Y-79034D01*
X46652Y-78977D01*
X46652Y-79090D01*
X47720Y-78302D02*
X47720Y-79090D01*
X47439Y-77852D02*
X47158Y-78696D01*
X47889Y-78696D01*
X48564Y-77909D02*
X48676Y-77909D01*
X48789Y-77965D01*
X48845Y-78021D01*
X48901Y-78134D01*
X48958Y-78359D01*
X48958Y-78640D01*
X48901Y-78865D01*
X48845Y-78977D01*
X48789Y-79034D01*
X48676Y-79090D01*
X48564Y-79090D01*
X48451Y-79034D01*
X48395Y-78977D01*
X48339Y-78865D01*
X48283Y-78640D01*
X48283Y-78359D01*
X48339Y-78134D01*
X48395Y-78021D01*
X48451Y-77965D01*
X48564Y-77909D01*
X49464Y-79090D02*
X49464Y-78302D01*
X49464Y-78415D02*
X49520Y-78359D01*
X49633Y-78302D01*
X49801Y-78302D01*
X49914Y-78359D01*
X49970Y-78471D01*
X49970Y-79090D01*
X49970Y-78471D02*
X50026Y-78359D01*
X50139Y-78302D01*
X50307Y-78302D01*
X50420Y-78359D01*
X50476Y-78471D01*
X50476Y-79090D01*
X51039Y-79090D02*
X51039Y-78302D01*
X51039Y-78415D02*
X51095Y-78359D01*
X51207Y-78302D01*
X51376Y-78302D01*
X51489Y-78359D01*
X51545Y-78471D01*
X51545Y-79090D01*
X51545Y-78471D02*
X51601Y-78359D01*
X51714Y-78302D01*
X51882Y-78302D01*
X51995Y-78359D01*
X52051Y-78471D01*
X52051Y-79090D01*
X54357Y-77852D02*
X53345Y-79371D01*
X55875Y-77909D02*
X55988Y-77909D01*
X56100Y-77965D01*
X56157Y-78021D01*
X56213Y-78134D01*
X56269Y-78359D01*
X56269Y-78640D01*
X56213Y-78865D01*
X56157Y-78977D01*
X56100Y-79034D01*
X55988Y-79090D01*
X55875Y-79090D01*
X55763Y-79034D01*
X55707Y-78977D01*
X55651Y-78865D01*
X55594Y-78640D01*
X55594Y-78359D01*
X55651Y-78134D01*
X55707Y-78021D01*
X55763Y-77965D01*
X55875Y-77909D01*
X56775Y-78977D02*
X56832Y-79034D01*
X56775Y-79090D01*
X56719Y-79034D01*
X56775Y-78977D01*
X56775Y-79090D01*
X57563Y-77909D02*
X57675Y-77909D01*
X57788Y-77965D01*
X57844Y-78021D01*
X57900Y-78134D01*
X57956Y-78359D01*
X57956Y-78640D01*
X57900Y-78865D01*
X57844Y-78977D01*
X57788Y-79034D01*
X57675Y-79090D01*
X57563Y-79090D01*
X57450Y-79034D01*
X57394Y-78977D01*
X57338Y-78865D01*
X57282Y-78640D01*
X57282Y-78359D01*
X57338Y-78134D01*
X57394Y-78021D01*
X57450Y-77965D01*
X57563Y-77909D01*
X59081Y-79090D02*
X58406Y-79090D01*
X58744Y-79090D02*
X58744Y-77909D01*
X58631Y-78077D01*
X58519Y-78190D01*
X58406Y-78246D01*
X60094Y-77909D02*
X59869Y-77909D01*
X59756Y-77965D01*
X59700Y-78021D01*
X59588Y-78190D01*
X59531Y-78415D01*
X59531Y-78865D01*
X59588Y-78977D01*
X59644Y-79034D01*
X59756Y-79090D01*
X59981Y-79090D01*
X60094Y-79034D01*
X60150Y-78977D01*
X60206Y-78865D01*
X60206Y-78584D01*
X60150Y-78471D01*
X60094Y-78415D01*
X59981Y-78359D01*
X59756Y-78359D01*
X59644Y-78415D01*
X59588Y-78471D01*
X59531Y-78584D01*
X60656Y-77909D02*
X60656Y-78134D01*
X61106Y-77909D02*
X61106Y-78134D01*
X62850Y-79540D02*
X62793Y-79483D01*
X62681Y-79315D01*
X62625Y-79202D01*
X62568Y-79034D01*
X62512Y-78752D01*
X62512Y-78527D01*
X62568Y-78246D01*
X62625Y-78077D01*
X62681Y-77965D01*
X62793Y-77796D01*
X62850Y-77740D01*
X63806Y-78302D02*
X63806Y-79090D01*
X63525Y-77852D02*
X63243Y-78696D01*
X63974Y-78696D01*
X64649Y-77909D02*
X64762Y-77909D01*
X64874Y-77965D01*
X64931Y-78021D01*
X64987Y-78134D01*
X65043Y-78359D01*
X65043Y-78640D01*
X64987Y-78865D01*
X64931Y-78977D01*
X64874Y-79034D01*
X64762Y-79090D01*
X64649Y-79090D01*
X64537Y-79034D01*
X64481Y-78977D01*
X64424Y-78865D01*
X64368Y-78640D01*
X64368Y-78359D01*
X64424Y-78134D01*
X64481Y-78021D01*
X64537Y-77965D01*
X64649Y-77909D01*
X66449Y-79090D02*
X66449Y-77909D01*
X66955Y-79090D02*
X66955Y-78471D01*
X66899Y-78359D01*
X66787Y-78302D01*
X66618Y-78302D01*
X66505Y-78359D01*
X66449Y-78415D01*
X67687Y-79090D02*
X67574Y-79034D01*
X67518Y-78977D01*
X67462Y-78865D01*
X67462Y-78527D01*
X67518Y-78415D01*
X67574Y-78359D01*
X67687Y-78302D01*
X67855Y-78302D01*
X67968Y-78359D01*
X68024Y-78415D01*
X68080Y-78527D01*
X68080Y-78865D01*
X68024Y-78977D01*
X67968Y-79034D01*
X67855Y-79090D01*
X67687Y-79090D01*
X68755Y-79090D02*
X68643Y-79034D01*
X68586Y-78921D01*
X68586Y-77909D01*
X69655Y-79034D02*
X69543Y-79090D01*
X69318Y-79090D01*
X69205Y-79034D01*
X69149Y-78921D01*
X69149Y-78471D01*
X69205Y-78359D01*
X69318Y-78302D01*
X69543Y-78302D01*
X69655Y-78359D01*
X69711Y-78471D01*
X69711Y-78584D01*
X69149Y-78696D01*
X70161Y-79034D02*
X70274Y-79090D01*
X70499Y-79090D01*
X70611Y-79034D01*
X70667Y-78921D01*
X70667Y-78865D01*
X70611Y-78752D01*
X70499Y-78696D01*
X70330Y-78696D01*
X70217Y-78640D01*
X70161Y-78527D01*
X70161Y-78471D01*
X70217Y-78359D01*
X70330Y-78302D01*
X70499Y-78302D01*
X70611Y-78359D01*
X71061Y-79540D02*
X71117Y-79483D01*
X71230Y-79315D01*
X71286Y-79202D01*
X71342Y-79034D01*
X71399Y-78752D01*
X71399Y-78527D01*
X71342Y-78246D01*
X71286Y-78077D01*
X71230Y-77965D01*
X71117Y-77796D01*
X71061Y-77740D01*
G54D12*
X44458Y-80171D02*
G75*
G03X44458Y-80171I-149J0D01*
G74*
G01*
G54D13*
X45752Y-79468D02*
X45864Y-79468D01*
X45977Y-79524D01*
X46033Y-79580D01*
X46089Y-79693D01*
X46145Y-79918D01*
X46145Y-80199D01*
X46089Y-80424D01*
X46033Y-80536D01*
X45977Y-80593D01*
X45864Y-80649D01*
X45752Y-80649D01*
X45639Y-80593D01*
X45583Y-80536D01*
X45527Y-80424D01*
X45471Y-80199D01*
X45471Y-79918D01*
X45527Y-79693D01*
X45583Y-79580D01*
X45639Y-79524D01*
X45752Y-79468D01*
X46652Y-80536D02*
X46708Y-80593D01*
X46652Y-80649D01*
X46595Y-80593D01*
X46652Y-80536D01*
X46652Y-80649D01*
X47102Y-79468D02*
X47889Y-79468D01*
X47383Y-80649D01*
X48845Y-79468D02*
X48620Y-79468D01*
X48508Y-79524D01*
X48451Y-79580D01*
X48339Y-79749D01*
X48283Y-79974D01*
X48283Y-80424D01*
X48339Y-80536D01*
X48395Y-80593D01*
X48508Y-80649D01*
X48733Y-80649D01*
X48845Y-80593D01*
X48901Y-80536D01*
X48958Y-80424D01*
X48958Y-80143D01*
X48901Y-80030D01*
X48845Y-79974D01*
X48733Y-79918D01*
X48508Y-79918D01*
X48395Y-79974D01*
X48339Y-80030D01*
X48283Y-80143D01*
X49464Y-80649D02*
X49464Y-79861D01*
X49464Y-79974D02*
X49520Y-79918D01*
X49633Y-79861D01*
X49801Y-79861D01*
X49914Y-79918D01*
X49970Y-80030D01*
X49970Y-80649D01*
X49970Y-80030D02*
X50026Y-79918D01*
X50139Y-79861D01*
X50307Y-79861D01*
X50420Y-79918D01*
X50476Y-80030D01*
X50476Y-80649D01*
X51039Y-80649D02*
X51039Y-79861D01*
X51039Y-79974D02*
X51095Y-79918D01*
X51207Y-79861D01*
X51376Y-79861D01*
X51489Y-79918D01*
X51545Y-80030D01*
X51545Y-80649D01*
X51545Y-80030D02*
X51601Y-79918D01*
X51714Y-79861D01*
X51882Y-79861D01*
X51995Y-79918D01*
X52051Y-80030D01*
X52051Y-80649D01*
X54357Y-79411D02*
X53345Y-80930D01*
X55875Y-79468D02*
X55988Y-79468D01*
X56100Y-79524D01*
X56157Y-79580D01*
X56213Y-79693D01*
X56269Y-79918D01*
X56269Y-80199D01*
X56213Y-80424D01*
X56157Y-80536D01*
X56100Y-80593D01*
X55988Y-80649D01*
X55875Y-80649D01*
X55763Y-80593D01*
X55707Y-80536D01*
X55651Y-80424D01*
X55594Y-80199D01*
X55594Y-79918D01*
X55651Y-79693D01*
X55707Y-79580D01*
X55763Y-79524D01*
X55875Y-79468D01*
X56775Y-80536D02*
X56832Y-80593D01*
X56775Y-80649D01*
X56719Y-80593D01*
X56775Y-80536D01*
X56775Y-80649D01*
X57563Y-79468D02*
X57675Y-79468D01*
X57788Y-79524D01*
X57844Y-79580D01*
X57900Y-79693D01*
X57956Y-79918D01*
X57956Y-80199D01*
X57900Y-80424D01*
X57844Y-80536D01*
X57788Y-80593D01*
X57675Y-80649D01*
X57563Y-80649D01*
X57450Y-80593D01*
X57394Y-80536D01*
X57338Y-80424D01*
X57282Y-80199D01*
X57282Y-79918D01*
X57338Y-79693D01*
X57394Y-79580D01*
X57450Y-79524D01*
X57563Y-79468D01*
X58350Y-79468D02*
X59081Y-79468D01*
X58688Y-79918D01*
X58856Y-79918D01*
X58969Y-79974D01*
X59025Y-80030D01*
X59081Y-80143D01*
X59081Y-80424D01*
X59025Y-80536D01*
X58969Y-80593D01*
X58856Y-80649D01*
X58519Y-80649D01*
X58406Y-80593D01*
X58350Y-80536D01*
X59812Y-79468D02*
X59925Y-79468D01*
X60037Y-79524D01*
X60094Y-79580D01*
X60150Y-79693D01*
X60206Y-79918D01*
X60206Y-80199D01*
X60150Y-80424D01*
X60094Y-80536D01*
X60037Y-80593D01*
X59925Y-80649D01*
X59812Y-80649D01*
X59700Y-80593D01*
X59644Y-80536D01*
X59588Y-80424D01*
X59531Y-80199D01*
X59531Y-79918D01*
X59588Y-79693D01*
X59644Y-79580D01*
X59700Y-79524D01*
X59812Y-79468D01*
X60656Y-79468D02*
X60656Y-79693D01*
X61106Y-79468D02*
X61106Y-79693D01*
X62850Y-81099D02*
X62793Y-81043D01*
X62681Y-80874D01*
X62625Y-80761D01*
X62568Y-80593D01*
X62512Y-80311D01*
X62512Y-80086D01*
X62568Y-79805D01*
X62625Y-79636D01*
X62681Y-79524D01*
X62793Y-79355D01*
X62850Y-79299D01*
X63468Y-79974D02*
X63356Y-79918D01*
X63300Y-79861D01*
X63243Y-79749D01*
X63243Y-79693D01*
X63300Y-79580D01*
X63356Y-79524D01*
X63468Y-79468D01*
X63693Y-79468D01*
X63806Y-79524D01*
X63862Y-79580D01*
X63918Y-79693D01*
X63918Y-79749D01*
X63862Y-79861D01*
X63806Y-79918D01*
X63693Y-79974D01*
X63468Y-79974D01*
X63356Y-80030D01*
X63300Y-80086D01*
X63243Y-80199D01*
X63243Y-80424D01*
X63300Y-80536D01*
X63356Y-80593D01*
X63468Y-80649D01*
X63693Y-80649D01*
X63806Y-80593D01*
X63862Y-80536D01*
X63918Y-80424D01*
X63918Y-80199D01*
X63862Y-80086D01*
X63806Y-80030D01*
X63693Y-79974D01*
X65324Y-80649D02*
X65324Y-79468D01*
X65830Y-80649D02*
X65830Y-80030D01*
X65774Y-79918D01*
X65662Y-79861D01*
X65493Y-79861D01*
X65381Y-79918D01*
X65324Y-79974D01*
X66562Y-80649D02*
X66449Y-80593D01*
X66393Y-80536D01*
X66337Y-80424D01*
X66337Y-80086D01*
X66393Y-79974D01*
X66449Y-79918D01*
X66562Y-79861D01*
X66730Y-79861D01*
X66843Y-79918D01*
X66899Y-79974D01*
X66955Y-80086D01*
X66955Y-80424D01*
X66899Y-80536D01*
X66843Y-80593D01*
X66730Y-80649D01*
X66562Y-80649D01*
X67630Y-80649D02*
X67518Y-80593D01*
X67462Y-80480D01*
X67462Y-79468D01*
X68530Y-80593D02*
X68418Y-80649D01*
X68193Y-80649D01*
X68080Y-80593D01*
X68024Y-80480D01*
X68024Y-80030D01*
X68080Y-79918D01*
X68193Y-79861D01*
X68418Y-79861D01*
X68530Y-79918D01*
X68586Y-80030D01*
X68586Y-80143D01*
X68024Y-80255D01*
X69036Y-80593D02*
X69149Y-80649D01*
X69374Y-80649D01*
X69486Y-80593D01*
X69543Y-80480D01*
X69543Y-80424D01*
X69486Y-80311D01*
X69374Y-80255D01*
X69205Y-80255D01*
X69093Y-80199D01*
X69036Y-80086D01*
X69036Y-80030D01*
X69093Y-79918D01*
X69205Y-79861D01*
X69374Y-79861D01*
X69486Y-79918D01*
X69936Y-81099D02*
X69992Y-81043D01*
X70105Y-80874D01*
X70161Y-80761D01*
X70217Y-80593D01*
X70274Y-80311D01*
X70274Y-80086D01*
X70217Y-79805D01*
X70161Y-79636D01*
X70105Y-79524D01*
X69992Y-79355D01*
X69936Y-79299D01*
X44242Y-81513D02*
X44242Y-81946D01*
X44025Y-81730D02*
X44458Y-81730D01*
X46145Y-82208D02*
X45471Y-82208D01*
X45808Y-82208D02*
X45808Y-81027D01*
X45696Y-81196D01*
X45583Y-81308D01*
X45471Y-81364D01*
X46652Y-82095D02*
X46708Y-82152D01*
X46652Y-82208D01*
X46595Y-82152D01*
X46652Y-82095D01*
X46652Y-82208D01*
X47833Y-82208D02*
X47158Y-82208D01*
X47495Y-82208D02*
X47495Y-81027D01*
X47383Y-81196D01*
X47270Y-81308D01*
X47158Y-81364D01*
X48564Y-81027D02*
X48676Y-81027D01*
X48789Y-81083D01*
X48845Y-81139D01*
X48901Y-81252D01*
X48958Y-81477D01*
X48958Y-81758D01*
X48901Y-81983D01*
X48845Y-82095D01*
X48789Y-82152D01*
X48676Y-82208D01*
X48564Y-82208D01*
X48451Y-82152D01*
X48395Y-82095D01*
X48339Y-81983D01*
X48283Y-81758D01*
X48283Y-81477D01*
X48339Y-81252D01*
X48395Y-81139D01*
X48451Y-81083D01*
X48564Y-81027D01*
X49464Y-82208D02*
X49464Y-81420D01*
X49464Y-81533D02*
X49520Y-81477D01*
X49633Y-81420D01*
X49801Y-81420D01*
X49914Y-81477D01*
X49970Y-81589D01*
X49970Y-82208D01*
X49970Y-81589D02*
X50026Y-81477D01*
X50139Y-81420D01*
X50307Y-81420D01*
X50420Y-81477D01*
X50476Y-81589D01*
X50476Y-82208D01*
X51039Y-82208D02*
X51039Y-81420D01*
X51039Y-81533D02*
X51095Y-81477D01*
X51207Y-81420D01*
X51376Y-81420D01*
X51489Y-81477D01*
X51545Y-81589D01*
X51545Y-82208D01*
X51545Y-81589D02*
X51601Y-81477D01*
X51714Y-81420D01*
X51882Y-81420D01*
X51995Y-81477D01*
X52051Y-81589D01*
X52051Y-82208D01*
X54357Y-80971D02*
X53345Y-82489D01*
X55875Y-81027D02*
X55988Y-81027D01*
X56100Y-81083D01*
X56157Y-81139D01*
X56213Y-81252D01*
X56269Y-81477D01*
X56269Y-81758D01*
X56213Y-81983D01*
X56157Y-82095D01*
X56100Y-82152D01*
X55988Y-82208D01*
X55875Y-82208D01*
X55763Y-82152D01*
X55707Y-82095D01*
X55651Y-81983D01*
X55594Y-81758D01*
X55594Y-81477D01*
X55651Y-81252D01*
X55707Y-81139D01*
X55763Y-81083D01*
X55875Y-81027D01*
X56775Y-82095D02*
X56832Y-82152D01*
X56775Y-82208D01*
X56719Y-82152D01*
X56775Y-82095D01*
X56775Y-82208D01*
X57563Y-81027D02*
X57675Y-81027D01*
X57788Y-81083D01*
X57844Y-81139D01*
X57900Y-81252D01*
X57956Y-81477D01*
X57956Y-81758D01*
X57900Y-81983D01*
X57844Y-82095D01*
X57788Y-82152D01*
X57675Y-82208D01*
X57563Y-82208D01*
X57450Y-82152D01*
X57394Y-82095D01*
X57338Y-81983D01*
X57282Y-81758D01*
X57282Y-81477D01*
X57338Y-81252D01*
X57394Y-81139D01*
X57450Y-81083D01*
X57563Y-81027D01*
X58969Y-81420D02*
X58969Y-82208D01*
X58688Y-80971D02*
X58406Y-81814D01*
X59138Y-81814D01*
X59475Y-81027D02*
X60206Y-81027D01*
X59812Y-81477D01*
X59981Y-81477D01*
X60094Y-81533D01*
X60150Y-81589D01*
X60206Y-81702D01*
X60206Y-81983D01*
X60150Y-82095D01*
X60094Y-82152D01*
X59981Y-82208D01*
X59644Y-82208D01*
X59531Y-82152D01*
X59475Y-82095D01*
X60656Y-81027D02*
X60656Y-81252D01*
X61106Y-81027D02*
X61106Y-81252D01*
X62850Y-82658D02*
X62793Y-82602D01*
X62681Y-82433D01*
X62625Y-82320D01*
X62568Y-82152D01*
X62512Y-81870D01*
X62512Y-81645D01*
X62568Y-81364D01*
X62625Y-81196D01*
X62681Y-81083D01*
X62793Y-80914D01*
X62850Y-80858D01*
X63918Y-82208D02*
X63243Y-82208D01*
X63581Y-82208D02*
X63581Y-81027D01*
X63468Y-81196D01*
X63356Y-81308D01*
X63243Y-81364D01*
X64649Y-81027D02*
X64762Y-81027D01*
X64874Y-81083D01*
X64931Y-81139D01*
X64987Y-81252D01*
X65043Y-81477D01*
X65043Y-81758D01*
X64987Y-81983D01*
X64931Y-82095D01*
X64874Y-82152D01*
X64762Y-82208D01*
X64649Y-82208D01*
X64537Y-82152D01*
X64481Y-82095D01*
X64424Y-81983D01*
X64368Y-81758D01*
X64368Y-81477D01*
X64424Y-81252D01*
X64481Y-81139D01*
X64537Y-81083D01*
X64649Y-81027D01*
X66449Y-82208D02*
X66449Y-81027D01*
X66955Y-82208D02*
X66955Y-81589D01*
X66899Y-81477D01*
X66787Y-81420D01*
X66618Y-81420D01*
X66505Y-81477D01*
X66449Y-81533D01*
X67687Y-82208D02*
X67574Y-82152D01*
X67518Y-82095D01*
X67462Y-81983D01*
X67462Y-81645D01*
X67518Y-81533D01*
X67574Y-81477D01*
X67687Y-81420D01*
X67855Y-81420D01*
X67968Y-81477D01*
X68024Y-81533D01*
X68080Y-81645D01*
X68080Y-81983D01*
X68024Y-82095D01*
X67968Y-82152D01*
X67855Y-82208D01*
X67687Y-82208D01*
X68755Y-82208D02*
X68643Y-82152D01*
X68586Y-82039D01*
X68586Y-81027D01*
X69655Y-82152D02*
X69543Y-82208D01*
X69318Y-82208D01*
X69205Y-82152D01*
X69149Y-82039D01*
X69149Y-81589D01*
X69205Y-81477D01*
X69318Y-81420D01*
X69543Y-81420D01*
X69655Y-81477D01*
X69711Y-81589D01*
X69711Y-81702D01*
X69149Y-81814D01*
X70161Y-82152D02*
X70274Y-82208D01*
X70499Y-82208D01*
X70611Y-82152D01*
X70667Y-82039D01*
X70667Y-81983D01*
X70611Y-81870D01*
X70499Y-81814D01*
X70330Y-81814D01*
X70217Y-81758D01*
X70161Y-81645D01*
X70161Y-81589D01*
X70217Y-81477D01*
X70330Y-81420D01*
X70499Y-81420D01*
X70611Y-81477D01*
X71061Y-82658D02*
X71117Y-82602D01*
X71230Y-82433D01*
X71286Y-82320D01*
X71342Y-82152D01*
X71399Y-81870D01*
X71399Y-81645D01*
X71342Y-81364D01*
X71286Y-81196D01*
X71230Y-81083D01*
X71117Y-80914D01*
X71061Y-80858D01*
M02*
