G04 (created by PCBNEW (2013-mar-25)-stable) date Friday, August 07, 2015 09:57:37 AM*
%MOIN*%
G04 Gerber Fmt 3.4, Leading zero omitted, Abs format*
%FSLAX34Y34*%
G01*
G70*
G90*
G04 APERTURE LIST*
%ADD10C,0.006*%
%ADD11C,0.000393701*%
G04 APERTURE END LIST*
G54D10*
G54D11*
X53287Y-74653D02*
X59311Y-74653D01*
X59311Y-74653D02*
X59311Y-67669D01*
X59311Y-67669D02*
X53287Y-67669D01*
X53287Y-67669D02*
X53287Y-74653D01*
X63295Y-53838D02*
X61114Y-53838D01*
X61114Y-53838D02*
X61114Y-51279D01*
X61114Y-51279D02*
X63295Y-51279D01*
X63295Y-51279D02*
X63295Y-53838D01*
X70169Y-72145D02*
X72350Y-72145D01*
X72350Y-72145D02*
X72350Y-74704D01*
X72350Y-74704D02*
X70169Y-74704D01*
X70169Y-74704D02*
X70169Y-72145D01*
X60720Y-72145D02*
X62901Y-72145D01*
X62901Y-72145D02*
X62901Y-74704D01*
X62901Y-74704D02*
X60720Y-74704D01*
X60720Y-74704D02*
X60720Y-72145D01*
X49696Y-72145D02*
X51877Y-72145D01*
X51877Y-72145D02*
X51877Y-74704D01*
X51877Y-74704D02*
X49696Y-74704D01*
X49696Y-74704D02*
X49696Y-72145D01*
X59358Y-53838D02*
X57177Y-53838D01*
X57177Y-53838D02*
X57177Y-51279D01*
X57177Y-51279D02*
X59358Y-51279D01*
X59358Y-51279D02*
X59358Y-53838D01*
X50984Y-56889D02*
X50984Y-51181D01*
X50984Y-51181D02*
X54527Y-51181D01*
X54527Y-51181D02*
X54527Y-56889D01*
X54527Y-56889D02*
X50984Y-56889D01*
X52185Y-57913D02*
X52185Y-56889D01*
X52185Y-57913D02*
X52854Y-57913D01*
X52854Y-57913D02*
X52854Y-56889D01*
X50984Y-54724D02*
X49763Y-54724D01*
X49763Y-54724D02*
X49763Y-52913D01*
X49763Y-52913D02*
X50984Y-52913D01*
X54527Y-54724D02*
X55748Y-54724D01*
X55748Y-54724D02*
X55748Y-52913D01*
X55748Y-52913D02*
X54527Y-52913D01*
X64015Y-57086D02*
X60393Y-57086D01*
X60393Y-57086D02*
X60393Y-54724D01*
X60393Y-54724D02*
X64015Y-54724D01*
X64015Y-54724D02*
X64015Y-57086D01*
X49606Y-71102D02*
X49606Y-67480D01*
X49606Y-67480D02*
X51968Y-67480D01*
X51968Y-67480D02*
X51968Y-71102D01*
X51968Y-71102D02*
X49606Y-71102D01*
X69685Y-54921D02*
X69685Y-56889D01*
X69685Y-56889D02*
X68110Y-56889D01*
X68110Y-56889D02*
X68110Y-54921D01*
X68110Y-54921D02*
X69685Y-54921D01*
X73169Y-57480D02*
X73169Y-53877D01*
X73169Y-53877D02*
X77224Y-53877D01*
X77224Y-53877D02*
X77224Y-57480D01*
X77224Y-57480D02*
X76771Y-57933D01*
X76771Y-57933D02*
X73622Y-57933D01*
X73622Y-57933D02*
X73169Y-57480D01*
X52814Y-61417D02*
X52814Y-65019D01*
X52814Y-65019D02*
X48759Y-65019D01*
X48759Y-65019D02*
X48759Y-61417D01*
X48759Y-61417D02*
X49212Y-60964D01*
X49212Y-60964D02*
X52362Y-60964D01*
X52362Y-60964D02*
X52814Y-61417D01*
X70925Y-61417D02*
X70925Y-65019D01*
X70925Y-65019D02*
X66870Y-65019D01*
X66870Y-65019D02*
X66870Y-61417D01*
X66870Y-61417D02*
X67322Y-60964D01*
X67322Y-60964D02*
X70472Y-60964D01*
X70472Y-60964D02*
X70925Y-61417D01*
X81179Y-60992D02*
X81179Y-64992D01*
X81179Y-64992D02*
X77277Y-64992D01*
X77277Y-64992D02*
X77277Y-60992D01*
X77277Y-60992D02*
X81179Y-60992D01*
X55019Y-60531D02*
X59940Y-60531D01*
X59940Y-60531D02*
X59940Y-65452D01*
X59940Y-65452D02*
X55019Y-65452D01*
X55019Y-65452D02*
X55019Y-60531D01*
X73814Y-75401D02*
X73814Y-74803D01*
X73814Y-74803D02*
X78153Y-74803D01*
X78153Y-74803D02*
X78153Y-75401D01*
X78153Y-75401D02*
X73814Y-75401D01*
X75834Y-74803D02*
X75834Y-73003D01*
X75834Y-73003D02*
X76133Y-73003D01*
X76133Y-73003D02*
X76133Y-74803D01*
X73814Y-74803D02*
X73814Y-73003D01*
X73814Y-73003D02*
X74273Y-73003D01*
X74273Y-73003D02*
X74273Y-74803D01*
X78153Y-74803D02*
X78153Y-73003D01*
X78153Y-73003D02*
X77694Y-73003D01*
X77694Y-73003D02*
X77694Y-74803D01*
X77883Y-75401D02*
X77883Y-79685D01*
X77883Y-79685D02*
X74084Y-79685D01*
X74084Y-79685D02*
X74084Y-75401D01*
X64366Y-75401D02*
X64366Y-74803D01*
X64366Y-74803D02*
X68704Y-74803D01*
X68704Y-74803D02*
X68704Y-75401D01*
X68704Y-75401D02*
X64366Y-75401D01*
X66385Y-74803D02*
X66385Y-73003D01*
X66385Y-73003D02*
X66685Y-73003D01*
X66685Y-73003D02*
X66685Y-74803D01*
X64366Y-74803D02*
X64366Y-73003D01*
X64366Y-73003D02*
X64824Y-73003D01*
X64824Y-73003D02*
X64824Y-74803D01*
X68704Y-74803D02*
X68704Y-73003D01*
X68704Y-73003D02*
X68246Y-73003D01*
X68246Y-73003D02*
X68246Y-74803D01*
X68435Y-75401D02*
X68435Y-79685D01*
X68435Y-79685D02*
X64635Y-79685D01*
X64635Y-79685D02*
X64635Y-75401D01*
X71870Y-70413D02*
X70649Y-70413D01*
X70649Y-70413D02*
X70649Y-69744D01*
X70649Y-69744D02*
X71870Y-69744D01*
X71870Y-69744D02*
X71870Y-70413D01*
X75846Y-66988D02*
X72972Y-66988D01*
X72972Y-66988D02*
X72972Y-65295D01*
X72972Y-65295D02*
X75846Y-65295D01*
X75846Y-65295D02*
X75846Y-66988D01*
M02*
