G04 (created by PCBNEW (2013-mar-25)-stable) date Friday, August 07, 2015 08:39:55 AM*
%MOIN*%
G04 Gerber Fmt 3.4, Leading zero omitted, Abs format*
%FSLAX34Y34*%
G01*
G70*
G90*
G04 APERTURE LIST*
%ADD10C,0.005*%
%ADD11C,0.00590551*%
%ADD12C,0.00787402*%
%ADD13C,0.011811*%
G04 APERTURE END LIST*
G54D10*
G54D11*
X44488Y-74803D02*
X44488Y-51181D01*
X44488Y-51181D02*
X83464Y-51181D01*
X83464Y-51181D02*
X83464Y-74803D01*
X83464Y-74803D02*
X44488Y-74803D01*
G54D12*
X52405Y-51988D02*
X53106Y-52688D01*
X53106Y-51988D02*
X52405Y-52688D01*
X54679Y-71653D02*
G75*
G03X54679Y-71653I-629J0D01*
G74*
G01*
X59179Y-71653D02*
G75*
G03X59179Y-71653I-629J0D01*
G74*
G01*
X47342Y-54527D02*
X47342Y-55905D01*
X46653Y-55216D02*
X48031Y-55216D01*
X47342Y-70078D02*
X47342Y-71456D01*
X46653Y-70767D02*
X48031Y-70767D01*
X80610Y-54527D02*
X80610Y-55905D01*
X79921Y-55216D02*
X81299Y-55216D01*
X80610Y-70078D02*
X80610Y-71456D01*
X79921Y-70767D02*
X81299Y-70767D01*
G54D13*
X45527Y-76609D02*
X45527Y-75428D01*
X45808Y-75428D01*
X45977Y-75485D01*
X46089Y-75597D01*
X46145Y-75710D01*
X46202Y-75935D01*
X46202Y-76103D01*
X46145Y-76328D01*
X46089Y-76441D01*
X45977Y-76553D01*
X45808Y-76609D01*
X45527Y-76609D01*
X46708Y-76609D02*
X46708Y-75822D01*
X46708Y-76047D02*
X46764Y-75935D01*
X46820Y-75878D01*
X46933Y-75822D01*
X47045Y-75822D01*
X47439Y-76609D02*
X47439Y-75822D01*
X47439Y-75428D02*
X47383Y-75485D01*
X47439Y-75541D01*
X47495Y-75485D01*
X47439Y-75428D01*
X47439Y-75541D01*
X48170Y-76609D02*
X48058Y-76553D01*
X48001Y-76441D01*
X48001Y-75428D01*
X48789Y-76609D02*
X48676Y-76553D01*
X48620Y-76441D01*
X48620Y-75428D01*
X50139Y-76609D02*
X50139Y-75428D01*
X50532Y-76272D01*
X50926Y-75428D01*
X50926Y-76609D01*
X51995Y-76609D02*
X51995Y-75991D01*
X51938Y-75878D01*
X51826Y-75822D01*
X51601Y-75822D01*
X51489Y-75878D01*
X51995Y-76553D02*
X51882Y-76609D01*
X51601Y-76609D01*
X51489Y-76553D01*
X51432Y-76441D01*
X51432Y-76328D01*
X51489Y-76216D01*
X51601Y-76160D01*
X51882Y-76160D01*
X51995Y-76103D01*
X52557Y-75822D02*
X52557Y-77003D01*
X52557Y-75878D02*
X52670Y-75822D01*
X52895Y-75822D01*
X53007Y-75878D01*
X53063Y-75935D01*
X53120Y-76047D01*
X53120Y-76384D01*
X53063Y-76497D01*
X53007Y-76553D01*
X52895Y-76609D01*
X52670Y-76609D01*
X52557Y-76553D01*
X53626Y-76497D02*
X53682Y-76553D01*
X53626Y-76609D01*
X53570Y-76553D01*
X53626Y-76497D01*
X53626Y-76609D01*
X53626Y-75878D02*
X53682Y-75935D01*
X53626Y-75991D01*
X53570Y-75935D01*
X53626Y-75878D01*
X53626Y-75991D01*
X43757Y-78261D02*
X44458Y-78962D01*
X44458Y-78261D02*
X43757Y-78962D01*
X46145Y-79090D02*
X45471Y-79090D01*
X45808Y-79090D02*
X45808Y-77909D01*
X45696Y-78077D01*
X45583Y-78190D01*
X45471Y-78246D01*
X46652Y-78977D02*
X46708Y-79034D01*
X46652Y-79090D01*
X46595Y-79034D01*
X46652Y-78977D01*
X46652Y-79090D01*
X47102Y-77909D02*
X47889Y-77909D01*
X47383Y-79090D01*
X48508Y-78415D02*
X48395Y-78359D01*
X48339Y-78302D01*
X48283Y-78190D01*
X48283Y-78134D01*
X48339Y-78021D01*
X48395Y-77965D01*
X48508Y-77909D01*
X48733Y-77909D01*
X48845Y-77965D01*
X48901Y-78021D01*
X48958Y-78134D01*
X48958Y-78190D01*
X48901Y-78302D01*
X48845Y-78359D01*
X48733Y-78415D01*
X48508Y-78415D01*
X48395Y-78471D01*
X48339Y-78527D01*
X48283Y-78640D01*
X48283Y-78865D01*
X48339Y-78977D01*
X48395Y-79034D01*
X48508Y-79090D01*
X48733Y-79090D01*
X48845Y-79034D01*
X48901Y-78977D01*
X48958Y-78865D01*
X48958Y-78640D01*
X48901Y-78527D01*
X48845Y-78471D01*
X48733Y-78415D01*
X49464Y-79090D02*
X49464Y-78302D01*
X49464Y-78415D02*
X49520Y-78359D01*
X49633Y-78302D01*
X49801Y-78302D01*
X49914Y-78359D01*
X49970Y-78471D01*
X49970Y-79090D01*
X49970Y-78471D02*
X50026Y-78359D01*
X50139Y-78302D01*
X50307Y-78302D01*
X50420Y-78359D01*
X50476Y-78471D01*
X50476Y-79090D01*
X51039Y-79090D02*
X51039Y-78302D01*
X51039Y-78415D02*
X51095Y-78359D01*
X51207Y-78302D01*
X51376Y-78302D01*
X51489Y-78359D01*
X51545Y-78471D01*
X51545Y-79090D01*
X51545Y-78471D02*
X51601Y-78359D01*
X51714Y-78302D01*
X51882Y-78302D01*
X51995Y-78359D01*
X52051Y-78471D01*
X52051Y-79090D01*
X54357Y-77852D02*
X53345Y-79371D01*
X55875Y-77909D02*
X55988Y-77909D01*
X56100Y-77965D01*
X56157Y-78021D01*
X56213Y-78134D01*
X56269Y-78359D01*
X56269Y-78640D01*
X56213Y-78865D01*
X56157Y-78977D01*
X56100Y-79034D01*
X55988Y-79090D01*
X55875Y-79090D01*
X55763Y-79034D01*
X55707Y-78977D01*
X55651Y-78865D01*
X55594Y-78640D01*
X55594Y-78359D01*
X55651Y-78134D01*
X55707Y-78021D01*
X55763Y-77965D01*
X55875Y-77909D01*
X56775Y-78977D02*
X56832Y-79034D01*
X56775Y-79090D01*
X56719Y-79034D01*
X56775Y-78977D01*
X56775Y-79090D01*
X57563Y-77909D02*
X57675Y-77909D01*
X57788Y-77965D01*
X57844Y-78021D01*
X57900Y-78134D01*
X57956Y-78359D01*
X57956Y-78640D01*
X57900Y-78865D01*
X57844Y-78977D01*
X57788Y-79034D01*
X57675Y-79090D01*
X57563Y-79090D01*
X57450Y-79034D01*
X57394Y-78977D01*
X57338Y-78865D01*
X57282Y-78640D01*
X57282Y-78359D01*
X57338Y-78134D01*
X57394Y-78021D01*
X57450Y-77965D01*
X57563Y-77909D01*
X58350Y-77909D02*
X59138Y-77909D01*
X58631Y-79090D01*
X59812Y-77909D02*
X59925Y-77909D01*
X60037Y-77965D01*
X60094Y-78021D01*
X60150Y-78134D01*
X60206Y-78359D01*
X60206Y-78640D01*
X60150Y-78865D01*
X60094Y-78977D01*
X60037Y-79034D01*
X59925Y-79090D01*
X59812Y-79090D01*
X59700Y-79034D01*
X59644Y-78977D01*
X59588Y-78865D01*
X59531Y-78640D01*
X59531Y-78359D01*
X59588Y-78134D01*
X59644Y-78021D01*
X59700Y-77965D01*
X59812Y-77909D01*
X60656Y-77909D02*
X60656Y-78134D01*
X61106Y-77909D02*
X61106Y-78134D01*
X62850Y-79540D02*
X62793Y-79483D01*
X62681Y-79315D01*
X62625Y-79202D01*
X62568Y-79034D01*
X62512Y-78752D01*
X62512Y-78527D01*
X62568Y-78246D01*
X62625Y-78077D01*
X62681Y-77965D01*
X62793Y-77796D01*
X62850Y-77740D01*
X63918Y-79090D02*
X63243Y-79090D01*
X63581Y-79090D02*
X63581Y-77909D01*
X63468Y-78077D01*
X63356Y-78190D01*
X63243Y-78246D01*
X65324Y-79090D02*
X65324Y-77909D01*
X65830Y-79090D02*
X65830Y-78471D01*
X65774Y-78359D01*
X65662Y-78302D01*
X65493Y-78302D01*
X65381Y-78359D01*
X65324Y-78415D01*
X66562Y-79090D02*
X66449Y-79034D01*
X66393Y-78977D01*
X66337Y-78865D01*
X66337Y-78527D01*
X66393Y-78415D01*
X66449Y-78359D01*
X66562Y-78302D01*
X66730Y-78302D01*
X66843Y-78359D01*
X66899Y-78415D01*
X66955Y-78527D01*
X66955Y-78865D01*
X66899Y-78977D01*
X66843Y-79034D01*
X66730Y-79090D01*
X66562Y-79090D01*
X67630Y-79090D02*
X67518Y-79034D01*
X67462Y-78921D01*
X67462Y-77909D01*
X68530Y-79034D02*
X68418Y-79090D01*
X68193Y-79090D01*
X68080Y-79034D01*
X68024Y-78921D01*
X68024Y-78471D01*
X68080Y-78359D01*
X68193Y-78302D01*
X68418Y-78302D01*
X68530Y-78359D01*
X68586Y-78471D01*
X68586Y-78584D01*
X68024Y-78696D01*
X68980Y-79540D02*
X69036Y-79483D01*
X69149Y-79315D01*
X69205Y-79202D01*
X69261Y-79034D01*
X69318Y-78752D01*
X69318Y-78527D01*
X69261Y-78246D01*
X69205Y-78077D01*
X69149Y-77965D01*
X69036Y-77796D01*
X68980Y-77740D01*
G54D12*
X44458Y-80171D02*
G75*
G03X44458Y-80171I-629J0D01*
G74*
G01*
G54D13*
X45414Y-79468D02*
X46145Y-79468D01*
X45752Y-79918D01*
X45920Y-79918D01*
X46033Y-79974D01*
X46089Y-80030D01*
X46145Y-80143D01*
X46145Y-80424D01*
X46089Y-80536D01*
X46033Y-80593D01*
X45920Y-80649D01*
X45583Y-80649D01*
X45471Y-80593D01*
X45414Y-80536D01*
X46652Y-80536D02*
X46708Y-80593D01*
X46652Y-80649D01*
X46595Y-80593D01*
X46652Y-80536D01*
X46652Y-80649D01*
X47158Y-79580D02*
X47214Y-79524D01*
X47327Y-79468D01*
X47608Y-79468D01*
X47720Y-79524D01*
X47776Y-79580D01*
X47833Y-79693D01*
X47833Y-79805D01*
X47776Y-79974D01*
X47102Y-80649D01*
X47833Y-80649D01*
X48564Y-79468D02*
X48676Y-79468D01*
X48789Y-79524D01*
X48845Y-79580D01*
X48901Y-79693D01*
X48958Y-79918D01*
X48958Y-80199D01*
X48901Y-80424D01*
X48845Y-80536D01*
X48789Y-80593D01*
X48676Y-80649D01*
X48564Y-80649D01*
X48451Y-80593D01*
X48395Y-80536D01*
X48339Y-80424D01*
X48283Y-80199D01*
X48283Y-79918D01*
X48339Y-79693D01*
X48395Y-79580D01*
X48451Y-79524D01*
X48564Y-79468D01*
X49464Y-80649D02*
X49464Y-79861D01*
X49464Y-79974D02*
X49520Y-79918D01*
X49633Y-79861D01*
X49801Y-79861D01*
X49914Y-79918D01*
X49970Y-80030D01*
X49970Y-80649D01*
X49970Y-80030D02*
X50026Y-79918D01*
X50139Y-79861D01*
X50307Y-79861D01*
X50420Y-79918D01*
X50476Y-80030D01*
X50476Y-80649D01*
X51039Y-80649D02*
X51039Y-79861D01*
X51039Y-79974D02*
X51095Y-79918D01*
X51207Y-79861D01*
X51376Y-79861D01*
X51489Y-79918D01*
X51545Y-80030D01*
X51545Y-80649D01*
X51545Y-80030D02*
X51601Y-79918D01*
X51714Y-79861D01*
X51882Y-79861D01*
X51995Y-79918D01*
X52051Y-80030D01*
X52051Y-80649D01*
X54357Y-79411D02*
X53345Y-80930D01*
X55875Y-79468D02*
X55988Y-79468D01*
X56100Y-79524D01*
X56157Y-79580D01*
X56213Y-79693D01*
X56269Y-79918D01*
X56269Y-80199D01*
X56213Y-80424D01*
X56157Y-80536D01*
X56100Y-80593D01*
X55988Y-80649D01*
X55875Y-80649D01*
X55763Y-80593D01*
X55707Y-80536D01*
X55651Y-80424D01*
X55594Y-80199D01*
X55594Y-79918D01*
X55651Y-79693D01*
X55707Y-79580D01*
X55763Y-79524D01*
X55875Y-79468D01*
X56775Y-80536D02*
X56832Y-80593D01*
X56775Y-80649D01*
X56719Y-80593D01*
X56775Y-80536D01*
X56775Y-80649D01*
X57956Y-80649D02*
X57282Y-80649D01*
X57619Y-80649D02*
X57619Y-79468D01*
X57507Y-79636D01*
X57394Y-79749D01*
X57282Y-79805D01*
X58406Y-79580D02*
X58463Y-79524D01*
X58575Y-79468D01*
X58856Y-79468D01*
X58969Y-79524D01*
X59025Y-79580D01*
X59081Y-79693D01*
X59081Y-79805D01*
X59025Y-79974D01*
X58350Y-80649D01*
X59081Y-80649D01*
X60094Y-79468D02*
X59869Y-79468D01*
X59756Y-79524D01*
X59700Y-79580D01*
X59588Y-79749D01*
X59531Y-79974D01*
X59531Y-80424D01*
X59588Y-80536D01*
X59644Y-80593D01*
X59756Y-80649D01*
X59981Y-80649D01*
X60094Y-80593D01*
X60150Y-80536D01*
X60206Y-80424D01*
X60206Y-80143D01*
X60150Y-80030D01*
X60094Y-79974D01*
X59981Y-79918D01*
X59756Y-79918D01*
X59644Y-79974D01*
X59588Y-80030D01*
X59531Y-80143D01*
X60656Y-79468D02*
X60656Y-79693D01*
X61106Y-79468D02*
X61106Y-79693D01*
X62850Y-81099D02*
X62793Y-81043D01*
X62681Y-80874D01*
X62625Y-80761D01*
X62568Y-80593D01*
X62512Y-80311D01*
X62512Y-80086D01*
X62568Y-79805D01*
X62625Y-79636D01*
X62681Y-79524D01*
X62793Y-79355D01*
X62850Y-79299D01*
X63243Y-79580D02*
X63300Y-79524D01*
X63412Y-79468D01*
X63693Y-79468D01*
X63806Y-79524D01*
X63862Y-79580D01*
X63918Y-79693D01*
X63918Y-79805D01*
X63862Y-79974D01*
X63187Y-80649D01*
X63918Y-80649D01*
X65324Y-80649D02*
X65324Y-79468D01*
X65830Y-80649D02*
X65830Y-80030D01*
X65774Y-79918D01*
X65662Y-79861D01*
X65493Y-79861D01*
X65381Y-79918D01*
X65324Y-79974D01*
X66562Y-80649D02*
X66449Y-80593D01*
X66393Y-80536D01*
X66337Y-80424D01*
X66337Y-80086D01*
X66393Y-79974D01*
X66449Y-79918D01*
X66562Y-79861D01*
X66730Y-79861D01*
X66843Y-79918D01*
X66899Y-79974D01*
X66955Y-80086D01*
X66955Y-80424D01*
X66899Y-80536D01*
X66843Y-80593D01*
X66730Y-80649D01*
X66562Y-80649D01*
X67630Y-80649D02*
X67518Y-80593D01*
X67462Y-80480D01*
X67462Y-79468D01*
X68530Y-80593D02*
X68418Y-80649D01*
X68193Y-80649D01*
X68080Y-80593D01*
X68024Y-80480D01*
X68024Y-80030D01*
X68080Y-79918D01*
X68193Y-79861D01*
X68418Y-79861D01*
X68530Y-79918D01*
X68586Y-80030D01*
X68586Y-80143D01*
X68024Y-80255D01*
X69036Y-80593D02*
X69149Y-80649D01*
X69374Y-80649D01*
X69486Y-80593D01*
X69543Y-80480D01*
X69543Y-80424D01*
X69486Y-80311D01*
X69374Y-80255D01*
X69205Y-80255D01*
X69093Y-80199D01*
X69036Y-80086D01*
X69036Y-80030D01*
X69093Y-79918D01*
X69205Y-79861D01*
X69374Y-79861D01*
X69486Y-79918D01*
X69936Y-81099D02*
X69992Y-81043D01*
X70105Y-80874D01*
X70161Y-80761D01*
X70217Y-80593D01*
X70274Y-80311D01*
X70274Y-80086D01*
X70217Y-79805D01*
X70161Y-79636D01*
X70105Y-79524D01*
X69992Y-79355D01*
X69936Y-79299D01*
X43769Y-81253D02*
X43769Y-82631D01*
X43080Y-81942D02*
X44458Y-81942D01*
X45414Y-81239D02*
X46145Y-81239D01*
X45752Y-81689D01*
X45920Y-81689D01*
X46033Y-81746D01*
X46089Y-81802D01*
X46145Y-81914D01*
X46145Y-82196D01*
X46089Y-82308D01*
X46033Y-82364D01*
X45920Y-82420D01*
X45583Y-82420D01*
X45471Y-82364D01*
X45414Y-82308D01*
X46652Y-82308D02*
X46708Y-82364D01*
X46652Y-82420D01*
X46595Y-82364D01*
X46652Y-82308D01*
X46652Y-82420D01*
X47776Y-81239D02*
X47214Y-81239D01*
X47158Y-81802D01*
X47214Y-81746D01*
X47327Y-81689D01*
X47608Y-81689D01*
X47720Y-81746D01*
X47776Y-81802D01*
X47833Y-81914D01*
X47833Y-82196D01*
X47776Y-82308D01*
X47720Y-82364D01*
X47608Y-82420D01*
X47327Y-82420D01*
X47214Y-82364D01*
X47158Y-82308D01*
X48564Y-81239D02*
X48676Y-81239D01*
X48789Y-81296D01*
X48845Y-81352D01*
X48901Y-81464D01*
X48958Y-81689D01*
X48958Y-81971D01*
X48901Y-82196D01*
X48845Y-82308D01*
X48789Y-82364D01*
X48676Y-82420D01*
X48564Y-82420D01*
X48451Y-82364D01*
X48395Y-82308D01*
X48339Y-82196D01*
X48283Y-81971D01*
X48283Y-81689D01*
X48339Y-81464D01*
X48395Y-81352D01*
X48451Y-81296D01*
X48564Y-81239D01*
X49464Y-82420D02*
X49464Y-81633D01*
X49464Y-81746D02*
X49520Y-81689D01*
X49633Y-81633D01*
X49801Y-81633D01*
X49914Y-81689D01*
X49970Y-81802D01*
X49970Y-82420D01*
X49970Y-81802D02*
X50026Y-81689D01*
X50139Y-81633D01*
X50307Y-81633D01*
X50420Y-81689D01*
X50476Y-81802D01*
X50476Y-82420D01*
X51039Y-82420D02*
X51039Y-81633D01*
X51039Y-81746D02*
X51095Y-81689D01*
X51207Y-81633D01*
X51376Y-81633D01*
X51489Y-81689D01*
X51545Y-81802D01*
X51545Y-82420D01*
X51545Y-81802D02*
X51601Y-81689D01*
X51714Y-81633D01*
X51882Y-81633D01*
X51995Y-81689D01*
X52051Y-81802D01*
X52051Y-82420D01*
X54357Y-81183D02*
X53345Y-82702D01*
X55875Y-81239D02*
X55988Y-81239D01*
X56100Y-81296D01*
X56157Y-81352D01*
X56213Y-81464D01*
X56269Y-81689D01*
X56269Y-81971D01*
X56213Y-82196D01*
X56157Y-82308D01*
X56100Y-82364D01*
X55988Y-82420D01*
X55875Y-82420D01*
X55763Y-82364D01*
X55707Y-82308D01*
X55651Y-82196D01*
X55594Y-81971D01*
X55594Y-81689D01*
X55651Y-81464D01*
X55707Y-81352D01*
X55763Y-81296D01*
X55875Y-81239D01*
X56775Y-82308D02*
X56832Y-82364D01*
X56775Y-82420D01*
X56719Y-82364D01*
X56775Y-82308D01*
X56775Y-82420D01*
X57956Y-82420D02*
X57282Y-82420D01*
X57619Y-82420D02*
X57619Y-81239D01*
X57507Y-81408D01*
X57394Y-81521D01*
X57282Y-81577D01*
X58350Y-81239D02*
X59081Y-81239D01*
X58688Y-81689D01*
X58856Y-81689D01*
X58969Y-81746D01*
X59025Y-81802D01*
X59081Y-81914D01*
X59081Y-82196D01*
X59025Y-82308D01*
X58969Y-82364D01*
X58856Y-82420D01*
X58519Y-82420D01*
X58406Y-82364D01*
X58350Y-82308D01*
X59756Y-81746D02*
X59644Y-81689D01*
X59588Y-81633D01*
X59531Y-81521D01*
X59531Y-81464D01*
X59588Y-81352D01*
X59644Y-81296D01*
X59756Y-81239D01*
X59981Y-81239D01*
X60094Y-81296D01*
X60150Y-81352D01*
X60206Y-81464D01*
X60206Y-81521D01*
X60150Y-81633D01*
X60094Y-81689D01*
X59981Y-81746D01*
X59756Y-81746D01*
X59644Y-81802D01*
X59588Y-81858D01*
X59531Y-81971D01*
X59531Y-82196D01*
X59588Y-82308D01*
X59644Y-82364D01*
X59756Y-82420D01*
X59981Y-82420D01*
X60094Y-82364D01*
X60150Y-82308D01*
X60206Y-82196D01*
X60206Y-81971D01*
X60150Y-81858D01*
X60094Y-81802D01*
X59981Y-81746D01*
X60656Y-81239D02*
X60656Y-81464D01*
X61106Y-81239D02*
X61106Y-81464D01*
X62850Y-82870D02*
X62793Y-82814D01*
X62681Y-82645D01*
X62625Y-82533D01*
X62568Y-82364D01*
X62512Y-82083D01*
X62512Y-81858D01*
X62568Y-81577D01*
X62625Y-81408D01*
X62681Y-81296D01*
X62793Y-81127D01*
X62850Y-81071D01*
X63806Y-81633D02*
X63806Y-82420D01*
X63525Y-81183D02*
X63243Y-82027D01*
X63974Y-82027D01*
X65324Y-82420D02*
X65324Y-81239D01*
X65830Y-82420D02*
X65830Y-81802D01*
X65774Y-81689D01*
X65662Y-81633D01*
X65493Y-81633D01*
X65381Y-81689D01*
X65324Y-81746D01*
X66562Y-82420D02*
X66449Y-82364D01*
X66393Y-82308D01*
X66337Y-82196D01*
X66337Y-81858D01*
X66393Y-81746D01*
X66449Y-81689D01*
X66562Y-81633D01*
X66730Y-81633D01*
X66843Y-81689D01*
X66899Y-81746D01*
X66955Y-81858D01*
X66955Y-82196D01*
X66899Y-82308D01*
X66843Y-82364D01*
X66730Y-82420D01*
X66562Y-82420D01*
X67630Y-82420D02*
X67518Y-82364D01*
X67462Y-82252D01*
X67462Y-81239D01*
X68530Y-82364D02*
X68418Y-82420D01*
X68193Y-82420D01*
X68080Y-82364D01*
X68024Y-82252D01*
X68024Y-81802D01*
X68080Y-81689D01*
X68193Y-81633D01*
X68418Y-81633D01*
X68530Y-81689D01*
X68586Y-81802D01*
X68586Y-81914D01*
X68024Y-82027D01*
X69036Y-82364D02*
X69149Y-82420D01*
X69374Y-82420D01*
X69486Y-82364D01*
X69543Y-82252D01*
X69543Y-82196D01*
X69486Y-82083D01*
X69374Y-82027D01*
X69205Y-82027D01*
X69093Y-81971D01*
X69036Y-81858D01*
X69036Y-81802D01*
X69093Y-81689D01*
X69205Y-81633D01*
X69374Y-81633D01*
X69486Y-81689D01*
X69936Y-82870D02*
X69992Y-82814D01*
X70105Y-82645D01*
X70161Y-82533D01*
X70217Y-82364D01*
X70274Y-82083D01*
X70274Y-81858D01*
X70217Y-81577D01*
X70161Y-81408D01*
X70105Y-81296D01*
X69992Y-81127D01*
X69936Y-81071D01*
M02*
