G04 (created by PCBNEW (2013-mar-25)-stable) date Friday, August 07, 2015 09:57:37 AM*
%MOIN*%
G04 Gerber Fmt 3.4, Leading zero omitted, Abs format*
%FSLAX34Y34*%
G01*
G70*
G90*
G04 APERTURE LIST*
%ADD10C,0.006*%
%ADD11R,0.06X0.06*%
%ADD12C,0.06*%
%ADD13R,0.0649606X0.0649606*%
%ADD14C,0.0649606*%
%ADD15R,0.0950787X0.2*%
%ADD16C,0.0314961*%
%ADD17C,0.019685*%
%ADD18C,0.015748*%
%ADD19C,0.00590551*%
G04 APERTURE END LIST*
G54D10*
G54D11*
X54549Y-69153D03*
G54D12*
X55049Y-68153D03*
X55549Y-69153D03*
X56049Y-68153D03*
X56549Y-69153D03*
X57049Y-68153D03*
X57549Y-69153D03*
X58049Y-68153D03*
G54D13*
X62704Y-52559D03*
G54D14*
X61704Y-52559D03*
G54D13*
X70759Y-73425D03*
G54D14*
X71759Y-73425D03*
G54D13*
X61311Y-73425D03*
G54D14*
X62311Y-73425D03*
G54D13*
X50287Y-73425D03*
G54D14*
X51287Y-73425D03*
G54D13*
X58767Y-52559D03*
G54D14*
X57767Y-52559D03*
G54D15*
X77659Y-73539D03*
X74309Y-73539D03*
X68210Y-73539D03*
X64860Y-73539D03*
G54D16*
X56299Y-53740D03*
X49015Y-53740D03*
X69389Y-73523D03*
X70767Y-68996D03*
X71751Y-68996D03*
X74606Y-70472D03*
X50787Y-65551D03*
X75196Y-53346D03*
X68897Y-65551D03*
X79133Y-60433D03*
X81102Y-60433D03*
X80118Y-60433D03*
X79133Y-65551D03*
X81102Y-65551D03*
X80118Y-65551D03*
X81889Y-64960D03*
X81889Y-63976D03*
X81889Y-61023D03*
X81889Y-62007D03*
X81889Y-62992D03*
X70472Y-52755D03*
X71653Y-53937D03*
X70472Y-55314D03*
X74409Y-54330D03*
X75984Y-54330D03*
X69685Y-64566D03*
X68110Y-64566D03*
X74409Y-61023D03*
X70472Y-59055D03*
X74015Y-60236D03*
X75196Y-62992D03*
X73031Y-65157D03*
X73031Y-67125D03*
X72440Y-66141D03*
X51574Y-64566D03*
X50000Y-64566D03*
X45669Y-68897D03*
X46850Y-68110D03*
X48425Y-68110D03*
X76574Y-62992D03*
G54D17*
X49015Y-53740D02*
X56299Y-53740D01*
X55049Y-68153D02*
X56049Y-68153D01*
X56049Y-68153D02*
X56049Y-67769D01*
X61311Y-67807D02*
X61311Y-73425D01*
X61023Y-67519D02*
X61311Y-67807D01*
X56299Y-67519D02*
X61023Y-67519D01*
X56049Y-67769D02*
X56299Y-67519D01*
X62311Y-73425D02*
X64746Y-73425D01*
X64746Y-73425D02*
X64860Y-73539D01*
X68210Y-73539D02*
X69374Y-73539D01*
X69374Y-73539D02*
X69389Y-73523D01*
X64860Y-73539D02*
X68210Y-73539D01*
X50287Y-73425D02*
X50287Y-73334D01*
X50787Y-72834D02*
X55118Y-72834D01*
X55118Y-72834D02*
X55511Y-72440D01*
X55511Y-72440D02*
X55511Y-69190D01*
X55511Y-69190D02*
X55549Y-69153D01*
X50287Y-73334D02*
X50787Y-72834D01*
G54D18*
X57049Y-68153D02*
X57049Y-68167D01*
X56061Y-68641D02*
X55549Y-69153D01*
X56574Y-68641D02*
X56061Y-68641D01*
X57049Y-68167D02*
X56574Y-68641D01*
G54D17*
X51287Y-73425D02*
X57086Y-73425D01*
X57549Y-72962D02*
X57549Y-69153D01*
X57086Y-73425D02*
X57549Y-72962D01*
X57549Y-69153D02*
X57549Y-68653D01*
X57549Y-68653D02*
X58049Y-68153D01*
X70759Y-73425D02*
X70759Y-69003D01*
X70759Y-69003D02*
X70767Y-68996D01*
X74309Y-73539D02*
X77659Y-73539D01*
X71759Y-73425D02*
X71759Y-69003D01*
X71759Y-69003D02*
X71751Y-68996D01*
G54D10*
G36*
X83041Y-74379D02*
X81407Y-74379D01*
X81407Y-70609D01*
X81407Y-55058D01*
X81286Y-54765D01*
X81062Y-54541D01*
X80769Y-54419D01*
X80452Y-54419D01*
X80159Y-54540D01*
X79934Y-54764D01*
X79813Y-55057D01*
X79812Y-55374D01*
X79933Y-55667D01*
X80158Y-55892D01*
X80450Y-56013D01*
X80768Y-56013D01*
X81061Y-55892D01*
X81285Y-55668D01*
X81407Y-55375D01*
X81407Y-55058D01*
X81407Y-70609D01*
X81286Y-70316D01*
X81062Y-70092D01*
X80769Y-69970D01*
X80452Y-69970D01*
X80159Y-70091D01*
X79934Y-70315D01*
X79813Y-70608D01*
X79812Y-70925D01*
X79933Y-71218D01*
X80158Y-71443D01*
X80450Y-71564D01*
X80768Y-71565D01*
X81061Y-71443D01*
X81285Y-71219D01*
X81407Y-70926D01*
X81407Y-70609D01*
X81407Y-74379D01*
X78243Y-74379D01*
X78243Y-72517D01*
X78226Y-72478D01*
X78196Y-72447D01*
X78156Y-72431D01*
X78113Y-72431D01*
X77162Y-72431D01*
X77122Y-72447D01*
X77092Y-72477D01*
X77075Y-72517D01*
X77075Y-72560D01*
X77075Y-73332D01*
X74892Y-73332D01*
X74892Y-72517D01*
X74876Y-72478D01*
X74845Y-72447D01*
X74806Y-72431D01*
X74763Y-72431D01*
X73812Y-72431D01*
X73772Y-72447D01*
X73741Y-72477D01*
X73725Y-72517D01*
X73725Y-72560D01*
X73725Y-74379D01*
X72192Y-74379D01*
X72192Y-73339D01*
X72127Y-73180D01*
X72005Y-73058D01*
X71966Y-73042D01*
X71966Y-69157D01*
X71977Y-69146D01*
X72017Y-69049D01*
X72017Y-68943D01*
X71977Y-68845D01*
X71902Y-68770D01*
X71805Y-68730D01*
X71699Y-68730D01*
X71601Y-68770D01*
X71526Y-68845D01*
X71486Y-68942D01*
X71486Y-69048D01*
X71526Y-69146D01*
X71553Y-69173D01*
X71553Y-73042D01*
X71514Y-73057D01*
X71392Y-73179D01*
X71326Y-73338D01*
X71326Y-73510D01*
X71392Y-73670D01*
X71514Y-73792D01*
X71673Y-73858D01*
X71845Y-73858D01*
X72004Y-73792D01*
X72126Y-73670D01*
X72192Y-73511D01*
X72192Y-73339D01*
X72192Y-74379D01*
X71192Y-74379D01*
X71192Y-73728D01*
X71192Y-73078D01*
X71176Y-73039D01*
X71146Y-73008D01*
X71106Y-72992D01*
X71063Y-72992D01*
X70966Y-72992D01*
X70966Y-69173D01*
X70992Y-69146D01*
X71033Y-69049D01*
X71033Y-68943D01*
X70993Y-68845D01*
X70918Y-68770D01*
X70820Y-68730D01*
X70715Y-68730D01*
X70617Y-68770D01*
X70542Y-68845D01*
X70502Y-68942D01*
X70501Y-69048D01*
X70542Y-69146D01*
X70553Y-69157D01*
X70553Y-72992D01*
X70413Y-72992D01*
X70373Y-73008D01*
X70343Y-73038D01*
X70326Y-73078D01*
X70326Y-73121D01*
X70326Y-73771D01*
X70343Y-73811D01*
X70373Y-73841D01*
X70413Y-73858D01*
X70456Y-73858D01*
X71106Y-73858D01*
X71145Y-73841D01*
X71176Y-73811D01*
X71192Y-73771D01*
X71192Y-73728D01*
X71192Y-74379D01*
X68794Y-74379D01*
X68794Y-73746D01*
X69236Y-73746D01*
X69239Y-73748D01*
X69336Y-73789D01*
X69442Y-73789D01*
X69540Y-73749D01*
X69614Y-73674D01*
X69655Y-73576D01*
X69655Y-73470D01*
X69615Y-73373D01*
X69540Y-73298D01*
X69442Y-73257D01*
X69337Y-73257D01*
X69239Y-73298D01*
X69204Y-73332D01*
X68794Y-73332D01*
X68794Y-72517D01*
X68777Y-72478D01*
X68747Y-72447D01*
X68707Y-72431D01*
X68664Y-72431D01*
X67713Y-72431D01*
X67673Y-72447D01*
X67643Y-72477D01*
X67626Y-72517D01*
X67626Y-72560D01*
X67626Y-73332D01*
X65443Y-73332D01*
X65443Y-72517D01*
X65427Y-72478D01*
X65397Y-72447D01*
X65357Y-72431D01*
X65314Y-72431D01*
X64363Y-72431D01*
X64323Y-72447D01*
X64293Y-72477D01*
X64276Y-72517D01*
X64276Y-72560D01*
X64276Y-73218D01*
X63137Y-73218D01*
X63137Y-52862D01*
X63137Y-52255D01*
X63137Y-52212D01*
X63121Y-52172D01*
X63090Y-52142D01*
X63050Y-52125D01*
X62761Y-52125D01*
X62734Y-52153D01*
X62734Y-52529D01*
X63110Y-52529D01*
X63137Y-52502D01*
X63137Y-52255D01*
X63137Y-52862D01*
X63137Y-52615D01*
X63110Y-52588D01*
X62734Y-52588D01*
X62734Y-52965D01*
X62761Y-52992D01*
X63050Y-52992D01*
X63090Y-52975D01*
X63121Y-52945D01*
X63137Y-52905D01*
X63137Y-52862D01*
X63137Y-73218D01*
X62694Y-73218D01*
X62678Y-73180D01*
X62675Y-73177D01*
X62675Y-52965D01*
X62675Y-52588D01*
X62675Y-52529D01*
X62675Y-52153D01*
X62648Y-52125D01*
X62358Y-52125D01*
X62318Y-52142D01*
X62288Y-52172D01*
X62271Y-52212D01*
X62271Y-52255D01*
X62271Y-52502D01*
X62298Y-52529D01*
X62675Y-52529D01*
X62675Y-52588D01*
X62298Y-52588D01*
X62271Y-52615D01*
X62271Y-52862D01*
X62271Y-52905D01*
X62288Y-52945D01*
X62318Y-52975D01*
X62358Y-52992D01*
X62648Y-52992D01*
X62675Y-52965D01*
X62675Y-73177D01*
X62556Y-73058D01*
X62397Y-72992D01*
X62225Y-72992D01*
X62140Y-73027D01*
X62140Y-52633D01*
X62135Y-52460D01*
X62078Y-52323D01*
X62017Y-52287D01*
X61976Y-52329D01*
X61976Y-52245D01*
X61939Y-52185D01*
X61778Y-52123D01*
X61606Y-52128D01*
X61469Y-52185D01*
X61433Y-52245D01*
X61704Y-52517D01*
X61976Y-52245D01*
X61976Y-52329D01*
X61746Y-52559D01*
X62017Y-52830D01*
X62078Y-52794D01*
X62140Y-52633D01*
X62140Y-73027D01*
X62066Y-73057D01*
X61976Y-73147D01*
X61976Y-52872D01*
X61704Y-52600D01*
X61662Y-52642D01*
X61662Y-52559D01*
X61391Y-52287D01*
X61330Y-52323D01*
X61269Y-52484D01*
X61274Y-52657D01*
X61330Y-52794D01*
X61391Y-52830D01*
X61662Y-52559D01*
X61662Y-52642D01*
X61433Y-52872D01*
X61469Y-52932D01*
X61630Y-52994D01*
X61802Y-52989D01*
X61939Y-52932D01*
X61976Y-52872D01*
X61976Y-73147D01*
X61944Y-73179D01*
X61878Y-73338D01*
X61877Y-73510D01*
X61943Y-73670D01*
X62065Y-73792D01*
X62224Y-73858D01*
X62396Y-73858D01*
X62556Y-73792D01*
X62677Y-73670D01*
X62694Y-73631D01*
X64276Y-73631D01*
X64276Y-74379D01*
X61744Y-74379D01*
X61744Y-73728D01*
X61744Y-73078D01*
X61727Y-73039D01*
X61697Y-73008D01*
X61657Y-72992D01*
X61614Y-72992D01*
X61517Y-72992D01*
X61517Y-67807D01*
X61517Y-67807D01*
X61501Y-67727D01*
X61457Y-67660D01*
X61457Y-67660D01*
X61169Y-67373D01*
X61102Y-67328D01*
X61023Y-67312D01*
X56299Y-67312D01*
X56220Y-67328D01*
X56153Y-67373D01*
X55903Y-67623D01*
X55858Y-67690D01*
X55842Y-67769D01*
X55842Y-67797D01*
X55818Y-67807D01*
X55703Y-67921D01*
X55692Y-67946D01*
X55405Y-67946D01*
X55395Y-67922D01*
X55280Y-67807D01*
X55130Y-67745D01*
X54968Y-67745D01*
X54818Y-67807D01*
X54703Y-67921D01*
X54641Y-68071D01*
X54640Y-68234D01*
X54702Y-68384D01*
X54817Y-68499D01*
X54967Y-68561D01*
X55130Y-68561D01*
X55280Y-68499D01*
X55395Y-68385D01*
X55405Y-68360D01*
X55692Y-68360D01*
X55702Y-68384D01*
X55817Y-68499D01*
X55903Y-68535D01*
X55674Y-68763D01*
X55630Y-68745D01*
X55468Y-68745D01*
X55318Y-68807D01*
X55203Y-68921D01*
X55141Y-69071D01*
X55140Y-69234D01*
X55202Y-69384D01*
X55305Y-69486D01*
X55305Y-72355D01*
X55032Y-72627D01*
X54957Y-72627D01*
X54957Y-69432D01*
X54957Y-68832D01*
X54941Y-68792D01*
X54910Y-68761D01*
X54870Y-68745D01*
X54827Y-68745D01*
X54227Y-68745D01*
X54187Y-68761D01*
X54157Y-68792D01*
X54140Y-68831D01*
X54140Y-68874D01*
X54140Y-69474D01*
X54157Y-69514D01*
X54187Y-69545D01*
X54227Y-69561D01*
X54270Y-69561D01*
X54870Y-69561D01*
X54910Y-69545D01*
X54940Y-69514D01*
X54957Y-69475D01*
X54957Y-69432D01*
X54957Y-72627D01*
X54787Y-72627D01*
X54787Y-71507D01*
X54675Y-71235D01*
X54467Y-71028D01*
X54196Y-70915D01*
X53903Y-70915D01*
X53631Y-71027D01*
X53423Y-71234D01*
X53311Y-71506D01*
X53310Y-71799D01*
X53423Y-72071D01*
X53630Y-72278D01*
X53901Y-72391D01*
X54195Y-72391D01*
X54466Y-72279D01*
X54674Y-72072D01*
X54787Y-71801D01*
X54787Y-71507D01*
X54787Y-72627D01*
X50787Y-72627D01*
X50708Y-72643D01*
X50641Y-72688D01*
X50337Y-72992D01*
X49941Y-72992D01*
X49901Y-73008D01*
X49870Y-73038D01*
X49854Y-73078D01*
X49854Y-73121D01*
X49854Y-73771D01*
X49870Y-73811D01*
X49901Y-73841D01*
X49940Y-73858D01*
X49984Y-73858D01*
X50633Y-73858D01*
X50673Y-73841D01*
X50703Y-73811D01*
X50720Y-73771D01*
X50720Y-73728D01*
X50720Y-73193D01*
X50873Y-73041D01*
X51082Y-73041D01*
X51042Y-73057D01*
X50920Y-73179D01*
X50854Y-73338D01*
X50854Y-73510D01*
X50920Y-73670D01*
X51041Y-73792D01*
X51200Y-73858D01*
X51373Y-73858D01*
X51532Y-73792D01*
X51654Y-73670D01*
X51670Y-73631D01*
X57086Y-73631D01*
X57165Y-73616D01*
X57232Y-73571D01*
X57695Y-73108D01*
X57695Y-73108D01*
X57695Y-73108D01*
X57740Y-73041D01*
X57740Y-73041D01*
X57755Y-72962D01*
X57755Y-72962D01*
X57755Y-69509D01*
X57780Y-69499D01*
X57895Y-69385D01*
X57957Y-69235D01*
X57957Y-69072D01*
X57895Y-68922D01*
X57780Y-68807D01*
X57755Y-68797D01*
X57755Y-68739D01*
X57943Y-68551D01*
X57967Y-68561D01*
X58130Y-68561D01*
X58280Y-68499D01*
X58395Y-68385D01*
X58457Y-68235D01*
X58457Y-68072D01*
X58395Y-67922D01*
X58280Y-67807D01*
X58130Y-67745D01*
X57968Y-67745D01*
X57818Y-67807D01*
X57703Y-67921D01*
X57641Y-68071D01*
X57640Y-68234D01*
X57651Y-68259D01*
X57403Y-68507D01*
X57358Y-68574D01*
X57342Y-68653D01*
X57342Y-68797D01*
X57318Y-68807D01*
X57203Y-68921D01*
X57141Y-69071D01*
X57140Y-69234D01*
X57202Y-69384D01*
X57317Y-69499D01*
X57342Y-69509D01*
X57342Y-72876D01*
X57000Y-73218D01*
X51670Y-73218D01*
X51654Y-73180D01*
X51533Y-73058D01*
X51492Y-73041D01*
X55118Y-73041D01*
X55197Y-73025D01*
X55264Y-72980D01*
X55657Y-72587D01*
X55702Y-72520D01*
X55718Y-72440D01*
X55718Y-69525D01*
X55780Y-69499D01*
X55895Y-69385D01*
X55957Y-69235D01*
X55957Y-69072D01*
X55939Y-69028D01*
X56138Y-68828D01*
X56296Y-68828D01*
X56203Y-68921D01*
X56141Y-69071D01*
X56140Y-69234D01*
X56202Y-69384D01*
X56317Y-69499D01*
X56467Y-69561D01*
X56630Y-69561D01*
X56780Y-69499D01*
X56895Y-69385D01*
X56957Y-69235D01*
X56957Y-69072D01*
X56895Y-68922D01*
X56780Y-68807D01*
X56704Y-68775D01*
X56707Y-68773D01*
X56933Y-68547D01*
X56967Y-68561D01*
X57130Y-68561D01*
X57280Y-68499D01*
X57395Y-68385D01*
X57457Y-68235D01*
X57457Y-68072D01*
X57395Y-67922D01*
X57280Y-67807D01*
X57130Y-67745D01*
X56968Y-67745D01*
X56818Y-67807D01*
X56703Y-67921D01*
X56641Y-68071D01*
X56640Y-68234D01*
X56663Y-68288D01*
X56497Y-68454D01*
X56325Y-68454D01*
X56395Y-68385D01*
X56457Y-68235D01*
X56457Y-68072D01*
X56395Y-67922D01*
X56292Y-67819D01*
X56384Y-67726D01*
X60938Y-67726D01*
X61104Y-67892D01*
X61104Y-72992D01*
X60964Y-72992D01*
X60924Y-73008D01*
X60894Y-73038D01*
X60877Y-73078D01*
X60877Y-73121D01*
X60877Y-73771D01*
X60894Y-73811D01*
X60924Y-73841D01*
X60964Y-73858D01*
X61007Y-73858D01*
X61657Y-73858D01*
X61697Y-73841D01*
X61727Y-73811D01*
X61744Y-73771D01*
X61744Y-73728D01*
X61744Y-74379D01*
X59287Y-74379D01*
X59287Y-71507D01*
X59175Y-71235D01*
X58967Y-71028D01*
X58696Y-70915D01*
X58403Y-70915D01*
X58131Y-71027D01*
X57923Y-71234D01*
X57811Y-71506D01*
X57810Y-71799D01*
X57923Y-72071D01*
X58130Y-72278D01*
X58401Y-72391D01*
X58695Y-72391D01*
X58966Y-72279D01*
X59174Y-72072D01*
X59287Y-71801D01*
X59287Y-71507D01*
X59287Y-74379D01*
X48139Y-74379D01*
X48139Y-70609D01*
X48018Y-70316D01*
X47794Y-70092D01*
X47501Y-69970D01*
X47184Y-69970D01*
X46891Y-70091D01*
X46667Y-70315D01*
X46545Y-70608D01*
X46545Y-70925D01*
X46666Y-71218D01*
X46890Y-71443D01*
X47183Y-71564D01*
X47500Y-71565D01*
X47793Y-71443D01*
X48017Y-71219D01*
X48139Y-70926D01*
X48139Y-70609D01*
X48139Y-74379D01*
X44911Y-74379D01*
X44911Y-59872D01*
X60265Y-59872D01*
X60265Y-51604D01*
X83041Y-51604D01*
X83041Y-74379D01*
X83041Y-74379D01*
G37*
G54D19*
X83041Y-74379D02*
X81407Y-74379D01*
X81407Y-70609D01*
X81407Y-55058D01*
X81286Y-54765D01*
X81062Y-54541D01*
X80769Y-54419D01*
X80452Y-54419D01*
X80159Y-54540D01*
X79934Y-54764D01*
X79813Y-55057D01*
X79812Y-55374D01*
X79933Y-55667D01*
X80158Y-55892D01*
X80450Y-56013D01*
X80768Y-56013D01*
X81061Y-55892D01*
X81285Y-55668D01*
X81407Y-55375D01*
X81407Y-55058D01*
X81407Y-70609D01*
X81286Y-70316D01*
X81062Y-70092D01*
X80769Y-69970D01*
X80452Y-69970D01*
X80159Y-70091D01*
X79934Y-70315D01*
X79813Y-70608D01*
X79812Y-70925D01*
X79933Y-71218D01*
X80158Y-71443D01*
X80450Y-71564D01*
X80768Y-71565D01*
X81061Y-71443D01*
X81285Y-71219D01*
X81407Y-70926D01*
X81407Y-70609D01*
X81407Y-74379D01*
X78243Y-74379D01*
X78243Y-72517D01*
X78226Y-72478D01*
X78196Y-72447D01*
X78156Y-72431D01*
X78113Y-72431D01*
X77162Y-72431D01*
X77122Y-72447D01*
X77092Y-72477D01*
X77075Y-72517D01*
X77075Y-72560D01*
X77075Y-73332D01*
X74892Y-73332D01*
X74892Y-72517D01*
X74876Y-72478D01*
X74845Y-72447D01*
X74806Y-72431D01*
X74763Y-72431D01*
X73812Y-72431D01*
X73772Y-72447D01*
X73741Y-72477D01*
X73725Y-72517D01*
X73725Y-72560D01*
X73725Y-74379D01*
X72192Y-74379D01*
X72192Y-73339D01*
X72127Y-73180D01*
X72005Y-73058D01*
X71966Y-73042D01*
X71966Y-69157D01*
X71977Y-69146D01*
X72017Y-69049D01*
X72017Y-68943D01*
X71977Y-68845D01*
X71902Y-68770D01*
X71805Y-68730D01*
X71699Y-68730D01*
X71601Y-68770D01*
X71526Y-68845D01*
X71486Y-68942D01*
X71486Y-69048D01*
X71526Y-69146D01*
X71553Y-69173D01*
X71553Y-73042D01*
X71514Y-73057D01*
X71392Y-73179D01*
X71326Y-73338D01*
X71326Y-73510D01*
X71392Y-73670D01*
X71514Y-73792D01*
X71673Y-73858D01*
X71845Y-73858D01*
X72004Y-73792D01*
X72126Y-73670D01*
X72192Y-73511D01*
X72192Y-73339D01*
X72192Y-74379D01*
X71192Y-74379D01*
X71192Y-73728D01*
X71192Y-73078D01*
X71176Y-73039D01*
X71146Y-73008D01*
X71106Y-72992D01*
X71063Y-72992D01*
X70966Y-72992D01*
X70966Y-69173D01*
X70992Y-69146D01*
X71033Y-69049D01*
X71033Y-68943D01*
X70993Y-68845D01*
X70918Y-68770D01*
X70820Y-68730D01*
X70715Y-68730D01*
X70617Y-68770D01*
X70542Y-68845D01*
X70502Y-68942D01*
X70501Y-69048D01*
X70542Y-69146D01*
X70553Y-69157D01*
X70553Y-72992D01*
X70413Y-72992D01*
X70373Y-73008D01*
X70343Y-73038D01*
X70326Y-73078D01*
X70326Y-73121D01*
X70326Y-73771D01*
X70343Y-73811D01*
X70373Y-73841D01*
X70413Y-73858D01*
X70456Y-73858D01*
X71106Y-73858D01*
X71145Y-73841D01*
X71176Y-73811D01*
X71192Y-73771D01*
X71192Y-73728D01*
X71192Y-74379D01*
X68794Y-74379D01*
X68794Y-73746D01*
X69236Y-73746D01*
X69239Y-73748D01*
X69336Y-73789D01*
X69442Y-73789D01*
X69540Y-73749D01*
X69614Y-73674D01*
X69655Y-73576D01*
X69655Y-73470D01*
X69615Y-73373D01*
X69540Y-73298D01*
X69442Y-73257D01*
X69337Y-73257D01*
X69239Y-73298D01*
X69204Y-73332D01*
X68794Y-73332D01*
X68794Y-72517D01*
X68777Y-72478D01*
X68747Y-72447D01*
X68707Y-72431D01*
X68664Y-72431D01*
X67713Y-72431D01*
X67673Y-72447D01*
X67643Y-72477D01*
X67626Y-72517D01*
X67626Y-72560D01*
X67626Y-73332D01*
X65443Y-73332D01*
X65443Y-72517D01*
X65427Y-72478D01*
X65397Y-72447D01*
X65357Y-72431D01*
X65314Y-72431D01*
X64363Y-72431D01*
X64323Y-72447D01*
X64293Y-72477D01*
X64276Y-72517D01*
X64276Y-72560D01*
X64276Y-73218D01*
X63137Y-73218D01*
X63137Y-52862D01*
X63137Y-52255D01*
X63137Y-52212D01*
X63121Y-52172D01*
X63090Y-52142D01*
X63050Y-52125D01*
X62761Y-52125D01*
X62734Y-52153D01*
X62734Y-52529D01*
X63110Y-52529D01*
X63137Y-52502D01*
X63137Y-52255D01*
X63137Y-52862D01*
X63137Y-52615D01*
X63110Y-52588D01*
X62734Y-52588D01*
X62734Y-52965D01*
X62761Y-52992D01*
X63050Y-52992D01*
X63090Y-52975D01*
X63121Y-52945D01*
X63137Y-52905D01*
X63137Y-52862D01*
X63137Y-73218D01*
X62694Y-73218D01*
X62678Y-73180D01*
X62675Y-73177D01*
X62675Y-52965D01*
X62675Y-52588D01*
X62675Y-52529D01*
X62675Y-52153D01*
X62648Y-52125D01*
X62358Y-52125D01*
X62318Y-52142D01*
X62288Y-52172D01*
X62271Y-52212D01*
X62271Y-52255D01*
X62271Y-52502D01*
X62298Y-52529D01*
X62675Y-52529D01*
X62675Y-52588D01*
X62298Y-52588D01*
X62271Y-52615D01*
X62271Y-52862D01*
X62271Y-52905D01*
X62288Y-52945D01*
X62318Y-52975D01*
X62358Y-52992D01*
X62648Y-52992D01*
X62675Y-52965D01*
X62675Y-73177D01*
X62556Y-73058D01*
X62397Y-72992D01*
X62225Y-72992D01*
X62140Y-73027D01*
X62140Y-52633D01*
X62135Y-52460D01*
X62078Y-52323D01*
X62017Y-52287D01*
X61976Y-52329D01*
X61976Y-52245D01*
X61939Y-52185D01*
X61778Y-52123D01*
X61606Y-52128D01*
X61469Y-52185D01*
X61433Y-52245D01*
X61704Y-52517D01*
X61976Y-52245D01*
X61976Y-52329D01*
X61746Y-52559D01*
X62017Y-52830D01*
X62078Y-52794D01*
X62140Y-52633D01*
X62140Y-73027D01*
X62066Y-73057D01*
X61976Y-73147D01*
X61976Y-52872D01*
X61704Y-52600D01*
X61662Y-52642D01*
X61662Y-52559D01*
X61391Y-52287D01*
X61330Y-52323D01*
X61269Y-52484D01*
X61274Y-52657D01*
X61330Y-52794D01*
X61391Y-52830D01*
X61662Y-52559D01*
X61662Y-52642D01*
X61433Y-52872D01*
X61469Y-52932D01*
X61630Y-52994D01*
X61802Y-52989D01*
X61939Y-52932D01*
X61976Y-52872D01*
X61976Y-73147D01*
X61944Y-73179D01*
X61878Y-73338D01*
X61877Y-73510D01*
X61943Y-73670D01*
X62065Y-73792D01*
X62224Y-73858D01*
X62396Y-73858D01*
X62556Y-73792D01*
X62677Y-73670D01*
X62694Y-73631D01*
X64276Y-73631D01*
X64276Y-74379D01*
X61744Y-74379D01*
X61744Y-73728D01*
X61744Y-73078D01*
X61727Y-73039D01*
X61697Y-73008D01*
X61657Y-72992D01*
X61614Y-72992D01*
X61517Y-72992D01*
X61517Y-67807D01*
X61517Y-67807D01*
X61501Y-67727D01*
X61457Y-67660D01*
X61457Y-67660D01*
X61169Y-67373D01*
X61102Y-67328D01*
X61023Y-67312D01*
X56299Y-67312D01*
X56220Y-67328D01*
X56153Y-67373D01*
X55903Y-67623D01*
X55858Y-67690D01*
X55842Y-67769D01*
X55842Y-67797D01*
X55818Y-67807D01*
X55703Y-67921D01*
X55692Y-67946D01*
X55405Y-67946D01*
X55395Y-67922D01*
X55280Y-67807D01*
X55130Y-67745D01*
X54968Y-67745D01*
X54818Y-67807D01*
X54703Y-67921D01*
X54641Y-68071D01*
X54640Y-68234D01*
X54702Y-68384D01*
X54817Y-68499D01*
X54967Y-68561D01*
X55130Y-68561D01*
X55280Y-68499D01*
X55395Y-68385D01*
X55405Y-68360D01*
X55692Y-68360D01*
X55702Y-68384D01*
X55817Y-68499D01*
X55903Y-68535D01*
X55674Y-68763D01*
X55630Y-68745D01*
X55468Y-68745D01*
X55318Y-68807D01*
X55203Y-68921D01*
X55141Y-69071D01*
X55140Y-69234D01*
X55202Y-69384D01*
X55305Y-69486D01*
X55305Y-72355D01*
X55032Y-72627D01*
X54957Y-72627D01*
X54957Y-69432D01*
X54957Y-68832D01*
X54941Y-68792D01*
X54910Y-68761D01*
X54870Y-68745D01*
X54827Y-68745D01*
X54227Y-68745D01*
X54187Y-68761D01*
X54157Y-68792D01*
X54140Y-68831D01*
X54140Y-68874D01*
X54140Y-69474D01*
X54157Y-69514D01*
X54187Y-69545D01*
X54227Y-69561D01*
X54270Y-69561D01*
X54870Y-69561D01*
X54910Y-69545D01*
X54940Y-69514D01*
X54957Y-69475D01*
X54957Y-69432D01*
X54957Y-72627D01*
X54787Y-72627D01*
X54787Y-71507D01*
X54675Y-71235D01*
X54467Y-71028D01*
X54196Y-70915D01*
X53903Y-70915D01*
X53631Y-71027D01*
X53423Y-71234D01*
X53311Y-71506D01*
X53310Y-71799D01*
X53423Y-72071D01*
X53630Y-72278D01*
X53901Y-72391D01*
X54195Y-72391D01*
X54466Y-72279D01*
X54674Y-72072D01*
X54787Y-71801D01*
X54787Y-71507D01*
X54787Y-72627D01*
X50787Y-72627D01*
X50708Y-72643D01*
X50641Y-72688D01*
X50337Y-72992D01*
X49941Y-72992D01*
X49901Y-73008D01*
X49870Y-73038D01*
X49854Y-73078D01*
X49854Y-73121D01*
X49854Y-73771D01*
X49870Y-73811D01*
X49901Y-73841D01*
X49940Y-73858D01*
X49984Y-73858D01*
X50633Y-73858D01*
X50673Y-73841D01*
X50703Y-73811D01*
X50720Y-73771D01*
X50720Y-73728D01*
X50720Y-73193D01*
X50873Y-73041D01*
X51082Y-73041D01*
X51042Y-73057D01*
X50920Y-73179D01*
X50854Y-73338D01*
X50854Y-73510D01*
X50920Y-73670D01*
X51041Y-73792D01*
X51200Y-73858D01*
X51373Y-73858D01*
X51532Y-73792D01*
X51654Y-73670D01*
X51670Y-73631D01*
X57086Y-73631D01*
X57165Y-73616D01*
X57232Y-73571D01*
X57695Y-73108D01*
X57695Y-73108D01*
X57695Y-73108D01*
X57740Y-73041D01*
X57740Y-73041D01*
X57755Y-72962D01*
X57755Y-72962D01*
X57755Y-69509D01*
X57780Y-69499D01*
X57895Y-69385D01*
X57957Y-69235D01*
X57957Y-69072D01*
X57895Y-68922D01*
X57780Y-68807D01*
X57755Y-68797D01*
X57755Y-68739D01*
X57943Y-68551D01*
X57967Y-68561D01*
X58130Y-68561D01*
X58280Y-68499D01*
X58395Y-68385D01*
X58457Y-68235D01*
X58457Y-68072D01*
X58395Y-67922D01*
X58280Y-67807D01*
X58130Y-67745D01*
X57968Y-67745D01*
X57818Y-67807D01*
X57703Y-67921D01*
X57641Y-68071D01*
X57640Y-68234D01*
X57651Y-68259D01*
X57403Y-68507D01*
X57358Y-68574D01*
X57342Y-68653D01*
X57342Y-68797D01*
X57318Y-68807D01*
X57203Y-68921D01*
X57141Y-69071D01*
X57140Y-69234D01*
X57202Y-69384D01*
X57317Y-69499D01*
X57342Y-69509D01*
X57342Y-72876D01*
X57000Y-73218D01*
X51670Y-73218D01*
X51654Y-73180D01*
X51533Y-73058D01*
X51492Y-73041D01*
X55118Y-73041D01*
X55197Y-73025D01*
X55264Y-72980D01*
X55657Y-72587D01*
X55702Y-72520D01*
X55718Y-72440D01*
X55718Y-69525D01*
X55780Y-69499D01*
X55895Y-69385D01*
X55957Y-69235D01*
X55957Y-69072D01*
X55939Y-69028D01*
X56138Y-68828D01*
X56296Y-68828D01*
X56203Y-68921D01*
X56141Y-69071D01*
X56140Y-69234D01*
X56202Y-69384D01*
X56317Y-69499D01*
X56467Y-69561D01*
X56630Y-69561D01*
X56780Y-69499D01*
X56895Y-69385D01*
X56957Y-69235D01*
X56957Y-69072D01*
X56895Y-68922D01*
X56780Y-68807D01*
X56704Y-68775D01*
X56707Y-68773D01*
X56933Y-68547D01*
X56967Y-68561D01*
X57130Y-68561D01*
X57280Y-68499D01*
X57395Y-68385D01*
X57457Y-68235D01*
X57457Y-68072D01*
X57395Y-67922D01*
X57280Y-67807D01*
X57130Y-67745D01*
X56968Y-67745D01*
X56818Y-67807D01*
X56703Y-67921D01*
X56641Y-68071D01*
X56640Y-68234D01*
X56663Y-68288D01*
X56497Y-68454D01*
X56325Y-68454D01*
X56395Y-68385D01*
X56457Y-68235D01*
X56457Y-68072D01*
X56395Y-67922D01*
X56292Y-67819D01*
X56384Y-67726D01*
X60938Y-67726D01*
X61104Y-67892D01*
X61104Y-72992D01*
X60964Y-72992D01*
X60924Y-73008D01*
X60894Y-73038D01*
X60877Y-73078D01*
X60877Y-73121D01*
X60877Y-73771D01*
X60894Y-73811D01*
X60924Y-73841D01*
X60964Y-73858D01*
X61007Y-73858D01*
X61657Y-73858D01*
X61697Y-73841D01*
X61727Y-73811D01*
X61744Y-73771D01*
X61744Y-73728D01*
X61744Y-74379D01*
X59287Y-74379D01*
X59287Y-71507D01*
X59175Y-71235D01*
X58967Y-71028D01*
X58696Y-70915D01*
X58403Y-70915D01*
X58131Y-71027D01*
X57923Y-71234D01*
X57811Y-71506D01*
X57810Y-71799D01*
X57923Y-72071D01*
X58130Y-72278D01*
X58401Y-72391D01*
X58695Y-72391D01*
X58966Y-72279D01*
X59174Y-72072D01*
X59287Y-71801D01*
X59287Y-71507D01*
X59287Y-74379D01*
X48139Y-74379D01*
X48139Y-70609D01*
X48018Y-70316D01*
X47794Y-70092D01*
X47501Y-69970D01*
X47184Y-69970D01*
X46891Y-70091D01*
X46667Y-70315D01*
X46545Y-70608D01*
X46545Y-70925D01*
X46666Y-71218D01*
X46890Y-71443D01*
X47183Y-71564D01*
X47500Y-71565D01*
X47793Y-71443D01*
X48017Y-71219D01*
X48139Y-70926D01*
X48139Y-70609D01*
X48139Y-74379D01*
X44911Y-74379D01*
X44911Y-59872D01*
X60265Y-59872D01*
X60265Y-51604D01*
X83041Y-51604D01*
X83041Y-74379D01*
M02*
