G04 (created by PCBNEW (2013-mar-25)-stable) date Friday, August 07, 2015 09:57:37 AM*
%MOIN*%
G04 Gerber Fmt 3.4, Leading zero omitted, Abs format*
%FSLAX34Y34*%
G01*
G70*
G90*
G04 APERTURE LIST*
%ADD10C,0.006*%
%ADD11C,0.129921*%
%ADD12R,0.063937X0.063937*%
%ADD13C,0.063937*%
%ADD14R,0.0688976X0.0688976*%
%ADD15C,0.0688976*%
%ADD16C,0.0531496*%
%ADD17R,0.133858X0.16378*%
%ADD18R,0.133858X0.253937*%
%ADD19R,0.153937X0.253937*%
%ADD20C,0.110236*%
%ADD21R,0.0649606X0.145669*%
%ADD22R,0.145669X0.0649606*%
%ADD23R,0.058937X0.038937*%
%ADD24R,0.038937X0.058937*%
%ADD25R,0.0826772X0.0629921*%
%ADD26R,0.0629921X0.0826772*%
%ADD27R,0.0826772X0.0511811*%
%ADD28R,0.0511811X0.0826772*%
%ADD29R,0.0338583X0.0267717*%
%ADD30R,0.102362X0.161417*%
%ADD31R,0.0889764X0.046063*%
%ADD32R,0.279528X0.429134*%
%ADD33R,0.0393701X0.0354331*%
%ADD34R,0.153543X0.220472*%
%ADD35R,0.0940945X0.203937*%
%ADD36R,0.0990157X0.203937*%
%ADD37R,0.023937X0.053937*%
%ADD38R,0.0972441X0.0996063*%
%ADD39C,0.275591*%
%ADD40C,0.11811*%
G04 APERTURE END LIST*
G54D10*
G54D11*
X58549Y-71653D03*
X54049Y-71653D03*
G54D12*
X54549Y-69153D03*
G54D13*
X55049Y-68153D03*
X55549Y-69153D03*
X56049Y-68153D03*
X56549Y-69153D03*
X57049Y-68153D03*
X57549Y-69153D03*
X58049Y-68153D03*
G54D14*
X62704Y-52559D03*
G54D15*
X61704Y-52559D03*
G54D14*
X70759Y-73425D03*
G54D15*
X71759Y-73425D03*
G54D14*
X61311Y-73425D03*
G54D15*
X62311Y-73425D03*
G54D14*
X50287Y-73425D03*
G54D15*
X51287Y-73425D03*
G54D14*
X58767Y-52559D03*
G54D15*
X57767Y-52559D03*
G54D16*
X77559Y-59448D03*
X46456Y-60629D03*
G54D17*
X52456Y-57417D03*
G54D18*
X50055Y-53818D03*
G54D19*
X55287Y-53818D03*
G54D20*
X52755Y-52338D03*
G54D21*
X56348Y-58661D03*
X54675Y-58661D03*
G54D22*
X46456Y-63828D03*
X46456Y-62155D03*
G54D21*
X67372Y-69685D03*
X65698Y-69685D03*
G54D23*
X71653Y-54344D03*
X71653Y-55104D03*
G54D24*
X70065Y-57874D03*
X69305Y-57874D03*
X70065Y-59055D03*
X69305Y-59055D03*
G54D23*
X48425Y-66942D03*
X48425Y-67702D03*
G54D24*
X66155Y-68110D03*
X66915Y-68110D03*
G54D23*
X74015Y-70458D03*
X74015Y-69698D03*
X72834Y-70458D03*
X72834Y-69698D03*
X69685Y-70458D03*
X69685Y-69698D03*
X74409Y-62191D03*
X74409Y-61431D03*
X74409Y-64159D03*
X74409Y-63399D03*
X71653Y-56679D03*
X71653Y-55919D03*
G54D24*
X70065Y-52755D03*
X69305Y-52755D03*
X68490Y-59055D03*
X67730Y-59055D03*
X70065Y-53937D03*
X69305Y-53937D03*
X68490Y-57874D03*
X67730Y-57874D03*
G54D23*
X56692Y-55525D03*
X56692Y-56285D03*
G54D24*
X68490Y-53937D03*
X67730Y-53937D03*
X68490Y-52755D03*
X67730Y-52755D03*
X72820Y-62204D03*
X72060Y-62204D03*
G54D23*
X46850Y-66942D03*
X46850Y-67702D03*
G54D25*
X45669Y-67066D03*
X45669Y-68366D03*
X59055Y-56555D03*
X59055Y-55255D03*
X57874Y-56555D03*
X57874Y-55255D03*
X65354Y-56555D03*
X65354Y-55255D03*
G54D26*
X75846Y-60236D03*
X74547Y-60236D03*
G54D25*
X66535Y-56555D03*
X66535Y-55255D03*
G54D27*
X63681Y-56405D03*
X60728Y-56405D03*
X63681Y-55405D03*
X60728Y-55405D03*
G54D28*
X50287Y-70767D03*
X50287Y-67814D03*
X51287Y-70767D03*
X51287Y-67814D03*
G54D29*
X67687Y-55379D03*
X67687Y-56431D03*
X70108Y-56431D03*
X70108Y-55379D03*
G54D30*
X75196Y-57480D03*
X75196Y-54330D03*
X50787Y-61417D03*
X50787Y-64566D03*
X68897Y-61417D03*
X68897Y-64566D03*
G54D31*
X75852Y-61653D03*
X75852Y-62322D03*
X75852Y-62992D03*
X75852Y-63661D03*
X75852Y-64330D03*
G54D32*
X80053Y-62992D03*
G54D33*
X72047Y-63405D03*
X72047Y-64153D03*
X72834Y-63779D03*
G54D34*
X55521Y-62992D03*
X59438Y-62992D03*
G54D35*
X75984Y-73539D03*
G54D36*
X77659Y-73539D03*
X74309Y-73539D03*
G54D35*
X66535Y-73539D03*
G54D36*
X68210Y-73539D03*
X64860Y-73539D03*
G54D37*
X71629Y-69628D03*
X71259Y-69629D03*
X70889Y-69629D03*
X70889Y-70527D03*
X71259Y-70527D03*
X71629Y-70527D03*
G54D38*
X75637Y-66141D03*
X73181Y-66141D03*
G54D39*
X47342Y-70767D03*
X80610Y-70767D03*
X47342Y-55216D03*
X80610Y-55216D03*
G54D40*
X45669Y-73622D03*
X82283Y-52362D03*
M02*
