G04 (created by PCBNEW (2013-mar-25)-stable) date Friday, August 07, 2015 09:57:37 AM*
%MOIN*%
G04 Gerber Fmt 3.4, Leading zero omitted, Abs format*
%FSLAX34Y34*%
G01*
G70*
G90*
G04 APERTURE LIST*
%ADD10C,0.006*%
%ADD11R,0.129921X0.159843*%
%ADD12R,0.129921X0.25*%
%ADD13R,0.15X0.25*%
%ADD14R,0.0610236X0.141732*%
%ADD15R,0.141732X0.0610236*%
%ADD16R,0.055X0.035*%
%ADD17R,0.035X0.055*%
%ADD18R,0.0787402X0.0590551*%
%ADD19R,0.0590551X0.0787402*%
%ADD20R,0.0787402X0.0472441*%
%ADD21R,0.0472441X0.0787402*%
%ADD22R,0.0299213X0.0228346*%
%ADD23R,0.0984252X0.15748*%
%ADD24R,0.0850394X0.042126*%
%ADD25R,0.275591X0.425197*%
%ADD26R,0.0354331X0.0314961*%
%ADD27R,0.149606X0.216535*%
%ADD28R,0.02X0.05*%
%ADD29R,0.0933071X0.0956693*%
G04 APERTURE END LIST*
G54D10*
G54D11*
X52456Y-57417D03*
G54D12*
X50055Y-53818D03*
G54D13*
X55287Y-53818D03*
G54D14*
X56348Y-58661D03*
X54675Y-58661D03*
G54D15*
X46456Y-63828D03*
X46456Y-62155D03*
G54D14*
X67372Y-69685D03*
X65698Y-69685D03*
G54D16*
X71653Y-54344D03*
X71653Y-55104D03*
G54D17*
X70065Y-57874D03*
X69305Y-57874D03*
X70065Y-59055D03*
X69305Y-59055D03*
G54D16*
X48425Y-66942D03*
X48425Y-67702D03*
G54D17*
X66155Y-68110D03*
X66915Y-68110D03*
G54D16*
X74015Y-70458D03*
X74015Y-69698D03*
X72834Y-70458D03*
X72834Y-69698D03*
X69685Y-70458D03*
X69685Y-69698D03*
X74409Y-62191D03*
X74409Y-61431D03*
X74409Y-64159D03*
X74409Y-63399D03*
X71653Y-56679D03*
X71653Y-55919D03*
G54D17*
X70065Y-52755D03*
X69305Y-52755D03*
X68490Y-59055D03*
X67730Y-59055D03*
X70065Y-53937D03*
X69305Y-53937D03*
X68490Y-57874D03*
X67730Y-57874D03*
G54D16*
X56692Y-55525D03*
X56692Y-56285D03*
G54D17*
X68490Y-53937D03*
X67730Y-53937D03*
X68490Y-52755D03*
X67730Y-52755D03*
X72820Y-62204D03*
X72060Y-62204D03*
G54D16*
X46850Y-66942D03*
X46850Y-67702D03*
G54D18*
X45669Y-67066D03*
X45669Y-68366D03*
X59055Y-56555D03*
X59055Y-55255D03*
X57874Y-56555D03*
X57874Y-55255D03*
X65354Y-56555D03*
X65354Y-55255D03*
G54D19*
X75846Y-60236D03*
X74547Y-60236D03*
G54D18*
X66535Y-56555D03*
X66535Y-55255D03*
G54D20*
X63681Y-56405D03*
X60728Y-56405D03*
X63681Y-55405D03*
X60728Y-55405D03*
G54D21*
X50287Y-70767D03*
X50287Y-67814D03*
X51287Y-70767D03*
X51287Y-67814D03*
G54D22*
X67687Y-55379D03*
X67687Y-56431D03*
X70108Y-56431D03*
X70108Y-55379D03*
G54D23*
X75196Y-57480D03*
X75196Y-54330D03*
X50787Y-61417D03*
X50787Y-64566D03*
X68897Y-61417D03*
X68897Y-64566D03*
G54D24*
X75852Y-61653D03*
X75852Y-62322D03*
X75852Y-62992D03*
X75852Y-63661D03*
X75852Y-64330D03*
G54D25*
X80053Y-62992D03*
G54D26*
X72047Y-63405D03*
X72047Y-64153D03*
X72834Y-63779D03*
G54D27*
X55521Y-62992D03*
X59438Y-62992D03*
G54D28*
X71629Y-69628D03*
X71259Y-69629D03*
X70889Y-69629D03*
X70889Y-70527D03*
X71259Y-70527D03*
X71629Y-70527D03*
G54D29*
X75637Y-66141D03*
X73181Y-66141D03*
M02*
