G04 (created by PCBNEW (2013-mar-25)-stable) date Friday, August 07, 2015 09:57:37 AM*
%MOIN*%
G04 Gerber Fmt 3.4, Leading zero omitted, Abs format*
%FSLAX34Y34*%
G01*
G70*
G90*
G04 APERTURE LIST*
%ADD10C,0.006*%
%ADD11R,0.06X0.06*%
%ADD12C,0.06*%
%ADD13R,0.0649606X0.0649606*%
%ADD14C,0.0649606*%
%ADD15C,0.0492126*%
%ADD16R,0.129921X0.159843*%
%ADD17R,0.129921X0.25*%
%ADD18R,0.15X0.25*%
%ADD19R,0.0610236X0.141732*%
%ADD20R,0.141732X0.0610236*%
%ADD21R,0.055X0.035*%
%ADD22R,0.035X0.055*%
%ADD23R,0.0787402X0.0590551*%
%ADD24R,0.0590551X0.0787402*%
%ADD25R,0.0787402X0.0472441*%
%ADD26R,0.0472441X0.0787402*%
%ADD27R,0.0299213X0.0228346*%
%ADD28R,0.0984252X0.15748*%
%ADD29R,0.0850394X0.042126*%
%ADD30R,0.275591X0.425197*%
%ADD31R,0.0354331X0.0314961*%
%ADD32R,0.149606X0.216535*%
%ADD33R,0.0901575X0.2*%
%ADD34R,0.0950787X0.2*%
%ADD35R,0.02X0.05*%
%ADD36R,0.0933071X0.0956693*%
%ADD37C,0.0393701*%
%ADD38C,0.0314961*%
%ADD39C,0.019685*%
%ADD40C,0.00590551*%
G04 APERTURE END LIST*
G54D10*
G54D11*
X54549Y-69153D03*
G54D12*
X55049Y-68153D03*
X55549Y-69153D03*
X56049Y-68153D03*
X56549Y-69153D03*
X57049Y-68153D03*
X57549Y-69153D03*
X58049Y-68153D03*
G54D13*
X62704Y-52559D03*
G54D14*
X61704Y-52559D03*
G54D13*
X70759Y-73425D03*
G54D14*
X71759Y-73425D03*
G54D13*
X61311Y-73425D03*
G54D14*
X62311Y-73425D03*
G54D13*
X50287Y-73425D03*
G54D14*
X51287Y-73425D03*
G54D13*
X58767Y-52559D03*
G54D14*
X57767Y-52559D03*
G54D15*
X77559Y-59448D03*
X46456Y-60629D03*
G54D16*
X52456Y-57417D03*
G54D17*
X50055Y-53818D03*
G54D18*
X55287Y-53818D03*
G54D19*
X56348Y-58661D03*
X54675Y-58661D03*
G54D20*
X46456Y-63828D03*
X46456Y-62155D03*
G54D19*
X67372Y-69685D03*
X65698Y-69685D03*
G54D21*
X71653Y-54344D03*
X71653Y-55104D03*
G54D22*
X70065Y-57874D03*
X69305Y-57874D03*
X70065Y-59055D03*
X69305Y-59055D03*
G54D21*
X48425Y-66942D03*
X48425Y-67702D03*
G54D22*
X66155Y-68110D03*
X66915Y-68110D03*
G54D21*
X74015Y-70458D03*
X74015Y-69698D03*
X72834Y-70458D03*
X72834Y-69698D03*
X69685Y-70458D03*
X69685Y-69698D03*
X74409Y-62191D03*
X74409Y-61431D03*
X74409Y-64159D03*
X74409Y-63399D03*
X71653Y-56679D03*
X71653Y-55919D03*
G54D22*
X70065Y-52755D03*
X69305Y-52755D03*
X68490Y-59055D03*
X67730Y-59055D03*
X70065Y-53937D03*
X69305Y-53937D03*
X68490Y-57874D03*
X67730Y-57874D03*
G54D21*
X56692Y-55525D03*
X56692Y-56285D03*
G54D22*
X68490Y-53937D03*
X67730Y-53937D03*
X68490Y-52755D03*
X67730Y-52755D03*
X72820Y-62204D03*
X72060Y-62204D03*
G54D21*
X46850Y-66942D03*
X46850Y-67702D03*
G54D23*
X45669Y-67066D03*
X45669Y-68366D03*
X59055Y-56555D03*
X59055Y-55255D03*
X57874Y-56555D03*
X57874Y-55255D03*
X65354Y-56555D03*
X65354Y-55255D03*
G54D24*
X75846Y-60236D03*
X74547Y-60236D03*
G54D23*
X66535Y-56555D03*
X66535Y-55255D03*
G54D25*
X63681Y-56405D03*
X60728Y-56405D03*
X63681Y-55405D03*
X60728Y-55405D03*
G54D26*
X50287Y-70767D03*
X50287Y-67814D03*
X51287Y-70767D03*
X51287Y-67814D03*
G54D27*
X67687Y-55379D03*
X67687Y-56431D03*
X70108Y-56431D03*
X70108Y-55379D03*
G54D28*
X75196Y-57480D03*
X75196Y-54330D03*
X50787Y-61417D03*
X50787Y-64566D03*
X68897Y-61417D03*
X68897Y-64566D03*
G54D29*
X75852Y-61653D03*
X75852Y-62322D03*
X75852Y-62992D03*
X75852Y-63661D03*
X75852Y-64330D03*
G54D30*
X80053Y-62992D03*
G54D31*
X72047Y-63405D03*
X72047Y-64153D03*
X72834Y-63779D03*
G54D32*
X55521Y-62992D03*
X59438Y-62992D03*
G54D33*
X75984Y-73539D03*
G54D34*
X77659Y-73539D03*
X74309Y-73539D03*
G54D33*
X66535Y-73539D03*
G54D34*
X68210Y-73539D03*
X64860Y-73539D03*
G54D35*
X71629Y-69628D03*
X71259Y-69629D03*
X70889Y-69629D03*
X70889Y-70527D03*
X71259Y-70527D03*
X71629Y-70527D03*
G54D36*
X75637Y-66141D03*
X73181Y-66141D03*
G54D37*
X45669Y-73622D03*
X82283Y-52362D03*
G54D38*
X56299Y-53740D03*
X49015Y-53740D03*
X69389Y-73523D03*
X70767Y-68996D03*
X71751Y-68996D03*
X74606Y-70472D03*
X50787Y-65551D03*
X75196Y-53346D03*
X68897Y-65551D03*
X79133Y-60433D03*
X81102Y-60433D03*
X80118Y-60433D03*
X79133Y-65551D03*
X81102Y-65551D03*
X80118Y-65551D03*
X81889Y-64960D03*
X81889Y-63976D03*
X81889Y-61023D03*
X81889Y-62007D03*
X81889Y-62992D03*
X70472Y-52755D03*
X71653Y-53937D03*
X70472Y-55314D03*
X74409Y-54330D03*
X75984Y-54330D03*
X69685Y-64566D03*
X68110Y-64566D03*
X74409Y-61023D03*
X70472Y-59055D03*
X74015Y-60236D03*
X75196Y-62992D03*
X73031Y-65157D03*
X73031Y-67125D03*
X72440Y-66141D03*
X51574Y-64566D03*
X50000Y-64566D03*
X45669Y-68897D03*
X46850Y-68110D03*
X48425Y-68110D03*
X76574Y-62992D03*
G54D39*
X53740Y-57417D02*
X54464Y-57417D01*
X54675Y-57627D02*
X54675Y-58661D01*
X54464Y-57417D02*
X54675Y-57627D01*
X58767Y-52559D02*
X58767Y-51877D01*
X53803Y-57417D02*
X53740Y-57417D01*
X53740Y-57417D02*
X52456Y-57417D01*
X53937Y-57283D02*
X53803Y-57417D01*
X53937Y-51968D02*
X53937Y-57283D01*
X54133Y-51771D02*
X53937Y-51968D01*
X58661Y-51771D02*
X54133Y-51771D01*
X58767Y-51877D02*
X58661Y-51771D01*
X50055Y-53818D02*
X49094Y-53818D01*
X56220Y-53818D02*
X55287Y-53818D01*
X56299Y-53740D02*
X56220Y-53818D01*
X49094Y-53818D02*
X49015Y-53740D01*
X57874Y-55255D02*
X57874Y-54527D01*
X57767Y-54421D02*
X57767Y-52559D01*
X57874Y-54527D02*
X57767Y-54421D01*
X56692Y-55525D02*
X55525Y-55525D01*
X55287Y-55287D02*
X55287Y-53818D01*
X55525Y-55525D02*
X55287Y-55287D01*
X56692Y-55525D02*
X57072Y-55525D01*
X57342Y-55255D02*
X57874Y-55255D01*
X57072Y-55525D02*
X57342Y-55255D01*
X59055Y-55255D02*
X57874Y-55255D01*
X60728Y-55405D02*
X59736Y-55405D01*
X59586Y-55255D02*
X59055Y-55255D01*
X59736Y-55405D02*
X59586Y-55255D01*
X56692Y-56285D02*
X56692Y-57086D01*
X56348Y-57431D02*
X56348Y-58661D01*
X56692Y-57086D02*
X56348Y-57431D01*
X56692Y-56285D02*
X57072Y-56285D01*
X57342Y-56555D02*
X57874Y-56555D01*
X57072Y-56285D02*
X57342Y-56555D01*
X59055Y-56555D02*
X57874Y-56555D01*
X60728Y-56405D02*
X59736Y-56405D01*
X59586Y-56555D02*
X59055Y-56555D01*
X59736Y-56405D02*
X59586Y-56555D01*
X67730Y-57874D02*
X67730Y-59055D01*
X67687Y-56431D02*
X67687Y-57830D01*
X67687Y-57830D02*
X67730Y-57874D01*
X63681Y-56405D02*
X64476Y-56405D01*
X64625Y-56555D02*
X65354Y-56555D01*
X64476Y-56405D02*
X64625Y-56555D01*
X66535Y-56555D02*
X65354Y-56555D01*
X67687Y-56431D02*
X67190Y-56431D01*
X67066Y-56555D02*
X66535Y-56555D01*
X67190Y-56431D02*
X67066Y-56555D01*
X67687Y-55379D02*
X67190Y-55379D01*
X67066Y-55255D02*
X66535Y-55255D01*
X67190Y-55379D02*
X67066Y-55255D01*
X65354Y-55255D02*
X66535Y-55255D01*
X63681Y-55405D02*
X64476Y-55405D01*
X64625Y-55255D02*
X65354Y-55255D01*
X64476Y-55405D02*
X64625Y-55255D01*
X67687Y-55379D02*
X67687Y-54557D01*
X67730Y-54513D02*
X67730Y-53937D01*
X67687Y-54557D02*
X67730Y-54513D01*
X67730Y-52755D02*
X67730Y-53937D01*
X61311Y-73425D02*
X61311Y-74106D01*
X66338Y-72047D02*
X66535Y-71850D01*
X63779Y-72047D02*
X66338Y-72047D01*
X63582Y-72244D02*
X63779Y-72047D01*
X63582Y-74212D02*
X63582Y-72244D01*
X63385Y-74409D02*
X63582Y-74212D01*
X61614Y-74409D02*
X63385Y-74409D01*
X61311Y-74106D02*
X61614Y-74409D01*
X66535Y-73539D02*
X66535Y-71850D01*
X66535Y-71850D02*
X66535Y-71456D01*
X66535Y-71456D02*
X66732Y-71259D01*
X66732Y-71259D02*
X69488Y-71259D01*
X69488Y-71259D02*
X69685Y-71062D01*
X69685Y-71062D02*
X69685Y-70458D01*
X70889Y-70527D02*
X70429Y-70527D01*
X70360Y-70458D02*
X69685Y-70458D01*
X70429Y-70527D02*
X70360Y-70458D01*
X69374Y-73539D02*
X68210Y-73539D01*
X69389Y-73523D02*
X69374Y-73539D01*
X71629Y-70527D02*
X71629Y-71480D01*
X71629Y-71480D02*
X71456Y-71653D01*
X71456Y-71653D02*
X68503Y-71653D01*
X68503Y-71653D02*
X68210Y-71946D01*
X68210Y-71946D02*
X68210Y-73539D01*
X56791Y-70078D02*
X54724Y-70078D01*
X54549Y-69903D02*
X54549Y-69153D01*
X54724Y-70078D02*
X54549Y-69903D01*
X56549Y-69153D02*
X56549Y-69836D01*
X62311Y-70381D02*
X62311Y-73425D01*
X62007Y-70078D02*
X62311Y-70381D01*
X56791Y-70078D02*
X62007Y-70078D01*
X56549Y-69836D02*
X56791Y-70078D01*
X71629Y-70527D02*
X72090Y-70527D01*
X72159Y-70458D02*
X72834Y-70458D01*
X72090Y-70527D02*
X72159Y-70458D01*
X50287Y-70767D02*
X50295Y-73425D01*
X66155Y-68110D02*
X65551Y-68110D01*
X65255Y-67519D02*
X64370Y-67519D01*
X65452Y-67716D02*
X65255Y-67519D01*
X65452Y-68011D02*
X65452Y-67716D01*
X65551Y-68110D02*
X65452Y-68011D01*
X64370Y-67519D02*
X64566Y-67716D01*
X57049Y-68147D02*
X57677Y-67519D01*
X57677Y-67519D02*
X64370Y-67519D01*
X57049Y-68153D02*
X57049Y-68147D01*
X64566Y-67716D02*
X64566Y-69488D01*
X64566Y-69488D02*
X64763Y-69685D01*
X64763Y-69685D02*
X65698Y-69685D01*
X51287Y-70767D02*
X51279Y-73425D01*
X75984Y-73539D02*
X75984Y-72244D01*
X70759Y-72350D02*
X70759Y-73425D01*
X71062Y-72047D02*
X70759Y-72350D01*
X75787Y-72047D02*
X71062Y-72047D01*
X75984Y-72244D02*
X75787Y-72047D01*
X66915Y-68110D02*
X67224Y-68110D01*
X67372Y-68257D02*
X67372Y-69685D01*
X67224Y-68110D02*
X67372Y-68257D01*
X69685Y-69698D02*
X67385Y-69698D01*
X67385Y-69698D02*
X67372Y-69685D01*
X70889Y-69629D02*
X70429Y-69629D01*
X70360Y-69698D02*
X69685Y-69698D01*
X70429Y-69629D02*
X70360Y-69698D01*
X70889Y-69118D02*
X70889Y-69629D01*
X70767Y-68996D02*
X70889Y-69118D01*
X71759Y-73425D02*
X74194Y-73425D01*
X74194Y-73425D02*
X74309Y-73539D01*
X71629Y-69628D02*
X72089Y-69628D01*
X72159Y-69698D02*
X72834Y-69698D01*
X72089Y-69628D02*
X72159Y-69698D01*
X74015Y-69698D02*
X72834Y-69698D01*
X71629Y-69118D02*
X71629Y-69628D01*
X71751Y-68996D02*
X71629Y-69118D01*
X71653Y-55104D02*
X71653Y-55919D01*
X68490Y-59055D02*
X69305Y-59055D01*
X68490Y-57874D02*
X69305Y-57874D01*
X68490Y-53937D02*
X69305Y-53937D01*
X68490Y-52755D02*
X69305Y-52755D01*
X48425Y-66942D02*
X50997Y-66942D01*
X51287Y-67232D02*
X51287Y-67814D01*
X50997Y-66942D02*
X51287Y-67232D01*
X74409Y-62191D02*
X74986Y-62191D01*
X75523Y-61653D02*
X75852Y-61653D01*
X74986Y-62191D02*
X75523Y-61653D01*
X74409Y-63399D02*
X74409Y-62191D01*
X70866Y-56692D02*
X70866Y-54133D01*
X70669Y-53937D02*
X70065Y-53937D01*
X70866Y-54133D02*
X70669Y-53937D01*
X75196Y-57480D02*
X71850Y-57480D01*
X71653Y-57283D02*
X71653Y-56679D01*
X71850Y-57480D02*
X71653Y-57283D01*
X70108Y-56431D02*
X70604Y-56431D01*
X70604Y-56431D02*
X70866Y-56692D01*
X70866Y-56692D02*
X70852Y-56679D01*
X70852Y-56679D02*
X71653Y-56679D01*
X70108Y-56431D02*
X70108Y-57253D01*
X70065Y-57297D02*
X70065Y-57874D01*
X70108Y-57253D02*
X70065Y-57297D01*
X75846Y-60236D02*
X75846Y-59507D01*
X75196Y-58858D02*
X75196Y-57480D01*
X75846Y-59507D02*
X75196Y-58858D01*
X76771Y-60236D02*
X77362Y-60236D01*
X77559Y-60039D02*
X77559Y-59448D01*
X77362Y-60236D02*
X77559Y-60039D01*
X75852Y-62322D02*
X76850Y-62322D01*
X76850Y-62322D02*
X77165Y-62007D01*
X75852Y-63661D02*
X76889Y-63661D01*
X76771Y-60236D02*
X75846Y-60236D01*
X77165Y-60629D02*
X76771Y-60236D01*
X77165Y-63385D02*
X77165Y-62007D01*
X77165Y-62007D02*
X77165Y-60629D01*
X76889Y-63661D02*
X77165Y-63385D01*
X72060Y-62204D02*
X69685Y-62204D01*
X69685Y-62204D02*
X68897Y-61417D01*
X72047Y-63405D02*
X72047Y-62218D01*
X72047Y-62218D02*
X72060Y-62204D01*
X55521Y-62992D02*
X52362Y-62992D01*
X52362Y-62992D02*
X50787Y-61417D01*
X46456Y-62155D02*
X50049Y-62155D01*
X50049Y-62155D02*
X50787Y-61417D01*
X46456Y-60629D02*
X46456Y-62155D01*
X59645Y-65944D02*
X59449Y-65748D01*
X72047Y-65748D02*
X71850Y-65944D01*
X71850Y-65944D02*
X59645Y-65944D01*
X59438Y-62992D02*
X59449Y-65748D01*
X72047Y-65748D02*
X72047Y-64153D01*
X75637Y-66141D02*
X75637Y-65110D01*
X75852Y-64895D02*
X75852Y-64330D01*
X75637Y-65110D02*
X75852Y-64895D01*
X75852Y-64330D02*
X75157Y-64330D01*
X74986Y-64159D02*
X74409Y-64159D01*
X75157Y-64330D02*
X74986Y-64159D01*
X74409Y-64159D02*
X73214Y-64159D01*
X73214Y-64159D02*
X72834Y-63779D01*
X72820Y-62204D02*
X72820Y-63765D01*
X72820Y-63765D02*
X72834Y-63779D01*
X46850Y-66942D02*
X45793Y-66942D01*
X45793Y-66942D02*
X45669Y-67066D01*
X46456Y-63828D02*
X46456Y-66549D01*
X46456Y-66549D02*
X46850Y-66942D01*
X46850Y-66942D02*
X47427Y-66942D01*
X50287Y-68216D02*
X50287Y-67814D01*
X50000Y-68503D02*
X50287Y-68216D01*
X47834Y-68503D02*
X50000Y-68503D01*
X47610Y-68279D02*
X47834Y-68503D01*
X47610Y-67125D02*
X47610Y-68279D01*
X47427Y-66942D02*
X47610Y-67125D01*
X74015Y-70458D02*
X74592Y-70458D01*
X74592Y-70458D02*
X74606Y-70472D01*
X50787Y-64566D02*
X50787Y-65551D01*
X75196Y-54330D02*
X75196Y-53346D01*
X68897Y-64566D02*
X68897Y-65551D01*
X79921Y-61023D02*
X79133Y-61023D01*
X79133Y-61023D02*
X79133Y-60433D01*
X79921Y-61023D02*
X79921Y-62992D01*
X79921Y-62992D02*
X80053Y-62992D01*
X79921Y-61023D02*
X81102Y-61023D01*
X81102Y-61023D02*
X81102Y-60433D01*
X79921Y-61023D02*
X79921Y-62992D01*
X79921Y-62992D02*
X80053Y-62992D01*
X79921Y-61023D02*
X80118Y-61023D01*
X80118Y-61023D02*
X80118Y-60433D01*
X79921Y-61023D02*
X79921Y-62992D01*
X79921Y-62992D02*
X80053Y-62992D01*
X79921Y-62992D02*
X79921Y-64960D01*
X79133Y-64960D02*
X79921Y-64960D01*
X79133Y-64960D02*
X79133Y-65551D01*
X79921Y-62992D02*
X80053Y-62992D01*
X80118Y-64960D02*
X81102Y-64960D01*
X81102Y-64960D02*
X81102Y-65551D01*
X80118Y-64960D02*
X79921Y-64763D01*
X79921Y-64763D02*
X79921Y-62992D01*
X79921Y-62992D02*
X80053Y-62992D01*
X80118Y-65551D02*
X80118Y-64960D01*
X80118Y-64960D02*
X79921Y-64763D01*
X79921Y-64763D02*
X79921Y-62992D01*
X79921Y-62992D02*
X80053Y-62992D01*
X79921Y-62992D02*
X79921Y-64763D01*
X80118Y-64960D02*
X79921Y-64763D01*
X80118Y-64960D02*
X81889Y-64960D01*
X79921Y-62992D02*
X80053Y-62992D01*
X79921Y-62992D02*
X79921Y-63779D01*
X80118Y-63976D02*
X79921Y-63779D01*
X80118Y-63976D02*
X81889Y-63976D01*
X79921Y-62992D02*
X80053Y-62992D01*
X79921Y-62992D02*
X79921Y-61023D01*
X79921Y-61023D02*
X81889Y-61023D01*
X79921Y-62992D02*
X80053Y-62992D01*
X80053Y-62992D02*
X79921Y-62992D01*
X79921Y-62204D02*
X79921Y-62992D01*
X80118Y-62007D02*
X79921Y-62204D01*
X80118Y-62007D02*
X81889Y-62007D01*
X80053Y-62992D02*
X81889Y-62992D01*
X70065Y-52755D02*
X70472Y-52755D01*
X71653Y-54344D02*
X71653Y-53937D01*
X70108Y-55379D02*
X70407Y-55379D01*
X70407Y-55379D02*
X70472Y-55314D01*
X75196Y-54330D02*
X74409Y-54330D01*
X75196Y-54330D02*
X75984Y-54330D01*
X68897Y-64566D02*
X69685Y-64566D01*
X68897Y-64566D02*
X68110Y-64566D01*
X74409Y-61431D02*
X74409Y-61023D01*
X70065Y-59055D02*
X70472Y-59055D01*
X74547Y-60236D02*
X74015Y-60236D01*
X75852Y-62992D02*
X75196Y-62992D01*
X73181Y-66141D02*
X73181Y-65307D01*
X73181Y-65307D02*
X73031Y-65157D01*
X73181Y-66141D02*
X73181Y-66976D01*
X73181Y-66976D02*
X73031Y-67125D01*
X73181Y-66141D02*
X72440Y-66141D01*
X50787Y-64566D02*
X51574Y-64566D01*
X50787Y-64566D02*
X50000Y-64566D01*
X45669Y-68366D02*
X45669Y-68897D01*
X46850Y-67702D02*
X46850Y-68110D01*
X48425Y-67702D02*
X48425Y-68110D01*
X75852Y-62992D02*
X76574Y-62992D01*
G54D10*
G36*
X83041Y-74379D02*
X82903Y-74379D01*
X82903Y-52239D01*
X82809Y-52011D01*
X82635Y-51836D01*
X82407Y-51742D01*
X82160Y-51742D01*
X81932Y-51836D01*
X81758Y-52010D01*
X81663Y-52238D01*
X81663Y-52485D01*
X81757Y-52712D01*
X81931Y-52887D01*
X82159Y-52982D01*
X82406Y-52982D01*
X82634Y-52888D01*
X82808Y-52713D01*
X82903Y-52486D01*
X82903Y-52239D01*
X82903Y-74379D01*
X81539Y-74379D01*
X81539Y-65139D01*
X81539Y-60844D01*
X81522Y-60804D01*
X81492Y-60774D01*
X81452Y-60757D01*
X81409Y-60757D01*
X81407Y-60757D01*
X81407Y-55058D01*
X81286Y-54765D01*
X81062Y-54541D01*
X80769Y-54419D01*
X80452Y-54419D01*
X80159Y-54540D01*
X79934Y-54764D01*
X79813Y-55057D01*
X79812Y-55374D01*
X79933Y-55667D01*
X80158Y-55892D01*
X80450Y-56013D01*
X80768Y-56013D01*
X81061Y-55892D01*
X81285Y-55668D01*
X81407Y-55375D01*
X81407Y-55058D01*
X81407Y-60757D01*
X80109Y-60757D01*
X80082Y-60784D01*
X80082Y-62962D01*
X81512Y-62962D01*
X81539Y-62935D01*
X81539Y-60844D01*
X81539Y-65139D01*
X81539Y-63048D01*
X81512Y-63021D01*
X80082Y-63021D01*
X80082Y-65199D01*
X80109Y-65226D01*
X81409Y-65226D01*
X81452Y-65226D01*
X81492Y-65209D01*
X81522Y-65179D01*
X81539Y-65139D01*
X81539Y-74379D01*
X81407Y-74379D01*
X81407Y-70609D01*
X81286Y-70316D01*
X81062Y-70092D01*
X80769Y-69970D01*
X80452Y-69970D01*
X80159Y-70091D01*
X80023Y-70226D01*
X80023Y-65199D01*
X80023Y-63021D01*
X80023Y-62962D01*
X80023Y-60784D01*
X79996Y-60757D01*
X78696Y-60757D01*
X78653Y-60757D01*
X78613Y-60774D01*
X78583Y-60804D01*
X78566Y-60844D01*
X78566Y-62935D01*
X78593Y-62962D01*
X80023Y-62962D01*
X80023Y-63021D01*
X78593Y-63021D01*
X78566Y-63048D01*
X78566Y-65139D01*
X78583Y-65179D01*
X78613Y-65209D01*
X78653Y-65226D01*
X78696Y-65226D01*
X79996Y-65226D01*
X80023Y-65199D01*
X80023Y-70226D01*
X79934Y-70315D01*
X79813Y-70608D01*
X79812Y-70925D01*
X79933Y-71218D01*
X80158Y-71443D01*
X80450Y-71564D01*
X80768Y-71565D01*
X81061Y-71443D01*
X81285Y-71219D01*
X81407Y-70926D01*
X81407Y-70609D01*
X81407Y-74379D01*
X78375Y-74379D01*
X78375Y-51604D01*
X83041Y-51604D01*
X83041Y-74379D01*
X83041Y-74379D01*
G37*
G54D40*
X83041Y-74379D02*
X82903Y-74379D01*
X82903Y-52239D01*
X82809Y-52011D01*
X82635Y-51836D01*
X82407Y-51742D01*
X82160Y-51742D01*
X81932Y-51836D01*
X81758Y-52010D01*
X81663Y-52238D01*
X81663Y-52485D01*
X81757Y-52712D01*
X81931Y-52887D01*
X82159Y-52982D01*
X82406Y-52982D01*
X82634Y-52888D01*
X82808Y-52713D01*
X82903Y-52486D01*
X82903Y-52239D01*
X82903Y-74379D01*
X81539Y-74379D01*
X81539Y-65139D01*
X81539Y-60844D01*
X81522Y-60804D01*
X81492Y-60774D01*
X81452Y-60757D01*
X81409Y-60757D01*
X81407Y-60757D01*
X81407Y-55058D01*
X81286Y-54765D01*
X81062Y-54541D01*
X80769Y-54419D01*
X80452Y-54419D01*
X80159Y-54540D01*
X79934Y-54764D01*
X79813Y-55057D01*
X79812Y-55374D01*
X79933Y-55667D01*
X80158Y-55892D01*
X80450Y-56013D01*
X80768Y-56013D01*
X81061Y-55892D01*
X81285Y-55668D01*
X81407Y-55375D01*
X81407Y-55058D01*
X81407Y-60757D01*
X80109Y-60757D01*
X80082Y-60784D01*
X80082Y-62962D01*
X81512Y-62962D01*
X81539Y-62935D01*
X81539Y-60844D01*
X81539Y-65139D01*
X81539Y-63048D01*
X81512Y-63021D01*
X80082Y-63021D01*
X80082Y-65199D01*
X80109Y-65226D01*
X81409Y-65226D01*
X81452Y-65226D01*
X81492Y-65209D01*
X81522Y-65179D01*
X81539Y-65139D01*
X81539Y-74379D01*
X81407Y-74379D01*
X81407Y-70609D01*
X81286Y-70316D01*
X81062Y-70092D01*
X80769Y-69970D01*
X80452Y-69970D01*
X80159Y-70091D01*
X80023Y-70226D01*
X80023Y-65199D01*
X80023Y-63021D01*
X80023Y-62962D01*
X80023Y-60784D01*
X79996Y-60757D01*
X78696Y-60757D01*
X78653Y-60757D01*
X78613Y-60774D01*
X78583Y-60804D01*
X78566Y-60844D01*
X78566Y-62935D01*
X78593Y-62962D01*
X80023Y-62962D01*
X80023Y-63021D01*
X78593Y-63021D01*
X78566Y-63048D01*
X78566Y-65139D01*
X78583Y-65179D01*
X78613Y-65209D01*
X78653Y-65226D01*
X78696Y-65226D01*
X79996Y-65226D01*
X80023Y-65199D01*
X80023Y-70226D01*
X79934Y-70315D01*
X79813Y-70608D01*
X79812Y-70925D01*
X79933Y-71218D01*
X80158Y-71443D01*
X80450Y-71564D01*
X80768Y-71565D01*
X81061Y-71443D01*
X81285Y-71219D01*
X81407Y-70926D01*
X81407Y-70609D01*
X81407Y-74379D01*
X78375Y-74379D01*
X78375Y-51604D01*
X83041Y-51604D01*
X83041Y-74379D01*
M02*
