M48
INCH,TZ
T10C0.016
T11C0.030
T12C0.043
T13C0.070
T14C0.126
T15C0.138
%
T10
X045669Y-68898
X046850Y-68110
X048425Y-68110
X049016Y-53740
X050000Y-64567
X050787Y-65551
X051575Y-64567
X056299Y-53740
X068110Y-64567
X068898Y-65551
X069390Y-73524
X069685Y-64567
X070472Y-52756
X070472Y-55315
X070472Y-59055
X070768Y-68996
X071654Y-53937
X071752Y-68996
X072441Y-66142
X073031Y-65157
X073031Y-67126
X074016Y-60236
X074409Y-54331
X074409Y-61024
X074606Y-70472
X075197Y-53346
X075197Y-62992
X075984Y-54331
X076575Y-62992
X079134Y-60433
X079134Y-65551
X080118Y-60433
X080118Y-65551
X081102Y-60433
X081102Y-65551
X081890Y-61024
X081890Y-62008
X081890Y-62992
X081890Y-63976
X081890Y-64961
T11
X054549Y-69154
X055049Y-68154
X055549Y-69154
X056049Y-68154
X056549Y-69154
X057049Y-68154
X057549Y-69154
X058049Y-68154
T12
X050287Y-73425
X051287Y-73425
X057768Y-52559
X058768Y-52559
X061311Y-73425
X061705Y-52559
X062311Y-73425
X062705Y-52559
X070760Y-73425
X071760Y-73425
T13
X052756Y-52339
T14
X054049Y-71654
X058549Y-71654
T15
X047343Y-55217
X047343Y-70768
X080610Y-55217
X080610Y-70768
M30

