M48
INCH,TZ
T1C0.016
T2C0.030
T3C0.043
%
G90
G05
T1
X045669Y-068898
X046850Y-068110
X048425Y-068110
X049016Y-053740
X050000Y-064567
X050787Y-065551
X051575Y-064567
X056299Y-053740
X068110Y-064567
X068898Y-065551
X069390Y-073524
X069685Y-064567
X070472Y-052756
X070472Y-055315
X070472Y-059055
X070768Y-068996
X071654Y-053937
X071752Y-068996
X072441Y-066142
X073031Y-065157
X073031Y-067126
X074016Y-060236
X074409Y-054331
X074409Y-061024
X074606Y-070472
X075197Y-053346
X075197Y-062992
X075984Y-054331
X076575Y-062992
X079134Y-060433
X079134Y-065551
X080118Y-060433
X080118Y-065551
X081102Y-060433
X081102Y-065551
X081890Y-061024
X081890Y-062008
X081890Y-062992
X081890Y-063976
X081890Y-064961
T2
X054549Y-069154
X055049Y-068154
X055549Y-069154
X056049Y-068154
X056549Y-069154
X057049Y-068154
X057549Y-069154
X058049Y-068154
T3
X050287Y-073425
X051287Y-073425
X057768Y-052559
X058768Y-052559
X061311Y-073425
X061705Y-052559
X062311Y-073425
X062705Y-052559
X070760Y-073425
X071760Y-073425
T0
M30
