<?xml version="1.0" encoding="UTF-8"?>
<!-- Generator: Adobe Illustrator 15.0.2, SVG Export Plug-In . SVG Version: 6.00 Build 0)  -->
<!DOCTYPE svg PUBLIC "-//W3C//DTD SVG 1.1//EN" "http://www.w3.org/Graphics/SVG/1.1/DTD/svg11.dtd">
<svg xmlns="http://www.w3.org/2000/svg" xmlns:xlink="http://www.w3.org/1999/xlink" version="1.1" id="Layer_1" x="0px" y="0px" width="512px" height="512px" viewBox="0 0 512 512" enable-background="new 0 0 512 512" xml:space="preserve">
<g>
	<path d="M510.571,11.304c-1.857-4.464-5.41-8.054-9.875-9.875C498.464,0.473,496.089,0,493.714,0H347.429   c-10.09,0-18.286,8.196-18.286,18.286c0,10.089,8.196,18.285,18.286,18.285h102.143l-151.66,151.625   c-7.125,7.134-7.125,18.724,0,25.857s18.731,7.134,25.856,0L475.429,62.429v102.143c0,10.09,8.196,18.286,18.285,18.286   c10.09,0,18.286-8.196,18.286-18.286V18.286l0,0C512,15.911,511.536,13.536,510.571,11.304z M18.286,329.143   C8.196,329.143,0,337.339,0,347.429v146.285c0,0.036,0,0.036,0,0.072c0,2.375,0.473,4.714,1.393,6.91   c0.875,2.161,2.188,4.09,3.803,5.732c0.072,0.089,0.072,0.16,0.143,0.232c0.036,0.035,0.107,0.035,0.143,0.106   c1.652,1.607,3.625,2.965,5.786,3.84c2.268,0.929,4.643,1.393,7.018,1.393h146.285c10.09,0,18.286-8.196,18.286-18.286   c0-10.089-8.196-18.285-18.286-18.285H62.429l151.625-151.625c7.134-7.125,7.134-18.732,0-25.857s-18.724-7.125-25.857,0   L36.571,449.571V347.429C36.571,337.339,28.375,329.143,18.286,329.143z" fill="#FFFFFF"/>
</g>
</svg>
