<?xml version="1.0" encoding="UTF-8"?>
<!-- Generator: Adobe Illustrator 15.0.2, SVG Export Plug-In . SVG Version: 6.00 Build 0)  -->
<!DOCTYPE svg PUBLIC "-//W3C//DTD SVG 1.1//EN" "http://www.w3.org/Graphics/SVG/1.1/DTD/svg11.dtd">
<svg xmlns="http://www.w3.org/2000/svg" xmlns:xlink="http://www.w3.org/1999/xlink" version="1.1" id="Layer_1" x="0px" y="0px" width="512px" height="251.059px" viewBox="0 0 512 251.059" enable-background="new 0 0 512 251.059" xml:space="preserve">
<g>
	<path d="M88.93,246.359c6.242-6.25,6.242-16.391,0-22.625l-34.367-34.375H336c8.828,0,16-7.172,16-16s-7.172-16-16-16H54.562   l36.703-36.703c6.242-6.25,6.242-16.391,0-22.625c-6.242-6.25-16.383-6.25-22.625,0L4.672,162C1.539,165.141,0,169.234,0,173.359   s1.539,8.219,4.672,11.359l61.633,61.641C72.578,252.625,82.688,252.625,88.93,246.359z M507.328,66.312L445.688,4.688   c-6.234-6.25-16.375-6.25-22.625,0c-6.234,6.234-6.234,16.375,0,22.625l34.375,34.359H176c-8.828,0-16,7.172-16,16   c0,8.844,7.172,16,16,16h281.438l-36.703,36.703c-6.234,6.25-6.234,16.391,0,22.641c6.234,6.234,16.391,6.234,22.625,0   l63.969-63.984c3.141-3.125,4.672-7.234,4.672-11.359S510.469,69.453,507.328,66.312z" fill="#FFFFFF"/>
</g>
</svg>
