<?xml version="1.0" encoding="UTF-8"?>
<!-- Generator: Adobe Illustrator 15.0.2, SVG Export Plug-In . SVG Version: 6.00 Build 0)  -->
<!DOCTYPE svg PUBLIC "-//W3C//DTD SVG 1.1//EN" "http://www.w3.org/Graphics/SVG/1.1/DTD/svg11.dtd">
<svg xmlns="http://www.w3.org/2000/svg" xmlns:xlink="http://www.w3.org/1999/xlink" version="1.1" id="Layer_1" x="0px" y="0px" width="512px" height="512.02px" viewBox="0 0 512 512.02" enable-background="new 0 0 512 512.02" xml:space="preserve">
<g>
	<path d="M506.674,5.357c-7.143-7.143-18.749-7.143-25.856,0L329.14,157.018V54.875c0-10.09-8.179-18.286-18.286-18.286   c-10.08,0-18.276,8.196-18.276,18.286V201.16c0,0.035,0,0.035,0,0.071c0,2.339,0.5,4.679,1.429,6.91   c0.875,2.161,2.196,4.09,3.804,5.732c0.035,0.089,0.071,0.161,0.106,0.232c0.071,0.035,0.107,0.035,0.144,0.071   c1.66,1.607,3.624,2.964,5.794,3.839c2.25,0.946,4.643,1.429,7,1.429h146.285c10.107,0,18.286-8.196,18.286-18.285   c0-10.09-8.179-18.286-18.286-18.286H354.996L506.639,31.25C513.781,24.071,513.781,12.518,506.674,5.357z M5.346,506.677   c7.134,7.124,18.723,7.124,25.857,0l151.66-151.66v102.142c0,10.09,8.196,18.286,18.285,18.286c10.09,0,18.286-8.196,18.286-18.286   V310.874l0,0c0-2.375-0.474-4.75-1.429-6.982c-1.866-4.464-5.411-8.054-9.875-9.875c-2.232-0.964-4.607-1.429-6.982-1.429H54.863   c-10.089,0-18.285,8.196-18.285,18.286c0,10.089,8.196,18.285,18.285,18.285h102.143L5.382,480.783   C-1.788,487.944-1.788,499.516,5.346,506.677z" fill="#FFFFFF"/>
</g>
</svg>
