<?xml version="1.0" encoding="UTF-8"?>
<!-- Generator: Adobe Illustrator 15.0.2, SVG Export Plug-In . SVG Version: 6.00 Build 0)  -->
<!DOCTYPE svg PUBLIC "-//W3C//DTD SVG 1.1//EN" "http://www.w3.org/Graphics/SVG/1.1/DTD/svg11.dtd">
<svg xmlns="http://www.w3.org/2000/svg" xmlns:xlink="http://www.w3.org/1999/xlink" version="1.1" id="Layer_1" x="0px" y="0px" width="512.001px" height="511.991px" viewBox="0 0 512.001 511.991" enable-background="new 0 0 512.001 511.991" xml:space="preserve">
<g>
	<path d="M303.993,0C189.098,0,95.977,93.122,95.977,208.008c0,49.44,17.312,94.762,46.11,130.467L6.504,474.059   c-8.672,8.688-8.672,22.751,0,31.438c8.672,8.657,22.751,8.657,31.423,0l135.592-135.6c35.712,28.814,81.026,46.127,130.474,46.127   c114.88,0,208.009-93.129,208.009-208.017C512.001,93.122,418.873,0,303.993,0z M303.993,384.024   c-97.066,0-176.015-78.956-176.015-176.016c0-97.059,78.948-176.007,176.015-176.007C401.044,32.001,480,110.95,480,208.008   C480,305.068,401.044,384.024,303.993,384.024z M399.998,192.008h-80.004v-80.004c0-8.828-7.188-16-16.001-16   c-8.844,0-16,7.172-16,16v80.004h-80.012c-8.828,0-16,7.172-16,16c0,8.829,7.172,16.001,16,16.001h80.012v80.012   c0,8.812,7.156,16,16,16c8.813,0,16.001-7.188,16.001-16v-80.012h80.004c8.812,0,16-7.172,16-16.001   C415.998,199.18,408.81,192.008,399.998,192.008z" fill="#FFFFFF"/>
</g>
</svg>
