<?xml version="1.0" encoding="UTF-8"?>
<!-- Generator: Adobe Illustrator 15.0.2, SVG Export Plug-In . SVG Version: 6.00 Build 0)  -->
<!DOCTYPE svg PUBLIC "-//W3C//DTD SVG 1.1//EN" "http://www.w3.org/Graphics/SVG/1.1/DTD/svg11.dtd">
<svg xmlns="http://www.w3.org/2000/svg" xmlns:xlink="http://www.w3.org/1999/xlink" version="1.1" id="Layer_1" x="0px" y="0px" width="512px" height="384px" viewBox="0 0 512 384" enable-background="new 0 0 512 384" xml:space="preserve">
<g>
	<path d="M149.333,213.333h341.334c11.771,0,21.333-9.562,21.333-21.333s-9.562-21.333-21.333-21.333H149.333   C137.562,170.667,128,180.229,128,192S137.562,213.333,149.333,213.333z M149.333,42.667h341.334   c11.771,0,21.333-9.562,21.333-21.334C512,9.562,502.438,0,490.667,0H149.333C137.562,0,128,9.562,128,21.333   C128,33.104,137.562,42.667,149.333,42.667z M149.333,384h341.334c11.771,0,21.333-9.562,21.333-21.333   c0-11.771-9.562-21.334-21.333-21.334H149.333c-11.771,0-21.333,9.562-21.333,21.334C128,374.438,137.562,384,149.333,384z    M0,21.333c0,11.781,9.552,21.334,21.333,21.334c11.781,0,21.334-9.553,21.334-21.334C42.667,9.552,33.114,0,21.333,0   C9.552,0,0,9.552,0,21.333z M0,192c0,11.781,9.552,21.333,21.333,21.333c11.781,0,21.334-9.552,21.334-21.333   s-9.553-21.333-21.334-21.333C9.552,170.667,0,180.219,0,192z M0,362.667C0,374.458,9.552,384,21.333,384   c11.781,0,21.334-9.542,21.334-21.333c0-11.792-9.553-21.334-21.334-21.334C9.552,341.333,0,350.875,0,362.667z" fill="#FFFFFF"/>
</g>
</svg>
