<?xml version="1.0" encoding="UTF-8"?>
<!-- Generator: Adobe Illustrator 15.0.2, SVG Export Plug-In . SVG Version: 6.00 Build 0)  -->
<!DOCTYPE svg PUBLIC "-//W3C//DTD SVG 1.1//EN" "http://www.w3.org/Graphics/SVG/1.1/DTD/svg11.dtd">
<svg xmlns="http://www.w3.org/2000/svg" xmlns:xlink="http://www.w3.org/1999/xlink" version="1.1" id="Layer_1" x="0px" y="0px" width="512px" height="512px" viewBox="0 0 512 512" enable-background="new 0 0 512 512" xml:space="preserve">
<g>
	<path d="M256,0C114.616,0,0,114.616,0,256s114.616,256,256,256s256-114.616,256-256S397.384,0,256,0z M256,477.867   c-122.333,0-221.866-99.534-221.866-221.867S133.667,34.134,256,34.134S477.867,133.667,477.867,256S378.333,477.867,256,477.867z    M350.483,137.384l-93.833,93.833l-84.142-93.833c-6.659-6.65-17.476-6.65-24.134,0c-6.65,6.658-6.65,17.482,0,24.133   l84.175,93.833l-95.133,95.134c-6.65,6.65-6.65,17.483,0,24.134c6.658,6.649,17.483,6.649,24.133,0l93.834-93.834l84.183,93.834   c6.65,6.649,17.467,6.649,24.134,0c6.649-6.65,6.649-17.483,0-24.134l-84.217-93.833l95.134-95.134   c6.649-6.65,6.649-17.475,0-24.133C367.967,130.733,357.134,130.733,350.483,137.384z" fill="#000000"/>
</g>
</svg>
