G04 (created by PCBNEW (2013-mar-25)-stable) date Thursday, May 07, 2015 03:34:48 PM*
%MOIN*%
G04 Gerber Fmt 3.4, Leading zero omitted, Abs format*
%FSLAX34Y34*%
G01*
G70*
G90*
G04 APERTURE LIST*
%ADD10C,0.006*%
%ADD11C,0.00984252*%
%ADD12C,0.000393701*%
G04 APERTURE END LIST*
G54D10*
G54D11*
X30455Y-46273D02*
X30905Y-46273D01*
X30680Y-46498D02*
X30680Y-46048D01*
X31130Y-45908D02*
X31496Y-45908D01*
X31299Y-46133D01*
X31383Y-46133D01*
X31439Y-46161D01*
X31467Y-46189D01*
X31496Y-46245D01*
X31496Y-46386D01*
X31467Y-46442D01*
X31439Y-46470D01*
X31383Y-46498D01*
X31214Y-46498D01*
X31158Y-46470D01*
X31130Y-46442D01*
X31749Y-46442D02*
X31777Y-46470D01*
X31749Y-46498D01*
X31721Y-46470D01*
X31749Y-46442D01*
X31749Y-46498D01*
X31974Y-45908D02*
X32339Y-45908D01*
X32142Y-46133D01*
X32227Y-46133D01*
X32283Y-46161D01*
X32311Y-46189D01*
X32339Y-46245D01*
X32339Y-46386D01*
X32311Y-46442D01*
X32283Y-46470D01*
X32227Y-46498D01*
X32058Y-46498D01*
X32002Y-46470D01*
X31974Y-46442D01*
X32508Y-45908D02*
X32705Y-46498D01*
X32902Y-45908D01*
X30764Y-40030D02*
X30708Y-40002D01*
X30624Y-40002D01*
X30539Y-40030D01*
X30483Y-40087D01*
X30455Y-40143D01*
X30427Y-40255D01*
X30427Y-40340D01*
X30455Y-40452D01*
X30483Y-40508D01*
X30539Y-40565D01*
X30624Y-40593D01*
X30680Y-40593D01*
X30764Y-40565D01*
X30793Y-40537D01*
X30793Y-40340D01*
X30680Y-40340D01*
X31046Y-40593D02*
X31046Y-40002D01*
X31271Y-40002D01*
X31327Y-40030D01*
X31355Y-40059D01*
X31383Y-40115D01*
X31383Y-40199D01*
X31355Y-40255D01*
X31327Y-40284D01*
X31271Y-40312D01*
X31046Y-40312D01*
X31608Y-40565D02*
X31692Y-40593D01*
X31833Y-40593D01*
X31889Y-40565D01*
X31917Y-40537D01*
X31946Y-40480D01*
X31946Y-40424D01*
X31917Y-40368D01*
X31889Y-40340D01*
X31833Y-40312D01*
X31721Y-40284D01*
X31664Y-40255D01*
X31636Y-40227D01*
X31608Y-40171D01*
X31608Y-40115D01*
X31636Y-40059D01*
X31664Y-40030D01*
X31721Y-40002D01*
X31861Y-40002D01*
X31946Y-40030D01*
X32620Y-40424D02*
X32902Y-40424D01*
X32564Y-40593D02*
X32761Y-40002D01*
X32958Y-40593D01*
X33155Y-40593D02*
X33155Y-40002D01*
X33492Y-40593D01*
X33492Y-40002D01*
X33689Y-40002D02*
X34026Y-40002D01*
X33858Y-40593D02*
X33858Y-40002D01*
X31158Y-36290D02*
X31102Y-36262D01*
X31017Y-36262D01*
X30933Y-36290D01*
X30877Y-36347D01*
X30849Y-36403D01*
X30821Y-36515D01*
X30821Y-36600D01*
X30849Y-36712D01*
X30877Y-36768D01*
X30933Y-36825D01*
X31017Y-36853D01*
X31074Y-36853D01*
X31158Y-36825D01*
X31186Y-36796D01*
X31186Y-36600D01*
X31074Y-36600D01*
X31439Y-36853D02*
X31439Y-36262D01*
X31777Y-36853D01*
X31777Y-36262D01*
X32058Y-36853D02*
X32058Y-36262D01*
X32199Y-36262D01*
X32283Y-36290D01*
X32339Y-36347D01*
X32367Y-36403D01*
X32395Y-36515D01*
X32395Y-36600D01*
X32367Y-36712D01*
X32339Y-36768D01*
X32283Y-36825D01*
X32199Y-36853D01*
X32058Y-36853D01*
X30793Y-31341D02*
X30596Y-31060D01*
X30455Y-31341D02*
X30455Y-30750D01*
X30680Y-30750D01*
X30736Y-30778D01*
X30764Y-30807D01*
X30793Y-30863D01*
X30793Y-30947D01*
X30764Y-31003D01*
X30736Y-31032D01*
X30680Y-31060D01*
X30455Y-31060D01*
X31242Y-31032D02*
X31046Y-31032D01*
X31046Y-31341D02*
X31046Y-30750D01*
X31327Y-30750D01*
X31974Y-31172D02*
X32255Y-31172D01*
X31917Y-31341D02*
X32114Y-30750D01*
X32311Y-31341D01*
X32508Y-31341D02*
X32508Y-30750D01*
X32845Y-31341D01*
X32845Y-30750D01*
X33042Y-30750D02*
X33380Y-30750D01*
X33211Y-31341D02*
X33211Y-30750D01*
X48012Y-26143D02*
X47787Y-26143D01*
X47900Y-26143D02*
X47900Y-25749D01*
X47862Y-25806D01*
X47825Y-25843D01*
X47787Y-25862D01*
X48256Y-25749D02*
X48293Y-25749D01*
X48331Y-25768D01*
X48350Y-25787D01*
X48368Y-25824D01*
X48387Y-25899D01*
X48387Y-25993D01*
X48368Y-26068D01*
X48350Y-26106D01*
X48331Y-26124D01*
X48293Y-26143D01*
X48256Y-26143D01*
X48218Y-26124D01*
X48200Y-26106D01*
X48181Y-26068D01*
X48162Y-25993D01*
X48162Y-25899D01*
X48181Y-25824D01*
X48200Y-25787D01*
X48218Y-25768D01*
X48256Y-25749D01*
X48631Y-25749D02*
X48668Y-25749D01*
X48706Y-25768D01*
X48725Y-25787D01*
X48743Y-25824D01*
X48762Y-25899D01*
X48762Y-25993D01*
X48743Y-26068D01*
X48725Y-26106D01*
X48706Y-26124D01*
X48668Y-26143D01*
X48631Y-26143D01*
X48593Y-26124D01*
X48575Y-26106D01*
X48556Y-26068D01*
X48537Y-25993D01*
X48537Y-25899D01*
X48556Y-25824D01*
X48575Y-25787D01*
X48593Y-25768D01*
X48631Y-25749D01*
X48931Y-26106D02*
X48950Y-26124D01*
X48931Y-26143D01*
X48912Y-26124D01*
X48931Y-26106D01*
X48931Y-26143D01*
X49193Y-25749D02*
X49231Y-25749D01*
X49268Y-25768D01*
X49287Y-25787D01*
X49306Y-25824D01*
X49325Y-25899D01*
X49325Y-25993D01*
X49306Y-26068D01*
X49287Y-26106D01*
X49268Y-26124D01*
X49231Y-26143D01*
X49193Y-26143D01*
X49156Y-26124D01*
X49137Y-26106D01*
X49118Y-26068D01*
X49100Y-25993D01*
X49100Y-25899D01*
X49118Y-25824D01*
X49137Y-25787D01*
X49156Y-25768D01*
X49193Y-25749D01*
X49568Y-25749D02*
X49606Y-25749D01*
X49643Y-25768D01*
X49662Y-25787D01*
X49681Y-25824D01*
X49700Y-25899D01*
X49700Y-25993D01*
X49681Y-26068D01*
X49662Y-26106D01*
X49643Y-26124D01*
X49606Y-26143D01*
X49568Y-26143D01*
X49531Y-26124D01*
X49512Y-26106D01*
X49493Y-26068D01*
X49475Y-25993D01*
X49475Y-25899D01*
X49493Y-25824D01*
X49512Y-25787D01*
X49531Y-25768D01*
X49568Y-25749D01*
X49943Y-25749D02*
X49981Y-25749D01*
X50018Y-25768D01*
X50037Y-25787D01*
X50056Y-25824D01*
X50074Y-25899D01*
X50074Y-25993D01*
X50056Y-26068D01*
X50037Y-26106D01*
X50018Y-26124D01*
X49981Y-26143D01*
X49943Y-26143D01*
X49906Y-26124D01*
X49887Y-26106D01*
X49868Y-26068D01*
X49850Y-25993D01*
X49850Y-25899D01*
X49868Y-25824D01*
X49887Y-25787D01*
X49906Y-25768D01*
X49943Y-25749D01*
X50543Y-26143D02*
X50543Y-25881D01*
X50543Y-25918D02*
X50562Y-25899D01*
X50599Y-25881D01*
X50656Y-25881D01*
X50693Y-25899D01*
X50712Y-25937D01*
X50712Y-26143D01*
X50712Y-25937D02*
X50731Y-25899D01*
X50768Y-25881D01*
X50824Y-25881D01*
X50862Y-25899D01*
X50881Y-25937D01*
X50881Y-26143D01*
X51068Y-26143D02*
X51068Y-25881D01*
X51068Y-25918D02*
X51087Y-25899D01*
X51124Y-25881D01*
X51181Y-25881D01*
X51218Y-25899D01*
X51237Y-25937D01*
X51237Y-26143D01*
X51237Y-25937D02*
X51256Y-25899D01*
X51293Y-25881D01*
X51349Y-25881D01*
X51387Y-25899D01*
X51406Y-25937D01*
X51406Y-26143D01*
X29921Y-26771D02*
X69291Y-26771D01*
X29921Y-25984D02*
X29921Y-27559D01*
X69291Y-25984D02*
X69291Y-27559D01*
X69291Y-26771D02*
X68847Y-27002D01*
X69291Y-26771D02*
X68847Y-26540D01*
X29921Y-26771D02*
X30364Y-27002D01*
X29921Y-26771D02*
X30364Y-26540D01*
X43651Y-42549D02*
G75*
G03X43651Y-42549I-49J0D01*
G74*
G01*
X38828Y-45669D02*
G75*
G03X38828Y-45669I-49J0D01*
G74*
G01*
X48179Y-39566D02*
G75*
G03X48179Y-39566I-49J0D01*
G74*
G01*
X49753Y-32381D02*
G75*
G03X49753Y-32381I-49J0D01*
G74*
G01*
X57627Y-40846D02*
G75*
G03X57627Y-40846I-49J0D01*
G74*
G01*
X73179Y-31200D02*
G75*
G03X73179Y-31200I-49J0D01*
G74*
G01*
X38533Y-42519D02*
G75*
G03X38533Y-42519I-49J0D01*
G74*
G01*
X43848Y-33562D02*
G75*
G03X43848Y-33562I-49J0D01*
G74*
G01*
G54D12*
X29921Y-28543D02*
X29921Y-50196D01*
X29921Y-50196D02*
X73818Y-50196D01*
X73818Y-50196D02*
X73818Y-43897D01*
X73818Y-43897D02*
X68110Y-43897D01*
X68110Y-36811D02*
X68110Y-43897D01*
X75984Y-36811D02*
X75984Y-31102D01*
X75984Y-36811D02*
X68110Y-36811D01*
X29921Y-28543D02*
X73425Y-28543D01*
X75984Y-31102D02*
G75*
G03X73425Y-28543I-2559J0D01*
G74*
G01*
G54D11*
X71112Y-46751D02*
G75*
G03X71112Y-46751I-49J0D01*
G74*
G01*
X70275Y-35433D02*
X71062Y-35433D01*
M02*
