G04 (created by PCBNEW (2013-mar-25)-stable) date Friday, July 17, 2015 01:34:24 PM*
%MOIN*%
G04 Gerber Fmt 3.4, Leading zero omitted, Abs format*
%FSLAX34Y34*%
G01*
G70*
G90*
G04 APERTURE LIST*
%ADD10C,0.006*%
%ADD11C,0.00590551*%
%ADD12C,0.015748*%
%ADD13C,0.0669291*%
%ADD14C,0.023622*%
%ADD15C,0.0492126*%
%ADD16R,0.0649606X0.0649606*%
%ADD17C,0.0649606*%
%ADD18C,0.0314961*%
%ADD19C,0.00393701*%
G04 APERTURE END LIST*
G54D10*
G54D11*
X72712Y-49700D02*
X72712Y-49962D01*
X72619Y-49550D02*
X72525Y-49831D01*
X72769Y-49831D01*
G54D12*
X50787Y-33464D03*
X50393Y-33464D03*
X51181Y-33464D03*
X51181Y-33070D03*
X50787Y-33070D03*
X50393Y-33070D03*
X50393Y-33858D03*
X50787Y-33858D03*
X51181Y-33858D03*
X72440Y-31889D03*
X72677Y-31889D03*
X72204Y-31889D03*
X39173Y-43208D03*
X39566Y-43208D03*
X39173Y-43602D03*
X39566Y-43602D03*
X44488Y-32726D03*
X44488Y-33021D03*
G54D13*
X68305Y-48370D03*
X68305Y-49370D03*
X67305Y-48370D03*
X67305Y-49370D03*
X66305Y-48370D03*
X66305Y-49370D03*
X65305Y-48370D03*
X65305Y-49370D03*
X64305Y-48370D03*
X64305Y-49370D03*
X63305Y-48370D03*
X63305Y-49370D03*
X62305Y-48370D03*
X62305Y-49370D03*
X61305Y-48370D03*
X61305Y-49370D03*
X60305Y-48370D03*
X60305Y-49370D03*
X59305Y-48370D03*
X59305Y-49370D03*
X58305Y-48370D03*
X58305Y-49370D03*
X57305Y-48370D03*
X57305Y-49370D03*
X56305Y-48370D03*
X56305Y-49370D03*
X68305Y-29370D03*
X68305Y-30370D03*
X67305Y-29370D03*
X67305Y-30370D03*
X66305Y-29370D03*
X66305Y-30370D03*
X65305Y-29370D03*
X65305Y-30370D03*
X64305Y-29370D03*
X64305Y-30370D03*
X63305Y-29370D03*
X63305Y-30370D03*
X62305Y-29370D03*
X62305Y-30370D03*
X61305Y-29370D03*
X61305Y-30370D03*
X60305Y-29370D03*
X60305Y-30370D03*
X59305Y-29370D03*
X59305Y-30370D03*
X58305Y-29370D03*
X58305Y-30370D03*
X57305Y-29370D03*
X57305Y-30370D03*
X56305Y-29370D03*
X56305Y-30370D03*
G54D14*
X60236Y-35826D03*
G54D15*
X64862Y-44488D03*
X66043Y-43307D03*
G54D16*
X32677Y-37885D03*
G54D17*
X32677Y-38885D03*
G54D15*
X55118Y-42125D03*
X54527Y-42716D03*
X53937Y-43307D03*
G54D14*
X51673Y-31299D03*
G54D12*
X30889Y-44687D03*
X30889Y-44982D03*
X30889Y-45277D03*
X31185Y-44687D03*
X31185Y-44982D03*
X31185Y-45277D03*
X31480Y-44687D03*
X31480Y-44982D03*
X31480Y-45277D03*
X30889Y-41927D03*
X30889Y-41631D03*
X30889Y-41336D03*
X31185Y-41927D03*
X31185Y-41631D03*
X31185Y-41336D03*
X31480Y-41927D03*
X31480Y-41631D03*
X31480Y-41336D03*
X30889Y-35041D03*
X30889Y-35336D03*
X30889Y-35631D03*
X31185Y-35041D03*
X31185Y-35336D03*
X31185Y-35631D03*
X31480Y-35041D03*
X31480Y-35336D03*
X31480Y-35631D03*
X30889Y-32281D03*
X30889Y-31986D03*
X30889Y-31690D03*
X31185Y-32281D03*
X31185Y-31986D03*
X31185Y-31690D03*
X31480Y-32281D03*
X31480Y-31986D03*
X31480Y-31690D03*
G54D18*
X47834Y-31299D03*
X44586Y-31397D03*
X44094Y-34153D03*
X45275Y-34153D03*
G54D14*
X50196Y-31692D03*
G54D18*
X44881Y-34153D03*
G54D14*
X67421Y-45767D03*
X56003Y-32086D03*
X59251Y-32086D03*
X67814Y-45472D03*
X61811Y-36614D03*
X61417Y-35039D03*
X62204Y-35433D03*
X64173Y-38188D03*
X63385Y-38976D03*
G54D18*
X75196Y-35826D03*
G54D14*
X61811Y-37007D03*
X70078Y-31496D03*
G54D18*
X67125Y-34940D03*
X68307Y-34940D03*
X67716Y-35433D03*
G54D14*
X57874Y-36614D03*
X64960Y-35334D03*
X60629Y-37007D03*
X59842Y-38188D03*
X60629Y-38188D03*
G54D18*
X74803Y-35826D03*
X75196Y-36220D03*
X74803Y-36220D03*
X74409Y-35826D03*
X74409Y-36220D03*
G54D14*
X61417Y-38188D03*
X62204Y-37795D03*
X59842Y-36220D03*
X59448Y-36614D03*
X59842Y-37007D03*
G54D18*
X66141Y-37598D03*
X67027Y-37696D03*
X67716Y-37401D03*
G54D14*
X60629Y-36614D03*
X60629Y-37795D03*
X62204Y-36614D03*
G54D18*
X65255Y-37401D03*
X64763Y-37795D03*
G54D14*
X61417Y-36614D03*
X60236Y-37795D03*
G54D18*
X68405Y-32283D03*
X69783Y-32283D03*
X69094Y-31791D03*
G54D14*
X58661Y-37007D03*
X58661Y-35826D03*
X59842Y-39370D03*
X63779Y-35433D03*
X63779Y-39370D03*
X58661Y-39763D03*
X72736Y-46358D03*
X71456Y-45767D03*
X68700Y-46555D03*
X67421Y-44389D03*
X57381Y-37401D03*
X57381Y-39173D03*
X59842Y-41043D03*
X64074Y-41043D03*
X64960Y-35925D03*
X64173Y-33759D03*
X60629Y-33759D03*
X57381Y-34251D03*
X57874Y-34251D03*
X60629Y-34645D03*
X62204Y-34251D03*
X59842Y-35039D03*
X59055Y-37795D03*
X59842Y-40551D03*
X64173Y-40551D03*
X62598Y-39763D03*
X61417Y-39763D03*
X63385Y-38188D03*
X62204Y-35039D03*
X62598Y-35433D03*
X61417Y-35826D03*
X64173Y-36220D03*
X62598Y-36220D03*
X62598Y-36614D03*
X62992Y-36614D03*
X62598Y-37007D03*
X57874Y-38582D03*
X62204Y-38582D03*
X59448Y-38188D03*
G54D18*
X48818Y-31299D03*
X52755Y-33070D03*
X49409Y-32381D03*
X48818Y-34153D03*
X52066Y-38582D03*
X52066Y-37007D03*
X47834Y-36318D03*
X48622Y-36318D03*
X51574Y-30314D03*
G54D14*
X48031Y-44881D03*
X44783Y-43897D03*
X39468Y-44488D03*
X38188Y-43897D03*
G54D18*
X40551Y-43897D03*
G54D14*
X40551Y-42913D03*
X38877Y-42322D03*
X39271Y-42322D03*
G54D18*
X66732Y-30826D03*
X67125Y-31299D03*
X65984Y-31299D03*
X64763Y-30807D03*
X65551Y-31299D03*
X64370Y-31299D03*
G54D14*
X54035Y-29330D03*
G54D18*
X54330Y-30708D03*
X55118Y-30708D03*
G54D14*
X54724Y-31003D03*
G54D18*
X50787Y-45275D03*
X51574Y-45275D03*
G54D14*
X51181Y-45570D03*
G54D18*
X67125Y-32086D03*
X66535Y-32578D03*
X64370Y-32086D03*
X64960Y-32578D03*
X65944Y-32086D03*
X65551Y-32086D03*
G54D14*
X66929Y-38681D03*
G54D18*
X50787Y-44094D03*
X73523Y-33366D03*
X73523Y-33759D03*
X73129Y-33366D03*
X73523Y-32972D03*
X73129Y-33759D03*
X73129Y-32972D03*
X65354Y-38681D03*
X64763Y-39271D03*
X65354Y-39271D03*
X64763Y-38681D03*
G54D14*
X72539Y-30019D03*
X60629Y-40551D03*
X60728Y-45964D03*
X67027Y-46062D03*
X41141Y-41633D03*
X41141Y-42421D03*
G54D18*
X47047Y-35236D03*
X44881Y-37696D03*
X42519Y-37696D03*
X40157Y-37696D03*
X37795Y-37696D03*
X44881Y-30413D03*
X42519Y-30413D03*
X40157Y-30413D03*
X37795Y-30413D03*
X35531Y-32874D03*
X53248Y-33464D03*
X49606Y-34448D03*
X47834Y-35925D03*
X48622Y-35925D03*
X52460Y-39271D03*
X52460Y-37696D03*
X53740Y-39370D03*
X53740Y-37795D03*
X51377Y-37401D03*
X51377Y-36417D03*
X53149Y-29921D03*
X53149Y-30314D03*
X53149Y-29527D03*
X49606Y-44488D03*
X49606Y-44881D03*
X49606Y-44094D03*
X71850Y-29527D03*
X48228Y-29527D03*
X44291Y-29527D03*
X40354Y-29527D03*
X36417Y-29527D03*
X38385Y-29527D03*
X42322Y-29527D03*
X46259Y-29527D03*
X50196Y-29527D03*
X34448Y-29527D03*
X36417Y-29527D03*
X73326Y-46751D03*
X71358Y-48720D03*
X70374Y-47244D03*
X72834Y-44783D03*
X70866Y-44783D03*
X68897Y-44783D03*
X72834Y-48720D03*
X66929Y-47244D03*
X54133Y-49212D03*
X50196Y-49212D03*
X44291Y-49212D03*
X40354Y-49212D03*
X38385Y-49212D03*
X36417Y-49212D03*
X33464Y-47244D03*
X31496Y-47244D03*
X34448Y-49212D03*
X42322Y-49212D03*
X46259Y-49212D03*
X48228Y-49212D03*
X52165Y-49212D03*
X56102Y-47244D03*
G54D14*
X61417Y-37007D03*
G54D18*
X36122Y-43700D03*
X36909Y-43700D03*
X36122Y-42913D03*
X36909Y-42913D03*
G54D14*
X39074Y-44488D03*
G54D18*
X67618Y-38385D03*
X67618Y-38877D03*
X66437Y-39370D03*
X67618Y-39370D03*
X67027Y-39370D03*
G54D14*
X63385Y-40157D03*
X58661Y-34645D03*
X60629Y-35826D03*
X64173Y-34645D03*
X62992Y-34645D03*
X58267Y-36220D03*
X61417Y-36220D03*
X61417Y-35433D03*
X60236Y-37007D03*
X59055Y-40157D03*
X61811Y-40551D03*
X59448Y-37007D03*
X64173Y-38582D03*
X57874Y-40551D03*
X60629Y-39763D03*
X61811Y-37795D03*
X62598Y-37795D03*
G54D18*
X34251Y-42913D03*
X32677Y-42913D03*
X33464Y-42913D03*
X35039Y-42913D03*
X32677Y-43700D03*
X34251Y-43700D03*
X35039Y-43700D03*
X33464Y-43700D03*
X73228Y-31889D03*
X71653Y-31889D03*
X73228Y-31496D03*
X71653Y-31496D03*
X71653Y-32283D03*
X46259Y-46653D03*
G54D14*
X58267Y-37795D03*
X60236Y-34251D03*
X59055Y-35826D03*
X63385Y-35826D03*
X62204Y-36220D03*
X63779Y-37007D03*
X61417Y-38976D03*
X62992Y-38976D03*
X59055Y-38582D03*
X60629Y-38582D03*
X61811Y-38582D03*
X61811Y-38188D03*
X60236Y-38582D03*
X60236Y-38188D03*
X59842Y-36614D03*
X41141Y-42027D03*
X59055Y-35433D03*
X59448Y-37795D03*
G54D10*
G36*
X75767Y-36594D02*
X75452Y-36594D01*
X75452Y-36169D01*
X75413Y-36075D01*
X75361Y-36023D01*
X75413Y-35971D01*
X75452Y-35877D01*
X75452Y-35776D01*
X75413Y-35682D01*
X75341Y-35609D01*
X75247Y-35570D01*
X75146Y-35570D01*
X75052Y-35609D01*
X74999Y-35661D01*
X74948Y-35609D01*
X74854Y-35570D01*
X74752Y-35570D01*
X74658Y-35609D01*
X74606Y-35661D01*
X74554Y-35609D01*
X74460Y-35570D01*
X74358Y-35570D01*
X74264Y-35609D01*
X74192Y-35681D01*
X74153Y-35775D01*
X74153Y-35877D01*
X74192Y-35971D01*
X74244Y-36023D01*
X74192Y-36075D01*
X74153Y-36169D01*
X74153Y-36271D01*
X74192Y-36365D01*
X74264Y-36437D01*
X74358Y-36476D01*
X74460Y-36476D01*
X74554Y-36437D01*
X74606Y-36385D01*
X74658Y-36437D01*
X74752Y-36476D01*
X74853Y-36476D01*
X74947Y-36437D01*
X75000Y-36385D01*
X75051Y-36437D01*
X75145Y-36476D01*
X75247Y-36476D01*
X75341Y-36437D01*
X75413Y-36365D01*
X75452Y-36271D01*
X75452Y-36169D01*
X75452Y-36594D01*
X73779Y-36594D01*
X73779Y-33709D01*
X73740Y-33615D01*
X73688Y-33562D01*
X73740Y-33511D01*
X73779Y-33417D01*
X73779Y-33315D01*
X73740Y-33221D01*
X73688Y-33169D01*
X73740Y-33117D01*
X73779Y-33023D01*
X73779Y-32921D01*
X73740Y-32827D01*
X73668Y-32755D01*
X73574Y-32716D01*
X73472Y-32716D01*
X73378Y-32755D01*
X73326Y-32807D01*
X73275Y-32755D01*
X73181Y-32716D01*
X73079Y-32716D01*
X72985Y-32755D01*
X72913Y-32827D01*
X72874Y-32921D01*
X72873Y-33023D01*
X72912Y-33117D01*
X72964Y-33169D01*
X72913Y-33220D01*
X72874Y-33315D01*
X72873Y-33416D01*
X72912Y-33510D01*
X72964Y-33563D01*
X72913Y-33614D01*
X72874Y-33708D01*
X72873Y-33810D01*
X72912Y-33904D01*
X72984Y-33976D01*
X73078Y-34015D01*
X73180Y-34015D01*
X73274Y-33976D01*
X73326Y-33924D01*
X73378Y-33976D01*
X73472Y-34015D01*
X73574Y-34015D01*
X73668Y-33976D01*
X73740Y-33904D01*
X73779Y-33810D01*
X73779Y-33709D01*
X73779Y-36594D01*
X72755Y-36594D01*
X72755Y-29976D01*
X72723Y-29897D01*
X72662Y-29836D01*
X72582Y-29803D01*
X72496Y-29803D01*
X72416Y-29836D01*
X72355Y-29896D01*
X72322Y-29976D01*
X72322Y-30062D01*
X72355Y-30142D01*
X72416Y-30203D01*
X72496Y-30236D01*
X72582Y-30236D01*
X72661Y-30203D01*
X72722Y-30142D01*
X72755Y-30062D01*
X72755Y-29976D01*
X72755Y-36594D01*
X71028Y-36594D01*
X71028Y-29726D01*
X70918Y-29460D01*
X70715Y-29257D01*
X70449Y-29146D01*
X70161Y-29146D01*
X69895Y-29256D01*
X69692Y-29459D01*
X69581Y-29725D01*
X69581Y-30013D01*
X69691Y-30279D01*
X69894Y-30483D01*
X70160Y-30593D01*
X70448Y-30593D01*
X70714Y-30483D01*
X70918Y-30280D01*
X71028Y-30014D01*
X71028Y-29726D01*
X71028Y-36594D01*
X70295Y-36594D01*
X70295Y-31453D01*
X70262Y-31373D01*
X70201Y-31312D01*
X70122Y-31279D01*
X70035Y-31279D01*
X69956Y-31312D01*
X69895Y-31373D01*
X69862Y-31452D01*
X69862Y-31538D01*
X69895Y-31618D01*
X69955Y-31679D01*
X70035Y-31712D01*
X70121Y-31712D01*
X70201Y-31679D01*
X70262Y-31618D01*
X70295Y-31539D01*
X70295Y-31453D01*
X70295Y-36594D01*
X70039Y-36594D01*
X70039Y-32232D01*
X70000Y-32138D01*
X69928Y-32066D01*
X69834Y-32027D01*
X69732Y-32027D01*
X69638Y-32066D01*
X69566Y-32138D01*
X69527Y-32232D01*
X69527Y-32334D01*
X69566Y-32428D01*
X69638Y-32500D01*
X69732Y-32539D01*
X69834Y-32539D01*
X69928Y-32500D01*
X70000Y-32428D01*
X70039Y-32334D01*
X70039Y-32232D01*
X70039Y-36594D01*
X69350Y-36594D01*
X69350Y-31740D01*
X69311Y-31646D01*
X69239Y-31574D01*
X69145Y-31535D01*
X69043Y-31535D01*
X68949Y-31574D01*
X68877Y-31646D01*
X68838Y-31740D01*
X68838Y-31842D01*
X68877Y-31936D01*
X68949Y-32008D01*
X69043Y-32047D01*
X69145Y-32047D01*
X69239Y-32008D01*
X69311Y-31936D01*
X69350Y-31842D01*
X69350Y-31740D01*
X69350Y-36594D01*
X68741Y-36594D01*
X68741Y-30434D01*
X68741Y-29434D01*
X68733Y-29262D01*
X68684Y-29143D01*
X68626Y-29104D01*
X68570Y-29160D01*
X68570Y-29048D01*
X68531Y-28991D01*
X68369Y-28933D01*
X68197Y-28941D01*
X68078Y-28991D01*
X68039Y-29048D01*
X68305Y-29314D01*
X68570Y-29048D01*
X68570Y-29160D01*
X68360Y-29370D01*
X68626Y-29635D01*
X68684Y-29596D01*
X68741Y-29434D01*
X68741Y-30434D01*
X68733Y-30262D01*
X68684Y-30143D01*
X68626Y-30104D01*
X68570Y-30160D01*
X68570Y-30048D01*
X68570Y-29691D01*
X68305Y-29425D01*
X68249Y-29481D01*
X68249Y-29370D01*
X67983Y-29104D01*
X67926Y-29143D01*
X67868Y-29305D01*
X67876Y-29477D01*
X67926Y-29596D01*
X67983Y-29635D01*
X68249Y-29370D01*
X68249Y-29481D01*
X68039Y-29691D01*
X68078Y-29749D01*
X68240Y-29806D01*
X68412Y-29798D01*
X68531Y-29749D01*
X68570Y-29691D01*
X68570Y-30048D01*
X68531Y-29991D01*
X68369Y-29933D01*
X68197Y-29941D01*
X68078Y-29991D01*
X68039Y-30048D01*
X68305Y-30314D01*
X68570Y-30048D01*
X68570Y-30160D01*
X68360Y-30370D01*
X68626Y-30635D01*
X68684Y-30596D01*
X68741Y-30434D01*
X68741Y-36594D01*
X68661Y-36594D01*
X68661Y-32232D01*
X68622Y-32138D01*
X68570Y-32086D01*
X68570Y-30691D01*
X68305Y-30425D01*
X68249Y-30481D01*
X68249Y-30370D01*
X67983Y-30104D01*
X67926Y-30143D01*
X67868Y-30305D01*
X67876Y-30477D01*
X67926Y-30596D01*
X67983Y-30635D01*
X68249Y-30370D01*
X68249Y-30481D01*
X68039Y-30691D01*
X68078Y-30749D01*
X68240Y-30806D01*
X68412Y-30798D01*
X68531Y-30749D01*
X68570Y-30691D01*
X68570Y-32086D01*
X68550Y-32066D01*
X68456Y-32027D01*
X68354Y-32027D01*
X68260Y-32066D01*
X68188Y-32138D01*
X68149Y-32232D01*
X68149Y-32334D01*
X68188Y-32428D01*
X68260Y-32500D01*
X68354Y-32539D01*
X68456Y-32539D01*
X68550Y-32500D01*
X68622Y-32428D01*
X68661Y-32334D01*
X68661Y-32232D01*
X68661Y-36594D01*
X68563Y-36594D01*
X68563Y-34890D01*
X68524Y-34796D01*
X68452Y-34724D01*
X68358Y-34685D01*
X68256Y-34684D01*
X68162Y-34723D01*
X68090Y-34795D01*
X68051Y-34889D01*
X68051Y-34991D01*
X68090Y-35085D01*
X68161Y-35157D01*
X68255Y-35196D01*
X68357Y-35196D01*
X68451Y-35158D01*
X68523Y-35086D01*
X68562Y-34992D01*
X68563Y-34890D01*
X68563Y-36594D01*
X67972Y-36594D01*
X67972Y-35382D01*
X67933Y-35288D01*
X67861Y-35216D01*
X67767Y-35177D01*
X67738Y-35177D01*
X67738Y-30284D01*
X67738Y-29284D01*
X67672Y-29125D01*
X67550Y-29003D01*
X67391Y-28937D01*
X67219Y-28936D01*
X67060Y-29002D01*
X66938Y-29124D01*
X66872Y-29283D01*
X66871Y-29455D01*
X66937Y-29615D01*
X67059Y-29737D01*
X67218Y-29803D01*
X67390Y-29803D01*
X67550Y-29737D01*
X67672Y-29615D01*
X67738Y-29456D01*
X67738Y-29284D01*
X67738Y-30284D01*
X67672Y-30125D01*
X67550Y-30003D01*
X67391Y-29937D01*
X67219Y-29936D01*
X67060Y-30002D01*
X66938Y-30124D01*
X66872Y-30283D01*
X66871Y-30455D01*
X66937Y-30615D01*
X67059Y-30737D01*
X67218Y-30803D01*
X67390Y-30803D01*
X67550Y-30737D01*
X67672Y-30615D01*
X67738Y-30456D01*
X67738Y-30284D01*
X67738Y-35177D01*
X67665Y-35177D01*
X67571Y-35215D01*
X67499Y-35287D01*
X67460Y-35381D01*
X67460Y-35483D01*
X67499Y-35577D01*
X67571Y-35649D01*
X67665Y-35688D01*
X67767Y-35689D01*
X67861Y-35650D01*
X67933Y-35578D01*
X67972Y-35484D01*
X67972Y-35382D01*
X67972Y-36594D01*
X67893Y-36594D01*
X67893Y-37216D01*
X67861Y-37184D01*
X67767Y-37145D01*
X67665Y-37145D01*
X67571Y-37184D01*
X67499Y-37256D01*
X67460Y-37350D01*
X67460Y-37452D01*
X67499Y-37546D01*
X67571Y-37618D01*
X67665Y-37657D01*
X67767Y-37657D01*
X67861Y-37618D01*
X67893Y-37586D01*
X67893Y-44114D01*
X73602Y-44114D01*
X73602Y-49192D01*
X72952Y-49192D01*
X72952Y-46315D01*
X72919Y-46235D01*
X72859Y-46174D01*
X72779Y-46141D01*
X72693Y-46141D01*
X72613Y-46174D01*
X72552Y-46235D01*
X72519Y-46315D01*
X72519Y-46401D01*
X72552Y-46480D01*
X72613Y-46541D01*
X72692Y-46574D01*
X72779Y-46574D01*
X72858Y-46541D01*
X72919Y-46481D01*
X72952Y-46401D01*
X72952Y-46315D01*
X72952Y-49192D01*
X71673Y-49192D01*
X71673Y-45724D01*
X71640Y-45645D01*
X71579Y-45584D01*
X71499Y-45551D01*
X71413Y-45551D01*
X71334Y-45584D01*
X71273Y-45644D01*
X71240Y-45724D01*
X71240Y-45810D01*
X71273Y-45890D01*
X71333Y-45951D01*
X71413Y-45984D01*
X71499Y-45984D01*
X71579Y-45951D01*
X71640Y-45890D01*
X71673Y-45810D01*
X71673Y-45724D01*
X71673Y-49192D01*
X71043Y-49192D01*
X71043Y-49980D01*
X71028Y-49980D01*
X71028Y-48726D01*
X70918Y-48460D01*
X70715Y-48257D01*
X70449Y-48146D01*
X70161Y-48146D01*
X69895Y-48256D01*
X69692Y-48459D01*
X69581Y-48725D01*
X69581Y-49013D01*
X69691Y-49279D01*
X69894Y-49483D01*
X70160Y-49593D01*
X70448Y-49593D01*
X70714Y-49483D01*
X70918Y-49280D01*
X71028Y-49014D01*
X71028Y-48726D01*
X71028Y-49980D01*
X68917Y-49980D01*
X68917Y-46512D01*
X68884Y-46432D01*
X68823Y-46371D01*
X68744Y-46338D01*
X68657Y-46338D01*
X68578Y-46371D01*
X68517Y-46432D01*
X68484Y-46511D01*
X68484Y-46598D01*
X68517Y-46677D01*
X68577Y-46738D01*
X68657Y-46771D01*
X68743Y-46771D01*
X68823Y-46738D01*
X68884Y-46677D01*
X68917Y-46598D01*
X68917Y-46512D01*
X68917Y-49980D01*
X68738Y-49980D01*
X68738Y-49284D01*
X68738Y-48284D01*
X68672Y-48125D01*
X68550Y-48003D01*
X68391Y-47937D01*
X68219Y-47936D01*
X68060Y-48002D01*
X68031Y-48031D01*
X68031Y-45429D01*
X67998Y-45349D01*
X67937Y-45288D01*
X67858Y-45255D01*
X67772Y-45255D01*
X67692Y-45288D01*
X67637Y-45343D01*
X67637Y-44346D01*
X67604Y-44267D01*
X67544Y-44206D01*
X67464Y-44173D01*
X67381Y-44173D01*
X67381Y-34890D01*
X67381Y-32035D01*
X67381Y-31248D01*
X67343Y-31154D01*
X67271Y-31082D01*
X67177Y-31043D01*
X67075Y-31043D01*
X66988Y-31079D01*
X66988Y-30776D01*
X66949Y-30682D01*
X66877Y-30609D01*
X66783Y-30570D01*
X66690Y-30570D01*
X66738Y-30456D01*
X66738Y-30284D01*
X66738Y-29284D01*
X66672Y-29125D01*
X66550Y-29003D01*
X66391Y-28937D01*
X66219Y-28936D01*
X66060Y-29002D01*
X65938Y-29124D01*
X65872Y-29283D01*
X65871Y-29455D01*
X65937Y-29615D01*
X66059Y-29737D01*
X66218Y-29803D01*
X66390Y-29803D01*
X66550Y-29737D01*
X66672Y-29615D01*
X66738Y-29456D01*
X66738Y-29284D01*
X66738Y-30284D01*
X66672Y-30125D01*
X66550Y-30003D01*
X66391Y-29937D01*
X66219Y-29936D01*
X66060Y-30002D01*
X65938Y-30124D01*
X65872Y-30283D01*
X65871Y-30455D01*
X65937Y-30615D01*
X66059Y-30737D01*
X66218Y-30803D01*
X66390Y-30803D01*
X66480Y-30766D01*
X66476Y-30775D01*
X66476Y-30877D01*
X66515Y-30971D01*
X66587Y-31043D01*
X66681Y-31082D01*
X66782Y-31082D01*
X66877Y-31043D01*
X66949Y-30971D01*
X66988Y-30877D01*
X66988Y-30776D01*
X66988Y-31079D01*
X66981Y-31082D01*
X66909Y-31154D01*
X66870Y-31248D01*
X66870Y-31349D01*
X66908Y-31443D01*
X66980Y-31516D01*
X67074Y-31555D01*
X67176Y-31555D01*
X67270Y-31516D01*
X67342Y-31444D01*
X67381Y-31350D01*
X67381Y-31248D01*
X67381Y-32035D01*
X67343Y-31941D01*
X67271Y-31869D01*
X67177Y-31830D01*
X67075Y-31830D01*
X66981Y-31869D01*
X66909Y-31941D01*
X66870Y-32035D01*
X66870Y-32137D01*
X66908Y-32231D01*
X66980Y-32303D01*
X67074Y-32342D01*
X67176Y-32342D01*
X67270Y-32303D01*
X67342Y-32231D01*
X67381Y-32137D01*
X67381Y-32035D01*
X67381Y-34890D01*
X67343Y-34796D01*
X67271Y-34724D01*
X67177Y-34685D01*
X67075Y-34684D01*
X66981Y-34723D01*
X66909Y-34795D01*
X66870Y-34889D01*
X66870Y-34991D01*
X66908Y-35085D01*
X66980Y-35157D01*
X67074Y-35196D01*
X67176Y-35196D01*
X67270Y-35158D01*
X67342Y-35086D01*
X67381Y-34992D01*
X67381Y-34890D01*
X67381Y-44173D01*
X67378Y-44173D01*
X67298Y-44206D01*
X67283Y-44221D01*
X67283Y-37646D01*
X67244Y-37552D01*
X67172Y-37480D01*
X67078Y-37440D01*
X66976Y-37440D01*
X66882Y-37479D01*
X66810Y-37551D01*
X66791Y-37598D01*
X66791Y-32528D01*
X66752Y-32433D01*
X66680Y-32361D01*
X66586Y-32322D01*
X66484Y-32322D01*
X66390Y-32361D01*
X66318Y-32433D01*
X66279Y-32527D01*
X66279Y-32629D01*
X66318Y-32723D01*
X66390Y-32795D01*
X66484Y-32834D01*
X66586Y-32834D01*
X66680Y-32795D01*
X66752Y-32723D01*
X66791Y-32629D01*
X66791Y-32528D01*
X66791Y-37598D01*
X66771Y-37645D01*
X66771Y-37747D01*
X66810Y-37841D01*
X66882Y-37913D01*
X66976Y-37952D01*
X67078Y-37952D01*
X67172Y-37913D01*
X67244Y-37841D01*
X67283Y-37747D01*
X67283Y-37646D01*
X67283Y-44221D01*
X67237Y-44266D01*
X67204Y-44346D01*
X67204Y-44432D01*
X67237Y-44512D01*
X67298Y-44573D01*
X67377Y-44606D01*
X67464Y-44606D01*
X67543Y-44573D01*
X67604Y-44512D01*
X67637Y-44433D01*
X67637Y-44346D01*
X67637Y-45343D01*
X67631Y-45349D01*
X67598Y-45429D01*
X67598Y-45515D01*
X67631Y-45594D01*
X67692Y-45655D01*
X67771Y-45688D01*
X67857Y-45689D01*
X67937Y-45656D01*
X67998Y-45595D01*
X68031Y-45515D01*
X68031Y-45429D01*
X68031Y-48031D01*
X67938Y-48124D01*
X67872Y-48283D01*
X67871Y-48455D01*
X67937Y-48615D01*
X68059Y-48737D01*
X68218Y-48803D01*
X68390Y-48803D01*
X68550Y-48737D01*
X68672Y-48615D01*
X68738Y-48456D01*
X68738Y-48284D01*
X68738Y-49284D01*
X68672Y-49125D01*
X68550Y-49003D01*
X68391Y-48937D01*
X68219Y-48936D01*
X68060Y-49002D01*
X67938Y-49124D01*
X67872Y-49283D01*
X67871Y-49455D01*
X67937Y-49615D01*
X68059Y-49737D01*
X68218Y-49803D01*
X68390Y-49803D01*
X68550Y-49737D01*
X68672Y-49615D01*
X68738Y-49456D01*
X68738Y-49284D01*
X68738Y-49980D01*
X67738Y-49980D01*
X67738Y-49284D01*
X67738Y-48284D01*
X67672Y-48125D01*
X67637Y-48090D01*
X67637Y-45724D01*
X67604Y-45645D01*
X67544Y-45584D01*
X67464Y-45551D01*
X67378Y-45551D01*
X67298Y-45584D01*
X67237Y-45644D01*
X67204Y-45724D01*
X67204Y-45810D01*
X67237Y-45890D01*
X67298Y-45951D01*
X67377Y-45984D01*
X67464Y-45984D01*
X67543Y-45951D01*
X67604Y-45890D01*
X67637Y-45810D01*
X67637Y-45724D01*
X67637Y-48090D01*
X67550Y-48003D01*
X67391Y-47937D01*
X67244Y-47936D01*
X67244Y-46020D01*
X67211Y-45940D01*
X67150Y-45879D01*
X67145Y-45877D01*
X67145Y-38638D01*
X67112Y-38558D01*
X67051Y-38497D01*
X66972Y-38464D01*
X66886Y-38464D01*
X66806Y-38497D01*
X66745Y-38558D01*
X66712Y-38637D01*
X66712Y-38723D01*
X66745Y-38803D01*
X66806Y-38864D01*
X66885Y-38897D01*
X66972Y-38897D01*
X67051Y-38864D01*
X67112Y-38803D01*
X67145Y-38724D01*
X67145Y-38638D01*
X67145Y-45877D01*
X67070Y-45846D01*
X66984Y-45846D01*
X66905Y-45879D01*
X66844Y-45940D01*
X66811Y-46019D01*
X66810Y-46105D01*
X66843Y-46185D01*
X66904Y-46246D01*
X66984Y-46279D01*
X67070Y-46279D01*
X67150Y-46246D01*
X67211Y-46185D01*
X67244Y-46106D01*
X67244Y-46020D01*
X67244Y-47936D01*
X67219Y-47936D01*
X67060Y-48002D01*
X66938Y-48124D01*
X66872Y-48283D01*
X66871Y-48455D01*
X66937Y-48615D01*
X67059Y-48737D01*
X67218Y-48803D01*
X67390Y-48803D01*
X67550Y-48737D01*
X67672Y-48615D01*
X67738Y-48456D01*
X67738Y-48284D01*
X67738Y-49284D01*
X67672Y-49125D01*
X67550Y-49003D01*
X67391Y-48937D01*
X67219Y-48936D01*
X67060Y-49002D01*
X66938Y-49124D01*
X66872Y-49283D01*
X66871Y-49455D01*
X66937Y-49615D01*
X67059Y-49737D01*
X67218Y-49803D01*
X67390Y-49803D01*
X67550Y-49737D01*
X67672Y-49615D01*
X67738Y-49456D01*
X67738Y-49284D01*
X67738Y-49980D01*
X66738Y-49980D01*
X66738Y-49284D01*
X66738Y-48284D01*
X66672Y-48125D01*
X66550Y-48003D01*
X66397Y-47939D01*
X66397Y-37547D01*
X66358Y-37453D01*
X66286Y-37381D01*
X66240Y-37362D01*
X66240Y-31248D01*
X66201Y-31154D01*
X66129Y-31082D01*
X66035Y-31043D01*
X65933Y-31043D01*
X65839Y-31082D01*
X65767Y-31153D01*
X65738Y-31124D01*
X65738Y-30284D01*
X65738Y-29284D01*
X65672Y-29125D01*
X65550Y-29003D01*
X65391Y-28937D01*
X65219Y-28936D01*
X65060Y-29002D01*
X64938Y-29124D01*
X64872Y-29283D01*
X64871Y-29455D01*
X64937Y-29615D01*
X65059Y-29737D01*
X65218Y-29803D01*
X65390Y-29803D01*
X65550Y-29737D01*
X65672Y-29615D01*
X65738Y-29456D01*
X65738Y-29284D01*
X65738Y-30284D01*
X65672Y-30125D01*
X65550Y-30003D01*
X65391Y-29937D01*
X65219Y-29936D01*
X65060Y-30002D01*
X64938Y-30124D01*
X64872Y-30283D01*
X64871Y-30455D01*
X64937Y-30615D01*
X65059Y-30737D01*
X65218Y-30803D01*
X65390Y-30803D01*
X65550Y-30737D01*
X65672Y-30615D01*
X65738Y-30456D01*
X65738Y-30284D01*
X65738Y-31124D01*
X65696Y-31082D01*
X65602Y-31043D01*
X65500Y-31043D01*
X65406Y-31082D01*
X65334Y-31154D01*
X65295Y-31248D01*
X65295Y-31349D01*
X65334Y-31443D01*
X65406Y-31516D01*
X65500Y-31555D01*
X65601Y-31555D01*
X65695Y-31516D01*
X65767Y-31444D01*
X65839Y-31516D01*
X65933Y-31555D01*
X66034Y-31555D01*
X66129Y-31516D01*
X66201Y-31444D01*
X66240Y-31350D01*
X66240Y-31248D01*
X66240Y-37362D01*
X66200Y-37345D01*
X66200Y-32035D01*
X66161Y-31941D01*
X66090Y-31869D01*
X65996Y-31830D01*
X65894Y-31830D01*
X65800Y-31869D01*
X65748Y-31921D01*
X65696Y-31869D01*
X65602Y-31830D01*
X65500Y-31830D01*
X65406Y-31869D01*
X65334Y-31941D01*
X65295Y-32035D01*
X65295Y-32137D01*
X65334Y-32231D01*
X65406Y-32303D01*
X65500Y-32342D01*
X65601Y-32342D01*
X65695Y-32303D01*
X65748Y-32251D01*
X65799Y-32303D01*
X65893Y-32342D01*
X65995Y-32342D01*
X66089Y-32303D01*
X66161Y-32231D01*
X66200Y-32137D01*
X66200Y-32035D01*
X66200Y-37345D01*
X66192Y-37342D01*
X66091Y-37342D01*
X65996Y-37381D01*
X65924Y-37453D01*
X65885Y-37547D01*
X65885Y-37649D01*
X65924Y-37743D01*
X65996Y-37815D01*
X66090Y-37854D01*
X66192Y-37854D01*
X66286Y-37815D01*
X66358Y-37743D01*
X66397Y-37649D01*
X66397Y-37547D01*
X66397Y-47939D01*
X66391Y-47937D01*
X66387Y-47937D01*
X66387Y-43238D01*
X66335Y-43112D01*
X66238Y-43015D01*
X66112Y-42962D01*
X65975Y-42962D01*
X65848Y-43014D01*
X65751Y-43111D01*
X65698Y-43238D01*
X65698Y-43375D01*
X65751Y-43501D01*
X65847Y-43598D01*
X65974Y-43651D01*
X66111Y-43651D01*
X66238Y-43599D01*
X66335Y-43502D01*
X66387Y-43375D01*
X66387Y-43238D01*
X66387Y-47937D01*
X66219Y-47936D01*
X66060Y-48002D01*
X65938Y-48124D01*
X65872Y-48283D01*
X65871Y-48455D01*
X65937Y-48615D01*
X66059Y-48737D01*
X66218Y-48803D01*
X66390Y-48803D01*
X66550Y-48737D01*
X66672Y-48615D01*
X66738Y-48456D01*
X66738Y-48284D01*
X66738Y-49284D01*
X66672Y-49125D01*
X66550Y-49003D01*
X66391Y-48937D01*
X66219Y-48936D01*
X66060Y-49002D01*
X65938Y-49124D01*
X65872Y-49283D01*
X65871Y-49455D01*
X65937Y-49615D01*
X66059Y-49737D01*
X66218Y-49803D01*
X66390Y-49803D01*
X66550Y-49737D01*
X66672Y-49615D01*
X66738Y-49456D01*
X66738Y-49284D01*
X66738Y-49980D01*
X65738Y-49980D01*
X65738Y-49284D01*
X65738Y-48284D01*
X65672Y-48125D01*
X65610Y-48062D01*
X65610Y-39220D01*
X65610Y-38630D01*
X65571Y-38536D01*
X65511Y-38476D01*
X65511Y-37350D01*
X65472Y-37256D01*
X65401Y-37184D01*
X65307Y-37145D01*
X65216Y-37145D01*
X65216Y-32528D01*
X65177Y-32433D01*
X65105Y-32361D01*
X65019Y-32326D01*
X65019Y-30756D01*
X64980Y-30662D01*
X64908Y-30590D01*
X64814Y-30551D01*
X64713Y-30551D01*
X64695Y-30558D01*
X64738Y-30456D01*
X64738Y-30284D01*
X64738Y-29284D01*
X64672Y-29125D01*
X64550Y-29003D01*
X64391Y-28937D01*
X64219Y-28936D01*
X64060Y-29002D01*
X63938Y-29124D01*
X63872Y-29283D01*
X63871Y-29455D01*
X63937Y-29615D01*
X64059Y-29737D01*
X64218Y-29803D01*
X64390Y-29803D01*
X64550Y-29737D01*
X64672Y-29615D01*
X64738Y-29456D01*
X64738Y-29284D01*
X64738Y-30284D01*
X64672Y-30125D01*
X64550Y-30003D01*
X64391Y-29937D01*
X64219Y-29936D01*
X64060Y-30002D01*
X63938Y-30124D01*
X63872Y-30283D01*
X63871Y-30455D01*
X63937Y-30615D01*
X64059Y-30737D01*
X64218Y-30803D01*
X64390Y-30803D01*
X64508Y-30754D01*
X64507Y-30755D01*
X64507Y-30857D01*
X64546Y-30951D01*
X64618Y-31023D01*
X64712Y-31062D01*
X64814Y-31063D01*
X64908Y-31024D01*
X64980Y-30952D01*
X65019Y-30858D01*
X65019Y-30756D01*
X65019Y-32326D01*
X65011Y-32322D01*
X64909Y-32322D01*
X64815Y-32361D01*
X64743Y-32433D01*
X64704Y-32527D01*
X64704Y-32629D01*
X64743Y-32723D01*
X64815Y-32795D01*
X64909Y-32834D01*
X65011Y-32834D01*
X65105Y-32795D01*
X65177Y-32723D01*
X65216Y-32629D01*
X65216Y-32528D01*
X65216Y-37145D01*
X65205Y-37145D01*
X65177Y-37157D01*
X65177Y-35882D01*
X65177Y-35291D01*
X65144Y-35212D01*
X65083Y-35151D01*
X65003Y-35118D01*
X64917Y-35118D01*
X64838Y-35150D01*
X64777Y-35211D01*
X64744Y-35291D01*
X64744Y-35377D01*
X64776Y-35457D01*
X64837Y-35518D01*
X64917Y-35551D01*
X65003Y-35551D01*
X65083Y-35518D01*
X65144Y-35457D01*
X65177Y-35377D01*
X65177Y-35291D01*
X65177Y-35882D01*
X65144Y-35802D01*
X65083Y-35741D01*
X65003Y-35708D01*
X64917Y-35708D01*
X64838Y-35741D01*
X64777Y-35802D01*
X64744Y-35881D01*
X64744Y-35968D01*
X64776Y-36047D01*
X64837Y-36108D01*
X64917Y-36141D01*
X65003Y-36141D01*
X65083Y-36108D01*
X65144Y-36048D01*
X65177Y-35968D01*
X65177Y-35882D01*
X65177Y-37157D01*
X65111Y-37184D01*
X65039Y-37256D01*
X65000Y-37350D01*
X64999Y-37452D01*
X65038Y-37546D01*
X65110Y-37618D01*
X65204Y-37657D01*
X65306Y-37657D01*
X65400Y-37618D01*
X65472Y-37546D01*
X65511Y-37452D01*
X65511Y-37350D01*
X65511Y-38476D01*
X65499Y-38464D01*
X65405Y-38425D01*
X65303Y-38425D01*
X65209Y-38464D01*
X65137Y-38535D01*
X65098Y-38629D01*
X65098Y-38731D01*
X65137Y-38825D01*
X65209Y-38897D01*
X65303Y-38936D01*
X65405Y-38937D01*
X65499Y-38898D01*
X65571Y-38826D01*
X65610Y-38732D01*
X65610Y-38630D01*
X65610Y-39220D01*
X65571Y-39126D01*
X65499Y-39054D01*
X65405Y-39015D01*
X65303Y-39015D01*
X65209Y-39054D01*
X65137Y-39126D01*
X65098Y-39220D01*
X65098Y-39322D01*
X65137Y-39416D01*
X65209Y-39488D01*
X65303Y-39527D01*
X65405Y-39527D01*
X65499Y-39488D01*
X65571Y-39416D01*
X65610Y-39322D01*
X65610Y-39220D01*
X65610Y-48062D01*
X65550Y-48003D01*
X65391Y-47937D01*
X65219Y-47936D01*
X65206Y-47942D01*
X65206Y-44419D01*
X65154Y-44293D01*
X65057Y-44196D01*
X65019Y-44180D01*
X65019Y-39220D01*
X65019Y-38630D01*
X65019Y-37744D01*
X64980Y-37650D01*
X64908Y-37578D01*
X64814Y-37539D01*
X64713Y-37539D01*
X64626Y-37575D01*
X64626Y-32035D01*
X64626Y-31248D01*
X64587Y-31154D01*
X64515Y-31082D01*
X64421Y-31043D01*
X64319Y-31043D01*
X64225Y-31082D01*
X64153Y-31154D01*
X64114Y-31248D01*
X64114Y-31349D01*
X64153Y-31443D01*
X64224Y-31516D01*
X64318Y-31555D01*
X64420Y-31555D01*
X64514Y-31516D01*
X64586Y-31444D01*
X64625Y-31350D01*
X64626Y-31248D01*
X64626Y-32035D01*
X64587Y-31941D01*
X64515Y-31869D01*
X64421Y-31830D01*
X64319Y-31830D01*
X64225Y-31869D01*
X64153Y-31941D01*
X64114Y-32035D01*
X64114Y-32137D01*
X64153Y-32231D01*
X64224Y-32303D01*
X64318Y-32342D01*
X64420Y-32342D01*
X64514Y-32303D01*
X64586Y-32231D01*
X64625Y-32137D01*
X64626Y-32035D01*
X64626Y-37575D01*
X64619Y-37578D01*
X64546Y-37650D01*
X64507Y-37744D01*
X64507Y-37845D01*
X64546Y-37940D01*
X64618Y-38012D01*
X64712Y-38051D01*
X64814Y-38051D01*
X64908Y-38012D01*
X64980Y-37940D01*
X65019Y-37846D01*
X65019Y-37744D01*
X65019Y-38630D01*
X64980Y-38536D01*
X64908Y-38464D01*
X64814Y-38425D01*
X64713Y-38425D01*
X64619Y-38464D01*
X64546Y-38535D01*
X64507Y-38629D01*
X64507Y-38731D01*
X64546Y-38825D01*
X64618Y-38897D01*
X64712Y-38936D01*
X64814Y-38937D01*
X64908Y-38898D01*
X64980Y-38826D01*
X65019Y-38732D01*
X65019Y-38630D01*
X65019Y-39220D01*
X64980Y-39126D01*
X64908Y-39054D01*
X64814Y-39015D01*
X64713Y-39015D01*
X64619Y-39054D01*
X64546Y-39126D01*
X64507Y-39220D01*
X64507Y-39322D01*
X64546Y-39416D01*
X64618Y-39488D01*
X64712Y-39527D01*
X64814Y-39527D01*
X64908Y-39488D01*
X64980Y-39416D01*
X65019Y-39322D01*
X65019Y-39220D01*
X65019Y-44180D01*
X64931Y-44143D01*
X64793Y-44143D01*
X64667Y-44195D01*
X64570Y-44292D01*
X64517Y-44419D01*
X64517Y-44556D01*
X64569Y-44683D01*
X64666Y-44780D01*
X64793Y-44832D01*
X64930Y-44832D01*
X65057Y-44780D01*
X65154Y-44683D01*
X65206Y-44557D01*
X65206Y-44419D01*
X65206Y-47942D01*
X65060Y-48002D01*
X64938Y-48124D01*
X64872Y-48283D01*
X64871Y-48455D01*
X64937Y-48615D01*
X65059Y-48737D01*
X65218Y-48803D01*
X65390Y-48803D01*
X65550Y-48737D01*
X65672Y-48615D01*
X65738Y-48456D01*
X65738Y-48284D01*
X65738Y-49284D01*
X65672Y-49125D01*
X65550Y-49003D01*
X65391Y-48937D01*
X65219Y-48936D01*
X65060Y-49002D01*
X64938Y-49124D01*
X64872Y-49283D01*
X64871Y-49455D01*
X64937Y-49615D01*
X65059Y-49737D01*
X65218Y-49803D01*
X65390Y-49803D01*
X65550Y-49737D01*
X65672Y-49615D01*
X65738Y-49456D01*
X65738Y-49284D01*
X65738Y-49980D01*
X64738Y-49980D01*
X64738Y-49284D01*
X64738Y-48284D01*
X64672Y-48125D01*
X64550Y-48003D01*
X64391Y-47937D01*
X64389Y-47937D01*
X64389Y-40508D01*
X64389Y-38146D01*
X64389Y-36177D01*
X64389Y-33716D01*
X64356Y-33637D01*
X64296Y-33576D01*
X64216Y-33543D01*
X64130Y-33543D01*
X64050Y-33576D01*
X63989Y-33637D01*
X63956Y-33716D01*
X63956Y-33802D01*
X63989Y-33882D01*
X64050Y-33943D01*
X64129Y-33976D01*
X64216Y-33976D01*
X64295Y-33943D01*
X64356Y-33882D01*
X64389Y-33803D01*
X64389Y-33716D01*
X64389Y-36177D01*
X64356Y-36097D01*
X64296Y-36037D01*
X64216Y-36003D01*
X64130Y-36003D01*
X64050Y-36036D01*
X63996Y-36091D01*
X63996Y-35390D01*
X63963Y-35310D01*
X63902Y-35249D01*
X63822Y-35216D01*
X63738Y-35216D01*
X63738Y-30284D01*
X63738Y-29284D01*
X63672Y-29125D01*
X63550Y-29003D01*
X63391Y-28937D01*
X63219Y-28936D01*
X63060Y-29002D01*
X62938Y-29124D01*
X62872Y-29283D01*
X62871Y-29455D01*
X62937Y-29615D01*
X63059Y-29737D01*
X63218Y-29803D01*
X63390Y-29803D01*
X63550Y-29737D01*
X63672Y-29615D01*
X63738Y-29456D01*
X63738Y-29284D01*
X63738Y-30284D01*
X63672Y-30125D01*
X63550Y-30003D01*
X63391Y-29937D01*
X63219Y-29936D01*
X63060Y-30002D01*
X62938Y-30124D01*
X62872Y-30283D01*
X62871Y-30455D01*
X62937Y-30615D01*
X63059Y-30737D01*
X63218Y-30803D01*
X63390Y-30803D01*
X63550Y-30737D01*
X63672Y-30615D01*
X63738Y-30456D01*
X63738Y-30284D01*
X63738Y-35216D01*
X63736Y-35216D01*
X63657Y-35249D01*
X63596Y-35310D01*
X63563Y-35389D01*
X63562Y-35475D01*
X63595Y-35555D01*
X63656Y-35616D01*
X63736Y-35649D01*
X63822Y-35649D01*
X63902Y-35616D01*
X63962Y-35555D01*
X63996Y-35476D01*
X63996Y-35390D01*
X63996Y-36091D01*
X63989Y-36097D01*
X63956Y-36177D01*
X63956Y-36263D01*
X63989Y-36342D01*
X64050Y-36403D01*
X64129Y-36436D01*
X64216Y-36437D01*
X64295Y-36404D01*
X64356Y-36343D01*
X64389Y-36263D01*
X64389Y-36177D01*
X64389Y-38146D01*
X64356Y-38066D01*
X64296Y-38005D01*
X64216Y-37972D01*
X64130Y-37972D01*
X64050Y-38005D01*
X63989Y-38066D01*
X63956Y-38145D01*
X63956Y-38231D01*
X63989Y-38311D01*
X64050Y-38372D01*
X64129Y-38405D01*
X64216Y-38405D01*
X64295Y-38372D01*
X64356Y-38311D01*
X64389Y-38232D01*
X64389Y-38146D01*
X64389Y-40508D01*
X64356Y-40428D01*
X64296Y-40367D01*
X64216Y-40334D01*
X64130Y-40334D01*
X64050Y-40367D01*
X63996Y-40422D01*
X63996Y-39327D01*
X63963Y-39247D01*
X63902Y-39186D01*
X63822Y-39153D01*
X63736Y-39153D01*
X63657Y-39186D01*
X63602Y-39240D01*
X63602Y-38933D01*
X63602Y-38146D01*
X63569Y-38066D01*
X63508Y-38005D01*
X63429Y-37972D01*
X63342Y-37972D01*
X63263Y-38005D01*
X63208Y-38059D01*
X63208Y-36571D01*
X63175Y-36491D01*
X63114Y-36430D01*
X63035Y-36397D01*
X62949Y-36397D01*
X62869Y-36430D01*
X62808Y-36491D01*
X62795Y-36523D01*
X62782Y-36491D01*
X62721Y-36430D01*
X62689Y-36417D01*
X62720Y-36404D01*
X62781Y-36343D01*
X62814Y-36263D01*
X62814Y-36177D01*
X62814Y-35390D01*
X62782Y-35310D01*
X62738Y-35266D01*
X62738Y-30284D01*
X62738Y-29284D01*
X62672Y-29125D01*
X62550Y-29003D01*
X62391Y-28937D01*
X62219Y-28936D01*
X62060Y-29002D01*
X61938Y-29124D01*
X61872Y-29283D01*
X61871Y-29455D01*
X61937Y-29615D01*
X62059Y-29737D01*
X62218Y-29803D01*
X62390Y-29803D01*
X62550Y-29737D01*
X62672Y-29615D01*
X62738Y-29456D01*
X62738Y-29284D01*
X62738Y-30284D01*
X62672Y-30125D01*
X62550Y-30003D01*
X62391Y-29937D01*
X62219Y-29936D01*
X62060Y-30002D01*
X61938Y-30124D01*
X61872Y-30283D01*
X61871Y-30455D01*
X61937Y-30615D01*
X62059Y-30737D01*
X62218Y-30803D01*
X62390Y-30803D01*
X62550Y-30737D01*
X62672Y-30615D01*
X62738Y-30456D01*
X62738Y-30284D01*
X62738Y-35266D01*
X62721Y-35249D01*
X62641Y-35216D01*
X62555Y-35216D01*
X62475Y-35249D01*
X62414Y-35310D01*
X62401Y-35342D01*
X62388Y-35310D01*
X62327Y-35249D01*
X62295Y-35236D01*
X62327Y-35223D01*
X62388Y-35162D01*
X62421Y-35082D01*
X62421Y-34996D01*
X62421Y-34209D01*
X62388Y-34129D01*
X62327Y-34068D01*
X62247Y-34035D01*
X62161Y-34035D01*
X62082Y-34068D01*
X62021Y-34129D01*
X61988Y-34208D01*
X61988Y-34294D01*
X62021Y-34374D01*
X62081Y-34435D01*
X62161Y-34468D01*
X62247Y-34468D01*
X62327Y-34435D01*
X62388Y-34374D01*
X62421Y-34295D01*
X62421Y-34209D01*
X62421Y-34996D01*
X62388Y-34916D01*
X62327Y-34855D01*
X62247Y-34822D01*
X62161Y-34822D01*
X62082Y-34855D01*
X62021Y-34916D01*
X61988Y-34996D01*
X61988Y-35082D01*
X62021Y-35161D01*
X62081Y-35222D01*
X62114Y-35236D01*
X62082Y-35249D01*
X62021Y-35310D01*
X61988Y-35389D01*
X61988Y-35475D01*
X62021Y-35555D01*
X62081Y-35616D01*
X62161Y-35649D01*
X62247Y-35649D01*
X62327Y-35616D01*
X62388Y-35555D01*
X62401Y-35523D01*
X62414Y-35555D01*
X62475Y-35616D01*
X62555Y-35649D01*
X62641Y-35649D01*
X62720Y-35616D01*
X62781Y-35555D01*
X62814Y-35476D01*
X62814Y-35390D01*
X62814Y-36177D01*
X62782Y-36097D01*
X62721Y-36037D01*
X62641Y-36003D01*
X62555Y-36003D01*
X62475Y-36036D01*
X62414Y-36097D01*
X62381Y-36177D01*
X62381Y-36263D01*
X62414Y-36342D01*
X62475Y-36403D01*
X62507Y-36417D01*
X62475Y-36430D01*
X62414Y-36491D01*
X62401Y-36523D01*
X62388Y-36491D01*
X62327Y-36430D01*
X62247Y-36397D01*
X62161Y-36397D01*
X62082Y-36430D01*
X62021Y-36491D01*
X62007Y-36523D01*
X61994Y-36491D01*
X61933Y-36430D01*
X61854Y-36397D01*
X61768Y-36397D01*
X61738Y-36409D01*
X61738Y-30284D01*
X61738Y-29284D01*
X61672Y-29125D01*
X61550Y-29003D01*
X61391Y-28937D01*
X61219Y-28936D01*
X61060Y-29002D01*
X60938Y-29124D01*
X60872Y-29283D01*
X60871Y-29455D01*
X60937Y-29615D01*
X61059Y-29737D01*
X61218Y-29803D01*
X61390Y-29803D01*
X61550Y-29737D01*
X61672Y-29615D01*
X61738Y-29456D01*
X61738Y-29284D01*
X61738Y-30284D01*
X61672Y-30125D01*
X61550Y-30003D01*
X61391Y-29937D01*
X61219Y-29936D01*
X61060Y-30002D01*
X60938Y-30124D01*
X60872Y-30283D01*
X60871Y-30455D01*
X60937Y-30615D01*
X61059Y-30737D01*
X61218Y-30803D01*
X61390Y-30803D01*
X61550Y-30737D01*
X61672Y-30615D01*
X61738Y-30456D01*
X61738Y-30284D01*
X61738Y-36409D01*
X61688Y-36430D01*
X61633Y-36485D01*
X61633Y-35783D01*
X61633Y-34996D01*
X61600Y-34916D01*
X61540Y-34855D01*
X61460Y-34822D01*
X61374Y-34822D01*
X61294Y-34855D01*
X61233Y-34916D01*
X61200Y-34996D01*
X61200Y-35082D01*
X61233Y-35161D01*
X61294Y-35222D01*
X61374Y-35255D01*
X61460Y-35255D01*
X61539Y-35223D01*
X61600Y-35162D01*
X61633Y-35082D01*
X61633Y-34996D01*
X61633Y-35783D01*
X61600Y-35704D01*
X61540Y-35643D01*
X61460Y-35610D01*
X61374Y-35610D01*
X61294Y-35643D01*
X61233Y-35703D01*
X61200Y-35783D01*
X61200Y-35869D01*
X61233Y-35949D01*
X61294Y-36010D01*
X61374Y-36043D01*
X61460Y-36043D01*
X61539Y-36010D01*
X61600Y-35949D01*
X61633Y-35870D01*
X61633Y-35783D01*
X61633Y-36485D01*
X61627Y-36491D01*
X61614Y-36523D01*
X61600Y-36491D01*
X61540Y-36430D01*
X61460Y-36397D01*
X61374Y-36397D01*
X61294Y-36430D01*
X61233Y-36491D01*
X61200Y-36570D01*
X61200Y-36657D01*
X61233Y-36736D01*
X61294Y-36797D01*
X61374Y-36830D01*
X61460Y-36830D01*
X61539Y-36797D01*
X61600Y-36736D01*
X61614Y-36704D01*
X61627Y-36736D01*
X61688Y-36797D01*
X61720Y-36811D01*
X61688Y-36824D01*
X61627Y-36885D01*
X61594Y-36964D01*
X61594Y-37050D01*
X61627Y-37130D01*
X61688Y-37191D01*
X61767Y-37224D01*
X61853Y-37224D01*
X61933Y-37191D01*
X61994Y-37130D01*
X62027Y-37051D01*
X62027Y-36964D01*
X61994Y-36885D01*
X61933Y-36824D01*
X61901Y-36811D01*
X61933Y-36797D01*
X61994Y-36736D01*
X62007Y-36704D01*
X62021Y-36736D01*
X62081Y-36797D01*
X62161Y-36830D01*
X62247Y-36830D01*
X62327Y-36797D01*
X62388Y-36736D01*
X62401Y-36704D01*
X62414Y-36736D01*
X62475Y-36797D01*
X62507Y-36811D01*
X62475Y-36824D01*
X62414Y-36885D01*
X62381Y-36964D01*
X62381Y-37050D01*
X62414Y-37130D01*
X62475Y-37191D01*
X62555Y-37224D01*
X62641Y-37224D01*
X62720Y-37191D01*
X62781Y-37130D01*
X62814Y-37051D01*
X62814Y-36964D01*
X62782Y-36885D01*
X62721Y-36824D01*
X62689Y-36811D01*
X62720Y-36797D01*
X62781Y-36736D01*
X62795Y-36704D01*
X62808Y-36736D01*
X62869Y-36797D01*
X62948Y-36830D01*
X63035Y-36830D01*
X63114Y-36797D01*
X63175Y-36736D01*
X63208Y-36657D01*
X63208Y-36571D01*
X63208Y-38059D01*
X63202Y-38066D01*
X63169Y-38145D01*
X63169Y-38231D01*
X63202Y-38311D01*
X63263Y-38372D01*
X63342Y-38405D01*
X63428Y-38405D01*
X63508Y-38372D01*
X63569Y-38311D01*
X63602Y-38232D01*
X63602Y-38146D01*
X63602Y-38933D01*
X63569Y-38853D01*
X63508Y-38792D01*
X63429Y-38759D01*
X63342Y-38759D01*
X63263Y-38792D01*
X63202Y-38853D01*
X63169Y-38933D01*
X63169Y-39019D01*
X63202Y-39098D01*
X63263Y-39159D01*
X63342Y-39192D01*
X63428Y-39192D01*
X63508Y-39160D01*
X63569Y-39099D01*
X63602Y-39019D01*
X63602Y-38933D01*
X63602Y-39240D01*
X63596Y-39247D01*
X63563Y-39326D01*
X63562Y-39412D01*
X63595Y-39492D01*
X63656Y-39553D01*
X63736Y-39586D01*
X63822Y-39586D01*
X63902Y-39553D01*
X63962Y-39492D01*
X63996Y-39413D01*
X63996Y-39327D01*
X63996Y-40422D01*
X63989Y-40428D01*
X63956Y-40507D01*
X63956Y-40594D01*
X63989Y-40673D01*
X64050Y-40734D01*
X64129Y-40767D01*
X64216Y-40767D01*
X64295Y-40734D01*
X64356Y-40673D01*
X64389Y-40594D01*
X64389Y-40508D01*
X64389Y-47937D01*
X64291Y-47936D01*
X64291Y-41000D01*
X64258Y-40920D01*
X64197Y-40859D01*
X64118Y-40826D01*
X64031Y-40826D01*
X63952Y-40859D01*
X63891Y-40920D01*
X63858Y-41000D01*
X63858Y-41086D01*
X63891Y-41165D01*
X63951Y-41226D01*
X64031Y-41259D01*
X64117Y-41259D01*
X64197Y-41226D01*
X64258Y-41166D01*
X64291Y-41086D01*
X64291Y-41000D01*
X64291Y-47936D01*
X64219Y-47936D01*
X64060Y-48002D01*
X63938Y-48124D01*
X63872Y-48283D01*
X63871Y-48455D01*
X63937Y-48615D01*
X64059Y-48737D01*
X64218Y-48803D01*
X64390Y-48803D01*
X64550Y-48737D01*
X64672Y-48615D01*
X64738Y-48456D01*
X64738Y-48284D01*
X64738Y-49284D01*
X64672Y-49125D01*
X64550Y-49003D01*
X64391Y-48937D01*
X64219Y-48936D01*
X64060Y-49002D01*
X63938Y-49124D01*
X63872Y-49283D01*
X63871Y-49455D01*
X63937Y-49615D01*
X64059Y-49737D01*
X64218Y-49803D01*
X64390Y-49803D01*
X64550Y-49737D01*
X64672Y-49615D01*
X64738Y-49456D01*
X64738Y-49284D01*
X64738Y-49980D01*
X63738Y-49980D01*
X63738Y-49284D01*
X63738Y-48284D01*
X63672Y-48125D01*
X63550Y-48003D01*
X63391Y-47937D01*
X63219Y-47936D01*
X63060Y-48002D01*
X62938Y-48124D01*
X62872Y-48283D01*
X62871Y-48455D01*
X62937Y-48615D01*
X63059Y-48737D01*
X63218Y-48803D01*
X63390Y-48803D01*
X63550Y-48737D01*
X63672Y-48615D01*
X63738Y-48456D01*
X63738Y-48284D01*
X63738Y-49284D01*
X63672Y-49125D01*
X63550Y-49003D01*
X63391Y-48937D01*
X63219Y-48936D01*
X63060Y-49002D01*
X62938Y-49124D01*
X62872Y-49283D01*
X62871Y-49455D01*
X62937Y-49615D01*
X63059Y-49737D01*
X63218Y-49803D01*
X63390Y-49803D01*
X63550Y-49737D01*
X63672Y-49615D01*
X63738Y-49456D01*
X63738Y-49284D01*
X63738Y-49980D01*
X62814Y-49980D01*
X62814Y-39720D01*
X62782Y-39641D01*
X62721Y-39580D01*
X62641Y-39547D01*
X62555Y-39547D01*
X62475Y-39580D01*
X62421Y-39634D01*
X62421Y-38539D01*
X62421Y-37752D01*
X62388Y-37672D01*
X62327Y-37611D01*
X62247Y-37578D01*
X62161Y-37578D01*
X62082Y-37611D01*
X62021Y-37672D01*
X61988Y-37752D01*
X61988Y-37838D01*
X62021Y-37917D01*
X62081Y-37978D01*
X62161Y-38011D01*
X62247Y-38011D01*
X62327Y-37978D01*
X62388Y-37918D01*
X62421Y-37838D01*
X62421Y-37752D01*
X62421Y-38539D01*
X62388Y-38460D01*
X62327Y-38399D01*
X62247Y-38366D01*
X62161Y-38366D01*
X62082Y-38399D01*
X62021Y-38459D01*
X61988Y-38539D01*
X61988Y-38625D01*
X62021Y-38705D01*
X62081Y-38766D01*
X62161Y-38799D01*
X62247Y-38799D01*
X62327Y-38766D01*
X62388Y-38705D01*
X62421Y-38625D01*
X62421Y-38539D01*
X62421Y-39634D01*
X62414Y-39640D01*
X62381Y-39720D01*
X62381Y-39806D01*
X62414Y-39886D01*
X62475Y-39947D01*
X62555Y-39980D01*
X62641Y-39980D01*
X62720Y-39947D01*
X62781Y-39886D01*
X62814Y-39807D01*
X62814Y-39720D01*
X62814Y-49980D01*
X62738Y-49980D01*
X62738Y-49284D01*
X62738Y-48284D01*
X62672Y-48125D01*
X62550Y-48003D01*
X62391Y-47937D01*
X62219Y-47936D01*
X62060Y-48002D01*
X61938Y-48124D01*
X61872Y-48283D01*
X61871Y-48455D01*
X61937Y-48615D01*
X62059Y-48737D01*
X62218Y-48803D01*
X62390Y-48803D01*
X62550Y-48737D01*
X62672Y-48615D01*
X62738Y-48456D01*
X62738Y-48284D01*
X62738Y-49284D01*
X62672Y-49125D01*
X62550Y-49003D01*
X62391Y-48937D01*
X62219Y-48936D01*
X62060Y-49002D01*
X61938Y-49124D01*
X61872Y-49283D01*
X61871Y-49455D01*
X61937Y-49615D01*
X62059Y-49737D01*
X62218Y-49803D01*
X62390Y-49803D01*
X62550Y-49737D01*
X62672Y-49615D01*
X62738Y-49456D01*
X62738Y-49284D01*
X62738Y-49980D01*
X61738Y-49980D01*
X61738Y-49284D01*
X61738Y-48284D01*
X61672Y-48125D01*
X61633Y-48086D01*
X61633Y-39720D01*
X61633Y-38146D01*
X61600Y-38066D01*
X61540Y-38005D01*
X61460Y-37972D01*
X61374Y-37972D01*
X61294Y-38005D01*
X61233Y-38066D01*
X61200Y-38145D01*
X61200Y-38231D01*
X61233Y-38311D01*
X61294Y-38372D01*
X61374Y-38405D01*
X61460Y-38405D01*
X61539Y-38372D01*
X61600Y-38311D01*
X61633Y-38232D01*
X61633Y-38146D01*
X61633Y-39720D01*
X61600Y-39641D01*
X61540Y-39580D01*
X61460Y-39547D01*
X61374Y-39547D01*
X61294Y-39580D01*
X61233Y-39640D01*
X61200Y-39720D01*
X61200Y-39806D01*
X61233Y-39886D01*
X61294Y-39947D01*
X61374Y-39980D01*
X61460Y-39980D01*
X61539Y-39947D01*
X61600Y-39886D01*
X61633Y-39807D01*
X61633Y-39720D01*
X61633Y-48086D01*
X61550Y-48003D01*
X61391Y-47937D01*
X61219Y-47936D01*
X61060Y-48002D01*
X60944Y-48117D01*
X60944Y-45921D01*
X60912Y-45842D01*
X60851Y-45781D01*
X60846Y-45779D01*
X60846Y-40508D01*
X60846Y-38146D01*
X60813Y-38066D01*
X60752Y-38005D01*
X60720Y-37992D01*
X60752Y-37978D01*
X60813Y-37918D01*
X60846Y-37838D01*
X60846Y-37752D01*
X60846Y-36964D01*
X60813Y-36885D01*
X60752Y-36824D01*
X60720Y-36811D01*
X60752Y-36797D01*
X60813Y-36736D01*
X60846Y-36657D01*
X60846Y-36571D01*
X60846Y-34602D01*
X60846Y-33716D01*
X60813Y-33637D01*
X60752Y-33576D01*
X60738Y-33570D01*
X60738Y-30284D01*
X60738Y-29284D01*
X60672Y-29125D01*
X60550Y-29003D01*
X60391Y-28937D01*
X60219Y-28936D01*
X60060Y-29002D01*
X59938Y-29124D01*
X59872Y-29283D01*
X59871Y-29455D01*
X59937Y-29615D01*
X60059Y-29737D01*
X60218Y-29803D01*
X60390Y-29803D01*
X60550Y-29737D01*
X60672Y-29615D01*
X60738Y-29456D01*
X60738Y-29284D01*
X60738Y-30284D01*
X60672Y-30125D01*
X60550Y-30003D01*
X60391Y-29937D01*
X60219Y-29936D01*
X60060Y-30002D01*
X59938Y-30124D01*
X59872Y-30283D01*
X59871Y-30455D01*
X59937Y-30615D01*
X60059Y-30737D01*
X60218Y-30803D01*
X60390Y-30803D01*
X60550Y-30737D01*
X60672Y-30615D01*
X60738Y-30456D01*
X60738Y-30284D01*
X60738Y-33570D01*
X60673Y-33543D01*
X60587Y-33543D01*
X60507Y-33576D01*
X60446Y-33637D01*
X60413Y-33716D01*
X60413Y-33802D01*
X60446Y-33882D01*
X60507Y-33943D01*
X60586Y-33976D01*
X60672Y-33976D01*
X60752Y-33943D01*
X60813Y-33882D01*
X60846Y-33803D01*
X60846Y-33716D01*
X60846Y-34602D01*
X60813Y-34523D01*
X60752Y-34462D01*
X60673Y-34429D01*
X60587Y-34429D01*
X60507Y-34461D01*
X60446Y-34522D01*
X60413Y-34602D01*
X60413Y-34688D01*
X60446Y-34768D01*
X60507Y-34829D01*
X60586Y-34862D01*
X60672Y-34862D01*
X60752Y-34829D01*
X60813Y-34768D01*
X60846Y-34688D01*
X60846Y-34602D01*
X60846Y-36571D01*
X60813Y-36491D01*
X60752Y-36430D01*
X60673Y-36397D01*
X60587Y-36397D01*
X60507Y-36430D01*
X60452Y-36485D01*
X60452Y-35783D01*
X60419Y-35704D01*
X60359Y-35643D01*
X60279Y-35610D01*
X60193Y-35610D01*
X60113Y-35643D01*
X60059Y-35697D01*
X60059Y-34996D01*
X60026Y-34916D01*
X59965Y-34855D01*
X59885Y-34822D01*
X59799Y-34822D01*
X59738Y-34848D01*
X59738Y-30284D01*
X59738Y-29284D01*
X59672Y-29125D01*
X59550Y-29003D01*
X59391Y-28937D01*
X59219Y-28936D01*
X59060Y-29002D01*
X58938Y-29124D01*
X58872Y-29283D01*
X58871Y-29455D01*
X58937Y-29615D01*
X59059Y-29737D01*
X59218Y-29803D01*
X59390Y-29803D01*
X59550Y-29737D01*
X59672Y-29615D01*
X59738Y-29456D01*
X59738Y-29284D01*
X59738Y-30284D01*
X59672Y-30125D01*
X59550Y-30003D01*
X59391Y-29937D01*
X59219Y-29936D01*
X59060Y-30002D01*
X58938Y-30124D01*
X58872Y-30283D01*
X58871Y-30455D01*
X58937Y-30615D01*
X59059Y-30737D01*
X59218Y-30803D01*
X59390Y-30803D01*
X59550Y-30737D01*
X59672Y-30615D01*
X59738Y-30456D01*
X59738Y-30284D01*
X59738Y-34848D01*
X59720Y-34855D01*
X59659Y-34916D01*
X59626Y-34996D01*
X59625Y-35082D01*
X59658Y-35161D01*
X59719Y-35222D01*
X59799Y-35255D01*
X59885Y-35255D01*
X59965Y-35223D01*
X60025Y-35162D01*
X60059Y-35082D01*
X60059Y-34996D01*
X60059Y-35697D01*
X60052Y-35703D01*
X60019Y-35783D01*
X60019Y-35869D01*
X60052Y-35949D01*
X60113Y-36010D01*
X60192Y-36043D01*
X60279Y-36043D01*
X60358Y-36010D01*
X60419Y-35949D01*
X60452Y-35870D01*
X60452Y-35783D01*
X60452Y-36485D01*
X60446Y-36491D01*
X60413Y-36570D01*
X60413Y-36657D01*
X60446Y-36736D01*
X60507Y-36797D01*
X60539Y-36811D01*
X60507Y-36824D01*
X60446Y-36885D01*
X60413Y-36964D01*
X60413Y-37050D01*
X60446Y-37130D01*
X60507Y-37191D01*
X60586Y-37224D01*
X60672Y-37224D01*
X60752Y-37191D01*
X60813Y-37130D01*
X60846Y-37051D01*
X60846Y-36964D01*
X60846Y-37752D01*
X60813Y-37672D01*
X60752Y-37611D01*
X60673Y-37578D01*
X60587Y-37578D01*
X60507Y-37611D01*
X60446Y-37672D01*
X60433Y-37704D01*
X60419Y-37672D01*
X60359Y-37611D01*
X60279Y-37578D01*
X60193Y-37578D01*
X60113Y-37611D01*
X60059Y-37666D01*
X60059Y-36964D01*
X60059Y-36177D01*
X60026Y-36097D01*
X59965Y-36037D01*
X59885Y-36003D01*
X59799Y-36003D01*
X59720Y-36036D01*
X59659Y-36097D01*
X59626Y-36177D01*
X59625Y-36263D01*
X59658Y-36342D01*
X59719Y-36403D01*
X59799Y-36436D01*
X59885Y-36437D01*
X59965Y-36404D01*
X60025Y-36343D01*
X60059Y-36263D01*
X60059Y-36177D01*
X60059Y-36964D01*
X60026Y-36885D01*
X59965Y-36824D01*
X59885Y-36791D01*
X59799Y-36791D01*
X59720Y-36824D01*
X59665Y-36878D01*
X59665Y-36571D01*
X59632Y-36491D01*
X59571Y-36430D01*
X59492Y-36397D01*
X59468Y-36397D01*
X59468Y-32043D01*
X59435Y-31964D01*
X59374Y-31903D01*
X59295Y-31870D01*
X59209Y-31870D01*
X59129Y-31902D01*
X59068Y-31963D01*
X59035Y-32043D01*
X59035Y-32129D01*
X59068Y-32209D01*
X59129Y-32270D01*
X59208Y-32303D01*
X59294Y-32303D01*
X59374Y-32270D01*
X59435Y-32209D01*
X59468Y-32129D01*
X59468Y-32043D01*
X59468Y-36397D01*
X59405Y-36397D01*
X59326Y-36430D01*
X59271Y-36485D01*
X59271Y-35390D01*
X59238Y-35310D01*
X59177Y-35249D01*
X59098Y-35216D01*
X59012Y-35216D01*
X58932Y-35249D01*
X58871Y-35310D01*
X58838Y-35389D01*
X58838Y-35475D01*
X58871Y-35555D01*
X58932Y-35616D01*
X59011Y-35649D01*
X59098Y-35649D01*
X59177Y-35616D01*
X59238Y-35555D01*
X59271Y-35476D01*
X59271Y-35390D01*
X59271Y-36485D01*
X59265Y-36491D01*
X59232Y-36570D01*
X59232Y-36657D01*
X59265Y-36736D01*
X59326Y-36797D01*
X59405Y-36830D01*
X59491Y-36830D01*
X59571Y-36797D01*
X59632Y-36736D01*
X59665Y-36657D01*
X59665Y-36571D01*
X59665Y-36878D01*
X59659Y-36885D01*
X59626Y-36964D01*
X59625Y-37050D01*
X59658Y-37130D01*
X59719Y-37191D01*
X59799Y-37224D01*
X59885Y-37224D01*
X59965Y-37191D01*
X60025Y-37130D01*
X60059Y-37051D01*
X60059Y-36964D01*
X60059Y-37666D01*
X60052Y-37672D01*
X60019Y-37752D01*
X60019Y-37838D01*
X60052Y-37917D01*
X60113Y-37978D01*
X60192Y-38011D01*
X60279Y-38011D01*
X60358Y-37978D01*
X60419Y-37918D01*
X60433Y-37885D01*
X60446Y-37917D01*
X60507Y-37978D01*
X60539Y-37992D01*
X60507Y-38005D01*
X60446Y-38066D01*
X60413Y-38145D01*
X60413Y-38231D01*
X60446Y-38311D01*
X60507Y-38372D01*
X60586Y-38405D01*
X60672Y-38405D01*
X60752Y-38372D01*
X60813Y-38311D01*
X60846Y-38232D01*
X60846Y-38146D01*
X60846Y-40508D01*
X60813Y-40428D01*
X60752Y-40367D01*
X60673Y-40334D01*
X60587Y-40334D01*
X60507Y-40367D01*
X60446Y-40428D01*
X60413Y-40507D01*
X60413Y-40594D01*
X60446Y-40673D01*
X60507Y-40734D01*
X60586Y-40767D01*
X60672Y-40767D01*
X60752Y-40734D01*
X60813Y-40673D01*
X60846Y-40594D01*
X60846Y-40508D01*
X60846Y-45779D01*
X60771Y-45748D01*
X60685Y-45747D01*
X60605Y-45780D01*
X60544Y-45841D01*
X60511Y-45921D01*
X60511Y-46007D01*
X60544Y-46087D01*
X60605Y-46148D01*
X60685Y-46181D01*
X60771Y-46181D01*
X60850Y-46148D01*
X60911Y-46087D01*
X60944Y-46007D01*
X60944Y-45921D01*
X60944Y-48117D01*
X60938Y-48124D01*
X60872Y-48283D01*
X60871Y-48455D01*
X60937Y-48615D01*
X61059Y-48737D01*
X61218Y-48803D01*
X61390Y-48803D01*
X61550Y-48737D01*
X61672Y-48615D01*
X61738Y-48456D01*
X61738Y-48284D01*
X61738Y-49284D01*
X61672Y-49125D01*
X61550Y-49003D01*
X61391Y-48937D01*
X61219Y-48936D01*
X61060Y-49002D01*
X60938Y-49124D01*
X60872Y-49283D01*
X60871Y-49455D01*
X60937Y-49615D01*
X61059Y-49737D01*
X61218Y-49803D01*
X61390Y-49803D01*
X61550Y-49737D01*
X61672Y-49615D01*
X61738Y-49456D01*
X61738Y-49284D01*
X61738Y-49980D01*
X60738Y-49980D01*
X60738Y-49284D01*
X60738Y-48284D01*
X60672Y-48125D01*
X60550Y-48003D01*
X60391Y-47937D01*
X60219Y-47936D01*
X60060Y-48002D01*
X60059Y-48003D01*
X60059Y-41000D01*
X60059Y-40508D01*
X60059Y-39327D01*
X60059Y-38146D01*
X60026Y-38066D01*
X59965Y-38005D01*
X59885Y-37972D01*
X59799Y-37972D01*
X59720Y-38005D01*
X59659Y-38066D01*
X59645Y-38098D01*
X59632Y-38066D01*
X59571Y-38005D01*
X59539Y-37992D01*
X59571Y-37978D01*
X59632Y-37918D01*
X59665Y-37838D01*
X59665Y-37752D01*
X59632Y-37672D01*
X59571Y-37611D01*
X59492Y-37578D01*
X59405Y-37578D01*
X59326Y-37611D01*
X59265Y-37672D01*
X59251Y-37704D01*
X59238Y-37672D01*
X59177Y-37611D01*
X59098Y-37578D01*
X59012Y-37578D01*
X58932Y-37611D01*
X58877Y-37666D01*
X58877Y-36964D01*
X58877Y-35783D01*
X58845Y-35704D01*
X58784Y-35643D01*
X58738Y-35624D01*
X58738Y-30284D01*
X58738Y-29284D01*
X58672Y-29125D01*
X58550Y-29003D01*
X58391Y-28937D01*
X58219Y-28936D01*
X58060Y-29002D01*
X57938Y-29124D01*
X57872Y-29283D01*
X57871Y-29455D01*
X57937Y-29615D01*
X58059Y-29737D01*
X58218Y-29803D01*
X58390Y-29803D01*
X58550Y-29737D01*
X58672Y-29615D01*
X58738Y-29456D01*
X58738Y-29284D01*
X58738Y-30284D01*
X58672Y-30125D01*
X58550Y-30003D01*
X58391Y-29937D01*
X58219Y-29936D01*
X58060Y-30002D01*
X57938Y-30124D01*
X57872Y-30283D01*
X57871Y-30455D01*
X57937Y-30615D01*
X58059Y-30737D01*
X58218Y-30803D01*
X58390Y-30803D01*
X58550Y-30737D01*
X58672Y-30615D01*
X58738Y-30456D01*
X58738Y-30284D01*
X58738Y-35624D01*
X58704Y-35610D01*
X58618Y-35610D01*
X58538Y-35643D01*
X58477Y-35703D01*
X58444Y-35783D01*
X58444Y-35869D01*
X58477Y-35949D01*
X58538Y-36010D01*
X58618Y-36043D01*
X58704Y-36043D01*
X58783Y-36010D01*
X58844Y-35949D01*
X58877Y-35870D01*
X58877Y-35783D01*
X58877Y-36964D01*
X58845Y-36885D01*
X58784Y-36824D01*
X58704Y-36791D01*
X58618Y-36791D01*
X58538Y-36824D01*
X58477Y-36885D01*
X58444Y-36964D01*
X58444Y-37050D01*
X58477Y-37130D01*
X58538Y-37191D01*
X58618Y-37224D01*
X58704Y-37224D01*
X58783Y-37191D01*
X58844Y-37130D01*
X58877Y-37051D01*
X58877Y-36964D01*
X58877Y-37666D01*
X58871Y-37672D01*
X58838Y-37752D01*
X58838Y-37838D01*
X58871Y-37917D01*
X58932Y-37978D01*
X59011Y-38011D01*
X59098Y-38011D01*
X59177Y-37978D01*
X59238Y-37918D01*
X59251Y-37885D01*
X59265Y-37917D01*
X59326Y-37978D01*
X59358Y-37992D01*
X59326Y-38005D01*
X59265Y-38066D01*
X59232Y-38145D01*
X59232Y-38231D01*
X59265Y-38311D01*
X59326Y-38372D01*
X59405Y-38405D01*
X59491Y-38405D01*
X59571Y-38372D01*
X59632Y-38311D01*
X59645Y-38279D01*
X59658Y-38311D01*
X59719Y-38372D01*
X59799Y-38405D01*
X59885Y-38405D01*
X59965Y-38372D01*
X60025Y-38311D01*
X60059Y-38232D01*
X60059Y-38146D01*
X60059Y-39327D01*
X60026Y-39247D01*
X59965Y-39186D01*
X59885Y-39153D01*
X59799Y-39153D01*
X59720Y-39186D01*
X59659Y-39247D01*
X59626Y-39326D01*
X59625Y-39412D01*
X59658Y-39492D01*
X59719Y-39553D01*
X59799Y-39586D01*
X59885Y-39586D01*
X59965Y-39553D01*
X60025Y-39492D01*
X60059Y-39413D01*
X60059Y-39327D01*
X60059Y-40508D01*
X60026Y-40428D01*
X59965Y-40367D01*
X59885Y-40334D01*
X59799Y-40334D01*
X59720Y-40367D01*
X59659Y-40428D01*
X59626Y-40507D01*
X59625Y-40594D01*
X59658Y-40673D01*
X59719Y-40734D01*
X59799Y-40767D01*
X59885Y-40767D01*
X59965Y-40734D01*
X60025Y-40673D01*
X60059Y-40594D01*
X60059Y-40508D01*
X60059Y-41000D01*
X60026Y-40920D01*
X59965Y-40859D01*
X59885Y-40826D01*
X59799Y-40826D01*
X59720Y-40859D01*
X59659Y-40920D01*
X59626Y-41000D01*
X59625Y-41086D01*
X59658Y-41165D01*
X59719Y-41226D01*
X59799Y-41259D01*
X59885Y-41259D01*
X59965Y-41226D01*
X60025Y-41166D01*
X60059Y-41086D01*
X60059Y-41000D01*
X60059Y-48003D01*
X59938Y-48124D01*
X59872Y-48283D01*
X59871Y-48455D01*
X59937Y-48615D01*
X60059Y-48737D01*
X60218Y-48803D01*
X60390Y-48803D01*
X60550Y-48737D01*
X60672Y-48615D01*
X60738Y-48456D01*
X60738Y-48284D01*
X60738Y-49284D01*
X60672Y-49125D01*
X60550Y-49003D01*
X60391Y-48937D01*
X60219Y-48936D01*
X60060Y-49002D01*
X59938Y-49124D01*
X59872Y-49283D01*
X59871Y-49455D01*
X59937Y-49615D01*
X60059Y-49737D01*
X60218Y-49803D01*
X60390Y-49803D01*
X60550Y-49737D01*
X60672Y-49615D01*
X60738Y-49456D01*
X60738Y-49284D01*
X60738Y-49980D01*
X59738Y-49980D01*
X59738Y-49284D01*
X59738Y-48284D01*
X59672Y-48125D01*
X59550Y-48003D01*
X59391Y-47937D01*
X59219Y-47936D01*
X59060Y-48002D01*
X58938Y-48124D01*
X58877Y-48269D01*
X58877Y-39720D01*
X58845Y-39641D01*
X58784Y-39580D01*
X58704Y-39547D01*
X58618Y-39547D01*
X58538Y-39580D01*
X58477Y-39640D01*
X58444Y-39720D01*
X58444Y-39806D01*
X58477Y-39886D01*
X58538Y-39947D01*
X58618Y-39980D01*
X58704Y-39980D01*
X58783Y-39947D01*
X58844Y-39886D01*
X58877Y-39807D01*
X58877Y-39720D01*
X58877Y-48269D01*
X58872Y-48283D01*
X58871Y-48455D01*
X58937Y-48615D01*
X59059Y-48737D01*
X59218Y-48803D01*
X59390Y-48803D01*
X59550Y-48737D01*
X59672Y-48615D01*
X59738Y-48456D01*
X59738Y-48284D01*
X59738Y-49284D01*
X59672Y-49125D01*
X59550Y-49003D01*
X59391Y-48937D01*
X59219Y-48936D01*
X59060Y-49002D01*
X58938Y-49124D01*
X58872Y-49283D01*
X58871Y-49455D01*
X58937Y-49615D01*
X59059Y-49737D01*
X59218Y-49803D01*
X59390Y-49803D01*
X59550Y-49737D01*
X59672Y-49615D01*
X59738Y-49456D01*
X59738Y-49284D01*
X59738Y-49980D01*
X58738Y-49980D01*
X58738Y-49284D01*
X58738Y-48284D01*
X58672Y-48125D01*
X58550Y-48003D01*
X58391Y-47937D01*
X58219Y-47936D01*
X58090Y-47990D01*
X58090Y-38539D01*
X58090Y-36571D01*
X58090Y-34209D01*
X58057Y-34129D01*
X57996Y-34068D01*
X57917Y-34035D01*
X57831Y-34035D01*
X57751Y-34068D01*
X57738Y-34081D01*
X57738Y-30284D01*
X57738Y-29284D01*
X57672Y-29125D01*
X57550Y-29003D01*
X57391Y-28937D01*
X57219Y-28936D01*
X57060Y-29002D01*
X56938Y-29124D01*
X56872Y-29283D01*
X56871Y-29455D01*
X56937Y-29615D01*
X57059Y-29737D01*
X57218Y-29803D01*
X57390Y-29803D01*
X57550Y-29737D01*
X57672Y-29615D01*
X57738Y-29456D01*
X57738Y-29284D01*
X57738Y-30284D01*
X57672Y-30125D01*
X57550Y-30003D01*
X57391Y-29937D01*
X57219Y-29936D01*
X57060Y-30002D01*
X56938Y-30124D01*
X56872Y-30283D01*
X56871Y-30455D01*
X56937Y-30615D01*
X57059Y-30737D01*
X57218Y-30803D01*
X57390Y-30803D01*
X57550Y-30737D01*
X57672Y-30615D01*
X57738Y-30456D01*
X57738Y-30284D01*
X57738Y-34081D01*
X57690Y-34129D01*
X57657Y-34208D01*
X57657Y-34294D01*
X57690Y-34374D01*
X57751Y-34435D01*
X57830Y-34468D01*
X57916Y-34468D01*
X57996Y-34435D01*
X58057Y-34374D01*
X58090Y-34295D01*
X58090Y-34209D01*
X58090Y-36571D01*
X58057Y-36491D01*
X57996Y-36430D01*
X57917Y-36397D01*
X57831Y-36397D01*
X57751Y-36430D01*
X57690Y-36491D01*
X57657Y-36570D01*
X57657Y-36657D01*
X57690Y-36736D01*
X57751Y-36797D01*
X57830Y-36830D01*
X57916Y-36830D01*
X57996Y-36797D01*
X58057Y-36736D01*
X58090Y-36657D01*
X58090Y-36571D01*
X58090Y-38539D01*
X58057Y-38460D01*
X57996Y-38399D01*
X57917Y-38366D01*
X57831Y-38366D01*
X57751Y-38399D01*
X57690Y-38459D01*
X57657Y-38539D01*
X57657Y-38625D01*
X57690Y-38705D01*
X57751Y-38766D01*
X57830Y-38799D01*
X57916Y-38799D01*
X57996Y-38766D01*
X58057Y-38705D01*
X58090Y-38625D01*
X58090Y-38539D01*
X58090Y-47990D01*
X58060Y-48002D01*
X57938Y-48124D01*
X57872Y-48283D01*
X57871Y-48455D01*
X57937Y-48615D01*
X58059Y-48737D01*
X58218Y-48803D01*
X58390Y-48803D01*
X58550Y-48737D01*
X58672Y-48615D01*
X58738Y-48456D01*
X58738Y-48284D01*
X58738Y-49284D01*
X58672Y-49125D01*
X58550Y-49003D01*
X58391Y-48937D01*
X58219Y-48936D01*
X58060Y-49002D01*
X57938Y-49124D01*
X57872Y-49283D01*
X57871Y-49455D01*
X57937Y-49615D01*
X58059Y-49737D01*
X58218Y-49803D01*
X58390Y-49803D01*
X58550Y-49737D01*
X58672Y-49615D01*
X58738Y-49456D01*
X58738Y-49284D01*
X58738Y-49980D01*
X57738Y-49980D01*
X57738Y-49284D01*
X57738Y-48284D01*
X57672Y-48125D01*
X57598Y-48050D01*
X57598Y-39130D01*
X57598Y-37358D01*
X57598Y-34209D01*
X57565Y-34129D01*
X57504Y-34068D01*
X57425Y-34035D01*
X57339Y-34035D01*
X57259Y-34068D01*
X57198Y-34129D01*
X57165Y-34208D01*
X57165Y-34294D01*
X57198Y-34374D01*
X57259Y-34435D01*
X57338Y-34468D01*
X57424Y-34468D01*
X57504Y-34435D01*
X57565Y-34374D01*
X57598Y-34295D01*
X57598Y-34209D01*
X57598Y-37358D01*
X57565Y-37279D01*
X57504Y-37218D01*
X57425Y-37185D01*
X57339Y-37185D01*
X57259Y-37217D01*
X57198Y-37278D01*
X57165Y-37358D01*
X57165Y-37444D01*
X57198Y-37524D01*
X57259Y-37585D01*
X57338Y-37618D01*
X57424Y-37618D01*
X57504Y-37585D01*
X57565Y-37524D01*
X57598Y-37444D01*
X57598Y-37358D01*
X57598Y-39130D01*
X57565Y-39050D01*
X57504Y-38989D01*
X57425Y-38956D01*
X57339Y-38956D01*
X57259Y-38989D01*
X57198Y-39050D01*
X57165Y-39129D01*
X57165Y-39216D01*
X57198Y-39295D01*
X57259Y-39356D01*
X57338Y-39389D01*
X57424Y-39389D01*
X57504Y-39356D01*
X57565Y-39296D01*
X57598Y-39216D01*
X57598Y-39130D01*
X57598Y-48050D01*
X57550Y-48003D01*
X57391Y-47937D01*
X57219Y-47936D01*
X57060Y-48002D01*
X56938Y-48124D01*
X56872Y-48283D01*
X56871Y-48455D01*
X56937Y-48615D01*
X57059Y-48737D01*
X57218Y-48803D01*
X57390Y-48803D01*
X57550Y-48737D01*
X57672Y-48615D01*
X57738Y-48456D01*
X57738Y-48284D01*
X57738Y-49284D01*
X57672Y-49125D01*
X57550Y-49003D01*
X57391Y-48937D01*
X57219Y-48936D01*
X57060Y-49002D01*
X56938Y-49124D01*
X56872Y-49283D01*
X56871Y-49455D01*
X56937Y-49615D01*
X57059Y-49737D01*
X57218Y-49803D01*
X57390Y-49803D01*
X57550Y-49737D01*
X57672Y-49615D01*
X57738Y-49456D01*
X57738Y-49284D01*
X57738Y-49980D01*
X56738Y-49980D01*
X56738Y-49284D01*
X56738Y-48284D01*
X56738Y-30284D01*
X56738Y-29284D01*
X56672Y-29125D01*
X56550Y-29003D01*
X56391Y-28937D01*
X56219Y-28936D01*
X56060Y-29002D01*
X55938Y-29124D01*
X55872Y-29283D01*
X55871Y-29455D01*
X55937Y-29615D01*
X56059Y-29737D01*
X56218Y-29803D01*
X56390Y-29803D01*
X56550Y-29737D01*
X56672Y-29615D01*
X56738Y-29456D01*
X56738Y-29284D01*
X56738Y-30284D01*
X56672Y-30125D01*
X56550Y-30003D01*
X56391Y-29937D01*
X56219Y-29936D01*
X56060Y-30002D01*
X55938Y-30124D01*
X55872Y-30283D01*
X55871Y-30455D01*
X55937Y-30615D01*
X56059Y-30737D01*
X56218Y-30803D01*
X56390Y-30803D01*
X56550Y-30737D01*
X56672Y-30615D01*
X56738Y-30456D01*
X56738Y-30284D01*
X56738Y-48284D01*
X56672Y-48125D01*
X56550Y-48003D01*
X56391Y-47937D01*
X56220Y-47936D01*
X56220Y-32043D01*
X56187Y-31964D01*
X56126Y-31903D01*
X56047Y-31870D01*
X55961Y-31870D01*
X55881Y-31902D01*
X55820Y-31963D01*
X55787Y-32043D01*
X55787Y-32129D01*
X55820Y-32209D01*
X55881Y-32270D01*
X55960Y-32303D01*
X56046Y-32303D01*
X56126Y-32270D01*
X56187Y-32209D01*
X56220Y-32129D01*
X56220Y-32043D01*
X56220Y-47936D01*
X56219Y-47936D01*
X56060Y-48002D01*
X55938Y-48124D01*
X55872Y-48283D01*
X55871Y-48455D01*
X55937Y-48615D01*
X56059Y-48737D01*
X56218Y-48803D01*
X56390Y-48803D01*
X56550Y-48737D01*
X56672Y-48615D01*
X56738Y-48456D01*
X56738Y-48284D01*
X56738Y-49284D01*
X56672Y-49125D01*
X56550Y-49003D01*
X56391Y-48937D01*
X56219Y-48936D01*
X56060Y-49002D01*
X55938Y-49124D01*
X55872Y-49283D01*
X55871Y-49455D01*
X55937Y-49615D01*
X56059Y-49737D01*
X56218Y-49803D01*
X56390Y-49803D01*
X56550Y-49737D01*
X56672Y-49615D01*
X56738Y-49456D01*
X56738Y-49284D01*
X56738Y-49980D01*
X55462Y-49980D01*
X55462Y-42057D01*
X55410Y-41931D01*
X55374Y-41894D01*
X55374Y-30657D01*
X55335Y-30563D01*
X55263Y-30491D01*
X55169Y-30452D01*
X55067Y-30452D01*
X54973Y-30491D01*
X54901Y-30563D01*
X54862Y-30657D01*
X54862Y-30759D01*
X54901Y-30853D01*
X54972Y-30925D01*
X55066Y-30964D01*
X55168Y-30964D01*
X55262Y-30925D01*
X55334Y-30853D01*
X55373Y-30759D01*
X55374Y-30657D01*
X55374Y-41894D01*
X55313Y-41834D01*
X55186Y-41781D01*
X55049Y-41781D01*
X54940Y-41826D01*
X54940Y-30961D01*
X54908Y-30881D01*
X54847Y-30820D01*
X54767Y-30787D01*
X54681Y-30787D01*
X54601Y-30820D01*
X54586Y-30835D01*
X54586Y-30657D01*
X54547Y-30563D01*
X54475Y-30491D01*
X54381Y-30452D01*
X54280Y-30452D01*
X54252Y-30464D01*
X54252Y-29287D01*
X54219Y-29208D01*
X54158Y-29147D01*
X54078Y-29114D01*
X53992Y-29114D01*
X53912Y-29147D01*
X53851Y-29207D01*
X53818Y-29287D01*
X53818Y-29373D01*
X53851Y-29453D01*
X53912Y-29514D01*
X53992Y-29547D01*
X54078Y-29547D01*
X54157Y-29514D01*
X54218Y-29453D01*
X54251Y-29373D01*
X54252Y-29287D01*
X54252Y-30464D01*
X54185Y-30491D01*
X54113Y-30563D01*
X54074Y-30657D01*
X54074Y-30759D01*
X54113Y-30853D01*
X54185Y-30925D01*
X54279Y-30964D01*
X54381Y-30964D01*
X54475Y-30925D01*
X54547Y-30853D01*
X54586Y-30759D01*
X54586Y-30657D01*
X54586Y-30835D01*
X54540Y-30881D01*
X54507Y-30960D01*
X54507Y-31046D01*
X54540Y-31126D01*
X54601Y-31187D01*
X54681Y-31220D01*
X54767Y-31220D01*
X54846Y-31187D01*
X54907Y-31126D01*
X54940Y-31047D01*
X54940Y-30961D01*
X54940Y-41826D01*
X54923Y-41833D01*
X54826Y-41930D01*
X54773Y-42057D01*
X54773Y-42194D01*
X54825Y-42320D01*
X54922Y-42417D01*
X55049Y-42470D01*
X55186Y-42470D01*
X55312Y-42418D01*
X55409Y-42321D01*
X55462Y-42194D01*
X55462Y-42057D01*
X55462Y-49980D01*
X54872Y-49980D01*
X54872Y-42648D01*
X54819Y-42521D01*
X54722Y-42424D01*
X54596Y-42372D01*
X54459Y-42371D01*
X54332Y-42424D01*
X54235Y-42521D01*
X54183Y-42647D01*
X54183Y-42784D01*
X54235Y-42911D01*
X54332Y-43008D01*
X54458Y-43060D01*
X54595Y-43061D01*
X54722Y-43008D01*
X54819Y-42911D01*
X54871Y-42785D01*
X54872Y-42648D01*
X54872Y-49980D01*
X54281Y-49980D01*
X54281Y-43238D01*
X54229Y-43112D01*
X54132Y-43015D01*
X54005Y-42962D01*
X53868Y-42962D01*
X53742Y-43014D01*
X53645Y-43111D01*
X53592Y-43238D01*
X53592Y-43375D01*
X53644Y-43501D01*
X53741Y-43598D01*
X53868Y-43651D01*
X54005Y-43651D01*
X54131Y-43599D01*
X54228Y-43502D01*
X54281Y-43375D01*
X54281Y-43238D01*
X54281Y-49980D01*
X53011Y-49980D01*
X53011Y-33020D01*
X52972Y-32926D01*
X52901Y-32854D01*
X52807Y-32815D01*
X52705Y-32814D01*
X52611Y-32853D01*
X52539Y-32925D01*
X52500Y-33019D01*
X52499Y-33121D01*
X52538Y-33215D01*
X52610Y-33287D01*
X52704Y-33326D01*
X52806Y-33326D01*
X52900Y-33287D01*
X52972Y-33216D01*
X53011Y-33121D01*
X53011Y-33020D01*
X53011Y-49980D01*
X52322Y-49980D01*
X52322Y-38531D01*
X52322Y-36957D01*
X52284Y-36863D01*
X52212Y-36791D01*
X52118Y-36752D01*
X52016Y-36751D01*
X51922Y-36790D01*
X51889Y-36823D01*
X51889Y-31256D01*
X51856Y-31176D01*
X51830Y-31150D01*
X51830Y-30264D01*
X51791Y-30170D01*
X51719Y-30098D01*
X51625Y-30059D01*
X51524Y-30059D01*
X51430Y-30097D01*
X51357Y-30169D01*
X51318Y-30263D01*
X51318Y-30365D01*
X51357Y-30459D01*
X51429Y-30531D01*
X51523Y-30570D01*
X51625Y-30570D01*
X51719Y-30532D01*
X51791Y-30460D01*
X51830Y-30366D01*
X51830Y-30264D01*
X51830Y-31150D01*
X51796Y-31115D01*
X51716Y-31082D01*
X51630Y-31082D01*
X51550Y-31115D01*
X51489Y-31176D01*
X51456Y-31255D01*
X51456Y-31342D01*
X51489Y-31421D01*
X51550Y-31482D01*
X51629Y-31515D01*
X51716Y-31515D01*
X51795Y-31482D01*
X51856Y-31422D01*
X51889Y-31342D01*
X51889Y-31256D01*
X51889Y-36823D01*
X51850Y-36862D01*
X51811Y-36956D01*
X51810Y-37058D01*
X51849Y-37152D01*
X51921Y-37224D01*
X52015Y-37263D01*
X52117Y-37263D01*
X52211Y-37224D01*
X52283Y-37153D01*
X52322Y-37059D01*
X52322Y-36957D01*
X52322Y-38531D01*
X52284Y-38437D01*
X52212Y-38365D01*
X52118Y-38326D01*
X52016Y-38326D01*
X51922Y-38365D01*
X51850Y-38437D01*
X51811Y-38531D01*
X51810Y-38633D01*
X51849Y-38727D01*
X51921Y-38799D01*
X52015Y-38838D01*
X52117Y-38838D01*
X52211Y-38799D01*
X52283Y-38727D01*
X52322Y-38633D01*
X52322Y-38531D01*
X52322Y-49980D01*
X51830Y-49980D01*
X51830Y-45224D01*
X51791Y-45130D01*
X51719Y-45058D01*
X51625Y-45019D01*
X51524Y-45019D01*
X51430Y-45058D01*
X51357Y-45130D01*
X51318Y-45224D01*
X51318Y-45326D01*
X51357Y-45420D01*
X51429Y-45492D01*
X51523Y-45531D01*
X51625Y-45531D01*
X51719Y-45492D01*
X51791Y-45420D01*
X51830Y-45326D01*
X51830Y-45224D01*
X51830Y-49980D01*
X51397Y-49980D01*
X51397Y-45527D01*
X51364Y-45448D01*
X51303Y-45387D01*
X51224Y-45354D01*
X51138Y-45354D01*
X51058Y-45387D01*
X51043Y-45402D01*
X51043Y-45224D01*
X51043Y-44043D01*
X51004Y-43949D01*
X50932Y-43877D01*
X50838Y-43838D01*
X50736Y-43838D01*
X50642Y-43877D01*
X50570Y-43949D01*
X50531Y-44043D01*
X50531Y-44145D01*
X50570Y-44239D01*
X50642Y-44311D01*
X50736Y-44350D01*
X50838Y-44350D01*
X50932Y-44311D01*
X51004Y-44239D01*
X51043Y-44145D01*
X51043Y-44043D01*
X51043Y-45224D01*
X51004Y-45130D01*
X50932Y-45058D01*
X50838Y-45019D01*
X50736Y-45019D01*
X50642Y-45058D01*
X50570Y-45130D01*
X50531Y-45224D01*
X50531Y-45326D01*
X50570Y-45420D01*
X50642Y-45492D01*
X50736Y-45531D01*
X50838Y-45531D01*
X50932Y-45492D01*
X51004Y-45420D01*
X51043Y-45326D01*
X51043Y-45224D01*
X51043Y-45402D01*
X50997Y-45448D01*
X50964Y-45527D01*
X50964Y-45613D01*
X50997Y-45693D01*
X51058Y-45754D01*
X51137Y-45787D01*
X51223Y-45787D01*
X51303Y-45754D01*
X51364Y-45693D01*
X51397Y-45614D01*
X51397Y-45527D01*
X51397Y-49980D01*
X50413Y-49980D01*
X50413Y-31650D01*
X50380Y-31570D01*
X50319Y-31509D01*
X50240Y-31476D01*
X50153Y-31476D01*
X50074Y-31509D01*
X50013Y-31570D01*
X49980Y-31649D01*
X49980Y-31735D01*
X50013Y-31815D01*
X50074Y-31876D01*
X50153Y-31909D01*
X50239Y-31909D01*
X50319Y-31876D01*
X50380Y-31815D01*
X50413Y-31736D01*
X50413Y-31650D01*
X50413Y-49980D01*
X49665Y-49980D01*
X49665Y-32331D01*
X49626Y-32237D01*
X49554Y-32165D01*
X49460Y-32126D01*
X49358Y-32125D01*
X49264Y-32164D01*
X49192Y-32236D01*
X49153Y-32330D01*
X49153Y-32432D01*
X49192Y-32526D01*
X49264Y-32598D01*
X49358Y-32637D01*
X49460Y-32637D01*
X49554Y-32598D01*
X49626Y-32527D01*
X49665Y-32433D01*
X49665Y-32331D01*
X49665Y-49980D01*
X49074Y-49980D01*
X49074Y-34102D01*
X49074Y-31248D01*
X49035Y-31154D01*
X48964Y-31082D01*
X48870Y-31043D01*
X48768Y-31043D01*
X48674Y-31082D01*
X48602Y-31154D01*
X48563Y-31248D01*
X48562Y-31349D01*
X48601Y-31443D01*
X48673Y-31516D01*
X48767Y-31555D01*
X48869Y-31555D01*
X48963Y-31516D01*
X49035Y-31444D01*
X49074Y-31350D01*
X49074Y-31248D01*
X49074Y-34102D01*
X49035Y-34008D01*
X48964Y-33936D01*
X48870Y-33897D01*
X48768Y-33897D01*
X48674Y-33936D01*
X48602Y-34008D01*
X48563Y-34102D01*
X48562Y-34204D01*
X48601Y-34298D01*
X48673Y-34370D01*
X48767Y-34409D01*
X48869Y-34409D01*
X48963Y-34370D01*
X49035Y-34298D01*
X49074Y-34204D01*
X49074Y-34102D01*
X49074Y-49980D01*
X48877Y-49980D01*
X48877Y-36268D01*
X48839Y-36174D01*
X48767Y-36102D01*
X48673Y-36063D01*
X48571Y-36062D01*
X48477Y-36101D01*
X48405Y-36173D01*
X48366Y-36267D01*
X48366Y-36369D01*
X48404Y-36463D01*
X48476Y-36535D01*
X48570Y-36574D01*
X48672Y-36574D01*
X48766Y-36535D01*
X48838Y-36464D01*
X48877Y-36370D01*
X48877Y-36268D01*
X48877Y-49980D01*
X48248Y-49980D01*
X48248Y-44839D01*
X48215Y-44759D01*
X48154Y-44698D01*
X48090Y-44671D01*
X48090Y-36268D01*
X48090Y-31248D01*
X48051Y-31154D01*
X47979Y-31082D01*
X47885Y-31043D01*
X47783Y-31043D01*
X47689Y-31082D01*
X47617Y-31154D01*
X47578Y-31248D01*
X47578Y-31349D01*
X47617Y-31443D01*
X47689Y-31516D01*
X47783Y-31555D01*
X47885Y-31555D01*
X47979Y-31516D01*
X48051Y-31444D01*
X48090Y-31350D01*
X48090Y-31248D01*
X48090Y-36268D01*
X48051Y-36174D01*
X47979Y-36102D01*
X47885Y-36063D01*
X47783Y-36062D01*
X47689Y-36101D01*
X47617Y-36173D01*
X47578Y-36267D01*
X47578Y-36369D01*
X47617Y-36463D01*
X47689Y-36535D01*
X47783Y-36574D01*
X47885Y-36574D01*
X47979Y-36535D01*
X48051Y-36464D01*
X48090Y-36370D01*
X48090Y-36268D01*
X48090Y-44671D01*
X48074Y-44665D01*
X47988Y-44665D01*
X47908Y-44698D01*
X47848Y-44759D01*
X47814Y-44838D01*
X47814Y-44924D01*
X47847Y-45004D01*
X47908Y-45065D01*
X47988Y-45098D01*
X48074Y-45098D01*
X48153Y-45065D01*
X48214Y-45004D01*
X48247Y-44925D01*
X48248Y-44839D01*
X48248Y-49980D01*
X45531Y-49980D01*
X45531Y-34102D01*
X45492Y-34008D01*
X45420Y-33936D01*
X45326Y-33897D01*
X45224Y-33897D01*
X45130Y-33936D01*
X45078Y-33988D01*
X45027Y-33936D01*
X44933Y-33897D01*
X44842Y-33897D01*
X44842Y-31346D01*
X44803Y-31252D01*
X44731Y-31180D01*
X44637Y-31141D01*
X44535Y-31141D01*
X44441Y-31180D01*
X44369Y-31252D01*
X44330Y-31346D01*
X44330Y-31448D01*
X44369Y-31542D01*
X44441Y-31614D01*
X44535Y-31653D01*
X44637Y-31653D01*
X44731Y-31614D01*
X44803Y-31542D01*
X44842Y-31448D01*
X44842Y-31346D01*
X44842Y-33897D01*
X44831Y-33897D01*
X44737Y-33936D01*
X44665Y-34008D01*
X44626Y-34102D01*
X44625Y-34204D01*
X44664Y-34298D01*
X44736Y-34370D01*
X44830Y-34409D01*
X44932Y-34409D01*
X45026Y-34370D01*
X45078Y-34318D01*
X45130Y-34370D01*
X45224Y-34409D01*
X45326Y-34409D01*
X45420Y-34370D01*
X45492Y-34298D01*
X45531Y-34204D01*
X45531Y-34102D01*
X45531Y-49980D01*
X45000Y-49980D01*
X45000Y-43854D01*
X44967Y-43775D01*
X44906Y-43714D01*
X44826Y-43681D01*
X44740Y-43681D01*
X44660Y-43713D01*
X44600Y-43774D01*
X44566Y-43854D01*
X44566Y-43940D01*
X44599Y-44020D01*
X44660Y-44081D01*
X44740Y-44114D01*
X44826Y-44114D01*
X44905Y-44081D01*
X44966Y-44020D01*
X44999Y-43940D01*
X45000Y-43854D01*
X45000Y-49980D01*
X44350Y-49980D01*
X44350Y-34102D01*
X44311Y-34008D01*
X44239Y-33936D01*
X44145Y-33897D01*
X44043Y-33897D01*
X43949Y-33936D01*
X43877Y-34008D01*
X43838Y-34102D01*
X43838Y-34204D01*
X43877Y-34298D01*
X43949Y-34370D01*
X44043Y-34409D01*
X44145Y-34409D01*
X44239Y-34370D01*
X44311Y-34298D01*
X44350Y-34204D01*
X44350Y-34102D01*
X44350Y-49980D01*
X41358Y-49980D01*
X41358Y-42378D01*
X41325Y-42298D01*
X41264Y-42237D01*
X41232Y-42224D01*
X41264Y-42211D01*
X41325Y-42150D01*
X41358Y-42070D01*
X41358Y-41984D01*
X41325Y-41905D01*
X41264Y-41844D01*
X41232Y-41830D01*
X41264Y-41817D01*
X41325Y-41756D01*
X41358Y-41677D01*
X41358Y-41590D01*
X41325Y-41511D01*
X41264Y-41450D01*
X41184Y-41417D01*
X41098Y-41417D01*
X41019Y-41450D01*
X40958Y-41511D01*
X40925Y-41590D01*
X40925Y-41676D01*
X40958Y-41756D01*
X41018Y-41817D01*
X41051Y-41830D01*
X41019Y-41843D01*
X40958Y-41904D01*
X40925Y-41984D01*
X40925Y-42070D01*
X40958Y-42150D01*
X41018Y-42211D01*
X41051Y-42224D01*
X41019Y-42237D01*
X40958Y-42298D01*
X40925Y-42377D01*
X40925Y-42464D01*
X40958Y-42543D01*
X41018Y-42604D01*
X41098Y-42637D01*
X41184Y-42637D01*
X41264Y-42604D01*
X41325Y-42544D01*
X41358Y-42464D01*
X41358Y-42378D01*
X41358Y-49980D01*
X40807Y-49980D01*
X40807Y-43846D01*
X40768Y-43752D01*
X40767Y-43752D01*
X40767Y-42870D01*
X40734Y-42790D01*
X40673Y-42729D01*
X40594Y-42696D01*
X40508Y-42696D01*
X40428Y-42729D01*
X40367Y-42790D01*
X40334Y-42870D01*
X40334Y-42956D01*
X40367Y-43035D01*
X40428Y-43096D01*
X40507Y-43129D01*
X40594Y-43129D01*
X40673Y-43097D01*
X40734Y-43036D01*
X40767Y-42956D01*
X40767Y-42870D01*
X40767Y-43752D01*
X40696Y-43680D01*
X40602Y-43641D01*
X40500Y-43641D01*
X40406Y-43680D01*
X40334Y-43752D01*
X40295Y-43846D01*
X40295Y-43948D01*
X40334Y-44042D01*
X40406Y-44114D01*
X40500Y-44153D01*
X40601Y-44153D01*
X40695Y-44114D01*
X40768Y-44042D01*
X40807Y-43948D01*
X40807Y-43846D01*
X40807Y-49980D01*
X39685Y-49980D01*
X39685Y-44445D01*
X39652Y-44365D01*
X39591Y-44304D01*
X39511Y-44271D01*
X39488Y-44271D01*
X39488Y-42279D01*
X39455Y-42200D01*
X39394Y-42139D01*
X39314Y-42106D01*
X39228Y-42106D01*
X39149Y-42139D01*
X39088Y-42200D01*
X39074Y-42232D01*
X39061Y-42200D01*
X39000Y-42139D01*
X38921Y-42106D01*
X38835Y-42106D01*
X38755Y-42139D01*
X38694Y-42200D01*
X38661Y-42279D01*
X38661Y-42365D01*
X38694Y-42445D01*
X38755Y-42506D01*
X38834Y-42539D01*
X38920Y-42539D01*
X39000Y-42506D01*
X39061Y-42445D01*
X39074Y-42413D01*
X39087Y-42445D01*
X39148Y-42506D01*
X39228Y-42539D01*
X39314Y-42539D01*
X39394Y-42506D01*
X39455Y-42445D01*
X39488Y-42366D01*
X39488Y-42279D01*
X39488Y-44271D01*
X39425Y-44271D01*
X39346Y-44304D01*
X39285Y-44365D01*
X39252Y-44444D01*
X39251Y-44531D01*
X39284Y-44610D01*
X39345Y-44671D01*
X39425Y-44704D01*
X39511Y-44704D01*
X39591Y-44671D01*
X39651Y-44611D01*
X39685Y-44531D01*
X39685Y-44445D01*
X39685Y-49980D01*
X38405Y-49980D01*
X38405Y-43854D01*
X38372Y-43775D01*
X38311Y-43714D01*
X38232Y-43681D01*
X38146Y-43681D01*
X38066Y-43713D01*
X38005Y-43774D01*
X37972Y-43854D01*
X37972Y-43940D01*
X38005Y-44020D01*
X38066Y-44081D01*
X38145Y-44114D01*
X38231Y-44114D01*
X38311Y-44081D01*
X38372Y-44020D01*
X38405Y-43940D01*
X38405Y-43854D01*
X38405Y-49980D01*
X33400Y-49980D01*
X33400Y-48726D01*
X33400Y-29726D01*
X33290Y-29460D01*
X33087Y-29257D01*
X32821Y-29146D01*
X32533Y-29146D01*
X32267Y-29256D01*
X32064Y-29459D01*
X31953Y-29725D01*
X31953Y-30013D01*
X32063Y-30279D01*
X32266Y-30483D01*
X32532Y-30593D01*
X32820Y-30593D01*
X33086Y-30483D01*
X33290Y-30280D01*
X33400Y-30014D01*
X33400Y-29726D01*
X33400Y-48726D01*
X33290Y-48460D01*
X33104Y-48273D01*
X33104Y-38947D01*
X33100Y-38875D01*
X33100Y-38191D01*
X33100Y-37541D01*
X33085Y-37505D01*
X33057Y-37477D01*
X33021Y-37462D01*
X32982Y-37462D01*
X32332Y-37462D01*
X32296Y-37477D01*
X32268Y-37505D01*
X32253Y-37541D01*
X32253Y-37580D01*
X32253Y-38230D01*
X32268Y-38266D01*
X32296Y-38294D01*
X32332Y-38309D01*
X32371Y-38309D01*
X33021Y-38309D01*
X33057Y-38294D01*
X33085Y-38266D01*
X33100Y-38230D01*
X33100Y-38191D01*
X33100Y-38875D01*
X33095Y-38779D01*
X33047Y-38665D01*
X32991Y-38627D01*
X32935Y-38682D01*
X32935Y-38571D01*
X32897Y-38515D01*
X32739Y-38458D01*
X32571Y-38467D01*
X32456Y-38515D01*
X32418Y-38571D01*
X32677Y-38830D01*
X32935Y-38571D01*
X32935Y-38682D01*
X32732Y-38885D01*
X32991Y-39144D01*
X33047Y-39106D01*
X33104Y-38947D01*
X33104Y-48273D01*
X33087Y-48257D01*
X32935Y-48194D01*
X32935Y-39200D01*
X32677Y-38941D01*
X32621Y-38997D01*
X32621Y-38885D01*
X32362Y-38627D01*
X32306Y-38665D01*
X32250Y-38823D01*
X32258Y-38991D01*
X32306Y-39106D01*
X32362Y-39144D01*
X32621Y-38885D01*
X32621Y-38997D01*
X32418Y-39200D01*
X32456Y-39256D01*
X32615Y-39312D01*
X32783Y-39304D01*
X32897Y-39256D01*
X32935Y-39200D01*
X32935Y-48194D01*
X32821Y-48146D01*
X32533Y-48146D01*
X32267Y-48256D01*
X32064Y-48459D01*
X31953Y-48725D01*
X31953Y-49013D01*
X32063Y-49279D01*
X32266Y-49483D01*
X32532Y-49593D01*
X32820Y-49593D01*
X33086Y-49483D01*
X33290Y-49280D01*
X33400Y-49014D01*
X33400Y-48726D01*
X33400Y-49980D01*
X31660Y-49980D01*
X31660Y-45280D01*
X31660Y-44985D01*
X31660Y-44689D01*
X31648Y-44620D01*
X31646Y-44615D01*
X31614Y-44608D01*
X31559Y-44663D01*
X31559Y-44552D01*
X31552Y-44521D01*
X31483Y-44506D01*
X31413Y-44519D01*
X31408Y-44521D01*
X31401Y-44552D01*
X31480Y-44631D01*
X31559Y-44552D01*
X31559Y-44663D01*
X31535Y-44687D01*
X31614Y-44765D01*
X31646Y-44758D01*
X31660Y-44689D01*
X31660Y-44985D01*
X31648Y-44915D01*
X31646Y-44910D01*
X31614Y-44903D01*
X31559Y-44959D01*
X31559Y-44847D01*
X31556Y-44834D01*
X31559Y-44821D01*
X31480Y-44742D01*
X31424Y-44798D01*
X31424Y-44687D01*
X31345Y-44608D01*
X31332Y-44611D01*
X31319Y-44608D01*
X31263Y-44663D01*
X31263Y-44552D01*
X31256Y-44521D01*
X31187Y-44506D01*
X31118Y-44519D01*
X31113Y-44521D01*
X31106Y-44552D01*
X31185Y-44631D01*
X31263Y-44552D01*
X31263Y-44663D01*
X31240Y-44687D01*
X31319Y-44765D01*
X31332Y-44762D01*
X31345Y-44765D01*
X31424Y-44687D01*
X31424Y-44798D01*
X31401Y-44821D01*
X31404Y-44834D01*
X31401Y-44847D01*
X31480Y-44926D01*
X31559Y-44847D01*
X31559Y-44959D01*
X31535Y-44982D01*
X31614Y-45061D01*
X31646Y-45054D01*
X31660Y-44985D01*
X31660Y-45280D01*
X31648Y-45211D01*
X31646Y-45205D01*
X31614Y-45198D01*
X31559Y-45254D01*
X31559Y-45142D01*
X31556Y-45129D01*
X31559Y-45116D01*
X31480Y-45037D01*
X31424Y-45093D01*
X31424Y-44982D01*
X31345Y-44903D01*
X31332Y-44906D01*
X31319Y-44903D01*
X31263Y-44959D01*
X31263Y-44847D01*
X31260Y-44834D01*
X31263Y-44821D01*
X31185Y-44742D01*
X31129Y-44798D01*
X31129Y-44687D01*
X31050Y-44608D01*
X31037Y-44611D01*
X31024Y-44608D01*
X30968Y-44663D01*
X30968Y-44552D01*
X30961Y-44521D01*
X30892Y-44506D01*
X30823Y-44519D01*
X30817Y-44521D01*
X30810Y-44552D01*
X30889Y-44631D01*
X30968Y-44552D01*
X30968Y-44663D01*
X30945Y-44687D01*
X31024Y-44765D01*
X31037Y-44762D01*
X31050Y-44765D01*
X31129Y-44687D01*
X31129Y-44798D01*
X31106Y-44821D01*
X31109Y-44834D01*
X31106Y-44847D01*
X31185Y-44926D01*
X31263Y-44847D01*
X31263Y-44959D01*
X31240Y-44982D01*
X31319Y-45061D01*
X31332Y-45058D01*
X31345Y-45061D01*
X31424Y-44982D01*
X31424Y-45093D01*
X31401Y-45116D01*
X31404Y-45129D01*
X31401Y-45142D01*
X31480Y-45221D01*
X31559Y-45142D01*
X31559Y-45254D01*
X31535Y-45277D01*
X31614Y-45356D01*
X31646Y-45349D01*
X31660Y-45280D01*
X31660Y-49980D01*
X31559Y-49980D01*
X31559Y-45412D01*
X31480Y-45333D01*
X31424Y-45388D01*
X31424Y-45277D01*
X31345Y-45198D01*
X31332Y-45201D01*
X31319Y-45198D01*
X31263Y-45254D01*
X31263Y-45142D01*
X31260Y-45129D01*
X31263Y-45116D01*
X31185Y-45037D01*
X31129Y-45093D01*
X31129Y-44982D01*
X31050Y-44903D01*
X31037Y-44906D01*
X31024Y-44903D01*
X30968Y-44959D01*
X30968Y-44847D01*
X30965Y-44834D01*
X30968Y-44821D01*
X30889Y-44742D01*
X30834Y-44798D01*
X30834Y-44687D01*
X30755Y-44608D01*
X30723Y-44615D01*
X30709Y-44684D01*
X30721Y-44753D01*
X30723Y-44758D01*
X30755Y-44765D01*
X30834Y-44687D01*
X30834Y-44798D01*
X30810Y-44821D01*
X30813Y-44834D01*
X30810Y-44847D01*
X30889Y-44926D01*
X30968Y-44847D01*
X30968Y-44959D01*
X30945Y-44982D01*
X31024Y-45061D01*
X31037Y-45058D01*
X31050Y-45061D01*
X31129Y-44982D01*
X31129Y-45093D01*
X31106Y-45116D01*
X31109Y-45129D01*
X31106Y-45142D01*
X31185Y-45221D01*
X31263Y-45142D01*
X31263Y-45254D01*
X31240Y-45277D01*
X31319Y-45356D01*
X31332Y-45353D01*
X31345Y-45356D01*
X31424Y-45277D01*
X31424Y-45388D01*
X31401Y-45412D01*
X31408Y-45443D01*
X31477Y-45458D01*
X31546Y-45445D01*
X31552Y-45443D01*
X31559Y-45412D01*
X31559Y-49980D01*
X31263Y-49980D01*
X31263Y-45412D01*
X31185Y-45333D01*
X31129Y-45388D01*
X31129Y-45277D01*
X31050Y-45198D01*
X31037Y-45201D01*
X31024Y-45198D01*
X30968Y-45254D01*
X30968Y-45142D01*
X30965Y-45129D01*
X30968Y-45116D01*
X30889Y-45037D01*
X30834Y-45093D01*
X30834Y-44982D01*
X30755Y-44903D01*
X30723Y-44910D01*
X30709Y-44979D01*
X30721Y-45048D01*
X30723Y-45054D01*
X30755Y-45061D01*
X30834Y-44982D01*
X30834Y-45093D01*
X30810Y-45116D01*
X30813Y-45129D01*
X30810Y-45142D01*
X30889Y-45221D01*
X30968Y-45142D01*
X30968Y-45254D01*
X30945Y-45277D01*
X31024Y-45356D01*
X31037Y-45353D01*
X31050Y-45356D01*
X31129Y-45277D01*
X31129Y-45388D01*
X31106Y-45412D01*
X31113Y-45443D01*
X31182Y-45458D01*
X31251Y-45445D01*
X31256Y-45443D01*
X31263Y-45412D01*
X31263Y-49980D01*
X30968Y-49980D01*
X30968Y-45412D01*
X30889Y-45333D01*
X30834Y-45388D01*
X30834Y-45277D01*
X30755Y-45198D01*
X30723Y-45205D01*
X30709Y-45274D01*
X30721Y-45344D01*
X30723Y-45349D01*
X30755Y-45356D01*
X30834Y-45277D01*
X30834Y-45388D01*
X30810Y-45412D01*
X30817Y-45443D01*
X30886Y-45458D01*
X30956Y-45445D01*
X30961Y-45443D01*
X30968Y-45412D01*
X30968Y-49980D01*
X30137Y-49980D01*
X30137Y-44114D01*
X32303Y-44114D01*
X32303Y-42500D01*
X31660Y-42500D01*
X31660Y-41930D01*
X31660Y-41634D01*
X31660Y-41339D01*
X31660Y-35634D01*
X31660Y-35339D01*
X31660Y-35044D01*
X31660Y-32284D01*
X31660Y-31989D01*
X31660Y-31693D01*
X31648Y-31624D01*
X31646Y-31619D01*
X31614Y-31612D01*
X31559Y-31667D01*
X31559Y-31556D01*
X31552Y-31525D01*
X31483Y-31510D01*
X31413Y-31522D01*
X31408Y-31525D01*
X31401Y-31556D01*
X31480Y-31635D01*
X31559Y-31556D01*
X31559Y-31667D01*
X31535Y-31690D01*
X31614Y-31769D01*
X31646Y-31762D01*
X31660Y-31693D01*
X31660Y-31989D01*
X31648Y-31919D01*
X31646Y-31914D01*
X31614Y-31907D01*
X31559Y-31962D01*
X31559Y-31851D01*
X31556Y-31838D01*
X31559Y-31825D01*
X31480Y-31746D01*
X31424Y-31802D01*
X31424Y-31690D01*
X31345Y-31612D01*
X31332Y-31615D01*
X31319Y-31612D01*
X31263Y-31667D01*
X31263Y-31556D01*
X31256Y-31525D01*
X31187Y-31510D01*
X31118Y-31522D01*
X31113Y-31525D01*
X31106Y-31556D01*
X31185Y-31635D01*
X31263Y-31556D01*
X31263Y-31667D01*
X31240Y-31690D01*
X31319Y-31769D01*
X31332Y-31766D01*
X31345Y-31769D01*
X31424Y-31690D01*
X31424Y-31802D01*
X31401Y-31825D01*
X31404Y-31838D01*
X31401Y-31851D01*
X31480Y-31930D01*
X31559Y-31851D01*
X31559Y-31962D01*
X31535Y-31986D01*
X31614Y-32065D01*
X31646Y-32057D01*
X31660Y-31989D01*
X31660Y-32284D01*
X31648Y-32215D01*
X31646Y-32209D01*
X31614Y-32202D01*
X31559Y-32258D01*
X31559Y-32146D01*
X31556Y-32133D01*
X31559Y-32120D01*
X31480Y-32041D01*
X31424Y-32097D01*
X31424Y-31986D01*
X31345Y-31907D01*
X31332Y-31910D01*
X31319Y-31907D01*
X31263Y-31962D01*
X31263Y-31851D01*
X31260Y-31838D01*
X31263Y-31825D01*
X31185Y-31746D01*
X31129Y-31802D01*
X31129Y-31690D01*
X31050Y-31612D01*
X31037Y-31615D01*
X31024Y-31612D01*
X30968Y-31667D01*
X30968Y-31556D01*
X30961Y-31525D01*
X30892Y-31510D01*
X30823Y-31522D01*
X30817Y-31525D01*
X30810Y-31556D01*
X30889Y-31635D01*
X30968Y-31556D01*
X30968Y-31667D01*
X30945Y-31690D01*
X31024Y-31769D01*
X31037Y-31766D01*
X31050Y-31769D01*
X31129Y-31690D01*
X31129Y-31802D01*
X31106Y-31825D01*
X31109Y-31838D01*
X31106Y-31851D01*
X31185Y-31930D01*
X31263Y-31851D01*
X31263Y-31962D01*
X31240Y-31986D01*
X31319Y-32065D01*
X31332Y-32062D01*
X31345Y-32065D01*
X31424Y-31986D01*
X31424Y-32097D01*
X31401Y-32120D01*
X31404Y-32133D01*
X31401Y-32146D01*
X31480Y-32225D01*
X31559Y-32146D01*
X31559Y-32258D01*
X31535Y-32281D01*
X31614Y-32360D01*
X31646Y-32353D01*
X31660Y-32284D01*
X31660Y-35044D01*
X31648Y-34974D01*
X31646Y-34969D01*
X31614Y-34962D01*
X31559Y-35018D01*
X31559Y-34906D01*
X31559Y-32416D01*
X31480Y-32337D01*
X31424Y-32392D01*
X31424Y-32281D01*
X31345Y-32202D01*
X31332Y-32205D01*
X31319Y-32202D01*
X31263Y-32258D01*
X31263Y-32146D01*
X31260Y-32133D01*
X31263Y-32120D01*
X31185Y-32041D01*
X31129Y-32097D01*
X31129Y-31986D01*
X31050Y-31907D01*
X31037Y-31910D01*
X31024Y-31907D01*
X30968Y-31962D01*
X30968Y-31851D01*
X30965Y-31838D01*
X30968Y-31825D01*
X30889Y-31746D01*
X30834Y-31802D01*
X30834Y-31690D01*
X30755Y-31612D01*
X30723Y-31619D01*
X30709Y-31688D01*
X30721Y-31757D01*
X30723Y-31762D01*
X30755Y-31769D01*
X30834Y-31690D01*
X30834Y-31802D01*
X30810Y-31825D01*
X30813Y-31838D01*
X30810Y-31851D01*
X30889Y-31930D01*
X30968Y-31851D01*
X30968Y-31962D01*
X30945Y-31986D01*
X31024Y-32065D01*
X31037Y-32062D01*
X31050Y-32065D01*
X31129Y-31986D01*
X31129Y-32097D01*
X31106Y-32120D01*
X31109Y-32133D01*
X31106Y-32146D01*
X31185Y-32225D01*
X31263Y-32146D01*
X31263Y-32258D01*
X31240Y-32281D01*
X31319Y-32360D01*
X31332Y-32357D01*
X31345Y-32360D01*
X31424Y-32281D01*
X31424Y-32392D01*
X31401Y-32416D01*
X31408Y-32447D01*
X31477Y-32462D01*
X31546Y-32449D01*
X31552Y-32447D01*
X31559Y-32416D01*
X31559Y-34906D01*
X31552Y-34875D01*
X31483Y-34860D01*
X31413Y-34873D01*
X31408Y-34875D01*
X31401Y-34906D01*
X31480Y-34985D01*
X31559Y-34906D01*
X31559Y-35018D01*
X31535Y-35041D01*
X31614Y-35120D01*
X31646Y-35113D01*
X31660Y-35044D01*
X31660Y-35339D01*
X31648Y-35270D01*
X31646Y-35264D01*
X31614Y-35257D01*
X31559Y-35313D01*
X31559Y-35202D01*
X31556Y-35188D01*
X31559Y-35175D01*
X31480Y-35097D01*
X31424Y-35152D01*
X31424Y-35041D01*
X31345Y-34962D01*
X31332Y-34965D01*
X31319Y-34962D01*
X31263Y-35018D01*
X31263Y-34906D01*
X31263Y-32416D01*
X31185Y-32337D01*
X31129Y-32392D01*
X31129Y-32281D01*
X31050Y-32202D01*
X31037Y-32205D01*
X31024Y-32202D01*
X30968Y-32258D01*
X30968Y-32146D01*
X30965Y-32133D01*
X30968Y-32120D01*
X30889Y-32041D01*
X30834Y-32097D01*
X30834Y-31986D01*
X30755Y-31907D01*
X30723Y-31914D01*
X30709Y-31983D01*
X30721Y-32052D01*
X30723Y-32057D01*
X30755Y-32065D01*
X30834Y-31986D01*
X30834Y-32097D01*
X30810Y-32120D01*
X30813Y-32133D01*
X30810Y-32146D01*
X30889Y-32225D01*
X30968Y-32146D01*
X30968Y-32258D01*
X30945Y-32281D01*
X31024Y-32360D01*
X31037Y-32357D01*
X31050Y-32360D01*
X31129Y-32281D01*
X31129Y-32392D01*
X31106Y-32416D01*
X31113Y-32447D01*
X31182Y-32462D01*
X31251Y-32449D01*
X31256Y-32447D01*
X31263Y-32416D01*
X31263Y-34906D01*
X31256Y-34875D01*
X31187Y-34860D01*
X31118Y-34873D01*
X31113Y-34875D01*
X31106Y-34906D01*
X31185Y-34985D01*
X31263Y-34906D01*
X31263Y-35018D01*
X31240Y-35041D01*
X31319Y-35120D01*
X31332Y-35117D01*
X31345Y-35120D01*
X31424Y-35041D01*
X31424Y-35152D01*
X31401Y-35175D01*
X31404Y-35188D01*
X31401Y-35202D01*
X31480Y-35280D01*
X31559Y-35202D01*
X31559Y-35313D01*
X31535Y-35336D01*
X31614Y-35415D01*
X31646Y-35408D01*
X31660Y-35339D01*
X31660Y-35634D01*
X31648Y-35565D01*
X31646Y-35560D01*
X31614Y-35552D01*
X31559Y-35608D01*
X31559Y-35497D01*
X31556Y-35484D01*
X31559Y-35471D01*
X31480Y-35392D01*
X31424Y-35447D01*
X31424Y-35336D01*
X31345Y-35257D01*
X31332Y-35260D01*
X31319Y-35257D01*
X31263Y-35313D01*
X31263Y-35202D01*
X31260Y-35188D01*
X31263Y-35175D01*
X31185Y-35097D01*
X31129Y-35152D01*
X31129Y-35041D01*
X31050Y-34962D01*
X31037Y-34965D01*
X31024Y-34962D01*
X30968Y-35018D01*
X30968Y-34906D01*
X30968Y-32416D01*
X30889Y-32337D01*
X30834Y-32392D01*
X30834Y-32281D01*
X30755Y-32202D01*
X30723Y-32209D01*
X30709Y-32278D01*
X30721Y-32347D01*
X30723Y-32353D01*
X30755Y-32360D01*
X30834Y-32281D01*
X30834Y-32392D01*
X30810Y-32416D01*
X30817Y-32447D01*
X30886Y-32462D01*
X30956Y-32449D01*
X30961Y-32447D01*
X30968Y-32416D01*
X30968Y-34906D01*
X30961Y-34875D01*
X30892Y-34860D01*
X30823Y-34873D01*
X30817Y-34875D01*
X30810Y-34906D01*
X30889Y-34985D01*
X30968Y-34906D01*
X30968Y-35018D01*
X30945Y-35041D01*
X31024Y-35120D01*
X31037Y-35117D01*
X31050Y-35120D01*
X31129Y-35041D01*
X31129Y-35152D01*
X31106Y-35175D01*
X31109Y-35188D01*
X31106Y-35202D01*
X31185Y-35280D01*
X31263Y-35202D01*
X31263Y-35313D01*
X31240Y-35336D01*
X31319Y-35415D01*
X31332Y-35412D01*
X31345Y-35415D01*
X31424Y-35336D01*
X31424Y-35447D01*
X31401Y-35471D01*
X31404Y-35484D01*
X31401Y-35497D01*
X31480Y-35576D01*
X31559Y-35497D01*
X31559Y-35608D01*
X31535Y-35631D01*
X31614Y-35710D01*
X31646Y-35703D01*
X31660Y-35634D01*
X31660Y-41339D01*
X31648Y-41270D01*
X31646Y-41264D01*
X31614Y-41257D01*
X31559Y-41313D01*
X31559Y-41202D01*
X31559Y-35766D01*
X31480Y-35687D01*
X31424Y-35743D01*
X31424Y-35631D01*
X31345Y-35552D01*
X31332Y-35555D01*
X31319Y-35552D01*
X31263Y-35608D01*
X31263Y-35497D01*
X31260Y-35484D01*
X31263Y-35471D01*
X31185Y-35392D01*
X31129Y-35447D01*
X31129Y-35336D01*
X31050Y-35257D01*
X31037Y-35260D01*
X31024Y-35257D01*
X30968Y-35313D01*
X30968Y-35202D01*
X30965Y-35188D01*
X30968Y-35175D01*
X30889Y-35097D01*
X30834Y-35152D01*
X30834Y-35041D01*
X30755Y-34962D01*
X30723Y-34969D01*
X30709Y-35038D01*
X30721Y-35107D01*
X30723Y-35113D01*
X30755Y-35120D01*
X30834Y-35041D01*
X30834Y-35152D01*
X30810Y-35175D01*
X30813Y-35188D01*
X30810Y-35202D01*
X30889Y-35280D01*
X30968Y-35202D01*
X30968Y-35313D01*
X30945Y-35336D01*
X31024Y-35415D01*
X31037Y-35412D01*
X31050Y-35415D01*
X31129Y-35336D01*
X31129Y-35447D01*
X31106Y-35471D01*
X31109Y-35484D01*
X31106Y-35497D01*
X31185Y-35576D01*
X31263Y-35497D01*
X31263Y-35608D01*
X31240Y-35631D01*
X31319Y-35710D01*
X31332Y-35707D01*
X31345Y-35710D01*
X31424Y-35631D01*
X31424Y-35743D01*
X31401Y-35766D01*
X31408Y-35797D01*
X31477Y-35812D01*
X31546Y-35799D01*
X31552Y-35797D01*
X31559Y-35766D01*
X31559Y-41202D01*
X31552Y-41170D01*
X31483Y-41156D01*
X31413Y-41168D01*
X31408Y-41170D01*
X31401Y-41202D01*
X31480Y-41280D01*
X31559Y-41202D01*
X31559Y-41313D01*
X31535Y-41336D01*
X31614Y-41415D01*
X31646Y-41408D01*
X31660Y-41339D01*
X31660Y-41634D01*
X31648Y-41565D01*
X31646Y-41560D01*
X31614Y-41552D01*
X31559Y-41608D01*
X31559Y-41497D01*
X31556Y-41484D01*
X31559Y-41471D01*
X31480Y-41392D01*
X31424Y-41447D01*
X31424Y-41336D01*
X31345Y-41257D01*
X31332Y-41260D01*
X31319Y-41257D01*
X31263Y-41313D01*
X31263Y-41202D01*
X31263Y-35766D01*
X31185Y-35687D01*
X31129Y-35743D01*
X31129Y-35631D01*
X31050Y-35552D01*
X31037Y-35555D01*
X31024Y-35552D01*
X30968Y-35608D01*
X30968Y-35497D01*
X30965Y-35484D01*
X30968Y-35471D01*
X30889Y-35392D01*
X30834Y-35447D01*
X30834Y-35336D01*
X30755Y-35257D01*
X30723Y-35264D01*
X30709Y-35333D01*
X30721Y-35403D01*
X30723Y-35408D01*
X30755Y-35415D01*
X30834Y-35336D01*
X30834Y-35447D01*
X30810Y-35471D01*
X30813Y-35484D01*
X30810Y-35497D01*
X30889Y-35576D01*
X30968Y-35497D01*
X30968Y-35608D01*
X30945Y-35631D01*
X31024Y-35710D01*
X31037Y-35707D01*
X31050Y-35710D01*
X31129Y-35631D01*
X31129Y-35743D01*
X31106Y-35766D01*
X31113Y-35797D01*
X31182Y-35812D01*
X31251Y-35799D01*
X31256Y-35797D01*
X31263Y-35766D01*
X31263Y-41202D01*
X31256Y-41170D01*
X31187Y-41156D01*
X31118Y-41168D01*
X31113Y-41170D01*
X31106Y-41202D01*
X31185Y-41280D01*
X31263Y-41202D01*
X31263Y-41313D01*
X31240Y-41336D01*
X31319Y-41415D01*
X31332Y-41412D01*
X31345Y-41415D01*
X31424Y-41336D01*
X31424Y-41447D01*
X31401Y-41471D01*
X31404Y-41484D01*
X31401Y-41497D01*
X31480Y-41576D01*
X31559Y-41497D01*
X31559Y-41608D01*
X31535Y-41631D01*
X31614Y-41710D01*
X31646Y-41703D01*
X31660Y-41634D01*
X31660Y-41930D01*
X31648Y-41860D01*
X31646Y-41855D01*
X31614Y-41848D01*
X31559Y-41903D01*
X31559Y-41792D01*
X31556Y-41779D01*
X31559Y-41766D01*
X31480Y-41687D01*
X31424Y-41743D01*
X31424Y-41631D01*
X31345Y-41552D01*
X31332Y-41555D01*
X31319Y-41552D01*
X31263Y-41608D01*
X31263Y-41497D01*
X31260Y-41484D01*
X31263Y-41471D01*
X31185Y-41392D01*
X31129Y-41447D01*
X31129Y-41336D01*
X31050Y-41257D01*
X31037Y-41260D01*
X31024Y-41257D01*
X30968Y-41313D01*
X30968Y-41202D01*
X30968Y-35766D01*
X30889Y-35687D01*
X30834Y-35743D01*
X30834Y-35631D01*
X30755Y-35552D01*
X30723Y-35560D01*
X30709Y-35629D01*
X30721Y-35698D01*
X30723Y-35703D01*
X30755Y-35710D01*
X30834Y-35631D01*
X30834Y-35743D01*
X30810Y-35766D01*
X30817Y-35797D01*
X30886Y-35812D01*
X30956Y-35799D01*
X30961Y-35797D01*
X30968Y-35766D01*
X30968Y-41202D01*
X30961Y-41170D01*
X30892Y-41156D01*
X30823Y-41168D01*
X30817Y-41170D01*
X30810Y-41202D01*
X30889Y-41280D01*
X30968Y-41202D01*
X30968Y-41313D01*
X30945Y-41336D01*
X31024Y-41415D01*
X31037Y-41412D01*
X31050Y-41415D01*
X31129Y-41336D01*
X31129Y-41447D01*
X31106Y-41471D01*
X31109Y-41484D01*
X31106Y-41497D01*
X31185Y-41576D01*
X31263Y-41497D01*
X31263Y-41608D01*
X31240Y-41631D01*
X31319Y-41710D01*
X31332Y-41707D01*
X31345Y-41710D01*
X31424Y-41631D01*
X31424Y-41743D01*
X31401Y-41766D01*
X31404Y-41779D01*
X31401Y-41792D01*
X31480Y-41871D01*
X31559Y-41792D01*
X31559Y-41903D01*
X31535Y-41927D01*
X31614Y-42006D01*
X31646Y-41998D01*
X31660Y-41930D01*
X31660Y-42500D01*
X31559Y-42500D01*
X31559Y-42061D01*
X31480Y-41982D01*
X31424Y-42038D01*
X31424Y-41927D01*
X31345Y-41848D01*
X31332Y-41851D01*
X31319Y-41848D01*
X31263Y-41903D01*
X31263Y-41792D01*
X31260Y-41779D01*
X31263Y-41766D01*
X31185Y-41687D01*
X31129Y-41743D01*
X31129Y-41631D01*
X31050Y-41552D01*
X31037Y-41555D01*
X31024Y-41552D01*
X30968Y-41608D01*
X30968Y-41497D01*
X30965Y-41484D01*
X30968Y-41471D01*
X30889Y-41392D01*
X30834Y-41447D01*
X30834Y-41336D01*
X30755Y-41257D01*
X30723Y-41264D01*
X30709Y-41333D01*
X30721Y-41403D01*
X30723Y-41408D01*
X30755Y-41415D01*
X30834Y-41336D01*
X30834Y-41447D01*
X30810Y-41471D01*
X30813Y-41484D01*
X30810Y-41497D01*
X30889Y-41576D01*
X30968Y-41497D01*
X30968Y-41608D01*
X30945Y-41631D01*
X31024Y-41710D01*
X31037Y-41707D01*
X31050Y-41710D01*
X31129Y-41631D01*
X31129Y-41743D01*
X31106Y-41766D01*
X31109Y-41779D01*
X31106Y-41792D01*
X31185Y-41871D01*
X31263Y-41792D01*
X31263Y-41903D01*
X31240Y-41927D01*
X31319Y-42006D01*
X31332Y-42003D01*
X31345Y-42006D01*
X31424Y-41927D01*
X31424Y-42038D01*
X31401Y-42061D01*
X31408Y-42092D01*
X31477Y-42107D01*
X31546Y-42095D01*
X31552Y-42092D01*
X31559Y-42061D01*
X31559Y-42500D01*
X31263Y-42500D01*
X31263Y-42061D01*
X31185Y-41982D01*
X31129Y-42038D01*
X31129Y-41927D01*
X31050Y-41848D01*
X31037Y-41851D01*
X31024Y-41848D01*
X30968Y-41903D01*
X30968Y-41792D01*
X30965Y-41779D01*
X30968Y-41766D01*
X30889Y-41687D01*
X30834Y-41743D01*
X30834Y-41631D01*
X30755Y-41552D01*
X30723Y-41560D01*
X30709Y-41629D01*
X30721Y-41698D01*
X30723Y-41703D01*
X30755Y-41710D01*
X30834Y-41631D01*
X30834Y-41743D01*
X30810Y-41766D01*
X30813Y-41779D01*
X30810Y-41792D01*
X30889Y-41871D01*
X30968Y-41792D01*
X30968Y-41903D01*
X30945Y-41927D01*
X31024Y-42006D01*
X31037Y-42003D01*
X31050Y-42006D01*
X31129Y-41927D01*
X31129Y-42038D01*
X31106Y-42061D01*
X31113Y-42092D01*
X31182Y-42107D01*
X31251Y-42095D01*
X31256Y-42092D01*
X31263Y-42061D01*
X31263Y-42500D01*
X30968Y-42500D01*
X30968Y-42061D01*
X30889Y-41982D01*
X30834Y-42038D01*
X30834Y-41927D01*
X30755Y-41848D01*
X30723Y-41855D01*
X30709Y-41924D01*
X30721Y-41993D01*
X30723Y-41998D01*
X30755Y-42006D01*
X30834Y-41927D01*
X30834Y-42038D01*
X30810Y-42061D01*
X30817Y-42092D01*
X30886Y-42107D01*
X30956Y-42095D01*
X30961Y-42092D01*
X30968Y-42061D01*
X30968Y-42500D01*
X30137Y-42500D01*
X30137Y-28759D01*
X73420Y-28759D01*
X74985Y-29542D01*
X75767Y-31107D01*
X75767Y-36594D01*
X75767Y-36594D01*
G37*
G54D19*
X75767Y-36594D02*
X75452Y-36594D01*
X75452Y-36169D01*
X75413Y-36075D01*
X75361Y-36023D01*
X75413Y-35971D01*
X75452Y-35877D01*
X75452Y-35776D01*
X75413Y-35682D01*
X75341Y-35609D01*
X75247Y-35570D01*
X75146Y-35570D01*
X75052Y-35609D01*
X74999Y-35661D01*
X74948Y-35609D01*
X74854Y-35570D01*
X74752Y-35570D01*
X74658Y-35609D01*
X74606Y-35661D01*
X74554Y-35609D01*
X74460Y-35570D01*
X74358Y-35570D01*
X74264Y-35609D01*
X74192Y-35681D01*
X74153Y-35775D01*
X74153Y-35877D01*
X74192Y-35971D01*
X74244Y-36023D01*
X74192Y-36075D01*
X74153Y-36169D01*
X74153Y-36271D01*
X74192Y-36365D01*
X74264Y-36437D01*
X74358Y-36476D01*
X74460Y-36476D01*
X74554Y-36437D01*
X74606Y-36385D01*
X74658Y-36437D01*
X74752Y-36476D01*
X74853Y-36476D01*
X74947Y-36437D01*
X75000Y-36385D01*
X75051Y-36437D01*
X75145Y-36476D01*
X75247Y-36476D01*
X75341Y-36437D01*
X75413Y-36365D01*
X75452Y-36271D01*
X75452Y-36169D01*
X75452Y-36594D01*
X73779Y-36594D01*
X73779Y-33709D01*
X73740Y-33615D01*
X73688Y-33562D01*
X73740Y-33511D01*
X73779Y-33417D01*
X73779Y-33315D01*
X73740Y-33221D01*
X73688Y-33169D01*
X73740Y-33117D01*
X73779Y-33023D01*
X73779Y-32921D01*
X73740Y-32827D01*
X73668Y-32755D01*
X73574Y-32716D01*
X73472Y-32716D01*
X73378Y-32755D01*
X73326Y-32807D01*
X73275Y-32755D01*
X73181Y-32716D01*
X73079Y-32716D01*
X72985Y-32755D01*
X72913Y-32827D01*
X72874Y-32921D01*
X72873Y-33023D01*
X72912Y-33117D01*
X72964Y-33169D01*
X72913Y-33220D01*
X72874Y-33315D01*
X72873Y-33416D01*
X72912Y-33510D01*
X72964Y-33563D01*
X72913Y-33614D01*
X72874Y-33708D01*
X72873Y-33810D01*
X72912Y-33904D01*
X72984Y-33976D01*
X73078Y-34015D01*
X73180Y-34015D01*
X73274Y-33976D01*
X73326Y-33924D01*
X73378Y-33976D01*
X73472Y-34015D01*
X73574Y-34015D01*
X73668Y-33976D01*
X73740Y-33904D01*
X73779Y-33810D01*
X73779Y-33709D01*
X73779Y-36594D01*
X72755Y-36594D01*
X72755Y-29976D01*
X72723Y-29897D01*
X72662Y-29836D01*
X72582Y-29803D01*
X72496Y-29803D01*
X72416Y-29836D01*
X72355Y-29896D01*
X72322Y-29976D01*
X72322Y-30062D01*
X72355Y-30142D01*
X72416Y-30203D01*
X72496Y-30236D01*
X72582Y-30236D01*
X72661Y-30203D01*
X72722Y-30142D01*
X72755Y-30062D01*
X72755Y-29976D01*
X72755Y-36594D01*
X71028Y-36594D01*
X71028Y-29726D01*
X70918Y-29460D01*
X70715Y-29257D01*
X70449Y-29146D01*
X70161Y-29146D01*
X69895Y-29256D01*
X69692Y-29459D01*
X69581Y-29725D01*
X69581Y-30013D01*
X69691Y-30279D01*
X69894Y-30483D01*
X70160Y-30593D01*
X70448Y-30593D01*
X70714Y-30483D01*
X70918Y-30280D01*
X71028Y-30014D01*
X71028Y-29726D01*
X71028Y-36594D01*
X70295Y-36594D01*
X70295Y-31453D01*
X70262Y-31373D01*
X70201Y-31312D01*
X70122Y-31279D01*
X70035Y-31279D01*
X69956Y-31312D01*
X69895Y-31373D01*
X69862Y-31452D01*
X69862Y-31538D01*
X69895Y-31618D01*
X69955Y-31679D01*
X70035Y-31712D01*
X70121Y-31712D01*
X70201Y-31679D01*
X70262Y-31618D01*
X70295Y-31539D01*
X70295Y-31453D01*
X70295Y-36594D01*
X70039Y-36594D01*
X70039Y-32232D01*
X70000Y-32138D01*
X69928Y-32066D01*
X69834Y-32027D01*
X69732Y-32027D01*
X69638Y-32066D01*
X69566Y-32138D01*
X69527Y-32232D01*
X69527Y-32334D01*
X69566Y-32428D01*
X69638Y-32500D01*
X69732Y-32539D01*
X69834Y-32539D01*
X69928Y-32500D01*
X70000Y-32428D01*
X70039Y-32334D01*
X70039Y-32232D01*
X70039Y-36594D01*
X69350Y-36594D01*
X69350Y-31740D01*
X69311Y-31646D01*
X69239Y-31574D01*
X69145Y-31535D01*
X69043Y-31535D01*
X68949Y-31574D01*
X68877Y-31646D01*
X68838Y-31740D01*
X68838Y-31842D01*
X68877Y-31936D01*
X68949Y-32008D01*
X69043Y-32047D01*
X69145Y-32047D01*
X69239Y-32008D01*
X69311Y-31936D01*
X69350Y-31842D01*
X69350Y-31740D01*
X69350Y-36594D01*
X68741Y-36594D01*
X68741Y-30434D01*
X68741Y-29434D01*
X68733Y-29262D01*
X68684Y-29143D01*
X68626Y-29104D01*
X68570Y-29160D01*
X68570Y-29048D01*
X68531Y-28991D01*
X68369Y-28933D01*
X68197Y-28941D01*
X68078Y-28991D01*
X68039Y-29048D01*
X68305Y-29314D01*
X68570Y-29048D01*
X68570Y-29160D01*
X68360Y-29370D01*
X68626Y-29635D01*
X68684Y-29596D01*
X68741Y-29434D01*
X68741Y-30434D01*
X68733Y-30262D01*
X68684Y-30143D01*
X68626Y-30104D01*
X68570Y-30160D01*
X68570Y-30048D01*
X68570Y-29691D01*
X68305Y-29425D01*
X68249Y-29481D01*
X68249Y-29370D01*
X67983Y-29104D01*
X67926Y-29143D01*
X67868Y-29305D01*
X67876Y-29477D01*
X67926Y-29596D01*
X67983Y-29635D01*
X68249Y-29370D01*
X68249Y-29481D01*
X68039Y-29691D01*
X68078Y-29749D01*
X68240Y-29806D01*
X68412Y-29798D01*
X68531Y-29749D01*
X68570Y-29691D01*
X68570Y-30048D01*
X68531Y-29991D01*
X68369Y-29933D01*
X68197Y-29941D01*
X68078Y-29991D01*
X68039Y-30048D01*
X68305Y-30314D01*
X68570Y-30048D01*
X68570Y-30160D01*
X68360Y-30370D01*
X68626Y-30635D01*
X68684Y-30596D01*
X68741Y-30434D01*
X68741Y-36594D01*
X68661Y-36594D01*
X68661Y-32232D01*
X68622Y-32138D01*
X68570Y-32086D01*
X68570Y-30691D01*
X68305Y-30425D01*
X68249Y-30481D01*
X68249Y-30370D01*
X67983Y-30104D01*
X67926Y-30143D01*
X67868Y-30305D01*
X67876Y-30477D01*
X67926Y-30596D01*
X67983Y-30635D01*
X68249Y-30370D01*
X68249Y-30481D01*
X68039Y-30691D01*
X68078Y-30749D01*
X68240Y-30806D01*
X68412Y-30798D01*
X68531Y-30749D01*
X68570Y-30691D01*
X68570Y-32086D01*
X68550Y-32066D01*
X68456Y-32027D01*
X68354Y-32027D01*
X68260Y-32066D01*
X68188Y-32138D01*
X68149Y-32232D01*
X68149Y-32334D01*
X68188Y-32428D01*
X68260Y-32500D01*
X68354Y-32539D01*
X68456Y-32539D01*
X68550Y-32500D01*
X68622Y-32428D01*
X68661Y-32334D01*
X68661Y-32232D01*
X68661Y-36594D01*
X68563Y-36594D01*
X68563Y-34890D01*
X68524Y-34796D01*
X68452Y-34724D01*
X68358Y-34685D01*
X68256Y-34684D01*
X68162Y-34723D01*
X68090Y-34795D01*
X68051Y-34889D01*
X68051Y-34991D01*
X68090Y-35085D01*
X68161Y-35157D01*
X68255Y-35196D01*
X68357Y-35196D01*
X68451Y-35158D01*
X68523Y-35086D01*
X68562Y-34992D01*
X68563Y-34890D01*
X68563Y-36594D01*
X67972Y-36594D01*
X67972Y-35382D01*
X67933Y-35288D01*
X67861Y-35216D01*
X67767Y-35177D01*
X67738Y-35177D01*
X67738Y-30284D01*
X67738Y-29284D01*
X67672Y-29125D01*
X67550Y-29003D01*
X67391Y-28937D01*
X67219Y-28936D01*
X67060Y-29002D01*
X66938Y-29124D01*
X66872Y-29283D01*
X66871Y-29455D01*
X66937Y-29615D01*
X67059Y-29737D01*
X67218Y-29803D01*
X67390Y-29803D01*
X67550Y-29737D01*
X67672Y-29615D01*
X67738Y-29456D01*
X67738Y-29284D01*
X67738Y-30284D01*
X67672Y-30125D01*
X67550Y-30003D01*
X67391Y-29937D01*
X67219Y-29936D01*
X67060Y-30002D01*
X66938Y-30124D01*
X66872Y-30283D01*
X66871Y-30455D01*
X66937Y-30615D01*
X67059Y-30737D01*
X67218Y-30803D01*
X67390Y-30803D01*
X67550Y-30737D01*
X67672Y-30615D01*
X67738Y-30456D01*
X67738Y-30284D01*
X67738Y-35177D01*
X67665Y-35177D01*
X67571Y-35215D01*
X67499Y-35287D01*
X67460Y-35381D01*
X67460Y-35483D01*
X67499Y-35577D01*
X67571Y-35649D01*
X67665Y-35688D01*
X67767Y-35689D01*
X67861Y-35650D01*
X67933Y-35578D01*
X67972Y-35484D01*
X67972Y-35382D01*
X67972Y-36594D01*
X67893Y-36594D01*
X67893Y-37216D01*
X67861Y-37184D01*
X67767Y-37145D01*
X67665Y-37145D01*
X67571Y-37184D01*
X67499Y-37256D01*
X67460Y-37350D01*
X67460Y-37452D01*
X67499Y-37546D01*
X67571Y-37618D01*
X67665Y-37657D01*
X67767Y-37657D01*
X67861Y-37618D01*
X67893Y-37586D01*
X67893Y-44114D01*
X73602Y-44114D01*
X73602Y-49192D01*
X72952Y-49192D01*
X72952Y-46315D01*
X72919Y-46235D01*
X72859Y-46174D01*
X72779Y-46141D01*
X72693Y-46141D01*
X72613Y-46174D01*
X72552Y-46235D01*
X72519Y-46315D01*
X72519Y-46401D01*
X72552Y-46480D01*
X72613Y-46541D01*
X72692Y-46574D01*
X72779Y-46574D01*
X72858Y-46541D01*
X72919Y-46481D01*
X72952Y-46401D01*
X72952Y-46315D01*
X72952Y-49192D01*
X71673Y-49192D01*
X71673Y-45724D01*
X71640Y-45645D01*
X71579Y-45584D01*
X71499Y-45551D01*
X71413Y-45551D01*
X71334Y-45584D01*
X71273Y-45644D01*
X71240Y-45724D01*
X71240Y-45810D01*
X71273Y-45890D01*
X71333Y-45951D01*
X71413Y-45984D01*
X71499Y-45984D01*
X71579Y-45951D01*
X71640Y-45890D01*
X71673Y-45810D01*
X71673Y-45724D01*
X71673Y-49192D01*
X71043Y-49192D01*
X71043Y-49980D01*
X71028Y-49980D01*
X71028Y-48726D01*
X70918Y-48460D01*
X70715Y-48257D01*
X70449Y-48146D01*
X70161Y-48146D01*
X69895Y-48256D01*
X69692Y-48459D01*
X69581Y-48725D01*
X69581Y-49013D01*
X69691Y-49279D01*
X69894Y-49483D01*
X70160Y-49593D01*
X70448Y-49593D01*
X70714Y-49483D01*
X70918Y-49280D01*
X71028Y-49014D01*
X71028Y-48726D01*
X71028Y-49980D01*
X68917Y-49980D01*
X68917Y-46512D01*
X68884Y-46432D01*
X68823Y-46371D01*
X68744Y-46338D01*
X68657Y-46338D01*
X68578Y-46371D01*
X68517Y-46432D01*
X68484Y-46511D01*
X68484Y-46598D01*
X68517Y-46677D01*
X68577Y-46738D01*
X68657Y-46771D01*
X68743Y-46771D01*
X68823Y-46738D01*
X68884Y-46677D01*
X68917Y-46598D01*
X68917Y-46512D01*
X68917Y-49980D01*
X68738Y-49980D01*
X68738Y-49284D01*
X68738Y-48284D01*
X68672Y-48125D01*
X68550Y-48003D01*
X68391Y-47937D01*
X68219Y-47936D01*
X68060Y-48002D01*
X68031Y-48031D01*
X68031Y-45429D01*
X67998Y-45349D01*
X67937Y-45288D01*
X67858Y-45255D01*
X67772Y-45255D01*
X67692Y-45288D01*
X67637Y-45343D01*
X67637Y-44346D01*
X67604Y-44267D01*
X67544Y-44206D01*
X67464Y-44173D01*
X67381Y-44173D01*
X67381Y-34890D01*
X67381Y-32035D01*
X67381Y-31248D01*
X67343Y-31154D01*
X67271Y-31082D01*
X67177Y-31043D01*
X67075Y-31043D01*
X66988Y-31079D01*
X66988Y-30776D01*
X66949Y-30682D01*
X66877Y-30609D01*
X66783Y-30570D01*
X66690Y-30570D01*
X66738Y-30456D01*
X66738Y-30284D01*
X66738Y-29284D01*
X66672Y-29125D01*
X66550Y-29003D01*
X66391Y-28937D01*
X66219Y-28936D01*
X66060Y-29002D01*
X65938Y-29124D01*
X65872Y-29283D01*
X65871Y-29455D01*
X65937Y-29615D01*
X66059Y-29737D01*
X66218Y-29803D01*
X66390Y-29803D01*
X66550Y-29737D01*
X66672Y-29615D01*
X66738Y-29456D01*
X66738Y-29284D01*
X66738Y-30284D01*
X66672Y-30125D01*
X66550Y-30003D01*
X66391Y-29937D01*
X66219Y-29936D01*
X66060Y-30002D01*
X65938Y-30124D01*
X65872Y-30283D01*
X65871Y-30455D01*
X65937Y-30615D01*
X66059Y-30737D01*
X66218Y-30803D01*
X66390Y-30803D01*
X66480Y-30766D01*
X66476Y-30775D01*
X66476Y-30877D01*
X66515Y-30971D01*
X66587Y-31043D01*
X66681Y-31082D01*
X66782Y-31082D01*
X66877Y-31043D01*
X66949Y-30971D01*
X66988Y-30877D01*
X66988Y-30776D01*
X66988Y-31079D01*
X66981Y-31082D01*
X66909Y-31154D01*
X66870Y-31248D01*
X66870Y-31349D01*
X66908Y-31443D01*
X66980Y-31516D01*
X67074Y-31555D01*
X67176Y-31555D01*
X67270Y-31516D01*
X67342Y-31444D01*
X67381Y-31350D01*
X67381Y-31248D01*
X67381Y-32035D01*
X67343Y-31941D01*
X67271Y-31869D01*
X67177Y-31830D01*
X67075Y-31830D01*
X66981Y-31869D01*
X66909Y-31941D01*
X66870Y-32035D01*
X66870Y-32137D01*
X66908Y-32231D01*
X66980Y-32303D01*
X67074Y-32342D01*
X67176Y-32342D01*
X67270Y-32303D01*
X67342Y-32231D01*
X67381Y-32137D01*
X67381Y-32035D01*
X67381Y-34890D01*
X67343Y-34796D01*
X67271Y-34724D01*
X67177Y-34685D01*
X67075Y-34684D01*
X66981Y-34723D01*
X66909Y-34795D01*
X66870Y-34889D01*
X66870Y-34991D01*
X66908Y-35085D01*
X66980Y-35157D01*
X67074Y-35196D01*
X67176Y-35196D01*
X67270Y-35158D01*
X67342Y-35086D01*
X67381Y-34992D01*
X67381Y-34890D01*
X67381Y-44173D01*
X67378Y-44173D01*
X67298Y-44206D01*
X67283Y-44221D01*
X67283Y-37646D01*
X67244Y-37552D01*
X67172Y-37480D01*
X67078Y-37440D01*
X66976Y-37440D01*
X66882Y-37479D01*
X66810Y-37551D01*
X66791Y-37598D01*
X66791Y-32528D01*
X66752Y-32433D01*
X66680Y-32361D01*
X66586Y-32322D01*
X66484Y-32322D01*
X66390Y-32361D01*
X66318Y-32433D01*
X66279Y-32527D01*
X66279Y-32629D01*
X66318Y-32723D01*
X66390Y-32795D01*
X66484Y-32834D01*
X66586Y-32834D01*
X66680Y-32795D01*
X66752Y-32723D01*
X66791Y-32629D01*
X66791Y-32528D01*
X66791Y-37598D01*
X66771Y-37645D01*
X66771Y-37747D01*
X66810Y-37841D01*
X66882Y-37913D01*
X66976Y-37952D01*
X67078Y-37952D01*
X67172Y-37913D01*
X67244Y-37841D01*
X67283Y-37747D01*
X67283Y-37646D01*
X67283Y-44221D01*
X67237Y-44266D01*
X67204Y-44346D01*
X67204Y-44432D01*
X67237Y-44512D01*
X67298Y-44573D01*
X67377Y-44606D01*
X67464Y-44606D01*
X67543Y-44573D01*
X67604Y-44512D01*
X67637Y-44433D01*
X67637Y-44346D01*
X67637Y-45343D01*
X67631Y-45349D01*
X67598Y-45429D01*
X67598Y-45515D01*
X67631Y-45594D01*
X67692Y-45655D01*
X67771Y-45688D01*
X67857Y-45689D01*
X67937Y-45656D01*
X67998Y-45595D01*
X68031Y-45515D01*
X68031Y-45429D01*
X68031Y-48031D01*
X67938Y-48124D01*
X67872Y-48283D01*
X67871Y-48455D01*
X67937Y-48615D01*
X68059Y-48737D01*
X68218Y-48803D01*
X68390Y-48803D01*
X68550Y-48737D01*
X68672Y-48615D01*
X68738Y-48456D01*
X68738Y-48284D01*
X68738Y-49284D01*
X68672Y-49125D01*
X68550Y-49003D01*
X68391Y-48937D01*
X68219Y-48936D01*
X68060Y-49002D01*
X67938Y-49124D01*
X67872Y-49283D01*
X67871Y-49455D01*
X67937Y-49615D01*
X68059Y-49737D01*
X68218Y-49803D01*
X68390Y-49803D01*
X68550Y-49737D01*
X68672Y-49615D01*
X68738Y-49456D01*
X68738Y-49284D01*
X68738Y-49980D01*
X67738Y-49980D01*
X67738Y-49284D01*
X67738Y-48284D01*
X67672Y-48125D01*
X67637Y-48090D01*
X67637Y-45724D01*
X67604Y-45645D01*
X67544Y-45584D01*
X67464Y-45551D01*
X67378Y-45551D01*
X67298Y-45584D01*
X67237Y-45644D01*
X67204Y-45724D01*
X67204Y-45810D01*
X67237Y-45890D01*
X67298Y-45951D01*
X67377Y-45984D01*
X67464Y-45984D01*
X67543Y-45951D01*
X67604Y-45890D01*
X67637Y-45810D01*
X67637Y-45724D01*
X67637Y-48090D01*
X67550Y-48003D01*
X67391Y-47937D01*
X67244Y-47936D01*
X67244Y-46020D01*
X67211Y-45940D01*
X67150Y-45879D01*
X67145Y-45877D01*
X67145Y-38638D01*
X67112Y-38558D01*
X67051Y-38497D01*
X66972Y-38464D01*
X66886Y-38464D01*
X66806Y-38497D01*
X66745Y-38558D01*
X66712Y-38637D01*
X66712Y-38723D01*
X66745Y-38803D01*
X66806Y-38864D01*
X66885Y-38897D01*
X66972Y-38897D01*
X67051Y-38864D01*
X67112Y-38803D01*
X67145Y-38724D01*
X67145Y-38638D01*
X67145Y-45877D01*
X67070Y-45846D01*
X66984Y-45846D01*
X66905Y-45879D01*
X66844Y-45940D01*
X66811Y-46019D01*
X66810Y-46105D01*
X66843Y-46185D01*
X66904Y-46246D01*
X66984Y-46279D01*
X67070Y-46279D01*
X67150Y-46246D01*
X67211Y-46185D01*
X67244Y-46106D01*
X67244Y-46020D01*
X67244Y-47936D01*
X67219Y-47936D01*
X67060Y-48002D01*
X66938Y-48124D01*
X66872Y-48283D01*
X66871Y-48455D01*
X66937Y-48615D01*
X67059Y-48737D01*
X67218Y-48803D01*
X67390Y-48803D01*
X67550Y-48737D01*
X67672Y-48615D01*
X67738Y-48456D01*
X67738Y-48284D01*
X67738Y-49284D01*
X67672Y-49125D01*
X67550Y-49003D01*
X67391Y-48937D01*
X67219Y-48936D01*
X67060Y-49002D01*
X66938Y-49124D01*
X66872Y-49283D01*
X66871Y-49455D01*
X66937Y-49615D01*
X67059Y-49737D01*
X67218Y-49803D01*
X67390Y-49803D01*
X67550Y-49737D01*
X67672Y-49615D01*
X67738Y-49456D01*
X67738Y-49284D01*
X67738Y-49980D01*
X66738Y-49980D01*
X66738Y-49284D01*
X66738Y-48284D01*
X66672Y-48125D01*
X66550Y-48003D01*
X66397Y-47939D01*
X66397Y-37547D01*
X66358Y-37453D01*
X66286Y-37381D01*
X66240Y-37362D01*
X66240Y-31248D01*
X66201Y-31154D01*
X66129Y-31082D01*
X66035Y-31043D01*
X65933Y-31043D01*
X65839Y-31082D01*
X65767Y-31153D01*
X65738Y-31124D01*
X65738Y-30284D01*
X65738Y-29284D01*
X65672Y-29125D01*
X65550Y-29003D01*
X65391Y-28937D01*
X65219Y-28936D01*
X65060Y-29002D01*
X64938Y-29124D01*
X64872Y-29283D01*
X64871Y-29455D01*
X64937Y-29615D01*
X65059Y-29737D01*
X65218Y-29803D01*
X65390Y-29803D01*
X65550Y-29737D01*
X65672Y-29615D01*
X65738Y-29456D01*
X65738Y-29284D01*
X65738Y-30284D01*
X65672Y-30125D01*
X65550Y-30003D01*
X65391Y-29937D01*
X65219Y-29936D01*
X65060Y-30002D01*
X64938Y-30124D01*
X64872Y-30283D01*
X64871Y-30455D01*
X64937Y-30615D01*
X65059Y-30737D01*
X65218Y-30803D01*
X65390Y-30803D01*
X65550Y-30737D01*
X65672Y-30615D01*
X65738Y-30456D01*
X65738Y-30284D01*
X65738Y-31124D01*
X65696Y-31082D01*
X65602Y-31043D01*
X65500Y-31043D01*
X65406Y-31082D01*
X65334Y-31154D01*
X65295Y-31248D01*
X65295Y-31349D01*
X65334Y-31443D01*
X65406Y-31516D01*
X65500Y-31555D01*
X65601Y-31555D01*
X65695Y-31516D01*
X65767Y-31444D01*
X65839Y-31516D01*
X65933Y-31555D01*
X66034Y-31555D01*
X66129Y-31516D01*
X66201Y-31444D01*
X66240Y-31350D01*
X66240Y-31248D01*
X66240Y-37362D01*
X66200Y-37345D01*
X66200Y-32035D01*
X66161Y-31941D01*
X66090Y-31869D01*
X65996Y-31830D01*
X65894Y-31830D01*
X65800Y-31869D01*
X65748Y-31921D01*
X65696Y-31869D01*
X65602Y-31830D01*
X65500Y-31830D01*
X65406Y-31869D01*
X65334Y-31941D01*
X65295Y-32035D01*
X65295Y-32137D01*
X65334Y-32231D01*
X65406Y-32303D01*
X65500Y-32342D01*
X65601Y-32342D01*
X65695Y-32303D01*
X65748Y-32251D01*
X65799Y-32303D01*
X65893Y-32342D01*
X65995Y-32342D01*
X66089Y-32303D01*
X66161Y-32231D01*
X66200Y-32137D01*
X66200Y-32035D01*
X66200Y-37345D01*
X66192Y-37342D01*
X66091Y-37342D01*
X65996Y-37381D01*
X65924Y-37453D01*
X65885Y-37547D01*
X65885Y-37649D01*
X65924Y-37743D01*
X65996Y-37815D01*
X66090Y-37854D01*
X66192Y-37854D01*
X66286Y-37815D01*
X66358Y-37743D01*
X66397Y-37649D01*
X66397Y-37547D01*
X66397Y-47939D01*
X66391Y-47937D01*
X66387Y-47937D01*
X66387Y-43238D01*
X66335Y-43112D01*
X66238Y-43015D01*
X66112Y-42962D01*
X65975Y-42962D01*
X65848Y-43014D01*
X65751Y-43111D01*
X65698Y-43238D01*
X65698Y-43375D01*
X65751Y-43501D01*
X65847Y-43598D01*
X65974Y-43651D01*
X66111Y-43651D01*
X66238Y-43599D01*
X66335Y-43502D01*
X66387Y-43375D01*
X66387Y-43238D01*
X66387Y-47937D01*
X66219Y-47936D01*
X66060Y-48002D01*
X65938Y-48124D01*
X65872Y-48283D01*
X65871Y-48455D01*
X65937Y-48615D01*
X66059Y-48737D01*
X66218Y-48803D01*
X66390Y-48803D01*
X66550Y-48737D01*
X66672Y-48615D01*
X66738Y-48456D01*
X66738Y-48284D01*
X66738Y-49284D01*
X66672Y-49125D01*
X66550Y-49003D01*
X66391Y-48937D01*
X66219Y-48936D01*
X66060Y-49002D01*
X65938Y-49124D01*
X65872Y-49283D01*
X65871Y-49455D01*
X65937Y-49615D01*
X66059Y-49737D01*
X66218Y-49803D01*
X66390Y-49803D01*
X66550Y-49737D01*
X66672Y-49615D01*
X66738Y-49456D01*
X66738Y-49284D01*
X66738Y-49980D01*
X65738Y-49980D01*
X65738Y-49284D01*
X65738Y-48284D01*
X65672Y-48125D01*
X65610Y-48062D01*
X65610Y-39220D01*
X65610Y-38630D01*
X65571Y-38536D01*
X65511Y-38476D01*
X65511Y-37350D01*
X65472Y-37256D01*
X65401Y-37184D01*
X65307Y-37145D01*
X65216Y-37145D01*
X65216Y-32528D01*
X65177Y-32433D01*
X65105Y-32361D01*
X65019Y-32326D01*
X65019Y-30756D01*
X64980Y-30662D01*
X64908Y-30590D01*
X64814Y-30551D01*
X64713Y-30551D01*
X64695Y-30558D01*
X64738Y-30456D01*
X64738Y-30284D01*
X64738Y-29284D01*
X64672Y-29125D01*
X64550Y-29003D01*
X64391Y-28937D01*
X64219Y-28936D01*
X64060Y-29002D01*
X63938Y-29124D01*
X63872Y-29283D01*
X63871Y-29455D01*
X63937Y-29615D01*
X64059Y-29737D01*
X64218Y-29803D01*
X64390Y-29803D01*
X64550Y-29737D01*
X64672Y-29615D01*
X64738Y-29456D01*
X64738Y-29284D01*
X64738Y-30284D01*
X64672Y-30125D01*
X64550Y-30003D01*
X64391Y-29937D01*
X64219Y-29936D01*
X64060Y-30002D01*
X63938Y-30124D01*
X63872Y-30283D01*
X63871Y-30455D01*
X63937Y-30615D01*
X64059Y-30737D01*
X64218Y-30803D01*
X64390Y-30803D01*
X64508Y-30754D01*
X64507Y-30755D01*
X64507Y-30857D01*
X64546Y-30951D01*
X64618Y-31023D01*
X64712Y-31062D01*
X64814Y-31063D01*
X64908Y-31024D01*
X64980Y-30952D01*
X65019Y-30858D01*
X65019Y-30756D01*
X65019Y-32326D01*
X65011Y-32322D01*
X64909Y-32322D01*
X64815Y-32361D01*
X64743Y-32433D01*
X64704Y-32527D01*
X64704Y-32629D01*
X64743Y-32723D01*
X64815Y-32795D01*
X64909Y-32834D01*
X65011Y-32834D01*
X65105Y-32795D01*
X65177Y-32723D01*
X65216Y-32629D01*
X65216Y-32528D01*
X65216Y-37145D01*
X65205Y-37145D01*
X65177Y-37157D01*
X65177Y-35882D01*
X65177Y-35291D01*
X65144Y-35212D01*
X65083Y-35151D01*
X65003Y-35118D01*
X64917Y-35118D01*
X64838Y-35150D01*
X64777Y-35211D01*
X64744Y-35291D01*
X64744Y-35377D01*
X64776Y-35457D01*
X64837Y-35518D01*
X64917Y-35551D01*
X65003Y-35551D01*
X65083Y-35518D01*
X65144Y-35457D01*
X65177Y-35377D01*
X65177Y-35291D01*
X65177Y-35882D01*
X65144Y-35802D01*
X65083Y-35741D01*
X65003Y-35708D01*
X64917Y-35708D01*
X64838Y-35741D01*
X64777Y-35802D01*
X64744Y-35881D01*
X64744Y-35968D01*
X64776Y-36047D01*
X64837Y-36108D01*
X64917Y-36141D01*
X65003Y-36141D01*
X65083Y-36108D01*
X65144Y-36048D01*
X65177Y-35968D01*
X65177Y-35882D01*
X65177Y-37157D01*
X65111Y-37184D01*
X65039Y-37256D01*
X65000Y-37350D01*
X64999Y-37452D01*
X65038Y-37546D01*
X65110Y-37618D01*
X65204Y-37657D01*
X65306Y-37657D01*
X65400Y-37618D01*
X65472Y-37546D01*
X65511Y-37452D01*
X65511Y-37350D01*
X65511Y-38476D01*
X65499Y-38464D01*
X65405Y-38425D01*
X65303Y-38425D01*
X65209Y-38464D01*
X65137Y-38535D01*
X65098Y-38629D01*
X65098Y-38731D01*
X65137Y-38825D01*
X65209Y-38897D01*
X65303Y-38936D01*
X65405Y-38937D01*
X65499Y-38898D01*
X65571Y-38826D01*
X65610Y-38732D01*
X65610Y-38630D01*
X65610Y-39220D01*
X65571Y-39126D01*
X65499Y-39054D01*
X65405Y-39015D01*
X65303Y-39015D01*
X65209Y-39054D01*
X65137Y-39126D01*
X65098Y-39220D01*
X65098Y-39322D01*
X65137Y-39416D01*
X65209Y-39488D01*
X65303Y-39527D01*
X65405Y-39527D01*
X65499Y-39488D01*
X65571Y-39416D01*
X65610Y-39322D01*
X65610Y-39220D01*
X65610Y-48062D01*
X65550Y-48003D01*
X65391Y-47937D01*
X65219Y-47936D01*
X65206Y-47942D01*
X65206Y-44419D01*
X65154Y-44293D01*
X65057Y-44196D01*
X65019Y-44180D01*
X65019Y-39220D01*
X65019Y-38630D01*
X65019Y-37744D01*
X64980Y-37650D01*
X64908Y-37578D01*
X64814Y-37539D01*
X64713Y-37539D01*
X64626Y-37575D01*
X64626Y-32035D01*
X64626Y-31248D01*
X64587Y-31154D01*
X64515Y-31082D01*
X64421Y-31043D01*
X64319Y-31043D01*
X64225Y-31082D01*
X64153Y-31154D01*
X64114Y-31248D01*
X64114Y-31349D01*
X64153Y-31443D01*
X64224Y-31516D01*
X64318Y-31555D01*
X64420Y-31555D01*
X64514Y-31516D01*
X64586Y-31444D01*
X64625Y-31350D01*
X64626Y-31248D01*
X64626Y-32035D01*
X64587Y-31941D01*
X64515Y-31869D01*
X64421Y-31830D01*
X64319Y-31830D01*
X64225Y-31869D01*
X64153Y-31941D01*
X64114Y-32035D01*
X64114Y-32137D01*
X64153Y-32231D01*
X64224Y-32303D01*
X64318Y-32342D01*
X64420Y-32342D01*
X64514Y-32303D01*
X64586Y-32231D01*
X64625Y-32137D01*
X64626Y-32035D01*
X64626Y-37575D01*
X64619Y-37578D01*
X64546Y-37650D01*
X64507Y-37744D01*
X64507Y-37845D01*
X64546Y-37940D01*
X64618Y-38012D01*
X64712Y-38051D01*
X64814Y-38051D01*
X64908Y-38012D01*
X64980Y-37940D01*
X65019Y-37846D01*
X65019Y-37744D01*
X65019Y-38630D01*
X64980Y-38536D01*
X64908Y-38464D01*
X64814Y-38425D01*
X64713Y-38425D01*
X64619Y-38464D01*
X64546Y-38535D01*
X64507Y-38629D01*
X64507Y-38731D01*
X64546Y-38825D01*
X64618Y-38897D01*
X64712Y-38936D01*
X64814Y-38937D01*
X64908Y-38898D01*
X64980Y-38826D01*
X65019Y-38732D01*
X65019Y-38630D01*
X65019Y-39220D01*
X64980Y-39126D01*
X64908Y-39054D01*
X64814Y-39015D01*
X64713Y-39015D01*
X64619Y-39054D01*
X64546Y-39126D01*
X64507Y-39220D01*
X64507Y-39322D01*
X64546Y-39416D01*
X64618Y-39488D01*
X64712Y-39527D01*
X64814Y-39527D01*
X64908Y-39488D01*
X64980Y-39416D01*
X65019Y-39322D01*
X65019Y-39220D01*
X65019Y-44180D01*
X64931Y-44143D01*
X64793Y-44143D01*
X64667Y-44195D01*
X64570Y-44292D01*
X64517Y-44419D01*
X64517Y-44556D01*
X64569Y-44683D01*
X64666Y-44780D01*
X64793Y-44832D01*
X64930Y-44832D01*
X65057Y-44780D01*
X65154Y-44683D01*
X65206Y-44557D01*
X65206Y-44419D01*
X65206Y-47942D01*
X65060Y-48002D01*
X64938Y-48124D01*
X64872Y-48283D01*
X64871Y-48455D01*
X64937Y-48615D01*
X65059Y-48737D01*
X65218Y-48803D01*
X65390Y-48803D01*
X65550Y-48737D01*
X65672Y-48615D01*
X65738Y-48456D01*
X65738Y-48284D01*
X65738Y-49284D01*
X65672Y-49125D01*
X65550Y-49003D01*
X65391Y-48937D01*
X65219Y-48936D01*
X65060Y-49002D01*
X64938Y-49124D01*
X64872Y-49283D01*
X64871Y-49455D01*
X64937Y-49615D01*
X65059Y-49737D01*
X65218Y-49803D01*
X65390Y-49803D01*
X65550Y-49737D01*
X65672Y-49615D01*
X65738Y-49456D01*
X65738Y-49284D01*
X65738Y-49980D01*
X64738Y-49980D01*
X64738Y-49284D01*
X64738Y-48284D01*
X64672Y-48125D01*
X64550Y-48003D01*
X64391Y-47937D01*
X64389Y-47937D01*
X64389Y-40508D01*
X64389Y-38146D01*
X64389Y-36177D01*
X64389Y-33716D01*
X64356Y-33637D01*
X64296Y-33576D01*
X64216Y-33543D01*
X64130Y-33543D01*
X64050Y-33576D01*
X63989Y-33637D01*
X63956Y-33716D01*
X63956Y-33802D01*
X63989Y-33882D01*
X64050Y-33943D01*
X64129Y-33976D01*
X64216Y-33976D01*
X64295Y-33943D01*
X64356Y-33882D01*
X64389Y-33803D01*
X64389Y-33716D01*
X64389Y-36177D01*
X64356Y-36097D01*
X64296Y-36037D01*
X64216Y-36003D01*
X64130Y-36003D01*
X64050Y-36036D01*
X63996Y-36091D01*
X63996Y-35390D01*
X63963Y-35310D01*
X63902Y-35249D01*
X63822Y-35216D01*
X63738Y-35216D01*
X63738Y-30284D01*
X63738Y-29284D01*
X63672Y-29125D01*
X63550Y-29003D01*
X63391Y-28937D01*
X63219Y-28936D01*
X63060Y-29002D01*
X62938Y-29124D01*
X62872Y-29283D01*
X62871Y-29455D01*
X62937Y-29615D01*
X63059Y-29737D01*
X63218Y-29803D01*
X63390Y-29803D01*
X63550Y-29737D01*
X63672Y-29615D01*
X63738Y-29456D01*
X63738Y-29284D01*
X63738Y-30284D01*
X63672Y-30125D01*
X63550Y-30003D01*
X63391Y-29937D01*
X63219Y-29936D01*
X63060Y-30002D01*
X62938Y-30124D01*
X62872Y-30283D01*
X62871Y-30455D01*
X62937Y-30615D01*
X63059Y-30737D01*
X63218Y-30803D01*
X63390Y-30803D01*
X63550Y-30737D01*
X63672Y-30615D01*
X63738Y-30456D01*
X63738Y-30284D01*
X63738Y-35216D01*
X63736Y-35216D01*
X63657Y-35249D01*
X63596Y-35310D01*
X63563Y-35389D01*
X63562Y-35475D01*
X63595Y-35555D01*
X63656Y-35616D01*
X63736Y-35649D01*
X63822Y-35649D01*
X63902Y-35616D01*
X63962Y-35555D01*
X63996Y-35476D01*
X63996Y-35390D01*
X63996Y-36091D01*
X63989Y-36097D01*
X63956Y-36177D01*
X63956Y-36263D01*
X63989Y-36342D01*
X64050Y-36403D01*
X64129Y-36436D01*
X64216Y-36437D01*
X64295Y-36404D01*
X64356Y-36343D01*
X64389Y-36263D01*
X64389Y-36177D01*
X64389Y-38146D01*
X64356Y-38066D01*
X64296Y-38005D01*
X64216Y-37972D01*
X64130Y-37972D01*
X64050Y-38005D01*
X63989Y-38066D01*
X63956Y-38145D01*
X63956Y-38231D01*
X63989Y-38311D01*
X64050Y-38372D01*
X64129Y-38405D01*
X64216Y-38405D01*
X64295Y-38372D01*
X64356Y-38311D01*
X64389Y-38232D01*
X64389Y-38146D01*
X64389Y-40508D01*
X64356Y-40428D01*
X64296Y-40367D01*
X64216Y-40334D01*
X64130Y-40334D01*
X64050Y-40367D01*
X63996Y-40422D01*
X63996Y-39327D01*
X63963Y-39247D01*
X63902Y-39186D01*
X63822Y-39153D01*
X63736Y-39153D01*
X63657Y-39186D01*
X63602Y-39240D01*
X63602Y-38933D01*
X63602Y-38146D01*
X63569Y-38066D01*
X63508Y-38005D01*
X63429Y-37972D01*
X63342Y-37972D01*
X63263Y-38005D01*
X63208Y-38059D01*
X63208Y-36571D01*
X63175Y-36491D01*
X63114Y-36430D01*
X63035Y-36397D01*
X62949Y-36397D01*
X62869Y-36430D01*
X62808Y-36491D01*
X62795Y-36523D01*
X62782Y-36491D01*
X62721Y-36430D01*
X62689Y-36417D01*
X62720Y-36404D01*
X62781Y-36343D01*
X62814Y-36263D01*
X62814Y-36177D01*
X62814Y-35390D01*
X62782Y-35310D01*
X62738Y-35266D01*
X62738Y-30284D01*
X62738Y-29284D01*
X62672Y-29125D01*
X62550Y-29003D01*
X62391Y-28937D01*
X62219Y-28936D01*
X62060Y-29002D01*
X61938Y-29124D01*
X61872Y-29283D01*
X61871Y-29455D01*
X61937Y-29615D01*
X62059Y-29737D01*
X62218Y-29803D01*
X62390Y-29803D01*
X62550Y-29737D01*
X62672Y-29615D01*
X62738Y-29456D01*
X62738Y-29284D01*
X62738Y-30284D01*
X62672Y-30125D01*
X62550Y-30003D01*
X62391Y-29937D01*
X62219Y-29936D01*
X62060Y-30002D01*
X61938Y-30124D01*
X61872Y-30283D01*
X61871Y-30455D01*
X61937Y-30615D01*
X62059Y-30737D01*
X62218Y-30803D01*
X62390Y-30803D01*
X62550Y-30737D01*
X62672Y-30615D01*
X62738Y-30456D01*
X62738Y-30284D01*
X62738Y-35266D01*
X62721Y-35249D01*
X62641Y-35216D01*
X62555Y-35216D01*
X62475Y-35249D01*
X62414Y-35310D01*
X62401Y-35342D01*
X62388Y-35310D01*
X62327Y-35249D01*
X62295Y-35236D01*
X62327Y-35223D01*
X62388Y-35162D01*
X62421Y-35082D01*
X62421Y-34996D01*
X62421Y-34209D01*
X62388Y-34129D01*
X62327Y-34068D01*
X62247Y-34035D01*
X62161Y-34035D01*
X62082Y-34068D01*
X62021Y-34129D01*
X61988Y-34208D01*
X61988Y-34294D01*
X62021Y-34374D01*
X62081Y-34435D01*
X62161Y-34468D01*
X62247Y-34468D01*
X62327Y-34435D01*
X62388Y-34374D01*
X62421Y-34295D01*
X62421Y-34209D01*
X62421Y-34996D01*
X62388Y-34916D01*
X62327Y-34855D01*
X62247Y-34822D01*
X62161Y-34822D01*
X62082Y-34855D01*
X62021Y-34916D01*
X61988Y-34996D01*
X61988Y-35082D01*
X62021Y-35161D01*
X62081Y-35222D01*
X62114Y-35236D01*
X62082Y-35249D01*
X62021Y-35310D01*
X61988Y-35389D01*
X61988Y-35475D01*
X62021Y-35555D01*
X62081Y-35616D01*
X62161Y-35649D01*
X62247Y-35649D01*
X62327Y-35616D01*
X62388Y-35555D01*
X62401Y-35523D01*
X62414Y-35555D01*
X62475Y-35616D01*
X62555Y-35649D01*
X62641Y-35649D01*
X62720Y-35616D01*
X62781Y-35555D01*
X62814Y-35476D01*
X62814Y-35390D01*
X62814Y-36177D01*
X62782Y-36097D01*
X62721Y-36037D01*
X62641Y-36003D01*
X62555Y-36003D01*
X62475Y-36036D01*
X62414Y-36097D01*
X62381Y-36177D01*
X62381Y-36263D01*
X62414Y-36342D01*
X62475Y-36403D01*
X62507Y-36417D01*
X62475Y-36430D01*
X62414Y-36491D01*
X62401Y-36523D01*
X62388Y-36491D01*
X62327Y-36430D01*
X62247Y-36397D01*
X62161Y-36397D01*
X62082Y-36430D01*
X62021Y-36491D01*
X62007Y-36523D01*
X61994Y-36491D01*
X61933Y-36430D01*
X61854Y-36397D01*
X61768Y-36397D01*
X61738Y-36409D01*
X61738Y-30284D01*
X61738Y-29284D01*
X61672Y-29125D01*
X61550Y-29003D01*
X61391Y-28937D01*
X61219Y-28936D01*
X61060Y-29002D01*
X60938Y-29124D01*
X60872Y-29283D01*
X60871Y-29455D01*
X60937Y-29615D01*
X61059Y-29737D01*
X61218Y-29803D01*
X61390Y-29803D01*
X61550Y-29737D01*
X61672Y-29615D01*
X61738Y-29456D01*
X61738Y-29284D01*
X61738Y-30284D01*
X61672Y-30125D01*
X61550Y-30003D01*
X61391Y-29937D01*
X61219Y-29936D01*
X61060Y-30002D01*
X60938Y-30124D01*
X60872Y-30283D01*
X60871Y-30455D01*
X60937Y-30615D01*
X61059Y-30737D01*
X61218Y-30803D01*
X61390Y-30803D01*
X61550Y-30737D01*
X61672Y-30615D01*
X61738Y-30456D01*
X61738Y-30284D01*
X61738Y-36409D01*
X61688Y-36430D01*
X61633Y-36485D01*
X61633Y-35783D01*
X61633Y-34996D01*
X61600Y-34916D01*
X61540Y-34855D01*
X61460Y-34822D01*
X61374Y-34822D01*
X61294Y-34855D01*
X61233Y-34916D01*
X61200Y-34996D01*
X61200Y-35082D01*
X61233Y-35161D01*
X61294Y-35222D01*
X61374Y-35255D01*
X61460Y-35255D01*
X61539Y-35223D01*
X61600Y-35162D01*
X61633Y-35082D01*
X61633Y-34996D01*
X61633Y-35783D01*
X61600Y-35704D01*
X61540Y-35643D01*
X61460Y-35610D01*
X61374Y-35610D01*
X61294Y-35643D01*
X61233Y-35703D01*
X61200Y-35783D01*
X61200Y-35869D01*
X61233Y-35949D01*
X61294Y-36010D01*
X61374Y-36043D01*
X61460Y-36043D01*
X61539Y-36010D01*
X61600Y-35949D01*
X61633Y-35870D01*
X61633Y-35783D01*
X61633Y-36485D01*
X61627Y-36491D01*
X61614Y-36523D01*
X61600Y-36491D01*
X61540Y-36430D01*
X61460Y-36397D01*
X61374Y-36397D01*
X61294Y-36430D01*
X61233Y-36491D01*
X61200Y-36570D01*
X61200Y-36657D01*
X61233Y-36736D01*
X61294Y-36797D01*
X61374Y-36830D01*
X61460Y-36830D01*
X61539Y-36797D01*
X61600Y-36736D01*
X61614Y-36704D01*
X61627Y-36736D01*
X61688Y-36797D01*
X61720Y-36811D01*
X61688Y-36824D01*
X61627Y-36885D01*
X61594Y-36964D01*
X61594Y-37050D01*
X61627Y-37130D01*
X61688Y-37191D01*
X61767Y-37224D01*
X61853Y-37224D01*
X61933Y-37191D01*
X61994Y-37130D01*
X62027Y-37051D01*
X62027Y-36964D01*
X61994Y-36885D01*
X61933Y-36824D01*
X61901Y-36811D01*
X61933Y-36797D01*
X61994Y-36736D01*
X62007Y-36704D01*
X62021Y-36736D01*
X62081Y-36797D01*
X62161Y-36830D01*
X62247Y-36830D01*
X62327Y-36797D01*
X62388Y-36736D01*
X62401Y-36704D01*
X62414Y-36736D01*
X62475Y-36797D01*
X62507Y-36811D01*
X62475Y-36824D01*
X62414Y-36885D01*
X62381Y-36964D01*
X62381Y-37050D01*
X62414Y-37130D01*
X62475Y-37191D01*
X62555Y-37224D01*
X62641Y-37224D01*
X62720Y-37191D01*
X62781Y-37130D01*
X62814Y-37051D01*
X62814Y-36964D01*
X62782Y-36885D01*
X62721Y-36824D01*
X62689Y-36811D01*
X62720Y-36797D01*
X62781Y-36736D01*
X62795Y-36704D01*
X62808Y-36736D01*
X62869Y-36797D01*
X62948Y-36830D01*
X63035Y-36830D01*
X63114Y-36797D01*
X63175Y-36736D01*
X63208Y-36657D01*
X63208Y-36571D01*
X63208Y-38059D01*
X63202Y-38066D01*
X63169Y-38145D01*
X63169Y-38231D01*
X63202Y-38311D01*
X63263Y-38372D01*
X63342Y-38405D01*
X63428Y-38405D01*
X63508Y-38372D01*
X63569Y-38311D01*
X63602Y-38232D01*
X63602Y-38146D01*
X63602Y-38933D01*
X63569Y-38853D01*
X63508Y-38792D01*
X63429Y-38759D01*
X63342Y-38759D01*
X63263Y-38792D01*
X63202Y-38853D01*
X63169Y-38933D01*
X63169Y-39019D01*
X63202Y-39098D01*
X63263Y-39159D01*
X63342Y-39192D01*
X63428Y-39192D01*
X63508Y-39160D01*
X63569Y-39099D01*
X63602Y-39019D01*
X63602Y-38933D01*
X63602Y-39240D01*
X63596Y-39247D01*
X63563Y-39326D01*
X63562Y-39412D01*
X63595Y-39492D01*
X63656Y-39553D01*
X63736Y-39586D01*
X63822Y-39586D01*
X63902Y-39553D01*
X63962Y-39492D01*
X63996Y-39413D01*
X63996Y-39327D01*
X63996Y-40422D01*
X63989Y-40428D01*
X63956Y-40507D01*
X63956Y-40594D01*
X63989Y-40673D01*
X64050Y-40734D01*
X64129Y-40767D01*
X64216Y-40767D01*
X64295Y-40734D01*
X64356Y-40673D01*
X64389Y-40594D01*
X64389Y-40508D01*
X64389Y-47937D01*
X64291Y-47936D01*
X64291Y-41000D01*
X64258Y-40920D01*
X64197Y-40859D01*
X64118Y-40826D01*
X64031Y-40826D01*
X63952Y-40859D01*
X63891Y-40920D01*
X63858Y-41000D01*
X63858Y-41086D01*
X63891Y-41165D01*
X63951Y-41226D01*
X64031Y-41259D01*
X64117Y-41259D01*
X64197Y-41226D01*
X64258Y-41166D01*
X64291Y-41086D01*
X64291Y-41000D01*
X64291Y-47936D01*
X64219Y-47936D01*
X64060Y-48002D01*
X63938Y-48124D01*
X63872Y-48283D01*
X63871Y-48455D01*
X63937Y-48615D01*
X64059Y-48737D01*
X64218Y-48803D01*
X64390Y-48803D01*
X64550Y-48737D01*
X64672Y-48615D01*
X64738Y-48456D01*
X64738Y-48284D01*
X64738Y-49284D01*
X64672Y-49125D01*
X64550Y-49003D01*
X64391Y-48937D01*
X64219Y-48936D01*
X64060Y-49002D01*
X63938Y-49124D01*
X63872Y-49283D01*
X63871Y-49455D01*
X63937Y-49615D01*
X64059Y-49737D01*
X64218Y-49803D01*
X64390Y-49803D01*
X64550Y-49737D01*
X64672Y-49615D01*
X64738Y-49456D01*
X64738Y-49284D01*
X64738Y-49980D01*
X63738Y-49980D01*
X63738Y-49284D01*
X63738Y-48284D01*
X63672Y-48125D01*
X63550Y-48003D01*
X63391Y-47937D01*
X63219Y-47936D01*
X63060Y-48002D01*
X62938Y-48124D01*
X62872Y-48283D01*
X62871Y-48455D01*
X62937Y-48615D01*
X63059Y-48737D01*
X63218Y-48803D01*
X63390Y-48803D01*
X63550Y-48737D01*
X63672Y-48615D01*
X63738Y-48456D01*
X63738Y-48284D01*
X63738Y-49284D01*
X63672Y-49125D01*
X63550Y-49003D01*
X63391Y-48937D01*
X63219Y-48936D01*
X63060Y-49002D01*
X62938Y-49124D01*
X62872Y-49283D01*
X62871Y-49455D01*
X62937Y-49615D01*
X63059Y-49737D01*
X63218Y-49803D01*
X63390Y-49803D01*
X63550Y-49737D01*
X63672Y-49615D01*
X63738Y-49456D01*
X63738Y-49284D01*
X63738Y-49980D01*
X62814Y-49980D01*
X62814Y-39720D01*
X62782Y-39641D01*
X62721Y-39580D01*
X62641Y-39547D01*
X62555Y-39547D01*
X62475Y-39580D01*
X62421Y-39634D01*
X62421Y-38539D01*
X62421Y-37752D01*
X62388Y-37672D01*
X62327Y-37611D01*
X62247Y-37578D01*
X62161Y-37578D01*
X62082Y-37611D01*
X62021Y-37672D01*
X61988Y-37752D01*
X61988Y-37838D01*
X62021Y-37917D01*
X62081Y-37978D01*
X62161Y-38011D01*
X62247Y-38011D01*
X62327Y-37978D01*
X62388Y-37918D01*
X62421Y-37838D01*
X62421Y-37752D01*
X62421Y-38539D01*
X62388Y-38460D01*
X62327Y-38399D01*
X62247Y-38366D01*
X62161Y-38366D01*
X62082Y-38399D01*
X62021Y-38459D01*
X61988Y-38539D01*
X61988Y-38625D01*
X62021Y-38705D01*
X62081Y-38766D01*
X62161Y-38799D01*
X62247Y-38799D01*
X62327Y-38766D01*
X62388Y-38705D01*
X62421Y-38625D01*
X62421Y-38539D01*
X62421Y-39634D01*
X62414Y-39640D01*
X62381Y-39720D01*
X62381Y-39806D01*
X62414Y-39886D01*
X62475Y-39947D01*
X62555Y-39980D01*
X62641Y-39980D01*
X62720Y-39947D01*
X62781Y-39886D01*
X62814Y-39807D01*
X62814Y-39720D01*
X62814Y-49980D01*
X62738Y-49980D01*
X62738Y-49284D01*
X62738Y-48284D01*
X62672Y-48125D01*
X62550Y-48003D01*
X62391Y-47937D01*
X62219Y-47936D01*
X62060Y-48002D01*
X61938Y-48124D01*
X61872Y-48283D01*
X61871Y-48455D01*
X61937Y-48615D01*
X62059Y-48737D01*
X62218Y-48803D01*
X62390Y-48803D01*
X62550Y-48737D01*
X62672Y-48615D01*
X62738Y-48456D01*
X62738Y-48284D01*
X62738Y-49284D01*
X62672Y-49125D01*
X62550Y-49003D01*
X62391Y-48937D01*
X62219Y-48936D01*
X62060Y-49002D01*
X61938Y-49124D01*
X61872Y-49283D01*
X61871Y-49455D01*
X61937Y-49615D01*
X62059Y-49737D01*
X62218Y-49803D01*
X62390Y-49803D01*
X62550Y-49737D01*
X62672Y-49615D01*
X62738Y-49456D01*
X62738Y-49284D01*
X62738Y-49980D01*
X61738Y-49980D01*
X61738Y-49284D01*
X61738Y-48284D01*
X61672Y-48125D01*
X61633Y-48086D01*
X61633Y-39720D01*
X61633Y-38146D01*
X61600Y-38066D01*
X61540Y-38005D01*
X61460Y-37972D01*
X61374Y-37972D01*
X61294Y-38005D01*
X61233Y-38066D01*
X61200Y-38145D01*
X61200Y-38231D01*
X61233Y-38311D01*
X61294Y-38372D01*
X61374Y-38405D01*
X61460Y-38405D01*
X61539Y-38372D01*
X61600Y-38311D01*
X61633Y-38232D01*
X61633Y-38146D01*
X61633Y-39720D01*
X61600Y-39641D01*
X61540Y-39580D01*
X61460Y-39547D01*
X61374Y-39547D01*
X61294Y-39580D01*
X61233Y-39640D01*
X61200Y-39720D01*
X61200Y-39806D01*
X61233Y-39886D01*
X61294Y-39947D01*
X61374Y-39980D01*
X61460Y-39980D01*
X61539Y-39947D01*
X61600Y-39886D01*
X61633Y-39807D01*
X61633Y-39720D01*
X61633Y-48086D01*
X61550Y-48003D01*
X61391Y-47937D01*
X61219Y-47936D01*
X61060Y-48002D01*
X60944Y-48117D01*
X60944Y-45921D01*
X60912Y-45842D01*
X60851Y-45781D01*
X60846Y-45779D01*
X60846Y-40508D01*
X60846Y-38146D01*
X60813Y-38066D01*
X60752Y-38005D01*
X60720Y-37992D01*
X60752Y-37978D01*
X60813Y-37918D01*
X60846Y-37838D01*
X60846Y-37752D01*
X60846Y-36964D01*
X60813Y-36885D01*
X60752Y-36824D01*
X60720Y-36811D01*
X60752Y-36797D01*
X60813Y-36736D01*
X60846Y-36657D01*
X60846Y-36571D01*
X60846Y-34602D01*
X60846Y-33716D01*
X60813Y-33637D01*
X60752Y-33576D01*
X60738Y-33570D01*
X60738Y-30284D01*
X60738Y-29284D01*
X60672Y-29125D01*
X60550Y-29003D01*
X60391Y-28937D01*
X60219Y-28936D01*
X60060Y-29002D01*
X59938Y-29124D01*
X59872Y-29283D01*
X59871Y-29455D01*
X59937Y-29615D01*
X60059Y-29737D01*
X60218Y-29803D01*
X60390Y-29803D01*
X60550Y-29737D01*
X60672Y-29615D01*
X60738Y-29456D01*
X60738Y-29284D01*
X60738Y-30284D01*
X60672Y-30125D01*
X60550Y-30003D01*
X60391Y-29937D01*
X60219Y-29936D01*
X60060Y-30002D01*
X59938Y-30124D01*
X59872Y-30283D01*
X59871Y-30455D01*
X59937Y-30615D01*
X60059Y-30737D01*
X60218Y-30803D01*
X60390Y-30803D01*
X60550Y-30737D01*
X60672Y-30615D01*
X60738Y-30456D01*
X60738Y-30284D01*
X60738Y-33570D01*
X60673Y-33543D01*
X60587Y-33543D01*
X60507Y-33576D01*
X60446Y-33637D01*
X60413Y-33716D01*
X60413Y-33802D01*
X60446Y-33882D01*
X60507Y-33943D01*
X60586Y-33976D01*
X60672Y-33976D01*
X60752Y-33943D01*
X60813Y-33882D01*
X60846Y-33803D01*
X60846Y-33716D01*
X60846Y-34602D01*
X60813Y-34523D01*
X60752Y-34462D01*
X60673Y-34429D01*
X60587Y-34429D01*
X60507Y-34461D01*
X60446Y-34522D01*
X60413Y-34602D01*
X60413Y-34688D01*
X60446Y-34768D01*
X60507Y-34829D01*
X60586Y-34862D01*
X60672Y-34862D01*
X60752Y-34829D01*
X60813Y-34768D01*
X60846Y-34688D01*
X60846Y-34602D01*
X60846Y-36571D01*
X60813Y-36491D01*
X60752Y-36430D01*
X60673Y-36397D01*
X60587Y-36397D01*
X60507Y-36430D01*
X60452Y-36485D01*
X60452Y-35783D01*
X60419Y-35704D01*
X60359Y-35643D01*
X60279Y-35610D01*
X60193Y-35610D01*
X60113Y-35643D01*
X60059Y-35697D01*
X60059Y-34996D01*
X60026Y-34916D01*
X59965Y-34855D01*
X59885Y-34822D01*
X59799Y-34822D01*
X59738Y-34848D01*
X59738Y-30284D01*
X59738Y-29284D01*
X59672Y-29125D01*
X59550Y-29003D01*
X59391Y-28937D01*
X59219Y-28936D01*
X59060Y-29002D01*
X58938Y-29124D01*
X58872Y-29283D01*
X58871Y-29455D01*
X58937Y-29615D01*
X59059Y-29737D01*
X59218Y-29803D01*
X59390Y-29803D01*
X59550Y-29737D01*
X59672Y-29615D01*
X59738Y-29456D01*
X59738Y-29284D01*
X59738Y-30284D01*
X59672Y-30125D01*
X59550Y-30003D01*
X59391Y-29937D01*
X59219Y-29936D01*
X59060Y-30002D01*
X58938Y-30124D01*
X58872Y-30283D01*
X58871Y-30455D01*
X58937Y-30615D01*
X59059Y-30737D01*
X59218Y-30803D01*
X59390Y-30803D01*
X59550Y-30737D01*
X59672Y-30615D01*
X59738Y-30456D01*
X59738Y-30284D01*
X59738Y-34848D01*
X59720Y-34855D01*
X59659Y-34916D01*
X59626Y-34996D01*
X59625Y-35082D01*
X59658Y-35161D01*
X59719Y-35222D01*
X59799Y-35255D01*
X59885Y-35255D01*
X59965Y-35223D01*
X60025Y-35162D01*
X60059Y-35082D01*
X60059Y-34996D01*
X60059Y-35697D01*
X60052Y-35703D01*
X60019Y-35783D01*
X60019Y-35869D01*
X60052Y-35949D01*
X60113Y-36010D01*
X60192Y-36043D01*
X60279Y-36043D01*
X60358Y-36010D01*
X60419Y-35949D01*
X60452Y-35870D01*
X60452Y-35783D01*
X60452Y-36485D01*
X60446Y-36491D01*
X60413Y-36570D01*
X60413Y-36657D01*
X60446Y-36736D01*
X60507Y-36797D01*
X60539Y-36811D01*
X60507Y-36824D01*
X60446Y-36885D01*
X60413Y-36964D01*
X60413Y-37050D01*
X60446Y-37130D01*
X60507Y-37191D01*
X60586Y-37224D01*
X60672Y-37224D01*
X60752Y-37191D01*
X60813Y-37130D01*
X60846Y-37051D01*
X60846Y-36964D01*
X60846Y-37752D01*
X60813Y-37672D01*
X60752Y-37611D01*
X60673Y-37578D01*
X60587Y-37578D01*
X60507Y-37611D01*
X60446Y-37672D01*
X60433Y-37704D01*
X60419Y-37672D01*
X60359Y-37611D01*
X60279Y-37578D01*
X60193Y-37578D01*
X60113Y-37611D01*
X60059Y-37666D01*
X60059Y-36964D01*
X60059Y-36177D01*
X60026Y-36097D01*
X59965Y-36037D01*
X59885Y-36003D01*
X59799Y-36003D01*
X59720Y-36036D01*
X59659Y-36097D01*
X59626Y-36177D01*
X59625Y-36263D01*
X59658Y-36342D01*
X59719Y-36403D01*
X59799Y-36436D01*
X59885Y-36437D01*
X59965Y-36404D01*
X60025Y-36343D01*
X60059Y-36263D01*
X60059Y-36177D01*
X60059Y-36964D01*
X60026Y-36885D01*
X59965Y-36824D01*
X59885Y-36791D01*
X59799Y-36791D01*
X59720Y-36824D01*
X59665Y-36878D01*
X59665Y-36571D01*
X59632Y-36491D01*
X59571Y-36430D01*
X59492Y-36397D01*
X59468Y-36397D01*
X59468Y-32043D01*
X59435Y-31964D01*
X59374Y-31903D01*
X59295Y-31870D01*
X59209Y-31870D01*
X59129Y-31902D01*
X59068Y-31963D01*
X59035Y-32043D01*
X59035Y-32129D01*
X59068Y-32209D01*
X59129Y-32270D01*
X59208Y-32303D01*
X59294Y-32303D01*
X59374Y-32270D01*
X59435Y-32209D01*
X59468Y-32129D01*
X59468Y-32043D01*
X59468Y-36397D01*
X59405Y-36397D01*
X59326Y-36430D01*
X59271Y-36485D01*
X59271Y-35390D01*
X59238Y-35310D01*
X59177Y-35249D01*
X59098Y-35216D01*
X59012Y-35216D01*
X58932Y-35249D01*
X58871Y-35310D01*
X58838Y-35389D01*
X58838Y-35475D01*
X58871Y-35555D01*
X58932Y-35616D01*
X59011Y-35649D01*
X59098Y-35649D01*
X59177Y-35616D01*
X59238Y-35555D01*
X59271Y-35476D01*
X59271Y-35390D01*
X59271Y-36485D01*
X59265Y-36491D01*
X59232Y-36570D01*
X59232Y-36657D01*
X59265Y-36736D01*
X59326Y-36797D01*
X59405Y-36830D01*
X59491Y-36830D01*
X59571Y-36797D01*
X59632Y-36736D01*
X59665Y-36657D01*
X59665Y-36571D01*
X59665Y-36878D01*
X59659Y-36885D01*
X59626Y-36964D01*
X59625Y-37050D01*
X59658Y-37130D01*
X59719Y-37191D01*
X59799Y-37224D01*
X59885Y-37224D01*
X59965Y-37191D01*
X60025Y-37130D01*
X60059Y-37051D01*
X60059Y-36964D01*
X60059Y-37666D01*
X60052Y-37672D01*
X60019Y-37752D01*
X60019Y-37838D01*
X60052Y-37917D01*
X60113Y-37978D01*
X60192Y-38011D01*
X60279Y-38011D01*
X60358Y-37978D01*
X60419Y-37918D01*
X60433Y-37885D01*
X60446Y-37917D01*
X60507Y-37978D01*
X60539Y-37992D01*
X60507Y-38005D01*
X60446Y-38066D01*
X60413Y-38145D01*
X60413Y-38231D01*
X60446Y-38311D01*
X60507Y-38372D01*
X60586Y-38405D01*
X60672Y-38405D01*
X60752Y-38372D01*
X60813Y-38311D01*
X60846Y-38232D01*
X60846Y-38146D01*
X60846Y-40508D01*
X60813Y-40428D01*
X60752Y-40367D01*
X60673Y-40334D01*
X60587Y-40334D01*
X60507Y-40367D01*
X60446Y-40428D01*
X60413Y-40507D01*
X60413Y-40594D01*
X60446Y-40673D01*
X60507Y-40734D01*
X60586Y-40767D01*
X60672Y-40767D01*
X60752Y-40734D01*
X60813Y-40673D01*
X60846Y-40594D01*
X60846Y-40508D01*
X60846Y-45779D01*
X60771Y-45748D01*
X60685Y-45747D01*
X60605Y-45780D01*
X60544Y-45841D01*
X60511Y-45921D01*
X60511Y-46007D01*
X60544Y-46087D01*
X60605Y-46148D01*
X60685Y-46181D01*
X60771Y-46181D01*
X60850Y-46148D01*
X60911Y-46087D01*
X60944Y-46007D01*
X60944Y-45921D01*
X60944Y-48117D01*
X60938Y-48124D01*
X60872Y-48283D01*
X60871Y-48455D01*
X60937Y-48615D01*
X61059Y-48737D01*
X61218Y-48803D01*
X61390Y-48803D01*
X61550Y-48737D01*
X61672Y-48615D01*
X61738Y-48456D01*
X61738Y-48284D01*
X61738Y-49284D01*
X61672Y-49125D01*
X61550Y-49003D01*
X61391Y-48937D01*
X61219Y-48936D01*
X61060Y-49002D01*
X60938Y-49124D01*
X60872Y-49283D01*
X60871Y-49455D01*
X60937Y-49615D01*
X61059Y-49737D01*
X61218Y-49803D01*
X61390Y-49803D01*
X61550Y-49737D01*
X61672Y-49615D01*
X61738Y-49456D01*
X61738Y-49284D01*
X61738Y-49980D01*
X60738Y-49980D01*
X60738Y-49284D01*
X60738Y-48284D01*
X60672Y-48125D01*
X60550Y-48003D01*
X60391Y-47937D01*
X60219Y-47936D01*
X60060Y-48002D01*
X60059Y-48003D01*
X60059Y-41000D01*
X60059Y-40508D01*
X60059Y-39327D01*
X60059Y-38146D01*
X60026Y-38066D01*
X59965Y-38005D01*
X59885Y-37972D01*
X59799Y-37972D01*
X59720Y-38005D01*
X59659Y-38066D01*
X59645Y-38098D01*
X59632Y-38066D01*
X59571Y-38005D01*
X59539Y-37992D01*
X59571Y-37978D01*
X59632Y-37918D01*
X59665Y-37838D01*
X59665Y-37752D01*
X59632Y-37672D01*
X59571Y-37611D01*
X59492Y-37578D01*
X59405Y-37578D01*
X59326Y-37611D01*
X59265Y-37672D01*
X59251Y-37704D01*
X59238Y-37672D01*
X59177Y-37611D01*
X59098Y-37578D01*
X59012Y-37578D01*
X58932Y-37611D01*
X58877Y-37666D01*
X58877Y-36964D01*
X58877Y-35783D01*
X58845Y-35704D01*
X58784Y-35643D01*
X58738Y-35624D01*
X58738Y-30284D01*
X58738Y-29284D01*
X58672Y-29125D01*
X58550Y-29003D01*
X58391Y-28937D01*
X58219Y-28936D01*
X58060Y-29002D01*
X57938Y-29124D01*
X57872Y-29283D01*
X57871Y-29455D01*
X57937Y-29615D01*
X58059Y-29737D01*
X58218Y-29803D01*
X58390Y-29803D01*
X58550Y-29737D01*
X58672Y-29615D01*
X58738Y-29456D01*
X58738Y-29284D01*
X58738Y-30284D01*
X58672Y-30125D01*
X58550Y-30003D01*
X58391Y-29937D01*
X58219Y-29936D01*
X58060Y-30002D01*
X57938Y-30124D01*
X57872Y-30283D01*
X57871Y-30455D01*
X57937Y-30615D01*
X58059Y-30737D01*
X58218Y-30803D01*
X58390Y-30803D01*
X58550Y-30737D01*
X58672Y-30615D01*
X58738Y-30456D01*
X58738Y-30284D01*
X58738Y-35624D01*
X58704Y-35610D01*
X58618Y-35610D01*
X58538Y-35643D01*
X58477Y-35703D01*
X58444Y-35783D01*
X58444Y-35869D01*
X58477Y-35949D01*
X58538Y-36010D01*
X58618Y-36043D01*
X58704Y-36043D01*
X58783Y-36010D01*
X58844Y-35949D01*
X58877Y-35870D01*
X58877Y-35783D01*
X58877Y-36964D01*
X58845Y-36885D01*
X58784Y-36824D01*
X58704Y-36791D01*
X58618Y-36791D01*
X58538Y-36824D01*
X58477Y-36885D01*
X58444Y-36964D01*
X58444Y-37050D01*
X58477Y-37130D01*
X58538Y-37191D01*
X58618Y-37224D01*
X58704Y-37224D01*
X58783Y-37191D01*
X58844Y-37130D01*
X58877Y-37051D01*
X58877Y-36964D01*
X58877Y-37666D01*
X58871Y-37672D01*
X58838Y-37752D01*
X58838Y-37838D01*
X58871Y-37917D01*
X58932Y-37978D01*
X59011Y-38011D01*
X59098Y-38011D01*
X59177Y-37978D01*
X59238Y-37918D01*
X59251Y-37885D01*
X59265Y-37917D01*
X59326Y-37978D01*
X59358Y-37992D01*
X59326Y-38005D01*
X59265Y-38066D01*
X59232Y-38145D01*
X59232Y-38231D01*
X59265Y-38311D01*
X59326Y-38372D01*
X59405Y-38405D01*
X59491Y-38405D01*
X59571Y-38372D01*
X59632Y-38311D01*
X59645Y-38279D01*
X59658Y-38311D01*
X59719Y-38372D01*
X59799Y-38405D01*
X59885Y-38405D01*
X59965Y-38372D01*
X60025Y-38311D01*
X60059Y-38232D01*
X60059Y-38146D01*
X60059Y-39327D01*
X60026Y-39247D01*
X59965Y-39186D01*
X59885Y-39153D01*
X59799Y-39153D01*
X59720Y-39186D01*
X59659Y-39247D01*
X59626Y-39326D01*
X59625Y-39412D01*
X59658Y-39492D01*
X59719Y-39553D01*
X59799Y-39586D01*
X59885Y-39586D01*
X59965Y-39553D01*
X60025Y-39492D01*
X60059Y-39413D01*
X60059Y-39327D01*
X60059Y-40508D01*
X60026Y-40428D01*
X59965Y-40367D01*
X59885Y-40334D01*
X59799Y-40334D01*
X59720Y-40367D01*
X59659Y-40428D01*
X59626Y-40507D01*
X59625Y-40594D01*
X59658Y-40673D01*
X59719Y-40734D01*
X59799Y-40767D01*
X59885Y-40767D01*
X59965Y-40734D01*
X60025Y-40673D01*
X60059Y-40594D01*
X60059Y-40508D01*
X60059Y-41000D01*
X60026Y-40920D01*
X59965Y-40859D01*
X59885Y-40826D01*
X59799Y-40826D01*
X59720Y-40859D01*
X59659Y-40920D01*
X59626Y-41000D01*
X59625Y-41086D01*
X59658Y-41165D01*
X59719Y-41226D01*
X59799Y-41259D01*
X59885Y-41259D01*
X59965Y-41226D01*
X60025Y-41166D01*
X60059Y-41086D01*
X60059Y-41000D01*
X60059Y-48003D01*
X59938Y-48124D01*
X59872Y-48283D01*
X59871Y-48455D01*
X59937Y-48615D01*
X60059Y-48737D01*
X60218Y-48803D01*
X60390Y-48803D01*
X60550Y-48737D01*
X60672Y-48615D01*
X60738Y-48456D01*
X60738Y-48284D01*
X60738Y-49284D01*
X60672Y-49125D01*
X60550Y-49003D01*
X60391Y-48937D01*
X60219Y-48936D01*
X60060Y-49002D01*
X59938Y-49124D01*
X59872Y-49283D01*
X59871Y-49455D01*
X59937Y-49615D01*
X60059Y-49737D01*
X60218Y-49803D01*
X60390Y-49803D01*
X60550Y-49737D01*
X60672Y-49615D01*
X60738Y-49456D01*
X60738Y-49284D01*
X60738Y-49980D01*
X59738Y-49980D01*
X59738Y-49284D01*
X59738Y-48284D01*
X59672Y-48125D01*
X59550Y-48003D01*
X59391Y-47937D01*
X59219Y-47936D01*
X59060Y-48002D01*
X58938Y-48124D01*
X58877Y-48269D01*
X58877Y-39720D01*
X58845Y-39641D01*
X58784Y-39580D01*
X58704Y-39547D01*
X58618Y-39547D01*
X58538Y-39580D01*
X58477Y-39640D01*
X58444Y-39720D01*
X58444Y-39806D01*
X58477Y-39886D01*
X58538Y-39947D01*
X58618Y-39980D01*
X58704Y-39980D01*
X58783Y-39947D01*
X58844Y-39886D01*
X58877Y-39807D01*
X58877Y-39720D01*
X58877Y-48269D01*
X58872Y-48283D01*
X58871Y-48455D01*
X58937Y-48615D01*
X59059Y-48737D01*
X59218Y-48803D01*
X59390Y-48803D01*
X59550Y-48737D01*
X59672Y-48615D01*
X59738Y-48456D01*
X59738Y-48284D01*
X59738Y-49284D01*
X59672Y-49125D01*
X59550Y-49003D01*
X59391Y-48937D01*
X59219Y-48936D01*
X59060Y-49002D01*
X58938Y-49124D01*
X58872Y-49283D01*
X58871Y-49455D01*
X58937Y-49615D01*
X59059Y-49737D01*
X59218Y-49803D01*
X59390Y-49803D01*
X59550Y-49737D01*
X59672Y-49615D01*
X59738Y-49456D01*
X59738Y-49284D01*
X59738Y-49980D01*
X58738Y-49980D01*
X58738Y-49284D01*
X58738Y-48284D01*
X58672Y-48125D01*
X58550Y-48003D01*
X58391Y-47937D01*
X58219Y-47936D01*
X58090Y-47990D01*
X58090Y-38539D01*
X58090Y-36571D01*
X58090Y-34209D01*
X58057Y-34129D01*
X57996Y-34068D01*
X57917Y-34035D01*
X57831Y-34035D01*
X57751Y-34068D01*
X57738Y-34081D01*
X57738Y-30284D01*
X57738Y-29284D01*
X57672Y-29125D01*
X57550Y-29003D01*
X57391Y-28937D01*
X57219Y-28936D01*
X57060Y-29002D01*
X56938Y-29124D01*
X56872Y-29283D01*
X56871Y-29455D01*
X56937Y-29615D01*
X57059Y-29737D01*
X57218Y-29803D01*
X57390Y-29803D01*
X57550Y-29737D01*
X57672Y-29615D01*
X57738Y-29456D01*
X57738Y-29284D01*
X57738Y-30284D01*
X57672Y-30125D01*
X57550Y-30003D01*
X57391Y-29937D01*
X57219Y-29936D01*
X57060Y-30002D01*
X56938Y-30124D01*
X56872Y-30283D01*
X56871Y-30455D01*
X56937Y-30615D01*
X57059Y-30737D01*
X57218Y-30803D01*
X57390Y-30803D01*
X57550Y-30737D01*
X57672Y-30615D01*
X57738Y-30456D01*
X57738Y-30284D01*
X57738Y-34081D01*
X57690Y-34129D01*
X57657Y-34208D01*
X57657Y-34294D01*
X57690Y-34374D01*
X57751Y-34435D01*
X57830Y-34468D01*
X57916Y-34468D01*
X57996Y-34435D01*
X58057Y-34374D01*
X58090Y-34295D01*
X58090Y-34209D01*
X58090Y-36571D01*
X58057Y-36491D01*
X57996Y-36430D01*
X57917Y-36397D01*
X57831Y-36397D01*
X57751Y-36430D01*
X57690Y-36491D01*
X57657Y-36570D01*
X57657Y-36657D01*
X57690Y-36736D01*
X57751Y-36797D01*
X57830Y-36830D01*
X57916Y-36830D01*
X57996Y-36797D01*
X58057Y-36736D01*
X58090Y-36657D01*
X58090Y-36571D01*
X58090Y-38539D01*
X58057Y-38460D01*
X57996Y-38399D01*
X57917Y-38366D01*
X57831Y-38366D01*
X57751Y-38399D01*
X57690Y-38459D01*
X57657Y-38539D01*
X57657Y-38625D01*
X57690Y-38705D01*
X57751Y-38766D01*
X57830Y-38799D01*
X57916Y-38799D01*
X57996Y-38766D01*
X58057Y-38705D01*
X58090Y-38625D01*
X58090Y-38539D01*
X58090Y-47990D01*
X58060Y-48002D01*
X57938Y-48124D01*
X57872Y-48283D01*
X57871Y-48455D01*
X57937Y-48615D01*
X58059Y-48737D01*
X58218Y-48803D01*
X58390Y-48803D01*
X58550Y-48737D01*
X58672Y-48615D01*
X58738Y-48456D01*
X58738Y-48284D01*
X58738Y-49284D01*
X58672Y-49125D01*
X58550Y-49003D01*
X58391Y-48937D01*
X58219Y-48936D01*
X58060Y-49002D01*
X57938Y-49124D01*
X57872Y-49283D01*
X57871Y-49455D01*
X57937Y-49615D01*
X58059Y-49737D01*
X58218Y-49803D01*
X58390Y-49803D01*
X58550Y-49737D01*
X58672Y-49615D01*
X58738Y-49456D01*
X58738Y-49284D01*
X58738Y-49980D01*
X57738Y-49980D01*
X57738Y-49284D01*
X57738Y-48284D01*
X57672Y-48125D01*
X57598Y-48050D01*
X57598Y-39130D01*
X57598Y-37358D01*
X57598Y-34209D01*
X57565Y-34129D01*
X57504Y-34068D01*
X57425Y-34035D01*
X57339Y-34035D01*
X57259Y-34068D01*
X57198Y-34129D01*
X57165Y-34208D01*
X57165Y-34294D01*
X57198Y-34374D01*
X57259Y-34435D01*
X57338Y-34468D01*
X57424Y-34468D01*
X57504Y-34435D01*
X57565Y-34374D01*
X57598Y-34295D01*
X57598Y-34209D01*
X57598Y-37358D01*
X57565Y-37279D01*
X57504Y-37218D01*
X57425Y-37185D01*
X57339Y-37185D01*
X57259Y-37217D01*
X57198Y-37278D01*
X57165Y-37358D01*
X57165Y-37444D01*
X57198Y-37524D01*
X57259Y-37585D01*
X57338Y-37618D01*
X57424Y-37618D01*
X57504Y-37585D01*
X57565Y-37524D01*
X57598Y-37444D01*
X57598Y-37358D01*
X57598Y-39130D01*
X57565Y-39050D01*
X57504Y-38989D01*
X57425Y-38956D01*
X57339Y-38956D01*
X57259Y-38989D01*
X57198Y-39050D01*
X57165Y-39129D01*
X57165Y-39216D01*
X57198Y-39295D01*
X57259Y-39356D01*
X57338Y-39389D01*
X57424Y-39389D01*
X57504Y-39356D01*
X57565Y-39296D01*
X57598Y-39216D01*
X57598Y-39130D01*
X57598Y-48050D01*
X57550Y-48003D01*
X57391Y-47937D01*
X57219Y-47936D01*
X57060Y-48002D01*
X56938Y-48124D01*
X56872Y-48283D01*
X56871Y-48455D01*
X56937Y-48615D01*
X57059Y-48737D01*
X57218Y-48803D01*
X57390Y-48803D01*
X57550Y-48737D01*
X57672Y-48615D01*
X57738Y-48456D01*
X57738Y-48284D01*
X57738Y-49284D01*
X57672Y-49125D01*
X57550Y-49003D01*
X57391Y-48937D01*
X57219Y-48936D01*
X57060Y-49002D01*
X56938Y-49124D01*
X56872Y-49283D01*
X56871Y-49455D01*
X56937Y-49615D01*
X57059Y-49737D01*
X57218Y-49803D01*
X57390Y-49803D01*
X57550Y-49737D01*
X57672Y-49615D01*
X57738Y-49456D01*
X57738Y-49284D01*
X57738Y-49980D01*
X56738Y-49980D01*
X56738Y-49284D01*
X56738Y-48284D01*
X56738Y-30284D01*
X56738Y-29284D01*
X56672Y-29125D01*
X56550Y-29003D01*
X56391Y-28937D01*
X56219Y-28936D01*
X56060Y-29002D01*
X55938Y-29124D01*
X55872Y-29283D01*
X55871Y-29455D01*
X55937Y-29615D01*
X56059Y-29737D01*
X56218Y-29803D01*
X56390Y-29803D01*
X56550Y-29737D01*
X56672Y-29615D01*
X56738Y-29456D01*
X56738Y-29284D01*
X56738Y-30284D01*
X56672Y-30125D01*
X56550Y-30003D01*
X56391Y-29937D01*
X56219Y-29936D01*
X56060Y-30002D01*
X55938Y-30124D01*
X55872Y-30283D01*
X55871Y-30455D01*
X55937Y-30615D01*
X56059Y-30737D01*
X56218Y-30803D01*
X56390Y-30803D01*
X56550Y-30737D01*
X56672Y-30615D01*
X56738Y-30456D01*
X56738Y-30284D01*
X56738Y-48284D01*
X56672Y-48125D01*
X56550Y-48003D01*
X56391Y-47937D01*
X56220Y-47936D01*
X56220Y-32043D01*
X56187Y-31964D01*
X56126Y-31903D01*
X56047Y-31870D01*
X55961Y-31870D01*
X55881Y-31902D01*
X55820Y-31963D01*
X55787Y-32043D01*
X55787Y-32129D01*
X55820Y-32209D01*
X55881Y-32270D01*
X55960Y-32303D01*
X56046Y-32303D01*
X56126Y-32270D01*
X56187Y-32209D01*
X56220Y-32129D01*
X56220Y-32043D01*
X56220Y-47936D01*
X56219Y-47936D01*
X56060Y-48002D01*
X55938Y-48124D01*
X55872Y-48283D01*
X55871Y-48455D01*
X55937Y-48615D01*
X56059Y-48737D01*
X56218Y-48803D01*
X56390Y-48803D01*
X56550Y-48737D01*
X56672Y-48615D01*
X56738Y-48456D01*
X56738Y-48284D01*
X56738Y-49284D01*
X56672Y-49125D01*
X56550Y-49003D01*
X56391Y-48937D01*
X56219Y-48936D01*
X56060Y-49002D01*
X55938Y-49124D01*
X55872Y-49283D01*
X55871Y-49455D01*
X55937Y-49615D01*
X56059Y-49737D01*
X56218Y-49803D01*
X56390Y-49803D01*
X56550Y-49737D01*
X56672Y-49615D01*
X56738Y-49456D01*
X56738Y-49284D01*
X56738Y-49980D01*
X55462Y-49980D01*
X55462Y-42057D01*
X55410Y-41931D01*
X55374Y-41894D01*
X55374Y-30657D01*
X55335Y-30563D01*
X55263Y-30491D01*
X55169Y-30452D01*
X55067Y-30452D01*
X54973Y-30491D01*
X54901Y-30563D01*
X54862Y-30657D01*
X54862Y-30759D01*
X54901Y-30853D01*
X54972Y-30925D01*
X55066Y-30964D01*
X55168Y-30964D01*
X55262Y-30925D01*
X55334Y-30853D01*
X55373Y-30759D01*
X55374Y-30657D01*
X55374Y-41894D01*
X55313Y-41834D01*
X55186Y-41781D01*
X55049Y-41781D01*
X54940Y-41826D01*
X54940Y-30961D01*
X54908Y-30881D01*
X54847Y-30820D01*
X54767Y-30787D01*
X54681Y-30787D01*
X54601Y-30820D01*
X54586Y-30835D01*
X54586Y-30657D01*
X54547Y-30563D01*
X54475Y-30491D01*
X54381Y-30452D01*
X54280Y-30452D01*
X54252Y-30464D01*
X54252Y-29287D01*
X54219Y-29208D01*
X54158Y-29147D01*
X54078Y-29114D01*
X53992Y-29114D01*
X53912Y-29147D01*
X53851Y-29207D01*
X53818Y-29287D01*
X53818Y-29373D01*
X53851Y-29453D01*
X53912Y-29514D01*
X53992Y-29547D01*
X54078Y-29547D01*
X54157Y-29514D01*
X54218Y-29453D01*
X54251Y-29373D01*
X54252Y-29287D01*
X54252Y-30464D01*
X54185Y-30491D01*
X54113Y-30563D01*
X54074Y-30657D01*
X54074Y-30759D01*
X54113Y-30853D01*
X54185Y-30925D01*
X54279Y-30964D01*
X54381Y-30964D01*
X54475Y-30925D01*
X54547Y-30853D01*
X54586Y-30759D01*
X54586Y-30657D01*
X54586Y-30835D01*
X54540Y-30881D01*
X54507Y-30960D01*
X54507Y-31046D01*
X54540Y-31126D01*
X54601Y-31187D01*
X54681Y-31220D01*
X54767Y-31220D01*
X54846Y-31187D01*
X54907Y-31126D01*
X54940Y-31047D01*
X54940Y-30961D01*
X54940Y-41826D01*
X54923Y-41833D01*
X54826Y-41930D01*
X54773Y-42057D01*
X54773Y-42194D01*
X54825Y-42320D01*
X54922Y-42417D01*
X55049Y-42470D01*
X55186Y-42470D01*
X55312Y-42418D01*
X55409Y-42321D01*
X55462Y-42194D01*
X55462Y-42057D01*
X55462Y-49980D01*
X54872Y-49980D01*
X54872Y-42648D01*
X54819Y-42521D01*
X54722Y-42424D01*
X54596Y-42372D01*
X54459Y-42371D01*
X54332Y-42424D01*
X54235Y-42521D01*
X54183Y-42647D01*
X54183Y-42784D01*
X54235Y-42911D01*
X54332Y-43008D01*
X54458Y-43060D01*
X54595Y-43061D01*
X54722Y-43008D01*
X54819Y-42911D01*
X54871Y-42785D01*
X54872Y-42648D01*
X54872Y-49980D01*
X54281Y-49980D01*
X54281Y-43238D01*
X54229Y-43112D01*
X54132Y-43015D01*
X54005Y-42962D01*
X53868Y-42962D01*
X53742Y-43014D01*
X53645Y-43111D01*
X53592Y-43238D01*
X53592Y-43375D01*
X53644Y-43501D01*
X53741Y-43598D01*
X53868Y-43651D01*
X54005Y-43651D01*
X54131Y-43599D01*
X54228Y-43502D01*
X54281Y-43375D01*
X54281Y-43238D01*
X54281Y-49980D01*
X53011Y-49980D01*
X53011Y-33020D01*
X52972Y-32926D01*
X52901Y-32854D01*
X52807Y-32815D01*
X52705Y-32814D01*
X52611Y-32853D01*
X52539Y-32925D01*
X52500Y-33019D01*
X52499Y-33121D01*
X52538Y-33215D01*
X52610Y-33287D01*
X52704Y-33326D01*
X52806Y-33326D01*
X52900Y-33287D01*
X52972Y-33216D01*
X53011Y-33121D01*
X53011Y-33020D01*
X53011Y-49980D01*
X52322Y-49980D01*
X52322Y-38531D01*
X52322Y-36957D01*
X52284Y-36863D01*
X52212Y-36791D01*
X52118Y-36752D01*
X52016Y-36751D01*
X51922Y-36790D01*
X51889Y-36823D01*
X51889Y-31256D01*
X51856Y-31176D01*
X51830Y-31150D01*
X51830Y-30264D01*
X51791Y-30170D01*
X51719Y-30098D01*
X51625Y-30059D01*
X51524Y-30059D01*
X51430Y-30097D01*
X51357Y-30169D01*
X51318Y-30263D01*
X51318Y-30365D01*
X51357Y-30459D01*
X51429Y-30531D01*
X51523Y-30570D01*
X51625Y-30570D01*
X51719Y-30532D01*
X51791Y-30460D01*
X51830Y-30366D01*
X51830Y-30264D01*
X51830Y-31150D01*
X51796Y-31115D01*
X51716Y-31082D01*
X51630Y-31082D01*
X51550Y-31115D01*
X51489Y-31176D01*
X51456Y-31255D01*
X51456Y-31342D01*
X51489Y-31421D01*
X51550Y-31482D01*
X51629Y-31515D01*
X51716Y-31515D01*
X51795Y-31482D01*
X51856Y-31422D01*
X51889Y-31342D01*
X51889Y-31256D01*
X51889Y-36823D01*
X51850Y-36862D01*
X51811Y-36956D01*
X51810Y-37058D01*
X51849Y-37152D01*
X51921Y-37224D01*
X52015Y-37263D01*
X52117Y-37263D01*
X52211Y-37224D01*
X52283Y-37153D01*
X52322Y-37059D01*
X52322Y-36957D01*
X52322Y-38531D01*
X52284Y-38437D01*
X52212Y-38365D01*
X52118Y-38326D01*
X52016Y-38326D01*
X51922Y-38365D01*
X51850Y-38437D01*
X51811Y-38531D01*
X51810Y-38633D01*
X51849Y-38727D01*
X51921Y-38799D01*
X52015Y-38838D01*
X52117Y-38838D01*
X52211Y-38799D01*
X52283Y-38727D01*
X52322Y-38633D01*
X52322Y-38531D01*
X52322Y-49980D01*
X51830Y-49980D01*
X51830Y-45224D01*
X51791Y-45130D01*
X51719Y-45058D01*
X51625Y-45019D01*
X51524Y-45019D01*
X51430Y-45058D01*
X51357Y-45130D01*
X51318Y-45224D01*
X51318Y-45326D01*
X51357Y-45420D01*
X51429Y-45492D01*
X51523Y-45531D01*
X51625Y-45531D01*
X51719Y-45492D01*
X51791Y-45420D01*
X51830Y-45326D01*
X51830Y-45224D01*
X51830Y-49980D01*
X51397Y-49980D01*
X51397Y-45527D01*
X51364Y-45448D01*
X51303Y-45387D01*
X51224Y-45354D01*
X51138Y-45354D01*
X51058Y-45387D01*
X51043Y-45402D01*
X51043Y-45224D01*
X51043Y-44043D01*
X51004Y-43949D01*
X50932Y-43877D01*
X50838Y-43838D01*
X50736Y-43838D01*
X50642Y-43877D01*
X50570Y-43949D01*
X50531Y-44043D01*
X50531Y-44145D01*
X50570Y-44239D01*
X50642Y-44311D01*
X50736Y-44350D01*
X50838Y-44350D01*
X50932Y-44311D01*
X51004Y-44239D01*
X51043Y-44145D01*
X51043Y-44043D01*
X51043Y-45224D01*
X51004Y-45130D01*
X50932Y-45058D01*
X50838Y-45019D01*
X50736Y-45019D01*
X50642Y-45058D01*
X50570Y-45130D01*
X50531Y-45224D01*
X50531Y-45326D01*
X50570Y-45420D01*
X50642Y-45492D01*
X50736Y-45531D01*
X50838Y-45531D01*
X50932Y-45492D01*
X51004Y-45420D01*
X51043Y-45326D01*
X51043Y-45224D01*
X51043Y-45402D01*
X50997Y-45448D01*
X50964Y-45527D01*
X50964Y-45613D01*
X50997Y-45693D01*
X51058Y-45754D01*
X51137Y-45787D01*
X51223Y-45787D01*
X51303Y-45754D01*
X51364Y-45693D01*
X51397Y-45614D01*
X51397Y-45527D01*
X51397Y-49980D01*
X50413Y-49980D01*
X50413Y-31650D01*
X50380Y-31570D01*
X50319Y-31509D01*
X50240Y-31476D01*
X50153Y-31476D01*
X50074Y-31509D01*
X50013Y-31570D01*
X49980Y-31649D01*
X49980Y-31735D01*
X50013Y-31815D01*
X50074Y-31876D01*
X50153Y-31909D01*
X50239Y-31909D01*
X50319Y-31876D01*
X50380Y-31815D01*
X50413Y-31736D01*
X50413Y-31650D01*
X50413Y-49980D01*
X49665Y-49980D01*
X49665Y-32331D01*
X49626Y-32237D01*
X49554Y-32165D01*
X49460Y-32126D01*
X49358Y-32125D01*
X49264Y-32164D01*
X49192Y-32236D01*
X49153Y-32330D01*
X49153Y-32432D01*
X49192Y-32526D01*
X49264Y-32598D01*
X49358Y-32637D01*
X49460Y-32637D01*
X49554Y-32598D01*
X49626Y-32527D01*
X49665Y-32433D01*
X49665Y-32331D01*
X49665Y-49980D01*
X49074Y-49980D01*
X49074Y-34102D01*
X49074Y-31248D01*
X49035Y-31154D01*
X48964Y-31082D01*
X48870Y-31043D01*
X48768Y-31043D01*
X48674Y-31082D01*
X48602Y-31154D01*
X48563Y-31248D01*
X48562Y-31349D01*
X48601Y-31443D01*
X48673Y-31516D01*
X48767Y-31555D01*
X48869Y-31555D01*
X48963Y-31516D01*
X49035Y-31444D01*
X49074Y-31350D01*
X49074Y-31248D01*
X49074Y-34102D01*
X49035Y-34008D01*
X48964Y-33936D01*
X48870Y-33897D01*
X48768Y-33897D01*
X48674Y-33936D01*
X48602Y-34008D01*
X48563Y-34102D01*
X48562Y-34204D01*
X48601Y-34298D01*
X48673Y-34370D01*
X48767Y-34409D01*
X48869Y-34409D01*
X48963Y-34370D01*
X49035Y-34298D01*
X49074Y-34204D01*
X49074Y-34102D01*
X49074Y-49980D01*
X48877Y-49980D01*
X48877Y-36268D01*
X48839Y-36174D01*
X48767Y-36102D01*
X48673Y-36063D01*
X48571Y-36062D01*
X48477Y-36101D01*
X48405Y-36173D01*
X48366Y-36267D01*
X48366Y-36369D01*
X48404Y-36463D01*
X48476Y-36535D01*
X48570Y-36574D01*
X48672Y-36574D01*
X48766Y-36535D01*
X48838Y-36464D01*
X48877Y-36370D01*
X48877Y-36268D01*
X48877Y-49980D01*
X48248Y-49980D01*
X48248Y-44839D01*
X48215Y-44759D01*
X48154Y-44698D01*
X48090Y-44671D01*
X48090Y-36268D01*
X48090Y-31248D01*
X48051Y-31154D01*
X47979Y-31082D01*
X47885Y-31043D01*
X47783Y-31043D01*
X47689Y-31082D01*
X47617Y-31154D01*
X47578Y-31248D01*
X47578Y-31349D01*
X47617Y-31443D01*
X47689Y-31516D01*
X47783Y-31555D01*
X47885Y-31555D01*
X47979Y-31516D01*
X48051Y-31444D01*
X48090Y-31350D01*
X48090Y-31248D01*
X48090Y-36268D01*
X48051Y-36174D01*
X47979Y-36102D01*
X47885Y-36063D01*
X47783Y-36062D01*
X47689Y-36101D01*
X47617Y-36173D01*
X47578Y-36267D01*
X47578Y-36369D01*
X47617Y-36463D01*
X47689Y-36535D01*
X47783Y-36574D01*
X47885Y-36574D01*
X47979Y-36535D01*
X48051Y-36464D01*
X48090Y-36370D01*
X48090Y-36268D01*
X48090Y-44671D01*
X48074Y-44665D01*
X47988Y-44665D01*
X47908Y-44698D01*
X47848Y-44759D01*
X47814Y-44838D01*
X47814Y-44924D01*
X47847Y-45004D01*
X47908Y-45065D01*
X47988Y-45098D01*
X48074Y-45098D01*
X48153Y-45065D01*
X48214Y-45004D01*
X48247Y-44925D01*
X48248Y-44839D01*
X48248Y-49980D01*
X45531Y-49980D01*
X45531Y-34102D01*
X45492Y-34008D01*
X45420Y-33936D01*
X45326Y-33897D01*
X45224Y-33897D01*
X45130Y-33936D01*
X45078Y-33988D01*
X45027Y-33936D01*
X44933Y-33897D01*
X44842Y-33897D01*
X44842Y-31346D01*
X44803Y-31252D01*
X44731Y-31180D01*
X44637Y-31141D01*
X44535Y-31141D01*
X44441Y-31180D01*
X44369Y-31252D01*
X44330Y-31346D01*
X44330Y-31448D01*
X44369Y-31542D01*
X44441Y-31614D01*
X44535Y-31653D01*
X44637Y-31653D01*
X44731Y-31614D01*
X44803Y-31542D01*
X44842Y-31448D01*
X44842Y-31346D01*
X44842Y-33897D01*
X44831Y-33897D01*
X44737Y-33936D01*
X44665Y-34008D01*
X44626Y-34102D01*
X44625Y-34204D01*
X44664Y-34298D01*
X44736Y-34370D01*
X44830Y-34409D01*
X44932Y-34409D01*
X45026Y-34370D01*
X45078Y-34318D01*
X45130Y-34370D01*
X45224Y-34409D01*
X45326Y-34409D01*
X45420Y-34370D01*
X45492Y-34298D01*
X45531Y-34204D01*
X45531Y-34102D01*
X45531Y-49980D01*
X45000Y-49980D01*
X45000Y-43854D01*
X44967Y-43775D01*
X44906Y-43714D01*
X44826Y-43681D01*
X44740Y-43681D01*
X44660Y-43713D01*
X44600Y-43774D01*
X44566Y-43854D01*
X44566Y-43940D01*
X44599Y-44020D01*
X44660Y-44081D01*
X44740Y-44114D01*
X44826Y-44114D01*
X44905Y-44081D01*
X44966Y-44020D01*
X44999Y-43940D01*
X45000Y-43854D01*
X45000Y-49980D01*
X44350Y-49980D01*
X44350Y-34102D01*
X44311Y-34008D01*
X44239Y-33936D01*
X44145Y-33897D01*
X44043Y-33897D01*
X43949Y-33936D01*
X43877Y-34008D01*
X43838Y-34102D01*
X43838Y-34204D01*
X43877Y-34298D01*
X43949Y-34370D01*
X44043Y-34409D01*
X44145Y-34409D01*
X44239Y-34370D01*
X44311Y-34298D01*
X44350Y-34204D01*
X44350Y-34102D01*
X44350Y-49980D01*
X41358Y-49980D01*
X41358Y-42378D01*
X41325Y-42298D01*
X41264Y-42237D01*
X41232Y-42224D01*
X41264Y-42211D01*
X41325Y-42150D01*
X41358Y-42070D01*
X41358Y-41984D01*
X41325Y-41905D01*
X41264Y-41844D01*
X41232Y-41830D01*
X41264Y-41817D01*
X41325Y-41756D01*
X41358Y-41677D01*
X41358Y-41590D01*
X41325Y-41511D01*
X41264Y-41450D01*
X41184Y-41417D01*
X41098Y-41417D01*
X41019Y-41450D01*
X40958Y-41511D01*
X40925Y-41590D01*
X40925Y-41676D01*
X40958Y-41756D01*
X41018Y-41817D01*
X41051Y-41830D01*
X41019Y-41843D01*
X40958Y-41904D01*
X40925Y-41984D01*
X40925Y-42070D01*
X40958Y-42150D01*
X41018Y-42211D01*
X41051Y-42224D01*
X41019Y-42237D01*
X40958Y-42298D01*
X40925Y-42377D01*
X40925Y-42464D01*
X40958Y-42543D01*
X41018Y-42604D01*
X41098Y-42637D01*
X41184Y-42637D01*
X41264Y-42604D01*
X41325Y-42544D01*
X41358Y-42464D01*
X41358Y-42378D01*
X41358Y-49980D01*
X40807Y-49980D01*
X40807Y-43846D01*
X40768Y-43752D01*
X40767Y-43752D01*
X40767Y-42870D01*
X40734Y-42790D01*
X40673Y-42729D01*
X40594Y-42696D01*
X40508Y-42696D01*
X40428Y-42729D01*
X40367Y-42790D01*
X40334Y-42870D01*
X40334Y-42956D01*
X40367Y-43035D01*
X40428Y-43096D01*
X40507Y-43129D01*
X40594Y-43129D01*
X40673Y-43097D01*
X40734Y-43036D01*
X40767Y-42956D01*
X40767Y-42870D01*
X40767Y-43752D01*
X40696Y-43680D01*
X40602Y-43641D01*
X40500Y-43641D01*
X40406Y-43680D01*
X40334Y-43752D01*
X40295Y-43846D01*
X40295Y-43948D01*
X40334Y-44042D01*
X40406Y-44114D01*
X40500Y-44153D01*
X40601Y-44153D01*
X40695Y-44114D01*
X40768Y-44042D01*
X40807Y-43948D01*
X40807Y-43846D01*
X40807Y-49980D01*
X39685Y-49980D01*
X39685Y-44445D01*
X39652Y-44365D01*
X39591Y-44304D01*
X39511Y-44271D01*
X39488Y-44271D01*
X39488Y-42279D01*
X39455Y-42200D01*
X39394Y-42139D01*
X39314Y-42106D01*
X39228Y-42106D01*
X39149Y-42139D01*
X39088Y-42200D01*
X39074Y-42232D01*
X39061Y-42200D01*
X39000Y-42139D01*
X38921Y-42106D01*
X38835Y-42106D01*
X38755Y-42139D01*
X38694Y-42200D01*
X38661Y-42279D01*
X38661Y-42365D01*
X38694Y-42445D01*
X38755Y-42506D01*
X38834Y-42539D01*
X38920Y-42539D01*
X39000Y-42506D01*
X39061Y-42445D01*
X39074Y-42413D01*
X39087Y-42445D01*
X39148Y-42506D01*
X39228Y-42539D01*
X39314Y-42539D01*
X39394Y-42506D01*
X39455Y-42445D01*
X39488Y-42366D01*
X39488Y-42279D01*
X39488Y-44271D01*
X39425Y-44271D01*
X39346Y-44304D01*
X39285Y-44365D01*
X39252Y-44444D01*
X39251Y-44531D01*
X39284Y-44610D01*
X39345Y-44671D01*
X39425Y-44704D01*
X39511Y-44704D01*
X39591Y-44671D01*
X39651Y-44611D01*
X39685Y-44531D01*
X39685Y-44445D01*
X39685Y-49980D01*
X38405Y-49980D01*
X38405Y-43854D01*
X38372Y-43775D01*
X38311Y-43714D01*
X38232Y-43681D01*
X38146Y-43681D01*
X38066Y-43713D01*
X38005Y-43774D01*
X37972Y-43854D01*
X37972Y-43940D01*
X38005Y-44020D01*
X38066Y-44081D01*
X38145Y-44114D01*
X38231Y-44114D01*
X38311Y-44081D01*
X38372Y-44020D01*
X38405Y-43940D01*
X38405Y-43854D01*
X38405Y-49980D01*
X33400Y-49980D01*
X33400Y-48726D01*
X33400Y-29726D01*
X33290Y-29460D01*
X33087Y-29257D01*
X32821Y-29146D01*
X32533Y-29146D01*
X32267Y-29256D01*
X32064Y-29459D01*
X31953Y-29725D01*
X31953Y-30013D01*
X32063Y-30279D01*
X32266Y-30483D01*
X32532Y-30593D01*
X32820Y-30593D01*
X33086Y-30483D01*
X33290Y-30280D01*
X33400Y-30014D01*
X33400Y-29726D01*
X33400Y-48726D01*
X33290Y-48460D01*
X33104Y-48273D01*
X33104Y-38947D01*
X33100Y-38875D01*
X33100Y-38191D01*
X33100Y-37541D01*
X33085Y-37505D01*
X33057Y-37477D01*
X33021Y-37462D01*
X32982Y-37462D01*
X32332Y-37462D01*
X32296Y-37477D01*
X32268Y-37505D01*
X32253Y-37541D01*
X32253Y-37580D01*
X32253Y-38230D01*
X32268Y-38266D01*
X32296Y-38294D01*
X32332Y-38309D01*
X32371Y-38309D01*
X33021Y-38309D01*
X33057Y-38294D01*
X33085Y-38266D01*
X33100Y-38230D01*
X33100Y-38191D01*
X33100Y-38875D01*
X33095Y-38779D01*
X33047Y-38665D01*
X32991Y-38627D01*
X32935Y-38682D01*
X32935Y-38571D01*
X32897Y-38515D01*
X32739Y-38458D01*
X32571Y-38467D01*
X32456Y-38515D01*
X32418Y-38571D01*
X32677Y-38830D01*
X32935Y-38571D01*
X32935Y-38682D01*
X32732Y-38885D01*
X32991Y-39144D01*
X33047Y-39106D01*
X33104Y-38947D01*
X33104Y-48273D01*
X33087Y-48257D01*
X32935Y-48194D01*
X32935Y-39200D01*
X32677Y-38941D01*
X32621Y-38997D01*
X32621Y-38885D01*
X32362Y-38627D01*
X32306Y-38665D01*
X32250Y-38823D01*
X32258Y-38991D01*
X32306Y-39106D01*
X32362Y-39144D01*
X32621Y-38885D01*
X32621Y-38997D01*
X32418Y-39200D01*
X32456Y-39256D01*
X32615Y-39312D01*
X32783Y-39304D01*
X32897Y-39256D01*
X32935Y-39200D01*
X32935Y-48194D01*
X32821Y-48146D01*
X32533Y-48146D01*
X32267Y-48256D01*
X32064Y-48459D01*
X31953Y-48725D01*
X31953Y-49013D01*
X32063Y-49279D01*
X32266Y-49483D01*
X32532Y-49593D01*
X32820Y-49593D01*
X33086Y-49483D01*
X33290Y-49280D01*
X33400Y-49014D01*
X33400Y-48726D01*
X33400Y-49980D01*
X31660Y-49980D01*
X31660Y-45280D01*
X31660Y-44985D01*
X31660Y-44689D01*
X31648Y-44620D01*
X31646Y-44615D01*
X31614Y-44608D01*
X31559Y-44663D01*
X31559Y-44552D01*
X31552Y-44521D01*
X31483Y-44506D01*
X31413Y-44519D01*
X31408Y-44521D01*
X31401Y-44552D01*
X31480Y-44631D01*
X31559Y-44552D01*
X31559Y-44663D01*
X31535Y-44687D01*
X31614Y-44765D01*
X31646Y-44758D01*
X31660Y-44689D01*
X31660Y-44985D01*
X31648Y-44915D01*
X31646Y-44910D01*
X31614Y-44903D01*
X31559Y-44959D01*
X31559Y-44847D01*
X31556Y-44834D01*
X31559Y-44821D01*
X31480Y-44742D01*
X31424Y-44798D01*
X31424Y-44687D01*
X31345Y-44608D01*
X31332Y-44611D01*
X31319Y-44608D01*
X31263Y-44663D01*
X31263Y-44552D01*
X31256Y-44521D01*
X31187Y-44506D01*
X31118Y-44519D01*
X31113Y-44521D01*
X31106Y-44552D01*
X31185Y-44631D01*
X31263Y-44552D01*
X31263Y-44663D01*
X31240Y-44687D01*
X31319Y-44765D01*
X31332Y-44762D01*
X31345Y-44765D01*
X31424Y-44687D01*
X31424Y-44798D01*
X31401Y-44821D01*
X31404Y-44834D01*
X31401Y-44847D01*
X31480Y-44926D01*
X31559Y-44847D01*
X31559Y-44959D01*
X31535Y-44982D01*
X31614Y-45061D01*
X31646Y-45054D01*
X31660Y-44985D01*
X31660Y-45280D01*
X31648Y-45211D01*
X31646Y-45205D01*
X31614Y-45198D01*
X31559Y-45254D01*
X31559Y-45142D01*
X31556Y-45129D01*
X31559Y-45116D01*
X31480Y-45037D01*
X31424Y-45093D01*
X31424Y-44982D01*
X31345Y-44903D01*
X31332Y-44906D01*
X31319Y-44903D01*
X31263Y-44959D01*
X31263Y-44847D01*
X31260Y-44834D01*
X31263Y-44821D01*
X31185Y-44742D01*
X31129Y-44798D01*
X31129Y-44687D01*
X31050Y-44608D01*
X31037Y-44611D01*
X31024Y-44608D01*
X30968Y-44663D01*
X30968Y-44552D01*
X30961Y-44521D01*
X30892Y-44506D01*
X30823Y-44519D01*
X30817Y-44521D01*
X30810Y-44552D01*
X30889Y-44631D01*
X30968Y-44552D01*
X30968Y-44663D01*
X30945Y-44687D01*
X31024Y-44765D01*
X31037Y-44762D01*
X31050Y-44765D01*
X31129Y-44687D01*
X31129Y-44798D01*
X31106Y-44821D01*
X31109Y-44834D01*
X31106Y-44847D01*
X31185Y-44926D01*
X31263Y-44847D01*
X31263Y-44959D01*
X31240Y-44982D01*
X31319Y-45061D01*
X31332Y-45058D01*
X31345Y-45061D01*
X31424Y-44982D01*
X31424Y-45093D01*
X31401Y-45116D01*
X31404Y-45129D01*
X31401Y-45142D01*
X31480Y-45221D01*
X31559Y-45142D01*
X31559Y-45254D01*
X31535Y-45277D01*
X31614Y-45356D01*
X31646Y-45349D01*
X31660Y-45280D01*
X31660Y-49980D01*
X31559Y-49980D01*
X31559Y-45412D01*
X31480Y-45333D01*
X31424Y-45388D01*
X31424Y-45277D01*
X31345Y-45198D01*
X31332Y-45201D01*
X31319Y-45198D01*
X31263Y-45254D01*
X31263Y-45142D01*
X31260Y-45129D01*
X31263Y-45116D01*
X31185Y-45037D01*
X31129Y-45093D01*
X31129Y-44982D01*
X31050Y-44903D01*
X31037Y-44906D01*
X31024Y-44903D01*
X30968Y-44959D01*
X30968Y-44847D01*
X30965Y-44834D01*
X30968Y-44821D01*
X30889Y-44742D01*
X30834Y-44798D01*
X30834Y-44687D01*
X30755Y-44608D01*
X30723Y-44615D01*
X30709Y-44684D01*
X30721Y-44753D01*
X30723Y-44758D01*
X30755Y-44765D01*
X30834Y-44687D01*
X30834Y-44798D01*
X30810Y-44821D01*
X30813Y-44834D01*
X30810Y-44847D01*
X30889Y-44926D01*
X30968Y-44847D01*
X30968Y-44959D01*
X30945Y-44982D01*
X31024Y-45061D01*
X31037Y-45058D01*
X31050Y-45061D01*
X31129Y-44982D01*
X31129Y-45093D01*
X31106Y-45116D01*
X31109Y-45129D01*
X31106Y-45142D01*
X31185Y-45221D01*
X31263Y-45142D01*
X31263Y-45254D01*
X31240Y-45277D01*
X31319Y-45356D01*
X31332Y-45353D01*
X31345Y-45356D01*
X31424Y-45277D01*
X31424Y-45388D01*
X31401Y-45412D01*
X31408Y-45443D01*
X31477Y-45458D01*
X31546Y-45445D01*
X31552Y-45443D01*
X31559Y-45412D01*
X31559Y-49980D01*
X31263Y-49980D01*
X31263Y-45412D01*
X31185Y-45333D01*
X31129Y-45388D01*
X31129Y-45277D01*
X31050Y-45198D01*
X31037Y-45201D01*
X31024Y-45198D01*
X30968Y-45254D01*
X30968Y-45142D01*
X30965Y-45129D01*
X30968Y-45116D01*
X30889Y-45037D01*
X30834Y-45093D01*
X30834Y-44982D01*
X30755Y-44903D01*
X30723Y-44910D01*
X30709Y-44979D01*
X30721Y-45048D01*
X30723Y-45054D01*
X30755Y-45061D01*
X30834Y-44982D01*
X30834Y-45093D01*
X30810Y-45116D01*
X30813Y-45129D01*
X30810Y-45142D01*
X30889Y-45221D01*
X30968Y-45142D01*
X30968Y-45254D01*
X30945Y-45277D01*
X31024Y-45356D01*
X31037Y-45353D01*
X31050Y-45356D01*
X31129Y-45277D01*
X31129Y-45388D01*
X31106Y-45412D01*
X31113Y-45443D01*
X31182Y-45458D01*
X31251Y-45445D01*
X31256Y-45443D01*
X31263Y-45412D01*
X31263Y-49980D01*
X30968Y-49980D01*
X30968Y-45412D01*
X30889Y-45333D01*
X30834Y-45388D01*
X30834Y-45277D01*
X30755Y-45198D01*
X30723Y-45205D01*
X30709Y-45274D01*
X30721Y-45344D01*
X30723Y-45349D01*
X30755Y-45356D01*
X30834Y-45277D01*
X30834Y-45388D01*
X30810Y-45412D01*
X30817Y-45443D01*
X30886Y-45458D01*
X30956Y-45445D01*
X30961Y-45443D01*
X30968Y-45412D01*
X30968Y-49980D01*
X30137Y-49980D01*
X30137Y-44114D01*
X32303Y-44114D01*
X32303Y-42500D01*
X31660Y-42500D01*
X31660Y-41930D01*
X31660Y-41634D01*
X31660Y-41339D01*
X31660Y-35634D01*
X31660Y-35339D01*
X31660Y-35044D01*
X31660Y-32284D01*
X31660Y-31989D01*
X31660Y-31693D01*
X31648Y-31624D01*
X31646Y-31619D01*
X31614Y-31612D01*
X31559Y-31667D01*
X31559Y-31556D01*
X31552Y-31525D01*
X31483Y-31510D01*
X31413Y-31522D01*
X31408Y-31525D01*
X31401Y-31556D01*
X31480Y-31635D01*
X31559Y-31556D01*
X31559Y-31667D01*
X31535Y-31690D01*
X31614Y-31769D01*
X31646Y-31762D01*
X31660Y-31693D01*
X31660Y-31989D01*
X31648Y-31919D01*
X31646Y-31914D01*
X31614Y-31907D01*
X31559Y-31962D01*
X31559Y-31851D01*
X31556Y-31838D01*
X31559Y-31825D01*
X31480Y-31746D01*
X31424Y-31802D01*
X31424Y-31690D01*
X31345Y-31612D01*
X31332Y-31615D01*
X31319Y-31612D01*
X31263Y-31667D01*
X31263Y-31556D01*
X31256Y-31525D01*
X31187Y-31510D01*
X31118Y-31522D01*
X31113Y-31525D01*
X31106Y-31556D01*
X31185Y-31635D01*
X31263Y-31556D01*
X31263Y-31667D01*
X31240Y-31690D01*
X31319Y-31769D01*
X31332Y-31766D01*
X31345Y-31769D01*
X31424Y-31690D01*
X31424Y-31802D01*
X31401Y-31825D01*
X31404Y-31838D01*
X31401Y-31851D01*
X31480Y-31930D01*
X31559Y-31851D01*
X31559Y-31962D01*
X31535Y-31986D01*
X31614Y-32065D01*
X31646Y-32057D01*
X31660Y-31989D01*
X31660Y-32284D01*
X31648Y-32215D01*
X31646Y-32209D01*
X31614Y-32202D01*
X31559Y-32258D01*
X31559Y-32146D01*
X31556Y-32133D01*
X31559Y-32120D01*
X31480Y-32041D01*
X31424Y-32097D01*
X31424Y-31986D01*
X31345Y-31907D01*
X31332Y-31910D01*
X31319Y-31907D01*
X31263Y-31962D01*
X31263Y-31851D01*
X31260Y-31838D01*
X31263Y-31825D01*
X31185Y-31746D01*
X31129Y-31802D01*
X31129Y-31690D01*
X31050Y-31612D01*
X31037Y-31615D01*
X31024Y-31612D01*
X30968Y-31667D01*
X30968Y-31556D01*
X30961Y-31525D01*
X30892Y-31510D01*
X30823Y-31522D01*
X30817Y-31525D01*
X30810Y-31556D01*
X30889Y-31635D01*
X30968Y-31556D01*
X30968Y-31667D01*
X30945Y-31690D01*
X31024Y-31769D01*
X31037Y-31766D01*
X31050Y-31769D01*
X31129Y-31690D01*
X31129Y-31802D01*
X31106Y-31825D01*
X31109Y-31838D01*
X31106Y-31851D01*
X31185Y-31930D01*
X31263Y-31851D01*
X31263Y-31962D01*
X31240Y-31986D01*
X31319Y-32065D01*
X31332Y-32062D01*
X31345Y-32065D01*
X31424Y-31986D01*
X31424Y-32097D01*
X31401Y-32120D01*
X31404Y-32133D01*
X31401Y-32146D01*
X31480Y-32225D01*
X31559Y-32146D01*
X31559Y-32258D01*
X31535Y-32281D01*
X31614Y-32360D01*
X31646Y-32353D01*
X31660Y-32284D01*
X31660Y-35044D01*
X31648Y-34974D01*
X31646Y-34969D01*
X31614Y-34962D01*
X31559Y-35018D01*
X31559Y-34906D01*
X31559Y-32416D01*
X31480Y-32337D01*
X31424Y-32392D01*
X31424Y-32281D01*
X31345Y-32202D01*
X31332Y-32205D01*
X31319Y-32202D01*
X31263Y-32258D01*
X31263Y-32146D01*
X31260Y-32133D01*
X31263Y-32120D01*
X31185Y-32041D01*
X31129Y-32097D01*
X31129Y-31986D01*
X31050Y-31907D01*
X31037Y-31910D01*
X31024Y-31907D01*
X30968Y-31962D01*
X30968Y-31851D01*
X30965Y-31838D01*
X30968Y-31825D01*
X30889Y-31746D01*
X30834Y-31802D01*
X30834Y-31690D01*
X30755Y-31612D01*
X30723Y-31619D01*
X30709Y-31688D01*
X30721Y-31757D01*
X30723Y-31762D01*
X30755Y-31769D01*
X30834Y-31690D01*
X30834Y-31802D01*
X30810Y-31825D01*
X30813Y-31838D01*
X30810Y-31851D01*
X30889Y-31930D01*
X30968Y-31851D01*
X30968Y-31962D01*
X30945Y-31986D01*
X31024Y-32065D01*
X31037Y-32062D01*
X31050Y-32065D01*
X31129Y-31986D01*
X31129Y-32097D01*
X31106Y-32120D01*
X31109Y-32133D01*
X31106Y-32146D01*
X31185Y-32225D01*
X31263Y-32146D01*
X31263Y-32258D01*
X31240Y-32281D01*
X31319Y-32360D01*
X31332Y-32357D01*
X31345Y-32360D01*
X31424Y-32281D01*
X31424Y-32392D01*
X31401Y-32416D01*
X31408Y-32447D01*
X31477Y-32462D01*
X31546Y-32449D01*
X31552Y-32447D01*
X31559Y-32416D01*
X31559Y-34906D01*
X31552Y-34875D01*
X31483Y-34860D01*
X31413Y-34873D01*
X31408Y-34875D01*
X31401Y-34906D01*
X31480Y-34985D01*
X31559Y-34906D01*
X31559Y-35018D01*
X31535Y-35041D01*
X31614Y-35120D01*
X31646Y-35113D01*
X31660Y-35044D01*
X31660Y-35339D01*
X31648Y-35270D01*
X31646Y-35264D01*
X31614Y-35257D01*
X31559Y-35313D01*
X31559Y-35202D01*
X31556Y-35188D01*
X31559Y-35175D01*
X31480Y-35097D01*
X31424Y-35152D01*
X31424Y-35041D01*
X31345Y-34962D01*
X31332Y-34965D01*
X31319Y-34962D01*
X31263Y-35018D01*
X31263Y-34906D01*
X31263Y-32416D01*
X31185Y-32337D01*
X31129Y-32392D01*
X31129Y-32281D01*
X31050Y-32202D01*
X31037Y-32205D01*
X31024Y-32202D01*
X30968Y-32258D01*
X30968Y-32146D01*
X30965Y-32133D01*
X30968Y-32120D01*
X30889Y-32041D01*
X30834Y-32097D01*
X30834Y-31986D01*
X30755Y-31907D01*
X30723Y-31914D01*
X30709Y-31983D01*
X30721Y-32052D01*
X30723Y-32057D01*
X30755Y-32065D01*
X30834Y-31986D01*
X30834Y-32097D01*
X30810Y-32120D01*
X30813Y-32133D01*
X30810Y-32146D01*
X30889Y-32225D01*
X30968Y-32146D01*
X30968Y-32258D01*
X30945Y-32281D01*
X31024Y-32360D01*
X31037Y-32357D01*
X31050Y-32360D01*
X31129Y-32281D01*
X31129Y-32392D01*
X31106Y-32416D01*
X31113Y-32447D01*
X31182Y-32462D01*
X31251Y-32449D01*
X31256Y-32447D01*
X31263Y-32416D01*
X31263Y-34906D01*
X31256Y-34875D01*
X31187Y-34860D01*
X31118Y-34873D01*
X31113Y-34875D01*
X31106Y-34906D01*
X31185Y-34985D01*
X31263Y-34906D01*
X31263Y-35018D01*
X31240Y-35041D01*
X31319Y-35120D01*
X31332Y-35117D01*
X31345Y-35120D01*
X31424Y-35041D01*
X31424Y-35152D01*
X31401Y-35175D01*
X31404Y-35188D01*
X31401Y-35202D01*
X31480Y-35280D01*
X31559Y-35202D01*
X31559Y-35313D01*
X31535Y-35336D01*
X31614Y-35415D01*
X31646Y-35408D01*
X31660Y-35339D01*
X31660Y-35634D01*
X31648Y-35565D01*
X31646Y-35560D01*
X31614Y-35552D01*
X31559Y-35608D01*
X31559Y-35497D01*
X31556Y-35484D01*
X31559Y-35471D01*
X31480Y-35392D01*
X31424Y-35447D01*
X31424Y-35336D01*
X31345Y-35257D01*
X31332Y-35260D01*
X31319Y-35257D01*
X31263Y-35313D01*
X31263Y-35202D01*
X31260Y-35188D01*
X31263Y-35175D01*
X31185Y-35097D01*
X31129Y-35152D01*
X31129Y-35041D01*
X31050Y-34962D01*
X31037Y-34965D01*
X31024Y-34962D01*
X30968Y-35018D01*
X30968Y-34906D01*
X30968Y-32416D01*
X30889Y-32337D01*
X30834Y-32392D01*
X30834Y-32281D01*
X30755Y-32202D01*
X30723Y-32209D01*
X30709Y-32278D01*
X30721Y-32347D01*
X30723Y-32353D01*
X30755Y-32360D01*
X30834Y-32281D01*
X30834Y-32392D01*
X30810Y-32416D01*
X30817Y-32447D01*
X30886Y-32462D01*
X30956Y-32449D01*
X30961Y-32447D01*
X30968Y-32416D01*
X30968Y-34906D01*
X30961Y-34875D01*
X30892Y-34860D01*
X30823Y-34873D01*
X30817Y-34875D01*
X30810Y-34906D01*
X30889Y-34985D01*
X30968Y-34906D01*
X30968Y-35018D01*
X30945Y-35041D01*
X31024Y-35120D01*
X31037Y-35117D01*
X31050Y-35120D01*
X31129Y-35041D01*
X31129Y-35152D01*
X31106Y-35175D01*
X31109Y-35188D01*
X31106Y-35202D01*
X31185Y-35280D01*
X31263Y-35202D01*
X31263Y-35313D01*
X31240Y-35336D01*
X31319Y-35415D01*
X31332Y-35412D01*
X31345Y-35415D01*
X31424Y-35336D01*
X31424Y-35447D01*
X31401Y-35471D01*
X31404Y-35484D01*
X31401Y-35497D01*
X31480Y-35576D01*
X31559Y-35497D01*
X31559Y-35608D01*
X31535Y-35631D01*
X31614Y-35710D01*
X31646Y-35703D01*
X31660Y-35634D01*
X31660Y-41339D01*
X31648Y-41270D01*
X31646Y-41264D01*
X31614Y-41257D01*
X31559Y-41313D01*
X31559Y-41202D01*
X31559Y-35766D01*
X31480Y-35687D01*
X31424Y-35743D01*
X31424Y-35631D01*
X31345Y-35552D01*
X31332Y-35555D01*
X31319Y-35552D01*
X31263Y-35608D01*
X31263Y-35497D01*
X31260Y-35484D01*
X31263Y-35471D01*
X31185Y-35392D01*
X31129Y-35447D01*
X31129Y-35336D01*
X31050Y-35257D01*
X31037Y-35260D01*
X31024Y-35257D01*
X30968Y-35313D01*
X30968Y-35202D01*
X30965Y-35188D01*
X30968Y-35175D01*
X30889Y-35097D01*
X30834Y-35152D01*
X30834Y-35041D01*
X30755Y-34962D01*
X30723Y-34969D01*
X30709Y-35038D01*
X30721Y-35107D01*
X30723Y-35113D01*
X30755Y-35120D01*
X30834Y-35041D01*
X30834Y-35152D01*
X30810Y-35175D01*
X30813Y-35188D01*
X30810Y-35202D01*
X30889Y-35280D01*
X30968Y-35202D01*
X30968Y-35313D01*
X30945Y-35336D01*
X31024Y-35415D01*
X31037Y-35412D01*
X31050Y-35415D01*
X31129Y-35336D01*
X31129Y-35447D01*
X31106Y-35471D01*
X31109Y-35484D01*
X31106Y-35497D01*
X31185Y-35576D01*
X31263Y-35497D01*
X31263Y-35608D01*
X31240Y-35631D01*
X31319Y-35710D01*
X31332Y-35707D01*
X31345Y-35710D01*
X31424Y-35631D01*
X31424Y-35743D01*
X31401Y-35766D01*
X31408Y-35797D01*
X31477Y-35812D01*
X31546Y-35799D01*
X31552Y-35797D01*
X31559Y-35766D01*
X31559Y-41202D01*
X31552Y-41170D01*
X31483Y-41156D01*
X31413Y-41168D01*
X31408Y-41170D01*
X31401Y-41202D01*
X31480Y-41280D01*
X31559Y-41202D01*
X31559Y-41313D01*
X31535Y-41336D01*
X31614Y-41415D01*
X31646Y-41408D01*
X31660Y-41339D01*
X31660Y-41634D01*
X31648Y-41565D01*
X31646Y-41560D01*
X31614Y-41552D01*
X31559Y-41608D01*
X31559Y-41497D01*
X31556Y-41484D01*
X31559Y-41471D01*
X31480Y-41392D01*
X31424Y-41447D01*
X31424Y-41336D01*
X31345Y-41257D01*
X31332Y-41260D01*
X31319Y-41257D01*
X31263Y-41313D01*
X31263Y-41202D01*
X31263Y-35766D01*
X31185Y-35687D01*
X31129Y-35743D01*
X31129Y-35631D01*
X31050Y-35552D01*
X31037Y-35555D01*
X31024Y-35552D01*
X30968Y-35608D01*
X30968Y-35497D01*
X30965Y-35484D01*
X30968Y-35471D01*
X30889Y-35392D01*
X30834Y-35447D01*
X30834Y-35336D01*
X30755Y-35257D01*
X30723Y-35264D01*
X30709Y-35333D01*
X30721Y-35403D01*
X30723Y-35408D01*
X30755Y-35415D01*
X30834Y-35336D01*
X30834Y-35447D01*
X30810Y-35471D01*
X30813Y-35484D01*
X30810Y-35497D01*
X30889Y-35576D01*
X30968Y-35497D01*
X30968Y-35608D01*
X30945Y-35631D01*
X31024Y-35710D01*
X31037Y-35707D01*
X31050Y-35710D01*
X31129Y-35631D01*
X31129Y-35743D01*
X31106Y-35766D01*
X31113Y-35797D01*
X31182Y-35812D01*
X31251Y-35799D01*
X31256Y-35797D01*
X31263Y-35766D01*
X31263Y-41202D01*
X31256Y-41170D01*
X31187Y-41156D01*
X31118Y-41168D01*
X31113Y-41170D01*
X31106Y-41202D01*
X31185Y-41280D01*
X31263Y-41202D01*
X31263Y-41313D01*
X31240Y-41336D01*
X31319Y-41415D01*
X31332Y-41412D01*
X31345Y-41415D01*
X31424Y-41336D01*
X31424Y-41447D01*
X31401Y-41471D01*
X31404Y-41484D01*
X31401Y-41497D01*
X31480Y-41576D01*
X31559Y-41497D01*
X31559Y-41608D01*
X31535Y-41631D01*
X31614Y-41710D01*
X31646Y-41703D01*
X31660Y-41634D01*
X31660Y-41930D01*
X31648Y-41860D01*
X31646Y-41855D01*
X31614Y-41848D01*
X31559Y-41903D01*
X31559Y-41792D01*
X31556Y-41779D01*
X31559Y-41766D01*
X31480Y-41687D01*
X31424Y-41743D01*
X31424Y-41631D01*
X31345Y-41552D01*
X31332Y-41555D01*
X31319Y-41552D01*
X31263Y-41608D01*
X31263Y-41497D01*
X31260Y-41484D01*
X31263Y-41471D01*
X31185Y-41392D01*
X31129Y-41447D01*
X31129Y-41336D01*
X31050Y-41257D01*
X31037Y-41260D01*
X31024Y-41257D01*
X30968Y-41313D01*
X30968Y-41202D01*
X30968Y-35766D01*
X30889Y-35687D01*
X30834Y-35743D01*
X30834Y-35631D01*
X30755Y-35552D01*
X30723Y-35560D01*
X30709Y-35629D01*
X30721Y-35698D01*
X30723Y-35703D01*
X30755Y-35710D01*
X30834Y-35631D01*
X30834Y-35743D01*
X30810Y-35766D01*
X30817Y-35797D01*
X30886Y-35812D01*
X30956Y-35799D01*
X30961Y-35797D01*
X30968Y-35766D01*
X30968Y-41202D01*
X30961Y-41170D01*
X30892Y-41156D01*
X30823Y-41168D01*
X30817Y-41170D01*
X30810Y-41202D01*
X30889Y-41280D01*
X30968Y-41202D01*
X30968Y-41313D01*
X30945Y-41336D01*
X31024Y-41415D01*
X31037Y-41412D01*
X31050Y-41415D01*
X31129Y-41336D01*
X31129Y-41447D01*
X31106Y-41471D01*
X31109Y-41484D01*
X31106Y-41497D01*
X31185Y-41576D01*
X31263Y-41497D01*
X31263Y-41608D01*
X31240Y-41631D01*
X31319Y-41710D01*
X31332Y-41707D01*
X31345Y-41710D01*
X31424Y-41631D01*
X31424Y-41743D01*
X31401Y-41766D01*
X31404Y-41779D01*
X31401Y-41792D01*
X31480Y-41871D01*
X31559Y-41792D01*
X31559Y-41903D01*
X31535Y-41927D01*
X31614Y-42006D01*
X31646Y-41998D01*
X31660Y-41930D01*
X31660Y-42500D01*
X31559Y-42500D01*
X31559Y-42061D01*
X31480Y-41982D01*
X31424Y-42038D01*
X31424Y-41927D01*
X31345Y-41848D01*
X31332Y-41851D01*
X31319Y-41848D01*
X31263Y-41903D01*
X31263Y-41792D01*
X31260Y-41779D01*
X31263Y-41766D01*
X31185Y-41687D01*
X31129Y-41743D01*
X31129Y-41631D01*
X31050Y-41552D01*
X31037Y-41555D01*
X31024Y-41552D01*
X30968Y-41608D01*
X30968Y-41497D01*
X30965Y-41484D01*
X30968Y-41471D01*
X30889Y-41392D01*
X30834Y-41447D01*
X30834Y-41336D01*
X30755Y-41257D01*
X30723Y-41264D01*
X30709Y-41333D01*
X30721Y-41403D01*
X30723Y-41408D01*
X30755Y-41415D01*
X30834Y-41336D01*
X30834Y-41447D01*
X30810Y-41471D01*
X30813Y-41484D01*
X30810Y-41497D01*
X30889Y-41576D01*
X30968Y-41497D01*
X30968Y-41608D01*
X30945Y-41631D01*
X31024Y-41710D01*
X31037Y-41707D01*
X31050Y-41710D01*
X31129Y-41631D01*
X31129Y-41743D01*
X31106Y-41766D01*
X31109Y-41779D01*
X31106Y-41792D01*
X31185Y-41871D01*
X31263Y-41792D01*
X31263Y-41903D01*
X31240Y-41927D01*
X31319Y-42006D01*
X31332Y-42003D01*
X31345Y-42006D01*
X31424Y-41927D01*
X31424Y-42038D01*
X31401Y-42061D01*
X31408Y-42092D01*
X31477Y-42107D01*
X31546Y-42095D01*
X31552Y-42092D01*
X31559Y-42061D01*
X31559Y-42500D01*
X31263Y-42500D01*
X31263Y-42061D01*
X31185Y-41982D01*
X31129Y-42038D01*
X31129Y-41927D01*
X31050Y-41848D01*
X31037Y-41851D01*
X31024Y-41848D01*
X30968Y-41903D01*
X30968Y-41792D01*
X30965Y-41779D01*
X30968Y-41766D01*
X30889Y-41687D01*
X30834Y-41743D01*
X30834Y-41631D01*
X30755Y-41552D01*
X30723Y-41560D01*
X30709Y-41629D01*
X30721Y-41698D01*
X30723Y-41703D01*
X30755Y-41710D01*
X30834Y-41631D01*
X30834Y-41743D01*
X30810Y-41766D01*
X30813Y-41779D01*
X30810Y-41792D01*
X30889Y-41871D01*
X30968Y-41792D01*
X30968Y-41903D01*
X30945Y-41927D01*
X31024Y-42006D01*
X31037Y-42003D01*
X31050Y-42006D01*
X31129Y-41927D01*
X31129Y-42038D01*
X31106Y-42061D01*
X31113Y-42092D01*
X31182Y-42107D01*
X31251Y-42095D01*
X31256Y-42092D01*
X31263Y-42061D01*
X31263Y-42500D01*
X30968Y-42500D01*
X30968Y-42061D01*
X30889Y-41982D01*
X30834Y-42038D01*
X30834Y-41927D01*
X30755Y-41848D01*
X30723Y-41855D01*
X30709Y-41924D01*
X30721Y-41993D01*
X30723Y-41998D01*
X30755Y-42006D01*
X30834Y-41927D01*
X30834Y-42038D01*
X30810Y-42061D01*
X30817Y-42092D01*
X30886Y-42107D01*
X30956Y-42095D01*
X30961Y-42092D01*
X30968Y-42061D01*
X30968Y-42500D01*
X30137Y-42500D01*
X30137Y-28759D01*
X73420Y-28759D01*
X74985Y-29542D01*
X75767Y-31107D01*
X75767Y-36594D01*
M02*
