G04 (created by PCBNEW (2013-mar-25)-stable) date Thursday, May 07, 2015 03:34:48 PM*
%MOIN*%
G04 Gerber Fmt 3.4, Leading zero omitted, Abs format*
%FSLAX34Y34*%
G01*
G70*
G90*
G04 APERTURE LIST*
%ADD10C,0.006*%
%ADD11R,0.0590551X0.141732*%
%ADD12R,0.0393701X0.0413386*%
%ADD13R,0.0413386X0.0866142*%
%ADD14R,0.0307087X0.034252*%
%ADD15R,0.0409449X0.0307087*%
%ADD16R,0.0275591X0.011811*%
%ADD17R,0.0708661X0.0787402*%
%ADD18R,0.0275591X0.00984252*%
%ADD19R,0.00984252X0.0275591*%
%ADD20R,0.135827X0.0187008*%
%ADD21R,0.135827X0.019685*%
%ADD22R,0.023622X0.0413386*%
%ADD23R,0.0413386X0.023622*%
%ADD24C,0.015748*%
%ADD25R,0.00984252X0.023622*%
%ADD26R,0.0787402X0.0216535*%
%ADD27R,0.019685X0.00984252*%
%ADD28R,0.00984252X0.019685*%
%ADD29R,0.0905512X0.019685*%
%ADD30R,0.0905512X0.015748*%
%ADD31R,0.0187008X0.0570866*%
%ADD32R,0.035X0.055*%
%ADD33R,0.015748X0.023622*%
%ADD34R,0.023622X0.015748*%
%ADD35R,0.0787402X0.0590551*%
%ADD36R,0.0452756X0.0177165*%
%ADD37R,0.019685X0.015748*%
%ADD38R,0.0866142X0.0669291*%
%ADD39R,0.055X0.035*%
G04 APERTURE END LIST*
G54D10*
G54D11*
X72332Y-35334D03*
X73533Y-35334D03*
G54D12*
X41929Y-45068D03*
G54D13*
X42509Y-45669D03*
X41348Y-45669D03*
G54D14*
X43509Y-42970D03*
X42316Y-42970D03*
X42316Y-43505D03*
X43509Y-43505D03*
G54D15*
X39064Y-45332D03*
X39675Y-45332D03*
X39675Y-44824D03*
X39064Y-44824D03*
G54D16*
X52854Y-34153D03*
X53444Y-34153D03*
X52854Y-34350D03*
X53444Y-34350D03*
X52854Y-34547D03*
X53444Y-34547D03*
X52854Y-34744D03*
X53444Y-34744D03*
X52854Y-34940D03*
X53444Y-34940D03*
X52854Y-35137D03*
X53444Y-35137D03*
X52854Y-35334D03*
X53444Y-35334D03*
X52854Y-35531D03*
X53444Y-35531D03*
X52854Y-31397D03*
X53444Y-31397D03*
X52854Y-31594D03*
X53444Y-31594D03*
X52854Y-31791D03*
X53444Y-31791D03*
X52854Y-31988D03*
X53444Y-31988D03*
X52854Y-32185D03*
X53444Y-32185D03*
X52854Y-32381D03*
X53444Y-32381D03*
X52854Y-32578D03*
X53444Y-32578D03*
X52854Y-32775D03*
X53444Y-32775D03*
G54D17*
X48606Y-39015D03*
X49606Y-39015D03*
X50606Y-39015D03*
X50606Y-37362D03*
X49606Y-37362D03*
X48606Y-37362D03*
G54D18*
X49842Y-32775D03*
X49842Y-32972D03*
X49842Y-33169D03*
X49842Y-33366D03*
X49842Y-33562D03*
X49842Y-33759D03*
X49842Y-33956D03*
X49842Y-34153D03*
G54D19*
X50098Y-34409D03*
X50295Y-34409D03*
X50492Y-34409D03*
X50688Y-34409D03*
X50885Y-34409D03*
X51082Y-34409D03*
X51279Y-34409D03*
X51476Y-34409D03*
G54D18*
X51732Y-34153D03*
X51732Y-33956D03*
X51732Y-33759D03*
X51732Y-33562D03*
X51732Y-33366D03*
X51732Y-33169D03*
X51732Y-32972D03*
X51732Y-32775D03*
G54D19*
X51476Y-32519D03*
X51279Y-32519D03*
X51082Y-32519D03*
X50885Y-32519D03*
X50688Y-32519D03*
X50492Y-32519D03*
X50295Y-32519D03*
X50098Y-32519D03*
G54D20*
X50787Y-34050D03*
G54D21*
X50787Y-33661D03*
X50787Y-33267D03*
G54D20*
X50787Y-32878D03*
G54D22*
X65767Y-38720D03*
X66141Y-38720D03*
X66515Y-38720D03*
X66515Y-37657D03*
X65767Y-37657D03*
G54D23*
X50137Y-44862D03*
X50137Y-44488D03*
X50137Y-44114D03*
X49074Y-44114D03*
X49074Y-44862D03*
X53681Y-30295D03*
X53681Y-29921D03*
X53681Y-29547D03*
X52618Y-29547D03*
X52618Y-30295D03*
G54D24*
X58070Y-40354D03*
X58070Y-39960D03*
X58070Y-39566D03*
X58070Y-39173D03*
X58070Y-38779D03*
X58070Y-38385D03*
X58070Y-37992D03*
X58070Y-37598D03*
X58070Y-37204D03*
X58070Y-36811D03*
X58070Y-36417D03*
X58070Y-36023D03*
X58070Y-35629D03*
X58070Y-35236D03*
X58070Y-34842D03*
X58070Y-34448D03*
X58464Y-40354D03*
X58464Y-39960D03*
X58464Y-39566D03*
X58464Y-39173D03*
X58464Y-38779D03*
X58464Y-38385D03*
X58464Y-37992D03*
X58464Y-37598D03*
X58464Y-37204D03*
X58464Y-36811D03*
X58464Y-36417D03*
X58464Y-36023D03*
X58464Y-35629D03*
X58464Y-35236D03*
X58464Y-34842D03*
X58464Y-34448D03*
X58858Y-40354D03*
X58858Y-39960D03*
X58858Y-39566D03*
X58858Y-39173D03*
X58858Y-38779D03*
X58858Y-38385D03*
X58858Y-37992D03*
X58858Y-37598D03*
X58858Y-37204D03*
X58858Y-36811D03*
X58858Y-36417D03*
X58858Y-36023D03*
X58858Y-35629D03*
X58858Y-35236D03*
X58858Y-34842D03*
X58858Y-34448D03*
X59251Y-40354D03*
X59251Y-39960D03*
X59251Y-39566D03*
X59251Y-39173D03*
X59251Y-38779D03*
X59251Y-38385D03*
X59251Y-37992D03*
X59251Y-37598D03*
X59251Y-37204D03*
X59251Y-36811D03*
X59251Y-36417D03*
X59251Y-36023D03*
X59251Y-35629D03*
X59251Y-35236D03*
X59251Y-34842D03*
X59251Y-34448D03*
X59645Y-40354D03*
X59645Y-39960D03*
X59645Y-39566D03*
X59645Y-39173D03*
X59645Y-38779D03*
X59645Y-38385D03*
X59645Y-37992D03*
X59645Y-37598D03*
X59645Y-37204D03*
X59645Y-36811D03*
X59645Y-36417D03*
X59645Y-36023D03*
X59645Y-35629D03*
X59645Y-35236D03*
X59645Y-34842D03*
X59645Y-34448D03*
X60039Y-40354D03*
X60039Y-39960D03*
X60039Y-39566D03*
X60039Y-39173D03*
X60039Y-38779D03*
X60039Y-38385D03*
X60039Y-37992D03*
X60039Y-37598D03*
X60039Y-37204D03*
X60039Y-36811D03*
X60039Y-36417D03*
X60039Y-36023D03*
X60039Y-35629D03*
X60039Y-35236D03*
X60039Y-34842D03*
X60039Y-34448D03*
X60433Y-40354D03*
X60433Y-39960D03*
X60433Y-39566D03*
X60433Y-39173D03*
X60433Y-38779D03*
X60433Y-38385D03*
X60433Y-37992D03*
X60433Y-37598D03*
X60433Y-37204D03*
X60433Y-36811D03*
X60433Y-36417D03*
X60433Y-36023D03*
X60433Y-35629D03*
X60433Y-35236D03*
X60433Y-34842D03*
X60433Y-34448D03*
X60826Y-40354D03*
X60826Y-39960D03*
X60826Y-39566D03*
X60826Y-39173D03*
X60826Y-38779D03*
X60826Y-38385D03*
X60826Y-37992D03*
X60826Y-37598D03*
X60826Y-37204D03*
X60826Y-36811D03*
X60826Y-36417D03*
X60826Y-36023D03*
X60826Y-35629D03*
X60826Y-35236D03*
X60826Y-34842D03*
X60826Y-34448D03*
X61220Y-40354D03*
X61220Y-39960D03*
X61220Y-39566D03*
X61220Y-39173D03*
X61220Y-38779D03*
X61220Y-38385D03*
X61220Y-37992D03*
X61220Y-37598D03*
X61220Y-37204D03*
X61220Y-36811D03*
X61220Y-36417D03*
X61220Y-36023D03*
X61220Y-35629D03*
X61220Y-35236D03*
X61220Y-34842D03*
X61220Y-34448D03*
X61614Y-40354D03*
X61614Y-39960D03*
X61614Y-39566D03*
X61614Y-39173D03*
X61614Y-38779D03*
X61614Y-38385D03*
X61614Y-37992D03*
X61614Y-37598D03*
X61614Y-37204D03*
X61614Y-36811D03*
X61614Y-36417D03*
X61614Y-36023D03*
X61614Y-35629D03*
X61614Y-35236D03*
X61614Y-34842D03*
X61614Y-34448D03*
X62007Y-40354D03*
X62007Y-39960D03*
X62007Y-39566D03*
X62007Y-39173D03*
X62007Y-38779D03*
X62007Y-38385D03*
X62007Y-37992D03*
X62007Y-37598D03*
X62007Y-37204D03*
X62007Y-36811D03*
X62007Y-36417D03*
X62007Y-36023D03*
X62007Y-35629D03*
X62007Y-35236D03*
X62007Y-34842D03*
X62007Y-34448D03*
X62401Y-40354D03*
X62401Y-39960D03*
X62401Y-39566D03*
X62401Y-39173D03*
X62401Y-38779D03*
X62401Y-38385D03*
X62401Y-37992D03*
X62401Y-37598D03*
X62401Y-37204D03*
X62401Y-36811D03*
X62401Y-36417D03*
X62401Y-36023D03*
X62401Y-35629D03*
X62401Y-35236D03*
X62401Y-34842D03*
X62401Y-34448D03*
X62795Y-40354D03*
X62795Y-39960D03*
X62795Y-39566D03*
X62795Y-39173D03*
X62795Y-38779D03*
X62795Y-38385D03*
X62795Y-37992D03*
X62795Y-37598D03*
X62795Y-37204D03*
X62795Y-36811D03*
X62795Y-36417D03*
X62795Y-36023D03*
X62795Y-35629D03*
X62795Y-35236D03*
X62795Y-34842D03*
X62795Y-34448D03*
X63188Y-40354D03*
X63188Y-39960D03*
X63188Y-39566D03*
X63188Y-39173D03*
X63188Y-38779D03*
X63188Y-38385D03*
X63188Y-37992D03*
X63188Y-37598D03*
X63188Y-37204D03*
X63188Y-36811D03*
X63188Y-36417D03*
X63188Y-36023D03*
X63188Y-35629D03*
X63188Y-35236D03*
X63188Y-34842D03*
X63188Y-34448D03*
X63582Y-40354D03*
X63582Y-39960D03*
X63582Y-39566D03*
X63582Y-39173D03*
X63582Y-38779D03*
X63582Y-38385D03*
X63582Y-37992D03*
X63582Y-37598D03*
X63582Y-37204D03*
X63582Y-36811D03*
X63582Y-36417D03*
X63582Y-36023D03*
X63582Y-35629D03*
X63582Y-35236D03*
X63582Y-34842D03*
X63582Y-34448D03*
X63976Y-40354D03*
X63976Y-39960D03*
X63976Y-39566D03*
X63976Y-39173D03*
X63976Y-38779D03*
X63976Y-38385D03*
X63976Y-37992D03*
X63976Y-37598D03*
X63976Y-37204D03*
X63976Y-36811D03*
X63976Y-36417D03*
X63976Y-36023D03*
X63976Y-35629D03*
X63976Y-35236D03*
X63976Y-34842D03*
X63976Y-34448D03*
G54D25*
X72047Y-31338D03*
X72244Y-31338D03*
X72440Y-31338D03*
X72637Y-31338D03*
X72834Y-31338D03*
X72637Y-32440D03*
X72834Y-32440D03*
X72440Y-32440D03*
X72244Y-32440D03*
X72047Y-32440D03*
G54D26*
X72440Y-31683D03*
X72440Y-32096D03*
G54D27*
X38641Y-42913D03*
X38641Y-43110D03*
X38641Y-43307D03*
X38641Y-43503D03*
X38641Y-43700D03*
X38641Y-43897D03*
G54D28*
X38877Y-44133D03*
X39074Y-44133D03*
X39271Y-44133D03*
X39468Y-44133D03*
X39665Y-44133D03*
X39862Y-44133D03*
G54D27*
X40098Y-43897D03*
X40098Y-43700D03*
X40098Y-43503D03*
X40098Y-43307D03*
X40098Y-43110D03*
X40098Y-42913D03*
G54D28*
X39862Y-42677D03*
X39665Y-42677D03*
X39468Y-42677D03*
X39271Y-42677D03*
X39074Y-42677D03*
X38877Y-42677D03*
G54D29*
X39370Y-43405D03*
G54D30*
X39370Y-43031D03*
X39370Y-43779D03*
G54D19*
X44192Y-33425D03*
X44389Y-33425D03*
X44586Y-33425D03*
X44783Y-33425D03*
G54D18*
X45039Y-33169D03*
X45039Y-32972D03*
X45039Y-32775D03*
X45039Y-32578D03*
G54D19*
X44783Y-32322D03*
X44586Y-32322D03*
X44389Y-32322D03*
X44192Y-32322D03*
G54D18*
X43937Y-32578D03*
X43937Y-32775D03*
X43937Y-32972D03*
X43937Y-33169D03*
G54D31*
X44296Y-32874D03*
X44680Y-32874D03*
G54D32*
X72722Y-33366D03*
X71962Y-33366D03*
G54D33*
X48602Y-36417D03*
X48248Y-36417D03*
X37814Y-43307D03*
X38169Y-43307D03*
G54D34*
X41633Y-33287D03*
X41633Y-33641D03*
X40846Y-33287D03*
X40846Y-33641D03*
X39271Y-33287D03*
X39271Y-33641D03*
X38484Y-33287D03*
X38484Y-33641D03*
X37401Y-42244D03*
X37401Y-42598D03*
X37598Y-44212D03*
X37598Y-44566D03*
X49212Y-32696D03*
X49212Y-33051D03*
G54D33*
X45590Y-32677D03*
X45944Y-32677D03*
X45590Y-33070D03*
X45944Y-33070D03*
G54D34*
X44488Y-34468D03*
X44488Y-34822D03*
X37401Y-43307D03*
X37401Y-42952D03*
G54D33*
X41062Y-32874D03*
X41417Y-32874D03*
X40275Y-32874D03*
X40629Y-32874D03*
X39488Y-32874D03*
X39842Y-32874D03*
X38700Y-32874D03*
X39055Y-32874D03*
X40472Y-42421D03*
X40826Y-42421D03*
X40472Y-42027D03*
X40826Y-42027D03*
X40472Y-41633D03*
X40826Y-41633D03*
X44114Y-43110D03*
X44468Y-43110D03*
G54D34*
X37992Y-44212D03*
X37992Y-44566D03*
X39271Y-41653D03*
X39271Y-42007D03*
X38877Y-41653D03*
X38877Y-42007D03*
X40551Y-44212D03*
X40551Y-44566D03*
X37992Y-42244D03*
X37992Y-42598D03*
G54D33*
X41161Y-43897D03*
X41515Y-43897D03*
X41161Y-43503D03*
X41515Y-43503D03*
G54D34*
X49212Y-33385D03*
X49212Y-33740D03*
G54D33*
X49232Y-32086D03*
X49586Y-32086D03*
X48641Y-34251D03*
X48996Y-34251D03*
G54D34*
X53051Y-33287D03*
X53051Y-33641D03*
G54D33*
X42637Y-33661D03*
X42992Y-33661D03*
X42637Y-32086D03*
X42992Y-32086D03*
X52972Y-36515D03*
X53326Y-36515D03*
G54D34*
X45669Y-34822D03*
X45669Y-34468D03*
X44094Y-34822D03*
X44094Y-34468D03*
X43700Y-34822D03*
X43700Y-34468D03*
G54D33*
X44271Y-31496D03*
X43917Y-31496D03*
X44901Y-31496D03*
X45255Y-31496D03*
G54D34*
X45275Y-34822D03*
X45275Y-34468D03*
G54D33*
X72421Y-46161D03*
X72066Y-46161D03*
X72421Y-46555D03*
X72066Y-46555D03*
G54D34*
X67421Y-44704D03*
X67421Y-45059D03*
X67814Y-44704D03*
X67814Y-45059D03*
X67027Y-44704D03*
X67027Y-45059D03*
G54D33*
X44114Y-43503D03*
X44468Y-43503D03*
G54D34*
X46259Y-47066D03*
X46259Y-47421D03*
G54D33*
X37519Y-33070D03*
X37874Y-33070D03*
X42637Y-33267D03*
X42992Y-33267D03*
X42637Y-32480D03*
X42992Y-32480D03*
X37519Y-32677D03*
X37874Y-32677D03*
G54D34*
X44881Y-34468D03*
X44881Y-34822D03*
X72933Y-30688D03*
X72933Y-30334D03*
G54D33*
X47854Y-33759D03*
X48208Y-33759D03*
X47854Y-33366D03*
X48208Y-33366D03*
G54D34*
X48818Y-33385D03*
X48818Y-33740D03*
G54D33*
X48602Y-35236D03*
X48248Y-35236D03*
X52972Y-37007D03*
X53326Y-37007D03*
G54D34*
X65157Y-37933D03*
X65157Y-38287D03*
G54D33*
X65807Y-39271D03*
X66161Y-39271D03*
X42637Y-31692D03*
X42992Y-31692D03*
X42992Y-34055D03*
X42637Y-34055D03*
G54D34*
X72539Y-30334D03*
X72539Y-30688D03*
X70866Y-31476D03*
X70866Y-31122D03*
X68700Y-47224D03*
X68700Y-46870D03*
X71259Y-31122D03*
X71259Y-31476D03*
X51968Y-30295D03*
X51968Y-29940D03*
X54330Y-30295D03*
X54330Y-29940D03*
X48425Y-44862D03*
X48425Y-44507D03*
X50787Y-44862D03*
X50787Y-44507D03*
G54D33*
X49586Y-31692D03*
X49232Y-31692D03*
X49586Y-31299D03*
X49232Y-31299D03*
G54D34*
X70472Y-31476D03*
X70472Y-31122D03*
G54D35*
X69094Y-32322D03*
X69094Y-33622D03*
X66141Y-36870D03*
X66141Y-35570D03*
X67716Y-34901D03*
X67716Y-33602D03*
X74803Y-34901D03*
X74803Y-33602D03*
G54D36*
X70935Y-46446D03*
X70935Y-46190D03*
X70935Y-45935D03*
X70935Y-45679D03*
X69222Y-45679D03*
X69222Y-45935D03*
X69222Y-46190D03*
X69222Y-46446D03*
G54D37*
X51594Y-36456D03*
X51594Y-36712D03*
X51594Y-36968D03*
X52342Y-36968D03*
X52342Y-36456D03*
G54D38*
X70669Y-34913D03*
X70669Y-33393D03*
G54D34*
X34251Y-33641D03*
X34251Y-33287D03*
G54D33*
X50118Y-31299D03*
X50472Y-31299D03*
X50118Y-32086D03*
X50472Y-32086D03*
X51358Y-30905D03*
X51003Y-30905D03*
X50472Y-30905D03*
X50118Y-30905D03*
X49586Y-30905D03*
X49232Y-30905D03*
X72066Y-45767D03*
X72421Y-45767D03*
X72066Y-46948D03*
X72421Y-46948D03*
G54D39*
X64960Y-31312D03*
X64960Y-32072D03*
X66535Y-32072D03*
X66535Y-31312D03*
G54D34*
X54724Y-30295D03*
X54724Y-30649D03*
X51181Y-44862D03*
X51181Y-45216D03*
M02*
