G04 (created by PCBNEW (2013-mar-25)-stable) date Thursday, May 07, 2015 03:34:48 PM*
%MOIN*%
G04 Gerber Fmt 3.4, Leading zero omitted, Abs format*
%FSLAX34Y34*%
G01*
G70*
G90*
G04 APERTURE LIST*
%ADD10C,0.006*%
%ADD11R,0.015748X0.023622*%
%ADD12R,0.023622X0.015748*%
G04 APERTURE END LIST*
G54D10*
G54D11*
X63799Y-37401D03*
X64153Y-37401D03*
X62224Y-37401D03*
X62578Y-37401D03*
G54D12*
X57874Y-39783D03*
X57874Y-40137D03*
G54D11*
X60610Y-37401D03*
X60255Y-37401D03*
G54D12*
X61023Y-34625D03*
X61023Y-34271D03*
G54D11*
X63011Y-37401D03*
X63366Y-37401D03*
X61437Y-37401D03*
X61791Y-37401D03*
G54D12*
X61023Y-36988D03*
X61023Y-36633D03*
X64173Y-35413D03*
X64173Y-35059D03*
X61023Y-36200D03*
X61023Y-35846D03*
G54D11*
X59822Y-37401D03*
X59468Y-37401D03*
G54D12*
X61023Y-37814D03*
X61023Y-38169D03*
G54D11*
X58287Y-34251D03*
X58641Y-34251D03*
G54D12*
X61023Y-35059D03*
X61023Y-35413D03*
G54D11*
X59429Y-40551D03*
X59074Y-40551D03*
G54D12*
X57874Y-35846D03*
X57874Y-36200D03*
X61023Y-40177D03*
X61023Y-40531D03*
X61023Y-39389D03*
X61023Y-39744D03*
G54D11*
X62618Y-34251D03*
X62972Y-34251D03*
G54D12*
X64173Y-39350D03*
X64173Y-38996D03*
G54D11*
X58248Y-37401D03*
X57893Y-37401D03*
X58681Y-37401D03*
X59035Y-37401D03*
X63759Y-40551D03*
X63405Y-40551D03*
G54D12*
X64960Y-36240D03*
X64960Y-36594D03*
X64173Y-33444D03*
X64173Y-33090D03*
G54D11*
X57066Y-39173D03*
X56712Y-39173D03*
X57066Y-37401D03*
X56712Y-37401D03*
G54D12*
X64074Y-41358D03*
X64074Y-41712D03*
G54D11*
X57066Y-34251D03*
X56712Y-34251D03*
X57066Y-36614D03*
X56712Y-36614D03*
G54D12*
X64960Y-35019D03*
X64960Y-34665D03*
X59842Y-41358D03*
X59842Y-41712D03*
X60629Y-33444D03*
X60629Y-33090D03*
X61023Y-38956D03*
X61023Y-38602D03*
M02*
