G04 (created by PCBNEW (2013-mar-25)-stable) date Friday, August 07, 2015 11:50:23 AM*
%MOIN*%
G04 Gerber Fmt 3.4, Leading zero omitted, Abs format*
%FSLAX34Y34*%
G01*
G70*
G90*
G04 APERTURE LIST*
%ADD10C,0.006*%
%ADD11R,0.141732X0.0610236*%
%ADD12R,0.055X0.035*%
%ADD13R,0.035X0.055*%
%ADD14R,0.0787402X0.0590551*%
%ADD15R,0.0590551X0.0787402*%
%ADD16R,0.0472441X0.0787402*%
%ADD17R,0.05X0.02*%
%ADD18R,0.0472441X0.0472441*%
%ADD19R,0.137795X0.0472441*%
%ADD20R,0.023622X0.0866142*%
%ADD21R,0.137795X0.0866142*%
%ADD22R,0.0551X0.0393*%
G04 APERTURE END LIST*
G54D10*
G54D11*
X75984Y-31545D03*
X75984Y-29872D03*
G54D12*
X57086Y-32269D03*
X57086Y-31509D03*
X64566Y-21667D03*
X64566Y-22427D03*
X76771Y-21639D03*
X76771Y-20879D03*
X72047Y-29513D03*
X72047Y-28753D03*
X72047Y-24816D03*
X72047Y-25576D03*
G54D13*
X61037Y-22244D03*
X61797Y-22244D03*
G54D12*
X59448Y-26785D03*
X59448Y-27545D03*
G54D13*
X61037Y-32086D03*
X61797Y-32086D03*
G54D12*
X74409Y-30328D03*
X74409Y-31088D03*
X77952Y-21639D03*
X77952Y-20879D03*
X68700Y-21667D03*
X68700Y-22427D03*
G54D13*
X78628Y-32086D03*
X77868Y-32086D03*
X78628Y-29822D03*
X77868Y-29822D03*
G54D12*
X66141Y-26785D03*
X66141Y-27545D03*
X58267Y-27545D03*
X58267Y-26785D03*
G54D13*
X54344Y-28346D03*
X55104Y-28346D03*
G54D12*
X57874Y-21667D03*
X57874Y-22427D03*
G54D13*
X61824Y-29527D03*
X62584Y-29527D03*
X63793Y-23228D03*
X64553Y-23228D03*
X63793Y-24803D03*
X64553Y-24803D03*
X61824Y-23228D03*
X62584Y-23228D03*
X61824Y-24803D03*
X62584Y-24803D03*
X63793Y-27952D03*
X64553Y-27952D03*
X63793Y-26377D03*
X64553Y-26377D03*
X61824Y-27952D03*
X62584Y-27952D03*
X61824Y-26377D03*
X62584Y-26377D03*
G54D12*
X54724Y-25970D03*
X54724Y-25210D03*
G54D13*
X55104Y-27165D03*
X54344Y-27165D03*
G54D12*
X57086Y-26785D03*
X57086Y-27545D03*
G54D13*
X57860Y-29133D03*
X57100Y-29133D03*
G54D12*
X72834Y-31116D03*
X72834Y-31876D03*
X59448Y-30694D03*
X59448Y-29934D03*
X59448Y-32269D03*
X59448Y-31509D03*
X79133Y-21639D03*
X79133Y-20879D03*
X68700Y-31903D03*
X68700Y-32663D03*
G54D13*
X66915Y-25984D03*
X66155Y-25984D03*
G54D12*
X75590Y-23214D03*
X75590Y-22454D03*
X59055Y-23242D03*
X59055Y-24002D03*
X72834Y-24002D03*
X72834Y-23242D03*
X72834Y-21667D03*
X72834Y-22427D03*
X74409Y-23214D03*
X74409Y-22454D03*
G54D13*
X69698Y-29527D03*
X70458Y-29527D03*
X69698Y-24803D03*
X70458Y-24803D03*
X66155Y-29527D03*
X66915Y-29527D03*
X66155Y-24803D03*
X66915Y-24803D03*
X63793Y-31102D03*
X64553Y-31102D03*
X63793Y-29527D03*
X64553Y-29527D03*
X61824Y-31102D03*
X62584Y-31102D03*
G54D12*
X64566Y-31903D03*
X64566Y-32663D03*
X58267Y-31509D03*
X58267Y-32269D03*
G54D14*
X68503Y-26515D03*
X68503Y-27814D03*
X60629Y-26515D03*
X60629Y-27814D03*
X60629Y-30964D03*
X60629Y-29665D03*
G54D15*
X69822Y-27952D03*
X71122Y-27952D03*
X69822Y-26377D03*
X71122Y-26377D03*
G54D14*
X60629Y-23366D03*
X60629Y-24665D03*
X54724Y-23877D03*
X54724Y-22578D03*
G54D16*
X78452Y-22933D03*
X78452Y-25885D03*
X77452Y-22933D03*
X77452Y-25885D03*
G54D17*
X78698Y-31275D03*
X78696Y-30905D03*
X78696Y-30535D03*
X77799Y-30535D03*
X77799Y-30905D03*
X77799Y-31275D03*
G54D18*
X67834Y-30295D03*
X66929Y-30295D03*
X66023Y-30295D03*
G54D19*
X66929Y-32696D03*
G54D18*
X69566Y-24035D03*
X70472Y-24035D03*
X71377Y-24035D03*
G54D19*
X70472Y-21633D03*
G54D18*
X66023Y-24035D03*
X66929Y-24035D03*
X67834Y-24035D03*
G54D19*
X66929Y-21633D03*
G54D18*
X71377Y-30295D03*
X70472Y-30295D03*
X69566Y-30295D03*
G54D19*
X70472Y-32696D03*
G54D20*
X75803Y-24330D03*
X75303Y-24330D03*
X74803Y-24330D03*
X74303Y-24330D03*
X73803Y-24330D03*
G54D21*
X74803Y-27637D03*
G54D22*
X57913Y-24389D03*
X57913Y-23641D03*
X57047Y-24015D03*
X57913Y-30688D03*
X57913Y-29940D03*
X57047Y-30314D03*
M02*
