G04 (created by PCBNEW (2013-mar-25)-stable) date Friday, August 07, 2015 11:50:23 AM*
%MOIN*%
G04 Gerber Fmt 3.4, Leading zero omitted, Abs format*
%FSLAX34Y34*%
G01*
G70*
G90*
G04 APERTURE LIST*
%ADD10C,0.006*%
%ADD11C,0.00787402*%
%ADD12C,0.00590551*%
G04 APERTURE END LIST*
G54D10*
G54D11*
X77966Y-29150D02*
X77966Y-29510D01*
X77882Y-24299D02*
X77910Y-24367D01*
X77938Y-24389D01*
X77994Y-24412D01*
X78079Y-24412D01*
X78135Y-24389D01*
X78163Y-24367D01*
X78191Y-24322D01*
X78191Y-24142D01*
X77601Y-24142D01*
X77601Y-24299D01*
X77629Y-24344D01*
X77657Y-24367D01*
X77713Y-24389D01*
X77769Y-24389D01*
X77826Y-24367D01*
X77854Y-24344D01*
X77882Y-24299D01*
X77882Y-24142D01*
X78191Y-24614D02*
X77601Y-24614D01*
X78023Y-24817D02*
X78023Y-25042D01*
X78191Y-24772D02*
X77601Y-24929D01*
X78191Y-25087D01*
X78163Y-25222D02*
X78191Y-25289D01*
X78191Y-25402D01*
X78163Y-25447D01*
X78135Y-25469D01*
X78079Y-25492D01*
X78023Y-25492D01*
X77966Y-25469D01*
X77938Y-25447D01*
X77910Y-25402D01*
X77882Y-25312D01*
X77854Y-25267D01*
X77826Y-25244D01*
X77769Y-25222D01*
X77713Y-25222D01*
X77657Y-25244D01*
X77629Y-25267D01*
X77601Y-25312D01*
X77601Y-25424D01*
X77629Y-25492D01*
X77966Y-25694D02*
X77966Y-26054D01*
X78191Y-25874D02*
X77741Y-25874D01*
X81172Y-32907D02*
X81144Y-32862D01*
X81144Y-32795D01*
X81172Y-32727D01*
X81228Y-32682D01*
X81285Y-32660D01*
X81397Y-32637D01*
X81482Y-32637D01*
X81594Y-32660D01*
X81650Y-32682D01*
X81706Y-32727D01*
X81735Y-32795D01*
X81735Y-32840D01*
X81706Y-32907D01*
X81678Y-32930D01*
X81482Y-32930D01*
X81482Y-32840D01*
X81735Y-33132D02*
X81144Y-33132D01*
X81735Y-33402D01*
X81144Y-33402D01*
X81735Y-33627D02*
X81144Y-33627D01*
X81144Y-33740D01*
X81172Y-33807D01*
X81228Y-33852D01*
X81285Y-33875D01*
X81397Y-33897D01*
X81482Y-33897D01*
X81594Y-33875D01*
X81650Y-33852D01*
X81706Y-33807D01*
X81735Y-33740D01*
X81735Y-33627D01*
X81566Y-28495D02*
X81566Y-28720D01*
X81735Y-28450D02*
X81144Y-28607D01*
X81735Y-28765D01*
X81735Y-28922D02*
X81144Y-28922D01*
X81735Y-29192D01*
X81144Y-29192D01*
X81144Y-29350D02*
X81144Y-29620D01*
X81735Y-29485D02*
X81144Y-29485D01*
X82677Y-29921D02*
X80118Y-29921D01*
X80118Y-29921D02*
X80118Y-32283D01*
X80118Y-32283D02*
X82677Y-32283D01*
X79133Y-26377D02*
X76574Y-26377D01*
X76574Y-26377D02*
X76574Y-28740D01*
X76574Y-28740D02*
X79133Y-28740D01*
X79176Y-30719D02*
X79597Y-30719D01*
X79682Y-30697D01*
X79738Y-30652D01*
X79766Y-30584D01*
X79766Y-30539D01*
X79766Y-31192D02*
X79766Y-30922D01*
X79766Y-31057D02*
X79176Y-31057D01*
X79260Y-31012D01*
X79316Y-30967D01*
X79344Y-30922D01*
X79176Y-31349D02*
X79176Y-31642D01*
X79401Y-31484D01*
X79401Y-31552D01*
X79429Y-31597D01*
X79457Y-31619D01*
X79513Y-31642D01*
X79654Y-31642D01*
X79710Y-31619D01*
X79738Y-31597D01*
X79766Y-31552D01*
X79766Y-31417D01*
X79738Y-31372D01*
X79710Y-31349D01*
X75731Y-27176D02*
X76152Y-27176D01*
X76237Y-27154D01*
X76293Y-27109D01*
X76321Y-27041D01*
X76321Y-26996D01*
X76321Y-27649D02*
X76321Y-27379D01*
X76321Y-27514D02*
X75731Y-27514D01*
X75815Y-27469D01*
X75871Y-27424D01*
X75899Y-27379D01*
X75787Y-27829D02*
X75759Y-27851D01*
X75731Y-27896D01*
X75731Y-28008D01*
X75759Y-28053D01*
X75787Y-28076D01*
X75843Y-28098D01*
X75899Y-28098D01*
X75984Y-28076D01*
X76321Y-27806D01*
X76321Y-28098D01*
G54D12*
X61671Y-28505D02*
X61776Y-28318D01*
X61851Y-28505D02*
X61851Y-28112D01*
X61731Y-28112D01*
X61701Y-28130D01*
X61686Y-28149D01*
X61671Y-28187D01*
X61671Y-28243D01*
X61686Y-28280D01*
X61701Y-28299D01*
X61731Y-28318D01*
X61851Y-28318D01*
X61386Y-28112D02*
X61536Y-28112D01*
X61551Y-28299D01*
X61536Y-28280D01*
X61506Y-28262D01*
X61431Y-28262D01*
X61401Y-28280D01*
X61386Y-28299D01*
X61371Y-28337D01*
X61371Y-28430D01*
X61386Y-28468D01*
X61401Y-28487D01*
X61431Y-28505D01*
X61506Y-28505D01*
X61536Y-28487D01*
X61551Y-28468D01*
X61176Y-28112D02*
X61146Y-28112D01*
X61116Y-28130D01*
X61101Y-28149D01*
X61086Y-28187D01*
X61071Y-28262D01*
X61071Y-28355D01*
X61086Y-28430D01*
X61101Y-28468D01*
X61116Y-28487D01*
X61146Y-28505D01*
X61176Y-28505D01*
X61206Y-28487D01*
X61221Y-28468D01*
X61236Y-28430D01*
X61251Y-28355D01*
X61251Y-28262D01*
X61236Y-28187D01*
X61221Y-28149D01*
X61206Y-28130D01*
X61176Y-28112D01*
X60966Y-28112D02*
X60771Y-28112D01*
X60876Y-28262D01*
X60831Y-28262D01*
X60801Y-28280D01*
X60786Y-28299D01*
X60771Y-28337D01*
X60771Y-28430D01*
X60786Y-28468D01*
X60801Y-28487D01*
X60831Y-28505D01*
X60921Y-28505D01*
X60951Y-28487D01*
X60966Y-28468D01*
X61671Y-26143D02*
X61776Y-25956D01*
X61851Y-26143D02*
X61851Y-25749D01*
X61731Y-25749D01*
X61701Y-25768D01*
X61686Y-25787D01*
X61671Y-25824D01*
X61671Y-25881D01*
X61686Y-25918D01*
X61701Y-25937D01*
X61731Y-25956D01*
X61851Y-25956D01*
X61386Y-25749D02*
X61536Y-25749D01*
X61551Y-25937D01*
X61536Y-25918D01*
X61506Y-25899D01*
X61431Y-25899D01*
X61401Y-25918D01*
X61386Y-25937D01*
X61371Y-25974D01*
X61371Y-26068D01*
X61386Y-26106D01*
X61401Y-26124D01*
X61431Y-26143D01*
X61506Y-26143D01*
X61536Y-26124D01*
X61551Y-26106D01*
X61176Y-25749D02*
X61146Y-25749D01*
X61116Y-25768D01*
X61101Y-25787D01*
X61086Y-25824D01*
X61071Y-25899D01*
X61071Y-25993D01*
X61086Y-26068D01*
X61101Y-26106D01*
X61116Y-26124D01*
X61146Y-26143D01*
X61176Y-26143D01*
X61206Y-26124D01*
X61221Y-26106D01*
X61236Y-26068D01*
X61251Y-25993D01*
X61251Y-25899D01*
X61236Y-25824D01*
X61221Y-25787D01*
X61206Y-25768D01*
X61176Y-25749D01*
X60801Y-25881D02*
X60801Y-26143D01*
X60876Y-25731D02*
X60951Y-26012D01*
X60756Y-26012D01*
X63344Y-24137D02*
X63359Y-24156D01*
X63404Y-24175D01*
X63434Y-24175D01*
X63479Y-24156D01*
X63509Y-24118D01*
X63524Y-24081D01*
X63539Y-24006D01*
X63539Y-23950D01*
X63524Y-23875D01*
X63509Y-23837D01*
X63479Y-23800D01*
X63434Y-23781D01*
X63404Y-23781D01*
X63359Y-23800D01*
X63344Y-23818D01*
X63059Y-23781D02*
X63209Y-23781D01*
X63224Y-23968D01*
X63209Y-23950D01*
X63179Y-23931D01*
X63104Y-23931D01*
X63074Y-23950D01*
X63059Y-23968D01*
X63044Y-24006D01*
X63044Y-24100D01*
X63059Y-24137D01*
X63074Y-24156D01*
X63104Y-24175D01*
X63179Y-24175D01*
X63209Y-24156D01*
X63224Y-24137D01*
X62849Y-23781D02*
X62819Y-23781D01*
X62789Y-23800D01*
X62774Y-23818D01*
X62759Y-23856D01*
X62744Y-23931D01*
X62744Y-24025D01*
X62759Y-24100D01*
X62774Y-24137D01*
X62789Y-24156D01*
X62819Y-24175D01*
X62849Y-24175D01*
X62879Y-24156D01*
X62894Y-24137D01*
X62909Y-24100D01*
X62924Y-24025D01*
X62924Y-23931D01*
X62909Y-23856D01*
X62894Y-23818D01*
X62879Y-23800D01*
X62849Y-23781D01*
X62459Y-23781D02*
X62609Y-23781D01*
X62624Y-23968D01*
X62609Y-23950D01*
X62579Y-23931D01*
X62504Y-23931D01*
X62474Y-23950D01*
X62459Y-23968D01*
X62444Y-24006D01*
X62444Y-24100D01*
X62459Y-24137D01*
X62474Y-24156D01*
X62504Y-24175D01*
X62579Y-24175D01*
X62609Y-24156D01*
X62624Y-24137D01*
X63344Y-30535D02*
X63359Y-30553D01*
X63404Y-30572D01*
X63434Y-30572D01*
X63479Y-30553D01*
X63509Y-30516D01*
X63524Y-30479D01*
X63539Y-30404D01*
X63539Y-30347D01*
X63524Y-30272D01*
X63509Y-30235D01*
X63479Y-30197D01*
X63434Y-30179D01*
X63404Y-30179D01*
X63359Y-30197D01*
X63344Y-30216D01*
X63059Y-30179D02*
X63209Y-30179D01*
X63224Y-30366D01*
X63209Y-30347D01*
X63179Y-30329D01*
X63104Y-30329D01*
X63074Y-30347D01*
X63059Y-30366D01*
X63044Y-30404D01*
X63044Y-30497D01*
X63059Y-30535D01*
X63074Y-30553D01*
X63104Y-30572D01*
X63179Y-30572D01*
X63209Y-30553D01*
X63224Y-30535D01*
X62849Y-30179D02*
X62819Y-30179D01*
X62789Y-30197D01*
X62774Y-30216D01*
X62759Y-30254D01*
X62744Y-30329D01*
X62744Y-30422D01*
X62759Y-30497D01*
X62774Y-30535D01*
X62789Y-30553D01*
X62819Y-30572D01*
X62849Y-30572D01*
X62879Y-30553D01*
X62894Y-30535D01*
X62909Y-30497D01*
X62924Y-30422D01*
X62924Y-30329D01*
X62909Y-30254D01*
X62894Y-30216D01*
X62879Y-30197D01*
X62849Y-30179D01*
X62474Y-30310D02*
X62474Y-30572D01*
X62549Y-30160D02*
X62624Y-30441D01*
X62429Y-30441D01*
X60887Y-26625D02*
X60887Y-26805D01*
X61281Y-26715D02*
X60887Y-26715D01*
X60887Y-27060D02*
X60887Y-26910D01*
X61075Y-26895D01*
X61056Y-26910D01*
X61037Y-26940D01*
X61037Y-27015D01*
X61056Y-27045D01*
X61075Y-27060D01*
X61112Y-27075D01*
X61206Y-27075D01*
X61243Y-27060D01*
X61262Y-27045D01*
X61281Y-27015D01*
X61281Y-26940D01*
X61262Y-26910D01*
X61243Y-26895D01*
X60887Y-27270D02*
X60887Y-27300D01*
X60906Y-27330D01*
X60925Y-27345D01*
X60962Y-27360D01*
X61037Y-27375D01*
X61131Y-27375D01*
X61206Y-27360D01*
X61243Y-27345D01*
X61262Y-27330D01*
X61281Y-27300D01*
X61281Y-27270D01*
X61262Y-27240D01*
X61243Y-27225D01*
X61206Y-27210D01*
X61131Y-27195D01*
X61037Y-27195D01*
X60962Y-27210D01*
X60925Y-27225D01*
X60906Y-27240D01*
X60887Y-27270D01*
X61281Y-27675D02*
X61281Y-27495D01*
X61281Y-27585D02*
X60887Y-27585D01*
X60943Y-27555D01*
X60981Y-27525D01*
X61000Y-27495D01*
X56950Y-26625D02*
X56950Y-26805D01*
X57344Y-26715D02*
X56950Y-26715D01*
X56950Y-27060D02*
X56950Y-26910D01*
X57138Y-26895D01*
X57119Y-26910D01*
X57100Y-26940D01*
X57100Y-27015D01*
X57119Y-27045D01*
X57138Y-27060D01*
X57175Y-27075D01*
X57269Y-27075D01*
X57306Y-27060D01*
X57325Y-27045D01*
X57344Y-27015D01*
X57344Y-26940D01*
X57325Y-26910D01*
X57306Y-26895D01*
X56950Y-27270D02*
X56950Y-27300D01*
X56969Y-27330D01*
X56988Y-27345D01*
X57025Y-27360D01*
X57100Y-27375D01*
X57194Y-27375D01*
X57269Y-27360D01*
X57306Y-27345D01*
X57325Y-27330D01*
X57344Y-27300D01*
X57344Y-27270D01*
X57325Y-27240D01*
X57306Y-27225D01*
X57269Y-27210D01*
X57194Y-27195D01*
X57100Y-27195D01*
X57025Y-27210D01*
X56988Y-27225D01*
X56969Y-27240D01*
X56950Y-27270D01*
X56988Y-27495D02*
X56969Y-27510D01*
X56950Y-27540D01*
X56950Y-27615D01*
X56969Y-27645D01*
X56988Y-27660D01*
X57025Y-27675D01*
X57063Y-27675D01*
X57119Y-27660D01*
X57344Y-27480D01*
X57344Y-27675D01*
X58562Y-28508D02*
X58544Y-28478D01*
X58506Y-28448D01*
X58450Y-28403D01*
X58431Y-28373D01*
X58431Y-28343D01*
X58525Y-28358D02*
X58506Y-28328D01*
X58469Y-28298D01*
X58394Y-28283D01*
X58263Y-28283D01*
X58188Y-28298D01*
X58150Y-28328D01*
X58131Y-28358D01*
X58131Y-28418D01*
X58150Y-28448D01*
X58188Y-28478D01*
X58263Y-28493D01*
X58394Y-28493D01*
X58469Y-28478D01*
X58506Y-28448D01*
X58525Y-28418D01*
X58525Y-28358D01*
X58131Y-28778D02*
X58131Y-28628D01*
X58319Y-28613D01*
X58300Y-28628D01*
X58281Y-28658D01*
X58281Y-28733D01*
X58300Y-28763D01*
X58319Y-28778D01*
X58356Y-28793D01*
X58450Y-28793D01*
X58488Y-28778D01*
X58506Y-28763D01*
X58525Y-28733D01*
X58525Y-28658D01*
X58506Y-28628D01*
X58488Y-28613D01*
X58131Y-28988D02*
X58131Y-29018D01*
X58150Y-29048D01*
X58169Y-29063D01*
X58206Y-29078D01*
X58281Y-29093D01*
X58375Y-29093D01*
X58450Y-29078D01*
X58488Y-29063D01*
X58506Y-29048D01*
X58525Y-29018D01*
X58525Y-28988D01*
X58506Y-28958D01*
X58488Y-28943D01*
X58450Y-28928D01*
X58375Y-28913D01*
X58281Y-28913D01*
X58206Y-28928D01*
X58169Y-28943D01*
X58150Y-28958D01*
X58131Y-28988D01*
X58131Y-29198D02*
X58131Y-29408D01*
X58525Y-29273D01*
M02*
