G04 (created by PCBNEW (2013-mar-25)-stable) date Friday, August 07, 2015 11:50:23 AM*
%MOIN*%
G04 Gerber Fmt 3.4, Leading zero omitted, Abs format*
%FSLAX34Y34*%
G01*
G70*
G90*
G04 APERTURE LIST*
%ADD10C,0.006*%
%ADD11C,0.000393701*%
G04 APERTURE END LIST*
G54D10*
G54D11*
X87251Y-28740D02*
X87251Y-22716D01*
X87251Y-22716D02*
X80267Y-22716D01*
X80267Y-22716D02*
X80267Y-28740D01*
X80267Y-28740D02*
X87251Y-28740D01*
X80216Y-30011D02*
X80216Y-32192D01*
X80216Y-32192D02*
X82775Y-32192D01*
X82775Y-32192D02*
X82775Y-30011D01*
X82775Y-30011D02*
X80216Y-30011D01*
X76673Y-26468D02*
X76673Y-28649D01*
X76673Y-28649D02*
X79232Y-28649D01*
X79232Y-28649D02*
X79232Y-26468D01*
X79232Y-26468D02*
X76673Y-26468D01*
X79133Y-22598D02*
X79133Y-26220D01*
X79133Y-26220D02*
X76771Y-26220D01*
X76771Y-26220D02*
X76771Y-22598D01*
X76771Y-22598D02*
X79133Y-22598D01*
X88000Y-33468D02*
X87401Y-33468D01*
X87401Y-33468D02*
X87401Y-29129D01*
X87401Y-29129D02*
X88000Y-29129D01*
X88000Y-29129D02*
X88000Y-33468D01*
X87401Y-31448D02*
X85602Y-31448D01*
X85602Y-31448D02*
X85602Y-31149D01*
X85602Y-31149D02*
X87401Y-31149D01*
X87401Y-33468D02*
X85602Y-33468D01*
X85602Y-33468D02*
X85602Y-33009D01*
X85602Y-33009D02*
X87401Y-33009D01*
X87401Y-29129D02*
X85602Y-29129D01*
X85602Y-29129D02*
X85602Y-29588D01*
X85602Y-29588D02*
X87401Y-29588D01*
X88000Y-29399D02*
X92283Y-29399D01*
X92283Y-29399D02*
X92283Y-33198D01*
X92283Y-33198D02*
X88000Y-33198D01*
X61870Y-26555D02*
X61870Y-27775D01*
X61870Y-27775D02*
X62539Y-27775D01*
X62539Y-27775D02*
X62539Y-26555D01*
X62539Y-26555D02*
X61870Y-26555D01*
X57933Y-26555D02*
X57933Y-27775D01*
X57933Y-27775D02*
X58602Y-27775D01*
X58602Y-27775D02*
X58602Y-26555D01*
X58602Y-26555D02*
X57933Y-26555D01*
X77913Y-31515D02*
X77913Y-30295D01*
X77913Y-30295D02*
X78582Y-30295D01*
X78582Y-30295D02*
X78582Y-31515D01*
X78582Y-31515D02*
X77913Y-31515D01*
X68248Y-32224D02*
X65610Y-32224D01*
X65610Y-32224D02*
X65610Y-30767D01*
X65610Y-30767D02*
X68248Y-30767D01*
X68248Y-30767D02*
X68248Y-32224D01*
X69153Y-22106D02*
X71791Y-22106D01*
X71791Y-22106D02*
X71791Y-23562D01*
X71791Y-23562D02*
X69153Y-23562D01*
X69153Y-23562D02*
X69153Y-22106D01*
X65610Y-22106D02*
X68248Y-22106D01*
X68248Y-22106D02*
X68248Y-23562D01*
X68248Y-23562D02*
X65610Y-23562D01*
X65610Y-23562D02*
X65610Y-22106D01*
X71791Y-32224D02*
X69153Y-32224D01*
X69153Y-32224D02*
X69153Y-30767D01*
X69153Y-30767D02*
X71791Y-30767D01*
X71791Y-30767D02*
X71791Y-32224D01*
X76092Y-26683D02*
X73513Y-26683D01*
X73513Y-26683D02*
X73513Y-25285D01*
X73513Y-25285D02*
X76092Y-25285D01*
X76092Y-25285D02*
X76092Y-26683D01*
M02*
