G04 (created by PCBNEW (2013-mar-25)-stable) date Friday, August 07, 2015 11:50:23 AM*
%MOIN*%
G04 Gerber Fmt 3.4, Leading zero omitted, Abs format*
%FSLAX34Y34*%
G01*
G70*
G90*
G04 APERTURE LIST*
%ADD10C,0.006*%
%ADD11C,0.00787402*%
%ADD12C,0.019685*%
%ADD13C,9.84252e-05*%
%ADD14C,0.00590551*%
%ADD15C,0.01*%
G04 APERTURE END LIST*
G54D10*
G54D11*
X41451Y-30497D02*
X41406Y-30469D01*
X41316Y-30469D01*
X41271Y-30497D01*
X41226Y-30553D01*
X41203Y-30610D01*
X41203Y-30722D01*
X41226Y-30778D01*
X41271Y-30835D01*
X41316Y-30863D01*
X41406Y-30863D01*
X41451Y-30835D01*
X41361Y-30272D02*
X41248Y-30300D01*
X41136Y-30385D01*
X41068Y-30525D01*
X41046Y-30666D01*
X41068Y-30807D01*
X41136Y-30947D01*
X41248Y-31032D01*
X41361Y-31060D01*
X41473Y-31032D01*
X41586Y-30947D01*
X41653Y-30807D01*
X41676Y-30666D01*
X41653Y-30525D01*
X41586Y-30385D01*
X41473Y-30300D01*
X41361Y-30272D01*
X41878Y-30947D02*
X41878Y-30357D01*
X42058Y-30357D01*
X42103Y-30385D01*
X42125Y-30413D01*
X42148Y-30469D01*
X42148Y-30553D01*
X42125Y-30610D01*
X42103Y-30638D01*
X42058Y-30666D01*
X41878Y-30666D01*
X42418Y-30947D02*
X42373Y-30919D01*
X42350Y-30891D01*
X42328Y-30835D01*
X42328Y-30666D01*
X42350Y-30610D01*
X42373Y-30582D01*
X42418Y-30553D01*
X42485Y-30553D01*
X42530Y-30582D01*
X42553Y-30610D01*
X42575Y-30666D01*
X42575Y-30835D01*
X42553Y-30891D01*
X42530Y-30919D01*
X42485Y-30947D01*
X42418Y-30947D01*
X42778Y-30947D02*
X42778Y-30553D01*
X42778Y-30357D02*
X42755Y-30385D01*
X42778Y-30413D01*
X42800Y-30385D01*
X42778Y-30357D01*
X42778Y-30413D01*
X43003Y-30553D02*
X43003Y-30947D01*
X43003Y-30610D02*
X43025Y-30582D01*
X43070Y-30553D01*
X43138Y-30553D01*
X43183Y-30582D01*
X43205Y-30638D01*
X43205Y-30947D01*
X43363Y-30553D02*
X43543Y-30553D01*
X43430Y-30357D02*
X43430Y-30863D01*
X43453Y-30919D01*
X43498Y-30947D01*
X43543Y-30947D01*
X44330Y-30947D02*
X44173Y-30666D01*
X44060Y-30947D02*
X44060Y-30357D01*
X44240Y-30357D01*
X44285Y-30385D01*
X44308Y-30413D01*
X44330Y-30469D01*
X44330Y-30553D01*
X44308Y-30610D01*
X44285Y-30638D01*
X44240Y-30666D01*
X44060Y-30666D01*
X44713Y-30919D02*
X44668Y-30947D01*
X44578Y-30947D01*
X44533Y-30919D01*
X44510Y-30863D01*
X44510Y-30638D01*
X44533Y-30582D01*
X44578Y-30553D01*
X44668Y-30553D01*
X44713Y-30582D01*
X44735Y-30638D01*
X44735Y-30694D01*
X44510Y-30750D01*
X44893Y-30553D02*
X45005Y-30947D01*
X45118Y-30553D02*
X45005Y-30947D01*
X44960Y-31088D01*
X44938Y-31116D01*
X44893Y-31144D01*
X45478Y-30919D02*
X45433Y-30947D01*
X45343Y-30947D01*
X45298Y-30919D01*
X45275Y-30863D01*
X45275Y-30638D01*
X45298Y-30582D01*
X45343Y-30553D01*
X45433Y-30553D01*
X45478Y-30582D01*
X45500Y-30638D01*
X45500Y-30694D01*
X45275Y-30750D01*
X45680Y-30919D02*
X45725Y-30947D01*
X45815Y-30947D01*
X45860Y-30919D01*
X45883Y-30863D01*
X45883Y-30835D01*
X45860Y-30778D01*
X45815Y-30750D01*
X45748Y-30750D01*
X45703Y-30722D01*
X45680Y-30666D01*
X45680Y-30638D01*
X45703Y-30582D01*
X45748Y-30553D01*
X45815Y-30553D01*
X45860Y-30582D01*
X46377Y-30357D02*
X46535Y-30947D01*
X46692Y-30357D01*
X47030Y-30919D02*
X46985Y-30947D01*
X46895Y-30947D01*
X46850Y-30919D01*
X46827Y-30863D01*
X46827Y-30638D01*
X46850Y-30582D01*
X46895Y-30553D01*
X46985Y-30553D01*
X47030Y-30582D01*
X47052Y-30638D01*
X47052Y-30694D01*
X46827Y-30750D01*
X47255Y-30553D02*
X47255Y-30947D01*
X47255Y-30610D02*
X47277Y-30582D01*
X47322Y-30553D01*
X47390Y-30553D01*
X47435Y-30582D01*
X47457Y-30638D01*
X47457Y-30947D01*
X47615Y-30553D02*
X47795Y-30553D01*
X47682Y-30357D02*
X47682Y-30863D01*
X47705Y-30919D01*
X47750Y-30947D01*
X47795Y-30947D01*
X48155Y-30553D02*
X48155Y-30947D01*
X47952Y-30553D02*
X47952Y-30863D01*
X47975Y-30919D01*
X48020Y-30947D01*
X48087Y-30947D01*
X48132Y-30919D01*
X48155Y-30891D01*
X48380Y-30947D02*
X48380Y-30553D01*
X48380Y-30666D02*
X48402Y-30610D01*
X48425Y-30582D01*
X48470Y-30553D01*
X48515Y-30553D01*
X48852Y-30919D02*
X48807Y-30947D01*
X48717Y-30947D01*
X48672Y-30919D01*
X48650Y-30863D01*
X48650Y-30638D01*
X48672Y-30582D01*
X48717Y-30553D01*
X48807Y-30553D01*
X48852Y-30582D01*
X48875Y-30638D01*
X48875Y-30694D01*
X48650Y-30750D01*
X49055Y-30919D02*
X49100Y-30947D01*
X49190Y-30947D01*
X49235Y-30919D01*
X49257Y-30863D01*
X49257Y-30835D01*
X49235Y-30778D01*
X49190Y-30750D01*
X49122Y-30750D01*
X49077Y-30722D01*
X49055Y-30666D01*
X49055Y-30638D01*
X49077Y-30582D01*
X49122Y-30553D01*
X49190Y-30553D01*
X49235Y-30582D01*
X49482Y-30919D02*
X49482Y-30947D01*
X49460Y-31003D01*
X49437Y-31032D01*
X50269Y-30947D02*
X50044Y-30947D01*
X50044Y-30357D01*
X50652Y-30947D02*
X50427Y-30947D01*
X50427Y-30357D01*
X51079Y-30891D02*
X51057Y-30919D01*
X50989Y-30947D01*
X50944Y-30947D01*
X50877Y-30919D01*
X50832Y-30863D01*
X50809Y-30807D01*
X50787Y-30694D01*
X50787Y-30610D01*
X50809Y-30497D01*
X50832Y-30441D01*
X50877Y-30385D01*
X50944Y-30357D01*
X50989Y-30357D01*
X51057Y-30385D01*
X51079Y-30413D01*
X72992Y-21203D02*
X72722Y-21203D01*
X72857Y-21203D02*
X72857Y-20613D01*
X72812Y-20697D01*
X72767Y-20753D01*
X72722Y-20781D01*
X73397Y-20809D02*
X73397Y-21203D01*
X73284Y-20584D02*
X73172Y-21006D01*
X73464Y-21006D01*
X73644Y-21147D02*
X73667Y-21175D01*
X73644Y-21203D01*
X73622Y-21175D01*
X73644Y-21147D01*
X73644Y-21203D01*
X74094Y-20613D02*
X73869Y-20613D01*
X73847Y-20894D01*
X73869Y-20866D01*
X73914Y-20838D01*
X74026Y-20838D01*
X74071Y-20866D01*
X74094Y-20894D01*
X74116Y-20950D01*
X74116Y-21091D01*
X74094Y-21147D01*
X74071Y-21175D01*
X74026Y-21203D01*
X73914Y-21203D01*
X73869Y-21175D01*
X73847Y-21147D01*
X74251Y-20613D02*
X74409Y-21203D01*
X74566Y-20613D01*
X74836Y-21794D02*
X74836Y-21203D01*
X74949Y-21203D01*
X75016Y-21231D01*
X75061Y-21287D01*
X75084Y-21344D01*
X75106Y-21456D01*
X75106Y-21541D01*
X75084Y-21653D01*
X75061Y-21709D01*
X75016Y-21766D01*
X74949Y-21794D01*
X74836Y-21794D01*
X75579Y-21737D02*
X75556Y-21766D01*
X75489Y-21794D01*
X75444Y-21794D01*
X75376Y-21766D01*
X75331Y-21709D01*
X75309Y-21653D01*
X75286Y-21541D01*
X75286Y-21456D01*
X75309Y-21344D01*
X75331Y-21287D01*
X75376Y-21231D01*
X75444Y-21203D01*
X75489Y-21203D01*
X75556Y-21231D01*
X75579Y-21259D01*
X45736Y-27010D02*
X45736Y-27516D01*
X45714Y-27573D01*
X45669Y-27601D01*
X45646Y-27601D01*
X45736Y-26813D02*
X45714Y-26841D01*
X45736Y-26870D01*
X45759Y-26841D01*
X45736Y-26813D01*
X45736Y-26870D01*
X45961Y-27404D02*
X45961Y-26813D01*
X46006Y-27179D02*
X46141Y-27404D01*
X46141Y-27010D02*
X45961Y-27235D01*
X46321Y-27376D02*
X46366Y-27404D01*
X46456Y-27404D01*
X46501Y-27376D01*
X46524Y-27320D01*
X46524Y-27291D01*
X46501Y-27235D01*
X46456Y-27207D01*
X46389Y-27207D01*
X46344Y-27179D01*
X46321Y-27123D01*
X46321Y-27095D01*
X46344Y-27038D01*
X46389Y-27010D01*
X46456Y-27010D01*
X46501Y-27038D01*
X46726Y-27348D02*
X46749Y-27376D01*
X46726Y-27404D01*
X46704Y-27376D01*
X46726Y-27348D01*
X46726Y-27404D01*
X47154Y-27376D02*
X47109Y-27404D01*
X47019Y-27404D01*
X46974Y-27376D01*
X46951Y-27348D01*
X46929Y-27291D01*
X46929Y-27123D01*
X46951Y-27066D01*
X46974Y-27038D01*
X47019Y-27010D01*
X47109Y-27010D01*
X47154Y-27038D01*
X47424Y-27404D02*
X47379Y-27376D01*
X47356Y-27348D01*
X47334Y-27291D01*
X47334Y-27123D01*
X47356Y-27066D01*
X47379Y-27038D01*
X47424Y-27010D01*
X47491Y-27010D01*
X47536Y-27038D01*
X47559Y-27066D01*
X47581Y-27123D01*
X47581Y-27291D01*
X47559Y-27348D01*
X47536Y-27376D01*
X47491Y-27404D01*
X47424Y-27404D01*
X47784Y-27404D02*
X47784Y-27010D01*
X47784Y-27066D02*
X47806Y-27038D01*
X47851Y-27010D01*
X47919Y-27010D01*
X47964Y-27038D01*
X47986Y-27095D01*
X47986Y-27404D01*
X47986Y-27095D02*
X48008Y-27038D01*
X48053Y-27010D01*
X48121Y-27010D01*
X48166Y-27038D01*
X48188Y-27095D01*
X48188Y-27404D01*
X48751Y-26785D02*
X48346Y-27544D01*
X48908Y-27404D02*
X48908Y-26813D01*
X48953Y-27179D02*
X49088Y-27404D01*
X49088Y-27010D02*
X48908Y-27235D01*
X49291Y-27404D02*
X49291Y-27010D01*
X49291Y-26813D02*
X49268Y-26841D01*
X49291Y-26870D01*
X49313Y-26841D01*
X49291Y-26813D01*
X49291Y-26870D01*
X49471Y-27010D02*
X49561Y-27404D01*
X49651Y-27123D01*
X49741Y-27404D01*
X49831Y-27010D01*
X50011Y-27404D02*
X50011Y-27010D01*
X50011Y-26813D02*
X49988Y-26841D01*
X50011Y-26870D01*
X50033Y-26841D01*
X50011Y-26813D01*
X50011Y-26870D01*
X50213Y-27376D02*
X50258Y-27404D01*
X50348Y-27404D01*
X50393Y-27376D01*
X50416Y-27320D01*
X50416Y-27291D01*
X50393Y-27235D01*
X50348Y-27207D01*
X50281Y-27207D01*
X50236Y-27179D01*
X50213Y-27123D01*
X50213Y-27095D01*
X50236Y-27038D01*
X50281Y-27010D01*
X50348Y-27010D01*
X50393Y-27038D01*
X50821Y-27404D02*
X50821Y-26813D01*
X50821Y-27376D02*
X50776Y-27404D01*
X50686Y-27404D01*
X50641Y-27376D01*
X50618Y-27348D01*
X50596Y-27291D01*
X50596Y-27123D01*
X50618Y-27066D01*
X50641Y-27038D01*
X50686Y-27010D01*
X50776Y-27010D01*
X50821Y-27038D01*
X51046Y-27404D02*
X51046Y-27010D01*
X51046Y-27123D02*
X51068Y-27066D01*
X51091Y-27038D01*
X51136Y-27010D01*
X51181Y-27010D01*
X46771Y-28416D02*
X46996Y-28416D01*
X46726Y-28585D02*
X46884Y-27994D01*
X47041Y-28585D01*
X47401Y-28191D02*
X47401Y-28585D01*
X47199Y-28191D02*
X47199Y-28501D01*
X47221Y-28557D01*
X47266Y-28585D01*
X47334Y-28585D01*
X47379Y-28557D01*
X47401Y-28529D01*
X47829Y-28191D02*
X47829Y-28669D01*
X47806Y-28726D01*
X47784Y-28754D01*
X47739Y-28782D01*
X47671Y-28782D01*
X47626Y-28754D01*
X47829Y-28557D02*
X47784Y-28585D01*
X47694Y-28585D01*
X47649Y-28557D01*
X47626Y-28529D01*
X47604Y-28473D01*
X47604Y-28304D01*
X47626Y-28248D01*
X47649Y-28219D01*
X47694Y-28191D01*
X47784Y-28191D01*
X47829Y-28219D01*
X48256Y-28191D02*
X48256Y-28585D01*
X48053Y-28191D02*
X48053Y-28501D01*
X48076Y-28557D01*
X48121Y-28585D01*
X48188Y-28585D01*
X48233Y-28557D01*
X48256Y-28529D01*
X48458Y-28557D02*
X48503Y-28585D01*
X48593Y-28585D01*
X48638Y-28557D01*
X48661Y-28501D01*
X48661Y-28473D01*
X48638Y-28416D01*
X48593Y-28388D01*
X48526Y-28388D01*
X48481Y-28360D01*
X48458Y-28304D01*
X48458Y-28276D01*
X48481Y-28219D01*
X48526Y-28191D01*
X48593Y-28191D01*
X48638Y-28219D01*
X48796Y-28191D02*
X48976Y-28191D01*
X48863Y-27994D02*
X48863Y-28501D01*
X48886Y-28557D01*
X48931Y-28585D01*
X48976Y-28585D01*
X49471Y-28051D02*
X49493Y-28023D01*
X49538Y-27994D01*
X49651Y-27994D01*
X49696Y-28023D01*
X49718Y-28051D01*
X49741Y-28107D01*
X49741Y-28163D01*
X49718Y-28248D01*
X49448Y-28585D01*
X49741Y-28585D01*
X50033Y-27994D02*
X50078Y-27994D01*
X50123Y-28023D01*
X50146Y-28051D01*
X50168Y-28107D01*
X50191Y-28219D01*
X50191Y-28360D01*
X50168Y-28473D01*
X50146Y-28529D01*
X50123Y-28557D01*
X50078Y-28585D01*
X50033Y-28585D01*
X49988Y-28557D01*
X49966Y-28529D01*
X49943Y-28473D01*
X49921Y-28360D01*
X49921Y-28219D01*
X49943Y-28107D01*
X49966Y-28051D01*
X49988Y-28023D01*
X50033Y-27994D01*
X50641Y-28585D02*
X50371Y-28585D01*
X50506Y-28585D02*
X50506Y-27994D01*
X50461Y-28079D01*
X50416Y-28135D01*
X50371Y-28163D01*
X51068Y-27994D02*
X50843Y-27994D01*
X50821Y-28276D01*
X50843Y-28248D01*
X50888Y-28219D01*
X51001Y-28219D01*
X51046Y-28248D01*
X51068Y-28276D01*
X51091Y-28332D01*
X51091Y-28473D01*
X51068Y-28529D01*
X51046Y-28557D01*
X51001Y-28585D01*
X50888Y-28585D01*
X50843Y-28557D01*
X50821Y-28529D01*
X42148Y-29316D02*
X42103Y-29288D01*
X42013Y-29288D01*
X41968Y-29316D01*
X41923Y-29372D01*
X41901Y-29429D01*
X41901Y-29541D01*
X41923Y-29597D01*
X41968Y-29654D01*
X42013Y-29682D01*
X42103Y-29682D01*
X42148Y-29654D01*
X42058Y-29091D02*
X41946Y-29119D01*
X41833Y-29204D01*
X41766Y-29344D01*
X41743Y-29485D01*
X41766Y-29625D01*
X41833Y-29766D01*
X41946Y-29850D01*
X42058Y-29879D01*
X42170Y-29850D01*
X42283Y-29766D01*
X42350Y-29625D01*
X42373Y-29485D01*
X42350Y-29344D01*
X42283Y-29204D01*
X42170Y-29119D01*
X42058Y-29091D01*
X42553Y-29738D02*
X42620Y-29766D01*
X42733Y-29766D01*
X42778Y-29738D01*
X42800Y-29710D01*
X42823Y-29654D01*
X42823Y-29597D01*
X42800Y-29541D01*
X42778Y-29513D01*
X42733Y-29485D01*
X42643Y-29457D01*
X42598Y-29429D01*
X42575Y-29401D01*
X42553Y-29344D01*
X42553Y-29288D01*
X42575Y-29232D01*
X42598Y-29204D01*
X42643Y-29176D01*
X42755Y-29176D01*
X42823Y-29204D01*
X43093Y-29766D02*
X43048Y-29738D01*
X43025Y-29710D01*
X43003Y-29654D01*
X43003Y-29485D01*
X43025Y-29429D01*
X43048Y-29401D01*
X43093Y-29372D01*
X43160Y-29372D01*
X43205Y-29401D01*
X43228Y-29429D01*
X43250Y-29485D01*
X43250Y-29654D01*
X43228Y-29710D01*
X43205Y-29738D01*
X43160Y-29766D01*
X43093Y-29766D01*
X43453Y-29372D02*
X43453Y-29766D01*
X43453Y-29429D02*
X43475Y-29401D01*
X43520Y-29372D01*
X43588Y-29372D01*
X43633Y-29401D01*
X43655Y-29457D01*
X43655Y-29766D01*
X43948Y-29766D02*
X43903Y-29738D01*
X43880Y-29710D01*
X43858Y-29654D01*
X43858Y-29485D01*
X43880Y-29429D01*
X43903Y-29401D01*
X43948Y-29372D01*
X44015Y-29372D01*
X44060Y-29401D01*
X44083Y-29429D01*
X44105Y-29485D01*
X44105Y-29654D01*
X44083Y-29710D01*
X44060Y-29738D01*
X44015Y-29766D01*
X43948Y-29766D01*
X44308Y-29766D02*
X44308Y-29372D01*
X44308Y-29485D02*
X44330Y-29429D01*
X44353Y-29401D01*
X44398Y-29372D01*
X44443Y-29372D01*
X44803Y-29766D02*
X44803Y-29457D01*
X44780Y-29401D01*
X44735Y-29372D01*
X44645Y-29372D01*
X44600Y-29401D01*
X44803Y-29738D02*
X44758Y-29766D01*
X44645Y-29766D01*
X44600Y-29738D01*
X44578Y-29682D01*
X44578Y-29625D01*
X44600Y-29569D01*
X44645Y-29541D01*
X44758Y-29541D01*
X44803Y-29513D01*
X45028Y-29372D02*
X45028Y-29766D01*
X45028Y-29429D02*
X45050Y-29401D01*
X45095Y-29372D01*
X45163Y-29372D01*
X45208Y-29401D01*
X45230Y-29457D01*
X45230Y-29766D01*
X46085Y-29766D02*
X45928Y-29485D01*
X45815Y-29766D02*
X45815Y-29176D01*
X45995Y-29176D01*
X46040Y-29204D01*
X46062Y-29232D01*
X46085Y-29288D01*
X46085Y-29372D01*
X46062Y-29429D01*
X46040Y-29457D01*
X45995Y-29485D01*
X45815Y-29485D01*
X46490Y-29766D02*
X46490Y-29457D01*
X46467Y-29401D01*
X46422Y-29372D01*
X46332Y-29372D01*
X46287Y-29401D01*
X46490Y-29738D02*
X46445Y-29766D01*
X46332Y-29766D01*
X46287Y-29738D01*
X46265Y-29682D01*
X46265Y-29625D01*
X46287Y-29569D01*
X46332Y-29541D01*
X46445Y-29541D01*
X46490Y-29513D01*
X46917Y-29766D02*
X46917Y-29176D01*
X46917Y-29738D02*
X46872Y-29766D01*
X46782Y-29766D01*
X46737Y-29738D01*
X46715Y-29710D01*
X46692Y-29654D01*
X46692Y-29485D01*
X46715Y-29429D01*
X46737Y-29401D01*
X46782Y-29372D01*
X46872Y-29372D01*
X46917Y-29401D01*
X47142Y-29766D02*
X47142Y-29372D01*
X47142Y-29176D02*
X47120Y-29204D01*
X47142Y-29232D01*
X47165Y-29204D01*
X47142Y-29176D01*
X47142Y-29232D01*
X47435Y-29766D02*
X47390Y-29738D01*
X47367Y-29710D01*
X47345Y-29654D01*
X47345Y-29485D01*
X47367Y-29429D01*
X47390Y-29401D01*
X47435Y-29372D01*
X47502Y-29372D01*
X47547Y-29401D01*
X47570Y-29429D01*
X47592Y-29485D01*
X47592Y-29654D01*
X47570Y-29710D01*
X47547Y-29738D01*
X47502Y-29766D01*
X47435Y-29766D01*
X48425Y-29766D02*
X48267Y-29485D01*
X48155Y-29766D02*
X48155Y-29176D01*
X48335Y-29176D01*
X48380Y-29204D01*
X48402Y-29232D01*
X48425Y-29288D01*
X48425Y-29372D01*
X48402Y-29429D01*
X48380Y-29457D01*
X48335Y-29485D01*
X48155Y-29485D01*
X48807Y-29738D02*
X48762Y-29766D01*
X48672Y-29766D01*
X48627Y-29738D01*
X48605Y-29682D01*
X48605Y-29457D01*
X48627Y-29401D01*
X48672Y-29372D01*
X48762Y-29372D01*
X48807Y-29401D01*
X48830Y-29457D01*
X48830Y-29513D01*
X48605Y-29569D01*
X49010Y-29738D02*
X49055Y-29766D01*
X49145Y-29766D01*
X49190Y-29738D01*
X49212Y-29682D01*
X49212Y-29654D01*
X49190Y-29597D01*
X49145Y-29569D01*
X49077Y-29569D01*
X49032Y-29541D01*
X49010Y-29485D01*
X49010Y-29457D01*
X49032Y-29401D01*
X49077Y-29372D01*
X49145Y-29372D01*
X49190Y-29401D01*
X49595Y-29738D02*
X49550Y-29766D01*
X49460Y-29766D01*
X49415Y-29738D01*
X49392Y-29682D01*
X49392Y-29457D01*
X49415Y-29401D01*
X49460Y-29372D01*
X49550Y-29372D01*
X49595Y-29401D01*
X49617Y-29457D01*
X49617Y-29513D01*
X49392Y-29569D01*
X50022Y-29766D02*
X50022Y-29457D01*
X50000Y-29401D01*
X49955Y-29372D01*
X49865Y-29372D01*
X49820Y-29401D01*
X50022Y-29738D02*
X49977Y-29766D01*
X49865Y-29766D01*
X49820Y-29738D01*
X49797Y-29682D01*
X49797Y-29625D01*
X49820Y-29569D01*
X49865Y-29541D01*
X49977Y-29541D01*
X50022Y-29513D01*
X50247Y-29766D02*
X50247Y-29372D01*
X50247Y-29485D02*
X50269Y-29429D01*
X50292Y-29401D01*
X50337Y-29372D01*
X50382Y-29372D01*
X50742Y-29738D02*
X50697Y-29766D01*
X50607Y-29766D01*
X50562Y-29738D01*
X50539Y-29710D01*
X50517Y-29654D01*
X50517Y-29485D01*
X50539Y-29429D01*
X50562Y-29401D01*
X50607Y-29372D01*
X50697Y-29372D01*
X50742Y-29401D01*
X50944Y-29766D02*
X50944Y-29176D01*
X51147Y-29766D02*
X51147Y-29457D01*
X51124Y-29401D01*
X51079Y-29372D01*
X51012Y-29372D01*
X50967Y-29401D01*
X50944Y-29429D01*
X48661Y-23298D02*
X48886Y-23298D01*
X48616Y-23467D02*
X48773Y-22876D01*
X48931Y-23467D01*
X49291Y-23439D02*
X49246Y-23467D01*
X49156Y-23467D01*
X49111Y-23439D01*
X49088Y-23411D01*
X49066Y-23354D01*
X49066Y-23186D01*
X49088Y-23129D01*
X49111Y-23101D01*
X49156Y-23073D01*
X49246Y-23073D01*
X49291Y-23101D01*
X49426Y-23073D02*
X49606Y-23073D01*
X49493Y-22876D02*
X49493Y-23383D01*
X49516Y-23439D01*
X49561Y-23467D01*
X49606Y-23467D01*
X49763Y-23467D02*
X49763Y-23073D01*
X49763Y-22876D02*
X49741Y-22904D01*
X49763Y-22933D01*
X49786Y-22904D01*
X49763Y-22876D01*
X49763Y-22933D01*
X49943Y-23073D02*
X50056Y-23467D01*
X50168Y-23073D01*
X50528Y-23439D02*
X50483Y-23467D01*
X50393Y-23467D01*
X50348Y-23439D01*
X50326Y-23383D01*
X50326Y-23158D01*
X50348Y-23101D01*
X50393Y-23073D01*
X50483Y-23073D01*
X50528Y-23101D01*
X50551Y-23158D01*
X50551Y-23214D01*
X50326Y-23270D01*
X48301Y-24204D02*
X48526Y-24204D01*
X48256Y-24372D02*
X48413Y-23782D01*
X48571Y-24372D01*
X48728Y-23979D02*
X48728Y-24372D01*
X48728Y-24035D02*
X48751Y-24007D01*
X48796Y-23979D01*
X48863Y-23979D01*
X48908Y-24007D01*
X48931Y-24063D01*
X48931Y-24372D01*
X49088Y-23979D02*
X49268Y-23979D01*
X49156Y-23782D02*
X49156Y-24288D01*
X49178Y-24344D01*
X49223Y-24372D01*
X49268Y-24372D01*
X49606Y-24344D02*
X49561Y-24372D01*
X49471Y-24372D01*
X49426Y-24344D01*
X49403Y-24288D01*
X49403Y-24063D01*
X49426Y-24007D01*
X49471Y-23979D01*
X49561Y-23979D01*
X49606Y-24007D01*
X49628Y-24063D01*
X49628Y-24119D01*
X49403Y-24176D01*
X49831Y-23979D02*
X49831Y-24372D01*
X49831Y-24035D02*
X49853Y-24007D01*
X49898Y-23979D01*
X49966Y-23979D01*
X50011Y-24007D01*
X50033Y-24063D01*
X50033Y-24372D01*
X50258Y-23979D02*
X50258Y-24372D01*
X50258Y-24035D02*
X50281Y-24007D01*
X50326Y-23979D01*
X50393Y-23979D01*
X50438Y-24007D01*
X50461Y-24063D01*
X50461Y-24372D01*
X50888Y-24372D02*
X50888Y-24063D01*
X50866Y-24007D01*
X50821Y-23979D01*
X50731Y-23979D01*
X50686Y-24007D01*
X50888Y-24344D02*
X50843Y-24372D01*
X50731Y-24372D01*
X50686Y-24344D01*
X50663Y-24288D01*
X50663Y-24232D01*
X50686Y-24176D01*
X50731Y-24147D01*
X50843Y-24147D01*
X50888Y-24119D01*
X35523Y-26954D02*
X35478Y-26926D01*
X35388Y-26926D01*
X35343Y-26954D01*
X35298Y-27010D01*
X35275Y-27066D01*
X35275Y-27179D01*
X35298Y-27235D01*
X35343Y-27291D01*
X35388Y-27320D01*
X35478Y-27320D01*
X35523Y-27291D01*
X35433Y-26729D02*
X35320Y-26757D01*
X35208Y-26841D01*
X35140Y-26982D01*
X35118Y-27123D01*
X35140Y-27263D01*
X35208Y-27404D01*
X35320Y-27488D01*
X35433Y-27516D01*
X35545Y-27488D01*
X35658Y-27404D01*
X35725Y-27263D01*
X35748Y-27123D01*
X35725Y-26982D01*
X35658Y-26841D01*
X35545Y-26757D01*
X35433Y-26729D01*
X35950Y-27404D02*
X35950Y-26813D01*
X35950Y-27038D02*
X35995Y-27010D01*
X36085Y-27010D01*
X36130Y-27038D01*
X36152Y-27066D01*
X36175Y-27123D01*
X36175Y-27291D01*
X36152Y-27348D01*
X36130Y-27376D01*
X36085Y-27404D01*
X35995Y-27404D01*
X35950Y-27376D01*
X36445Y-27404D02*
X36400Y-27376D01*
X36377Y-27320D01*
X36377Y-26813D01*
X36827Y-27010D02*
X36827Y-27404D01*
X36625Y-27010D02*
X36625Y-27320D01*
X36647Y-27376D01*
X36692Y-27404D01*
X36760Y-27404D01*
X36805Y-27376D01*
X36827Y-27348D01*
X37232Y-27376D02*
X37187Y-27404D01*
X37097Y-27404D01*
X37052Y-27376D01*
X37030Y-27320D01*
X37030Y-27095D01*
X37052Y-27038D01*
X37097Y-27010D01*
X37187Y-27010D01*
X37232Y-27038D01*
X37255Y-27095D01*
X37255Y-27151D01*
X37030Y-27207D01*
X37457Y-27404D02*
X37457Y-26813D01*
X37457Y-27038D02*
X37502Y-27010D01*
X37592Y-27010D01*
X37637Y-27038D01*
X37660Y-27066D01*
X37682Y-27123D01*
X37682Y-27291D01*
X37660Y-27348D01*
X37637Y-27376D01*
X37592Y-27404D01*
X37502Y-27404D01*
X37457Y-27376D01*
X37885Y-27404D02*
X37885Y-27010D01*
X37885Y-26813D02*
X37862Y-26841D01*
X37885Y-26870D01*
X37907Y-26841D01*
X37885Y-26813D01*
X37885Y-26870D01*
X38087Y-27376D02*
X38132Y-27404D01*
X38222Y-27404D01*
X38267Y-27376D01*
X38290Y-27320D01*
X38290Y-27291D01*
X38267Y-27235D01*
X38222Y-27207D01*
X38155Y-27207D01*
X38110Y-27179D01*
X38087Y-27123D01*
X38087Y-27095D01*
X38110Y-27038D01*
X38155Y-27010D01*
X38222Y-27010D01*
X38267Y-27038D01*
X38560Y-27404D02*
X38515Y-27376D01*
X38492Y-27348D01*
X38470Y-27291D01*
X38470Y-27123D01*
X38492Y-27066D01*
X38515Y-27038D01*
X38560Y-27010D01*
X38627Y-27010D01*
X38672Y-27038D01*
X38695Y-27066D01*
X38717Y-27123D01*
X38717Y-27291D01*
X38695Y-27348D01*
X38672Y-27376D01*
X38627Y-27404D01*
X38560Y-27404D01*
X38920Y-27010D02*
X38920Y-27404D01*
X38920Y-27066D02*
X38942Y-27038D01*
X38987Y-27010D01*
X39055Y-27010D01*
X39100Y-27038D01*
X39122Y-27095D01*
X39122Y-27404D01*
X39347Y-27348D02*
X39370Y-27376D01*
X39347Y-27404D01*
X39325Y-27376D01*
X39347Y-27348D01*
X39347Y-27404D01*
X39572Y-27010D02*
X39572Y-27404D01*
X39572Y-27066D02*
X39595Y-27038D01*
X39640Y-27010D01*
X39707Y-27010D01*
X39752Y-27038D01*
X39775Y-27095D01*
X39775Y-27404D01*
X40179Y-27376D02*
X40134Y-27404D01*
X40044Y-27404D01*
X40000Y-27376D01*
X39977Y-27320D01*
X39977Y-27095D01*
X40000Y-27038D01*
X40044Y-27010D01*
X40134Y-27010D01*
X40179Y-27038D01*
X40202Y-27095D01*
X40202Y-27151D01*
X39977Y-27207D01*
X40337Y-27010D02*
X40517Y-27010D01*
X40404Y-26813D02*
X40404Y-27320D01*
X40427Y-27376D01*
X40472Y-27404D01*
X40517Y-27404D01*
G54D12*
X41507Y-24100D02*
X41507Y-22919D01*
X42047Y-24100D02*
X41642Y-23425D01*
X42047Y-22919D02*
X41507Y-23593D01*
X42452Y-24100D02*
X42452Y-23312D01*
X42452Y-22919D02*
X42407Y-22975D01*
X42452Y-23031D01*
X42497Y-22975D01*
X42452Y-22919D01*
X42452Y-23031D01*
X42812Y-23312D02*
X42992Y-24100D01*
X43172Y-23537D01*
X43352Y-24100D01*
X43532Y-23312D01*
X43892Y-24100D02*
X43892Y-23312D01*
X43892Y-22919D02*
X43847Y-22975D01*
X43892Y-23031D01*
X43937Y-22975D01*
X43892Y-22919D01*
X43892Y-23031D01*
X44296Y-24043D02*
X44431Y-24100D01*
X44656Y-24100D01*
X44746Y-24043D01*
X44791Y-23987D01*
X44836Y-23875D01*
X44836Y-23762D01*
X44791Y-23650D01*
X44746Y-23593D01*
X44656Y-23537D01*
X44476Y-23481D01*
X44386Y-23425D01*
X44341Y-23368D01*
X44296Y-23256D01*
X44296Y-23143D01*
X44341Y-23031D01*
X44386Y-22975D01*
X44476Y-22919D01*
X44701Y-22919D01*
X44836Y-22975D01*
X45241Y-24100D02*
X45241Y-22919D01*
X45466Y-22919D01*
X45601Y-22975D01*
X45691Y-23087D01*
X45736Y-23200D01*
X45781Y-23425D01*
X45781Y-23593D01*
X45736Y-23818D01*
X45691Y-23931D01*
X45601Y-24043D01*
X45466Y-24100D01*
X45241Y-24100D01*
X46726Y-24100D02*
X46411Y-23537D01*
X46186Y-24100D02*
X46186Y-22919D01*
X46546Y-22919D01*
X46636Y-22975D01*
X46681Y-23031D01*
X46726Y-23143D01*
X46726Y-23312D01*
X46681Y-23425D01*
X46636Y-23481D01*
X46546Y-23537D01*
X46186Y-23537D01*
G54D11*
X35236Y-31931D02*
X35326Y-31931D01*
X35371Y-31960D01*
X35416Y-32016D01*
X35438Y-32128D01*
X35438Y-32325D01*
X35416Y-32438D01*
X35371Y-32494D01*
X35326Y-32522D01*
X35236Y-32522D01*
X35191Y-32494D01*
X35146Y-32438D01*
X35123Y-32325D01*
X35123Y-32128D01*
X35146Y-32016D01*
X35191Y-31960D01*
X35236Y-31931D01*
X35618Y-32494D02*
X35686Y-32522D01*
X35798Y-32522D01*
X35843Y-32494D01*
X35866Y-32466D01*
X35888Y-32410D01*
X35888Y-32353D01*
X35866Y-32297D01*
X35843Y-32269D01*
X35798Y-32241D01*
X35708Y-32213D01*
X35663Y-32185D01*
X35641Y-32156D01*
X35618Y-32100D01*
X35618Y-32044D01*
X35641Y-31988D01*
X35663Y-31960D01*
X35708Y-31931D01*
X35821Y-31931D01*
X35888Y-31960D01*
X36091Y-32522D02*
X36091Y-31931D01*
X36091Y-32213D02*
X36361Y-32213D01*
X36361Y-32522D02*
X36361Y-31931D01*
X36541Y-31931D02*
X36653Y-32522D01*
X36743Y-32100D01*
X36833Y-32522D01*
X36946Y-31931D01*
X87204Y-28877D02*
X80118Y-28877D01*
X80118Y-28877D02*
X80118Y-22578D01*
X80118Y-22578D02*
X87204Y-22578D01*
X76968Y-22244D02*
X76574Y-22244D01*
X76574Y-22244D02*
X76574Y-26574D01*
X76574Y-26574D02*
X76968Y-26574D01*
X78937Y-22244D02*
X79330Y-22244D01*
X79330Y-22244D02*
X79330Y-26574D01*
X79330Y-26574D02*
X78937Y-26574D01*
G54D13*
G36*
X37168Y-30855D02*
X37167Y-30892D01*
X37167Y-30919D01*
X37166Y-30938D01*
X37165Y-30951D01*
X37163Y-30959D01*
X37160Y-30963D01*
X37157Y-30965D01*
X37148Y-30967D01*
X37129Y-30971D01*
X37102Y-30976D01*
X37070Y-30982D01*
X37033Y-30989D01*
X37031Y-30989D01*
X36994Y-30996D01*
X36960Y-31002D01*
X36930Y-31008D01*
X36909Y-31012D01*
X36896Y-31014D01*
X36896Y-31014D01*
X36889Y-31016D01*
X36882Y-31019D01*
X36876Y-31024D01*
X36870Y-31033D01*
X36862Y-31048D01*
X36853Y-31068D01*
X36841Y-31097D01*
X36826Y-31135D01*
X36820Y-31151D01*
X36807Y-31183D01*
X36797Y-31208D01*
X36790Y-31227D01*
X36787Y-31243D01*
X36788Y-31259D01*
X36793Y-31275D01*
X36803Y-31293D01*
X36819Y-31317D01*
X36840Y-31347D01*
X36865Y-31383D01*
X36886Y-31414D01*
X36905Y-31442D01*
X36921Y-31465D01*
X36933Y-31482D01*
X36938Y-31491D01*
X36938Y-31491D01*
X36939Y-31496D01*
X36937Y-31502D01*
X36931Y-31511D01*
X36920Y-31525D01*
X36904Y-31543D01*
X36880Y-31567D01*
X36850Y-31598D01*
X36837Y-31611D01*
X36807Y-31641D01*
X36780Y-31667D01*
X36757Y-31689D01*
X36739Y-31706D01*
X36728Y-31717D01*
X36724Y-31719D01*
X36717Y-31716D01*
X36703Y-31707D01*
X36681Y-31693D01*
X36654Y-31675D01*
X36622Y-31653D01*
X36604Y-31641D01*
X36571Y-31618D01*
X36541Y-31598D01*
X36516Y-31582D01*
X36497Y-31569D01*
X36485Y-31563D01*
X36482Y-31562D01*
X36474Y-31565D01*
X36458Y-31572D01*
X36436Y-31582D01*
X36421Y-31590D01*
X36393Y-31603D01*
X36374Y-31611D01*
X36363Y-31613D01*
X36361Y-31612D01*
X36358Y-31605D01*
X36350Y-31588D01*
X36339Y-31563D01*
X36325Y-31531D01*
X36309Y-31493D01*
X36291Y-31450D01*
X36276Y-31416D01*
X36249Y-31351D01*
X36227Y-31297D01*
X36208Y-31251D01*
X36193Y-31214D01*
X36181Y-31185D01*
X36172Y-31163D01*
X36165Y-31146D01*
X36161Y-31134D01*
X36158Y-31125D01*
X36157Y-31120D01*
X36156Y-31117D01*
X36156Y-31116D01*
X36161Y-31110D01*
X36173Y-31098D01*
X36191Y-31083D01*
X36198Y-31078D01*
X36249Y-31035D01*
X36289Y-30990D01*
X36318Y-30942D01*
X36336Y-30890D01*
X36345Y-30833D01*
X36345Y-30805D01*
X36339Y-30745D01*
X36323Y-30689D01*
X36297Y-30639D01*
X36263Y-30594D01*
X36221Y-30556D01*
X36174Y-30526D01*
X36122Y-30504D01*
X36067Y-30493D01*
X36008Y-30491D01*
X35958Y-30499D01*
X35903Y-30518D01*
X35852Y-30546D01*
X35807Y-30583D01*
X35769Y-30627D01*
X35740Y-30676D01*
X35723Y-30723D01*
X35715Y-30774D01*
X35715Y-30828D01*
X35722Y-30882D01*
X35737Y-30932D01*
X35748Y-30957D01*
X35771Y-30991D01*
X35801Y-31026D01*
X35835Y-31057D01*
X35865Y-31081D01*
X35882Y-31092D01*
X35893Y-31102D01*
X35899Y-31113D01*
X35899Y-31127D01*
X35894Y-31146D01*
X35884Y-31172D01*
X35873Y-31199D01*
X35859Y-31231D01*
X35843Y-31269D01*
X35826Y-31310D01*
X35808Y-31354D01*
X35790Y-31399D01*
X35772Y-31442D01*
X35755Y-31481D01*
X35741Y-31516D01*
X35730Y-31544D01*
X35722Y-31564D01*
X35719Y-31571D01*
X35710Y-31592D01*
X35702Y-31606D01*
X35693Y-31611D01*
X35680Y-31610D01*
X35661Y-31602D01*
X35636Y-31589D01*
X35612Y-31577D01*
X35591Y-31569D01*
X35576Y-31564D01*
X35571Y-31564D01*
X35564Y-31569D01*
X35548Y-31578D01*
X35527Y-31593D01*
X35501Y-31610D01*
X35472Y-31629D01*
X35443Y-31649D01*
X35415Y-31668D01*
X35390Y-31685D01*
X35370Y-31699D01*
X35358Y-31708D01*
X35357Y-31708D01*
X35345Y-31716D01*
X35337Y-31719D01*
X35331Y-31715D01*
X35317Y-31704D01*
X35298Y-31686D01*
X35274Y-31663D01*
X35247Y-31636D01*
X35225Y-31615D01*
X35196Y-31586D01*
X35170Y-31559D01*
X35148Y-31535D01*
X35132Y-31517D01*
X35122Y-31504D01*
X35120Y-31500D01*
X35124Y-31492D01*
X35133Y-31476D01*
X35147Y-31453D01*
X35166Y-31425D01*
X35187Y-31393D01*
X35199Y-31375D01*
X35222Y-31342D01*
X35242Y-31312D01*
X35258Y-31287D01*
X35270Y-31268D01*
X35277Y-31256D01*
X35278Y-31254D01*
X35276Y-31245D01*
X35270Y-31228D01*
X35260Y-31204D01*
X35249Y-31175D01*
X35237Y-31144D01*
X35224Y-31112D01*
X35211Y-31083D01*
X35200Y-31057D01*
X35192Y-31037D01*
X35186Y-31026D01*
X35185Y-31025D01*
X35176Y-31020D01*
X35155Y-31015D01*
X35122Y-31007D01*
X35078Y-30998D01*
X35021Y-30987D01*
X34963Y-30977D01*
X34937Y-30972D01*
X34916Y-30967D01*
X34901Y-30963D01*
X34898Y-30961D01*
X34895Y-30955D01*
X34893Y-30944D01*
X34892Y-30924D01*
X34891Y-30896D01*
X34890Y-30857D01*
X34890Y-30808D01*
X34890Y-30804D01*
X34890Y-30763D01*
X34891Y-30726D01*
X34892Y-30694D01*
X34893Y-30670D01*
X34894Y-30655D01*
X34895Y-30651D01*
X34902Y-30649D01*
X34919Y-30645D01*
X34945Y-30640D01*
X34977Y-30634D01*
X35015Y-30627D01*
X35033Y-30624D01*
X35072Y-30616D01*
X35108Y-30609D01*
X35139Y-30603D01*
X35163Y-30598D01*
X35178Y-30595D01*
X35180Y-30594D01*
X35186Y-30591D01*
X35193Y-30583D01*
X35201Y-30569D01*
X35212Y-30549D01*
X35225Y-30519D01*
X35239Y-30487D01*
X35253Y-30453D01*
X35265Y-30423D01*
X35275Y-30399D01*
X35281Y-30381D01*
X35284Y-30373D01*
X35280Y-30365D01*
X35271Y-30348D01*
X35257Y-30325D01*
X35239Y-30297D01*
X35217Y-30265D01*
X35204Y-30246D01*
X35181Y-30212D01*
X35161Y-30181D01*
X35144Y-30155D01*
X35131Y-30135D01*
X35123Y-30122D01*
X35122Y-30118D01*
X35123Y-30112D01*
X35130Y-30101D01*
X35144Y-30085D01*
X35164Y-30063D01*
X35192Y-30033D01*
X35224Y-30002D01*
X35253Y-29973D01*
X35280Y-29946D01*
X35303Y-29925D01*
X35321Y-29908D01*
X35333Y-29898D01*
X35337Y-29896D01*
X35344Y-29900D01*
X35359Y-29909D01*
X35381Y-29923D01*
X35409Y-29942D01*
X35442Y-29963D01*
X35468Y-29981D01*
X35502Y-30004D01*
X35533Y-30025D01*
X35560Y-30043D01*
X35581Y-30056D01*
X35594Y-30064D01*
X35598Y-30066D01*
X35606Y-30064D01*
X35623Y-30057D01*
X35647Y-30048D01*
X35675Y-30037D01*
X35705Y-30025D01*
X35736Y-30012D01*
X35763Y-30001D01*
X35786Y-29990D01*
X35802Y-29983D01*
X35809Y-29979D01*
X35812Y-29971D01*
X35817Y-29953D01*
X35823Y-29927D01*
X35830Y-29894D01*
X35837Y-29856D01*
X35843Y-29825D01*
X35851Y-29784D01*
X35858Y-29747D01*
X35865Y-29716D01*
X35870Y-29692D01*
X35873Y-29676D01*
X35875Y-29672D01*
X35882Y-29670D01*
X35900Y-29669D01*
X35928Y-29667D01*
X35964Y-29667D01*
X36008Y-29666D01*
X36030Y-29666D01*
X36076Y-29666D01*
X36112Y-29666D01*
X36139Y-29667D01*
X36158Y-29668D01*
X36170Y-29669D01*
X36178Y-29671D01*
X36183Y-29673D01*
X36185Y-29677D01*
X36187Y-29680D01*
X36189Y-29690D01*
X36194Y-29709D01*
X36199Y-29737D01*
X36206Y-29771D01*
X36213Y-29810D01*
X36217Y-29828D01*
X36224Y-29868D01*
X36231Y-29903D01*
X36237Y-29933D01*
X36241Y-29956D01*
X36244Y-29969D01*
X36245Y-29972D01*
X36251Y-29977D01*
X36267Y-29986D01*
X36290Y-29998D01*
X36318Y-30010D01*
X36349Y-30023D01*
X36380Y-30036D01*
X36409Y-30047D01*
X36435Y-30056D01*
X36454Y-30062D01*
X36465Y-30064D01*
X36467Y-30064D01*
X36473Y-30060D01*
X36489Y-30050D01*
X36511Y-30035D01*
X36539Y-30016D01*
X36571Y-29994D01*
X36594Y-29979D01*
X36628Y-29956D01*
X36659Y-29935D01*
X36686Y-29918D01*
X36706Y-29905D01*
X36719Y-29898D01*
X36723Y-29896D01*
X36729Y-29900D01*
X36743Y-29912D01*
X36762Y-29930D01*
X36785Y-29952D01*
X36810Y-29977D01*
X36837Y-30004D01*
X36863Y-30030D01*
X36887Y-30056D01*
X36908Y-30079D01*
X36925Y-30097D01*
X36935Y-30110D01*
X36938Y-30115D01*
X36934Y-30122D01*
X36925Y-30138D01*
X36911Y-30161D01*
X36892Y-30190D01*
X36871Y-30222D01*
X36856Y-30244D01*
X36833Y-30278D01*
X36812Y-30309D01*
X36795Y-30335D01*
X36783Y-30355D01*
X36775Y-30368D01*
X36774Y-30371D01*
X36776Y-30379D01*
X36783Y-30395D01*
X36792Y-30419D01*
X36803Y-30446D01*
X36816Y-30477D01*
X36829Y-30507D01*
X36841Y-30536D01*
X36852Y-30561D01*
X36860Y-30579D01*
X36866Y-30589D01*
X36866Y-30590D01*
X36873Y-30592D01*
X36890Y-30596D01*
X36915Y-30601D01*
X36947Y-30608D01*
X36985Y-30615D01*
X37013Y-30620D01*
X37053Y-30628D01*
X37090Y-30635D01*
X37120Y-30641D01*
X37144Y-30646D01*
X37158Y-30649D01*
X37162Y-30651D01*
X37164Y-30657D01*
X37165Y-30675D01*
X37166Y-30702D01*
X37167Y-30736D01*
X37168Y-30776D01*
X37168Y-30808D01*
X37168Y-30855D01*
X37168Y-30855D01*
X37168Y-30855D01*
G37*
G36*
X39564Y-24079D02*
X39552Y-24103D01*
X39537Y-24106D01*
X39486Y-24086D01*
X39476Y-24075D01*
X39441Y-24048D01*
X39367Y-24002D01*
X39264Y-23945D01*
X39212Y-23918D01*
X39212Y-23789D01*
X39200Y-23767D01*
X39141Y-23733D01*
X39046Y-23693D01*
X38974Y-23667D01*
X38974Y-23441D01*
X38974Y-23386D01*
X38945Y-23178D01*
X38901Y-23061D01*
X38828Y-22909D01*
X38849Y-23046D01*
X38861Y-23155D01*
X38868Y-23287D01*
X38869Y-23372D01*
X38871Y-23476D01*
X38880Y-23533D01*
X38900Y-23557D01*
X38922Y-23561D01*
X38952Y-23552D01*
X38969Y-23516D01*
X38974Y-23441D01*
X38974Y-23667D01*
X38927Y-23651D01*
X38811Y-23614D01*
X38811Y-23334D01*
X38797Y-23195D01*
X38769Y-23052D01*
X38730Y-22934D01*
X38714Y-22902D01*
X38671Y-22840D01*
X38628Y-22797D01*
X38596Y-22779D01*
X38587Y-22798D01*
X38593Y-22817D01*
X38608Y-22869D01*
X38629Y-22959D01*
X38645Y-23037D01*
X38664Y-23148D01*
X38664Y-23227D01*
X38644Y-23302D01*
X38634Y-23326D01*
X38597Y-23415D01*
X38586Y-23464D01*
X38586Y-23076D01*
X38558Y-22905D01*
X38521Y-22798D01*
X38521Y-22577D01*
X38502Y-22487D01*
X38451Y-22368D01*
X38376Y-22235D01*
X38287Y-22107D01*
X38144Y-21957D01*
X37972Y-21849D01*
X37766Y-21779D01*
X37518Y-21745D01*
X37366Y-21741D01*
X37227Y-21743D01*
X37129Y-21753D01*
X37055Y-21772D01*
X36984Y-21805D01*
X36963Y-21817D01*
X36791Y-21948D01*
X36638Y-22121D01*
X36516Y-22319D01*
X36435Y-22526D01*
X36413Y-22632D01*
X36394Y-22773D01*
X36499Y-22773D01*
X36588Y-22786D01*
X36660Y-22817D01*
X36661Y-22818D01*
X36708Y-22844D01*
X36743Y-22827D01*
X36766Y-22796D01*
X36816Y-22729D01*
X36881Y-22649D01*
X36896Y-22632D01*
X36989Y-22551D01*
X37105Y-22489D01*
X37224Y-22452D01*
X37323Y-22451D01*
X37323Y-22452D01*
X37394Y-22484D01*
X37478Y-22540D01*
X37505Y-22563D01*
X37570Y-22618D01*
X37605Y-22635D01*
X37628Y-22619D01*
X37643Y-22593D01*
X37693Y-22540D01*
X37784Y-22480D01*
X37895Y-22423D01*
X38008Y-22380D01*
X38056Y-22367D01*
X38177Y-22368D01*
X38305Y-22411D01*
X38414Y-22486D01*
X38460Y-22541D01*
X38499Y-22598D01*
X38517Y-22604D01*
X38521Y-22577D01*
X38521Y-22798D01*
X38501Y-22741D01*
X38421Y-22600D01*
X38321Y-22496D01*
X38277Y-22470D01*
X38201Y-22434D01*
X38142Y-22422D01*
X38072Y-22432D01*
X37997Y-22452D01*
X37860Y-22511D01*
X37748Y-22597D01*
X37674Y-22695D01*
X37666Y-22717D01*
X37664Y-22774D01*
X37682Y-22860D01*
X37694Y-22898D01*
X37724Y-23046D01*
X37730Y-23243D01*
X37730Y-23281D01*
X37727Y-23415D01*
X37733Y-23496D01*
X37750Y-23529D01*
X37755Y-23531D01*
X37801Y-23523D01*
X37888Y-23506D01*
X37996Y-23483D01*
X37998Y-23483D01*
X38169Y-23454D01*
X38319Y-23450D01*
X38346Y-23453D01*
X38435Y-23462D01*
X38484Y-23452D01*
X38517Y-23414D01*
X38540Y-23374D01*
X38582Y-23236D01*
X38586Y-23076D01*
X38586Y-23464D01*
X38603Y-23488D01*
X38647Y-23504D01*
X38649Y-23504D01*
X38733Y-23523D01*
X38777Y-23513D01*
X38799Y-23468D01*
X38804Y-23444D01*
X38811Y-23334D01*
X38811Y-23614D01*
X38797Y-23611D01*
X38735Y-23594D01*
X38438Y-23540D01*
X38167Y-23532D01*
X37925Y-23569D01*
X37717Y-23651D01*
X37679Y-23679D01*
X37679Y-23152D01*
X37650Y-22967D01*
X37589Y-22798D01*
X37497Y-22654D01*
X37376Y-22549D01*
X37353Y-22536D01*
X37260Y-22520D01*
X37150Y-22545D01*
X37037Y-22603D01*
X36936Y-22686D01*
X36864Y-22784D01*
X36839Y-22846D01*
X36836Y-22918D01*
X36873Y-22986D01*
X36895Y-23010D01*
X36966Y-23121D01*
X37019Y-23275D01*
X37052Y-23455D01*
X37058Y-23631D01*
X37057Y-23737D01*
X37061Y-23817D01*
X37068Y-23853D01*
X37114Y-23865D01*
X37195Y-23860D01*
X37293Y-23842D01*
X37386Y-23815D01*
X37453Y-23783D01*
X37456Y-23782D01*
X37565Y-23665D01*
X37637Y-23513D01*
X37675Y-23337D01*
X37679Y-23152D01*
X37679Y-23679D01*
X37547Y-23777D01*
X37536Y-23788D01*
X37452Y-23862D01*
X37368Y-23918D01*
X37323Y-23937D01*
X37224Y-23980D01*
X37135Y-24061D01*
X37052Y-24189D01*
X37007Y-24278D01*
X36917Y-24505D01*
X36848Y-24753D01*
X36802Y-25006D01*
X36781Y-25251D01*
X36787Y-25470D01*
X36817Y-25635D01*
X36870Y-25743D01*
X36948Y-25831D01*
X37039Y-25884D01*
X37087Y-25892D01*
X37120Y-25888D01*
X37139Y-25867D01*
X37147Y-25815D01*
X37148Y-25720D01*
X37148Y-25669D01*
X37148Y-25557D01*
X37154Y-25470D01*
X37162Y-25427D01*
X37163Y-25425D01*
X37206Y-25418D01*
X37267Y-25449D01*
X37328Y-25503D01*
X37369Y-25564D01*
X37393Y-25649D01*
X37406Y-25761D01*
X37408Y-25818D01*
X37413Y-25929D01*
X37439Y-25997D01*
X37497Y-26039D01*
X37583Y-26068D01*
X37668Y-26092D01*
X37720Y-26099D01*
X37763Y-26090D01*
X37817Y-26067D01*
X37971Y-25979D01*
X38081Y-25870D01*
X38132Y-25770D01*
X38151Y-25683D01*
X38139Y-25615D01*
X38108Y-25554D01*
X38029Y-25457D01*
X37909Y-25351D01*
X37764Y-25252D01*
X37711Y-25222D01*
X37645Y-25170D01*
X37568Y-25085D01*
X37502Y-24996D01*
X37441Y-24899D01*
X37406Y-24825D01*
X37393Y-24745D01*
X37391Y-24637D01*
X37392Y-24607D01*
X37396Y-24477D01*
X37404Y-24386D01*
X37423Y-24316D01*
X37458Y-24246D01*
X37515Y-24157D01*
X37534Y-24128D01*
X37594Y-24040D01*
X37647Y-23978D01*
X37707Y-23928D01*
X37788Y-23881D01*
X37903Y-23826D01*
X37977Y-23793D01*
X38179Y-23727D01*
X38414Y-23691D01*
X38657Y-23684D01*
X38886Y-23709D01*
X39005Y-23739D01*
X39105Y-23768D01*
X39180Y-23786D01*
X39212Y-23789D01*
X39212Y-23918D01*
X39209Y-23916D01*
X38962Y-23789D01*
X38577Y-23788D01*
X38430Y-23790D01*
X38306Y-23794D01*
X38216Y-23801D01*
X38172Y-23810D01*
X38171Y-23811D01*
X38171Y-23848D01*
X38203Y-23908D01*
X38210Y-23917D01*
X38294Y-23982D01*
X38406Y-24003D01*
X38530Y-23980D01*
X38653Y-23915D01*
X38657Y-23911D01*
X38734Y-23861D01*
X38780Y-23847D01*
X38790Y-23865D01*
X38756Y-23916D01*
X38749Y-23924D01*
X38714Y-23968D01*
X38722Y-23983D01*
X38743Y-23985D01*
X38793Y-23962D01*
X38850Y-23909D01*
X38906Y-23847D01*
X38937Y-23839D01*
X38946Y-23876D01*
X38924Y-23921D01*
X38871Y-23981D01*
X38853Y-23997D01*
X38803Y-24035D01*
X38750Y-24059D01*
X38681Y-24070D01*
X38576Y-24075D01*
X38490Y-24076D01*
X38220Y-24076D01*
X38159Y-23956D01*
X38098Y-23836D01*
X37948Y-23899D01*
X37806Y-23980D01*
X37672Y-24097D01*
X37562Y-24231D01*
X37493Y-24367D01*
X37489Y-24382D01*
X37451Y-24592D01*
X37466Y-24777D01*
X37538Y-24942D01*
X37667Y-25090D01*
X37793Y-25186D01*
X37939Y-25289D01*
X38045Y-25373D01*
X38118Y-25450D01*
X38173Y-25530D01*
X38187Y-25556D01*
X38239Y-25659D01*
X38327Y-25535D01*
X38404Y-25446D01*
X38472Y-25400D01*
X38522Y-25400D01*
X38543Y-25427D01*
X38545Y-25496D01*
X38515Y-25592D01*
X38486Y-25650D01*
X38486Y-25479D01*
X38464Y-25469D01*
X38425Y-25494D01*
X38371Y-25561D01*
X38312Y-25655D01*
X38256Y-25761D01*
X38212Y-25866D01*
X38205Y-25888D01*
X38195Y-25944D01*
X38213Y-25951D01*
X38253Y-25917D01*
X38310Y-25842D01*
X38375Y-25742D01*
X38448Y-25611D01*
X38485Y-25525D01*
X38486Y-25479D01*
X38486Y-25650D01*
X38462Y-25702D01*
X38394Y-25815D01*
X38319Y-25915D01*
X38246Y-25992D01*
X38182Y-26032D01*
X38153Y-26034D01*
X38093Y-26038D01*
X38006Y-26067D01*
X37955Y-26092D01*
X37839Y-26143D01*
X37732Y-26160D01*
X37613Y-26144D01*
X37524Y-26119D01*
X37416Y-26096D01*
X37355Y-26105D01*
X37353Y-26106D01*
X37341Y-26110D01*
X37341Y-25788D01*
X37329Y-25670D01*
X37297Y-25574D01*
X37251Y-25512D01*
X37215Y-25499D01*
X37204Y-25526D01*
X37199Y-25597D01*
X37202Y-25696D01*
X37210Y-25806D01*
X37224Y-25910D01*
X37240Y-25994D01*
X37241Y-25997D01*
X37256Y-26037D01*
X37277Y-26027D01*
X37299Y-25998D01*
X37323Y-25936D01*
X37339Y-25840D01*
X37341Y-25788D01*
X37341Y-26110D01*
X37304Y-26121D01*
X37249Y-26109D01*
X37220Y-26077D01*
X37220Y-26074D01*
X37194Y-26051D01*
X37126Y-26019D01*
X37073Y-26000D01*
X36942Y-25942D01*
X36848Y-25861D01*
X36777Y-25743D01*
X36734Y-25623D01*
X36697Y-25487D01*
X36678Y-25362D01*
X36677Y-25229D01*
X36693Y-25066D01*
X36704Y-24984D01*
X36741Y-24775D01*
X36792Y-24591D01*
X36865Y-24407D01*
X36966Y-24200D01*
X37023Y-24090D01*
X37068Y-24001D01*
X37095Y-23947D01*
X37099Y-23936D01*
X37074Y-23926D01*
X37043Y-23924D01*
X37004Y-23941D01*
X37004Y-23495D01*
X36969Y-23295D01*
X36954Y-23244D01*
X36896Y-23134D01*
X36810Y-23025D01*
X36707Y-22931D01*
X36601Y-22864D01*
X36508Y-22837D01*
X36499Y-22837D01*
X36418Y-22838D01*
X36513Y-22881D01*
X36638Y-22967D01*
X36742Y-23099D01*
X36821Y-23270D01*
X36869Y-23465D01*
X36878Y-23543D01*
X36884Y-23675D01*
X36875Y-23774D01*
X36848Y-23863D01*
X36832Y-23903D01*
X36797Y-23985D01*
X36789Y-24012D01*
X36789Y-23675D01*
X36785Y-23444D01*
X36735Y-23250D01*
X36638Y-23090D01*
X36620Y-23070D01*
X36538Y-22987D01*
X36482Y-22956D01*
X36449Y-22977D01*
X36436Y-23055D01*
X36435Y-23167D01*
X36440Y-23279D01*
X36450Y-23344D01*
X36469Y-23373D01*
X36498Y-23379D01*
X36540Y-23404D01*
X36554Y-23471D01*
X36536Y-23569D01*
X36524Y-23604D01*
X36493Y-23652D01*
X36493Y-23529D01*
X36469Y-23501D01*
X36463Y-23500D01*
X36436Y-23524D01*
X36432Y-23547D01*
X36447Y-23579D01*
X36463Y-23576D01*
X36492Y-23537D01*
X36493Y-23529D01*
X36493Y-23652D01*
X36484Y-23666D01*
X36438Y-23677D01*
X36393Y-23642D01*
X36359Y-23569D01*
X36343Y-23464D01*
X36342Y-23449D01*
X36336Y-23350D01*
X36320Y-23241D01*
X36298Y-23138D01*
X36274Y-23058D01*
X36251Y-23017D01*
X36246Y-23016D01*
X36219Y-23040D01*
X36178Y-23103D01*
X36155Y-23145D01*
X36101Y-23306D01*
X36084Y-23492D01*
X36106Y-23675D01*
X36151Y-23803D01*
X36243Y-23961D01*
X36340Y-24060D01*
X36444Y-24101D01*
X36555Y-24085D01*
X36612Y-24057D01*
X36692Y-23995D01*
X36745Y-23915D01*
X36776Y-23802D01*
X36789Y-23675D01*
X36789Y-24012D01*
X36787Y-24023D01*
X36800Y-24027D01*
X36825Y-24016D01*
X36871Y-23971D01*
X36924Y-23894D01*
X36945Y-23854D01*
X36995Y-23688D01*
X37004Y-23495D01*
X37004Y-23941D01*
X36988Y-23949D01*
X36949Y-23996D01*
X36891Y-24068D01*
X36837Y-24108D01*
X36785Y-24142D01*
X36766Y-24167D01*
X36737Y-24175D01*
X36666Y-24179D01*
X36564Y-24176D01*
X36562Y-24176D01*
X36446Y-24167D01*
X36370Y-24149D01*
X36310Y-24114D01*
X36261Y-24071D01*
X36134Y-23906D01*
X36056Y-23706D01*
X36027Y-23471D01*
X36027Y-23435D01*
X36033Y-23287D01*
X36054Y-23176D01*
X36093Y-23080D01*
X36096Y-23076D01*
X36132Y-22998D01*
X36150Y-22946D01*
X36149Y-22934D01*
X36157Y-22905D01*
X36192Y-22861D01*
X36237Y-22788D01*
X36250Y-22718D01*
X36270Y-22573D01*
X36326Y-22407D01*
X36408Y-22241D01*
X36443Y-22183D01*
X36552Y-22049D01*
X36695Y-21915D01*
X36856Y-21794D01*
X37018Y-21695D01*
X37168Y-21632D01*
X37210Y-21621D01*
X37462Y-21598D01*
X37705Y-21631D01*
X37934Y-21715D01*
X38140Y-21845D01*
X38317Y-22017D01*
X38458Y-22226D01*
X38555Y-22467D01*
X38572Y-22530D01*
X38598Y-22622D01*
X38624Y-22688D01*
X38641Y-22707D01*
X38740Y-22761D01*
X38843Y-22852D01*
X38929Y-22959D01*
X38945Y-22987D01*
X38993Y-23096D01*
X39022Y-23226D01*
X39036Y-23361D01*
X39045Y-23482D01*
X39057Y-23556D01*
X39078Y-23603D01*
X39113Y-23633D01*
X39158Y-23660D01*
X39293Y-23746D01*
X39412Y-23843D01*
X39502Y-23939D01*
X39547Y-24014D01*
X39564Y-24079D01*
X39564Y-24079D01*
X39564Y-24079D01*
G37*
G36*
X37311Y-23318D02*
X37292Y-23367D01*
X37265Y-23379D01*
X37228Y-23354D01*
X37220Y-23318D01*
X37239Y-23269D01*
X37265Y-23258D01*
X37303Y-23283D01*
X37311Y-23318D01*
X37311Y-23318D01*
X37311Y-23318D01*
G37*
G36*
X38401Y-23258D02*
X38381Y-23307D01*
X38338Y-23315D01*
X38301Y-23279D01*
X38300Y-23275D01*
X38300Y-23221D01*
X38350Y-23197D01*
X38360Y-23197D01*
X38393Y-23223D01*
X38401Y-23258D01*
X38401Y-23258D01*
X38401Y-23258D01*
G37*
G54D11*
X83900Y-22035D02*
X84322Y-22035D01*
X84406Y-22058D01*
X84462Y-22103D01*
X84491Y-22170D01*
X84491Y-22215D01*
X84491Y-21563D02*
X84491Y-21833D01*
X84491Y-21698D02*
X83900Y-21698D01*
X83984Y-21743D01*
X84041Y-21788D01*
X84069Y-21833D01*
X84491Y-21113D02*
X84491Y-21383D01*
X84491Y-21248D02*
X83900Y-21248D01*
X83984Y-21293D01*
X84041Y-21338D01*
X84069Y-21383D01*
G54D14*
X75631Y-29391D02*
X75481Y-29391D01*
X75481Y-28997D01*
X75886Y-28997D02*
X75736Y-28997D01*
X75721Y-29185D01*
X75736Y-29166D01*
X75766Y-29147D01*
X75841Y-29147D01*
X75871Y-29166D01*
X75886Y-29185D01*
X75901Y-29222D01*
X75901Y-29316D01*
X75886Y-29354D01*
X75871Y-29372D01*
X75841Y-29391D01*
X75766Y-29391D01*
X75736Y-29372D01*
X75721Y-29354D01*
X76096Y-28997D02*
X76126Y-28997D01*
X76156Y-29016D01*
X76171Y-29035D01*
X76186Y-29072D01*
X76201Y-29147D01*
X76201Y-29241D01*
X76186Y-29316D01*
X76171Y-29354D01*
X76156Y-29372D01*
X76126Y-29391D01*
X76096Y-29391D01*
X76066Y-29372D01*
X76051Y-29354D01*
X76036Y-29316D01*
X76021Y-29241D01*
X76021Y-29147D01*
X76036Y-29072D01*
X76051Y-29035D01*
X76066Y-29016D01*
X76096Y-28997D01*
X76471Y-28997D02*
X76411Y-28997D01*
X76381Y-29016D01*
X76366Y-29035D01*
X76336Y-29091D01*
X76321Y-29166D01*
X76321Y-29316D01*
X76336Y-29354D01*
X76351Y-29372D01*
X76381Y-29391D01*
X76441Y-29391D01*
X76471Y-29372D01*
X76486Y-29354D01*
X76501Y-29316D01*
X76501Y-29222D01*
X76486Y-29185D01*
X76471Y-29166D01*
X76441Y-29147D01*
X76381Y-29147D01*
X76351Y-29166D01*
X76336Y-29185D01*
X76321Y-29222D01*
X57245Y-33521D02*
X57058Y-33626D01*
X57245Y-33701D02*
X56852Y-33701D01*
X56852Y-33581D01*
X56871Y-33551D01*
X56889Y-33536D01*
X56927Y-33521D01*
X56983Y-33521D01*
X57020Y-33536D01*
X57039Y-33551D01*
X57058Y-33581D01*
X57058Y-33701D01*
X56852Y-33236D02*
X56852Y-33386D01*
X57039Y-33401D01*
X57020Y-33386D01*
X57002Y-33356D01*
X57002Y-33281D01*
X57020Y-33251D01*
X57039Y-33236D01*
X57077Y-33221D01*
X57170Y-33221D01*
X57208Y-33236D01*
X57227Y-33251D01*
X57245Y-33281D01*
X57245Y-33356D01*
X57227Y-33386D01*
X57208Y-33401D01*
X56852Y-33026D02*
X56852Y-32996D01*
X56871Y-32966D01*
X56889Y-32951D01*
X56927Y-32936D01*
X57002Y-32921D01*
X57095Y-32921D01*
X57170Y-32936D01*
X57208Y-32951D01*
X57227Y-32966D01*
X57245Y-32996D01*
X57245Y-33026D01*
X57227Y-33056D01*
X57208Y-33071D01*
X57170Y-33086D01*
X57095Y-33101D01*
X57002Y-33101D01*
X56927Y-33086D01*
X56889Y-33071D01*
X56871Y-33056D01*
X56852Y-33026D01*
X56889Y-32801D02*
X56871Y-32786D01*
X56852Y-32756D01*
X56852Y-32681D01*
X56871Y-32651D01*
X56889Y-32636D01*
X56927Y-32621D01*
X56964Y-32621D01*
X57020Y-32636D01*
X57245Y-32816D01*
X57245Y-32621D01*
X64726Y-21218D02*
X64538Y-21323D01*
X64726Y-21398D02*
X64332Y-21398D01*
X64332Y-21278D01*
X64351Y-21248D01*
X64370Y-21233D01*
X64407Y-21218D01*
X64463Y-21218D01*
X64501Y-21233D01*
X64520Y-21248D01*
X64538Y-21278D01*
X64538Y-21398D01*
X64332Y-20933D02*
X64332Y-21083D01*
X64520Y-21098D01*
X64501Y-21083D01*
X64482Y-21053D01*
X64482Y-20978D01*
X64501Y-20948D01*
X64520Y-20933D01*
X64557Y-20918D01*
X64651Y-20918D01*
X64688Y-20933D01*
X64707Y-20948D01*
X64726Y-20978D01*
X64726Y-21053D01*
X64707Y-21083D01*
X64688Y-21098D01*
X64332Y-20723D02*
X64332Y-20693D01*
X64351Y-20663D01*
X64370Y-20648D01*
X64407Y-20633D01*
X64482Y-20618D01*
X64576Y-20618D01*
X64651Y-20633D01*
X64688Y-20648D01*
X64707Y-20663D01*
X64726Y-20693D01*
X64726Y-20723D01*
X64707Y-20753D01*
X64688Y-20768D01*
X64651Y-20783D01*
X64576Y-20798D01*
X64482Y-20798D01*
X64407Y-20783D01*
X64370Y-20768D01*
X64351Y-20753D01*
X64332Y-20723D01*
X64332Y-20333D02*
X64332Y-20483D01*
X64520Y-20498D01*
X64501Y-20483D01*
X64482Y-20453D01*
X64482Y-20378D01*
X64501Y-20348D01*
X64520Y-20333D01*
X64557Y-20318D01*
X64651Y-20318D01*
X64688Y-20333D01*
X64707Y-20348D01*
X64726Y-20378D01*
X64726Y-20453D01*
X64707Y-20483D01*
X64688Y-20498D01*
X76302Y-21612D02*
X76321Y-21627D01*
X76340Y-21672D01*
X76340Y-21702D01*
X76321Y-21747D01*
X76284Y-21777D01*
X76246Y-21792D01*
X76171Y-21807D01*
X76115Y-21807D01*
X76040Y-21792D01*
X76002Y-21777D01*
X75965Y-21747D01*
X75946Y-21702D01*
X75946Y-21672D01*
X75965Y-21627D01*
X75984Y-21612D01*
X75946Y-21327D02*
X75946Y-21477D01*
X76134Y-21492D01*
X76115Y-21477D01*
X76096Y-21447D01*
X76096Y-21372D01*
X76115Y-21342D01*
X76134Y-21327D01*
X76171Y-21312D01*
X76265Y-21312D01*
X76302Y-21327D01*
X76321Y-21342D01*
X76340Y-21372D01*
X76340Y-21447D01*
X76321Y-21477D01*
X76302Y-21492D01*
X75946Y-21117D02*
X75946Y-21087D01*
X75965Y-21057D01*
X75984Y-21042D01*
X76021Y-21027D01*
X76096Y-21012D01*
X76190Y-21012D01*
X76265Y-21027D01*
X76302Y-21042D01*
X76321Y-21057D01*
X76340Y-21087D01*
X76340Y-21117D01*
X76321Y-21147D01*
X76302Y-21162D01*
X76265Y-21177D01*
X76190Y-21192D01*
X76096Y-21192D01*
X76021Y-21177D01*
X75984Y-21162D01*
X75965Y-21147D01*
X75946Y-21117D01*
X76340Y-20862D02*
X76340Y-20802D01*
X76321Y-20772D01*
X76302Y-20757D01*
X76246Y-20727D01*
X76171Y-20712D01*
X76021Y-20712D01*
X75984Y-20727D01*
X75965Y-20742D01*
X75946Y-20772D01*
X75946Y-20832D01*
X75965Y-20862D01*
X75984Y-20877D01*
X76021Y-20892D01*
X76115Y-20892D01*
X76152Y-20877D01*
X76171Y-20862D01*
X76190Y-20832D01*
X76190Y-20772D01*
X76171Y-20742D01*
X76152Y-20727D01*
X76115Y-20712D01*
X71578Y-29486D02*
X71597Y-29501D01*
X71616Y-29546D01*
X71616Y-29576D01*
X71597Y-29621D01*
X71559Y-29651D01*
X71522Y-29666D01*
X71447Y-29681D01*
X71391Y-29681D01*
X71316Y-29666D01*
X71278Y-29651D01*
X71241Y-29621D01*
X71222Y-29576D01*
X71222Y-29546D01*
X71241Y-29501D01*
X71259Y-29486D01*
X71222Y-29201D02*
X71222Y-29351D01*
X71409Y-29366D01*
X71391Y-29351D01*
X71372Y-29321D01*
X71372Y-29246D01*
X71391Y-29216D01*
X71409Y-29201D01*
X71447Y-29186D01*
X71541Y-29186D01*
X71578Y-29201D01*
X71597Y-29216D01*
X71616Y-29246D01*
X71616Y-29321D01*
X71597Y-29351D01*
X71578Y-29366D01*
X71259Y-29066D02*
X71241Y-29051D01*
X71222Y-29021D01*
X71222Y-28946D01*
X71241Y-28916D01*
X71259Y-28901D01*
X71297Y-28886D01*
X71334Y-28886D01*
X71391Y-28901D01*
X71616Y-29081D01*
X71616Y-28886D01*
X71222Y-28781D02*
X71222Y-28571D01*
X71616Y-28706D01*
X71578Y-25549D02*
X71597Y-25564D01*
X71616Y-25609D01*
X71616Y-25639D01*
X71597Y-25684D01*
X71559Y-25714D01*
X71522Y-25729D01*
X71447Y-25744D01*
X71391Y-25744D01*
X71316Y-25729D01*
X71278Y-25714D01*
X71241Y-25684D01*
X71222Y-25639D01*
X71222Y-25609D01*
X71241Y-25564D01*
X71259Y-25549D01*
X71222Y-25264D02*
X71222Y-25414D01*
X71409Y-25429D01*
X71391Y-25414D01*
X71372Y-25384D01*
X71372Y-25309D01*
X71391Y-25279D01*
X71409Y-25264D01*
X71447Y-25249D01*
X71541Y-25249D01*
X71578Y-25264D01*
X71597Y-25279D01*
X71616Y-25309D01*
X71616Y-25384D01*
X71597Y-25414D01*
X71578Y-25429D01*
X71259Y-25129D02*
X71241Y-25114D01*
X71222Y-25084D01*
X71222Y-25009D01*
X71241Y-24979D01*
X71259Y-24964D01*
X71297Y-24949D01*
X71334Y-24949D01*
X71391Y-24964D01*
X71616Y-25144D01*
X71616Y-24949D01*
X71222Y-24679D02*
X71222Y-24739D01*
X71241Y-24769D01*
X71259Y-24784D01*
X71316Y-24814D01*
X71391Y-24829D01*
X71541Y-24829D01*
X71578Y-24814D01*
X71597Y-24799D01*
X71616Y-24769D01*
X71616Y-24709D01*
X71597Y-24679D01*
X71578Y-24664D01*
X71541Y-24649D01*
X71447Y-24649D01*
X71409Y-24664D01*
X71391Y-24679D01*
X71372Y-24709D01*
X71372Y-24769D01*
X71391Y-24799D01*
X71409Y-24814D01*
X71447Y-24829D01*
X61064Y-21775D02*
X61049Y-21794D01*
X61004Y-21812D01*
X60974Y-21812D01*
X60929Y-21794D01*
X60899Y-21756D01*
X60884Y-21719D01*
X60869Y-21644D01*
X60869Y-21587D01*
X60884Y-21512D01*
X60899Y-21475D01*
X60929Y-21437D01*
X60974Y-21419D01*
X61004Y-21419D01*
X61049Y-21437D01*
X61064Y-21456D01*
X61349Y-21419D02*
X61199Y-21419D01*
X61184Y-21606D01*
X61199Y-21587D01*
X61229Y-21569D01*
X61304Y-21569D01*
X61334Y-21587D01*
X61349Y-21606D01*
X61364Y-21644D01*
X61364Y-21737D01*
X61349Y-21775D01*
X61334Y-21794D01*
X61304Y-21812D01*
X61229Y-21812D01*
X61199Y-21794D01*
X61184Y-21775D01*
X61484Y-21456D02*
X61499Y-21437D01*
X61529Y-21419D01*
X61604Y-21419D01*
X61634Y-21437D01*
X61649Y-21456D01*
X61664Y-21494D01*
X61664Y-21531D01*
X61649Y-21587D01*
X61469Y-21812D01*
X61664Y-21812D01*
X61769Y-21419D02*
X61964Y-21419D01*
X61859Y-21569D01*
X61904Y-21569D01*
X61934Y-21587D01*
X61949Y-21606D01*
X61964Y-21644D01*
X61964Y-21737D01*
X61949Y-21775D01*
X61934Y-21794D01*
X61904Y-21812D01*
X61814Y-21812D01*
X61784Y-21794D01*
X61769Y-21775D01*
X58980Y-27517D02*
X58998Y-27532D01*
X59017Y-27577D01*
X59017Y-27607D01*
X58998Y-27652D01*
X58961Y-27682D01*
X58923Y-27697D01*
X58848Y-27712D01*
X58792Y-27712D01*
X58717Y-27697D01*
X58680Y-27682D01*
X58642Y-27652D01*
X58623Y-27607D01*
X58623Y-27577D01*
X58642Y-27532D01*
X58661Y-27517D01*
X58623Y-27232D02*
X58623Y-27382D01*
X58811Y-27397D01*
X58792Y-27382D01*
X58773Y-27352D01*
X58773Y-27277D01*
X58792Y-27247D01*
X58811Y-27232D01*
X58848Y-27217D01*
X58942Y-27217D01*
X58980Y-27232D01*
X58998Y-27247D01*
X59017Y-27277D01*
X59017Y-27352D01*
X58998Y-27382D01*
X58980Y-27397D01*
X58661Y-27097D02*
X58642Y-27082D01*
X58623Y-27052D01*
X58623Y-26977D01*
X58642Y-26947D01*
X58661Y-26932D01*
X58698Y-26917D01*
X58736Y-26917D01*
X58792Y-26932D01*
X59017Y-27112D01*
X59017Y-26917D01*
X58755Y-26647D02*
X59017Y-26647D01*
X58605Y-26722D02*
X58886Y-26797D01*
X58886Y-26602D01*
X61064Y-32897D02*
X61049Y-32916D01*
X61004Y-32934D01*
X60974Y-32934D01*
X60929Y-32916D01*
X60899Y-32878D01*
X60884Y-32841D01*
X60869Y-32766D01*
X60869Y-32709D01*
X60884Y-32634D01*
X60899Y-32597D01*
X60929Y-32559D01*
X60974Y-32541D01*
X61004Y-32541D01*
X61049Y-32559D01*
X61064Y-32578D01*
X61349Y-32541D02*
X61199Y-32541D01*
X61184Y-32728D01*
X61199Y-32709D01*
X61229Y-32691D01*
X61304Y-32691D01*
X61334Y-32709D01*
X61349Y-32728D01*
X61364Y-32766D01*
X61364Y-32859D01*
X61349Y-32897D01*
X61334Y-32916D01*
X61304Y-32934D01*
X61229Y-32934D01*
X61199Y-32916D01*
X61184Y-32897D01*
X61484Y-32578D02*
X61499Y-32559D01*
X61529Y-32541D01*
X61604Y-32541D01*
X61634Y-32559D01*
X61649Y-32578D01*
X61664Y-32616D01*
X61664Y-32653D01*
X61649Y-32709D01*
X61469Y-32934D01*
X61664Y-32934D01*
X61949Y-32541D02*
X61799Y-32541D01*
X61784Y-32728D01*
X61799Y-32709D01*
X61829Y-32691D01*
X61904Y-32691D01*
X61934Y-32709D01*
X61949Y-32728D01*
X61964Y-32766D01*
X61964Y-32859D01*
X61949Y-32897D01*
X61934Y-32916D01*
X61904Y-32934D01*
X61829Y-32934D01*
X61799Y-32916D01*
X61784Y-32897D01*
X74056Y-29982D02*
X73952Y-29794D01*
X73877Y-29982D02*
X73877Y-29588D01*
X73997Y-29588D01*
X74026Y-29607D01*
X74041Y-29625D01*
X74056Y-29663D01*
X74056Y-29719D01*
X74041Y-29757D01*
X74026Y-29775D01*
X73997Y-29794D01*
X73877Y-29794D01*
X74341Y-29588D02*
X74191Y-29588D01*
X74176Y-29775D01*
X74191Y-29757D01*
X74221Y-29738D01*
X74296Y-29738D01*
X74326Y-29757D01*
X74341Y-29775D01*
X74356Y-29813D01*
X74356Y-29907D01*
X74341Y-29944D01*
X74326Y-29963D01*
X74296Y-29982D01*
X74221Y-29982D01*
X74191Y-29963D01*
X74176Y-29944D01*
X74476Y-29625D02*
X74491Y-29607D01*
X74521Y-29588D01*
X74596Y-29588D01*
X74626Y-29607D01*
X74641Y-29625D01*
X74656Y-29663D01*
X74656Y-29700D01*
X74641Y-29757D01*
X74461Y-29982D01*
X74656Y-29982D01*
X74941Y-29588D02*
X74791Y-29588D01*
X74776Y-29775D01*
X74791Y-29757D01*
X74821Y-29738D01*
X74896Y-29738D01*
X74926Y-29757D01*
X74941Y-29775D01*
X74956Y-29813D01*
X74956Y-29907D01*
X74941Y-29944D01*
X74926Y-29963D01*
X74896Y-29982D01*
X74821Y-29982D01*
X74791Y-29963D01*
X74776Y-29944D01*
X77484Y-21612D02*
X77502Y-21627D01*
X77521Y-21672D01*
X77521Y-21702D01*
X77502Y-21747D01*
X77465Y-21777D01*
X77427Y-21792D01*
X77352Y-21807D01*
X77296Y-21807D01*
X77221Y-21792D01*
X77184Y-21777D01*
X77146Y-21747D01*
X77127Y-21702D01*
X77127Y-21672D01*
X77146Y-21627D01*
X77165Y-21612D01*
X77127Y-21327D02*
X77127Y-21477D01*
X77315Y-21492D01*
X77296Y-21477D01*
X77277Y-21447D01*
X77277Y-21372D01*
X77296Y-21342D01*
X77315Y-21327D01*
X77352Y-21312D01*
X77446Y-21312D01*
X77484Y-21327D01*
X77502Y-21342D01*
X77521Y-21372D01*
X77521Y-21447D01*
X77502Y-21477D01*
X77484Y-21492D01*
X77165Y-21192D02*
X77146Y-21177D01*
X77127Y-21147D01*
X77127Y-21072D01*
X77146Y-21042D01*
X77165Y-21027D01*
X77202Y-21012D01*
X77240Y-21012D01*
X77296Y-21027D01*
X77521Y-21207D01*
X77521Y-21012D01*
X77165Y-20892D02*
X77146Y-20877D01*
X77127Y-20847D01*
X77127Y-20772D01*
X77146Y-20742D01*
X77165Y-20727D01*
X77202Y-20712D01*
X77240Y-20712D01*
X77296Y-20727D01*
X77521Y-20907D01*
X77521Y-20712D01*
X68860Y-21120D02*
X68672Y-21225D01*
X68860Y-21300D02*
X68466Y-21300D01*
X68466Y-21180D01*
X68485Y-21150D01*
X68503Y-21135D01*
X68541Y-21120D01*
X68597Y-21120D01*
X68635Y-21135D01*
X68653Y-21150D01*
X68672Y-21180D01*
X68672Y-21300D01*
X68466Y-20835D02*
X68466Y-20985D01*
X68653Y-21000D01*
X68635Y-20985D01*
X68616Y-20955D01*
X68616Y-20880D01*
X68635Y-20850D01*
X68653Y-20835D01*
X68691Y-20820D01*
X68785Y-20820D01*
X68822Y-20835D01*
X68841Y-20850D01*
X68860Y-20880D01*
X68860Y-20955D01*
X68841Y-20985D01*
X68822Y-21000D01*
X68466Y-20625D02*
X68466Y-20595D01*
X68485Y-20565D01*
X68503Y-20550D01*
X68541Y-20535D01*
X68616Y-20520D01*
X68710Y-20520D01*
X68785Y-20535D01*
X68822Y-20550D01*
X68841Y-20565D01*
X68860Y-20595D01*
X68860Y-20625D01*
X68841Y-20655D01*
X68822Y-20670D01*
X68785Y-20685D01*
X68710Y-20700D01*
X68616Y-20700D01*
X68541Y-20685D01*
X68503Y-20670D01*
X68485Y-20655D01*
X68466Y-20625D01*
X68635Y-20340D02*
X68616Y-20370D01*
X68597Y-20385D01*
X68560Y-20400D01*
X68541Y-20400D01*
X68503Y-20385D01*
X68485Y-20370D01*
X68466Y-20340D01*
X68466Y-20280D01*
X68485Y-20250D01*
X68503Y-20235D01*
X68541Y-20220D01*
X68560Y-20220D01*
X68597Y-20235D01*
X68616Y-20250D01*
X68635Y-20280D01*
X68635Y-20340D01*
X68653Y-20370D01*
X68672Y-20385D01*
X68710Y-20400D01*
X68785Y-20400D01*
X68822Y-20385D01*
X68841Y-20370D01*
X68860Y-20340D01*
X68860Y-20280D01*
X68841Y-20250D01*
X68822Y-20235D01*
X68785Y-20220D01*
X68710Y-20220D01*
X68672Y-20235D01*
X68653Y-20250D01*
X68635Y-20280D01*
X77895Y-32934D02*
X77790Y-32747D01*
X77715Y-32934D02*
X77715Y-32541D01*
X77835Y-32541D01*
X77865Y-32559D01*
X77880Y-32578D01*
X77895Y-32616D01*
X77895Y-32672D01*
X77880Y-32709D01*
X77865Y-32728D01*
X77835Y-32747D01*
X77715Y-32747D01*
X78180Y-32541D02*
X78030Y-32541D01*
X78015Y-32728D01*
X78030Y-32709D01*
X78060Y-32691D01*
X78135Y-32691D01*
X78165Y-32709D01*
X78180Y-32728D01*
X78195Y-32766D01*
X78195Y-32859D01*
X78180Y-32897D01*
X78165Y-32916D01*
X78135Y-32934D01*
X78060Y-32934D01*
X78030Y-32916D01*
X78015Y-32897D01*
X78315Y-32578D02*
X78330Y-32559D01*
X78360Y-32541D01*
X78435Y-32541D01*
X78465Y-32559D01*
X78480Y-32578D01*
X78495Y-32616D01*
X78495Y-32653D01*
X78480Y-32709D01*
X78300Y-32934D01*
X78495Y-32934D01*
X78765Y-32672D02*
X78765Y-32934D01*
X78690Y-32522D02*
X78615Y-32803D01*
X78810Y-32803D01*
X77895Y-29391D02*
X77790Y-29204D01*
X77715Y-29391D02*
X77715Y-28997D01*
X77835Y-28997D01*
X77865Y-29016D01*
X77880Y-29035D01*
X77895Y-29072D01*
X77895Y-29129D01*
X77880Y-29166D01*
X77865Y-29185D01*
X77835Y-29204D01*
X77715Y-29204D01*
X78180Y-28997D02*
X78030Y-28997D01*
X78015Y-29185D01*
X78030Y-29166D01*
X78060Y-29147D01*
X78135Y-29147D01*
X78165Y-29166D01*
X78180Y-29185D01*
X78195Y-29222D01*
X78195Y-29316D01*
X78180Y-29354D01*
X78165Y-29372D01*
X78135Y-29391D01*
X78060Y-29391D01*
X78030Y-29372D01*
X78015Y-29354D01*
X78315Y-29035D02*
X78330Y-29016D01*
X78360Y-28997D01*
X78435Y-28997D01*
X78465Y-29016D01*
X78480Y-29035D01*
X78495Y-29072D01*
X78495Y-29110D01*
X78480Y-29166D01*
X78300Y-29391D01*
X78495Y-29391D01*
X78600Y-28997D02*
X78795Y-28997D01*
X78690Y-29147D01*
X78735Y-29147D01*
X78765Y-29166D01*
X78780Y-29185D01*
X78795Y-29222D01*
X78795Y-29316D01*
X78780Y-29354D01*
X78765Y-29372D01*
X78735Y-29391D01*
X78645Y-29391D01*
X78615Y-29372D01*
X78600Y-29354D01*
X65710Y-27517D02*
X65523Y-27622D01*
X65710Y-27697D02*
X65316Y-27697D01*
X65316Y-27577D01*
X65335Y-27547D01*
X65354Y-27532D01*
X65391Y-27517D01*
X65448Y-27517D01*
X65485Y-27532D01*
X65504Y-27547D01*
X65523Y-27577D01*
X65523Y-27697D01*
X65316Y-27232D02*
X65316Y-27382D01*
X65504Y-27397D01*
X65485Y-27382D01*
X65466Y-27352D01*
X65466Y-27277D01*
X65485Y-27247D01*
X65504Y-27232D01*
X65541Y-27217D01*
X65635Y-27217D01*
X65673Y-27232D01*
X65691Y-27247D01*
X65710Y-27277D01*
X65710Y-27352D01*
X65691Y-27382D01*
X65673Y-27397D01*
X65316Y-27022D02*
X65316Y-26992D01*
X65335Y-26962D01*
X65354Y-26947D01*
X65391Y-26932D01*
X65466Y-26917D01*
X65560Y-26917D01*
X65635Y-26932D01*
X65673Y-26947D01*
X65691Y-26962D01*
X65710Y-26992D01*
X65710Y-27022D01*
X65691Y-27052D01*
X65673Y-27067D01*
X65635Y-27082D01*
X65560Y-27097D01*
X65466Y-27097D01*
X65391Y-27082D01*
X65354Y-27067D01*
X65335Y-27052D01*
X65316Y-27022D01*
X65316Y-26647D02*
X65316Y-26707D01*
X65335Y-26737D01*
X65354Y-26752D01*
X65410Y-26782D01*
X65485Y-26797D01*
X65635Y-26797D01*
X65673Y-26782D01*
X65691Y-26767D01*
X65710Y-26737D01*
X65710Y-26677D01*
X65691Y-26647D01*
X65673Y-26632D01*
X65635Y-26617D01*
X65541Y-26617D01*
X65504Y-26632D01*
X65485Y-26647D01*
X65466Y-26677D01*
X65466Y-26737D01*
X65485Y-26767D01*
X65504Y-26782D01*
X65541Y-26797D01*
X57836Y-27517D02*
X57649Y-27622D01*
X57836Y-27697D02*
X57442Y-27697D01*
X57442Y-27577D01*
X57461Y-27547D01*
X57480Y-27532D01*
X57517Y-27517D01*
X57574Y-27517D01*
X57611Y-27532D01*
X57630Y-27547D01*
X57649Y-27577D01*
X57649Y-27697D01*
X57442Y-27232D02*
X57442Y-27382D01*
X57630Y-27397D01*
X57611Y-27382D01*
X57592Y-27352D01*
X57592Y-27277D01*
X57611Y-27247D01*
X57630Y-27232D01*
X57667Y-27217D01*
X57761Y-27217D01*
X57799Y-27232D01*
X57817Y-27247D01*
X57836Y-27277D01*
X57836Y-27352D01*
X57817Y-27382D01*
X57799Y-27397D01*
X57836Y-26917D02*
X57836Y-27097D01*
X57836Y-27007D02*
X57442Y-27007D01*
X57499Y-27037D01*
X57536Y-27067D01*
X57555Y-27097D01*
X57574Y-26647D02*
X57836Y-26647D01*
X57424Y-26722D02*
X57705Y-26797D01*
X57705Y-26602D01*
X54371Y-27877D02*
X54356Y-27896D01*
X54311Y-27915D01*
X54281Y-27915D01*
X54236Y-27896D01*
X54206Y-27859D01*
X54191Y-27821D01*
X54176Y-27746D01*
X54176Y-27690D01*
X54191Y-27615D01*
X54206Y-27577D01*
X54236Y-27540D01*
X54281Y-27521D01*
X54311Y-27521D01*
X54356Y-27540D01*
X54371Y-27559D01*
X54656Y-27521D02*
X54506Y-27521D01*
X54491Y-27709D01*
X54506Y-27690D01*
X54536Y-27671D01*
X54611Y-27671D01*
X54641Y-27690D01*
X54656Y-27709D01*
X54671Y-27746D01*
X54671Y-27840D01*
X54656Y-27877D01*
X54641Y-27896D01*
X54611Y-27915D01*
X54536Y-27915D01*
X54506Y-27896D01*
X54491Y-27877D01*
X54971Y-27915D02*
X54791Y-27915D01*
X54881Y-27915D02*
X54881Y-27521D01*
X54851Y-27577D01*
X54821Y-27615D01*
X54791Y-27634D01*
X55271Y-27915D02*
X55091Y-27915D01*
X55181Y-27915D02*
X55181Y-27521D01*
X55151Y-27577D01*
X55121Y-27615D01*
X55091Y-27634D01*
X57442Y-22399D02*
X57255Y-22504D01*
X57442Y-22579D02*
X57049Y-22579D01*
X57049Y-22459D01*
X57067Y-22429D01*
X57086Y-22414D01*
X57124Y-22399D01*
X57180Y-22399D01*
X57217Y-22414D01*
X57236Y-22429D01*
X57255Y-22459D01*
X57255Y-22579D01*
X57049Y-22114D02*
X57049Y-22264D01*
X57236Y-22279D01*
X57217Y-22264D01*
X57199Y-22234D01*
X57199Y-22159D01*
X57217Y-22129D01*
X57236Y-22114D01*
X57274Y-22099D01*
X57367Y-22099D01*
X57405Y-22114D01*
X57424Y-22129D01*
X57442Y-22159D01*
X57442Y-22234D01*
X57424Y-22264D01*
X57405Y-22279D01*
X57049Y-21904D02*
X57049Y-21874D01*
X57067Y-21844D01*
X57086Y-21829D01*
X57124Y-21814D01*
X57199Y-21799D01*
X57292Y-21799D01*
X57367Y-21814D01*
X57405Y-21829D01*
X57424Y-21844D01*
X57442Y-21874D01*
X57442Y-21904D01*
X57424Y-21934D01*
X57405Y-21949D01*
X57367Y-21964D01*
X57292Y-21979D01*
X57199Y-21979D01*
X57124Y-21964D01*
X57086Y-21949D01*
X57067Y-21934D01*
X57049Y-21904D01*
X57442Y-21499D02*
X57442Y-21679D01*
X57442Y-21589D02*
X57049Y-21589D01*
X57105Y-21619D01*
X57142Y-21649D01*
X57161Y-21679D01*
X61852Y-30338D02*
X61837Y-30357D01*
X61792Y-30375D01*
X61762Y-30375D01*
X61717Y-30357D01*
X61687Y-30319D01*
X61672Y-30282D01*
X61657Y-30207D01*
X61657Y-30150D01*
X61672Y-30075D01*
X61687Y-30038D01*
X61717Y-30000D01*
X61762Y-29982D01*
X61792Y-29982D01*
X61837Y-30000D01*
X61852Y-30019D01*
X62137Y-29982D02*
X61987Y-29982D01*
X61972Y-30169D01*
X61987Y-30150D01*
X62017Y-30132D01*
X62092Y-30132D01*
X62122Y-30150D01*
X62137Y-30169D01*
X62152Y-30207D01*
X62152Y-30300D01*
X62137Y-30338D01*
X62122Y-30357D01*
X62092Y-30375D01*
X62017Y-30375D01*
X61987Y-30357D01*
X61972Y-30338D01*
X62452Y-30375D02*
X62272Y-30375D01*
X62362Y-30375D02*
X62362Y-29982D01*
X62332Y-30038D01*
X62302Y-30075D01*
X62272Y-30094D01*
X62722Y-29982D02*
X62662Y-29982D01*
X62632Y-30000D01*
X62617Y-30019D01*
X62587Y-30075D01*
X62572Y-30150D01*
X62572Y-30300D01*
X62587Y-30338D01*
X62602Y-30357D01*
X62632Y-30375D01*
X62692Y-30375D01*
X62722Y-30357D01*
X62737Y-30338D01*
X62752Y-30300D01*
X62752Y-30207D01*
X62737Y-30169D01*
X62722Y-30150D01*
X62692Y-30132D01*
X62632Y-30132D01*
X62602Y-30150D01*
X62587Y-30169D01*
X62572Y-30207D01*
X63409Y-23777D02*
X63428Y-23792D01*
X63446Y-23837D01*
X63446Y-23867D01*
X63428Y-23912D01*
X63390Y-23942D01*
X63353Y-23957D01*
X63278Y-23972D01*
X63221Y-23972D01*
X63146Y-23957D01*
X63109Y-23942D01*
X63071Y-23912D01*
X63053Y-23867D01*
X63053Y-23837D01*
X63071Y-23792D01*
X63090Y-23777D01*
X63053Y-23492D02*
X63053Y-23642D01*
X63240Y-23657D01*
X63221Y-23642D01*
X63203Y-23612D01*
X63203Y-23537D01*
X63221Y-23507D01*
X63240Y-23492D01*
X63278Y-23477D01*
X63371Y-23477D01*
X63409Y-23492D01*
X63428Y-23507D01*
X63446Y-23537D01*
X63446Y-23612D01*
X63428Y-23642D01*
X63409Y-23657D01*
X63446Y-23177D02*
X63446Y-23357D01*
X63446Y-23267D02*
X63053Y-23267D01*
X63109Y-23297D01*
X63146Y-23327D01*
X63165Y-23357D01*
X63053Y-22892D02*
X63053Y-23042D01*
X63240Y-23057D01*
X63221Y-23042D01*
X63203Y-23012D01*
X63203Y-22937D01*
X63221Y-22907D01*
X63240Y-22892D01*
X63278Y-22877D01*
X63371Y-22877D01*
X63409Y-22892D01*
X63428Y-22907D01*
X63446Y-22937D01*
X63446Y-23012D01*
X63428Y-23042D01*
X63409Y-23057D01*
X63820Y-24334D02*
X63805Y-24353D01*
X63760Y-24371D01*
X63730Y-24371D01*
X63685Y-24353D01*
X63655Y-24315D01*
X63640Y-24278D01*
X63625Y-24203D01*
X63625Y-24146D01*
X63640Y-24071D01*
X63655Y-24034D01*
X63685Y-23997D01*
X63730Y-23978D01*
X63760Y-23978D01*
X63805Y-23997D01*
X63820Y-24015D01*
X64105Y-23978D02*
X63955Y-23978D01*
X63940Y-24165D01*
X63955Y-24146D01*
X63985Y-24128D01*
X64060Y-24128D01*
X64090Y-24146D01*
X64105Y-24165D01*
X64120Y-24203D01*
X64120Y-24296D01*
X64105Y-24334D01*
X64090Y-24353D01*
X64060Y-24371D01*
X63985Y-24371D01*
X63955Y-24353D01*
X63940Y-24334D01*
X64420Y-24371D02*
X64240Y-24371D01*
X64330Y-24371D02*
X64330Y-23978D01*
X64300Y-24034D01*
X64270Y-24071D01*
X64240Y-24090D01*
X64690Y-24109D02*
X64690Y-24371D01*
X64615Y-23959D02*
X64540Y-24240D01*
X64735Y-24240D01*
X62245Y-22759D02*
X62230Y-22778D01*
X62185Y-22797D01*
X62155Y-22797D01*
X62110Y-22778D01*
X62080Y-22740D01*
X62065Y-22703D01*
X62050Y-22628D01*
X62050Y-22572D01*
X62065Y-22497D01*
X62080Y-22459D01*
X62110Y-22422D01*
X62155Y-22403D01*
X62185Y-22403D01*
X62230Y-22422D01*
X62245Y-22440D01*
X62530Y-22403D02*
X62380Y-22403D01*
X62365Y-22590D01*
X62380Y-22572D01*
X62410Y-22553D01*
X62485Y-22553D01*
X62515Y-22572D01*
X62530Y-22590D01*
X62545Y-22628D01*
X62545Y-22722D01*
X62530Y-22759D01*
X62515Y-22778D01*
X62485Y-22797D01*
X62410Y-22797D01*
X62380Y-22778D01*
X62365Y-22759D01*
X62845Y-22797D02*
X62665Y-22797D01*
X62755Y-22797D02*
X62755Y-22403D01*
X62725Y-22459D01*
X62695Y-22497D01*
X62665Y-22515D01*
X62950Y-22403D02*
X63145Y-22403D01*
X63040Y-22553D01*
X63085Y-22553D01*
X63115Y-22572D01*
X63130Y-22590D01*
X63145Y-22628D01*
X63145Y-22722D01*
X63130Y-22759D01*
X63115Y-22778D01*
X63085Y-22797D01*
X62995Y-22797D01*
X62965Y-22778D01*
X62950Y-22759D01*
X61852Y-24334D02*
X61837Y-24353D01*
X61792Y-24371D01*
X61762Y-24371D01*
X61717Y-24353D01*
X61687Y-24315D01*
X61672Y-24278D01*
X61657Y-24203D01*
X61657Y-24146D01*
X61672Y-24071D01*
X61687Y-24034D01*
X61717Y-23997D01*
X61762Y-23978D01*
X61792Y-23978D01*
X61837Y-23997D01*
X61852Y-24015D01*
X62137Y-23978D02*
X61987Y-23978D01*
X61972Y-24165D01*
X61987Y-24146D01*
X62017Y-24128D01*
X62092Y-24128D01*
X62122Y-24146D01*
X62137Y-24165D01*
X62152Y-24203D01*
X62152Y-24296D01*
X62137Y-24334D01*
X62122Y-24353D01*
X62092Y-24371D01*
X62017Y-24371D01*
X61987Y-24353D01*
X61972Y-24334D01*
X62452Y-24371D02*
X62272Y-24371D01*
X62362Y-24371D02*
X62362Y-23978D01*
X62332Y-24034D01*
X62302Y-24071D01*
X62272Y-24090D01*
X62572Y-24015D02*
X62587Y-23997D01*
X62617Y-23978D01*
X62692Y-23978D01*
X62722Y-23997D01*
X62737Y-24015D01*
X62752Y-24053D01*
X62752Y-24090D01*
X62737Y-24146D01*
X62557Y-24371D01*
X62752Y-24371D01*
X63820Y-28801D02*
X63670Y-28801D01*
X63670Y-28407D01*
X64075Y-28407D02*
X63925Y-28407D01*
X63910Y-28594D01*
X63925Y-28576D01*
X63955Y-28557D01*
X64030Y-28557D01*
X64060Y-28576D01*
X64075Y-28594D01*
X64090Y-28632D01*
X64090Y-28726D01*
X64075Y-28763D01*
X64060Y-28782D01*
X64030Y-28801D01*
X63955Y-28801D01*
X63925Y-28782D01*
X63910Y-28763D01*
X64285Y-28407D02*
X64315Y-28407D01*
X64345Y-28426D01*
X64360Y-28444D01*
X64375Y-28482D01*
X64390Y-28557D01*
X64390Y-28651D01*
X64375Y-28726D01*
X64360Y-28763D01*
X64345Y-28782D01*
X64315Y-28801D01*
X64285Y-28801D01*
X64255Y-28782D01*
X64240Y-28763D01*
X64225Y-28726D01*
X64210Y-28651D01*
X64210Y-28557D01*
X64225Y-28482D01*
X64240Y-28444D01*
X64255Y-28426D01*
X64285Y-28407D01*
X64675Y-28407D02*
X64525Y-28407D01*
X64510Y-28594D01*
X64525Y-28576D01*
X64555Y-28557D01*
X64630Y-28557D01*
X64660Y-28576D01*
X64675Y-28594D01*
X64690Y-28632D01*
X64690Y-28726D01*
X64675Y-28763D01*
X64660Y-28782D01*
X64630Y-28801D01*
X64555Y-28801D01*
X64525Y-28782D01*
X64510Y-28763D01*
X63820Y-25946D02*
X63670Y-25946D01*
X63670Y-25553D01*
X64075Y-25553D02*
X63925Y-25553D01*
X63910Y-25740D01*
X63925Y-25721D01*
X63955Y-25703D01*
X64030Y-25703D01*
X64060Y-25721D01*
X64075Y-25740D01*
X64090Y-25778D01*
X64090Y-25871D01*
X64075Y-25909D01*
X64060Y-25928D01*
X64030Y-25946D01*
X63955Y-25946D01*
X63925Y-25928D01*
X63910Y-25909D01*
X64285Y-25553D02*
X64315Y-25553D01*
X64345Y-25571D01*
X64360Y-25590D01*
X64375Y-25628D01*
X64390Y-25703D01*
X64390Y-25796D01*
X64375Y-25871D01*
X64360Y-25909D01*
X64345Y-25928D01*
X64315Y-25946D01*
X64285Y-25946D01*
X64255Y-25928D01*
X64240Y-25909D01*
X64225Y-25871D01*
X64210Y-25796D01*
X64210Y-25703D01*
X64225Y-25628D01*
X64240Y-25590D01*
X64255Y-25571D01*
X64285Y-25553D01*
X64495Y-25553D02*
X64690Y-25553D01*
X64585Y-25703D01*
X64630Y-25703D01*
X64660Y-25721D01*
X64675Y-25740D01*
X64690Y-25778D01*
X64690Y-25871D01*
X64675Y-25909D01*
X64660Y-25928D01*
X64630Y-25946D01*
X64540Y-25946D01*
X64510Y-25928D01*
X64495Y-25909D01*
X61852Y-28801D02*
X61702Y-28801D01*
X61702Y-28407D01*
X62107Y-28407D02*
X61957Y-28407D01*
X61942Y-28594D01*
X61957Y-28576D01*
X61987Y-28557D01*
X62062Y-28557D01*
X62092Y-28576D01*
X62107Y-28594D01*
X62122Y-28632D01*
X62122Y-28726D01*
X62107Y-28763D01*
X62092Y-28782D01*
X62062Y-28801D01*
X61987Y-28801D01*
X61957Y-28782D01*
X61942Y-28763D01*
X62317Y-28407D02*
X62347Y-28407D01*
X62377Y-28426D01*
X62392Y-28444D01*
X62407Y-28482D01*
X62422Y-28557D01*
X62422Y-28651D01*
X62407Y-28726D01*
X62392Y-28763D01*
X62377Y-28782D01*
X62347Y-28801D01*
X62317Y-28801D01*
X62287Y-28782D01*
X62272Y-28763D01*
X62257Y-28726D01*
X62242Y-28651D01*
X62242Y-28557D01*
X62257Y-28482D01*
X62272Y-28444D01*
X62287Y-28426D01*
X62317Y-28407D01*
X62692Y-28538D02*
X62692Y-28801D01*
X62617Y-28388D02*
X62542Y-28669D01*
X62737Y-28669D01*
X61852Y-25946D02*
X61702Y-25946D01*
X61702Y-25553D01*
X62107Y-25553D02*
X61957Y-25553D01*
X61942Y-25740D01*
X61957Y-25721D01*
X61987Y-25703D01*
X62062Y-25703D01*
X62092Y-25721D01*
X62107Y-25740D01*
X62122Y-25778D01*
X62122Y-25871D01*
X62107Y-25909D01*
X62092Y-25928D01*
X62062Y-25946D01*
X61987Y-25946D01*
X61957Y-25928D01*
X61942Y-25909D01*
X62317Y-25553D02*
X62347Y-25553D01*
X62377Y-25571D01*
X62392Y-25590D01*
X62407Y-25628D01*
X62422Y-25703D01*
X62422Y-25796D01*
X62407Y-25871D01*
X62392Y-25909D01*
X62377Y-25928D01*
X62347Y-25946D01*
X62317Y-25946D01*
X62287Y-25928D01*
X62272Y-25909D01*
X62257Y-25871D01*
X62242Y-25796D01*
X62242Y-25703D01*
X62257Y-25628D01*
X62272Y-25590D01*
X62287Y-25571D01*
X62317Y-25553D01*
X62542Y-25590D02*
X62557Y-25571D01*
X62587Y-25553D01*
X62662Y-25553D01*
X62692Y-25571D01*
X62707Y-25590D01*
X62722Y-25628D01*
X62722Y-25665D01*
X62707Y-25721D01*
X62527Y-25946D01*
X62722Y-25946D01*
X54293Y-25943D02*
X54105Y-26047D01*
X54293Y-26122D02*
X53899Y-26122D01*
X53899Y-26002D01*
X53918Y-25973D01*
X53937Y-25958D01*
X53974Y-25943D01*
X54030Y-25943D01*
X54068Y-25958D01*
X54086Y-25973D01*
X54105Y-26002D01*
X54105Y-26122D01*
X53899Y-25658D02*
X53899Y-25808D01*
X54086Y-25823D01*
X54068Y-25808D01*
X54049Y-25778D01*
X54049Y-25703D01*
X54068Y-25673D01*
X54086Y-25658D01*
X54124Y-25643D01*
X54218Y-25643D01*
X54255Y-25658D01*
X54274Y-25673D01*
X54293Y-25703D01*
X54293Y-25778D01*
X54274Y-25808D01*
X54255Y-25823D01*
X54293Y-25343D02*
X54293Y-25523D01*
X54293Y-25433D02*
X53899Y-25433D01*
X53955Y-25463D01*
X53993Y-25493D01*
X54011Y-25523D01*
X54293Y-25193D02*
X54293Y-25133D01*
X54274Y-25103D01*
X54255Y-25088D01*
X54199Y-25058D01*
X54124Y-25043D01*
X53974Y-25043D01*
X53937Y-25058D01*
X53918Y-25073D01*
X53899Y-25103D01*
X53899Y-25163D01*
X53918Y-25193D01*
X53937Y-25208D01*
X53974Y-25223D01*
X54068Y-25223D01*
X54105Y-25208D01*
X54124Y-25193D01*
X54143Y-25163D01*
X54143Y-25103D01*
X54124Y-25073D01*
X54105Y-25058D01*
X54068Y-25043D01*
X54371Y-26734D02*
X54221Y-26734D01*
X54221Y-26340D01*
X54626Y-26340D02*
X54476Y-26340D01*
X54461Y-26527D01*
X54476Y-26509D01*
X54506Y-26490D01*
X54581Y-26490D01*
X54611Y-26509D01*
X54626Y-26527D01*
X54641Y-26565D01*
X54641Y-26659D01*
X54626Y-26696D01*
X54611Y-26715D01*
X54581Y-26734D01*
X54506Y-26734D01*
X54476Y-26715D01*
X54461Y-26696D01*
X54836Y-26340D02*
X54866Y-26340D01*
X54896Y-26359D01*
X54911Y-26377D01*
X54926Y-26415D01*
X54941Y-26490D01*
X54941Y-26584D01*
X54926Y-26659D01*
X54911Y-26696D01*
X54896Y-26715D01*
X54866Y-26734D01*
X54836Y-26734D01*
X54806Y-26715D01*
X54791Y-26696D01*
X54776Y-26659D01*
X54761Y-26584D01*
X54761Y-26490D01*
X54776Y-26415D01*
X54791Y-26377D01*
X54806Y-26359D01*
X54836Y-26340D01*
X55241Y-26734D02*
X55061Y-26734D01*
X55151Y-26734D02*
X55151Y-26340D01*
X55121Y-26396D01*
X55091Y-26434D01*
X55061Y-26452D01*
X56655Y-27517D02*
X56467Y-27622D01*
X56655Y-27697D02*
X56261Y-27697D01*
X56261Y-27577D01*
X56280Y-27547D01*
X56299Y-27532D01*
X56336Y-27517D01*
X56392Y-27517D01*
X56430Y-27532D01*
X56449Y-27547D01*
X56467Y-27577D01*
X56467Y-27697D01*
X56261Y-27232D02*
X56261Y-27382D01*
X56449Y-27397D01*
X56430Y-27382D01*
X56411Y-27352D01*
X56411Y-27277D01*
X56430Y-27247D01*
X56449Y-27232D01*
X56486Y-27217D01*
X56580Y-27217D01*
X56617Y-27232D01*
X56636Y-27247D01*
X56655Y-27277D01*
X56655Y-27352D01*
X56636Y-27382D01*
X56617Y-27397D01*
X56655Y-26917D02*
X56655Y-27097D01*
X56655Y-27007D02*
X56261Y-27007D01*
X56317Y-27037D01*
X56355Y-27067D01*
X56374Y-27097D01*
X56299Y-26797D02*
X56280Y-26782D01*
X56261Y-26752D01*
X56261Y-26677D01*
X56280Y-26647D01*
X56299Y-26632D01*
X56336Y-26617D01*
X56374Y-26617D01*
X56430Y-26632D01*
X56655Y-26812D01*
X56655Y-26617D01*
X58308Y-29096D02*
X58203Y-28908D01*
X58128Y-29096D02*
X58128Y-28702D01*
X58248Y-28702D01*
X58278Y-28721D01*
X58293Y-28740D01*
X58308Y-28777D01*
X58308Y-28833D01*
X58293Y-28871D01*
X58278Y-28890D01*
X58248Y-28908D01*
X58128Y-28908D01*
X58593Y-28702D02*
X58443Y-28702D01*
X58428Y-28890D01*
X58443Y-28871D01*
X58473Y-28852D01*
X58548Y-28852D01*
X58578Y-28871D01*
X58593Y-28890D01*
X58608Y-28927D01*
X58608Y-29021D01*
X58593Y-29058D01*
X58578Y-29077D01*
X58548Y-29096D01*
X58473Y-29096D01*
X58443Y-29077D01*
X58428Y-29058D01*
X58908Y-29096D02*
X58728Y-29096D01*
X58818Y-29096D02*
X58818Y-28702D01*
X58788Y-28758D01*
X58758Y-28796D01*
X58728Y-28815D01*
X59208Y-29096D02*
X59028Y-29096D01*
X59118Y-29096D02*
X59118Y-28702D01*
X59088Y-28758D01*
X59058Y-28796D01*
X59028Y-28815D01*
X72403Y-31848D02*
X72215Y-31953D01*
X72403Y-32028D02*
X72009Y-32028D01*
X72009Y-31908D01*
X72028Y-31878D01*
X72047Y-31863D01*
X72084Y-31848D01*
X72140Y-31848D01*
X72178Y-31863D01*
X72197Y-31878D01*
X72215Y-31908D01*
X72215Y-32028D01*
X72009Y-31563D02*
X72009Y-31713D01*
X72197Y-31728D01*
X72178Y-31713D01*
X72159Y-31683D01*
X72159Y-31608D01*
X72178Y-31578D01*
X72197Y-31563D01*
X72234Y-31548D01*
X72328Y-31548D01*
X72365Y-31563D01*
X72384Y-31578D01*
X72403Y-31608D01*
X72403Y-31683D01*
X72384Y-31713D01*
X72365Y-31728D01*
X72403Y-31248D02*
X72403Y-31428D01*
X72403Y-31338D02*
X72009Y-31338D01*
X72065Y-31368D01*
X72103Y-31398D01*
X72122Y-31428D01*
X72178Y-31068D02*
X72159Y-31098D01*
X72140Y-31113D01*
X72103Y-31128D01*
X72084Y-31128D01*
X72047Y-31113D01*
X72028Y-31098D01*
X72009Y-31068D01*
X72009Y-31008D01*
X72028Y-30978D01*
X72047Y-30963D01*
X72084Y-30948D01*
X72103Y-30948D01*
X72140Y-30963D01*
X72159Y-30978D01*
X72178Y-31008D01*
X72178Y-31068D01*
X72197Y-31098D01*
X72215Y-31113D01*
X72253Y-31128D01*
X72328Y-31128D01*
X72365Y-31113D01*
X72384Y-31098D01*
X72403Y-31068D01*
X72403Y-31008D01*
X72384Y-30978D01*
X72365Y-30963D01*
X72328Y-30948D01*
X72253Y-30948D01*
X72215Y-30963D01*
X72197Y-30978D01*
X72178Y-31008D01*
X59096Y-29686D02*
X58991Y-29499D01*
X58916Y-29686D02*
X58916Y-29293D01*
X59036Y-29293D01*
X59066Y-29311D01*
X59081Y-29330D01*
X59096Y-29368D01*
X59096Y-29424D01*
X59081Y-29461D01*
X59066Y-29480D01*
X59036Y-29499D01*
X58916Y-29499D01*
X59381Y-29293D02*
X59231Y-29293D01*
X59216Y-29480D01*
X59231Y-29461D01*
X59261Y-29443D01*
X59336Y-29443D01*
X59366Y-29461D01*
X59381Y-29480D01*
X59396Y-29518D01*
X59396Y-29611D01*
X59381Y-29649D01*
X59366Y-29668D01*
X59336Y-29686D01*
X59261Y-29686D01*
X59231Y-29668D01*
X59216Y-29649D01*
X59696Y-29686D02*
X59516Y-29686D01*
X59606Y-29686D02*
X59606Y-29293D01*
X59576Y-29349D01*
X59546Y-29386D01*
X59516Y-29405D01*
X59801Y-29293D02*
X59996Y-29293D01*
X59891Y-29443D01*
X59936Y-29443D01*
X59966Y-29461D01*
X59981Y-29480D01*
X59996Y-29518D01*
X59996Y-29611D01*
X59981Y-29649D01*
X59966Y-29668D01*
X59936Y-29686D01*
X59846Y-29686D01*
X59816Y-29668D01*
X59801Y-29649D01*
X59608Y-33521D02*
X59420Y-33626D01*
X59608Y-33701D02*
X59214Y-33701D01*
X59214Y-33581D01*
X59233Y-33551D01*
X59251Y-33536D01*
X59289Y-33521D01*
X59345Y-33521D01*
X59383Y-33536D01*
X59401Y-33551D01*
X59420Y-33581D01*
X59420Y-33701D01*
X59214Y-33236D02*
X59214Y-33386D01*
X59401Y-33401D01*
X59383Y-33386D01*
X59364Y-33356D01*
X59364Y-33281D01*
X59383Y-33251D01*
X59401Y-33236D01*
X59439Y-33221D01*
X59533Y-33221D01*
X59570Y-33236D01*
X59589Y-33251D01*
X59608Y-33281D01*
X59608Y-33356D01*
X59589Y-33386D01*
X59570Y-33401D01*
X59608Y-32921D02*
X59608Y-33101D01*
X59608Y-33011D02*
X59214Y-33011D01*
X59270Y-33041D01*
X59308Y-33071D01*
X59326Y-33101D01*
X59214Y-32651D02*
X59214Y-32711D01*
X59233Y-32741D01*
X59251Y-32756D01*
X59308Y-32786D01*
X59383Y-32801D01*
X59533Y-32801D01*
X59570Y-32786D01*
X59589Y-32771D01*
X59608Y-32741D01*
X59608Y-32681D01*
X59589Y-32651D01*
X59570Y-32636D01*
X59533Y-32621D01*
X59439Y-32621D01*
X59401Y-32636D01*
X59383Y-32651D01*
X59364Y-32681D01*
X59364Y-32741D01*
X59383Y-32771D01*
X59401Y-32786D01*
X59439Y-32801D01*
X78702Y-21612D02*
X78515Y-21717D01*
X78702Y-21792D02*
X78308Y-21792D01*
X78308Y-21672D01*
X78327Y-21642D01*
X78346Y-21627D01*
X78383Y-21612D01*
X78440Y-21612D01*
X78477Y-21627D01*
X78496Y-21642D01*
X78515Y-21672D01*
X78515Y-21792D01*
X78308Y-21327D02*
X78308Y-21477D01*
X78496Y-21492D01*
X78477Y-21477D01*
X78458Y-21447D01*
X78458Y-21372D01*
X78477Y-21342D01*
X78496Y-21327D01*
X78533Y-21312D01*
X78627Y-21312D01*
X78665Y-21327D01*
X78683Y-21342D01*
X78702Y-21372D01*
X78702Y-21447D01*
X78683Y-21477D01*
X78665Y-21492D01*
X78346Y-21192D02*
X78327Y-21177D01*
X78308Y-21147D01*
X78308Y-21072D01*
X78327Y-21042D01*
X78346Y-21027D01*
X78383Y-21012D01*
X78421Y-21012D01*
X78477Y-21027D01*
X78702Y-21207D01*
X78702Y-21012D01*
X78346Y-20892D02*
X78327Y-20877D01*
X78308Y-20847D01*
X78308Y-20772D01*
X78327Y-20742D01*
X78346Y-20727D01*
X78383Y-20712D01*
X78421Y-20712D01*
X78477Y-20727D01*
X78702Y-20907D01*
X78702Y-20712D01*
X68860Y-33915D02*
X68672Y-34020D01*
X68860Y-34095D02*
X68466Y-34095D01*
X68466Y-33975D01*
X68485Y-33945D01*
X68503Y-33930D01*
X68541Y-33915D01*
X68597Y-33915D01*
X68635Y-33930D01*
X68653Y-33945D01*
X68672Y-33975D01*
X68672Y-34095D01*
X68466Y-33630D02*
X68466Y-33780D01*
X68653Y-33795D01*
X68635Y-33780D01*
X68616Y-33750D01*
X68616Y-33675D01*
X68635Y-33645D01*
X68653Y-33630D01*
X68691Y-33615D01*
X68785Y-33615D01*
X68822Y-33630D01*
X68841Y-33645D01*
X68860Y-33675D01*
X68860Y-33750D01*
X68841Y-33780D01*
X68822Y-33795D01*
X68466Y-33420D02*
X68466Y-33390D01*
X68485Y-33360D01*
X68503Y-33345D01*
X68541Y-33330D01*
X68616Y-33315D01*
X68710Y-33315D01*
X68785Y-33330D01*
X68822Y-33345D01*
X68841Y-33360D01*
X68860Y-33390D01*
X68860Y-33420D01*
X68841Y-33450D01*
X68822Y-33465D01*
X68785Y-33480D01*
X68710Y-33495D01*
X68616Y-33495D01*
X68541Y-33480D01*
X68503Y-33465D01*
X68485Y-33450D01*
X68466Y-33420D01*
X68860Y-33165D02*
X68860Y-33105D01*
X68841Y-33075D01*
X68822Y-33060D01*
X68766Y-33030D01*
X68691Y-33015D01*
X68541Y-33015D01*
X68503Y-33030D01*
X68485Y-33045D01*
X68466Y-33075D01*
X68466Y-33135D01*
X68485Y-33165D01*
X68503Y-33180D01*
X68541Y-33195D01*
X68635Y-33195D01*
X68672Y-33180D01*
X68691Y-33165D01*
X68710Y-33135D01*
X68710Y-33075D01*
X68691Y-33045D01*
X68672Y-33030D01*
X68635Y-33015D01*
X67462Y-26045D02*
X67357Y-25857D01*
X67282Y-26045D02*
X67282Y-25651D01*
X67402Y-25651D01*
X67432Y-25670D01*
X67447Y-25688D01*
X67462Y-25726D01*
X67462Y-25782D01*
X67447Y-25820D01*
X67432Y-25838D01*
X67402Y-25857D01*
X67282Y-25857D01*
X67747Y-25651D02*
X67597Y-25651D01*
X67582Y-25838D01*
X67597Y-25820D01*
X67627Y-25801D01*
X67702Y-25801D01*
X67732Y-25820D01*
X67747Y-25838D01*
X67762Y-25876D01*
X67762Y-25970D01*
X67747Y-26007D01*
X67732Y-26026D01*
X67702Y-26045D01*
X67627Y-26045D01*
X67597Y-26026D01*
X67582Y-26007D01*
X68062Y-26045D02*
X67882Y-26045D01*
X67972Y-26045D02*
X67972Y-25651D01*
X67942Y-25707D01*
X67912Y-25745D01*
X67882Y-25763D01*
X68167Y-25651D02*
X68377Y-25651D01*
X68242Y-26045D01*
X75121Y-23187D02*
X75140Y-23202D01*
X75159Y-23247D01*
X75159Y-23277D01*
X75140Y-23322D01*
X75103Y-23352D01*
X75065Y-23367D01*
X74990Y-23382D01*
X74934Y-23382D01*
X74859Y-23367D01*
X74821Y-23352D01*
X74784Y-23322D01*
X74765Y-23277D01*
X74765Y-23247D01*
X74784Y-23202D01*
X74803Y-23187D01*
X74765Y-22902D02*
X74765Y-23052D01*
X74953Y-23067D01*
X74934Y-23052D01*
X74915Y-23022D01*
X74915Y-22947D01*
X74934Y-22917D01*
X74953Y-22902D01*
X74990Y-22887D01*
X75084Y-22887D01*
X75121Y-22902D01*
X75140Y-22917D01*
X75159Y-22947D01*
X75159Y-23022D01*
X75140Y-23052D01*
X75121Y-23067D01*
X75159Y-22587D02*
X75159Y-22767D01*
X75159Y-22677D02*
X74765Y-22677D01*
X74821Y-22707D01*
X74859Y-22737D01*
X74878Y-22767D01*
X74765Y-22392D02*
X74765Y-22362D01*
X74784Y-22332D01*
X74803Y-22317D01*
X74840Y-22302D01*
X74915Y-22287D01*
X75009Y-22287D01*
X75084Y-22302D01*
X75121Y-22317D01*
X75140Y-22332D01*
X75159Y-22362D01*
X75159Y-22392D01*
X75140Y-22422D01*
X75121Y-22437D01*
X75084Y-22452D01*
X75009Y-22467D01*
X74915Y-22467D01*
X74840Y-22452D01*
X74803Y-22437D01*
X74784Y-22422D01*
X74765Y-22392D01*
X59214Y-25254D02*
X59026Y-25359D01*
X59214Y-25434D02*
X58820Y-25434D01*
X58820Y-25314D01*
X58839Y-25284D01*
X58858Y-25269D01*
X58895Y-25254D01*
X58952Y-25254D01*
X58989Y-25269D01*
X59008Y-25284D01*
X59026Y-25314D01*
X59026Y-25434D01*
X58820Y-24969D02*
X58820Y-25119D01*
X59008Y-25134D01*
X58989Y-25119D01*
X58970Y-25089D01*
X58970Y-25014D01*
X58989Y-24984D01*
X59008Y-24969D01*
X59045Y-24954D01*
X59139Y-24954D01*
X59176Y-24969D01*
X59195Y-24984D01*
X59214Y-25014D01*
X59214Y-25089D01*
X59195Y-25119D01*
X59176Y-25134D01*
X59214Y-24654D02*
X59214Y-24834D01*
X59214Y-24744D02*
X58820Y-24744D01*
X58877Y-24774D01*
X58914Y-24804D01*
X58933Y-24834D01*
X58820Y-24369D02*
X58820Y-24519D01*
X59008Y-24534D01*
X58989Y-24519D01*
X58970Y-24489D01*
X58970Y-24414D01*
X58989Y-24384D01*
X59008Y-24369D01*
X59045Y-24354D01*
X59139Y-24354D01*
X59176Y-24369D01*
X59195Y-24384D01*
X59214Y-24414D01*
X59214Y-24489D01*
X59195Y-24519D01*
X59176Y-24534D01*
X72403Y-23974D02*
X72215Y-24079D01*
X72403Y-24154D02*
X72009Y-24154D01*
X72009Y-24034D01*
X72028Y-24004D01*
X72047Y-23989D01*
X72084Y-23974D01*
X72140Y-23974D01*
X72178Y-23989D01*
X72197Y-24004D01*
X72215Y-24034D01*
X72215Y-24154D01*
X72009Y-23689D02*
X72009Y-23839D01*
X72197Y-23854D01*
X72178Y-23839D01*
X72159Y-23809D01*
X72159Y-23734D01*
X72178Y-23704D01*
X72197Y-23689D01*
X72234Y-23674D01*
X72328Y-23674D01*
X72365Y-23689D01*
X72384Y-23704D01*
X72403Y-23734D01*
X72403Y-23809D01*
X72384Y-23839D01*
X72365Y-23854D01*
X72047Y-23554D02*
X72028Y-23539D01*
X72009Y-23509D01*
X72009Y-23434D01*
X72028Y-23404D01*
X72047Y-23389D01*
X72084Y-23374D01*
X72122Y-23374D01*
X72178Y-23389D01*
X72403Y-23569D01*
X72403Y-23374D01*
X72403Y-23074D02*
X72403Y-23254D01*
X72403Y-23164D02*
X72009Y-23164D01*
X72065Y-23194D01*
X72103Y-23224D01*
X72122Y-23254D01*
X72403Y-22399D02*
X72215Y-22504D01*
X72403Y-22579D02*
X72009Y-22579D01*
X72009Y-22459D01*
X72028Y-22429D01*
X72047Y-22414D01*
X72084Y-22399D01*
X72140Y-22399D01*
X72178Y-22414D01*
X72197Y-22429D01*
X72215Y-22459D01*
X72215Y-22579D01*
X72009Y-22114D02*
X72009Y-22264D01*
X72197Y-22279D01*
X72178Y-22264D01*
X72159Y-22234D01*
X72159Y-22159D01*
X72178Y-22129D01*
X72197Y-22114D01*
X72234Y-22099D01*
X72328Y-22099D01*
X72365Y-22114D01*
X72384Y-22129D01*
X72403Y-22159D01*
X72403Y-22234D01*
X72384Y-22264D01*
X72365Y-22279D01*
X72047Y-21979D02*
X72028Y-21964D01*
X72009Y-21934D01*
X72009Y-21859D01*
X72028Y-21829D01*
X72047Y-21814D01*
X72084Y-21799D01*
X72122Y-21799D01*
X72178Y-21814D01*
X72403Y-21994D01*
X72403Y-21799D01*
X72009Y-21604D02*
X72009Y-21574D01*
X72028Y-21544D01*
X72047Y-21529D01*
X72084Y-21514D01*
X72159Y-21499D01*
X72253Y-21499D01*
X72328Y-21514D01*
X72365Y-21529D01*
X72384Y-21544D01*
X72403Y-21574D01*
X72403Y-21604D01*
X72384Y-21634D01*
X72365Y-21649D01*
X72328Y-21664D01*
X72253Y-21679D01*
X72159Y-21679D01*
X72084Y-21664D01*
X72047Y-21649D01*
X72028Y-21634D01*
X72009Y-21604D01*
X73940Y-23187D02*
X73959Y-23202D01*
X73978Y-23247D01*
X73978Y-23277D01*
X73959Y-23322D01*
X73922Y-23352D01*
X73884Y-23367D01*
X73809Y-23382D01*
X73753Y-23382D01*
X73678Y-23367D01*
X73640Y-23352D01*
X73603Y-23322D01*
X73584Y-23277D01*
X73584Y-23247D01*
X73603Y-23202D01*
X73622Y-23187D01*
X73584Y-22902D02*
X73584Y-23052D01*
X73772Y-23067D01*
X73753Y-23052D01*
X73734Y-23022D01*
X73734Y-22947D01*
X73753Y-22917D01*
X73772Y-22902D01*
X73809Y-22887D01*
X73903Y-22887D01*
X73940Y-22902D01*
X73959Y-22917D01*
X73978Y-22947D01*
X73978Y-23022D01*
X73959Y-23052D01*
X73940Y-23067D01*
X73622Y-22767D02*
X73603Y-22752D01*
X73584Y-22722D01*
X73584Y-22647D01*
X73603Y-22617D01*
X73622Y-22602D01*
X73659Y-22587D01*
X73697Y-22587D01*
X73753Y-22602D01*
X73978Y-22782D01*
X73978Y-22587D01*
X73584Y-22392D02*
X73584Y-22362D01*
X73603Y-22332D01*
X73622Y-22317D01*
X73659Y-22302D01*
X73734Y-22287D01*
X73828Y-22287D01*
X73903Y-22302D01*
X73940Y-22317D01*
X73959Y-22332D01*
X73978Y-22362D01*
X73978Y-22392D01*
X73959Y-22422D01*
X73940Y-22437D01*
X73903Y-22452D01*
X73828Y-22467D01*
X73734Y-22467D01*
X73659Y-22452D01*
X73622Y-22437D01*
X73603Y-22422D01*
X73584Y-22392D01*
X69726Y-29096D02*
X69576Y-29096D01*
X69576Y-28702D01*
X69981Y-28702D02*
X69831Y-28702D01*
X69816Y-28890D01*
X69831Y-28871D01*
X69861Y-28852D01*
X69936Y-28852D01*
X69966Y-28871D01*
X69981Y-28890D01*
X69996Y-28927D01*
X69996Y-29021D01*
X69981Y-29058D01*
X69966Y-29077D01*
X69936Y-29096D01*
X69861Y-29096D01*
X69831Y-29077D01*
X69816Y-29058D01*
X70191Y-28702D02*
X70221Y-28702D01*
X70251Y-28721D01*
X70266Y-28740D01*
X70281Y-28777D01*
X70296Y-28852D01*
X70296Y-28946D01*
X70281Y-29021D01*
X70266Y-29058D01*
X70251Y-29077D01*
X70221Y-29096D01*
X70191Y-29096D01*
X70161Y-29077D01*
X70146Y-29058D01*
X70131Y-29021D01*
X70116Y-28946D01*
X70116Y-28852D01*
X70131Y-28777D01*
X70146Y-28740D01*
X70161Y-28721D01*
X70191Y-28702D01*
X70476Y-28871D02*
X70446Y-28852D01*
X70431Y-28833D01*
X70416Y-28796D01*
X70416Y-28777D01*
X70431Y-28740D01*
X70446Y-28721D01*
X70476Y-28702D01*
X70536Y-28702D01*
X70566Y-28721D01*
X70581Y-28740D01*
X70596Y-28777D01*
X70596Y-28796D01*
X70581Y-28833D01*
X70566Y-28852D01*
X70536Y-28871D01*
X70476Y-28871D01*
X70446Y-28890D01*
X70431Y-28908D01*
X70416Y-28946D01*
X70416Y-29021D01*
X70431Y-29058D01*
X70446Y-29077D01*
X70476Y-29096D01*
X70536Y-29096D01*
X70566Y-29077D01*
X70581Y-29058D01*
X70596Y-29021D01*
X70596Y-28946D01*
X70581Y-28908D01*
X70566Y-28890D01*
X70536Y-28871D01*
X69726Y-25651D02*
X69576Y-25651D01*
X69576Y-25257D01*
X69981Y-25257D02*
X69831Y-25257D01*
X69816Y-25445D01*
X69831Y-25426D01*
X69861Y-25407D01*
X69936Y-25407D01*
X69966Y-25426D01*
X69981Y-25445D01*
X69996Y-25482D01*
X69996Y-25576D01*
X69981Y-25613D01*
X69966Y-25632D01*
X69936Y-25651D01*
X69861Y-25651D01*
X69831Y-25632D01*
X69816Y-25613D01*
X70191Y-25257D02*
X70221Y-25257D01*
X70251Y-25276D01*
X70266Y-25295D01*
X70281Y-25332D01*
X70296Y-25407D01*
X70296Y-25501D01*
X70281Y-25576D01*
X70266Y-25613D01*
X70251Y-25632D01*
X70221Y-25651D01*
X70191Y-25651D01*
X70161Y-25632D01*
X70146Y-25613D01*
X70131Y-25576D01*
X70116Y-25501D01*
X70116Y-25407D01*
X70131Y-25332D01*
X70146Y-25295D01*
X70161Y-25276D01*
X70191Y-25257D01*
X70401Y-25257D02*
X70611Y-25257D01*
X70476Y-25651D01*
X66182Y-29096D02*
X66032Y-29096D01*
X66032Y-28702D01*
X66437Y-28702D02*
X66287Y-28702D01*
X66272Y-28890D01*
X66287Y-28871D01*
X66317Y-28852D01*
X66392Y-28852D01*
X66422Y-28871D01*
X66437Y-28890D01*
X66452Y-28927D01*
X66452Y-29021D01*
X66437Y-29058D01*
X66422Y-29077D01*
X66392Y-29096D01*
X66317Y-29096D01*
X66287Y-29077D01*
X66272Y-29058D01*
X66752Y-29096D02*
X66572Y-29096D01*
X66662Y-29096D02*
X66662Y-28702D01*
X66632Y-28758D01*
X66602Y-28796D01*
X66572Y-28815D01*
X66947Y-28702D02*
X66977Y-28702D01*
X67007Y-28721D01*
X67022Y-28740D01*
X67037Y-28777D01*
X67052Y-28852D01*
X67052Y-28946D01*
X67037Y-29021D01*
X67022Y-29058D01*
X67007Y-29077D01*
X66977Y-29096D01*
X66947Y-29096D01*
X66917Y-29077D01*
X66902Y-29058D01*
X66887Y-29021D01*
X66872Y-28946D01*
X66872Y-28852D01*
X66887Y-28777D01*
X66902Y-28740D01*
X66917Y-28721D01*
X66947Y-28702D01*
X66182Y-25553D02*
X66032Y-25553D01*
X66032Y-25159D01*
X66437Y-25159D02*
X66287Y-25159D01*
X66272Y-25346D01*
X66287Y-25328D01*
X66317Y-25309D01*
X66392Y-25309D01*
X66422Y-25328D01*
X66437Y-25346D01*
X66452Y-25384D01*
X66452Y-25478D01*
X66437Y-25515D01*
X66422Y-25534D01*
X66392Y-25553D01*
X66317Y-25553D01*
X66287Y-25534D01*
X66272Y-25515D01*
X66647Y-25159D02*
X66677Y-25159D01*
X66707Y-25178D01*
X66722Y-25196D01*
X66737Y-25234D01*
X66752Y-25309D01*
X66752Y-25403D01*
X66737Y-25478D01*
X66722Y-25515D01*
X66707Y-25534D01*
X66677Y-25553D01*
X66647Y-25553D01*
X66617Y-25534D01*
X66602Y-25515D01*
X66587Y-25478D01*
X66572Y-25403D01*
X66572Y-25309D01*
X66587Y-25234D01*
X66602Y-25196D01*
X66617Y-25178D01*
X66647Y-25159D01*
X66902Y-25553D02*
X66962Y-25553D01*
X66992Y-25534D01*
X67007Y-25515D01*
X67037Y-25459D01*
X67052Y-25384D01*
X67052Y-25234D01*
X67037Y-25196D01*
X67022Y-25178D01*
X66992Y-25159D01*
X66932Y-25159D01*
X66902Y-25178D01*
X66887Y-25196D01*
X66872Y-25234D01*
X66872Y-25328D01*
X66887Y-25365D01*
X66902Y-25384D01*
X66932Y-25403D01*
X66992Y-25403D01*
X67022Y-25384D01*
X67037Y-25365D01*
X67052Y-25328D01*
X63409Y-31257D02*
X63428Y-31272D01*
X63446Y-31317D01*
X63446Y-31347D01*
X63428Y-31392D01*
X63390Y-31422D01*
X63353Y-31437D01*
X63278Y-31452D01*
X63221Y-31452D01*
X63146Y-31437D01*
X63109Y-31422D01*
X63071Y-31392D01*
X63053Y-31347D01*
X63053Y-31317D01*
X63071Y-31272D01*
X63090Y-31257D01*
X63053Y-30973D02*
X63053Y-31122D01*
X63240Y-31137D01*
X63221Y-31122D01*
X63203Y-31092D01*
X63203Y-31017D01*
X63221Y-30988D01*
X63240Y-30973D01*
X63278Y-30958D01*
X63371Y-30958D01*
X63409Y-30973D01*
X63428Y-30988D01*
X63446Y-31017D01*
X63446Y-31092D01*
X63428Y-31122D01*
X63409Y-31137D01*
X63446Y-30658D02*
X63446Y-30838D01*
X63446Y-30748D02*
X63053Y-30748D01*
X63109Y-30778D01*
X63146Y-30808D01*
X63165Y-30838D01*
X63446Y-30508D02*
X63446Y-30448D01*
X63428Y-30418D01*
X63409Y-30403D01*
X63353Y-30373D01*
X63278Y-30358D01*
X63128Y-30358D01*
X63090Y-30373D01*
X63071Y-30388D01*
X63053Y-30418D01*
X63053Y-30478D01*
X63071Y-30508D01*
X63090Y-30523D01*
X63128Y-30538D01*
X63221Y-30538D01*
X63259Y-30523D01*
X63278Y-30508D01*
X63296Y-30478D01*
X63296Y-30418D01*
X63278Y-30388D01*
X63259Y-30373D01*
X63221Y-30358D01*
X63820Y-30338D02*
X63805Y-30357D01*
X63760Y-30375D01*
X63730Y-30375D01*
X63685Y-30357D01*
X63655Y-30319D01*
X63640Y-30282D01*
X63625Y-30207D01*
X63625Y-30150D01*
X63640Y-30075D01*
X63655Y-30038D01*
X63685Y-30000D01*
X63730Y-29982D01*
X63760Y-29982D01*
X63805Y-30000D01*
X63820Y-30019D01*
X64105Y-29982D02*
X63955Y-29982D01*
X63940Y-30169D01*
X63955Y-30150D01*
X63985Y-30132D01*
X64060Y-30132D01*
X64090Y-30150D01*
X64105Y-30169D01*
X64120Y-30207D01*
X64120Y-30300D01*
X64105Y-30338D01*
X64090Y-30357D01*
X64060Y-30375D01*
X63985Y-30375D01*
X63955Y-30357D01*
X63940Y-30338D01*
X64420Y-30375D02*
X64240Y-30375D01*
X64330Y-30375D02*
X64330Y-29982D01*
X64300Y-30038D01*
X64270Y-30075D01*
X64240Y-30094D01*
X64600Y-30150D02*
X64570Y-30132D01*
X64555Y-30113D01*
X64540Y-30075D01*
X64540Y-30057D01*
X64555Y-30019D01*
X64570Y-30000D01*
X64600Y-29982D01*
X64660Y-29982D01*
X64690Y-30000D01*
X64705Y-30019D01*
X64720Y-30057D01*
X64720Y-30075D01*
X64705Y-30113D01*
X64690Y-30132D01*
X64660Y-30150D01*
X64600Y-30150D01*
X64570Y-30169D01*
X64555Y-30188D01*
X64540Y-30225D01*
X64540Y-30300D01*
X64555Y-30338D01*
X64570Y-30357D01*
X64600Y-30375D01*
X64660Y-30375D01*
X64690Y-30357D01*
X64705Y-30338D01*
X64720Y-30300D01*
X64720Y-30225D01*
X64705Y-30188D01*
X64690Y-30169D01*
X64660Y-30150D01*
X62245Y-31913D02*
X62230Y-31931D01*
X62185Y-31950D01*
X62155Y-31950D01*
X62110Y-31931D01*
X62080Y-31894D01*
X62065Y-31856D01*
X62050Y-31781D01*
X62050Y-31725D01*
X62065Y-31650D01*
X62080Y-31613D01*
X62110Y-31575D01*
X62155Y-31556D01*
X62185Y-31556D01*
X62230Y-31575D01*
X62245Y-31594D01*
X62530Y-31556D02*
X62380Y-31556D01*
X62365Y-31744D01*
X62380Y-31725D01*
X62410Y-31706D01*
X62485Y-31706D01*
X62515Y-31725D01*
X62530Y-31744D01*
X62545Y-31781D01*
X62545Y-31875D01*
X62530Y-31913D01*
X62515Y-31931D01*
X62485Y-31950D01*
X62410Y-31950D01*
X62380Y-31931D01*
X62365Y-31913D01*
X62845Y-31950D02*
X62665Y-31950D01*
X62755Y-31950D02*
X62755Y-31556D01*
X62725Y-31613D01*
X62695Y-31650D01*
X62665Y-31669D01*
X62950Y-31556D02*
X63160Y-31556D01*
X63025Y-31950D01*
X64726Y-33915D02*
X64538Y-34020D01*
X64726Y-34095D02*
X64332Y-34095D01*
X64332Y-33975D01*
X64351Y-33945D01*
X64370Y-33930D01*
X64407Y-33915D01*
X64463Y-33915D01*
X64501Y-33930D01*
X64520Y-33945D01*
X64538Y-33975D01*
X64538Y-34095D01*
X64332Y-33630D02*
X64332Y-33780D01*
X64520Y-33795D01*
X64501Y-33780D01*
X64482Y-33750D01*
X64482Y-33675D01*
X64501Y-33645D01*
X64520Y-33630D01*
X64557Y-33615D01*
X64651Y-33615D01*
X64688Y-33630D01*
X64707Y-33645D01*
X64726Y-33675D01*
X64726Y-33750D01*
X64707Y-33780D01*
X64688Y-33795D01*
X64332Y-33420D02*
X64332Y-33390D01*
X64351Y-33360D01*
X64370Y-33345D01*
X64407Y-33330D01*
X64482Y-33315D01*
X64576Y-33315D01*
X64651Y-33330D01*
X64688Y-33345D01*
X64707Y-33360D01*
X64726Y-33390D01*
X64726Y-33420D01*
X64707Y-33450D01*
X64688Y-33465D01*
X64651Y-33480D01*
X64576Y-33495D01*
X64482Y-33495D01*
X64407Y-33480D01*
X64370Y-33465D01*
X64351Y-33450D01*
X64332Y-33420D01*
X64332Y-33210D02*
X64332Y-33000D01*
X64726Y-33135D01*
X58389Y-33521D02*
X58408Y-33536D01*
X58427Y-33581D01*
X58427Y-33611D01*
X58408Y-33656D01*
X58370Y-33686D01*
X58333Y-33701D01*
X58258Y-33716D01*
X58202Y-33716D01*
X58127Y-33701D01*
X58089Y-33686D01*
X58052Y-33656D01*
X58033Y-33611D01*
X58033Y-33581D01*
X58052Y-33536D01*
X58070Y-33521D01*
X58033Y-33236D02*
X58033Y-33386D01*
X58220Y-33401D01*
X58202Y-33386D01*
X58183Y-33356D01*
X58183Y-33281D01*
X58202Y-33251D01*
X58220Y-33236D01*
X58258Y-33221D01*
X58352Y-33221D01*
X58389Y-33236D01*
X58408Y-33251D01*
X58427Y-33281D01*
X58427Y-33356D01*
X58408Y-33386D01*
X58389Y-33401D01*
X58070Y-33101D02*
X58052Y-33086D01*
X58033Y-33056D01*
X58033Y-32981D01*
X58052Y-32951D01*
X58070Y-32936D01*
X58108Y-32921D01*
X58145Y-32921D01*
X58202Y-32936D01*
X58427Y-33116D01*
X58427Y-32921D01*
X58427Y-32621D02*
X58427Y-32801D01*
X58427Y-32711D02*
X58033Y-32711D01*
X58089Y-32741D01*
X58127Y-32771D01*
X58145Y-32801D01*
X67974Y-27517D02*
X67786Y-27622D01*
X67974Y-27697D02*
X67580Y-27697D01*
X67580Y-27577D01*
X67599Y-27547D01*
X67618Y-27532D01*
X67655Y-27517D01*
X67711Y-27517D01*
X67749Y-27532D01*
X67768Y-27547D01*
X67786Y-27577D01*
X67786Y-27697D01*
X67580Y-27232D02*
X67580Y-27382D01*
X67768Y-27397D01*
X67749Y-27382D01*
X67730Y-27352D01*
X67730Y-27277D01*
X67749Y-27247D01*
X67768Y-27232D01*
X67805Y-27217D01*
X67899Y-27217D01*
X67936Y-27232D01*
X67955Y-27247D01*
X67974Y-27277D01*
X67974Y-27352D01*
X67955Y-27382D01*
X67936Y-27397D01*
X67974Y-26917D02*
X67974Y-27097D01*
X67974Y-27007D02*
X67580Y-27007D01*
X67636Y-27037D01*
X67674Y-27067D01*
X67693Y-27097D01*
X67580Y-26722D02*
X67580Y-26692D01*
X67599Y-26662D01*
X67618Y-26647D01*
X67655Y-26632D01*
X67730Y-26617D01*
X67824Y-26617D01*
X67899Y-26632D01*
X67936Y-26647D01*
X67955Y-26662D01*
X67974Y-26692D01*
X67974Y-26722D01*
X67955Y-26752D01*
X67936Y-26767D01*
X67899Y-26782D01*
X67824Y-26797D01*
X67730Y-26797D01*
X67655Y-26782D01*
X67618Y-26767D01*
X67599Y-26752D01*
X67580Y-26722D01*
X60277Y-25909D02*
X60262Y-25928D01*
X60217Y-25946D01*
X60187Y-25946D01*
X60142Y-25928D01*
X60112Y-25890D01*
X60097Y-25853D01*
X60082Y-25778D01*
X60082Y-25721D01*
X60097Y-25646D01*
X60112Y-25609D01*
X60142Y-25571D01*
X60187Y-25553D01*
X60217Y-25553D01*
X60262Y-25571D01*
X60277Y-25590D01*
X60562Y-25553D02*
X60412Y-25553D01*
X60397Y-25740D01*
X60412Y-25721D01*
X60442Y-25703D01*
X60517Y-25703D01*
X60547Y-25721D01*
X60562Y-25740D01*
X60577Y-25778D01*
X60577Y-25871D01*
X60562Y-25909D01*
X60547Y-25928D01*
X60517Y-25946D01*
X60442Y-25946D01*
X60412Y-25928D01*
X60397Y-25909D01*
X60772Y-25553D02*
X60802Y-25553D01*
X60832Y-25571D01*
X60847Y-25590D01*
X60862Y-25628D01*
X60877Y-25703D01*
X60877Y-25796D01*
X60862Y-25871D01*
X60847Y-25909D01*
X60832Y-25928D01*
X60802Y-25946D01*
X60772Y-25946D01*
X60742Y-25928D01*
X60727Y-25909D01*
X60712Y-25871D01*
X60697Y-25796D01*
X60697Y-25703D01*
X60712Y-25628D01*
X60727Y-25590D01*
X60742Y-25571D01*
X60772Y-25553D01*
X61057Y-25721D02*
X61027Y-25703D01*
X61012Y-25684D01*
X60997Y-25646D01*
X60997Y-25628D01*
X61012Y-25590D01*
X61027Y-25571D01*
X61057Y-25553D01*
X61117Y-25553D01*
X61147Y-25571D01*
X61162Y-25590D01*
X61177Y-25628D01*
X61177Y-25646D01*
X61162Y-25684D01*
X61147Y-25703D01*
X61117Y-25721D01*
X61057Y-25721D01*
X61027Y-25740D01*
X61012Y-25759D01*
X60997Y-25796D01*
X60997Y-25871D01*
X61012Y-25909D01*
X61027Y-25928D01*
X61057Y-25946D01*
X61117Y-25946D01*
X61147Y-25928D01*
X61162Y-25909D01*
X61177Y-25871D01*
X61177Y-25796D01*
X61162Y-25759D01*
X61147Y-25740D01*
X61117Y-25721D01*
X60161Y-30667D02*
X60179Y-30682D01*
X60198Y-30727D01*
X60198Y-30757D01*
X60179Y-30802D01*
X60142Y-30832D01*
X60104Y-30847D01*
X60029Y-30862D01*
X59973Y-30862D01*
X59898Y-30847D01*
X59861Y-30832D01*
X59823Y-30802D01*
X59805Y-30757D01*
X59805Y-30727D01*
X59823Y-30682D01*
X59842Y-30667D01*
X59805Y-30382D02*
X59805Y-30532D01*
X59992Y-30547D01*
X59973Y-30532D01*
X59955Y-30502D01*
X59955Y-30427D01*
X59973Y-30397D01*
X59992Y-30382D01*
X60029Y-30367D01*
X60123Y-30367D01*
X60161Y-30382D01*
X60179Y-30397D01*
X60198Y-30427D01*
X60198Y-30502D01*
X60179Y-30532D01*
X60161Y-30547D01*
X59805Y-30172D02*
X59805Y-30142D01*
X59823Y-30112D01*
X59842Y-30097D01*
X59880Y-30082D01*
X59955Y-30067D01*
X60048Y-30067D01*
X60123Y-30082D01*
X60161Y-30097D01*
X60179Y-30112D01*
X60198Y-30142D01*
X60198Y-30172D01*
X60179Y-30202D01*
X60161Y-30217D01*
X60123Y-30232D01*
X60048Y-30247D01*
X59955Y-30247D01*
X59880Y-30232D01*
X59842Y-30217D01*
X59823Y-30202D01*
X59805Y-30172D01*
X59805Y-29962D02*
X59805Y-29767D01*
X59955Y-29872D01*
X59955Y-29827D01*
X59973Y-29797D01*
X59992Y-29782D01*
X60029Y-29767D01*
X60123Y-29767D01*
X60161Y-29782D01*
X60179Y-29797D01*
X60198Y-29827D01*
X60198Y-29917D01*
X60179Y-29947D01*
X60161Y-29962D01*
X70808Y-27385D02*
X70793Y-27404D01*
X70748Y-27423D01*
X70718Y-27423D01*
X70673Y-27404D01*
X70643Y-27366D01*
X70628Y-27329D01*
X70613Y-27254D01*
X70613Y-27198D01*
X70628Y-27123D01*
X70643Y-27085D01*
X70673Y-27048D01*
X70718Y-27029D01*
X70748Y-27029D01*
X70793Y-27048D01*
X70808Y-27066D01*
X71093Y-27029D02*
X70943Y-27029D01*
X70928Y-27216D01*
X70943Y-27198D01*
X70973Y-27179D01*
X71048Y-27179D01*
X71078Y-27198D01*
X71093Y-27216D01*
X71108Y-27254D01*
X71108Y-27348D01*
X71093Y-27385D01*
X71078Y-27404D01*
X71048Y-27423D01*
X70973Y-27423D01*
X70943Y-27404D01*
X70928Y-27385D01*
X71303Y-27029D02*
X71333Y-27029D01*
X71363Y-27048D01*
X71378Y-27066D01*
X71393Y-27104D01*
X71408Y-27179D01*
X71408Y-27273D01*
X71393Y-27348D01*
X71378Y-27385D01*
X71363Y-27404D01*
X71333Y-27423D01*
X71303Y-27423D01*
X71273Y-27404D01*
X71258Y-27385D01*
X71243Y-27348D01*
X71228Y-27273D01*
X71228Y-27179D01*
X71243Y-27104D01*
X71258Y-27066D01*
X71273Y-27048D01*
X71303Y-27029D01*
X71513Y-27029D02*
X71723Y-27029D01*
X71588Y-27423D01*
X69431Y-27287D02*
X69416Y-27305D01*
X69371Y-27324D01*
X69341Y-27324D01*
X69296Y-27305D01*
X69266Y-27268D01*
X69251Y-27230D01*
X69236Y-27155D01*
X69236Y-27099D01*
X69251Y-27024D01*
X69266Y-26987D01*
X69296Y-26949D01*
X69341Y-26931D01*
X69371Y-26931D01*
X69416Y-26949D01*
X69431Y-26968D01*
X69715Y-26931D02*
X69565Y-26931D01*
X69550Y-27118D01*
X69565Y-27099D01*
X69595Y-27080D01*
X69670Y-27080D01*
X69700Y-27099D01*
X69715Y-27118D01*
X69730Y-27155D01*
X69730Y-27249D01*
X69715Y-27287D01*
X69700Y-27305D01*
X69670Y-27324D01*
X69595Y-27324D01*
X69565Y-27305D01*
X69550Y-27287D01*
X69925Y-26931D02*
X69955Y-26931D01*
X69985Y-26949D01*
X70000Y-26968D01*
X70015Y-27005D01*
X70030Y-27080D01*
X70030Y-27174D01*
X70015Y-27249D01*
X70000Y-27287D01*
X69985Y-27305D01*
X69955Y-27324D01*
X69925Y-27324D01*
X69895Y-27305D01*
X69880Y-27287D01*
X69865Y-27249D01*
X69850Y-27174D01*
X69850Y-27080D01*
X69865Y-27005D01*
X69880Y-26968D01*
X69895Y-26949D01*
X69925Y-26931D01*
X70300Y-26931D02*
X70240Y-26931D01*
X70210Y-26949D01*
X70195Y-26968D01*
X70165Y-27024D01*
X70150Y-27099D01*
X70150Y-27249D01*
X70165Y-27287D01*
X70180Y-27305D01*
X70210Y-27324D01*
X70270Y-27324D01*
X70300Y-27305D01*
X70315Y-27287D01*
X70330Y-27249D01*
X70330Y-27155D01*
X70315Y-27118D01*
X70300Y-27099D01*
X70270Y-27080D01*
X70210Y-27080D01*
X70180Y-27099D01*
X70165Y-27118D01*
X70150Y-27155D01*
X60062Y-24368D02*
X60081Y-24383D01*
X60100Y-24428D01*
X60100Y-24458D01*
X60081Y-24503D01*
X60044Y-24533D01*
X60006Y-24548D01*
X59931Y-24563D01*
X59875Y-24563D01*
X59800Y-24548D01*
X59762Y-24533D01*
X59725Y-24503D01*
X59706Y-24458D01*
X59706Y-24428D01*
X59725Y-24383D01*
X59744Y-24368D01*
X59706Y-24083D02*
X59706Y-24233D01*
X59894Y-24248D01*
X59875Y-24233D01*
X59856Y-24203D01*
X59856Y-24128D01*
X59875Y-24098D01*
X59894Y-24083D01*
X59931Y-24068D01*
X60025Y-24068D01*
X60062Y-24083D01*
X60081Y-24098D01*
X60100Y-24128D01*
X60100Y-24203D01*
X60081Y-24233D01*
X60062Y-24248D01*
X59706Y-23873D02*
X59706Y-23843D01*
X59725Y-23813D01*
X59744Y-23798D01*
X59781Y-23783D01*
X59856Y-23768D01*
X59950Y-23768D01*
X60025Y-23783D01*
X60062Y-23798D01*
X60081Y-23813D01*
X60100Y-23843D01*
X60100Y-23873D01*
X60081Y-23903D01*
X60062Y-23918D01*
X60025Y-23933D01*
X59950Y-23948D01*
X59856Y-23948D01*
X59781Y-23933D01*
X59744Y-23918D01*
X59725Y-23903D01*
X59706Y-23873D01*
X59744Y-23648D02*
X59725Y-23633D01*
X59706Y-23603D01*
X59706Y-23528D01*
X59725Y-23498D01*
X59744Y-23483D01*
X59781Y-23468D01*
X59819Y-23468D01*
X59875Y-23483D01*
X60100Y-23663D01*
X60100Y-23468D01*
X54157Y-23580D02*
X54176Y-23595D01*
X54194Y-23640D01*
X54194Y-23670D01*
X54176Y-23715D01*
X54138Y-23745D01*
X54101Y-23760D01*
X54026Y-23775D01*
X53969Y-23775D01*
X53894Y-23760D01*
X53857Y-23745D01*
X53819Y-23715D01*
X53801Y-23670D01*
X53801Y-23640D01*
X53819Y-23595D01*
X53838Y-23580D01*
X53801Y-23295D02*
X53801Y-23445D01*
X53988Y-23460D01*
X53969Y-23445D01*
X53951Y-23415D01*
X53951Y-23340D01*
X53969Y-23310D01*
X53988Y-23295D01*
X54026Y-23280D01*
X54119Y-23280D01*
X54157Y-23295D01*
X54176Y-23310D01*
X54194Y-23340D01*
X54194Y-23415D01*
X54176Y-23445D01*
X54157Y-23460D01*
X53801Y-23085D02*
X53801Y-23055D01*
X53819Y-23025D01*
X53838Y-23010D01*
X53876Y-22995D01*
X53951Y-22980D01*
X54044Y-22980D01*
X54119Y-22995D01*
X54157Y-23010D01*
X54176Y-23025D01*
X54194Y-23055D01*
X54194Y-23085D01*
X54176Y-23115D01*
X54157Y-23130D01*
X54119Y-23145D01*
X54044Y-23160D01*
X53951Y-23160D01*
X53876Y-23145D01*
X53838Y-23130D01*
X53819Y-23115D01*
X53801Y-23085D01*
X54194Y-22680D02*
X54194Y-22860D01*
X54194Y-22770D02*
X53801Y-22770D01*
X53857Y-22800D01*
X53894Y-22830D01*
X53913Y-22860D01*
X76537Y-27803D02*
X76537Y-27623D01*
X76931Y-27713D02*
X76537Y-27713D01*
X76537Y-27368D02*
X76537Y-27518D01*
X76724Y-27533D01*
X76706Y-27518D01*
X76687Y-27488D01*
X76687Y-27413D01*
X76706Y-27383D01*
X76724Y-27368D01*
X76762Y-27353D01*
X76856Y-27353D01*
X76893Y-27368D01*
X76912Y-27383D01*
X76931Y-27413D01*
X76931Y-27488D01*
X76912Y-27518D01*
X76893Y-27533D01*
X76537Y-27158D02*
X76537Y-27128D01*
X76556Y-27098D01*
X76574Y-27083D01*
X76612Y-27068D01*
X76687Y-27053D01*
X76781Y-27053D01*
X76856Y-27068D01*
X76893Y-27083D01*
X76912Y-27098D01*
X76931Y-27128D01*
X76931Y-27158D01*
X76912Y-27188D01*
X76893Y-27203D01*
X76856Y-27218D01*
X76781Y-27233D01*
X76687Y-27233D01*
X76612Y-27218D01*
X76574Y-27203D01*
X76556Y-27188D01*
X76537Y-27158D01*
X76537Y-26948D02*
X76537Y-26753D01*
X76687Y-26858D01*
X76687Y-26813D01*
X76706Y-26783D01*
X76724Y-26768D01*
X76762Y-26753D01*
X76856Y-26753D01*
X76893Y-26768D01*
X76912Y-26783D01*
X76931Y-26813D01*
X76931Y-26903D01*
X76912Y-26933D01*
X76893Y-26948D01*
G54D11*
X84195Y-31681D02*
X84617Y-31681D01*
X84701Y-31704D01*
X84758Y-31749D01*
X84786Y-31816D01*
X84786Y-31861D01*
X84786Y-31209D02*
X84786Y-31479D01*
X84786Y-31344D02*
X84195Y-31344D01*
X84280Y-31389D01*
X84336Y-31434D01*
X84364Y-31479D01*
X84195Y-30916D02*
X84195Y-30871D01*
X84223Y-30826D01*
X84251Y-30804D01*
X84308Y-30781D01*
X84420Y-30759D01*
X84561Y-30759D01*
X84673Y-30781D01*
X84730Y-30804D01*
X84758Y-30826D01*
X84786Y-30871D01*
X84786Y-30916D01*
X84758Y-30961D01*
X84730Y-30984D01*
X84673Y-31006D01*
X84561Y-31029D01*
X84420Y-31029D01*
X84308Y-31006D01*
X84251Y-30984D01*
X84223Y-30961D01*
X84195Y-30916D01*
G54D14*
X79096Y-31445D02*
X79096Y-31265D01*
X79490Y-31355D02*
X79096Y-31355D01*
X79096Y-31010D02*
X79096Y-31160D01*
X79283Y-31175D01*
X79265Y-31160D01*
X79246Y-31130D01*
X79246Y-31055D01*
X79265Y-31025D01*
X79283Y-31010D01*
X79321Y-30995D01*
X79415Y-30995D01*
X79452Y-31010D01*
X79471Y-31025D01*
X79490Y-31055D01*
X79490Y-31130D01*
X79471Y-31160D01*
X79452Y-31175D01*
X79096Y-30800D02*
X79096Y-30770D01*
X79115Y-30740D01*
X79133Y-30725D01*
X79171Y-30710D01*
X79246Y-30695D01*
X79340Y-30695D01*
X79415Y-30710D01*
X79452Y-30725D01*
X79471Y-30740D01*
X79490Y-30770D01*
X79490Y-30800D01*
X79471Y-30830D01*
X79452Y-30845D01*
X79415Y-30860D01*
X79340Y-30875D01*
X79246Y-30875D01*
X79171Y-30860D01*
X79133Y-30845D01*
X79115Y-30830D01*
X79096Y-30800D01*
X79227Y-30425D02*
X79490Y-30425D01*
X79077Y-30500D02*
X79358Y-30575D01*
X79358Y-30380D01*
X66599Y-33858D02*
X66569Y-33839D01*
X66539Y-33802D01*
X66494Y-33745D01*
X66464Y-33727D01*
X66434Y-33727D01*
X66449Y-33820D02*
X66419Y-33802D01*
X66389Y-33764D01*
X66374Y-33689D01*
X66374Y-33558D01*
X66389Y-33483D01*
X66419Y-33445D01*
X66449Y-33427D01*
X66509Y-33427D01*
X66539Y-33445D01*
X66569Y-33483D01*
X66584Y-33558D01*
X66584Y-33689D01*
X66569Y-33764D01*
X66539Y-33802D01*
X66509Y-33820D01*
X66449Y-33820D01*
X66869Y-33427D02*
X66719Y-33427D01*
X66704Y-33614D01*
X66719Y-33595D01*
X66749Y-33577D01*
X66824Y-33577D01*
X66854Y-33595D01*
X66869Y-33614D01*
X66884Y-33652D01*
X66884Y-33745D01*
X66869Y-33783D01*
X66854Y-33802D01*
X66824Y-33820D01*
X66749Y-33820D01*
X66719Y-33802D01*
X66704Y-33783D01*
X67079Y-33427D02*
X67109Y-33427D01*
X67139Y-33445D01*
X67154Y-33464D01*
X67169Y-33502D01*
X67184Y-33577D01*
X67184Y-33670D01*
X67169Y-33745D01*
X67154Y-33783D01*
X67139Y-33802D01*
X67109Y-33820D01*
X67079Y-33820D01*
X67049Y-33802D01*
X67034Y-33783D01*
X67019Y-33745D01*
X67004Y-33670D01*
X67004Y-33577D01*
X67019Y-33502D01*
X67034Y-33464D01*
X67049Y-33445D01*
X67079Y-33427D01*
X67454Y-33558D02*
X67454Y-33820D01*
X67379Y-33408D02*
X67304Y-33689D01*
X67499Y-33689D01*
X70142Y-20866D02*
X70112Y-20847D01*
X70082Y-20809D01*
X70037Y-20753D01*
X70007Y-20734D01*
X69977Y-20734D01*
X69992Y-20828D02*
X69962Y-20809D01*
X69932Y-20772D01*
X69917Y-20697D01*
X69917Y-20566D01*
X69932Y-20491D01*
X69962Y-20453D01*
X69992Y-20434D01*
X70052Y-20434D01*
X70082Y-20453D01*
X70112Y-20491D01*
X70127Y-20566D01*
X70127Y-20697D01*
X70112Y-20772D01*
X70082Y-20809D01*
X70052Y-20828D01*
X69992Y-20828D01*
X70412Y-20434D02*
X70262Y-20434D01*
X70247Y-20622D01*
X70262Y-20603D01*
X70292Y-20584D01*
X70367Y-20584D01*
X70397Y-20603D01*
X70412Y-20622D01*
X70427Y-20659D01*
X70427Y-20753D01*
X70412Y-20791D01*
X70397Y-20809D01*
X70367Y-20828D01*
X70292Y-20828D01*
X70262Y-20809D01*
X70247Y-20791D01*
X70622Y-20434D02*
X70652Y-20434D01*
X70682Y-20453D01*
X70697Y-20472D01*
X70712Y-20509D01*
X70727Y-20584D01*
X70727Y-20678D01*
X70712Y-20753D01*
X70697Y-20791D01*
X70682Y-20809D01*
X70652Y-20828D01*
X70622Y-20828D01*
X70592Y-20809D01*
X70577Y-20791D01*
X70562Y-20753D01*
X70547Y-20678D01*
X70547Y-20584D01*
X70562Y-20509D01*
X70577Y-20472D01*
X70592Y-20453D01*
X70622Y-20434D01*
X71012Y-20434D02*
X70862Y-20434D01*
X70847Y-20622D01*
X70862Y-20603D01*
X70892Y-20584D01*
X70967Y-20584D01*
X70997Y-20603D01*
X71012Y-20622D01*
X71027Y-20659D01*
X71027Y-20753D01*
X71012Y-20791D01*
X70997Y-20809D01*
X70967Y-20828D01*
X70892Y-20828D01*
X70862Y-20809D01*
X70847Y-20791D01*
X66599Y-20866D02*
X66569Y-20847D01*
X66539Y-20809D01*
X66494Y-20753D01*
X66464Y-20734D01*
X66434Y-20734D01*
X66449Y-20828D02*
X66419Y-20809D01*
X66389Y-20772D01*
X66374Y-20697D01*
X66374Y-20566D01*
X66389Y-20491D01*
X66419Y-20453D01*
X66449Y-20434D01*
X66509Y-20434D01*
X66539Y-20453D01*
X66569Y-20491D01*
X66584Y-20566D01*
X66584Y-20697D01*
X66569Y-20772D01*
X66539Y-20809D01*
X66509Y-20828D01*
X66449Y-20828D01*
X66869Y-20434D02*
X66719Y-20434D01*
X66704Y-20622D01*
X66719Y-20603D01*
X66749Y-20584D01*
X66824Y-20584D01*
X66854Y-20603D01*
X66869Y-20622D01*
X66884Y-20659D01*
X66884Y-20753D01*
X66869Y-20791D01*
X66854Y-20809D01*
X66824Y-20828D01*
X66749Y-20828D01*
X66719Y-20809D01*
X66704Y-20791D01*
X67079Y-20434D02*
X67109Y-20434D01*
X67139Y-20453D01*
X67154Y-20472D01*
X67169Y-20509D01*
X67184Y-20584D01*
X67184Y-20678D01*
X67169Y-20753D01*
X67154Y-20791D01*
X67139Y-20809D01*
X67109Y-20828D01*
X67079Y-20828D01*
X67049Y-20809D01*
X67034Y-20791D01*
X67019Y-20753D01*
X67004Y-20678D01*
X67004Y-20584D01*
X67019Y-20509D01*
X67034Y-20472D01*
X67049Y-20453D01*
X67079Y-20434D01*
X67289Y-20434D02*
X67484Y-20434D01*
X67379Y-20584D01*
X67424Y-20584D01*
X67454Y-20603D01*
X67469Y-20622D01*
X67484Y-20659D01*
X67484Y-20753D01*
X67469Y-20791D01*
X67454Y-20809D01*
X67424Y-20828D01*
X67334Y-20828D01*
X67304Y-20809D01*
X67289Y-20791D01*
X70142Y-33858D02*
X70112Y-33839D01*
X70082Y-33802D01*
X70037Y-33745D01*
X70007Y-33727D01*
X69977Y-33727D01*
X69992Y-33820D02*
X69962Y-33802D01*
X69932Y-33764D01*
X69917Y-33689D01*
X69917Y-33558D01*
X69932Y-33483D01*
X69962Y-33445D01*
X69992Y-33427D01*
X70052Y-33427D01*
X70082Y-33445D01*
X70112Y-33483D01*
X70127Y-33558D01*
X70127Y-33689D01*
X70112Y-33764D01*
X70082Y-33802D01*
X70052Y-33820D01*
X69992Y-33820D01*
X70412Y-33427D02*
X70262Y-33427D01*
X70247Y-33614D01*
X70262Y-33595D01*
X70292Y-33577D01*
X70367Y-33577D01*
X70397Y-33595D01*
X70412Y-33614D01*
X70427Y-33652D01*
X70427Y-33745D01*
X70412Y-33783D01*
X70397Y-33802D01*
X70367Y-33820D01*
X70292Y-33820D01*
X70262Y-33802D01*
X70247Y-33783D01*
X70622Y-33427D02*
X70652Y-33427D01*
X70682Y-33445D01*
X70697Y-33464D01*
X70712Y-33502D01*
X70727Y-33577D01*
X70727Y-33670D01*
X70712Y-33745D01*
X70697Y-33783D01*
X70682Y-33802D01*
X70652Y-33820D01*
X70622Y-33820D01*
X70592Y-33802D01*
X70577Y-33783D01*
X70562Y-33745D01*
X70547Y-33670D01*
X70547Y-33577D01*
X70562Y-33502D01*
X70577Y-33464D01*
X70592Y-33445D01*
X70622Y-33427D01*
X70997Y-33427D02*
X70937Y-33427D01*
X70907Y-33445D01*
X70892Y-33464D01*
X70862Y-33520D01*
X70847Y-33595D01*
X70847Y-33745D01*
X70862Y-33783D01*
X70877Y-33802D01*
X70907Y-33820D01*
X70967Y-33820D01*
X70997Y-33802D01*
X71012Y-33783D01*
X71027Y-33745D01*
X71027Y-33652D01*
X71012Y-33614D01*
X70997Y-33595D01*
X70967Y-33577D01*
X70907Y-33577D01*
X70877Y-33595D01*
X70862Y-33614D01*
X70847Y-33652D01*
X72895Y-26524D02*
X73214Y-26524D01*
X73251Y-26509D01*
X73270Y-26494D01*
X73289Y-26464D01*
X73289Y-26404D01*
X73270Y-26374D01*
X73251Y-26359D01*
X73214Y-26344D01*
X72895Y-26344D01*
X72895Y-26044D02*
X72895Y-26194D01*
X73083Y-26209D01*
X73064Y-26194D01*
X73045Y-26164D01*
X73045Y-26089D01*
X73064Y-26059D01*
X73083Y-26044D01*
X73120Y-26029D01*
X73214Y-26029D01*
X73251Y-26044D01*
X73270Y-26059D01*
X73289Y-26089D01*
X73289Y-26164D01*
X73270Y-26194D01*
X73251Y-26209D01*
X72895Y-25834D02*
X72895Y-25804D01*
X72914Y-25774D01*
X72933Y-25759D01*
X72970Y-25744D01*
X73045Y-25729D01*
X73139Y-25729D01*
X73214Y-25744D01*
X73251Y-25759D01*
X73270Y-25774D01*
X73289Y-25804D01*
X73289Y-25834D01*
X73270Y-25864D01*
X73251Y-25879D01*
X73214Y-25894D01*
X73139Y-25909D01*
X73045Y-25909D01*
X72970Y-25894D01*
X72933Y-25879D01*
X72914Y-25864D01*
X72895Y-25834D01*
X73289Y-25429D02*
X73289Y-25609D01*
X73289Y-25519D02*
X72895Y-25519D01*
X72951Y-25549D01*
X72989Y-25579D01*
X73008Y-25609D01*
X56692Y-24345D02*
X56674Y-24375D01*
X56636Y-24405D01*
X56580Y-24450D01*
X56561Y-24480D01*
X56561Y-24510D01*
X56655Y-24495D02*
X56636Y-24525D01*
X56599Y-24555D01*
X56524Y-24570D01*
X56392Y-24570D01*
X56317Y-24555D01*
X56280Y-24525D01*
X56261Y-24495D01*
X56261Y-24435D01*
X56280Y-24405D01*
X56317Y-24375D01*
X56392Y-24360D01*
X56524Y-24360D01*
X56599Y-24375D01*
X56636Y-24405D01*
X56655Y-24435D01*
X56655Y-24495D01*
X56261Y-24075D02*
X56261Y-24225D01*
X56449Y-24240D01*
X56430Y-24225D01*
X56411Y-24195D01*
X56411Y-24120D01*
X56430Y-24090D01*
X56449Y-24075D01*
X56486Y-24060D01*
X56580Y-24060D01*
X56617Y-24075D01*
X56636Y-24090D01*
X56655Y-24120D01*
X56655Y-24195D01*
X56636Y-24225D01*
X56617Y-24240D01*
X56261Y-23865D02*
X56261Y-23835D01*
X56280Y-23805D01*
X56299Y-23790D01*
X56336Y-23775D01*
X56411Y-23760D01*
X56505Y-23760D01*
X56580Y-23775D01*
X56617Y-23790D01*
X56636Y-23805D01*
X56655Y-23835D01*
X56655Y-23865D01*
X56636Y-23895D01*
X56617Y-23910D01*
X56580Y-23925D01*
X56505Y-23940D01*
X56411Y-23940D01*
X56336Y-23925D01*
X56299Y-23910D01*
X56280Y-23895D01*
X56261Y-23865D01*
X56655Y-23460D02*
X56655Y-23640D01*
X56655Y-23550D02*
X56261Y-23550D01*
X56317Y-23580D01*
X56355Y-23610D01*
X56374Y-23640D01*
X56692Y-30644D02*
X56674Y-30674D01*
X56636Y-30704D01*
X56580Y-30749D01*
X56561Y-30779D01*
X56561Y-30809D01*
X56655Y-30794D02*
X56636Y-30824D01*
X56599Y-30854D01*
X56524Y-30869D01*
X56392Y-30869D01*
X56317Y-30854D01*
X56280Y-30824D01*
X56261Y-30794D01*
X56261Y-30734D01*
X56280Y-30704D01*
X56317Y-30674D01*
X56392Y-30659D01*
X56524Y-30659D01*
X56599Y-30674D01*
X56636Y-30704D01*
X56655Y-30734D01*
X56655Y-30794D01*
X56261Y-30374D02*
X56261Y-30524D01*
X56449Y-30539D01*
X56430Y-30524D01*
X56411Y-30494D01*
X56411Y-30419D01*
X56430Y-30389D01*
X56449Y-30374D01*
X56486Y-30359D01*
X56580Y-30359D01*
X56617Y-30374D01*
X56636Y-30389D01*
X56655Y-30419D01*
X56655Y-30494D01*
X56636Y-30524D01*
X56617Y-30539D01*
X56261Y-30164D02*
X56261Y-30134D01*
X56280Y-30104D01*
X56299Y-30089D01*
X56336Y-30074D01*
X56411Y-30059D01*
X56505Y-30059D01*
X56580Y-30074D01*
X56617Y-30089D01*
X56636Y-30104D01*
X56655Y-30134D01*
X56655Y-30164D01*
X56636Y-30194D01*
X56617Y-30209D01*
X56580Y-30224D01*
X56505Y-30239D01*
X56411Y-30239D01*
X56336Y-30224D01*
X56299Y-30209D01*
X56280Y-30194D01*
X56261Y-30164D01*
X56299Y-29940D02*
X56280Y-29925D01*
X56261Y-29895D01*
X56261Y-29820D01*
X56280Y-29790D01*
X56299Y-29775D01*
X56336Y-29760D01*
X56374Y-29760D01*
X56430Y-29775D01*
X56655Y-29955D01*
X56655Y-29760D01*
G54D10*
G36*
X51131Y-33808D02*
X40994Y-33808D01*
X40994Y-31939D01*
X51131Y-31939D01*
X51131Y-33808D01*
X51131Y-33808D01*
G37*
G54D15*
X51131Y-33808D02*
X40994Y-33808D01*
X40994Y-31939D01*
X51131Y-31939D01*
X51131Y-33808D01*
M02*
