G04 (created by PCBNEW (2013-mar-25)-stable) date Friday, August 07, 2015 10:38:34 AM*
%MOIN*%
G04 Gerber Fmt 3.4, Leading zero omitted, Abs format*
%FSLAX34Y34*%
G01*
G70*
G90*
G04 APERTURE LIST*
%ADD10C,0.005*%
%ADD11C,0.00590551*%
%ADD12C,0.00787402*%
%ADD13C,0.011811*%
G04 APERTURE END LIST*
G54D10*
G54D11*
X33070Y-19685D02*
X87401Y-19685D01*
X87401Y-19685D02*
X87401Y-34645D01*
X87401Y-34645D02*
X33070Y-34645D01*
X33070Y-34645D02*
X33070Y-19685D01*
G54D12*
X83622Y-22848D02*
X84881Y-24108D01*
X84881Y-22848D02*
X83622Y-24108D01*
X83622Y-27348D02*
X84881Y-28608D01*
X84881Y-27348D02*
X83622Y-28608D01*
G54D13*
X34109Y-36452D02*
X34109Y-35271D01*
X34391Y-35271D01*
X34559Y-35327D01*
X34672Y-35440D01*
X34728Y-35552D01*
X34784Y-35777D01*
X34784Y-35946D01*
X34728Y-36171D01*
X34672Y-36283D01*
X34559Y-36396D01*
X34391Y-36452D01*
X34109Y-36452D01*
X35291Y-36452D02*
X35291Y-35665D01*
X35291Y-35890D02*
X35347Y-35777D01*
X35403Y-35721D01*
X35516Y-35665D01*
X35628Y-35665D01*
X36022Y-36452D02*
X36022Y-35665D01*
X36022Y-35271D02*
X35965Y-35327D01*
X36022Y-35383D01*
X36078Y-35327D01*
X36022Y-35271D01*
X36022Y-35383D01*
X36753Y-36452D02*
X36640Y-36396D01*
X36584Y-36283D01*
X36584Y-35271D01*
X37372Y-36452D02*
X37259Y-36396D01*
X37203Y-36283D01*
X37203Y-35271D01*
X38721Y-36452D02*
X38721Y-35271D01*
X39115Y-36115D01*
X39509Y-35271D01*
X39509Y-36452D01*
X40577Y-36452D02*
X40577Y-35833D01*
X40521Y-35721D01*
X40409Y-35665D01*
X40184Y-35665D01*
X40071Y-35721D01*
X40577Y-36396D02*
X40465Y-36452D01*
X40184Y-36452D01*
X40071Y-36396D01*
X40015Y-36283D01*
X40015Y-36171D01*
X40071Y-36058D01*
X40184Y-36002D01*
X40465Y-36002D01*
X40577Y-35946D01*
X41140Y-35665D02*
X41140Y-36846D01*
X41140Y-35721D02*
X41252Y-35665D01*
X41477Y-35665D01*
X41590Y-35721D01*
X41646Y-35777D01*
X41702Y-35890D01*
X41702Y-36227D01*
X41646Y-36339D01*
X41590Y-36396D01*
X41477Y-36452D01*
X41252Y-36452D01*
X41140Y-36396D01*
X42208Y-36339D02*
X42265Y-36396D01*
X42208Y-36452D01*
X42152Y-36396D01*
X42208Y-36339D01*
X42208Y-36452D01*
X42208Y-35721D02*
X42265Y-35777D01*
X42208Y-35833D01*
X42152Y-35777D01*
X42208Y-35721D01*
X42208Y-35833D01*
X31781Y-37824D02*
X33041Y-39084D01*
X33041Y-37824D02*
X31781Y-39084D01*
X33997Y-37751D02*
X34728Y-37751D01*
X34334Y-38201D01*
X34503Y-38201D01*
X34616Y-38257D01*
X34672Y-38314D01*
X34728Y-38426D01*
X34728Y-38707D01*
X34672Y-38820D01*
X34616Y-38876D01*
X34503Y-38932D01*
X34166Y-38932D01*
X34053Y-38876D01*
X33997Y-38820D01*
X35234Y-38820D02*
X35291Y-38876D01*
X35234Y-38932D01*
X35178Y-38876D01*
X35234Y-38820D01*
X35234Y-38932D01*
X35741Y-37864D02*
X35797Y-37807D01*
X35909Y-37751D01*
X36190Y-37751D01*
X36303Y-37807D01*
X36359Y-37864D01*
X36415Y-37976D01*
X36415Y-38089D01*
X36359Y-38257D01*
X35684Y-38932D01*
X36415Y-38932D01*
X37147Y-37751D02*
X37259Y-37751D01*
X37372Y-37807D01*
X37428Y-37864D01*
X37484Y-37976D01*
X37540Y-38201D01*
X37540Y-38482D01*
X37484Y-38707D01*
X37428Y-38820D01*
X37372Y-38876D01*
X37259Y-38932D01*
X37147Y-38932D01*
X37034Y-38876D01*
X36978Y-38820D01*
X36922Y-38707D01*
X36865Y-38482D01*
X36865Y-38201D01*
X36922Y-37976D01*
X36978Y-37864D01*
X37034Y-37807D01*
X37147Y-37751D01*
X38046Y-38932D02*
X38046Y-38145D01*
X38046Y-38257D02*
X38103Y-38201D01*
X38215Y-38145D01*
X38384Y-38145D01*
X38496Y-38201D01*
X38553Y-38314D01*
X38553Y-38932D01*
X38553Y-38314D02*
X38609Y-38201D01*
X38721Y-38145D01*
X38890Y-38145D01*
X39003Y-38201D01*
X39059Y-38314D01*
X39059Y-38932D01*
X39621Y-38932D02*
X39621Y-38145D01*
X39621Y-38257D02*
X39678Y-38201D01*
X39790Y-38145D01*
X39959Y-38145D01*
X40071Y-38201D01*
X40127Y-38314D01*
X40127Y-38932D01*
X40127Y-38314D02*
X40184Y-38201D01*
X40296Y-38145D01*
X40465Y-38145D01*
X40577Y-38201D01*
X40634Y-38314D01*
X40634Y-38932D01*
X42940Y-37695D02*
X41927Y-39214D01*
X44458Y-37751D02*
X44571Y-37751D01*
X44683Y-37807D01*
X44739Y-37864D01*
X44796Y-37976D01*
X44852Y-38201D01*
X44852Y-38482D01*
X44796Y-38707D01*
X44739Y-38820D01*
X44683Y-38876D01*
X44571Y-38932D01*
X44458Y-38932D01*
X44346Y-38876D01*
X44289Y-38820D01*
X44233Y-38707D01*
X44177Y-38482D01*
X44177Y-38201D01*
X44233Y-37976D01*
X44289Y-37864D01*
X44346Y-37807D01*
X44458Y-37751D01*
X45358Y-38820D02*
X45414Y-38876D01*
X45358Y-38932D01*
X45302Y-38876D01*
X45358Y-38820D01*
X45358Y-38932D01*
X46539Y-38932D02*
X45864Y-38932D01*
X46202Y-38932D02*
X46202Y-37751D01*
X46089Y-37920D01*
X45977Y-38032D01*
X45864Y-38089D01*
X46989Y-37864D02*
X47045Y-37807D01*
X47158Y-37751D01*
X47439Y-37751D01*
X47552Y-37807D01*
X47608Y-37864D01*
X47664Y-37976D01*
X47664Y-38089D01*
X47608Y-38257D01*
X46933Y-38932D01*
X47664Y-38932D01*
X48676Y-37751D02*
X48451Y-37751D01*
X48339Y-37807D01*
X48283Y-37864D01*
X48170Y-38032D01*
X48114Y-38257D01*
X48114Y-38707D01*
X48170Y-38820D01*
X48226Y-38876D01*
X48339Y-38932D01*
X48564Y-38932D01*
X48676Y-38876D01*
X48733Y-38820D01*
X48789Y-38707D01*
X48789Y-38426D01*
X48733Y-38314D01*
X48676Y-38257D01*
X48564Y-38201D01*
X48339Y-38201D01*
X48226Y-38257D01*
X48170Y-38314D01*
X48114Y-38426D01*
X49239Y-37751D02*
X49239Y-37976D01*
X49689Y-37751D02*
X49689Y-37976D01*
X51432Y-39382D02*
X51376Y-39326D01*
X51264Y-39157D01*
X51207Y-39045D01*
X51151Y-38876D01*
X51095Y-38595D01*
X51095Y-38370D01*
X51151Y-38089D01*
X51207Y-37920D01*
X51264Y-37807D01*
X51376Y-37639D01*
X51432Y-37582D01*
X51826Y-37864D02*
X51882Y-37807D01*
X51995Y-37751D01*
X52276Y-37751D01*
X52388Y-37807D01*
X52445Y-37864D01*
X52501Y-37976D01*
X52501Y-38089D01*
X52445Y-38257D01*
X51770Y-38932D01*
X52501Y-38932D01*
X53907Y-38932D02*
X53907Y-37751D01*
X54413Y-38932D02*
X54413Y-38314D01*
X54357Y-38201D01*
X54244Y-38145D01*
X54076Y-38145D01*
X53963Y-38201D01*
X53907Y-38257D01*
X55144Y-38932D02*
X55032Y-38876D01*
X54976Y-38820D01*
X54919Y-38707D01*
X54919Y-38370D01*
X54976Y-38257D01*
X55032Y-38201D01*
X55144Y-38145D01*
X55313Y-38145D01*
X55426Y-38201D01*
X55482Y-38257D01*
X55538Y-38370D01*
X55538Y-38707D01*
X55482Y-38820D01*
X55426Y-38876D01*
X55313Y-38932D01*
X55144Y-38932D01*
X56213Y-38932D02*
X56100Y-38876D01*
X56044Y-38764D01*
X56044Y-37751D01*
X57113Y-38876D02*
X57000Y-38932D01*
X56775Y-38932D01*
X56663Y-38876D01*
X56607Y-38764D01*
X56607Y-38314D01*
X56663Y-38201D01*
X56775Y-38145D01*
X57000Y-38145D01*
X57113Y-38201D01*
X57169Y-38314D01*
X57169Y-38426D01*
X56607Y-38539D01*
X57619Y-38876D02*
X57732Y-38932D01*
X57956Y-38932D01*
X58069Y-38876D01*
X58125Y-38764D01*
X58125Y-38707D01*
X58069Y-38595D01*
X57956Y-38539D01*
X57788Y-38539D01*
X57675Y-38482D01*
X57619Y-38370D01*
X57619Y-38314D01*
X57675Y-38201D01*
X57788Y-38145D01*
X57956Y-38145D01*
X58069Y-38201D01*
X58519Y-39382D02*
X58575Y-39326D01*
X58688Y-39157D01*
X58744Y-39045D01*
X58800Y-38876D01*
X58856Y-38595D01*
X58856Y-38370D01*
X58800Y-38089D01*
X58744Y-37920D01*
X58688Y-37807D01*
X58575Y-37639D01*
X58519Y-37582D01*
M02*
