M48
INCH,TZ
T10C0.016
T11C0.030
T12C0.043
T13C0.126
%
T10
X057677Y-32283
X057776Y-28248
X057874Y-20374
X057874Y-26083
X058465Y-21654
X058661Y-26083
X058858Y-30315
X058858Y-32283
X059055Y-20866
X059055Y-22736
X060039Y-32283
X060236Y-20866
X060630Y-29035
X061024Y-33465
X061417Y-20866
X062205Y-33465
X062598Y-20866
X062992Y-25295
X062992Y-28937
X063287Y-26673
X063287Y-27165
X063386Y-33465
X063780Y-20866
X063976Y-32677
X065256Y-21654
X065256Y-22933
X065256Y-26181
X065256Y-28150
X065256Y-31398
X066043Y-32677
X066437Y-33169
X066929Y-33169
X067421Y-33169
X067913Y-32677
X069488Y-21654
X069980Y-21161
X070472Y-21161
X070965Y-21161
X071358Y-21654
X072835Y-24508
X073425Y-31890
X073819Y-27657
X074213Y-26870
X074213Y-28346
X074409Y-21949
X074803Y-23622
X074803Y-26870
X074803Y-28346
X075394Y-26870
X075394Y-28346
X075591Y-21949
X075787Y-27657
X076772Y-20374
X077264Y-31299
X077362Y-32087
X077953Y-20374
X079134Y-20374
X083760Y-29626
X083760Y-32972
T11
X080752Y-23978
X080752Y-24978
X080752Y-25978
X080752Y-26978
X081752Y-24478
X081752Y-25478
X081752Y-26478
X081752Y-27478
T12
X077953Y-27059
X077953Y-28059
X081496Y-30602
X081496Y-31602
T13
X084252Y-23478
X084252Y-27978
M30

