G04 (created by PCBNEW (2013-mar-25)-stable) date Friday, August 07, 2015 11:50:23 AM*
%MOIN*%
G04 Gerber Fmt 3.4, Leading zero omitted, Abs format*
%FSLAX34Y34*%
G01*
G70*
G90*
G04 APERTURE LIST*
%ADD10C,0.006*%
%ADD11C,0.129921*%
%ADD12R,0.063937X0.063937*%
%ADD13C,0.063937*%
%ADD14R,0.0688976X0.0688976*%
%ADD15C,0.0688976*%
%ADD16R,0.038937X0.058937*%
%ADD17R,0.0629921X0.0826772*%
%ADD18R,0.203937X0.0990157*%
%ADD19R,0.053937X0.023937*%
%ADD20R,0.059037X0.043237*%
%ADD21C,0.11811*%
G04 APERTURE END LIST*
G54D10*
G54D11*
X84251Y-23478D03*
X84251Y-27978D03*
G54D12*
X81751Y-27478D03*
G54D13*
X80751Y-26978D03*
X81751Y-26478D03*
X80751Y-25978D03*
X81751Y-25478D03*
X80751Y-24978D03*
X81751Y-24478D03*
X80751Y-23978D03*
G54D14*
X81496Y-30602D03*
G54D15*
X81496Y-31602D03*
G54D14*
X77952Y-27059D03*
G54D15*
X77952Y-28059D03*
G54D16*
X62978Y-28346D03*
X62218Y-28346D03*
X62978Y-25984D03*
X62218Y-25984D03*
G54D17*
X62342Y-24803D03*
X63641Y-24803D03*
X63641Y-29527D03*
X62342Y-29527D03*
G54D18*
X86137Y-29624D03*
X86137Y-32974D03*
G54D19*
X62654Y-26795D03*
X62653Y-27165D03*
X62653Y-27535D03*
X61755Y-27535D03*
X61755Y-27165D03*
X61755Y-26795D03*
X58717Y-26795D03*
X58716Y-27165D03*
X58716Y-27535D03*
X57818Y-27535D03*
X57818Y-27165D03*
X57818Y-26795D03*
G54D20*
X59881Y-28366D03*
X59881Y-29114D03*
X59015Y-28740D03*
G54D21*
X54724Y-33464D03*
X86220Y-20866D03*
M02*
