M48
INCH,TZ
T1C0.016
T2C0.030
T3C0.043
%
G90
G05
T1
X057677Y-032283
X057776Y-028248
X057874Y-020374
X057874Y-026083
X058465Y-021654
X058661Y-026083
X058858Y-030315
X058858Y-032283
X059055Y-020866
X059055Y-022736
X060039Y-032283
X060236Y-020866
X060630Y-029035
X061024Y-033465
X061417Y-020866
X062205Y-033465
X062598Y-020866
X062992Y-025295
X062992Y-028937
X063287Y-026673
X063287Y-027165
X063386Y-033465
X063780Y-020866
X063976Y-032677
X065256Y-021654
X065256Y-022933
X065256Y-026181
X065256Y-028150
X065256Y-031398
X066043Y-032677
X066437Y-033169
X066929Y-033169
X067421Y-033169
X067913Y-032677
X069488Y-021654
X069980Y-021161
X070472Y-021161
X070965Y-021161
X071358Y-021654
X072835Y-024508
X073425Y-031890
X073819Y-027657
X074213Y-026870
X074213Y-028346
X074409Y-021949
X074803Y-023622
X074803Y-026870
X074803Y-028346
X075394Y-026870
X075394Y-028346
X075591Y-021949
X075787Y-027657
X076772Y-020374
X077264Y-031299
X077362Y-032087
X077953Y-020374
X079134Y-020374
X083760Y-029626
X083760Y-032972
T2
X080752Y-023978
X080752Y-024978
X080752Y-025978
X080752Y-026978
X081752Y-024478
X081752Y-025478
X081752Y-026478
X081752Y-027478
T3
X077953Y-027059
X077953Y-028059
X081496Y-030602
X081496Y-031602
T0
M30
