G04 (created by PCBNEW (2013-mar-25)-stable) date Wednesday, January 13, 2016 08:40:10 PM*
%MOIN*%
G04 Gerber Fmt 3.4, Leading zero omitted, Abs format*
%FSLAX34Y34*%
G01*
G70*
G90*
G04 APERTURE LIST*
%ADD10C,0.006*%
%ADD11C,0.011811*%
%ADD12C,0.00393701*%
%ADD13C,0.00590551*%
G04 APERTURE END LIST*
G54D10*
G54D11*
X38165Y-52563D02*
X38165Y-51579D01*
X38399Y-51579D01*
X38540Y-51626D01*
X38634Y-51720D01*
X38681Y-51813D01*
X38727Y-52001D01*
X38727Y-52141D01*
X38681Y-52329D01*
X38634Y-52423D01*
X38540Y-52516D01*
X38399Y-52563D01*
X38165Y-52563D01*
X39337Y-51579D02*
X39524Y-51579D01*
X39618Y-51626D01*
X39712Y-51720D01*
X39759Y-51907D01*
X39759Y-52235D01*
X39712Y-52423D01*
X39618Y-52516D01*
X39524Y-52563D01*
X39337Y-52563D01*
X39243Y-52516D01*
X39149Y-52423D01*
X39102Y-52235D01*
X39102Y-51907D01*
X39149Y-51720D01*
X39243Y-51626D01*
X39337Y-51579D01*
X40930Y-52563D02*
X40930Y-51579D01*
X41493Y-52563D01*
X41493Y-51579D01*
X42149Y-51579D02*
X42336Y-51579D01*
X42430Y-51626D01*
X42524Y-51720D01*
X42571Y-51907D01*
X42571Y-52235D01*
X42524Y-52423D01*
X42430Y-52516D01*
X42336Y-52563D01*
X42149Y-52563D01*
X42055Y-52516D01*
X41961Y-52423D01*
X41915Y-52235D01*
X41915Y-51907D01*
X41961Y-51720D01*
X42055Y-51626D01*
X42149Y-51579D01*
X42852Y-51579D02*
X43414Y-51579D01*
X43133Y-52563D02*
X43133Y-51579D01*
X44961Y-52563D02*
X44492Y-52563D01*
X44492Y-51579D01*
X45477Y-51579D02*
X45664Y-51579D01*
X45758Y-51626D01*
X45852Y-51720D01*
X45898Y-51907D01*
X45898Y-52235D01*
X45852Y-52423D01*
X45758Y-52516D01*
X45664Y-52563D01*
X45477Y-52563D01*
X45383Y-52516D01*
X45289Y-52423D01*
X45242Y-52235D01*
X45242Y-51907D01*
X45289Y-51720D01*
X45383Y-51626D01*
X45477Y-51579D01*
X46273Y-52282D02*
X46742Y-52282D01*
X46180Y-52563D02*
X46508Y-51579D01*
X46836Y-52563D01*
X47164Y-52563D02*
X47164Y-51579D01*
X47398Y-51579D01*
X47539Y-51626D01*
X47633Y-51720D01*
X47679Y-51813D01*
X47726Y-52001D01*
X47726Y-52141D01*
X47679Y-52329D01*
X47633Y-52423D01*
X47539Y-52516D01*
X47398Y-52563D01*
X47164Y-52563D01*
X49461Y-52563D02*
X49132Y-52095D01*
X48898Y-52563D02*
X48898Y-51579D01*
X49273Y-51579D01*
X49367Y-51626D01*
X49414Y-51673D01*
X49461Y-51766D01*
X49461Y-51907D01*
X49414Y-52001D01*
X49367Y-52048D01*
X49273Y-52095D01*
X48898Y-52095D01*
X49882Y-52048D02*
X50210Y-52048D01*
X50351Y-52563D02*
X49882Y-52563D01*
X49882Y-51579D01*
X50351Y-51579D01*
X50773Y-52563D02*
X50773Y-51579D01*
X51007Y-51579D01*
X51148Y-51626D01*
X51242Y-51720D01*
X51288Y-51813D01*
X51335Y-52001D01*
X51335Y-52141D01*
X51288Y-52329D01*
X51242Y-52423D01*
X51148Y-52516D01*
X51007Y-52563D01*
X50773Y-52563D01*
X53069Y-52470D02*
X53023Y-52516D01*
X52882Y-52563D01*
X52788Y-52563D01*
X52648Y-52516D01*
X52554Y-52423D01*
X52507Y-52329D01*
X52460Y-52141D01*
X52460Y-52001D01*
X52507Y-51813D01*
X52554Y-51720D01*
X52648Y-51626D01*
X52788Y-51579D01*
X52882Y-51579D01*
X53023Y-51626D01*
X53069Y-51673D01*
X53679Y-51579D02*
X53866Y-51579D01*
X53960Y-51626D01*
X54054Y-51720D01*
X54101Y-51907D01*
X54101Y-52235D01*
X54054Y-52423D01*
X53960Y-52516D01*
X53866Y-52563D01*
X53679Y-52563D01*
X53585Y-52516D01*
X53491Y-52423D01*
X53444Y-52235D01*
X53444Y-51907D01*
X53491Y-51720D01*
X53585Y-51626D01*
X53679Y-51579D01*
X54522Y-52563D02*
X54522Y-51579D01*
X54850Y-52282D01*
X55179Y-51579D01*
X55179Y-52563D01*
X55647Y-52563D02*
X55647Y-51579D01*
X56022Y-51579D01*
X56116Y-51626D01*
X56163Y-51673D01*
X56210Y-51766D01*
X56210Y-51907D01*
X56163Y-52001D01*
X56116Y-52048D01*
X56022Y-52095D01*
X55647Y-52095D01*
X56819Y-51579D02*
X57006Y-51579D01*
X57100Y-51626D01*
X57194Y-51720D01*
X57241Y-51907D01*
X57241Y-52235D01*
X57194Y-52423D01*
X57100Y-52516D01*
X57006Y-52563D01*
X56819Y-52563D01*
X56725Y-52516D01*
X56631Y-52423D01*
X56585Y-52235D01*
X56585Y-51907D01*
X56631Y-51720D01*
X56725Y-51626D01*
X56819Y-51579D01*
X57663Y-52563D02*
X57663Y-51579D01*
X58225Y-52563D01*
X58225Y-51579D01*
X58694Y-52048D02*
X59022Y-52048D01*
X59162Y-52563D02*
X58694Y-52563D01*
X58694Y-51579D01*
X59162Y-51579D01*
X59584Y-52563D02*
X59584Y-51579D01*
X60147Y-52563D01*
X60147Y-51579D01*
X60475Y-51579D02*
X61037Y-51579D01*
X60756Y-52563D02*
X60756Y-51579D01*
X61318Y-52516D02*
X61459Y-52563D01*
X61693Y-52563D01*
X61787Y-52516D01*
X61834Y-52470D01*
X61881Y-52376D01*
X61881Y-52282D01*
X61834Y-52188D01*
X61787Y-52141D01*
X61693Y-52095D01*
X61506Y-52048D01*
X61412Y-52001D01*
X61365Y-51954D01*
X61318Y-51860D01*
X61318Y-51766D01*
X61365Y-51673D01*
X61412Y-51626D01*
X61506Y-51579D01*
X61740Y-51579D01*
X61881Y-51626D01*
G54D12*
X66181Y-32322D02*
X66181Y-31062D01*
X66181Y-31062D02*
X67007Y-31062D01*
X67007Y-31062D02*
X67007Y-32322D01*
X67007Y-32322D02*
X66181Y-32322D01*
X49901Y-31889D02*
X51318Y-31889D01*
X51318Y-31889D02*
X51318Y-32283D01*
X51318Y-32283D02*
X49901Y-32283D01*
X49901Y-32283D02*
X49901Y-31889D01*
X40669Y-43700D02*
X42362Y-43700D01*
X42362Y-43700D02*
X42362Y-44094D01*
X42362Y-44094D02*
X40669Y-44094D01*
X40669Y-44094D02*
X40669Y-43700D01*
X42519Y-46259D02*
X41338Y-46259D01*
X41338Y-46259D02*
X41338Y-45078D01*
X41338Y-45078D02*
X42519Y-45078D01*
X42519Y-45078D02*
X42519Y-46259D01*
X29322Y-31492D02*
X29921Y-31492D01*
X29921Y-31492D02*
X29921Y-35830D01*
X29921Y-35830D02*
X29322Y-35830D01*
X29322Y-35830D02*
X29322Y-31492D01*
X29921Y-33511D02*
X31720Y-33511D01*
X31720Y-33511D02*
X31720Y-33811D01*
X31720Y-33811D02*
X29921Y-33811D01*
X29921Y-31492D02*
X31720Y-31492D01*
X31720Y-31492D02*
X31720Y-31950D01*
X31720Y-31950D02*
X29921Y-31950D01*
X29921Y-35830D02*
X31720Y-35830D01*
X31720Y-35830D02*
X31720Y-35372D01*
X31720Y-35372D02*
X29921Y-35372D01*
X29322Y-35561D02*
X25039Y-35561D01*
X25039Y-35561D02*
X25039Y-31761D01*
X25039Y-31761D02*
X29322Y-31761D01*
X53740Y-41535D02*
X52559Y-41535D01*
X52559Y-41535D02*
X52559Y-40354D01*
X52559Y-40354D02*
X53740Y-40354D01*
X53740Y-40354D02*
X53740Y-41535D01*
G54D13*
X39903Y-46775D02*
X39888Y-46794D01*
X39843Y-46812D01*
X39813Y-46812D01*
X39768Y-46794D01*
X39738Y-46756D01*
X39723Y-46719D01*
X39708Y-46644D01*
X39708Y-46587D01*
X39723Y-46512D01*
X39738Y-46475D01*
X39768Y-46437D01*
X39813Y-46419D01*
X39843Y-46419D01*
X39888Y-46437D01*
X39903Y-46456D01*
X40203Y-46812D02*
X40023Y-46812D01*
X40113Y-46812D02*
X40113Y-46419D01*
X40083Y-46475D01*
X40053Y-46512D01*
X40023Y-46531D01*
X40398Y-46419D02*
X40428Y-46419D01*
X40458Y-46437D01*
X40473Y-46456D01*
X40488Y-46494D01*
X40503Y-46569D01*
X40503Y-46662D01*
X40488Y-46737D01*
X40473Y-46775D01*
X40458Y-46794D01*
X40428Y-46812D01*
X40398Y-46812D01*
X40368Y-46794D01*
X40353Y-46775D01*
X40338Y-46737D01*
X40323Y-46662D01*
X40323Y-46569D01*
X40338Y-46494D01*
X40353Y-46456D01*
X40368Y-46437D01*
X40398Y-46419D01*
X40608Y-46419D02*
X40818Y-46419D01*
X40683Y-46812D01*
M02*
