M48
INCH,TZ
T1C0.012
T2C0.016
T3C0.030
T4C0.043
%
G90
G05
T1
X030610Y-032530
X030610Y-032825
X030610Y-034498
X030610Y-034793
X030610Y-042175
X030610Y-042470
X030610Y-044144
X030610Y-044439
X030906Y-032530
X030906Y-032825
X030906Y-034498
X030906Y-034793
X030906Y-042175
X030906Y-042470
X030906Y-044144
X030906Y-044439
X031201Y-032530
X031201Y-032825
X031201Y-034498
X031201Y-034793
X031201Y-042175
X031201Y-042470
X031201Y-044144
X031201Y-044439
X038189Y-043898
X038878Y-042323
X039075Y-044488
X039173Y-043209
X039173Y-043602
X039272Y-042323
X039469Y-044488
X039567Y-043209
X039567Y-043602
X040551Y-042913
X041142Y-041634
X041142Y-042028
X041142Y-042421
X044488Y-032726
X044488Y-033022
X044783Y-043898
X049409Y-032382
X050197Y-031693
X050394Y-033071
X050394Y-033465
X050394Y-033858
X050787Y-033071
X050787Y-033465
X050787Y-033858
X050787Y-044094
X051181Y-033071
X051181Y-033465
X051181Y-033858
X051673Y-031299
X053937Y-043307
X054035Y-029331
X054528Y-042717
X055118Y-042126
X056004Y-032087
X057382Y-034252
X057382Y-037402
X057382Y-039173
X057874Y-034252
X057874Y-036614
X057874Y-038583
X057874Y-040551
X058268Y-036220
X058268Y-037795
X058661Y-034646
X058661Y-035827
X058661Y-037008
X058661Y-039764
X059055Y-035433
X059055Y-035827
X059055Y-037795
X059055Y-038583
X059055Y-040157
X059252Y-032087
X059449Y-036614
X059449Y-037008
X059449Y-037795
X059449Y-038189
X059843Y-035039
X059843Y-036220
X059843Y-036614
X059843Y-037008
X059843Y-038189
X059843Y-039370
X059843Y-040551
X059843Y-041043
X060236Y-034252
X060236Y-034646
X060236Y-037008
X060236Y-037795
X060236Y-038189
X060236Y-038583
X060335Y-033760
X060630Y-034646
X060630Y-035827
X060630Y-036614
X060630Y-037008
X060630Y-037795
X060630Y-038189
X060630Y-038583
X060630Y-039764
X060630Y-040551
X060925Y-033760
X061417Y-035039
X061417Y-035433
X061417Y-035827
X061417Y-036220
X061417Y-036614
X061417Y-037008
X061417Y-038189
X061417Y-038976
X061417Y-039764
X061811Y-036614
X061811Y-037008
X061811Y-037795
X061811Y-038189
X061811Y-038583
X061811Y-040551
X062205Y-034252
X062205Y-035039
X062205Y-035433
X062205Y-036220
X062205Y-036614
X062205Y-037795
X062205Y-038583
X062598Y-035433
X062598Y-036220
X062598Y-036614
X062598Y-037008
X062598Y-037795
X062598Y-039764
X062992Y-034646
X062992Y-036614
X062992Y-038976
X063386Y-035827
X063386Y-038189
X063386Y-038976
X063386Y-040157
X063780Y-035433
X063780Y-037008
X063780Y-039370
X064075Y-041043
X064173Y-033760
X064173Y-034646
X064173Y-036220
X064173Y-038189
X064173Y-038583
X064173Y-040551
X064961Y-035335
X064961Y-035925
X066831Y-038681
X070079Y-031496
X072205Y-031890
X072441Y-031890
X072539Y-030020
X072677Y-031890
T2
X031496Y-047244
X032677Y-042913
X032677Y-043701
X033465Y-042913
X033465Y-043701
X033465Y-047244
X034252Y-042913
X034252Y-043701
X034449Y-029528
X034449Y-049213
X035039Y-042913
X035039Y-043701
X035531Y-032874
X036122Y-042913
X036122Y-043701
X036417Y-029528
X036417Y-029528
X036417Y-049213
X036909Y-042913
X036909Y-043701
X037795Y-030413
X037795Y-037697
X038386Y-029528
X038386Y-049213
X040157Y-030413
X040157Y-037697
X040354Y-029528
X040354Y-049213
X040551Y-043898
X042323Y-029528
X042323Y-049213
X042520Y-030413
X042520Y-037697
X044094Y-034154
X044291Y-029528
X044291Y-049213
X044587Y-031398
X044882Y-030413
X044882Y-034154
X044882Y-037697
X045276Y-034154
X046260Y-029528
X046260Y-046654
X046260Y-049213
X047047Y-035236
X047835Y-031299
X047835Y-035925
X047835Y-036319
X048031Y-044882
X048228Y-029528
X048228Y-049213
X048622Y-035925
X048622Y-036319
X048819Y-031299
X048819Y-034154
X049606Y-034449
X049606Y-044094
X049606Y-044488
X049606Y-044882
X050197Y-029528
X050197Y-049213
X050787Y-045276
X051181Y-045571
X051378Y-036417
X051378Y-037402
X051575Y-030315
X051575Y-045276
X052067Y-037008
X052067Y-038583
X052165Y-049213
X052461Y-037697
X052461Y-039272
X052756Y-033071
X053150Y-029528
X053150Y-029921
X053150Y-030315
X053248Y-033465
X053740Y-037795
X053740Y-039370
X054134Y-049213
X054331Y-030709
X054724Y-031004
X055118Y-030709
X056004Y-045866
X056299Y-045571
X056299Y-046260
X056693Y-047244
X057087Y-047244
X060138Y-046654
X060236Y-045866
X060433Y-046260
X065059Y-044094
X065059Y-044488
X065059Y-044882
X065059Y-045276
X065059Y-046457
X065059Y-046850
X065059Y-047244
X065059Y-047638
X065256Y-037402
X065256Y-037894
X065256Y-038681
X065256Y-039173
X065453Y-044094
X065453Y-044488
X065453Y-044882
X065453Y-045276
X065453Y-046457
X065453Y-046850
X065453Y-047244
X065453Y-047638
X066929Y-039272
X066929Y-039764
X066929Y-040256
X066929Y-040748
X067028Y-037402
X067028Y-037894
X067126Y-034941
X067717Y-035433
X068307Y-034941
X068406Y-032283
X069094Y-031791
X069783Y-032283
X071654Y-031496
X071654Y-031890
X071654Y-032283
X071850Y-029528
X073130Y-032972
X073130Y-033366
X073130Y-033760
X073228Y-031496
X073228Y-031890
X073524Y-032972
X073524Y-033366
X073524Y-033760
X074409Y-035827
X074409Y-036220
X074803Y-035827
X074803Y-036220
X075197Y-035827
X075197Y-036220
T4
X032677Y-037886
X032677Y-038886
X056305Y-029370
X056305Y-030370
X056305Y-048370
X056305Y-049370
X057305Y-029370
X057305Y-030370
X057305Y-048370
X057305Y-049370
X058305Y-029370
X058305Y-030370
X058305Y-048370
X058305Y-049370
X059305Y-029370
X059305Y-030370
X059305Y-048370
X059305Y-049370
X060305Y-029370
X060305Y-030370
X060305Y-048370
X060305Y-049370
X061305Y-029370
X061305Y-030370
X061305Y-048370
X061305Y-049370
X062305Y-029370
X062305Y-030370
X062305Y-048370
X062305Y-049370
X063305Y-029370
X063305Y-030370
X063305Y-048370
X063305Y-049370
X064305Y-029370
X064305Y-030370
X064305Y-048370
X064305Y-049370
X065305Y-029370
X065305Y-030370
X065305Y-048370
X065305Y-049370
X066305Y-029370
X066305Y-030370
X066305Y-048370
X066305Y-049370
X067305Y-029370
X067305Y-030370
X067305Y-048370
X067305Y-049370
X068305Y-029370
X068305Y-030370
X068305Y-048370
X068305Y-049370
T3
X071604Y-045276G85X072096Y-045276
G05
X071604Y-046457G85X072096Y-046457
G05
X071604Y-048504G85X072096Y-048504
G05
T0
M30
