G04 (created by PCBNEW (2013-mar-25)-stable) date Tuesday, March 01, 2016 03:52:00 PM*
%MOIN*%
G04 Gerber Fmt 3.4, Leading zero omitted, Abs format*
%FSLAX34Y34*%
G01*
G70*
G90*
G04 APERTURE LIST*
%ADD10C,0.006*%
%ADD11R,0.00976378X0.0176378*%
%ADD12R,0.0727559X0.0530709*%
%ADD13R,0.0530709X0.135748*%
%ADD14R,0.0333858X0.0353543*%
%ADD15R,0.0353543X0.0806299*%
%ADD16R,0.0247244X0.0282677*%
%ADD17R,0.0349606X0.0247244*%
%ADD18R,0.0215748X0.00582677*%
%ADD19R,0.0215748X0.00385827*%
%ADD20R,0.00385827X0.0215748*%
%ADD21R,0.129843X0.0127165*%
%ADD22R,0.129843X0.0137008*%
%ADD23R,0.0176378X0.0353543*%
%ADD24R,0.0353543X0.0176378*%
%ADD25C,0.00976378*%
%ADD26R,0.00385827X0.0176378*%
%ADD27R,0.0727559X0.0156693*%
%ADD28R,0.0137008X0.00385827*%
%ADD29R,0.00385827X0.0137008*%
%ADD30R,0.0845669X0.0137008*%
%ADD31R,0.0845669X0.00976378*%
%ADD32R,0.0127165X0.0511024*%
%ADD33R,0.0290157X0.0490157*%
%ADD34R,0.00976378X0.0137008*%
%ADD35R,0.0490157X0.0290157*%
%ADD36R,0.0255118X0.0255118*%
%ADD37R,0.0806299X0.0609449*%
%ADD38R,0.0176378X0.00976378*%
%ADD39R,0.190079X0.0333858*%
%ADD40R,0.0333858X0.21252*%
%ADD41R,0.143622X0.0333858*%
%ADD42R,0.0333858X0.143622*%
%ADD43R,0.0640945X0.0105512*%
%ADD44R,0.0727559X0.0412598*%
G04 APERTURE END LIST*
G54D10*
G54D11*
X50118Y-32086D03*
X50472Y-32086D03*
X41161Y-43897D03*
X41515Y-43897D03*
G54D12*
X36811Y-35236D03*
X36811Y-33937D03*
G54D11*
X40472Y-41633D03*
X40826Y-41633D03*
G54D13*
X72332Y-35334D03*
X73533Y-35334D03*
G54D14*
X41929Y-45068D03*
G54D15*
X42509Y-45669D03*
X41348Y-45669D03*
G54D16*
X43509Y-42970D03*
X42316Y-42970D03*
X42316Y-43505D03*
X43509Y-43505D03*
G54D17*
X39064Y-45332D03*
X39675Y-45332D03*
X39675Y-44824D03*
X39064Y-44824D03*
G54D18*
X52854Y-34153D03*
X53444Y-34153D03*
X52854Y-34350D03*
X53444Y-34350D03*
X52854Y-34547D03*
X53444Y-34547D03*
X52854Y-34744D03*
X53444Y-34744D03*
X52854Y-34940D03*
X53444Y-34940D03*
X52854Y-35137D03*
X53444Y-35137D03*
X52854Y-35334D03*
X53444Y-35334D03*
X52854Y-35531D03*
X53444Y-35531D03*
X52854Y-31397D03*
X53444Y-31397D03*
X52854Y-31594D03*
X53444Y-31594D03*
X52854Y-31791D03*
X53444Y-31791D03*
X52854Y-31988D03*
X53444Y-31988D03*
X52854Y-32185D03*
X53444Y-32185D03*
X52854Y-32381D03*
X53444Y-32381D03*
X52854Y-32578D03*
X53444Y-32578D03*
X52854Y-32775D03*
X53444Y-32775D03*
G54D19*
X49842Y-32775D03*
X49842Y-32972D03*
X49842Y-33169D03*
X49842Y-33366D03*
X49842Y-33562D03*
X49842Y-33759D03*
X49842Y-33956D03*
X49842Y-34153D03*
G54D20*
X50098Y-34409D03*
X50295Y-34409D03*
X50492Y-34409D03*
X50688Y-34409D03*
X50885Y-34409D03*
X51082Y-34409D03*
X51279Y-34409D03*
X51476Y-34409D03*
G54D19*
X51732Y-34153D03*
X51732Y-33956D03*
X51732Y-33759D03*
X51732Y-33562D03*
X51732Y-33366D03*
X51732Y-33169D03*
X51732Y-32972D03*
X51732Y-32775D03*
G54D20*
X51476Y-32519D03*
X51279Y-32519D03*
X51082Y-32519D03*
X50885Y-32519D03*
X50688Y-32519D03*
X50492Y-32519D03*
X50295Y-32519D03*
X50098Y-32519D03*
G54D21*
X50787Y-34050D03*
G54D22*
X50787Y-33661D03*
X50787Y-33267D03*
G54D21*
X50787Y-32878D03*
G54D23*
X65767Y-38720D03*
X66141Y-38720D03*
X66515Y-38720D03*
X66515Y-37657D03*
X65767Y-37657D03*
G54D24*
X50137Y-44862D03*
X50137Y-44488D03*
X50137Y-44114D03*
X49074Y-44114D03*
X49074Y-44862D03*
X53681Y-30295D03*
X53681Y-29921D03*
X53681Y-29547D03*
X52618Y-29547D03*
X52618Y-30295D03*
G54D25*
X58070Y-40354D03*
X58070Y-39960D03*
X58070Y-39566D03*
X58070Y-39173D03*
X58070Y-38779D03*
X58070Y-38385D03*
X58070Y-37992D03*
X58070Y-37598D03*
X58070Y-37204D03*
X58070Y-36811D03*
X58070Y-36417D03*
X58070Y-36023D03*
X58070Y-35629D03*
X58070Y-35236D03*
X58070Y-34842D03*
X58070Y-34448D03*
X58464Y-40354D03*
X58464Y-39960D03*
X58464Y-39566D03*
X58464Y-39173D03*
X58464Y-38779D03*
X58464Y-38385D03*
X58464Y-37992D03*
X58464Y-37598D03*
X58464Y-37204D03*
X58464Y-36811D03*
X58464Y-36417D03*
X58464Y-36023D03*
X58464Y-35629D03*
X58464Y-35236D03*
X58464Y-34842D03*
X58464Y-34448D03*
X58858Y-40354D03*
X58858Y-39960D03*
X58858Y-39566D03*
X58858Y-39173D03*
X58858Y-38779D03*
X58858Y-38385D03*
X58858Y-37992D03*
X58858Y-37598D03*
X58858Y-37204D03*
X58858Y-36811D03*
X58858Y-36417D03*
X58858Y-36023D03*
X58858Y-35629D03*
X58858Y-35236D03*
X58858Y-34842D03*
X58858Y-34448D03*
X59251Y-40354D03*
X59251Y-39960D03*
X59251Y-39566D03*
X59251Y-39173D03*
X59251Y-38779D03*
X59251Y-38385D03*
X59251Y-37992D03*
X59251Y-37598D03*
X59251Y-37204D03*
X59251Y-36811D03*
X59251Y-36417D03*
X59251Y-36023D03*
X59251Y-35629D03*
X59251Y-35236D03*
X59251Y-34842D03*
X59251Y-34448D03*
X59645Y-40354D03*
X59645Y-39960D03*
X59645Y-39566D03*
X59645Y-39173D03*
X59645Y-38779D03*
X59645Y-38385D03*
X59645Y-37992D03*
X59645Y-37598D03*
X59645Y-37204D03*
X59645Y-36811D03*
X59645Y-36417D03*
X59645Y-36023D03*
X59645Y-35629D03*
X59645Y-35236D03*
X59645Y-34842D03*
X59645Y-34448D03*
X60039Y-40354D03*
X60039Y-39960D03*
X60039Y-39566D03*
X60039Y-39173D03*
X60039Y-38779D03*
X60039Y-38385D03*
X60039Y-37992D03*
X60039Y-37598D03*
X60039Y-37204D03*
X60039Y-36811D03*
X60039Y-36417D03*
X60039Y-36023D03*
X60039Y-35629D03*
X60039Y-35236D03*
X60039Y-34842D03*
X60039Y-34448D03*
X60433Y-40354D03*
X60433Y-39960D03*
X60433Y-39566D03*
X60433Y-39173D03*
X60433Y-38779D03*
X60433Y-38385D03*
X60433Y-37992D03*
X60433Y-37598D03*
X60433Y-37204D03*
X60433Y-36811D03*
X60433Y-36417D03*
X60433Y-36023D03*
X60433Y-35629D03*
X60433Y-35236D03*
X60433Y-34842D03*
X60433Y-34448D03*
X60826Y-40354D03*
X60826Y-39960D03*
X60826Y-39566D03*
X60826Y-39173D03*
X60826Y-38779D03*
X60826Y-38385D03*
X60826Y-37992D03*
X60826Y-37598D03*
X60826Y-37204D03*
X60826Y-36811D03*
X60826Y-36417D03*
X60826Y-36023D03*
X60826Y-35629D03*
X60826Y-35236D03*
X60826Y-34842D03*
X60826Y-34448D03*
X61220Y-40354D03*
X61220Y-39960D03*
X61220Y-39566D03*
X61220Y-39173D03*
X61220Y-38779D03*
X61220Y-38385D03*
X61220Y-37992D03*
X61220Y-37598D03*
X61220Y-37204D03*
X61220Y-36811D03*
X61220Y-36417D03*
X61220Y-36023D03*
X61220Y-35629D03*
X61220Y-35236D03*
X61220Y-34842D03*
X61220Y-34448D03*
X61614Y-40354D03*
X61614Y-39960D03*
X61614Y-39566D03*
X61614Y-39173D03*
X61614Y-38779D03*
X61614Y-38385D03*
X61614Y-37992D03*
X61614Y-37598D03*
X61614Y-37204D03*
X61614Y-36811D03*
X61614Y-36417D03*
X61614Y-36023D03*
X61614Y-35629D03*
X61614Y-35236D03*
X61614Y-34842D03*
X61614Y-34448D03*
X62007Y-40354D03*
X62007Y-39960D03*
X62007Y-39566D03*
X62007Y-39173D03*
X62007Y-38779D03*
X62007Y-38385D03*
X62007Y-37992D03*
X62007Y-37598D03*
X62007Y-37204D03*
X62007Y-36811D03*
X62007Y-36417D03*
X62007Y-36023D03*
X62007Y-35629D03*
X62007Y-35236D03*
X62007Y-34842D03*
X62007Y-34448D03*
X62401Y-40354D03*
X62401Y-39960D03*
X62401Y-39566D03*
X62401Y-39173D03*
X62401Y-38779D03*
X62401Y-38385D03*
X62401Y-37992D03*
X62401Y-37598D03*
X62401Y-37204D03*
X62401Y-36811D03*
X62401Y-36417D03*
X62401Y-36023D03*
X62401Y-35629D03*
X62401Y-35236D03*
X62401Y-34842D03*
X62401Y-34448D03*
X62795Y-40354D03*
X62795Y-39960D03*
X62795Y-39566D03*
X62795Y-39173D03*
X62795Y-38779D03*
X62795Y-38385D03*
X62795Y-37992D03*
X62795Y-37598D03*
X62795Y-37204D03*
X62795Y-36811D03*
X62795Y-36417D03*
X62795Y-36023D03*
X62795Y-35629D03*
X62795Y-35236D03*
X62795Y-34842D03*
X62795Y-34448D03*
X63188Y-40354D03*
X63188Y-39960D03*
X63188Y-39566D03*
X63188Y-39173D03*
X63188Y-38779D03*
X63188Y-38385D03*
X63188Y-37992D03*
X63188Y-37598D03*
X63188Y-37204D03*
X63188Y-36811D03*
X63188Y-36417D03*
X63188Y-36023D03*
X63188Y-35629D03*
X63188Y-35236D03*
X63188Y-34842D03*
X63188Y-34448D03*
X63582Y-40354D03*
X63582Y-39960D03*
X63582Y-39566D03*
X63582Y-39173D03*
X63582Y-38779D03*
X63582Y-38385D03*
X63582Y-37992D03*
X63582Y-37598D03*
X63582Y-37204D03*
X63582Y-36811D03*
X63582Y-36417D03*
X63582Y-36023D03*
X63582Y-35629D03*
X63582Y-35236D03*
X63582Y-34842D03*
X63582Y-34448D03*
X63976Y-40354D03*
X63976Y-39960D03*
X63976Y-39566D03*
X63976Y-39173D03*
X63976Y-38779D03*
X63976Y-38385D03*
X63976Y-37992D03*
X63976Y-37598D03*
X63976Y-37204D03*
X63976Y-36811D03*
X63976Y-36417D03*
X63976Y-36023D03*
X63976Y-35629D03*
X63976Y-35236D03*
X63976Y-34842D03*
X63976Y-34448D03*
G54D26*
X72047Y-31338D03*
X72244Y-31338D03*
X72440Y-31338D03*
X72637Y-31338D03*
X72834Y-31338D03*
X72637Y-32440D03*
X72834Y-32440D03*
X72440Y-32440D03*
X72244Y-32440D03*
X72047Y-32440D03*
G54D27*
X72440Y-31683D03*
X72440Y-32096D03*
G54D28*
X38641Y-42913D03*
X38641Y-43110D03*
X38641Y-43307D03*
X38641Y-43503D03*
X38641Y-43700D03*
X38641Y-43897D03*
G54D29*
X38877Y-44133D03*
X39074Y-44133D03*
X39271Y-44133D03*
X39468Y-44133D03*
X39665Y-44133D03*
X39862Y-44133D03*
G54D28*
X40098Y-43897D03*
X40098Y-43700D03*
X40098Y-43503D03*
X40098Y-43307D03*
X40098Y-43110D03*
X40098Y-42913D03*
G54D29*
X39862Y-42677D03*
X39665Y-42677D03*
X39468Y-42677D03*
X39271Y-42677D03*
X39074Y-42677D03*
X38877Y-42677D03*
G54D30*
X39370Y-43405D03*
G54D31*
X39370Y-43031D03*
X39370Y-43779D03*
G54D20*
X44192Y-33425D03*
X44389Y-33425D03*
X44586Y-33425D03*
X44783Y-33425D03*
G54D19*
X45039Y-33169D03*
X45039Y-32972D03*
X45039Y-32775D03*
X45039Y-32578D03*
G54D20*
X44783Y-32322D03*
X44586Y-32322D03*
X44389Y-32322D03*
X44192Y-32322D03*
G54D19*
X43937Y-32578D03*
X43937Y-32775D03*
X43937Y-32972D03*
X43937Y-33169D03*
G54D32*
X44296Y-32874D03*
X44680Y-32874D03*
G54D33*
X72722Y-33366D03*
X71962Y-33366D03*
G54D12*
X69094Y-32322D03*
X69094Y-33622D03*
X66141Y-36870D03*
X66141Y-35570D03*
X67716Y-34901D03*
X67716Y-33602D03*
X74803Y-34901D03*
X74803Y-33602D03*
G54D34*
X52893Y-37775D03*
X53149Y-37775D03*
X53405Y-37775D03*
X53405Y-37027D03*
X52893Y-37027D03*
G54D35*
X37795Y-34966D03*
X37795Y-34206D03*
G54D36*
X32283Y-32795D03*
X32283Y-33661D03*
G54D37*
X70669Y-34913D03*
X70669Y-33393D03*
G54D38*
X51181Y-44862D03*
X51181Y-45216D03*
X54724Y-30295D03*
X54724Y-30649D03*
G54D11*
X49586Y-30905D03*
X49232Y-30905D03*
X50472Y-30905D03*
X50118Y-30905D03*
X51358Y-31299D03*
X51003Y-31299D03*
X50118Y-31299D03*
X50472Y-31299D03*
G54D38*
X70472Y-31476D03*
X70472Y-31122D03*
G54D11*
X49586Y-31299D03*
X49232Y-31299D03*
X49586Y-31692D03*
X49232Y-31692D03*
G54D38*
X50787Y-44862D03*
X50787Y-44507D03*
X48425Y-44862D03*
X48425Y-44507D03*
X54330Y-30295D03*
X54330Y-29940D03*
X51968Y-30295D03*
X51968Y-29940D03*
X71259Y-31122D03*
X71259Y-31476D03*
G54D11*
X56712Y-46850D03*
X57066Y-46850D03*
G54D38*
X70866Y-31476D03*
X70866Y-31122D03*
X72539Y-30334D03*
X72539Y-30688D03*
G54D11*
X42992Y-34055D03*
X42637Y-34055D03*
X42637Y-31692D03*
X42992Y-31692D03*
X65807Y-39271D03*
X66161Y-39271D03*
X53858Y-37007D03*
X54212Y-37007D03*
X48503Y-31299D03*
X48149Y-31299D03*
G54D38*
X48818Y-33385D03*
X48818Y-33740D03*
G54D11*
X47854Y-33366D03*
X48208Y-33366D03*
X47854Y-33759D03*
X48208Y-33759D03*
G54D38*
X72933Y-30688D03*
X72933Y-30334D03*
X44881Y-34468D03*
X44881Y-34822D03*
G54D11*
X42637Y-32480D03*
X42992Y-32480D03*
X42637Y-33267D03*
X42992Y-33267D03*
G54D38*
X46259Y-47066D03*
X46259Y-47421D03*
G54D11*
X44114Y-43503D03*
X44468Y-43503D03*
G54D38*
X57874Y-47224D03*
X57874Y-46870D03*
X58661Y-47224D03*
X58661Y-46870D03*
X58267Y-47224D03*
X58267Y-46870D03*
X45275Y-34822D03*
X45275Y-34468D03*
G54D11*
X44803Y-31791D03*
X45157Y-31791D03*
X44370Y-31791D03*
X44015Y-31791D03*
G54D38*
X43700Y-34822D03*
X43700Y-34468D03*
X44094Y-34822D03*
X44094Y-34468D03*
X45669Y-34822D03*
X45669Y-34468D03*
X52460Y-37027D03*
X52460Y-37381D03*
G54D11*
X42637Y-32086D03*
X42992Y-32086D03*
X42637Y-33661D03*
X42992Y-33661D03*
X52578Y-33464D03*
X52933Y-33464D03*
G54D38*
X49212Y-34429D03*
X49212Y-34074D03*
G54D11*
X49232Y-32086D03*
X49586Y-32086D03*
G54D38*
X49212Y-33385D03*
X49212Y-33740D03*
G54D11*
X41161Y-43503D03*
X41515Y-43503D03*
G54D38*
X37992Y-42244D03*
X37992Y-42598D03*
X40551Y-44212D03*
X40551Y-44566D03*
X38877Y-41653D03*
X38877Y-42007D03*
X39271Y-41653D03*
X39271Y-42007D03*
X37992Y-44212D03*
X37992Y-44566D03*
G54D11*
X44114Y-43110D03*
X44468Y-43110D03*
X40472Y-42027D03*
X40826Y-42027D03*
X40472Y-42421D03*
X40826Y-42421D03*
X38700Y-32874D03*
X39055Y-32874D03*
X39488Y-32874D03*
X39842Y-32874D03*
X40275Y-32874D03*
X40629Y-32874D03*
X41062Y-32874D03*
X41417Y-32874D03*
G54D38*
X37401Y-43307D03*
X37401Y-42952D03*
X44488Y-34468D03*
X44488Y-34822D03*
G54D11*
X45590Y-33070D03*
X45944Y-33070D03*
X45590Y-32677D03*
X45944Y-32677D03*
G54D38*
X49212Y-32696D03*
X49212Y-33051D03*
X37598Y-44212D03*
X37598Y-44566D03*
X37401Y-42244D03*
X37401Y-42598D03*
X38484Y-33287D03*
X38484Y-33641D03*
X39271Y-33287D03*
X39271Y-33641D03*
X40846Y-33287D03*
X40846Y-33641D03*
X41633Y-33287D03*
X41633Y-33641D03*
G54D11*
X37814Y-43307D03*
X38169Y-43307D03*
G54D38*
X48228Y-36299D03*
X48228Y-35944D03*
G54D14*
X53149Y-40344D03*
G54D15*
X53730Y-40944D03*
X52568Y-40944D03*
G54D38*
X52460Y-38602D03*
X52460Y-38956D03*
G54D34*
X52893Y-39350D03*
X53149Y-39350D03*
X53405Y-39350D03*
X53405Y-38602D03*
X52893Y-38602D03*
G54D10*
G36*
X49970Y-38327D02*
X49511Y-38786D01*
X48997Y-38271D01*
X49455Y-37812D01*
X49970Y-38327D01*
X49970Y-38327D01*
G37*
G36*
X51384Y-36913D02*
X50925Y-37372D01*
X50411Y-36857D01*
X50870Y-36398D01*
X51384Y-36913D01*
X51384Y-36913D01*
G37*
G36*
X50215Y-35743D02*
X49756Y-36202D01*
X49242Y-35688D01*
X49700Y-35229D01*
X50215Y-35743D01*
X50215Y-35743D01*
G37*
G36*
X48801Y-37158D02*
X48342Y-37616D01*
X47827Y-37102D01*
X48286Y-36643D01*
X48801Y-37158D01*
X48801Y-37158D01*
G37*
G54D39*
X46263Y-37657D03*
G54D40*
X47047Y-36761D03*
G54D41*
X43669Y-37657D03*
X41307Y-37657D03*
X38944Y-37657D03*
G54D39*
X36350Y-37657D03*
G54D40*
X35566Y-36761D03*
G54D42*
X35566Y-34055D03*
G54D40*
X35566Y-31348D03*
G54D39*
X36350Y-30452D03*
G54D41*
X38944Y-30452D03*
X41307Y-30452D03*
G54D42*
X47047Y-34055D03*
G54D40*
X47047Y-31348D03*
G54D39*
X46263Y-30452D03*
G54D41*
X43669Y-30452D03*
G54D39*
X46263Y-48090D03*
G54D40*
X47047Y-47194D03*
G54D41*
X43669Y-48090D03*
X41307Y-48090D03*
X38944Y-48090D03*
G54D39*
X36350Y-48090D03*
G54D40*
X35566Y-47194D03*
G54D42*
X35566Y-44488D03*
G54D40*
X35566Y-41781D03*
G54D39*
X36350Y-40885D03*
G54D41*
X38944Y-40885D03*
X41307Y-40885D03*
G54D42*
X47047Y-44488D03*
G54D40*
X47047Y-41781D03*
G54D39*
X46263Y-40885D03*
G54D41*
X43669Y-40885D03*
G54D36*
X31811Y-36712D03*
X32677Y-36712D03*
G54D43*
X59437Y-46446D03*
X59437Y-46190D03*
X59437Y-45935D03*
X59437Y-45679D03*
X57098Y-45679D03*
X57098Y-45935D03*
X57098Y-46190D03*
X57098Y-46446D03*
G54D38*
X70374Y-45688D03*
X70374Y-46043D03*
X70767Y-45688D03*
X70767Y-46043D03*
X65059Y-45688D03*
X65059Y-46043D03*
X65452Y-45688D03*
X65452Y-46043D03*
G54D44*
X66437Y-45366D03*
X69389Y-45366D03*
X66437Y-46366D03*
X69389Y-46366D03*
M02*
