G04 (created by PCBNEW (2013-mar-25)-stable) date Wednesday, January 13, 2016 08:40:10 PM*
%MOIN*%
G04 Gerber Fmt 3.4, Leading zero omitted, Abs format*
%FSLAX34Y34*%
G01*
G70*
G90*
G04 APERTURE LIST*
%ADD10C,0.006*%
%ADD11C,0.00590551*%
%ADD12C,0.015748*%
%ADD13C,0.0669291*%
%ADD14C,0.023622*%
%ADD15C,0.0492126*%
%ADD16R,0.0649606X0.0649606*%
%ADD17C,0.0649606*%
%ADD18C,0.0314961*%
%ADD19C,0.019685*%
%ADD20C,0.00393701*%
G04 APERTURE END LIST*
G54D10*
G54D11*
X72139Y-49568D02*
X72334Y-49568D01*
X72229Y-49718D01*
X72274Y-49718D01*
X72304Y-49737D01*
X72319Y-49756D01*
X72334Y-49793D01*
X72334Y-49887D01*
X72319Y-49925D01*
X72304Y-49943D01*
X72274Y-49962D01*
X72184Y-49962D01*
X72154Y-49943D01*
X72139Y-49925D01*
G54D12*
X50787Y-33464D03*
X50393Y-33464D03*
X51181Y-33464D03*
X51181Y-33070D03*
X50787Y-33070D03*
X50393Y-33070D03*
X50393Y-33858D03*
X50787Y-33858D03*
X51181Y-33858D03*
X72440Y-31889D03*
X72677Y-31889D03*
X72204Y-31889D03*
X39173Y-43208D03*
X39566Y-43208D03*
X39173Y-43602D03*
X39566Y-43602D03*
X44488Y-32726D03*
X44488Y-33021D03*
G54D13*
X68305Y-48370D03*
X68305Y-49370D03*
X67305Y-48370D03*
X67305Y-49370D03*
X66305Y-48370D03*
X66305Y-49370D03*
X65305Y-48370D03*
X65305Y-49370D03*
X64305Y-48370D03*
X64305Y-49370D03*
X63305Y-48370D03*
X63305Y-49370D03*
X62305Y-48370D03*
X62305Y-49370D03*
X61305Y-48370D03*
X61305Y-49370D03*
X60305Y-48370D03*
X60305Y-49370D03*
X59305Y-48370D03*
X59305Y-49370D03*
X58305Y-48370D03*
X58305Y-49370D03*
X57305Y-48370D03*
X57305Y-49370D03*
X56305Y-48370D03*
X56305Y-49370D03*
X68305Y-29370D03*
X68305Y-30370D03*
X67305Y-29370D03*
X67305Y-30370D03*
X66305Y-29370D03*
X66305Y-30370D03*
X65305Y-29370D03*
X65305Y-30370D03*
X64305Y-29370D03*
X64305Y-30370D03*
X63305Y-29370D03*
X63305Y-30370D03*
X62305Y-29370D03*
X62305Y-30370D03*
X61305Y-29370D03*
X61305Y-30370D03*
X60305Y-29370D03*
X60305Y-30370D03*
X59305Y-29370D03*
X59305Y-30370D03*
X58305Y-29370D03*
X58305Y-30370D03*
X57305Y-29370D03*
X57305Y-30370D03*
X56305Y-29370D03*
X56305Y-30370D03*
G54D14*
X60236Y-35826D03*
G54D15*
X64862Y-44488D03*
X66043Y-43307D03*
G54D16*
X32677Y-37885D03*
G54D17*
X32677Y-38885D03*
G54D15*
X55118Y-42125D03*
X54527Y-42716D03*
X53937Y-43307D03*
G54D14*
X51673Y-31299D03*
G54D12*
X30889Y-44687D03*
X30889Y-44982D03*
X30889Y-45277D03*
X31185Y-44687D03*
X31185Y-44982D03*
X31185Y-45277D03*
X31480Y-44687D03*
X31480Y-44982D03*
X31480Y-45277D03*
X30889Y-41927D03*
X30889Y-41631D03*
X30889Y-41336D03*
X31185Y-41927D03*
X31185Y-41631D03*
X31185Y-41336D03*
X31480Y-41927D03*
X31480Y-41631D03*
X31480Y-41336D03*
X30889Y-35041D03*
X30889Y-35336D03*
X30889Y-35631D03*
X31185Y-35041D03*
X31185Y-35336D03*
X31185Y-35631D03*
X31480Y-35041D03*
X31480Y-35336D03*
X31480Y-35631D03*
X30889Y-32281D03*
X30889Y-31986D03*
X30889Y-31690D03*
X31185Y-32281D03*
X31185Y-31986D03*
X31185Y-31690D03*
X31480Y-32281D03*
X31480Y-31986D03*
X31480Y-31690D03*
G54D18*
X47834Y-31299D03*
X44586Y-31397D03*
X44094Y-34153D03*
X45275Y-34153D03*
G54D14*
X50196Y-31692D03*
G54D18*
X44881Y-34153D03*
G54D14*
X67421Y-45767D03*
X56003Y-32086D03*
X59251Y-32086D03*
X67814Y-45472D03*
X61811Y-36614D03*
X61417Y-35039D03*
X62204Y-35433D03*
X64173Y-38188D03*
X63385Y-38976D03*
G54D18*
X75196Y-35826D03*
G54D14*
X61811Y-37007D03*
X70078Y-31496D03*
G54D18*
X67125Y-34940D03*
X68307Y-34940D03*
X67716Y-35433D03*
G54D14*
X57874Y-36614D03*
X64960Y-35334D03*
X60629Y-37007D03*
X59842Y-38188D03*
X60629Y-38188D03*
G54D18*
X74803Y-35826D03*
X75196Y-36220D03*
X74803Y-36220D03*
X74409Y-35826D03*
X74409Y-36220D03*
G54D14*
X61417Y-38188D03*
X62204Y-37795D03*
X59842Y-36220D03*
X59448Y-36614D03*
X59842Y-37007D03*
G54D18*
X66141Y-37598D03*
X67027Y-37696D03*
X67716Y-37401D03*
G54D14*
X60629Y-36614D03*
X60629Y-37795D03*
X62204Y-36614D03*
G54D18*
X65255Y-37401D03*
X64763Y-37795D03*
G54D14*
X61417Y-36614D03*
X60236Y-37795D03*
G54D18*
X68405Y-32283D03*
X69783Y-32283D03*
X69094Y-31791D03*
G54D14*
X58661Y-37007D03*
X58661Y-35826D03*
X59842Y-39370D03*
X63779Y-35433D03*
X63779Y-39370D03*
X58661Y-39763D03*
X72736Y-46358D03*
X71456Y-45767D03*
X68700Y-46555D03*
X67421Y-44389D03*
X57381Y-37401D03*
X57381Y-39173D03*
X59842Y-41043D03*
X64074Y-41043D03*
X64960Y-35925D03*
X64173Y-33759D03*
X60629Y-33759D03*
X57381Y-34251D03*
X57874Y-34251D03*
X60629Y-34645D03*
X62204Y-34251D03*
X59842Y-35039D03*
X59055Y-37795D03*
X59842Y-40551D03*
X64173Y-40551D03*
X62598Y-39763D03*
X61417Y-39763D03*
X63385Y-38188D03*
X62204Y-35039D03*
X62598Y-35433D03*
X61417Y-35826D03*
X64173Y-36220D03*
X62598Y-36220D03*
X62598Y-36614D03*
X62992Y-36614D03*
X62598Y-37007D03*
X57874Y-38582D03*
X62204Y-38582D03*
X59448Y-38188D03*
G54D18*
X48818Y-31299D03*
X52755Y-33070D03*
X49409Y-32381D03*
X48818Y-34153D03*
X52066Y-38582D03*
X52066Y-37007D03*
X47834Y-36318D03*
X48622Y-36318D03*
X51574Y-30314D03*
G54D14*
X48031Y-44881D03*
X44783Y-43897D03*
X39468Y-44488D03*
X38188Y-43897D03*
G54D18*
X40551Y-43897D03*
G54D14*
X40551Y-42913D03*
X38877Y-42322D03*
X39271Y-42322D03*
G54D18*
X66732Y-30826D03*
X67125Y-31299D03*
X65984Y-31299D03*
X64763Y-30807D03*
X65551Y-31299D03*
X64370Y-31299D03*
G54D14*
X54035Y-29330D03*
G54D18*
X54330Y-30708D03*
X55118Y-30708D03*
G54D14*
X54724Y-31003D03*
G54D18*
X50787Y-45275D03*
X51574Y-45275D03*
G54D14*
X51181Y-45570D03*
G54D18*
X67125Y-32086D03*
X66535Y-32578D03*
X64370Y-32086D03*
X64960Y-32578D03*
X65944Y-32086D03*
X65551Y-32086D03*
G54D14*
X66929Y-38681D03*
G54D18*
X50787Y-44094D03*
X73523Y-33366D03*
X73523Y-33759D03*
X73129Y-33366D03*
X73523Y-32972D03*
X73129Y-33759D03*
X73129Y-32972D03*
X65354Y-38681D03*
X64763Y-39271D03*
X65354Y-39271D03*
X64763Y-38681D03*
G54D14*
X72539Y-30019D03*
X60629Y-40551D03*
X60728Y-45964D03*
X67027Y-46062D03*
X41141Y-41633D03*
X41141Y-42421D03*
G54D18*
X47047Y-35236D03*
X44881Y-37696D03*
X42519Y-37696D03*
X40157Y-37696D03*
X37795Y-37696D03*
X44881Y-30413D03*
X42519Y-30413D03*
X40157Y-30413D03*
X37795Y-30413D03*
X35531Y-32874D03*
X53248Y-33464D03*
X49606Y-34448D03*
X47834Y-35925D03*
X48622Y-35925D03*
X52460Y-39271D03*
X52460Y-37696D03*
X53740Y-39370D03*
X53740Y-37795D03*
X51377Y-37401D03*
X51377Y-36417D03*
X53149Y-29921D03*
X53149Y-30314D03*
X53149Y-29527D03*
X49606Y-44488D03*
X49606Y-44881D03*
X49606Y-44094D03*
X71850Y-29527D03*
X48228Y-29527D03*
X44291Y-29527D03*
X40354Y-29527D03*
X36417Y-29527D03*
X38385Y-29527D03*
X42322Y-29527D03*
X46259Y-29527D03*
X50196Y-29527D03*
X34448Y-29527D03*
X36417Y-29527D03*
X73326Y-46751D03*
X71358Y-48720D03*
X70374Y-47244D03*
X72834Y-44783D03*
X70866Y-44783D03*
X68897Y-44783D03*
X72834Y-48720D03*
X66929Y-47244D03*
X54133Y-49212D03*
X50196Y-49212D03*
X44291Y-49212D03*
X40354Y-49212D03*
X38385Y-49212D03*
X36417Y-49212D03*
X33464Y-47244D03*
X31496Y-47244D03*
X34448Y-49212D03*
X42322Y-49212D03*
X46259Y-49212D03*
X48228Y-49212D03*
X52165Y-49212D03*
X56102Y-47244D03*
G54D14*
X61417Y-37007D03*
G54D18*
X36122Y-43700D03*
X36909Y-43700D03*
X36122Y-42913D03*
X36909Y-42913D03*
G54D14*
X39074Y-44488D03*
G54D18*
X67618Y-38385D03*
X67618Y-38877D03*
X66437Y-39370D03*
X67618Y-39370D03*
X67027Y-39370D03*
G54D14*
X63385Y-40157D03*
X58661Y-34645D03*
X60629Y-35826D03*
X64173Y-34645D03*
X62992Y-34645D03*
X58267Y-36220D03*
X61417Y-36220D03*
X61417Y-35433D03*
X60236Y-37007D03*
X59055Y-40157D03*
X61811Y-40551D03*
X59448Y-37007D03*
X64173Y-38582D03*
X57874Y-40551D03*
X60629Y-39763D03*
X61811Y-37795D03*
X62598Y-37795D03*
G54D18*
X34251Y-42913D03*
X32677Y-42913D03*
X33464Y-42913D03*
X35039Y-42913D03*
X32677Y-43700D03*
X34251Y-43700D03*
X35039Y-43700D03*
X33464Y-43700D03*
X73228Y-31889D03*
X71653Y-31889D03*
X73228Y-31496D03*
X71653Y-31496D03*
X71653Y-32283D03*
X46259Y-46653D03*
G54D14*
X58267Y-37795D03*
X60236Y-34251D03*
X59055Y-35826D03*
X63385Y-35826D03*
X62204Y-36220D03*
X63779Y-37007D03*
X61417Y-38976D03*
X62992Y-38976D03*
X59055Y-38582D03*
X60629Y-38582D03*
X61811Y-38582D03*
X61811Y-38188D03*
X60236Y-38582D03*
X60236Y-38188D03*
X59842Y-36614D03*
X41141Y-42027D03*
X59055Y-35433D03*
X59448Y-37795D03*
G54D19*
X47933Y-43897D02*
X48031Y-43996D01*
X47933Y-43897D02*
X44783Y-43897D01*
X48031Y-44881D02*
X48031Y-43996D01*
X40551Y-43897D02*
X44783Y-43897D01*
X39468Y-44488D02*
X40452Y-44488D01*
X40551Y-44389D02*
X40551Y-43897D01*
X40452Y-44488D02*
X40551Y-44389D01*
X38188Y-43897D02*
X40551Y-43897D01*
X40551Y-42913D02*
X40551Y-43897D01*
X39271Y-42322D02*
X40452Y-42322D01*
X40551Y-42421D02*
X40551Y-42913D01*
X40452Y-42322D02*
X40551Y-42421D01*
X38877Y-42322D02*
X39271Y-42322D01*
G54D10*
G36*
X67893Y-37972D02*
X67716Y-37972D01*
X64173Y-37972D01*
X64130Y-37972D01*
X64130Y-37972D01*
X63385Y-37972D01*
X63342Y-37972D01*
X63342Y-37972D01*
X62727Y-37972D01*
X62781Y-37918D01*
X62814Y-37838D01*
X62814Y-37752D01*
X62782Y-37672D01*
X62721Y-37611D01*
X62641Y-37578D01*
X62555Y-37578D01*
X62475Y-37611D01*
X62414Y-37672D01*
X62401Y-37704D01*
X62388Y-37672D01*
X62327Y-37611D01*
X62247Y-37578D01*
X62161Y-37578D01*
X62082Y-37611D01*
X62021Y-37672D01*
X62007Y-37704D01*
X61994Y-37672D01*
X61933Y-37611D01*
X61854Y-37578D01*
X61768Y-37578D01*
X61688Y-37611D01*
X61627Y-37672D01*
X61594Y-37752D01*
X61594Y-37838D01*
X61627Y-37917D01*
X61681Y-37972D01*
X61417Y-37972D01*
X61374Y-37972D01*
X61374Y-37972D01*
X60629Y-37972D01*
X60587Y-37972D01*
X60586Y-37972D01*
X60236Y-37972D01*
X60193Y-37972D01*
X60193Y-37972D01*
X59842Y-37972D01*
X59799Y-37972D01*
X59799Y-37972D01*
X59665Y-37972D01*
X59665Y-37795D01*
X59665Y-37752D01*
X59665Y-37752D01*
X59665Y-37136D01*
X59719Y-37191D01*
X59799Y-37224D01*
X59885Y-37224D01*
X59965Y-37191D01*
X60025Y-37130D01*
X60039Y-37098D01*
X60052Y-37130D01*
X60113Y-37191D01*
X60192Y-37224D01*
X60279Y-37224D01*
X60358Y-37191D01*
X60419Y-37130D01*
X60433Y-37098D01*
X60446Y-37130D01*
X60507Y-37191D01*
X60586Y-37224D01*
X60672Y-37224D01*
X60752Y-37191D01*
X60813Y-37130D01*
X60846Y-37051D01*
X60846Y-36964D01*
X60813Y-36885D01*
X60752Y-36824D01*
X60673Y-36791D01*
X60587Y-36791D01*
X60507Y-36824D01*
X60446Y-36885D01*
X60433Y-36917D01*
X60419Y-36885D01*
X60359Y-36824D01*
X60279Y-36791D01*
X60193Y-36791D01*
X60113Y-36824D01*
X60052Y-36885D01*
X60039Y-36917D01*
X60026Y-36885D01*
X59965Y-36824D01*
X59933Y-36811D01*
X59965Y-36797D01*
X60025Y-36736D01*
X60059Y-36657D01*
X60059Y-36571D01*
X60026Y-36491D01*
X59971Y-36437D01*
X61417Y-36437D01*
X61460Y-36437D01*
X61460Y-36437D01*
X61682Y-36437D01*
X61627Y-36491D01*
X61594Y-36570D01*
X61594Y-36657D01*
X61627Y-36736D01*
X61688Y-36797D01*
X61720Y-36811D01*
X61688Y-36824D01*
X61627Y-36885D01*
X61614Y-36917D01*
X61600Y-36885D01*
X61540Y-36824D01*
X61460Y-36791D01*
X61374Y-36791D01*
X61294Y-36824D01*
X61233Y-36885D01*
X61200Y-36964D01*
X61200Y-37050D01*
X61233Y-37130D01*
X61294Y-37191D01*
X61374Y-37224D01*
X61460Y-37224D01*
X61539Y-37191D01*
X61600Y-37130D01*
X61614Y-37098D01*
X61627Y-37130D01*
X61688Y-37191D01*
X61767Y-37224D01*
X61853Y-37224D01*
X61933Y-37191D01*
X61994Y-37130D01*
X62027Y-37051D01*
X62027Y-36964D01*
X61994Y-36885D01*
X61933Y-36824D01*
X61901Y-36811D01*
X61933Y-36797D01*
X61994Y-36736D01*
X62027Y-36657D01*
X62027Y-36571D01*
X61994Y-36491D01*
X61940Y-36437D01*
X62204Y-36437D01*
X62247Y-36437D01*
X62247Y-36437D01*
X62381Y-36437D01*
X62381Y-36614D01*
X62381Y-36657D01*
X62381Y-36657D01*
X62381Y-37007D01*
X62381Y-37050D01*
X62381Y-37050D01*
X62381Y-37224D01*
X62598Y-37224D01*
X62641Y-37224D01*
X62641Y-37224D01*
X63779Y-37224D01*
X63822Y-37224D01*
X63822Y-37224D01*
X67893Y-37224D01*
X67893Y-37972D01*
X67893Y-37972D01*
G37*
G54D20*
X67893Y-37972D02*
X67716Y-37972D01*
X64173Y-37972D01*
X64130Y-37972D01*
X64130Y-37972D01*
X63385Y-37972D01*
X63342Y-37972D01*
X63342Y-37972D01*
X62727Y-37972D01*
X62781Y-37918D01*
X62814Y-37838D01*
X62814Y-37752D01*
X62782Y-37672D01*
X62721Y-37611D01*
X62641Y-37578D01*
X62555Y-37578D01*
X62475Y-37611D01*
X62414Y-37672D01*
X62401Y-37704D01*
X62388Y-37672D01*
X62327Y-37611D01*
X62247Y-37578D01*
X62161Y-37578D01*
X62082Y-37611D01*
X62021Y-37672D01*
X62007Y-37704D01*
X61994Y-37672D01*
X61933Y-37611D01*
X61854Y-37578D01*
X61768Y-37578D01*
X61688Y-37611D01*
X61627Y-37672D01*
X61594Y-37752D01*
X61594Y-37838D01*
X61627Y-37917D01*
X61681Y-37972D01*
X61417Y-37972D01*
X61374Y-37972D01*
X61374Y-37972D01*
X60629Y-37972D01*
X60587Y-37972D01*
X60586Y-37972D01*
X60236Y-37972D01*
X60193Y-37972D01*
X60193Y-37972D01*
X59842Y-37972D01*
X59799Y-37972D01*
X59799Y-37972D01*
X59665Y-37972D01*
X59665Y-37795D01*
X59665Y-37752D01*
X59665Y-37752D01*
X59665Y-37136D01*
X59719Y-37191D01*
X59799Y-37224D01*
X59885Y-37224D01*
X59965Y-37191D01*
X60025Y-37130D01*
X60039Y-37098D01*
X60052Y-37130D01*
X60113Y-37191D01*
X60192Y-37224D01*
X60279Y-37224D01*
X60358Y-37191D01*
X60419Y-37130D01*
X60433Y-37098D01*
X60446Y-37130D01*
X60507Y-37191D01*
X60586Y-37224D01*
X60672Y-37224D01*
X60752Y-37191D01*
X60813Y-37130D01*
X60846Y-37051D01*
X60846Y-36964D01*
X60813Y-36885D01*
X60752Y-36824D01*
X60673Y-36791D01*
X60587Y-36791D01*
X60507Y-36824D01*
X60446Y-36885D01*
X60433Y-36917D01*
X60419Y-36885D01*
X60359Y-36824D01*
X60279Y-36791D01*
X60193Y-36791D01*
X60113Y-36824D01*
X60052Y-36885D01*
X60039Y-36917D01*
X60026Y-36885D01*
X59965Y-36824D01*
X59933Y-36811D01*
X59965Y-36797D01*
X60025Y-36736D01*
X60059Y-36657D01*
X60059Y-36571D01*
X60026Y-36491D01*
X59971Y-36437D01*
X61417Y-36437D01*
X61460Y-36437D01*
X61460Y-36437D01*
X61682Y-36437D01*
X61627Y-36491D01*
X61594Y-36570D01*
X61594Y-36657D01*
X61627Y-36736D01*
X61688Y-36797D01*
X61720Y-36811D01*
X61688Y-36824D01*
X61627Y-36885D01*
X61614Y-36917D01*
X61600Y-36885D01*
X61540Y-36824D01*
X61460Y-36791D01*
X61374Y-36791D01*
X61294Y-36824D01*
X61233Y-36885D01*
X61200Y-36964D01*
X61200Y-37050D01*
X61233Y-37130D01*
X61294Y-37191D01*
X61374Y-37224D01*
X61460Y-37224D01*
X61539Y-37191D01*
X61600Y-37130D01*
X61614Y-37098D01*
X61627Y-37130D01*
X61688Y-37191D01*
X61767Y-37224D01*
X61853Y-37224D01*
X61933Y-37191D01*
X61994Y-37130D01*
X62027Y-37051D01*
X62027Y-36964D01*
X61994Y-36885D01*
X61933Y-36824D01*
X61901Y-36811D01*
X61933Y-36797D01*
X61994Y-36736D01*
X62027Y-36657D01*
X62027Y-36571D01*
X61994Y-36491D01*
X61940Y-36437D01*
X62204Y-36437D01*
X62247Y-36437D01*
X62247Y-36437D01*
X62381Y-36437D01*
X62381Y-36614D01*
X62381Y-36657D01*
X62381Y-36657D01*
X62381Y-37007D01*
X62381Y-37050D01*
X62381Y-37050D01*
X62381Y-37224D01*
X62598Y-37224D01*
X62641Y-37224D01*
X62641Y-37224D01*
X63779Y-37224D01*
X63822Y-37224D01*
X63822Y-37224D01*
X67893Y-37224D01*
X67893Y-37972D01*
G54D10*
G36*
X48405Y-32263D02*
X46437Y-32263D01*
X46437Y-35807D01*
X45137Y-35807D01*
X45137Y-34102D01*
X45098Y-34008D01*
X45027Y-33936D01*
X44933Y-33897D01*
X44831Y-33897D01*
X44737Y-33936D01*
X44665Y-34008D01*
X44665Y-32986D01*
X44638Y-32921D01*
X44591Y-32873D01*
X44638Y-32826D01*
X44665Y-32761D01*
X44665Y-32691D01*
X44638Y-32626D01*
X44588Y-32576D01*
X44523Y-32549D01*
X44453Y-32549D01*
X44387Y-32576D01*
X44338Y-32625D01*
X44311Y-32690D01*
X44310Y-32761D01*
X44337Y-32826D01*
X44385Y-32874D01*
X44338Y-32921D01*
X44311Y-32986D01*
X44310Y-33056D01*
X44337Y-33121D01*
X44387Y-33171D01*
X44452Y-33198D01*
X44523Y-33198D01*
X44588Y-33171D01*
X44638Y-33122D01*
X44665Y-33057D01*
X44665Y-32986D01*
X44665Y-34008D01*
X44665Y-34008D01*
X44626Y-34102D01*
X44625Y-34204D01*
X44664Y-34298D01*
X44736Y-34370D01*
X44830Y-34409D01*
X44932Y-34409D01*
X45026Y-34370D01*
X45098Y-34298D01*
X45137Y-34204D01*
X45137Y-34102D01*
X45137Y-35807D01*
X42145Y-35807D01*
X42145Y-30728D01*
X48405Y-30728D01*
X48405Y-32263D01*
X48405Y-32263D01*
G37*
G54D20*
X48405Y-32263D02*
X46437Y-32263D01*
X46437Y-35807D01*
X45137Y-35807D01*
X45137Y-34102D01*
X45098Y-34008D01*
X45027Y-33936D01*
X44933Y-33897D01*
X44831Y-33897D01*
X44737Y-33936D01*
X44665Y-34008D01*
X44665Y-32986D01*
X44638Y-32921D01*
X44591Y-32873D01*
X44638Y-32826D01*
X44665Y-32761D01*
X44665Y-32691D01*
X44638Y-32626D01*
X44588Y-32576D01*
X44523Y-32549D01*
X44453Y-32549D01*
X44387Y-32576D01*
X44338Y-32625D01*
X44311Y-32690D01*
X44310Y-32761D01*
X44337Y-32826D01*
X44385Y-32874D01*
X44338Y-32921D01*
X44311Y-32986D01*
X44310Y-33056D01*
X44337Y-33121D01*
X44387Y-33171D01*
X44452Y-33198D01*
X44523Y-33198D01*
X44588Y-33171D01*
X44638Y-33122D01*
X44665Y-33057D01*
X44665Y-32986D01*
X44665Y-34008D01*
X44665Y-34008D01*
X44626Y-34102D01*
X44625Y-34204D01*
X44664Y-34298D01*
X44736Y-34370D01*
X44830Y-34409D01*
X44932Y-34409D01*
X45026Y-34370D01*
X45098Y-34298D01*
X45137Y-34204D01*
X45137Y-34102D01*
X45137Y-35807D01*
X42145Y-35807D01*
X42145Y-30728D01*
X48405Y-30728D01*
X48405Y-32263D01*
G54D10*
G36*
X53129Y-39547D02*
X52716Y-39547D01*
X52716Y-39220D01*
X52716Y-37646D01*
X52677Y-37552D01*
X52605Y-37480D01*
X52511Y-37440D01*
X52409Y-37440D01*
X52315Y-37479D01*
X52243Y-37551D01*
X52204Y-37645D01*
X52204Y-37747D01*
X52243Y-37841D01*
X52315Y-37913D01*
X52409Y-37952D01*
X52511Y-37952D01*
X52605Y-37913D01*
X52677Y-37841D01*
X52716Y-37747D01*
X52716Y-37646D01*
X52716Y-39220D01*
X52677Y-39126D01*
X52605Y-39054D01*
X52511Y-39015D01*
X52409Y-39015D01*
X52315Y-39054D01*
X52243Y-39126D01*
X52204Y-39220D01*
X52204Y-39322D01*
X52243Y-39416D01*
X52315Y-39488D01*
X52409Y-39527D01*
X52511Y-39527D01*
X52605Y-39488D01*
X52677Y-39416D01*
X52716Y-39322D01*
X52716Y-39220D01*
X52716Y-39547D01*
X51633Y-39547D01*
X51633Y-37350D01*
X51633Y-36366D01*
X51595Y-36272D01*
X51523Y-36200D01*
X51429Y-36161D01*
X51358Y-36161D01*
X51358Y-33823D01*
X51358Y-33429D01*
X51358Y-33035D01*
X51331Y-32970D01*
X51281Y-32920D01*
X51216Y-32893D01*
X51146Y-32893D01*
X51080Y-32920D01*
X51030Y-32970D01*
X51003Y-33035D01*
X51003Y-33105D01*
X51030Y-33171D01*
X51080Y-33220D01*
X51145Y-33248D01*
X51216Y-33248D01*
X51281Y-33221D01*
X51331Y-33171D01*
X51358Y-33106D01*
X51358Y-33035D01*
X51358Y-33429D01*
X51331Y-33364D01*
X51281Y-33314D01*
X51216Y-33287D01*
X51146Y-33287D01*
X51080Y-33314D01*
X51030Y-33364D01*
X51003Y-33429D01*
X51003Y-33499D01*
X51030Y-33564D01*
X51080Y-33614D01*
X51145Y-33641D01*
X51216Y-33641D01*
X51281Y-33614D01*
X51331Y-33565D01*
X51358Y-33499D01*
X51358Y-33429D01*
X51358Y-33823D01*
X51331Y-33758D01*
X51281Y-33708D01*
X51216Y-33681D01*
X51146Y-33681D01*
X51080Y-33707D01*
X51030Y-33757D01*
X51003Y-33822D01*
X51003Y-33893D01*
X51030Y-33958D01*
X51080Y-34008D01*
X51145Y-34035D01*
X51216Y-34035D01*
X51281Y-34008D01*
X51331Y-33958D01*
X51358Y-33893D01*
X51358Y-33823D01*
X51358Y-36161D01*
X51327Y-36161D01*
X51233Y-36200D01*
X51161Y-36272D01*
X51122Y-36366D01*
X51122Y-36468D01*
X51160Y-36562D01*
X51232Y-36634D01*
X51326Y-36673D01*
X51428Y-36673D01*
X51522Y-36634D01*
X51594Y-36562D01*
X51633Y-36468D01*
X51633Y-36366D01*
X51633Y-37350D01*
X51595Y-37256D01*
X51523Y-37184D01*
X51429Y-37145D01*
X51327Y-37145D01*
X51233Y-37184D01*
X51161Y-37256D01*
X51122Y-37350D01*
X51122Y-37452D01*
X51160Y-37546D01*
X51232Y-37618D01*
X51326Y-37657D01*
X51428Y-37657D01*
X51522Y-37618D01*
X51594Y-37546D01*
X51633Y-37452D01*
X51633Y-37350D01*
X51633Y-39547D01*
X50964Y-39547D01*
X50964Y-33823D01*
X50964Y-33429D01*
X50964Y-33035D01*
X50937Y-32970D01*
X50887Y-32920D01*
X50822Y-32893D01*
X50752Y-32893D01*
X50687Y-32920D01*
X50637Y-32970D01*
X50610Y-33035D01*
X50610Y-33105D01*
X50637Y-33171D01*
X50686Y-33220D01*
X50752Y-33248D01*
X50822Y-33248D01*
X50887Y-33221D01*
X50937Y-33171D01*
X50964Y-33106D01*
X50964Y-33035D01*
X50964Y-33429D01*
X50937Y-33364D01*
X50887Y-33314D01*
X50822Y-33287D01*
X50752Y-33287D01*
X50687Y-33314D01*
X50637Y-33364D01*
X50610Y-33429D01*
X50610Y-33499D01*
X50637Y-33564D01*
X50686Y-33614D01*
X50752Y-33641D01*
X50822Y-33641D01*
X50887Y-33614D01*
X50937Y-33565D01*
X50964Y-33499D01*
X50964Y-33429D01*
X50964Y-33823D01*
X50937Y-33758D01*
X50887Y-33708D01*
X50822Y-33681D01*
X50752Y-33681D01*
X50687Y-33707D01*
X50637Y-33757D01*
X50610Y-33822D01*
X50610Y-33893D01*
X50637Y-33958D01*
X50686Y-34008D01*
X50752Y-34035D01*
X50822Y-34035D01*
X50887Y-34008D01*
X50937Y-33958D01*
X50964Y-33893D01*
X50964Y-33823D01*
X50964Y-39547D01*
X50570Y-39547D01*
X50570Y-33823D01*
X50570Y-33429D01*
X50570Y-33035D01*
X50543Y-32970D01*
X50494Y-32920D01*
X50452Y-32903D01*
X50452Y-29476D01*
X50413Y-29382D01*
X50341Y-29310D01*
X50247Y-29271D01*
X50146Y-29271D01*
X50052Y-29310D01*
X49980Y-29382D01*
X49940Y-29476D01*
X49940Y-29578D01*
X49979Y-29672D01*
X50051Y-29744D01*
X50145Y-29783D01*
X50247Y-29783D01*
X50341Y-29744D01*
X50413Y-29672D01*
X50452Y-29578D01*
X50452Y-29476D01*
X50452Y-32903D01*
X50429Y-32893D01*
X50413Y-32893D01*
X50413Y-31650D01*
X50380Y-31570D01*
X50319Y-31509D01*
X50240Y-31476D01*
X50153Y-31476D01*
X50074Y-31509D01*
X50013Y-31570D01*
X49980Y-31649D01*
X49980Y-31735D01*
X50013Y-31815D01*
X50074Y-31876D01*
X50153Y-31909D01*
X50239Y-31909D01*
X50319Y-31876D01*
X50380Y-31815D01*
X50413Y-31736D01*
X50413Y-31650D01*
X50413Y-32893D01*
X50358Y-32893D01*
X50293Y-32920D01*
X50243Y-32970D01*
X50216Y-33035D01*
X50216Y-33105D01*
X50243Y-33171D01*
X50293Y-33220D01*
X50358Y-33248D01*
X50428Y-33248D01*
X50493Y-33221D01*
X50543Y-33171D01*
X50570Y-33106D01*
X50570Y-33035D01*
X50570Y-33429D01*
X50543Y-33364D01*
X50494Y-33314D01*
X50429Y-33287D01*
X50358Y-33287D01*
X50293Y-33314D01*
X50243Y-33364D01*
X50216Y-33429D01*
X50216Y-33499D01*
X50243Y-33564D01*
X50293Y-33614D01*
X50358Y-33641D01*
X50428Y-33641D01*
X50493Y-33614D01*
X50543Y-33565D01*
X50570Y-33499D01*
X50570Y-33429D01*
X50570Y-33823D01*
X50543Y-33758D01*
X50494Y-33708D01*
X50429Y-33681D01*
X50358Y-33681D01*
X50293Y-33707D01*
X50243Y-33757D01*
X50216Y-33822D01*
X50216Y-33893D01*
X50243Y-33958D01*
X50293Y-34008D01*
X50358Y-34035D01*
X50428Y-34035D01*
X50493Y-34008D01*
X50543Y-33958D01*
X50570Y-33893D01*
X50570Y-33823D01*
X50570Y-39547D01*
X49862Y-39547D01*
X49862Y-34398D01*
X49823Y-34304D01*
X49751Y-34231D01*
X49657Y-34192D01*
X49555Y-34192D01*
X49461Y-34231D01*
X49389Y-34303D01*
X49350Y-34397D01*
X49350Y-34499D01*
X49389Y-34593D01*
X49461Y-34665D01*
X49555Y-34704D01*
X49656Y-34704D01*
X49751Y-34665D01*
X49823Y-34593D01*
X49862Y-34499D01*
X49862Y-34398D01*
X49862Y-39547D01*
X48877Y-39547D01*
X48877Y-35874D01*
X48839Y-35780D01*
X48767Y-35708D01*
X48673Y-35669D01*
X48571Y-35669D01*
X48477Y-35708D01*
X48405Y-35780D01*
X48366Y-35874D01*
X48366Y-35975D01*
X48404Y-36069D01*
X48476Y-36142D01*
X48570Y-36181D01*
X48672Y-36181D01*
X48766Y-36142D01*
X48838Y-36070D01*
X48877Y-35976D01*
X48877Y-35874D01*
X48877Y-39547D01*
X47657Y-39547D01*
X47657Y-36109D01*
X47689Y-36142D01*
X47783Y-36181D01*
X47885Y-36181D01*
X47979Y-36142D01*
X48051Y-36070D01*
X48090Y-35976D01*
X48090Y-35874D01*
X48051Y-35780D01*
X47979Y-35708D01*
X47885Y-35669D01*
X47783Y-35669D01*
X47689Y-35708D01*
X47657Y-35740D01*
X47657Y-32381D01*
X48523Y-32381D01*
X48523Y-30610D01*
X48484Y-30610D01*
X48484Y-29476D01*
X48445Y-29382D01*
X48373Y-29310D01*
X48279Y-29271D01*
X48177Y-29271D01*
X48083Y-29310D01*
X48011Y-29382D01*
X47972Y-29476D01*
X47972Y-29578D01*
X48011Y-29672D01*
X48083Y-29744D01*
X48177Y-29783D01*
X48279Y-29783D01*
X48373Y-29744D01*
X48445Y-29672D01*
X48484Y-29578D01*
X48484Y-29476D01*
X48484Y-30610D01*
X47657Y-30610D01*
X47657Y-28759D01*
X53129Y-28759D01*
X53129Y-29271D01*
X53098Y-29271D01*
X53004Y-29310D01*
X52932Y-29382D01*
X52893Y-29476D01*
X52893Y-29578D01*
X52932Y-29672D01*
X52984Y-29724D01*
X52932Y-29776D01*
X52893Y-29870D01*
X52893Y-29971D01*
X52932Y-30066D01*
X52984Y-30118D01*
X52932Y-30169D01*
X52893Y-30263D01*
X52893Y-30365D01*
X52932Y-30459D01*
X53004Y-30531D01*
X53098Y-30570D01*
X53129Y-30570D01*
X53129Y-33236D01*
X53103Y-33247D01*
X53031Y-33319D01*
X52992Y-33413D01*
X52992Y-33515D01*
X53030Y-33609D01*
X53102Y-33681D01*
X53129Y-33692D01*
X53129Y-39547D01*
X53129Y-39547D01*
G37*
G54D20*
X53129Y-39547D02*
X52716Y-39547D01*
X52716Y-39220D01*
X52716Y-37646D01*
X52677Y-37552D01*
X52605Y-37480D01*
X52511Y-37440D01*
X52409Y-37440D01*
X52315Y-37479D01*
X52243Y-37551D01*
X52204Y-37645D01*
X52204Y-37747D01*
X52243Y-37841D01*
X52315Y-37913D01*
X52409Y-37952D01*
X52511Y-37952D01*
X52605Y-37913D01*
X52677Y-37841D01*
X52716Y-37747D01*
X52716Y-37646D01*
X52716Y-39220D01*
X52677Y-39126D01*
X52605Y-39054D01*
X52511Y-39015D01*
X52409Y-39015D01*
X52315Y-39054D01*
X52243Y-39126D01*
X52204Y-39220D01*
X52204Y-39322D01*
X52243Y-39416D01*
X52315Y-39488D01*
X52409Y-39527D01*
X52511Y-39527D01*
X52605Y-39488D01*
X52677Y-39416D01*
X52716Y-39322D01*
X52716Y-39220D01*
X52716Y-39547D01*
X51633Y-39547D01*
X51633Y-37350D01*
X51633Y-36366D01*
X51595Y-36272D01*
X51523Y-36200D01*
X51429Y-36161D01*
X51358Y-36161D01*
X51358Y-33823D01*
X51358Y-33429D01*
X51358Y-33035D01*
X51331Y-32970D01*
X51281Y-32920D01*
X51216Y-32893D01*
X51146Y-32893D01*
X51080Y-32920D01*
X51030Y-32970D01*
X51003Y-33035D01*
X51003Y-33105D01*
X51030Y-33171D01*
X51080Y-33220D01*
X51145Y-33248D01*
X51216Y-33248D01*
X51281Y-33221D01*
X51331Y-33171D01*
X51358Y-33106D01*
X51358Y-33035D01*
X51358Y-33429D01*
X51331Y-33364D01*
X51281Y-33314D01*
X51216Y-33287D01*
X51146Y-33287D01*
X51080Y-33314D01*
X51030Y-33364D01*
X51003Y-33429D01*
X51003Y-33499D01*
X51030Y-33564D01*
X51080Y-33614D01*
X51145Y-33641D01*
X51216Y-33641D01*
X51281Y-33614D01*
X51331Y-33565D01*
X51358Y-33499D01*
X51358Y-33429D01*
X51358Y-33823D01*
X51331Y-33758D01*
X51281Y-33708D01*
X51216Y-33681D01*
X51146Y-33681D01*
X51080Y-33707D01*
X51030Y-33757D01*
X51003Y-33822D01*
X51003Y-33893D01*
X51030Y-33958D01*
X51080Y-34008D01*
X51145Y-34035D01*
X51216Y-34035D01*
X51281Y-34008D01*
X51331Y-33958D01*
X51358Y-33893D01*
X51358Y-33823D01*
X51358Y-36161D01*
X51327Y-36161D01*
X51233Y-36200D01*
X51161Y-36272D01*
X51122Y-36366D01*
X51122Y-36468D01*
X51160Y-36562D01*
X51232Y-36634D01*
X51326Y-36673D01*
X51428Y-36673D01*
X51522Y-36634D01*
X51594Y-36562D01*
X51633Y-36468D01*
X51633Y-36366D01*
X51633Y-37350D01*
X51595Y-37256D01*
X51523Y-37184D01*
X51429Y-37145D01*
X51327Y-37145D01*
X51233Y-37184D01*
X51161Y-37256D01*
X51122Y-37350D01*
X51122Y-37452D01*
X51160Y-37546D01*
X51232Y-37618D01*
X51326Y-37657D01*
X51428Y-37657D01*
X51522Y-37618D01*
X51594Y-37546D01*
X51633Y-37452D01*
X51633Y-37350D01*
X51633Y-39547D01*
X50964Y-39547D01*
X50964Y-33823D01*
X50964Y-33429D01*
X50964Y-33035D01*
X50937Y-32970D01*
X50887Y-32920D01*
X50822Y-32893D01*
X50752Y-32893D01*
X50687Y-32920D01*
X50637Y-32970D01*
X50610Y-33035D01*
X50610Y-33105D01*
X50637Y-33171D01*
X50686Y-33220D01*
X50752Y-33248D01*
X50822Y-33248D01*
X50887Y-33221D01*
X50937Y-33171D01*
X50964Y-33106D01*
X50964Y-33035D01*
X50964Y-33429D01*
X50937Y-33364D01*
X50887Y-33314D01*
X50822Y-33287D01*
X50752Y-33287D01*
X50687Y-33314D01*
X50637Y-33364D01*
X50610Y-33429D01*
X50610Y-33499D01*
X50637Y-33564D01*
X50686Y-33614D01*
X50752Y-33641D01*
X50822Y-33641D01*
X50887Y-33614D01*
X50937Y-33565D01*
X50964Y-33499D01*
X50964Y-33429D01*
X50964Y-33823D01*
X50937Y-33758D01*
X50887Y-33708D01*
X50822Y-33681D01*
X50752Y-33681D01*
X50687Y-33707D01*
X50637Y-33757D01*
X50610Y-33822D01*
X50610Y-33893D01*
X50637Y-33958D01*
X50686Y-34008D01*
X50752Y-34035D01*
X50822Y-34035D01*
X50887Y-34008D01*
X50937Y-33958D01*
X50964Y-33893D01*
X50964Y-33823D01*
X50964Y-39547D01*
X50570Y-39547D01*
X50570Y-33823D01*
X50570Y-33429D01*
X50570Y-33035D01*
X50543Y-32970D01*
X50494Y-32920D01*
X50452Y-32903D01*
X50452Y-29476D01*
X50413Y-29382D01*
X50341Y-29310D01*
X50247Y-29271D01*
X50146Y-29271D01*
X50052Y-29310D01*
X49980Y-29382D01*
X49940Y-29476D01*
X49940Y-29578D01*
X49979Y-29672D01*
X50051Y-29744D01*
X50145Y-29783D01*
X50247Y-29783D01*
X50341Y-29744D01*
X50413Y-29672D01*
X50452Y-29578D01*
X50452Y-29476D01*
X50452Y-32903D01*
X50429Y-32893D01*
X50413Y-32893D01*
X50413Y-31650D01*
X50380Y-31570D01*
X50319Y-31509D01*
X50240Y-31476D01*
X50153Y-31476D01*
X50074Y-31509D01*
X50013Y-31570D01*
X49980Y-31649D01*
X49980Y-31735D01*
X50013Y-31815D01*
X50074Y-31876D01*
X50153Y-31909D01*
X50239Y-31909D01*
X50319Y-31876D01*
X50380Y-31815D01*
X50413Y-31736D01*
X50413Y-31650D01*
X50413Y-32893D01*
X50358Y-32893D01*
X50293Y-32920D01*
X50243Y-32970D01*
X50216Y-33035D01*
X50216Y-33105D01*
X50243Y-33171D01*
X50293Y-33220D01*
X50358Y-33248D01*
X50428Y-33248D01*
X50493Y-33221D01*
X50543Y-33171D01*
X50570Y-33106D01*
X50570Y-33035D01*
X50570Y-33429D01*
X50543Y-33364D01*
X50494Y-33314D01*
X50429Y-33287D01*
X50358Y-33287D01*
X50293Y-33314D01*
X50243Y-33364D01*
X50216Y-33429D01*
X50216Y-33499D01*
X50243Y-33564D01*
X50293Y-33614D01*
X50358Y-33641D01*
X50428Y-33641D01*
X50493Y-33614D01*
X50543Y-33565D01*
X50570Y-33499D01*
X50570Y-33429D01*
X50570Y-33823D01*
X50543Y-33758D01*
X50494Y-33708D01*
X50429Y-33681D01*
X50358Y-33681D01*
X50293Y-33707D01*
X50243Y-33757D01*
X50216Y-33822D01*
X50216Y-33893D01*
X50243Y-33958D01*
X50293Y-34008D01*
X50358Y-34035D01*
X50428Y-34035D01*
X50493Y-34008D01*
X50543Y-33958D01*
X50570Y-33893D01*
X50570Y-33823D01*
X50570Y-39547D01*
X49862Y-39547D01*
X49862Y-34398D01*
X49823Y-34304D01*
X49751Y-34231D01*
X49657Y-34192D01*
X49555Y-34192D01*
X49461Y-34231D01*
X49389Y-34303D01*
X49350Y-34397D01*
X49350Y-34499D01*
X49389Y-34593D01*
X49461Y-34665D01*
X49555Y-34704D01*
X49656Y-34704D01*
X49751Y-34665D01*
X49823Y-34593D01*
X49862Y-34499D01*
X49862Y-34398D01*
X49862Y-39547D01*
X48877Y-39547D01*
X48877Y-35874D01*
X48839Y-35780D01*
X48767Y-35708D01*
X48673Y-35669D01*
X48571Y-35669D01*
X48477Y-35708D01*
X48405Y-35780D01*
X48366Y-35874D01*
X48366Y-35975D01*
X48404Y-36069D01*
X48476Y-36142D01*
X48570Y-36181D01*
X48672Y-36181D01*
X48766Y-36142D01*
X48838Y-36070D01*
X48877Y-35976D01*
X48877Y-35874D01*
X48877Y-39547D01*
X47657Y-39547D01*
X47657Y-36109D01*
X47689Y-36142D01*
X47783Y-36181D01*
X47885Y-36181D01*
X47979Y-36142D01*
X48051Y-36070D01*
X48090Y-35976D01*
X48090Y-35874D01*
X48051Y-35780D01*
X47979Y-35708D01*
X47885Y-35669D01*
X47783Y-35669D01*
X47689Y-35708D01*
X47657Y-35740D01*
X47657Y-32381D01*
X48523Y-32381D01*
X48523Y-30610D01*
X48484Y-30610D01*
X48484Y-29476D01*
X48445Y-29382D01*
X48373Y-29310D01*
X48279Y-29271D01*
X48177Y-29271D01*
X48083Y-29310D01*
X48011Y-29382D01*
X47972Y-29476D01*
X47972Y-29578D01*
X48011Y-29672D01*
X48083Y-29744D01*
X48177Y-29783D01*
X48279Y-29783D01*
X48373Y-29744D01*
X48445Y-29672D01*
X48484Y-29578D01*
X48484Y-29476D01*
X48484Y-30610D01*
X47657Y-30610D01*
X47657Y-28759D01*
X53129Y-28759D01*
X53129Y-29271D01*
X53098Y-29271D01*
X53004Y-29310D01*
X52932Y-29382D01*
X52893Y-29476D01*
X52893Y-29578D01*
X52932Y-29672D01*
X52984Y-29724D01*
X52932Y-29776D01*
X52893Y-29870D01*
X52893Y-29971D01*
X52932Y-30066D01*
X52984Y-30118D01*
X52932Y-30169D01*
X52893Y-30263D01*
X52893Y-30365D01*
X52932Y-30459D01*
X53004Y-30531D01*
X53098Y-30570D01*
X53129Y-30570D01*
X53129Y-33236D01*
X53103Y-33247D01*
X53031Y-33319D01*
X52992Y-33413D01*
X52992Y-33515D01*
X53030Y-33609D01*
X53102Y-33681D01*
X53129Y-33692D01*
X53129Y-39547D01*
G54D10*
G36*
X75767Y-36594D02*
X75452Y-36594D01*
X75452Y-36169D01*
X75413Y-36075D01*
X75361Y-36023D01*
X75413Y-35971D01*
X75452Y-35877D01*
X75452Y-35776D01*
X75413Y-35682D01*
X75341Y-35609D01*
X75247Y-35570D01*
X75146Y-35570D01*
X75052Y-35609D01*
X74999Y-35661D01*
X74948Y-35609D01*
X74854Y-35570D01*
X74752Y-35570D01*
X74658Y-35609D01*
X74606Y-35661D01*
X74554Y-35609D01*
X74460Y-35570D01*
X74358Y-35570D01*
X74264Y-35609D01*
X74192Y-35681D01*
X74153Y-35775D01*
X74153Y-35877D01*
X74192Y-35971D01*
X74244Y-36023D01*
X74192Y-36075D01*
X74153Y-36169D01*
X74153Y-36271D01*
X74192Y-36365D01*
X74264Y-36437D01*
X74358Y-36476D01*
X74460Y-36476D01*
X74554Y-36437D01*
X74606Y-36385D01*
X74658Y-36437D01*
X74752Y-36476D01*
X74853Y-36476D01*
X74947Y-36437D01*
X75000Y-36385D01*
X75051Y-36437D01*
X75145Y-36476D01*
X75247Y-36476D01*
X75341Y-36437D01*
X75413Y-36365D01*
X75452Y-36271D01*
X75452Y-36169D01*
X75452Y-36594D01*
X73779Y-36594D01*
X73779Y-33709D01*
X73740Y-33615D01*
X73688Y-33562D01*
X73740Y-33511D01*
X73779Y-33417D01*
X73779Y-33315D01*
X73740Y-33221D01*
X73688Y-33169D01*
X73740Y-33117D01*
X73779Y-33023D01*
X73779Y-32921D01*
X73740Y-32827D01*
X73668Y-32755D01*
X73574Y-32716D01*
X73484Y-32716D01*
X73484Y-31839D01*
X73445Y-31744D01*
X73393Y-31692D01*
X73445Y-31641D01*
X73484Y-31547D01*
X73484Y-31445D01*
X73445Y-31351D01*
X73373Y-31279D01*
X73279Y-31240D01*
X73177Y-31240D01*
X73083Y-31278D01*
X73011Y-31350D01*
X72972Y-31444D01*
X72972Y-31546D01*
X73011Y-31640D01*
X73063Y-31692D01*
X73011Y-31744D01*
X72972Y-31838D01*
X72972Y-31940D01*
X73011Y-32034D01*
X73083Y-32106D01*
X73177Y-32145D01*
X73279Y-32145D01*
X73373Y-32106D01*
X73445Y-32034D01*
X73484Y-31940D01*
X73484Y-31839D01*
X73484Y-32716D01*
X73472Y-32716D01*
X73378Y-32755D01*
X73326Y-32807D01*
X73275Y-32755D01*
X73181Y-32716D01*
X73079Y-32716D01*
X72985Y-32755D01*
X72913Y-32827D01*
X72874Y-32921D01*
X72873Y-33023D01*
X72912Y-33117D01*
X72964Y-33169D01*
X72913Y-33220D01*
X72874Y-33315D01*
X72873Y-33416D01*
X72912Y-33510D01*
X72964Y-33563D01*
X72913Y-33614D01*
X72874Y-33708D01*
X72873Y-33810D01*
X72912Y-33904D01*
X72984Y-33976D01*
X73078Y-34015D01*
X73180Y-34015D01*
X73274Y-33976D01*
X73326Y-33924D01*
X73378Y-33976D01*
X73472Y-34015D01*
X73574Y-34015D01*
X73668Y-33976D01*
X73740Y-33904D01*
X73779Y-33810D01*
X73779Y-33709D01*
X73779Y-36594D01*
X72854Y-36594D01*
X72854Y-31854D01*
X72827Y-31789D01*
X72777Y-31739D01*
X72755Y-31730D01*
X72755Y-29976D01*
X72723Y-29897D01*
X72662Y-29836D01*
X72582Y-29803D01*
X72496Y-29803D01*
X72416Y-29836D01*
X72355Y-29896D01*
X72322Y-29976D01*
X72322Y-30062D01*
X72355Y-30142D01*
X72416Y-30203D01*
X72496Y-30236D01*
X72582Y-30236D01*
X72661Y-30203D01*
X72722Y-30142D01*
X72755Y-30062D01*
X72755Y-29976D01*
X72755Y-31730D01*
X72712Y-31712D01*
X72642Y-31712D01*
X72576Y-31739D01*
X72559Y-31757D01*
X72541Y-31739D01*
X72476Y-31712D01*
X72405Y-31712D01*
X72340Y-31739D01*
X72322Y-31757D01*
X72305Y-31739D01*
X72240Y-31712D01*
X72169Y-31712D01*
X72106Y-31738D01*
X72106Y-29476D01*
X72067Y-29382D01*
X71995Y-29310D01*
X71901Y-29271D01*
X71799Y-29271D01*
X71705Y-29310D01*
X71633Y-29382D01*
X71594Y-29476D01*
X71594Y-29578D01*
X71633Y-29672D01*
X71705Y-29744D01*
X71799Y-29783D01*
X71901Y-29783D01*
X71995Y-29744D01*
X72067Y-29672D01*
X72106Y-29578D01*
X72106Y-29476D01*
X72106Y-31738D01*
X72104Y-31739D01*
X72054Y-31789D01*
X72027Y-31854D01*
X72027Y-31924D01*
X72054Y-31989D01*
X72104Y-32039D01*
X72169Y-32066D01*
X72239Y-32066D01*
X72304Y-32040D01*
X72322Y-32022D01*
X72340Y-32039D01*
X72405Y-32066D01*
X72476Y-32066D01*
X72541Y-32040D01*
X72559Y-32022D01*
X72576Y-32039D01*
X72641Y-32066D01*
X72712Y-32066D01*
X72777Y-32040D01*
X72827Y-31990D01*
X72854Y-31925D01*
X72854Y-31854D01*
X72854Y-36594D01*
X71909Y-36594D01*
X71909Y-32232D01*
X71870Y-32138D01*
X71818Y-32086D01*
X71870Y-32034D01*
X71909Y-31940D01*
X71909Y-31839D01*
X71870Y-31744D01*
X71818Y-31692D01*
X71870Y-31641D01*
X71909Y-31547D01*
X71909Y-31445D01*
X71870Y-31351D01*
X71798Y-31279D01*
X71704Y-31240D01*
X71602Y-31240D01*
X71508Y-31278D01*
X71436Y-31350D01*
X71397Y-31444D01*
X71397Y-31546D01*
X71436Y-31640D01*
X71488Y-31692D01*
X71436Y-31744D01*
X71397Y-31838D01*
X71397Y-31940D01*
X71436Y-32034D01*
X71488Y-32086D01*
X71436Y-32138D01*
X71397Y-32232D01*
X71397Y-32334D01*
X71436Y-32428D01*
X71508Y-32500D01*
X71602Y-32539D01*
X71704Y-32539D01*
X71798Y-32500D01*
X71870Y-32428D01*
X71909Y-32334D01*
X71909Y-32232D01*
X71909Y-36594D01*
X71028Y-36594D01*
X71028Y-29726D01*
X70918Y-29460D01*
X70715Y-29257D01*
X70449Y-29146D01*
X70161Y-29146D01*
X69895Y-29256D01*
X69692Y-29459D01*
X69581Y-29725D01*
X69581Y-30013D01*
X69691Y-30279D01*
X69894Y-30483D01*
X70160Y-30593D01*
X70448Y-30593D01*
X70714Y-30483D01*
X70918Y-30280D01*
X71028Y-30014D01*
X71028Y-29726D01*
X71028Y-36594D01*
X70295Y-36594D01*
X70295Y-31453D01*
X70262Y-31373D01*
X70201Y-31312D01*
X70122Y-31279D01*
X70035Y-31279D01*
X69956Y-31312D01*
X69895Y-31373D01*
X69862Y-31452D01*
X69862Y-31538D01*
X69895Y-31618D01*
X69955Y-31679D01*
X70035Y-31712D01*
X70121Y-31712D01*
X70201Y-31679D01*
X70262Y-31618D01*
X70295Y-31539D01*
X70295Y-31453D01*
X70295Y-36594D01*
X68738Y-36594D01*
X68738Y-30284D01*
X68738Y-29284D01*
X68672Y-29125D01*
X68550Y-29003D01*
X68391Y-28937D01*
X68219Y-28936D01*
X68060Y-29002D01*
X67938Y-29124D01*
X67872Y-29283D01*
X67871Y-29455D01*
X67937Y-29615D01*
X68059Y-29737D01*
X68218Y-29803D01*
X68390Y-29803D01*
X68550Y-29737D01*
X68672Y-29615D01*
X68738Y-29456D01*
X68738Y-29284D01*
X68738Y-30284D01*
X68672Y-30125D01*
X68550Y-30003D01*
X68391Y-29937D01*
X68219Y-29936D01*
X68060Y-30002D01*
X67938Y-30124D01*
X67872Y-30283D01*
X67871Y-30455D01*
X67937Y-30615D01*
X68059Y-30737D01*
X68218Y-30803D01*
X68390Y-30803D01*
X68550Y-30737D01*
X68672Y-30615D01*
X68738Y-30456D01*
X68738Y-30284D01*
X68738Y-36594D01*
X68563Y-36594D01*
X68563Y-34890D01*
X68524Y-34796D01*
X68452Y-34724D01*
X68358Y-34685D01*
X68256Y-34684D01*
X68162Y-34723D01*
X68090Y-34795D01*
X68051Y-34889D01*
X68051Y-34991D01*
X68090Y-35085D01*
X68161Y-35157D01*
X68255Y-35196D01*
X68357Y-35196D01*
X68451Y-35158D01*
X68523Y-35086D01*
X68562Y-34992D01*
X68563Y-34890D01*
X68563Y-36594D01*
X67972Y-36594D01*
X67972Y-35382D01*
X67933Y-35288D01*
X67861Y-35216D01*
X67767Y-35177D01*
X67741Y-35177D01*
X67741Y-30434D01*
X67741Y-29434D01*
X67733Y-29262D01*
X67684Y-29143D01*
X67626Y-29104D01*
X67570Y-29160D01*
X67570Y-29048D01*
X67531Y-28991D01*
X67369Y-28933D01*
X67197Y-28941D01*
X67078Y-28991D01*
X67039Y-29048D01*
X67305Y-29314D01*
X67570Y-29048D01*
X67570Y-29160D01*
X67360Y-29370D01*
X67626Y-29635D01*
X67684Y-29596D01*
X67741Y-29434D01*
X67741Y-30434D01*
X67733Y-30262D01*
X67684Y-30143D01*
X67626Y-30104D01*
X67570Y-30160D01*
X67570Y-30048D01*
X67570Y-29691D01*
X67305Y-29425D01*
X67249Y-29481D01*
X67249Y-29370D01*
X66983Y-29104D01*
X66926Y-29143D01*
X66868Y-29305D01*
X66876Y-29477D01*
X66926Y-29596D01*
X66983Y-29635D01*
X67249Y-29370D01*
X67249Y-29481D01*
X67039Y-29691D01*
X67078Y-29749D01*
X67240Y-29806D01*
X67412Y-29798D01*
X67531Y-29749D01*
X67570Y-29691D01*
X67570Y-30048D01*
X67531Y-29991D01*
X67369Y-29933D01*
X67197Y-29941D01*
X67078Y-29991D01*
X67039Y-30048D01*
X67305Y-30314D01*
X67570Y-30048D01*
X67570Y-30160D01*
X67360Y-30370D01*
X67626Y-30635D01*
X67684Y-30596D01*
X67741Y-30434D01*
X67741Y-35177D01*
X67665Y-35177D01*
X67571Y-35215D01*
X67570Y-35216D01*
X67570Y-30691D01*
X67305Y-30425D01*
X67249Y-30481D01*
X67249Y-30370D01*
X66983Y-30104D01*
X66926Y-30143D01*
X66868Y-30305D01*
X66876Y-30477D01*
X66926Y-30596D01*
X66983Y-30635D01*
X67249Y-30370D01*
X67249Y-30481D01*
X67039Y-30691D01*
X67078Y-30749D01*
X67240Y-30806D01*
X67412Y-30798D01*
X67531Y-30749D01*
X67570Y-30691D01*
X67570Y-35216D01*
X67499Y-35287D01*
X67460Y-35381D01*
X67460Y-35483D01*
X67499Y-35577D01*
X67571Y-35649D01*
X67665Y-35688D01*
X67767Y-35689D01*
X67861Y-35650D01*
X67933Y-35578D01*
X67972Y-35484D01*
X67972Y-35382D01*
X67972Y-36594D01*
X67893Y-36594D01*
X67893Y-37106D01*
X67381Y-37106D01*
X67381Y-34890D01*
X67381Y-32035D01*
X67381Y-31248D01*
X67343Y-31154D01*
X67271Y-31082D01*
X67177Y-31043D01*
X67075Y-31043D01*
X66988Y-31079D01*
X66988Y-30776D01*
X66949Y-30682D01*
X66877Y-30609D01*
X66783Y-30570D01*
X66690Y-30570D01*
X66738Y-30456D01*
X66738Y-30284D01*
X66738Y-29284D01*
X66672Y-29125D01*
X66550Y-29003D01*
X66391Y-28937D01*
X66219Y-28936D01*
X66060Y-29002D01*
X65938Y-29124D01*
X65872Y-29283D01*
X65871Y-29455D01*
X65937Y-29615D01*
X66059Y-29737D01*
X66218Y-29803D01*
X66390Y-29803D01*
X66550Y-29737D01*
X66672Y-29615D01*
X66738Y-29456D01*
X66738Y-29284D01*
X66738Y-30284D01*
X66672Y-30125D01*
X66550Y-30003D01*
X66391Y-29937D01*
X66219Y-29936D01*
X66060Y-30002D01*
X65938Y-30124D01*
X65872Y-30283D01*
X65871Y-30455D01*
X65937Y-30615D01*
X66059Y-30737D01*
X66218Y-30803D01*
X66390Y-30803D01*
X66480Y-30766D01*
X66476Y-30775D01*
X66476Y-30877D01*
X66515Y-30971D01*
X66587Y-31043D01*
X66681Y-31082D01*
X66782Y-31082D01*
X66877Y-31043D01*
X66949Y-30971D01*
X66988Y-30877D01*
X66988Y-30776D01*
X66988Y-31079D01*
X66981Y-31082D01*
X66909Y-31154D01*
X66870Y-31248D01*
X66870Y-31349D01*
X66908Y-31443D01*
X66980Y-31516D01*
X67074Y-31555D01*
X67176Y-31555D01*
X67270Y-31516D01*
X67342Y-31444D01*
X67381Y-31350D01*
X67381Y-31248D01*
X67381Y-32035D01*
X67343Y-31941D01*
X67271Y-31869D01*
X67177Y-31830D01*
X67075Y-31830D01*
X66981Y-31869D01*
X66909Y-31941D01*
X66870Y-32035D01*
X66870Y-32137D01*
X66908Y-32231D01*
X66980Y-32303D01*
X67074Y-32342D01*
X67176Y-32342D01*
X67270Y-32303D01*
X67342Y-32231D01*
X67381Y-32137D01*
X67381Y-32035D01*
X67381Y-34890D01*
X67343Y-34796D01*
X67271Y-34724D01*
X67177Y-34685D01*
X67075Y-34684D01*
X66981Y-34723D01*
X66909Y-34795D01*
X66870Y-34889D01*
X66870Y-34991D01*
X66908Y-35085D01*
X66980Y-35157D01*
X67074Y-35196D01*
X67176Y-35196D01*
X67270Y-35158D01*
X67342Y-35086D01*
X67381Y-34992D01*
X67381Y-34890D01*
X67381Y-37106D01*
X66791Y-37106D01*
X66791Y-32528D01*
X66752Y-32433D01*
X66680Y-32361D01*
X66586Y-32322D01*
X66484Y-32322D01*
X66390Y-32361D01*
X66318Y-32433D01*
X66279Y-32527D01*
X66279Y-32629D01*
X66318Y-32723D01*
X66390Y-32795D01*
X66484Y-32834D01*
X66586Y-32834D01*
X66680Y-32795D01*
X66752Y-32723D01*
X66791Y-32629D01*
X66791Y-32528D01*
X66791Y-37106D01*
X66240Y-37106D01*
X66240Y-31248D01*
X66201Y-31154D01*
X66129Y-31082D01*
X66035Y-31043D01*
X65933Y-31043D01*
X65839Y-31082D01*
X65767Y-31153D01*
X65738Y-31124D01*
X65738Y-30284D01*
X65738Y-29284D01*
X65672Y-29125D01*
X65550Y-29003D01*
X65391Y-28937D01*
X65219Y-28936D01*
X65060Y-29002D01*
X64938Y-29124D01*
X64872Y-29283D01*
X64871Y-29455D01*
X64937Y-29615D01*
X65059Y-29737D01*
X65218Y-29803D01*
X65390Y-29803D01*
X65550Y-29737D01*
X65672Y-29615D01*
X65738Y-29456D01*
X65738Y-29284D01*
X65738Y-30284D01*
X65672Y-30125D01*
X65550Y-30003D01*
X65391Y-29937D01*
X65219Y-29936D01*
X65060Y-30002D01*
X64938Y-30124D01*
X64872Y-30283D01*
X64871Y-30455D01*
X64937Y-30615D01*
X65059Y-30737D01*
X65218Y-30803D01*
X65390Y-30803D01*
X65550Y-30737D01*
X65672Y-30615D01*
X65738Y-30456D01*
X65738Y-30284D01*
X65738Y-31124D01*
X65696Y-31082D01*
X65602Y-31043D01*
X65500Y-31043D01*
X65406Y-31082D01*
X65334Y-31154D01*
X65295Y-31248D01*
X65295Y-31349D01*
X65334Y-31443D01*
X65406Y-31516D01*
X65500Y-31555D01*
X65601Y-31555D01*
X65695Y-31516D01*
X65767Y-31444D01*
X65839Y-31516D01*
X65933Y-31555D01*
X66034Y-31555D01*
X66129Y-31516D01*
X66201Y-31444D01*
X66240Y-31350D01*
X66240Y-31248D01*
X66240Y-37106D01*
X66200Y-37106D01*
X66200Y-32035D01*
X66161Y-31941D01*
X66090Y-31869D01*
X65996Y-31830D01*
X65894Y-31830D01*
X65800Y-31869D01*
X65748Y-31921D01*
X65696Y-31869D01*
X65602Y-31830D01*
X65500Y-31830D01*
X65406Y-31869D01*
X65334Y-31941D01*
X65295Y-32035D01*
X65295Y-32137D01*
X65334Y-32231D01*
X65406Y-32303D01*
X65500Y-32342D01*
X65601Y-32342D01*
X65695Y-32303D01*
X65748Y-32251D01*
X65799Y-32303D01*
X65893Y-32342D01*
X65995Y-32342D01*
X66089Y-32303D01*
X66161Y-32231D01*
X66200Y-32137D01*
X66200Y-32035D01*
X66200Y-37106D01*
X65216Y-37106D01*
X65216Y-32528D01*
X65177Y-32433D01*
X65105Y-32361D01*
X65019Y-32326D01*
X65019Y-30756D01*
X64980Y-30662D01*
X64908Y-30590D01*
X64814Y-30551D01*
X64713Y-30551D01*
X64695Y-30558D01*
X64738Y-30456D01*
X64738Y-30284D01*
X64738Y-29284D01*
X64672Y-29125D01*
X64550Y-29003D01*
X64391Y-28937D01*
X64219Y-28936D01*
X64060Y-29002D01*
X63938Y-29124D01*
X63872Y-29283D01*
X63871Y-29455D01*
X63937Y-29615D01*
X64059Y-29737D01*
X64218Y-29803D01*
X64390Y-29803D01*
X64550Y-29737D01*
X64672Y-29615D01*
X64738Y-29456D01*
X64738Y-29284D01*
X64738Y-30284D01*
X64672Y-30125D01*
X64550Y-30003D01*
X64391Y-29937D01*
X64219Y-29936D01*
X64060Y-30002D01*
X63938Y-30124D01*
X63872Y-30283D01*
X63871Y-30455D01*
X63937Y-30615D01*
X64059Y-30737D01*
X64218Y-30803D01*
X64390Y-30803D01*
X64508Y-30754D01*
X64507Y-30755D01*
X64507Y-30857D01*
X64546Y-30951D01*
X64618Y-31023D01*
X64712Y-31062D01*
X64814Y-31063D01*
X64908Y-31024D01*
X64980Y-30952D01*
X65019Y-30858D01*
X65019Y-30756D01*
X65019Y-32326D01*
X65011Y-32322D01*
X64909Y-32322D01*
X64815Y-32361D01*
X64743Y-32433D01*
X64704Y-32527D01*
X64704Y-32629D01*
X64743Y-32723D01*
X64815Y-32795D01*
X64909Y-32834D01*
X65011Y-32834D01*
X65105Y-32795D01*
X65177Y-32723D01*
X65216Y-32629D01*
X65216Y-32528D01*
X65216Y-37106D01*
X65177Y-37106D01*
X65177Y-35291D01*
X65144Y-35212D01*
X65083Y-35151D01*
X65003Y-35118D01*
X64917Y-35118D01*
X64838Y-35150D01*
X64777Y-35211D01*
X64744Y-35291D01*
X64744Y-35377D01*
X64776Y-35457D01*
X64837Y-35518D01*
X64917Y-35551D01*
X65003Y-35551D01*
X65083Y-35518D01*
X65144Y-35457D01*
X65177Y-35377D01*
X65177Y-35291D01*
X65177Y-37106D01*
X64626Y-37106D01*
X64626Y-32035D01*
X64626Y-31248D01*
X64587Y-31154D01*
X64515Y-31082D01*
X64421Y-31043D01*
X64319Y-31043D01*
X64225Y-31082D01*
X64153Y-31154D01*
X64114Y-31248D01*
X64114Y-31349D01*
X64153Y-31443D01*
X64224Y-31516D01*
X64318Y-31555D01*
X64420Y-31555D01*
X64514Y-31516D01*
X64586Y-31444D01*
X64625Y-31350D01*
X64626Y-31248D01*
X64626Y-32035D01*
X64587Y-31941D01*
X64515Y-31869D01*
X64421Y-31830D01*
X64319Y-31830D01*
X64225Y-31869D01*
X64153Y-31941D01*
X64114Y-32035D01*
X64114Y-32137D01*
X64153Y-32231D01*
X64224Y-32303D01*
X64318Y-32342D01*
X64420Y-32342D01*
X64514Y-32303D01*
X64586Y-32231D01*
X64625Y-32137D01*
X64626Y-32035D01*
X64626Y-37106D01*
X64389Y-37106D01*
X64389Y-34602D01*
X64356Y-34523D01*
X64296Y-34462D01*
X64216Y-34429D01*
X64130Y-34429D01*
X64050Y-34461D01*
X63989Y-34522D01*
X63956Y-34602D01*
X63956Y-34688D01*
X63989Y-34768D01*
X64050Y-34829D01*
X64129Y-34862D01*
X64216Y-34862D01*
X64295Y-34829D01*
X64356Y-34768D01*
X64389Y-34688D01*
X64389Y-34602D01*
X64389Y-37106D01*
X63973Y-37106D01*
X63996Y-37051D01*
X63996Y-36964D01*
X63963Y-36885D01*
X63902Y-36824D01*
X63822Y-36791D01*
X63738Y-36791D01*
X63738Y-30284D01*
X63738Y-29284D01*
X63672Y-29125D01*
X63550Y-29003D01*
X63391Y-28937D01*
X63219Y-28936D01*
X63060Y-29002D01*
X62938Y-29124D01*
X62872Y-29283D01*
X62871Y-29455D01*
X62937Y-29615D01*
X63059Y-29737D01*
X63218Y-29803D01*
X63390Y-29803D01*
X63550Y-29737D01*
X63672Y-29615D01*
X63738Y-29456D01*
X63738Y-29284D01*
X63738Y-30284D01*
X63672Y-30125D01*
X63550Y-30003D01*
X63391Y-29937D01*
X63219Y-29936D01*
X63060Y-30002D01*
X62938Y-30124D01*
X62872Y-30283D01*
X62871Y-30455D01*
X62937Y-30615D01*
X63059Y-30737D01*
X63218Y-30803D01*
X63390Y-30803D01*
X63550Y-30737D01*
X63672Y-30615D01*
X63738Y-30456D01*
X63738Y-30284D01*
X63738Y-36791D01*
X63736Y-36791D01*
X63657Y-36824D01*
X63602Y-36878D01*
X63602Y-35783D01*
X63569Y-35704D01*
X63508Y-35643D01*
X63429Y-35610D01*
X63342Y-35610D01*
X63263Y-35643D01*
X63208Y-35697D01*
X63208Y-34602D01*
X63175Y-34523D01*
X63114Y-34462D01*
X63035Y-34429D01*
X62949Y-34429D01*
X62869Y-34461D01*
X62808Y-34522D01*
X62775Y-34602D01*
X62775Y-34688D01*
X62808Y-34768D01*
X62869Y-34829D01*
X62948Y-34862D01*
X63035Y-34862D01*
X63114Y-34829D01*
X63175Y-34768D01*
X63208Y-34688D01*
X63208Y-34602D01*
X63208Y-35697D01*
X63202Y-35703D01*
X63169Y-35783D01*
X63169Y-35869D01*
X63202Y-35949D01*
X63263Y-36010D01*
X63342Y-36043D01*
X63428Y-36043D01*
X63508Y-36010D01*
X63569Y-35949D01*
X63602Y-35870D01*
X63602Y-35783D01*
X63602Y-36878D01*
X63596Y-36885D01*
X63563Y-36964D01*
X63562Y-37050D01*
X63585Y-37106D01*
X62738Y-37106D01*
X62738Y-30284D01*
X62738Y-29284D01*
X62672Y-29125D01*
X62550Y-29003D01*
X62391Y-28937D01*
X62219Y-28936D01*
X62060Y-29002D01*
X61938Y-29124D01*
X61872Y-29283D01*
X61871Y-29455D01*
X61937Y-29615D01*
X62059Y-29737D01*
X62218Y-29803D01*
X62390Y-29803D01*
X62550Y-29737D01*
X62672Y-29615D01*
X62738Y-29456D01*
X62738Y-29284D01*
X62738Y-30284D01*
X62672Y-30125D01*
X62550Y-30003D01*
X62391Y-29937D01*
X62219Y-29936D01*
X62060Y-30002D01*
X61938Y-30124D01*
X61872Y-30283D01*
X61871Y-30455D01*
X61937Y-30615D01*
X62059Y-30737D01*
X62218Y-30803D01*
X62390Y-30803D01*
X62550Y-30737D01*
X62672Y-30615D01*
X62738Y-30456D01*
X62738Y-30284D01*
X62738Y-37106D01*
X62500Y-37106D01*
X62500Y-36318D01*
X62398Y-36318D01*
X62421Y-36263D01*
X62421Y-36177D01*
X62421Y-35390D01*
X62388Y-35310D01*
X62327Y-35249D01*
X62247Y-35216D01*
X62161Y-35216D01*
X62082Y-35249D01*
X62021Y-35310D01*
X61988Y-35389D01*
X61988Y-35475D01*
X62021Y-35555D01*
X62081Y-35616D01*
X62161Y-35649D01*
X62247Y-35649D01*
X62327Y-35616D01*
X62388Y-35555D01*
X62421Y-35476D01*
X62421Y-35390D01*
X62421Y-36177D01*
X62388Y-36097D01*
X62327Y-36037D01*
X62247Y-36003D01*
X62161Y-36003D01*
X62082Y-36036D01*
X62021Y-36097D01*
X61988Y-36177D01*
X61988Y-36263D01*
X62011Y-36318D01*
X61738Y-36318D01*
X61738Y-30284D01*
X61738Y-29284D01*
X61672Y-29125D01*
X61550Y-29003D01*
X61391Y-28937D01*
X61219Y-28936D01*
X61060Y-29002D01*
X60938Y-29124D01*
X60872Y-29283D01*
X60871Y-29455D01*
X60937Y-29615D01*
X61059Y-29737D01*
X61218Y-29803D01*
X61390Y-29803D01*
X61550Y-29737D01*
X61672Y-29615D01*
X61738Y-29456D01*
X61738Y-29284D01*
X61738Y-30284D01*
X61672Y-30125D01*
X61550Y-30003D01*
X61391Y-29937D01*
X61219Y-29936D01*
X61060Y-30002D01*
X60938Y-30124D01*
X60872Y-30283D01*
X60871Y-30455D01*
X60937Y-30615D01*
X61059Y-30737D01*
X61218Y-30803D01*
X61390Y-30803D01*
X61550Y-30737D01*
X61672Y-30615D01*
X61738Y-30456D01*
X61738Y-30284D01*
X61738Y-36318D01*
X61610Y-36318D01*
X61633Y-36263D01*
X61633Y-36177D01*
X61633Y-35390D01*
X61600Y-35310D01*
X61540Y-35249D01*
X61507Y-35236D01*
X61539Y-35223D01*
X61600Y-35162D01*
X61633Y-35082D01*
X61633Y-34996D01*
X61600Y-34916D01*
X61540Y-34855D01*
X61460Y-34822D01*
X61374Y-34822D01*
X61294Y-34855D01*
X61233Y-34916D01*
X61200Y-34996D01*
X61200Y-35082D01*
X61233Y-35161D01*
X61294Y-35222D01*
X61326Y-35236D01*
X61294Y-35249D01*
X61233Y-35310D01*
X61200Y-35389D01*
X61200Y-35475D01*
X61233Y-35555D01*
X61294Y-35616D01*
X61374Y-35649D01*
X61460Y-35649D01*
X61539Y-35616D01*
X61600Y-35555D01*
X61633Y-35476D01*
X61633Y-35390D01*
X61633Y-36177D01*
X61600Y-36097D01*
X61540Y-36037D01*
X61460Y-36003D01*
X61374Y-36003D01*
X61294Y-36036D01*
X61233Y-36097D01*
X61200Y-36177D01*
X61200Y-36263D01*
X61223Y-36318D01*
X60846Y-36318D01*
X60846Y-35783D01*
X60813Y-35704D01*
X60752Y-35643D01*
X60738Y-35637D01*
X60738Y-30284D01*
X60738Y-29284D01*
X60672Y-29125D01*
X60550Y-29003D01*
X60391Y-28937D01*
X60219Y-28936D01*
X60060Y-29002D01*
X59938Y-29124D01*
X59872Y-29283D01*
X59871Y-29455D01*
X59937Y-29615D01*
X60059Y-29737D01*
X60218Y-29803D01*
X60390Y-29803D01*
X60550Y-29737D01*
X60672Y-29615D01*
X60738Y-29456D01*
X60738Y-29284D01*
X60738Y-30284D01*
X60672Y-30125D01*
X60550Y-30003D01*
X60391Y-29937D01*
X60219Y-29936D01*
X60060Y-30002D01*
X59938Y-30124D01*
X59872Y-30283D01*
X59871Y-30455D01*
X59937Y-30615D01*
X60059Y-30737D01*
X60218Y-30803D01*
X60390Y-30803D01*
X60550Y-30737D01*
X60672Y-30615D01*
X60738Y-30456D01*
X60738Y-30284D01*
X60738Y-35637D01*
X60673Y-35610D01*
X60587Y-35610D01*
X60507Y-35643D01*
X60452Y-35697D01*
X60452Y-34209D01*
X60419Y-34129D01*
X60359Y-34068D01*
X60279Y-34035D01*
X60193Y-34035D01*
X60113Y-34068D01*
X60052Y-34129D01*
X60019Y-34208D01*
X60019Y-34294D01*
X60052Y-34374D01*
X60113Y-34435D01*
X60192Y-34468D01*
X60279Y-34468D01*
X60358Y-34435D01*
X60419Y-34374D01*
X60452Y-34295D01*
X60452Y-34209D01*
X60452Y-35697D01*
X60446Y-35703D01*
X60433Y-35736D01*
X60419Y-35704D01*
X60359Y-35643D01*
X60279Y-35610D01*
X60193Y-35610D01*
X60113Y-35643D01*
X60052Y-35703D01*
X60019Y-35783D01*
X60019Y-35869D01*
X60052Y-35949D01*
X60113Y-36010D01*
X60192Y-36043D01*
X60279Y-36043D01*
X60358Y-36010D01*
X60419Y-35949D01*
X60433Y-35917D01*
X60446Y-35949D01*
X60507Y-36010D01*
X60586Y-36043D01*
X60672Y-36043D01*
X60752Y-36010D01*
X60813Y-35949D01*
X60846Y-35870D01*
X60846Y-35783D01*
X60846Y-36318D01*
X60036Y-36318D01*
X60059Y-36263D01*
X60059Y-36177D01*
X60026Y-36097D01*
X59965Y-36037D01*
X59885Y-36003D01*
X59799Y-36003D01*
X59738Y-36029D01*
X59738Y-30284D01*
X59738Y-29284D01*
X59672Y-29125D01*
X59550Y-29003D01*
X59391Y-28937D01*
X59219Y-28936D01*
X59060Y-29002D01*
X58938Y-29124D01*
X58872Y-29283D01*
X58871Y-29455D01*
X58937Y-29615D01*
X59059Y-29737D01*
X59218Y-29803D01*
X59390Y-29803D01*
X59550Y-29737D01*
X59672Y-29615D01*
X59738Y-29456D01*
X59738Y-29284D01*
X59738Y-30284D01*
X59672Y-30125D01*
X59550Y-30003D01*
X59391Y-29937D01*
X59219Y-29936D01*
X59060Y-30002D01*
X58938Y-30124D01*
X58872Y-30283D01*
X58871Y-30455D01*
X58937Y-30615D01*
X59059Y-30737D01*
X59218Y-30803D01*
X59390Y-30803D01*
X59550Y-30737D01*
X59672Y-30615D01*
X59738Y-30456D01*
X59738Y-30284D01*
X59738Y-36029D01*
X59720Y-36036D01*
X59659Y-36097D01*
X59626Y-36177D01*
X59625Y-36263D01*
X59648Y-36318D01*
X59547Y-36318D01*
X59547Y-36420D01*
X59492Y-36397D01*
X59468Y-36397D01*
X59468Y-32043D01*
X59435Y-31964D01*
X59374Y-31903D01*
X59295Y-31870D01*
X59209Y-31870D01*
X59129Y-31902D01*
X59068Y-31963D01*
X59035Y-32043D01*
X59035Y-32129D01*
X59068Y-32209D01*
X59129Y-32270D01*
X59208Y-32303D01*
X59294Y-32303D01*
X59374Y-32270D01*
X59435Y-32209D01*
X59468Y-32129D01*
X59468Y-32043D01*
X59468Y-36397D01*
X59405Y-36397D01*
X59326Y-36430D01*
X59271Y-36485D01*
X59271Y-35783D01*
X59238Y-35704D01*
X59177Y-35643D01*
X59145Y-35629D01*
X59177Y-35616D01*
X59238Y-35555D01*
X59271Y-35476D01*
X59271Y-35390D01*
X59238Y-35310D01*
X59177Y-35249D01*
X59098Y-35216D01*
X59012Y-35216D01*
X58932Y-35249D01*
X58877Y-35303D01*
X58877Y-34602D01*
X58845Y-34523D01*
X58784Y-34462D01*
X58738Y-34443D01*
X58738Y-30284D01*
X58738Y-29284D01*
X58672Y-29125D01*
X58550Y-29003D01*
X58391Y-28937D01*
X58219Y-28936D01*
X58060Y-29002D01*
X57938Y-29124D01*
X57872Y-29283D01*
X57871Y-29455D01*
X57937Y-29615D01*
X58059Y-29737D01*
X58218Y-29803D01*
X58390Y-29803D01*
X58550Y-29737D01*
X58672Y-29615D01*
X58738Y-29456D01*
X58738Y-29284D01*
X58738Y-30284D01*
X58672Y-30125D01*
X58550Y-30003D01*
X58391Y-29937D01*
X58219Y-29936D01*
X58060Y-30002D01*
X57938Y-30124D01*
X57872Y-30283D01*
X57871Y-30455D01*
X57937Y-30615D01*
X58059Y-30737D01*
X58218Y-30803D01*
X58390Y-30803D01*
X58550Y-30737D01*
X58672Y-30615D01*
X58738Y-30456D01*
X58738Y-30284D01*
X58738Y-34443D01*
X58704Y-34429D01*
X58618Y-34429D01*
X58538Y-34461D01*
X58477Y-34522D01*
X58444Y-34602D01*
X58444Y-34688D01*
X58477Y-34768D01*
X58538Y-34829D01*
X58618Y-34862D01*
X58704Y-34862D01*
X58783Y-34829D01*
X58844Y-34768D01*
X58877Y-34688D01*
X58877Y-34602D01*
X58877Y-35303D01*
X58871Y-35310D01*
X58838Y-35389D01*
X58838Y-35475D01*
X58871Y-35555D01*
X58932Y-35616D01*
X58964Y-35629D01*
X58932Y-35643D01*
X58871Y-35703D01*
X58838Y-35783D01*
X58838Y-35869D01*
X58871Y-35949D01*
X58932Y-36010D01*
X59011Y-36043D01*
X59098Y-36043D01*
X59177Y-36010D01*
X59238Y-35949D01*
X59271Y-35870D01*
X59271Y-35783D01*
X59271Y-36485D01*
X59265Y-36491D01*
X59232Y-36570D01*
X59232Y-36657D01*
X59265Y-36736D01*
X59326Y-36797D01*
X59358Y-36811D01*
X59326Y-36824D01*
X59265Y-36885D01*
X59232Y-36964D01*
X59232Y-37050D01*
X59265Y-37130D01*
X59326Y-37191D01*
X59405Y-37224D01*
X59491Y-37224D01*
X59547Y-37201D01*
X59547Y-37601D01*
X59492Y-37578D01*
X59405Y-37578D01*
X59326Y-37611D01*
X59265Y-37672D01*
X59232Y-37752D01*
X59232Y-37838D01*
X59265Y-37917D01*
X59326Y-37978D01*
X59405Y-38011D01*
X59491Y-38011D01*
X59547Y-37988D01*
X59547Y-38090D01*
X59648Y-38090D01*
X59626Y-38145D01*
X59625Y-38231D01*
X59658Y-38311D01*
X59719Y-38372D01*
X59799Y-38405D01*
X59885Y-38405D01*
X59965Y-38372D01*
X60025Y-38311D01*
X60039Y-38279D01*
X60052Y-38311D01*
X60113Y-38372D01*
X60145Y-38385D01*
X60113Y-38399D01*
X60052Y-38459D01*
X60019Y-38539D01*
X60019Y-38625D01*
X60052Y-38705D01*
X60113Y-38766D01*
X60192Y-38799D01*
X60279Y-38799D01*
X60358Y-38766D01*
X60419Y-38705D01*
X60433Y-38673D01*
X60446Y-38705D01*
X60507Y-38766D01*
X60586Y-38799D01*
X60672Y-38799D01*
X60752Y-38766D01*
X60813Y-38705D01*
X60846Y-38625D01*
X60846Y-38539D01*
X60813Y-38460D01*
X60752Y-38399D01*
X60720Y-38385D01*
X60752Y-38372D01*
X60813Y-38311D01*
X60846Y-38232D01*
X60846Y-38146D01*
X60823Y-38090D01*
X61223Y-38090D01*
X61200Y-38145D01*
X61200Y-38231D01*
X61233Y-38311D01*
X61294Y-38372D01*
X61374Y-38405D01*
X61460Y-38405D01*
X61539Y-38372D01*
X61600Y-38311D01*
X61614Y-38279D01*
X61627Y-38311D01*
X61688Y-38372D01*
X61720Y-38385D01*
X61688Y-38399D01*
X61627Y-38459D01*
X61594Y-38539D01*
X61594Y-38625D01*
X61627Y-38705D01*
X61688Y-38766D01*
X61767Y-38799D01*
X61853Y-38799D01*
X61933Y-38766D01*
X61994Y-38705D01*
X62027Y-38625D01*
X62027Y-38539D01*
X61994Y-38460D01*
X61933Y-38399D01*
X61901Y-38385D01*
X61933Y-38372D01*
X61994Y-38311D01*
X62027Y-38232D01*
X62027Y-38146D01*
X62004Y-38090D01*
X63979Y-38090D01*
X63956Y-38145D01*
X63956Y-38231D01*
X63989Y-38311D01*
X64050Y-38372D01*
X64082Y-38385D01*
X64050Y-38399D01*
X63989Y-38459D01*
X63956Y-38539D01*
X63956Y-38625D01*
X63989Y-38705D01*
X64050Y-38766D01*
X64129Y-38799D01*
X64216Y-38799D01*
X64295Y-38766D01*
X64356Y-38705D01*
X64389Y-38625D01*
X64389Y-38539D01*
X64356Y-38460D01*
X64296Y-38399D01*
X64263Y-38385D01*
X64295Y-38372D01*
X64356Y-38311D01*
X64389Y-38232D01*
X64389Y-38146D01*
X64366Y-38090D01*
X67716Y-38090D01*
X67893Y-38090D01*
X67893Y-44114D01*
X73602Y-44114D01*
X73602Y-49192D01*
X73582Y-49192D01*
X73582Y-46701D01*
X73543Y-46607D01*
X73471Y-46535D01*
X73377Y-46496D01*
X73276Y-46496D01*
X73182Y-46534D01*
X73109Y-46606D01*
X73090Y-46653D01*
X73090Y-44732D01*
X73051Y-44638D01*
X72979Y-44566D01*
X72885Y-44527D01*
X72783Y-44527D01*
X72689Y-44566D01*
X72617Y-44638D01*
X72578Y-44732D01*
X72578Y-44834D01*
X72617Y-44928D01*
X72689Y-45000D01*
X72783Y-45039D01*
X72885Y-45039D01*
X72979Y-45000D01*
X73051Y-44928D01*
X73090Y-44834D01*
X73090Y-44732D01*
X73090Y-46653D01*
X73070Y-46700D01*
X73070Y-46802D01*
X73109Y-46896D01*
X73181Y-46968D01*
X73275Y-47007D01*
X73377Y-47007D01*
X73471Y-46969D01*
X73543Y-46897D01*
X73582Y-46803D01*
X73582Y-46701D01*
X73582Y-49192D01*
X73090Y-49192D01*
X73090Y-48669D01*
X73051Y-48575D01*
X72979Y-48503D01*
X72885Y-48464D01*
X72783Y-48464D01*
X72689Y-48503D01*
X72617Y-48575D01*
X72578Y-48669D01*
X72578Y-48771D01*
X72617Y-48865D01*
X72689Y-48937D01*
X72783Y-48976D01*
X72885Y-48976D01*
X72979Y-48937D01*
X73051Y-48865D01*
X73090Y-48771D01*
X73090Y-48669D01*
X73090Y-49192D01*
X71614Y-49192D01*
X71614Y-48669D01*
X71575Y-48575D01*
X71503Y-48503D01*
X71409Y-48464D01*
X71307Y-48464D01*
X71213Y-48503D01*
X71141Y-48575D01*
X71122Y-48621D01*
X71122Y-44732D01*
X71083Y-44638D01*
X71011Y-44566D01*
X70917Y-44527D01*
X70815Y-44527D01*
X70721Y-44566D01*
X70649Y-44638D01*
X70610Y-44732D01*
X70610Y-44834D01*
X70649Y-44928D01*
X70720Y-45000D01*
X70815Y-45039D01*
X70916Y-45039D01*
X71010Y-45000D01*
X71082Y-44928D01*
X71122Y-44834D01*
X71122Y-44732D01*
X71122Y-48621D01*
X71102Y-48669D01*
X71102Y-48771D01*
X71141Y-48865D01*
X71213Y-48937D01*
X71307Y-48976D01*
X71408Y-48976D01*
X71503Y-48937D01*
X71575Y-48865D01*
X71614Y-48771D01*
X71614Y-48669D01*
X71614Y-49192D01*
X71043Y-49192D01*
X71043Y-49980D01*
X71028Y-49980D01*
X71028Y-48726D01*
X70918Y-48460D01*
X70715Y-48257D01*
X70629Y-48221D01*
X70629Y-47193D01*
X70591Y-47099D01*
X70519Y-47027D01*
X70425Y-46988D01*
X70323Y-46988D01*
X70229Y-47027D01*
X70157Y-47098D01*
X70118Y-47192D01*
X70118Y-47294D01*
X70156Y-47388D01*
X70228Y-47460D01*
X70322Y-47499D01*
X70424Y-47500D01*
X70518Y-47461D01*
X70590Y-47389D01*
X70629Y-47295D01*
X70629Y-47193D01*
X70629Y-48221D01*
X70449Y-48146D01*
X70161Y-48146D01*
X69895Y-48256D01*
X69692Y-48459D01*
X69581Y-48725D01*
X69581Y-49013D01*
X69691Y-49279D01*
X69894Y-49483D01*
X70160Y-49593D01*
X70448Y-49593D01*
X70714Y-49483D01*
X70918Y-49280D01*
X71028Y-49014D01*
X71028Y-48726D01*
X71028Y-49980D01*
X69153Y-49980D01*
X69153Y-44732D01*
X69114Y-44638D01*
X69042Y-44566D01*
X68948Y-44527D01*
X68846Y-44527D01*
X68752Y-44566D01*
X68680Y-44638D01*
X68641Y-44732D01*
X68641Y-44834D01*
X68680Y-44928D01*
X68752Y-45000D01*
X68846Y-45039D01*
X68948Y-45039D01*
X69042Y-45000D01*
X69114Y-44928D01*
X69153Y-44834D01*
X69153Y-44732D01*
X69153Y-49980D01*
X68738Y-49980D01*
X68738Y-49284D01*
X68738Y-48284D01*
X68672Y-48125D01*
X68550Y-48003D01*
X68391Y-47937D01*
X68219Y-47936D01*
X68060Y-48002D01*
X68031Y-48031D01*
X68031Y-45429D01*
X67998Y-45349D01*
X67937Y-45288D01*
X67874Y-45262D01*
X67874Y-39319D01*
X67835Y-39225D01*
X67763Y-39153D01*
X67692Y-39123D01*
X67762Y-39095D01*
X67834Y-39023D01*
X67873Y-38929D01*
X67874Y-38827D01*
X67835Y-38733D01*
X67763Y-38661D01*
X67692Y-38631D01*
X67762Y-38602D01*
X67834Y-38530D01*
X67873Y-38436D01*
X67874Y-38335D01*
X67835Y-38241D01*
X67763Y-38169D01*
X67669Y-38129D01*
X67567Y-38129D01*
X67473Y-38168D01*
X67401Y-38240D01*
X67362Y-38334D01*
X67362Y-38436D01*
X67401Y-38530D01*
X67472Y-38602D01*
X67543Y-38631D01*
X67473Y-38660D01*
X67401Y-38732D01*
X67362Y-38826D01*
X67362Y-38928D01*
X67401Y-39022D01*
X67472Y-39094D01*
X67543Y-39124D01*
X67473Y-39153D01*
X67401Y-39224D01*
X67362Y-39318D01*
X67362Y-39420D01*
X67401Y-39514D01*
X67472Y-39586D01*
X67566Y-39625D01*
X67668Y-39626D01*
X67762Y-39587D01*
X67834Y-39515D01*
X67873Y-39421D01*
X67874Y-39319D01*
X67874Y-45262D01*
X67858Y-45255D01*
X67772Y-45255D01*
X67692Y-45288D01*
X67631Y-45349D01*
X67598Y-45429D01*
X67598Y-45515D01*
X67631Y-45594D01*
X67692Y-45655D01*
X67771Y-45688D01*
X67857Y-45689D01*
X67937Y-45656D01*
X67998Y-45595D01*
X68031Y-45515D01*
X68031Y-45429D01*
X68031Y-48031D01*
X67938Y-48124D01*
X67872Y-48283D01*
X67871Y-48455D01*
X67937Y-48615D01*
X68059Y-48737D01*
X68218Y-48803D01*
X68390Y-48803D01*
X68550Y-48737D01*
X68672Y-48615D01*
X68738Y-48456D01*
X68738Y-48284D01*
X68738Y-49284D01*
X68672Y-49125D01*
X68550Y-49003D01*
X68391Y-48937D01*
X68219Y-48936D01*
X68060Y-49002D01*
X67938Y-49124D01*
X67872Y-49283D01*
X67871Y-49455D01*
X67937Y-49615D01*
X68059Y-49737D01*
X68218Y-49803D01*
X68390Y-49803D01*
X68550Y-49737D01*
X68672Y-49615D01*
X68738Y-49456D01*
X68738Y-49284D01*
X68738Y-49980D01*
X67738Y-49980D01*
X67738Y-49284D01*
X67738Y-48284D01*
X67672Y-48125D01*
X67637Y-48090D01*
X67637Y-45724D01*
X67604Y-45645D01*
X67544Y-45584D01*
X67464Y-45551D01*
X67378Y-45551D01*
X67298Y-45584D01*
X67283Y-45599D01*
X67283Y-39319D01*
X67244Y-39225D01*
X67172Y-39153D01*
X67145Y-39142D01*
X67145Y-38638D01*
X67112Y-38558D01*
X67051Y-38497D01*
X66972Y-38464D01*
X66886Y-38464D01*
X66806Y-38497D01*
X66745Y-38558D01*
X66712Y-38637D01*
X66712Y-38723D01*
X66745Y-38803D01*
X66806Y-38864D01*
X66885Y-38897D01*
X66972Y-38897D01*
X67051Y-38864D01*
X67112Y-38803D01*
X67145Y-38724D01*
X67145Y-38638D01*
X67145Y-39142D01*
X67078Y-39114D01*
X66976Y-39114D01*
X66882Y-39153D01*
X66810Y-39224D01*
X66771Y-39318D01*
X66771Y-39420D01*
X66810Y-39514D01*
X66882Y-39586D01*
X66976Y-39625D01*
X67078Y-39626D01*
X67172Y-39587D01*
X67244Y-39515D01*
X67283Y-39421D01*
X67283Y-39319D01*
X67283Y-45599D01*
X67237Y-45644D01*
X67204Y-45724D01*
X67204Y-45810D01*
X67237Y-45890D01*
X67298Y-45951D01*
X67377Y-45984D01*
X67464Y-45984D01*
X67543Y-45951D01*
X67604Y-45890D01*
X67637Y-45810D01*
X67637Y-45724D01*
X67637Y-48090D01*
X67550Y-48003D01*
X67391Y-47937D01*
X67244Y-47936D01*
X67244Y-46020D01*
X67211Y-45940D01*
X67150Y-45879D01*
X67070Y-45846D01*
X66984Y-45846D01*
X66905Y-45879D01*
X66844Y-45940D01*
X66811Y-46019D01*
X66810Y-46105D01*
X66843Y-46185D01*
X66904Y-46246D01*
X66984Y-46279D01*
X67070Y-46279D01*
X67150Y-46246D01*
X67211Y-46185D01*
X67244Y-46106D01*
X67244Y-46020D01*
X67244Y-47936D01*
X67219Y-47936D01*
X67185Y-47951D01*
X67185Y-47193D01*
X67146Y-47099D01*
X67074Y-47027D01*
X66980Y-46988D01*
X66878Y-46988D01*
X66784Y-47027D01*
X66712Y-47098D01*
X66692Y-47145D01*
X66692Y-39319D01*
X66654Y-39225D01*
X66582Y-39153D01*
X66488Y-39114D01*
X66386Y-39114D01*
X66292Y-39153D01*
X66220Y-39224D01*
X66181Y-39318D01*
X66181Y-39420D01*
X66219Y-39514D01*
X66291Y-39586D01*
X66385Y-39625D01*
X66487Y-39626D01*
X66581Y-39587D01*
X66653Y-39515D01*
X66692Y-39421D01*
X66692Y-39319D01*
X66692Y-47145D01*
X66673Y-47192D01*
X66673Y-47294D01*
X66712Y-47388D01*
X66783Y-47460D01*
X66878Y-47499D01*
X66979Y-47500D01*
X67073Y-47461D01*
X67145Y-47389D01*
X67184Y-47295D01*
X67185Y-47193D01*
X67185Y-47951D01*
X67060Y-48002D01*
X66938Y-48124D01*
X66872Y-48283D01*
X66871Y-48455D01*
X66937Y-48615D01*
X67059Y-48737D01*
X67218Y-48803D01*
X67390Y-48803D01*
X67550Y-48737D01*
X67672Y-48615D01*
X67738Y-48456D01*
X67738Y-48284D01*
X67738Y-49284D01*
X67672Y-49125D01*
X67550Y-49003D01*
X67391Y-48937D01*
X67219Y-48936D01*
X67060Y-49002D01*
X66938Y-49124D01*
X66872Y-49283D01*
X66871Y-49455D01*
X66937Y-49615D01*
X67059Y-49737D01*
X67218Y-49803D01*
X67390Y-49803D01*
X67550Y-49737D01*
X67672Y-49615D01*
X67738Y-49456D01*
X67738Y-49284D01*
X67738Y-49980D01*
X66738Y-49980D01*
X66738Y-49284D01*
X66738Y-48284D01*
X66672Y-48125D01*
X66550Y-48003D01*
X66391Y-47937D01*
X66387Y-47937D01*
X66387Y-43238D01*
X66335Y-43112D01*
X66238Y-43015D01*
X66112Y-42962D01*
X65975Y-42962D01*
X65848Y-43014D01*
X65751Y-43111D01*
X65698Y-43238D01*
X65698Y-43375D01*
X65751Y-43501D01*
X65847Y-43598D01*
X65974Y-43651D01*
X66111Y-43651D01*
X66238Y-43599D01*
X66335Y-43502D01*
X66387Y-43375D01*
X66387Y-43238D01*
X66387Y-47937D01*
X66219Y-47936D01*
X66060Y-48002D01*
X65938Y-48124D01*
X65872Y-48283D01*
X65871Y-48455D01*
X65937Y-48615D01*
X66059Y-48737D01*
X66218Y-48803D01*
X66390Y-48803D01*
X66550Y-48737D01*
X66672Y-48615D01*
X66738Y-48456D01*
X66738Y-48284D01*
X66738Y-49284D01*
X66672Y-49125D01*
X66550Y-49003D01*
X66391Y-48937D01*
X66219Y-48936D01*
X66060Y-49002D01*
X65938Y-49124D01*
X65872Y-49283D01*
X65871Y-49455D01*
X65937Y-49615D01*
X66059Y-49737D01*
X66218Y-49803D01*
X66390Y-49803D01*
X66550Y-49737D01*
X66672Y-49615D01*
X66738Y-49456D01*
X66738Y-49284D01*
X66738Y-49980D01*
X65738Y-49980D01*
X65738Y-49284D01*
X65738Y-48284D01*
X65672Y-48125D01*
X65610Y-48062D01*
X65610Y-39220D01*
X65610Y-38630D01*
X65571Y-38536D01*
X65499Y-38464D01*
X65405Y-38425D01*
X65303Y-38425D01*
X65209Y-38464D01*
X65137Y-38535D01*
X65098Y-38629D01*
X65098Y-38731D01*
X65137Y-38825D01*
X65209Y-38897D01*
X65303Y-38936D01*
X65405Y-38937D01*
X65499Y-38898D01*
X65571Y-38826D01*
X65610Y-38732D01*
X65610Y-38630D01*
X65610Y-39220D01*
X65571Y-39126D01*
X65499Y-39054D01*
X65405Y-39015D01*
X65303Y-39015D01*
X65209Y-39054D01*
X65137Y-39126D01*
X65098Y-39220D01*
X65098Y-39322D01*
X65137Y-39416D01*
X65209Y-39488D01*
X65303Y-39527D01*
X65405Y-39527D01*
X65499Y-39488D01*
X65571Y-39416D01*
X65610Y-39322D01*
X65610Y-39220D01*
X65610Y-48062D01*
X65550Y-48003D01*
X65391Y-47937D01*
X65219Y-47936D01*
X65206Y-47942D01*
X65206Y-44419D01*
X65154Y-44293D01*
X65057Y-44196D01*
X65019Y-44180D01*
X65019Y-39220D01*
X65019Y-38630D01*
X64980Y-38536D01*
X64908Y-38464D01*
X64814Y-38425D01*
X64713Y-38425D01*
X64619Y-38464D01*
X64546Y-38535D01*
X64507Y-38629D01*
X64507Y-38731D01*
X64546Y-38825D01*
X64618Y-38897D01*
X64712Y-38936D01*
X64814Y-38937D01*
X64908Y-38898D01*
X64980Y-38826D01*
X65019Y-38732D01*
X65019Y-38630D01*
X65019Y-39220D01*
X64980Y-39126D01*
X64908Y-39054D01*
X64814Y-39015D01*
X64713Y-39015D01*
X64619Y-39054D01*
X64546Y-39126D01*
X64507Y-39220D01*
X64507Y-39322D01*
X64546Y-39416D01*
X64618Y-39488D01*
X64712Y-39527D01*
X64814Y-39527D01*
X64908Y-39488D01*
X64980Y-39416D01*
X65019Y-39322D01*
X65019Y-39220D01*
X65019Y-44180D01*
X64931Y-44143D01*
X64793Y-44143D01*
X64667Y-44195D01*
X64570Y-44292D01*
X64517Y-44419D01*
X64517Y-44556D01*
X64569Y-44683D01*
X64666Y-44780D01*
X64793Y-44832D01*
X64930Y-44832D01*
X65057Y-44780D01*
X65154Y-44683D01*
X65206Y-44557D01*
X65206Y-44419D01*
X65206Y-47942D01*
X65060Y-48002D01*
X64938Y-48124D01*
X64872Y-48283D01*
X64871Y-48455D01*
X64937Y-48615D01*
X65059Y-48737D01*
X65218Y-48803D01*
X65390Y-48803D01*
X65550Y-48737D01*
X65672Y-48615D01*
X65738Y-48456D01*
X65738Y-48284D01*
X65738Y-49284D01*
X65672Y-49125D01*
X65550Y-49003D01*
X65391Y-48937D01*
X65219Y-48936D01*
X65060Y-49002D01*
X64938Y-49124D01*
X64872Y-49283D01*
X64871Y-49455D01*
X64937Y-49615D01*
X65059Y-49737D01*
X65218Y-49803D01*
X65390Y-49803D01*
X65550Y-49737D01*
X65672Y-49615D01*
X65738Y-49456D01*
X65738Y-49284D01*
X65738Y-49980D01*
X64738Y-49980D01*
X64738Y-49284D01*
X64738Y-48284D01*
X64672Y-48125D01*
X64550Y-48003D01*
X64391Y-47937D01*
X64219Y-47936D01*
X64060Y-48002D01*
X63938Y-48124D01*
X63872Y-48283D01*
X63871Y-48455D01*
X63937Y-48615D01*
X64059Y-48737D01*
X64218Y-48803D01*
X64390Y-48803D01*
X64550Y-48737D01*
X64672Y-48615D01*
X64738Y-48456D01*
X64738Y-48284D01*
X64738Y-49284D01*
X64672Y-49125D01*
X64550Y-49003D01*
X64391Y-48937D01*
X64219Y-48936D01*
X64060Y-49002D01*
X63938Y-49124D01*
X63872Y-49283D01*
X63871Y-49455D01*
X63937Y-49615D01*
X64059Y-49737D01*
X64218Y-49803D01*
X64390Y-49803D01*
X64550Y-49737D01*
X64672Y-49615D01*
X64738Y-49456D01*
X64738Y-49284D01*
X64738Y-49980D01*
X63738Y-49980D01*
X63738Y-49284D01*
X63738Y-48284D01*
X63672Y-48125D01*
X63602Y-48054D01*
X63602Y-40114D01*
X63602Y-38933D01*
X63569Y-38853D01*
X63508Y-38792D01*
X63429Y-38759D01*
X63342Y-38759D01*
X63263Y-38792D01*
X63202Y-38853D01*
X63188Y-38885D01*
X63175Y-38853D01*
X63114Y-38792D01*
X63035Y-38759D01*
X62949Y-38759D01*
X62869Y-38792D01*
X62808Y-38853D01*
X62775Y-38933D01*
X62775Y-39019D01*
X62808Y-39098D01*
X62869Y-39159D01*
X62948Y-39192D01*
X63035Y-39192D01*
X63114Y-39160D01*
X63175Y-39099D01*
X63188Y-39066D01*
X63202Y-39098D01*
X63263Y-39159D01*
X63342Y-39192D01*
X63428Y-39192D01*
X63508Y-39160D01*
X63569Y-39099D01*
X63602Y-39019D01*
X63602Y-38933D01*
X63602Y-40114D01*
X63569Y-40034D01*
X63508Y-39974D01*
X63429Y-39940D01*
X63342Y-39940D01*
X63263Y-39973D01*
X63202Y-40034D01*
X63169Y-40114D01*
X63169Y-40200D01*
X63202Y-40279D01*
X63263Y-40340D01*
X63342Y-40373D01*
X63428Y-40374D01*
X63508Y-40341D01*
X63569Y-40280D01*
X63602Y-40200D01*
X63602Y-40114D01*
X63602Y-48054D01*
X63550Y-48003D01*
X63391Y-47937D01*
X63219Y-47936D01*
X63060Y-48002D01*
X62938Y-48124D01*
X62872Y-48283D01*
X62871Y-48455D01*
X62937Y-48615D01*
X63059Y-48737D01*
X63218Y-48803D01*
X63390Y-48803D01*
X63550Y-48737D01*
X63672Y-48615D01*
X63738Y-48456D01*
X63738Y-48284D01*
X63738Y-49284D01*
X63672Y-49125D01*
X63550Y-49003D01*
X63391Y-48937D01*
X63219Y-48936D01*
X63060Y-49002D01*
X62938Y-49124D01*
X62872Y-49283D01*
X62871Y-49455D01*
X62937Y-49615D01*
X63059Y-49737D01*
X63218Y-49803D01*
X63390Y-49803D01*
X63550Y-49737D01*
X63672Y-49615D01*
X63738Y-49456D01*
X63738Y-49284D01*
X63738Y-49980D01*
X62738Y-49980D01*
X62738Y-49284D01*
X62738Y-48284D01*
X62672Y-48125D01*
X62550Y-48003D01*
X62391Y-47937D01*
X62219Y-47936D01*
X62060Y-48002D01*
X62027Y-48035D01*
X62027Y-40508D01*
X61994Y-40428D01*
X61933Y-40367D01*
X61854Y-40334D01*
X61768Y-40334D01*
X61688Y-40367D01*
X61633Y-40422D01*
X61633Y-38933D01*
X61600Y-38853D01*
X61540Y-38792D01*
X61460Y-38759D01*
X61374Y-38759D01*
X61294Y-38792D01*
X61233Y-38853D01*
X61200Y-38933D01*
X61200Y-39019D01*
X61233Y-39098D01*
X61294Y-39159D01*
X61374Y-39192D01*
X61460Y-39192D01*
X61539Y-39160D01*
X61600Y-39099D01*
X61633Y-39019D01*
X61633Y-38933D01*
X61633Y-40422D01*
X61627Y-40428D01*
X61594Y-40507D01*
X61594Y-40594D01*
X61627Y-40673D01*
X61688Y-40734D01*
X61767Y-40767D01*
X61853Y-40767D01*
X61933Y-40734D01*
X61994Y-40673D01*
X62027Y-40594D01*
X62027Y-40508D01*
X62027Y-48035D01*
X61938Y-48124D01*
X61872Y-48283D01*
X61871Y-48455D01*
X61937Y-48615D01*
X62059Y-48737D01*
X62218Y-48803D01*
X62390Y-48803D01*
X62550Y-48737D01*
X62672Y-48615D01*
X62738Y-48456D01*
X62738Y-48284D01*
X62738Y-49284D01*
X62672Y-49125D01*
X62550Y-49003D01*
X62391Y-48937D01*
X62219Y-48936D01*
X62060Y-49002D01*
X61938Y-49124D01*
X61872Y-49283D01*
X61871Y-49455D01*
X61937Y-49615D01*
X62059Y-49737D01*
X62218Y-49803D01*
X62390Y-49803D01*
X62550Y-49737D01*
X62672Y-49615D01*
X62738Y-49456D01*
X62738Y-49284D01*
X62738Y-49980D01*
X61738Y-49980D01*
X61738Y-49284D01*
X61738Y-48284D01*
X61672Y-48125D01*
X61550Y-48003D01*
X61391Y-47937D01*
X61219Y-47936D01*
X61060Y-48002D01*
X60944Y-48117D01*
X60944Y-45921D01*
X60912Y-45842D01*
X60851Y-45781D01*
X60846Y-45779D01*
X60846Y-40508D01*
X60846Y-39720D01*
X60813Y-39641D01*
X60752Y-39580D01*
X60673Y-39547D01*
X60587Y-39547D01*
X60507Y-39580D01*
X60446Y-39640D01*
X60413Y-39720D01*
X60413Y-39806D01*
X60446Y-39886D01*
X60507Y-39947D01*
X60586Y-39980D01*
X60672Y-39980D01*
X60752Y-39947D01*
X60813Y-39886D01*
X60846Y-39807D01*
X60846Y-39720D01*
X60846Y-40508D01*
X60813Y-40428D01*
X60752Y-40367D01*
X60673Y-40334D01*
X60587Y-40334D01*
X60507Y-40367D01*
X60446Y-40428D01*
X60413Y-40507D01*
X60413Y-40594D01*
X60446Y-40673D01*
X60507Y-40734D01*
X60586Y-40767D01*
X60672Y-40767D01*
X60752Y-40734D01*
X60813Y-40673D01*
X60846Y-40594D01*
X60846Y-40508D01*
X60846Y-45779D01*
X60771Y-45748D01*
X60685Y-45747D01*
X60605Y-45780D01*
X60544Y-45841D01*
X60511Y-45921D01*
X60511Y-46007D01*
X60544Y-46087D01*
X60605Y-46148D01*
X60685Y-46181D01*
X60771Y-46181D01*
X60850Y-46148D01*
X60911Y-46087D01*
X60944Y-46007D01*
X60944Y-45921D01*
X60944Y-48117D01*
X60938Y-48124D01*
X60872Y-48283D01*
X60871Y-48455D01*
X60937Y-48615D01*
X61059Y-48737D01*
X61218Y-48803D01*
X61390Y-48803D01*
X61550Y-48737D01*
X61672Y-48615D01*
X61738Y-48456D01*
X61738Y-48284D01*
X61738Y-49284D01*
X61672Y-49125D01*
X61550Y-49003D01*
X61391Y-48937D01*
X61219Y-48936D01*
X61060Y-49002D01*
X60938Y-49124D01*
X60872Y-49283D01*
X60871Y-49455D01*
X60937Y-49615D01*
X61059Y-49737D01*
X61218Y-49803D01*
X61390Y-49803D01*
X61550Y-49737D01*
X61672Y-49615D01*
X61738Y-49456D01*
X61738Y-49284D01*
X61738Y-49980D01*
X60738Y-49980D01*
X60738Y-49284D01*
X60738Y-48284D01*
X60672Y-48125D01*
X60550Y-48003D01*
X60391Y-47937D01*
X60219Y-47936D01*
X60060Y-48002D01*
X59938Y-48124D01*
X59872Y-48283D01*
X59871Y-48455D01*
X59937Y-48615D01*
X60059Y-48737D01*
X60218Y-48803D01*
X60390Y-48803D01*
X60550Y-48737D01*
X60672Y-48615D01*
X60738Y-48456D01*
X60738Y-48284D01*
X60738Y-49284D01*
X60672Y-49125D01*
X60550Y-49003D01*
X60391Y-48937D01*
X60219Y-48936D01*
X60060Y-49002D01*
X59938Y-49124D01*
X59872Y-49283D01*
X59871Y-49455D01*
X59937Y-49615D01*
X60059Y-49737D01*
X60218Y-49803D01*
X60390Y-49803D01*
X60550Y-49737D01*
X60672Y-49615D01*
X60738Y-49456D01*
X60738Y-49284D01*
X60738Y-49980D01*
X59738Y-49980D01*
X59738Y-49284D01*
X59738Y-48284D01*
X59672Y-48125D01*
X59550Y-48003D01*
X59391Y-47937D01*
X59271Y-47936D01*
X59271Y-40114D01*
X59271Y-38539D01*
X59238Y-38460D01*
X59177Y-38399D01*
X59098Y-38366D01*
X59012Y-38366D01*
X58932Y-38399D01*
X58871Y-38459D01*
X58838Y-38539D01*
X58838Y-38625D01*
X58871Y-38705D01*
X58932Y-38766D01*
X59011Y-38799D01*
X59098Y-38799D01*
X59177Y-38766D01*
X59238Y-38705D01*
X59271Y-38625D01*
X59271Y-38539D01*
X59271Y-40114D01*
X59238Y-40034D01*
X59177Y-39974D01*
X59098Y-39940D01*
X59012Y-39940D01*
X58932Y-39973D01*
X58871Y-40034D01*
X58838Y-40114D01*
X58838Y-40200D01*
X58871Y-40279D01*
X58932Y-40340D01*
X59011Y-40373D01*
X59098Y-40374D01*
X59177Y-40341D01*
X59238Y-40280D01*
X59271Y-40200D01*
X59271Y-40114D01*
X59271Y-47936D01*
X59219Y-47936D01*
X59060Y-48002D01*
X58938Y-48124D01*
X58872Y-48283D01*
X58871Y-48455D01*
X58937Y-48615D01*
X59059Y-48737D01*
X59218Y-48803D01*
X59390Y-48803D01*
X59550Y-48737D01*
X59672Y-48615D01*
X59738Y-48456D01*
X59738Y-48284D01*
X59738Y-49284D01*
X59672Y-49125D01*
X59550Y-49003D01*
X59391Y-48937D01*
X59219Y-48936D01*
X59060Y-49002D01*
X58938Y-49124D01*
X58872Y-49283D01*
X58871Y-49455D01*
X58937Y-49615D01*
X59059Y-49737D01*
X59218Y-49803D01*
X59390Y-49803D01*
X59550Y-49737D01*
X59672Y-49615D01*
X59738Y-49456D01*
X59738Y-49284D01*
X59738Y-49980D01*
X58738Y-49980D01*
X58738Y-49284D01*
X58738Y-48284D01*
X58672Y-48125D01*
X58550Y-48003D01*
X58484Y-47975D01*
X58484Y-37752D01*
X58484Y-36177D01*
X58451Y-36097D01*
X58390Y-36037D01*
X58310Y-36003D01*
X58224Y-36003D01*
X58145Y-36036D01*
X58084Y-36097D01*
X58051Y-36177D01*
X58051Y-36263D01*
X58084Y-36342D01*
X58144Y-36403D01*
X58224Y-36436D01*
X58310Y-36437D01*
X58390Y-36404D01*
X58451Y-36343D01*
X58484Y-36263D01*
X58484Y-36177D01*
X58484Y-37752D01*
X58451Y-37672D01*
X58390Y-37611D01*
X58310Y-37578D01*
X58224Y-37578D01*
X58145Y-37611D01*
X58090Y-37666D01*
X58090Y-36571D01*
X58057Y-36491D01*
X57996Y-36430D01*
X57917Y-36397D01*
X57831Y-36397D01*
X57751Y-36430D01*
X57738Y-36443D01*
X57738Y-30284D01*
X57738Y-29284D01*
X57672Y-29125D01*
X57550Y-29003D01*
X57391Y-28937D01*
X57219Y-28936D01*
X57060Y-29002D01*
X56938Y-29124D01*
X56872Y-29283D01*
X56871Y-29455D01*
X56937Y-29615D01*
X57059Y-29737D01*
X57218Y-29803D01*
X57390Y-29803D01*
X57550Y-29737D01*
X57672Y-29615D01*
X57738Y-29456D01*
X57738Y-29284D01*
X57738Y-30284D01*
X57672Y-30125D01*
X57550Y-30003D01*
X57391Y-29937D01*
X57219Y-29936D01*
X57060Y-30002D01*
X56938Y-30124D01*
X56872Y-30283D01*
X56871Y-30455D01*
X56937Y-30615D01*
X57059Y-30737D01*
X57218Y-30803D01*
X57390Y-30803D01*
X57550Y-30737D01*
X57672Y-30615D01*
X57738Y-30456D01*
X57738Y-30284D01*
X57738Y-36443D01*
X57690Y-36491D01*
X57657Y-36570D01*
X57657Y-36657D01*
X57690Y-36736D01*
X57751Y-36797D01*
X57830Y-36830D01*
X57916Y-36830D01*
X57996Y-36797D01*
X58057Y-36736D01*
X58090Y-36657D01*
X58090Y-36571D01*
X58090Y-37666D01*
X58084Y-37672D01*
X58051Y-37752D01*
X58051Y-37838D01*
X58084Y-37917D01*
X58144Y-37978D01*
X58224Y-38011D01*
X58310Y-38011D01*
X58390Y-37978D01*
X58451Y-37918D01*
X58484Y-37838D01*
X58484Y-37752D01*
X58484Y-47975D01*
X58391Y-47937D01*
X58219Y-47936D01*
X58090Y-47990D01*
X58090Y-40508D01*
X58057Y-40428D01*
X57996Y-40367D01*
X57917Y-40334D01*
X57831Y-40334D01*
X57751Y-40367D01*
X57690Y-40428D01*
X57657Y-40507D01*
X57657Y-40594D01*
X57690Y-40673D01*
X57751Y-40734D01*
X57830Y-40767D01*
X57916Y-40767D01*
X57996Y-40734D01*
X58057Y-40673D01*
X58090Y-40594D01*
X58090Y-40508D01*
X58090Y-47990D01*
X58060Y-48002D01*
X57938Y-48124D01*
X57872Y-48283D01*
X57871Y-48455D01*
X57937Y-48615D01*
X58059Y-48737D01*
X58218Y-48803D01*
X58390Y-48803D01*
X58550Y-48737D01*
X58672Y-48615D01*
X58738Y-48456D01*
X58738Y-48284D01*
X58738Y-49284D01*
X58672Y-49125D01*
X58550Y-49003D01*
X58391Y-48937D01*
X58219Y-48936D01*
X58060Y-49002D01*
X57938Y-49124D01*
X57872Y-49283D01*
X57871Y-49455D01*
X57937Y-49615D01*
X58059Y-49737D01*
X58218Y-49803D01*
X58390Y-49803D01*
X58550Y-49737D01*
X58672Y-49615D01*
X58738Y-49456D01*
X58738Y-49284D01*
X58738Y-49980D01*
X57738Y-49980D01*
X57738Y-49284D01*
X57738Y-48284D01*
X57672Y-48125D01*
X57550Y-48003D01*
X57391Y-47937D01*
X57219Y-47936D01*
X57060Y-48002D01*
X56938Y-48124D01*
X56872Y-48283D01*
X56871Y-48455D01*
X56937Y-48615D01*
X57059Y-48737D01*
X57218Y-48803D01*
X57390Y-48803D01*
X57550Y-48737D01*
X57672Y-48615D01*
X57738Y-48456D01*
X57738Y-48284D01*
X57738Y-49284D01*
X57672Y-49125D01*
X57550Y-49003D01*
X57391Y-48937D01*
X57219Y-48936D01*
X57060Y-49002D01*
X56938Y-49124D01*
X56872Y-49283D01*
X56871Y-49455D01*
X56937Y-49615D01*
X57059Y-49737D01*
X57218Y-49803D01*
X57390Y-49803D01*
X57550Y-49737D01*
X57672Y-49615D01*
X57738Y-49456D01*
X57738Y-49284D01*
X57738Y-49980D01*
X56738Y-49980D01*
X56738Y-49284D01*
X56738Y-48284D01*
X56738Y-30284D01*
X56738Y-29284D01*
X56672Y-29125D01*
X56550Y-29003D01*
X56391Y-28937D01*
X56219Y-28936D01*
X56060Y-29002D01*
X55938Y-29124D01*
X55872Y-29283D01*
X55871Y-29455D01*
X55937Y-29615D01*
X56059Y-29737D01*
X56218Y-29803D01*
X56390Y-29803D01*
X56550Y-29737D01*
X56672Y-29615D01*
X56738Y-29456D01*
X56738Y-29284D01*
X56738Y-30284D01*
X56672Y-30125D01*
X56550Y-30003D01*
X56391Y-29937D01*
X56219Y-29936D01*
X56060Y-30002D01*
X55938Y-30124D01*
X55872Y-30283D01*
X55871Y-30455D01*
X55937Y-30615D01*
X56059Y-30737D01*
X56218Y-30803D01*
X56390Y-30803D01*
X56550Y-30737D01*
X56672Y-30615D01*
X56738Y-30456D01*
X56738Y-30284D01*
X56738Y-48284D01*
X56672Y-48125D01*
X56550Y-48003D01*
X56391Y-47937D01*
X56358Y-47937D01*
X56358Y-47193D01*
X56319Y-47099D01*
X56247Y-47027D01*
X56220Y-47016D01*
X56220Y-32043D01*
X56187Y-31964D01*
X56126Y-31903D01*
X56047Y-31870D01*
X55961Y-31870D01*
X55881Y-31902D01*
X55820Y-31963D01*
X55787Y-32043D01*
X55787Y-32129D01*
X55820Y-32209D01*
X55881Y-32270D01*
X55960Y-32303D01*
X56046Y-32303D01*
X56126Y-32270D01*
X56187Y-32209D01*
X56220Y-32129D01*
X56220Y-32043D01*
X56220Y-47016D01*
X56153Y-46988D01*
X56051Y-46988D01*
X55957Y-47027D01*
X55885Y-47098D01*
X55846Y-47192D01*
X55846Y-47294D01*
X55885Y-47388D01*
X55957Y-47460D01*
X56051Y-47499D01*
X56153Y-47500D01*
X56247Y-47461D01*
X56319Y-47389D01*
X56358Y-47295D01*
X56358Y-47193D01*
X56358Y-47937D01*
X56219Y-47936D01*
X56060Y-48002D01*
X55938Y-48124D01*
X55872Y-48283D01*
X55871Y-48455D01*
X55937Y-48615D01*
X56059Y-48737D01*
X56218Y-48803D01*
X56390Y-48803D01*
X56550Y-48737D01*
X56672Y-48615D01*
X56738Y-48456D01*
X56738Y-48284D01*
X56738Y-49284D01*
X56672Y-49125D01*
X56550Y-49003D01*
X56391Y-48937D01*
X56219Y-48936D01*
X56060Y-49002D01*
X55938Y-49124D01*
X55872Y-49283D01*
X55871Y-49455D01*
X55937Y-49615D01*
X56059Y-49737D01*
X56218Y-49803D01*
X56390Y-49803D01*
X56550Y-49737D01*
X56672Y-49615D01*
X56738Y-49456D01*
X56738Y-49284D01*
X56738Y-49980D01*
X55137Y-49980D01*
X55137Y-42470D01*
X55186Y-42470D01*
X55312Y-42418D01*
X55409Y-42321D01*
X55462Y-42194D01*
X55462Y-42057D01*
X55410Y-41931D01*
X55313Y-41834D01*
X55186Y-41781D01*
X55137Y-41781D01*
X55137Y-30964D01*
X55168Y-30964D01*
X55262Y-30925D01*
X55334Y-30853D01*
X55373Y-30759D01*
X55374Y-30657D01*
X55335Y-30563D01*
X55263Y-30491D01*
X55169Y-30452D01*
X55137Y-30452D01*
X55137Y-28759D01*
X73420Y-28759D01*
X74985Y-29542D01*
X75767Y-31107D01*
X75767Y-36594D01*
X75767Y-36594D01*
G37*
G54D20*
X75767Y-36594D02*
X75452Y-36594D01*
X75452Y-36169D01*
X75413Y-36075D01*
X75361Y-36023D01*
X75413Y-35971D01*
X75452Y-35877D01*
X75452Y-35776D01*
X75413Y-35682D01*
X75341Y-35609D01*
X75247Y-35570D01*
X75146Y-35570D01*
X75052Y-35609D01*
X74999Y-35661D01*
X74948Y-35609D01*
X74854Y-35570D01*
X74752Y-35570D01*
X74658Y-35609D01*
X74606Y-35661D01*
X74554Y-35609D01*
X74460Y-35570D01*
X74358Y-35570D01*
X74264Y-35609D01*
X74192Y-35681D01*
X74153Y-35775D01*
X74153Y-35877D01*
X74192Y-35971D01*
X74244Y-36023D01*
X74192Y-36075D01*
X74153Y-36169D01*
X74153Y-36271D01*
X74192Y-36365D01*
X74264Y-36437D01*
X74358Y-36476D01*
X74460Y-36476D01*
X74554Y-36437D01*
X74606Y-36385D01*
X74658Y-36437D01*
X74752Y-36476D01*
X74853Y-36476D01*
X74947Y-36437D01*
X75000Y-36385D01*
X75051Y-36437D01*
X75145Y-36476D01*
X75247Y-36476D01*
X75341Y-36437D01*
X75413Y-36365D01*
X75452Y-36271D01*
X75452Y-36169D01*
X75452Y-36594D01*
X73779Y-36594D01*
X73779Y-33709D01*
X73740Y-33615D01*
X73688Y-33562D01*
X73740Y-33511D01*
X73779Y-33417D01*
X73779Y-33315D01*
X73740Y-33221D01*
X73688Y-33169D01*
X73740Y-33117D01*
X73779Y-33023D01*
X73779Y-32921D01*
X73740Y-32827D01*
X73668Y-32755D01*
X73574Y-32716D01*
X73484Y-32716D01*
X73484Y-31839D01*
X73445Y-31744D01*
X73393Y-31692D01*
X73445Y-31641D01*
X73484Y-31547D01*
X73484Y-31445D01*
X73445Y-31351D01*
X73373Y-31279D01*
X73279Y-31240D01*
X73177Y-31240D01*
X73083Y-31278D01*
X73011Y-31350D01*
X72972Y-31444D01*
X72972Y-31546D01*
X73011Y-31640D01*
X73063Y-31692D01*
X73011Y-31744D01*
X72972Y-31838D01*
X72972Y-31940D01*
X73011Y-32034D01*
X73083Y-32106D01*
X73177Y-32145D01*
X73279Y-32145D01*
X73373Y-32106D01*
X73445Y-32034D01*
X73484Y-31940D01*
X73484Y-31839D01*
X73484Y-32716D01*
X73472Y-32716D01*
X73378Y-32755D01*
X73326Y-32807D01*
X73275Y-32755D01*
X73181Y-32716D01*
X73079Y-32716D01*
X72985Y-32755D01*
X72913Y-32827D01*
X72874Y-32921D01*
X72873Y-33023D01*
X72912Y-33117D01*
X72964Y-33169D01*
X72913Y-33220D01*
X72874Y-33315D01*
X72873Y-33416D01*
X72912Y-33510D01*
X72964Y-33563D01*
X72913Y-33614D01*
X72874Y-33708D01*
X72873Y-33810D01*
X72912Y-33904D01*
X72984Y-33976D01*
X73078Y-34015D01*
X73180Y-34015D01*
X73274Y-33976D01*
X73326Y-33924D01*
X73378Y-33976D01*
X73472Y-34015D01*
X73574Y-34015D01*
X73668Y-33976D01*
X73740Y-33904D01*
X73779Y-33810D01*
X73779Y-33709D01*
X73779Y-36594D01*
X72854Y-36594D01*
X72854Y-31854D01*
X72827Y-31789D01*
X72777Y-31739D01*
X72755Y-31730D01*
X72755Y-29976D01*
X72723Y-29897D01*
X72662Y-29836D01*
X72582Y-29803D01*
X72496Y-29803D01*
X72416Y-29836D01*
X72355Y-29896D01*
X72322Y-29976D01*
X72322Y-30062D01*
X72355Y-30142D01*
X72416Y-30203D01*
X72496Y-30236D01*
X72582Y-30236D01*
X72661Y-30203D01*
X72722Y-30142D01*
X72755Y-30062D01*
X72755Y-29976D01*
X72755Y-31730D01*
X72712Y-31712D01*
X72642Y-31712D01*
X72576Y-31739D01*
X72559Y-31757D01*
X72541Y-31739D01*
X72476Y-31712D01*
X72405Y-31712D01*
X72340Y-31739D01*
X72322Y-31757D01*
X72305Y-31739D01*
X72240Y-31712D01*
X72169Y-31712D01*
X72106Y-31738D01*
X72106Y-29476D01*
X72067Y-29382D01*
X71995Y-29310D01*
X71901Y-29271D01*
X71799Y-29271D01*
X71705Y-29310D01*
X71633Y-29382D01*
X71594Y-29476D01*
X71594Y-29578D01*
X71633Y-29672D01*
X71705Y-29744D01*
X71799Y-29783D01*
X71901Y-29783D01*
X71995Y-29744D01*
X72067Y-29672D01*
X72106Y-29578D01*
X72106Y-29476D01*
X72106Y-31738D01*
X72104Y-31739D01*
X72054Y-31789D01*
X72027Y-31854D01*
X72027Y-31924D01*
X72054Y-31989D01*
X72104Y-32039D01*
X72169Y-32066D01*
X72239Y-32066D01*
X72304Y-32040D01*
X72322Y-32022D01*
X72340Y-32039D01*
X72405Y-32066D01*
X72476Y-32066D01*
X72541Y-32040D01*
X72559Y-32022D01*
X72576Y-32039D01*
X72641Y-32066D01*
X72712Y-32066D01*
X72777Y-32040D01*
X72827Y-31990D01*
X72854Y-31925D01*
X72854Y-31854D01*
X72854Y-36594D01*
X71909Y-36594D01*
X71909Y-32232D01*
X71870Y-32138D01*
X71818Y-32086D01*
X71870Y-32034D01*
X71909Y-31940D01*
X71909Y-31839D01*
X71870Y-31744D01*
X71818Y-31692D01*
X71870Y-31641D01*
X71909Y-31547D01*
X71909Y-31445D01*
X71870Y-31351D01*
X71798Y-31279D01*
X71704Y-31240D01*
X71602Y-31240D01*
X71508Y-31278D01*
X71436Y-31350D01*
X71397Y-31444D01*
X71397Y-31546D01*
X71436Y-31640D01*
X71488Y-31692D01*
X71436Y-31744D01*
X71397Y-31838D01*
X71397Y-31940D01*
X71436Y-32034D01*
X71488Y-32086D01*
X71436Y-32138D01*
X71397Y-32232D01*
X71397Y-32334D01*
X71436Y-32428D01*
X71508Y-32500D01*
X71602Y-32539D01*
X71704Y-32539D01*
X71798Y-32500D01*
X71870Y-32428D01*
X71909Y-32334D01*
X71909Y-32232D01*
X71909Y-36594D01*
X71028Y-36594D01*
X71028Y-29726D01*
X70918Y-29460D01*
X70715Y-29257D01*
X70449Y-29146D01*
X70161Y-29146D01*
X69895Y-29256D01*
X69692Y-29459D01*
X69581Y-29725D01*
X69581Y-30013D01*
X69691Y-30279D01*
X69894Y-30483D01*
X70160Y-30593D01*
X70448Y-30593D01*
X70714Y-30483D01*
X70918Y-30280D01*
X71028Y-30014D01*
X71028Y-29726D01*
X71028Y-36594D01*
X70295Y-36594D01*
X70295Y-31453D01*
X70262Y-31373D01*
X70201Y-31312D01*
X70122Y-31279D01*
X70035Y-31279D01*
X69956Y-31312D01*
X69895Y-31373D01*
X69862Y-31452D01*
X69862Y-31538D01*
X69895Y-31618D01*
X69955Y-31679D01*
X70035Y-31712D01*
X70121Y-31712D01*
X70201Y-31679D01*
X70262Y-31618D01*
X70295Y-31539D01*
X70295Y-31453D01*
X70295Y-36594D01*
X68738Y-36594D01*
X68738Y-30284D01*
X68738Y-29284D01*
X68672Y-29125D01*
X68550Y-29003D01*
X68391Y-28937D01*
X68219Y-28936D01*
X68060Y-29002D01*
X67938Y-29124D01*
X67872Y-29283D01*
X67871Y-29455D01*
X67937Y-29615D01*
X68059Y-29737D01*
X68218Y-29803D01*
X68390Y-29803D01*
X68550Y-29737D01*
X68672Y-29615D01*
X68738Y-29456D01*
X68738Y-29284D01*
X68738Y-30284D01*
X68672Y-30125D01*
X68550Y-30003D01*
X68391Y-29937D01*
X68219Y-29936D01*
X68060Y-30002D01*
X67938Y-30124D01*
X67872Y-30283D01*
X67871Y-30455D01*
X67937Y-30615D01*
X68059Y-30737D01*
X68218Y-30803D01*
X68390Y-30803D01*
X68550Y-30737D01*
X68672Y-30615D01*
X68738Y-30456D01*
X68738Y-30284D01*
X68738Y-36594D01*
X68563Y-36594D01*
X68563Y-34890D01*
X68524Y-34796D01*
X68452Y-34724D01*
X68358Y-34685D01*
X68256Y-34684D01*
X68162Y-34723D01*
X68090Y-34795D01*
X68051Y-34889D01*
X68051Y-34991D01*
X68090Y-35085D01*
X68161Y-35157D01*
X68255Y-35196D01*
X68357Y-35196D01*
X68451Y-35158D01*
X68523Y-35086D01*
X68562Y-34992D01*
X68563Y-34890D01*
X68563Y-36594D01*
X67972Y-36594D01*
X67972Y-35382D01*
X67933Y-35288D01*
X67861Y-35216D01*
X67767Y-35177D01*
X67741Y-35177D01*
X67741Y-30434D01*
X67741Y-29434D01*
X67733Y-29262D01*
X67684Y-29143D01*
X67626Y-29104D01*
X67570Y-29160D01*
X67570Y-29048D01*
X67531Y-28991D01*
X67369Y-28933D01*
X67197Y-28941D01*
X67078Y-28991D01*
X67039Y-29048D01*
X67305Y-29314D01*
X67570Y-29048D01*
X67570Y-29160D01*
X67360Y-29370D01*
X67626Y-29635D01*
X67684Y-29596D01*
X67741Y-29434D01*
X67741Y-30434D01*
X67733Y-30262D01*
X67684Y-30143D01*
X67626Y-30104D01*
X67570Y-30160D01*
X67570Y-30048D01*
X67570Y-29691D01*
X67305Y-29425D01*
X67249Y-29481D01*
X67249Y-29370D01*
X66983Y-29104D01*
X66926Y-29143D01*
X66868Y-29305D01*
X66876Y-29477D01*
X66926Y-29596D01*
X66983Y-29635D01*
X67249Y-29370D01*
X67249Y-29481D01*
X67039Y-29691D01*
X67078Y-29749D01*
X67240Y-29806D01*
X67412Y-29798D01*
X67531Y-29749D01*
X67570Y-29691D01*
X67570Y-30048D01*
X67531Y-29991D01*
X67369Y-29933D01*
X67197Y-29941D01*
X67078Y-29991D01*
X67039Y-30048D01*
X67305Y-30314D01*
X67570Y-30048D01*
X67570Y-30160D01*
X67360Y-30370D01*
X67626Y-30635D01*
X67684Y-30596D01*
X67741Y-30434D01*
X67741Y-35177D01*
X67665Y-35177D01*
X67571Y-35215D01*
X67570Y-35216D01*
X67570Y-30691D01*
X67305Y-30425D01*
X67249Y-30481D01*
X67249Y-30370D01*
X66983Y-30104D01*
X66926Y-30143D01*
X66868Y-30305D01*
X66876Y-30477D01*
X66926Y-30596D01*
X66983Y-30635D01*
X67249Y-30370D01*
X67249Y-30481D01*
X67039Y-30691D01*
X67078Y-30749D01*
X67240Y-30806D01*
X67412Y-30798D01*
X67531Y-30749D01*
X67570Y-30691D01*
X67570Y-35216D01*
X67499Y-35287D01*
X67460Y-35381D01*
X67460Y-35483D01*
X67499Y-35577D01*
X67571Y-35649D01*
X67665Y-35688D01*
X67767Y-35689D01*
X67861Y-35650D01*
X67933Y-35578D01*
X67972Y-35484D01*
X67972Y-35382D01*
X67972Y-36594D01*
X67893Y-36594D01*
X67893Y-37106D01*
X67381Y-37106D01*
X67381Y-34890D01*
X67381Y-32035D01*
X67381Y-31248D01*
X67343Y-31154D01*
X67271Y-31082D01*
X67177Y-31043D01*
X67075Y-31043D01*
X66988Y-31079D01*
X66988Y-30776D01*
X66949Y-30682D01*
X66877Y-30609D01*
X66783Y-30570D01*
X66690Y-30570D01*
X66738Y-30456D01*
X66738Y-30284D01*
X66738Y-29284D01*
X66672Y-29125D01*
X66550Y-29003D01*
X66391Y-28937D01*
X66219Y-28936D01*
X66060Y-29002D01*
X65938Y-29124D01*
X65872Y-29283D01*
X65871Y-29455D01*
X65937Y-29615D01*
X66059Y-29737D01*
X66218Y-29803D01*
X66390Y-29803D01*
X66550Y-29737D01*
X66672Y-29615D01*
X66738Y-29456D01*
X66738Y-29284D01*
X66738Y-30284D01*
X66672Y-30125D01*
X66550Y-30003D01*
X66391Y-29937D01*
X66219Y-29936D01*
X66060Y-30002D01*
X65938Y-30124D01*
X65872Y-30283D01*
X65871Y-30455D01*
X65937Y-30615D01*
X66059Y-30737D01*
X66218Y-30803D01*
X66390Y-30803D01*
X66480Y-30766D01*
X66476Y-30775D01*
X66476Y-30877D01*
X66515Y-30971D01*
X66587Y-31043D01*
X66681Y-31082D01*
X66782Y-31082D01*
X66877Y-31043D01*
X66949Y-30971D01*
X66988Y-30877D01*
X66988Y-30776D01*
X66988Y-31079D01*
X66981Y-31082D01*
X66909Y-31154D01*
X66870Y-31248D01*
X66870Y-31349D01*
X66908Y-31443D01*
X66980Y-31516D01*
X67074Y-31555D01*
X67176Y-31555D01*
X67270Y-31516D01*
X67342Y-31444D01*
X67381Y-31350D01*
X67381Y-31248D01*
X67381Y-32035D01*
X67343Y-31941D01*
X67271Y-31869D01*
X67177Y-31830D01*
X67075Y-31830D01*
X66981Y-31869D01*
X66909Y-31941D01*
X66870Y-32035D01*
X66870Y-32137D01*
X66908Y-32231D01*
X66980Y-32303D01*
X67074Y-32342D01*
X67176Y-32342D01*
X67270Y-32303D01*
X67342Y-32231D01*
X67381Y-32137D01*
X67381Y-32035D01*
X67381Y-34890D01*
X67343Y-34796D01*
X67271Y-34724D01*
X67177Y-34685D01*
X67075Y-34684D01*
X66981Y-34723D01*
X66909Y-34795D01*
X66870Y-34889D01*
X66870Y-34991D01*
X66908Y-35085D01*
X66980Y-35157D01*
X67074Y-35196D01*
X67176Y-35196D01*
X67270Y-35158D01*
X67342Y-35086D01*
X67381Y-34992D01*
X67381Y-34890D01*
X67381Y-37106D01*
X66791Y-37106D01*
X66791Y-32528D01*
X66752Y-32433D01*
X66680Y-32361D01*
X66586Y-32322D01*
X66484Y-32322D01*
X66390Y-32361D01*
X66318Y-32433D01*
X66279Y-32527D01*
X66279Y-32629D01*
X66318Y-32723D01*
X66390Y-32795D01*
X66484Y-32834D01*
X66586Y-32834D01*
X66680Y-32795D01*
X66752Y-32723D01*
X66791Y-32629D01*
X66791Y-32528D01*
X66791Y-37106D01*
X66240Y-37106D01*
X66240Y-31248D01*
X66201Y-31154D01*
X66129Y-31082D01*
X66035Y-31043D01*
X65933Y-31043D01*
X65839Y-31082D01*
X65767Y-31153D01*
X65738Y-31124D01*
X65738Y-30284D01*
X65738Y-29284D01*
X65672Y-29125D01*
X65550Y-29003D01*
X65391Y-28937D01*
X65219Y-28936D01*
X65060Y-29002D01*
X64938Y-29124D01*
X64872Y-29283D01*
X64871Y-29455D01*
X64937Y-29615D01*
X65059Y-29737D01*
X65218Y-29803D01*
X65390Y-29803D01*
X65550Y-29737D01*
X65672Y-29615D01*
X65738Y-29456D01*
X65738Y-29284D01*
X65738Y-30284D01*
X65672Y-30125D01*
X65550Y-30003D01*
X65391Y-29937D01*
X65219Y-29936D01*
X65060Y-30002D01*
X64938Y-30124D01*
X64872Y-30283D01*
X64871Y-30455D01*
X64937Y-30615D01*
X65059Y-30737D01*
X65218Y-30803D01*
X65390Y-30803D01*
X65550Y-30737D01*
X65672Y-30615D01*
X65738Y-30456D01*
X65738Y-30284D01*
X65738Y-31124D01*
X65696Y-31082D01*
X65602Y-31043D01*
X65500Y-31043D01*
X65406Y-31082D01*
X65334Y-31154D01*
X65295Y-31248D01*
X65295Y-31349D01*
X65334Y-31443D01*
X65406Y-31516D01*
X65500Y-31555D01*
X65601Y-31555D01*
X65695Y-31516D01*
X65767Y-31444D01*
X65839Y-31516D01*
X65933Y-31555D01*
X66034Y-31555D01*
X66129Y-31516D01*
X66201Y-31444D01*
X66240Y-31350D01*
X66240Y-31248D01*
X66240Y-37106D01*
X66200Y-37106D01*
X66200Y-32035D01*
X66161Y-31941D01*
X66090Y-31869D01*
X65996Y-31830D01*
X65894Y-31830D01*
X65800Y-31869D01*
X65748Y-31921D01*
X65696Y-31869D01*
X65602Y-31830D01*
X65500Y-31830D01*
X65406Y-31869D01*
X65334Y-31941D01*
X65295Y-32035D01*
X65295Y-32137D01*
X65334Y-32231D01*
X65406Y-32303D01*
X65500Y-32342D01*
X65601Y-32342D01*
X65695Y-32303D01*
X65748Y-32251D01*
X65799Y-32303D01*
X65893Y-32342D01*
X65995Y-32342D01*
X66089Y-32303D01*
X66161Y-32231D01*
X66200Y-32137D01*
X66200Y-32035D01*
X66200Y-37106D01*
X65216Y-37106D01*
X65216Y-32528D01*
X65177Y-32433D01*
X65105Y-32361D01*
X65019Y-32326D01*
X65019Y-30756D01*
X64980Y-30662D01*
X64908Y-30590D01*
X64814Y-30551D01*
X64713Y-30551D01*
X64695Y-30558D01*
X64738Y-30456D01*
X64738Y-30284D01*
X64738Y-29284D01*
X64672Y-29125D01*
X64550Y-29003D01*
X64391Y-28937D01*
X64219Y-28936D01*
X64060Y-29002D01*
X63938Y-29124D01*
X63872Y-29283D01*
X63871Y-29455D01*
X63937Y-29615D01*
X64059Y-29737D01*
X64218Y-29803D01*
X64390Y-29803D01*
X64550Y-29737D01*
X64672Y-29615D01*
X64738Y-29456D01*
X64738Y-29284D01*
X64738Y-30284D01*
X64672Y-30125D01*
X64550Y-30003D01*
X64391Y-29937D01*
X64219Y-29936D01*
X64060Y-30002D01*
X63938Y-30124D01*
X63872Y-30283D01*
X63871Y-30455D01*
X63937Y-30615D01*
X64059Y-30737D01*
X64218Y-30803D01*
X64390Y-30803D01*
X64508Y-30754D01*
X64507Y-30755D01*
X64507Y-30857D01*
X64546Y-30951D01*
X64618Y-31023D01*
X64712Y-31062D01*
X64814Y-31063D01*
X64908Y-31024D01*
X64980Y-30952D01*
X65019Y-30858D01*
X65019Y-30756D01*
X65019Y-32326D01*
X65011Y-32322D01*
X64909Y-32322D01*
X64815Y-32361D01*
X64743Y-32433D01*
X64704Y-32527D01*
X64704Y-32629D01*
X64743Y-32723D01*
X64815Y-32795D01*
X64909Y-32834D01*
X65011Y-32834D01*
X65105Y-32795D01*
X65177Y-32723D01*
X65216Y-32629D01*
X65216Y-32528D01*
X65216Y-37106D01*
X65177Y-37106D01*
X65177Y-35291D01*
X65144Y-35212D01*
X65083Y-35151D01*
X65003Y-35118D01*
X64917Y-35118D01*
X64838Y-35150D01*
X64777Y-35211D01*
X64744Y-35291D01*
X64744Y-35377D01*
X64776Y-35457D01*
X64837Y-35518D01*
X64917Y-35551D01*
X65003Y-35551D01*
X65083Y-35518D01*
X65144Y-35457D01*
X65177Y-35377D01*
X65177Y-35291D01*
X65177Y-37106D01*
X64626Y-37106D01*
X64626Y-32035D01*
X64626Y-31248D01*
X64587Y-31154D01*
X64515Y-31082D01*
X64421Y-31043D01*
X64319Y-31043D01*
X64225Y-31082D01*
X64153Y-31154D01*
X64114Y-31248D01*
X64114Y-31349D01*
X64153Y-31443D01*
X64224Y-31516D01*
X64318Y-31555D01*
X64420Y-31555D01*
X64514Y-31516D01*
X64586Y-31444D01*
X64625Y-31350D01*
X64626Y-31248D01*
X64626Y-32035D01*
X64587Y-31941D01*
X64515Y-31869D01*
X64421Y-31830D01*
X64319Y-31830D01*
X64225Y-31869D01*
X64153Y-31941D01*
X64114Y-32035D01*
X64114Y-32137D01*
X64153Y-32231D01*
X64224Y-32303D01*
X64318Y-32342D01*
X64420Y-32342D01*
X64514Y-32303D01*
X64586Y-32231D01*
X64625Y-32137D01*
X64626Y-32035D01*
X64626Y-37106D01*
X64389Y-37106D01*
X64389Y-34602D01*
X64356Y-34523D01*
X64296Y-34462D01*
X64216Y-34429D01*
X64130Y-34429D01*
X64050Y-34461D01*
X63989Y-34522D01*
X63956Y-34602D01*
X63956Y-34688D01*
X63989Y-34768D01*
X64050Y-34829D01*
X64129Y-34862D01*
X64216Y-34862D01*
X64295Y-34829D01*
X64356Y-34768D01*
X64389Y-34688D01*
X64389Y-34602D01*
X64389Y-37106D01*
X63973Y-37106D01*
X63996Y-37051D01*
X63996Y-36964D01*
X63963Y-36885D01*
X63902Y-36824D01*
X63822Y-36791D01*
X63738Y-36791D01*
X63738Y-30284D01*
X63738Y-29284D01*
X63672Y-29125D01*
X63550Y-29003D01*
X63391Y-28937D01*
X63219Y-28936D01*
X63060Y-29002D01*
X62938Y-29124D01*
X62872Y-29283D01*
X62871Y-29455D01*
X62937Y-29615D01*
X63059Y-29737D01*
X63218Y-29803D01*
X63390Y-29803D01*
X63550Y-29737D01*
X63672Y-29615D01*
X63738Y-29456D01*
X63738Y-29284D01*
X63738Y-30284D01*
X63672Y-30125D01*
X63550Y-30003D01*
X63391Y-29937D01*
X63219Y-29936D01*
X63060Y-30002D01*
X62938Y-30124D01*
X62872Y-30283D01*
X62871Y-30455D01*
X62937Y-30615D01*
X63059Y-30737D01*
X63218Y-30803D01*
X63390Y-30803D01*
X63550Y-30737D01*
X63672Y-30615D01*
X63738Y-30456D01*
X63738Y-30284D01*
X63738Y-36791D01*
X63736Y-36791D01*
X63657Y-36824D01*
X63602Y-36878D01*
X63602Y-35783D01*
X63569Y-35704D01*
X63508Y-35643D01*
X63429Y-35610D01*
X63342Y-35610D01*
X63263Y-35643D01*
X63208Y-35697D01*
X63208Y-34602D01*
X63175Y-34523D01*
X63114Y-34462D01*
X63035Y-34429D01*
X62949Y-34429D01*
X62869Y-34461D01*
X62808Y-34522D01*
X62775Y-34602D01*
X62775Y-34688D01*
X62808Y-34768D01*
X62869Y-34829D01*
X62948Y-34862D01*
X63035Y-34862D01*
X63114Y-34829D01*
X63175Y-34768D01*
X63208Y-34688D01*
X63208Y-34602D01*
X63208Y-35697D01*
X63202Y-35703D01*
X63169Y-35783D01*
X63169Y-35869D01*
X63202Y-35949D01*
X63263Y-36010D01*
X63342Y-36043D01*
X63428Y-36043D01*
X63508Y-36010D01*
X63569Y-35949D01*
X63602Y-35870D01*
X63602Y-35783D01*
X63602Y-36878D01*
X63596Y-36885D01*
X63563Y-36964D01*
X63562Y-37050D01*
X63585Y-37106D01*
X62738Y-37106D01*
X62738Y-30284D01*
X62738Y-29284D01*
X62672Y-29125D01*
X62550Y-29003D01*
X62391Y-28937D01*
X62219Y-28936D01*
X62060Y-29002D01*
X61938Y-29124D01*
X61872Y-29283D01*
X61871Y-29455D01*
X61937Y-29615D01*
X62059Y-29737D01*
X62218Y-29803D01*
X62390Y-29803D01*
X62550Y-29737D01*
X62672Y-29615D01*
X62738Y-29456D01*
X62738Y-29284D01*
X62738Y-30284D01*
X62672Y-30125D01*
X62550Y-30003D01*
X62391Y-29937D01*
X62219Y-29936D01*
X62060Y-30002D01*
X61938Y-30124D01*
X61872Y-30283D01*
X61871Y-30455D01*
X61937Y-30615D01*
X62059Y-30737D01*
X62218Y-30803D01*
X62390Y-30803D01*
X62550Y-30737D01*
X62672Y-30615D01*
X62738Y-30456D01*
X62738Y-30284D01*
X62738Y-37106D01*
X62500Y-37106D01*
X62500Y-36318D01*
X62398Y-36318D01*
X62421Y-36263D01*
X62421Y-36177D01*
X62421Y-35390D01*
X62388Y-35310D01*
X62327Y-35249D01*
X62247Y-35216D01*
X62161Y-35216D01*
X62082Y-35249D01*
X62021Y-35310D01*
X61988Y-35389D01*
X61988Y-35475D01*
X62021Y-35555D01*
X62081Y-35616D01*
X62161Y-35649D01*
X62247Y-35649D01*
X62327Y-35616D01*
X62388Y-35555D01*
X62421Y-35476D01*
X62421Y-35390D01*
X62421Y-36177D01*
X62388Y-36097D01*
X62327Y-36037D01*
X62247Y-36003D01*
X62161Y-36003D01*
X62082Y-36036D01*
X62021Y-36097D01*
X61988Y-36177D01*
X61988Y-36263D01*
X62011Y-36318D01*
X61738Y-36318D01*
X61738Y-30284D01*
X61738Y-29284D01*
X61672Y-29125D01*
X61550Y-29003D01*
X61391Y-28937D01*
X61219Y-28936D01*
X61060Y-29002D01*
X60938Y-29124D01*
X60872Y-29283D01*
X60871Y-29455D01*
X60937Y-29615D01*
X61059Y-29737D01*
X61218Y-29803D01*
X61390Y-29803D01*
X61550Y-29737D01*
X61672Y-29615D01*
X61738Y-29456D01*
X61738Y-29284D01*
X61738Y-30284D01*
X61672Y-30125D01*
X61550Y-30003D01*
X61391Y-29937D01*
X61219Y-29936D01*
X61060Y-30002D01*
X60938Y-30124D01*
X60872Y-30283D01*
X60871Y-30455D01*
X60937Y-30615D01*
X61059Y-30737D01*
X61218Y-30803D01*
X61390Y-30803D01*
X61550Y-30737D01*
X61672Y-30615D01*
X61738Y-30456D01*
X61738Y-30284D01*
X61738Y-36318D01*
X61610Y-36318D01*
X61633Y-36263D01*
X61633Y-36177D01*
X61633Y-35390D01*
X61600Y-35310D01*
X61540Y-35249D01*
X61507Y-35236D01*
X61539Y-35223D01*
X61600Y-35162D01*
X61633Y-35082D01*
X61633Y-34996D01*
X61600Y-34916D01*
X61540Y-34855D01*
X61460Y-34822D01*
X61374Y-34822D01*
X61294Y-34855D01*
X61233Y-34916D01*
X61200Y-34996D01*
X61200Y-35082D01*
X61233Y-35161D01*
X61294Y-35222D01*
X61326Y-35236D01*
X61294Y-35249D01*
X61233Y-35310D01*
X61200Y-35389D01*
X61200Y-35475D01*
X61233Y-35555D01*
X61294Y-35616D01*
X61374Y-35649D01*
X61460Y-35649D01*
X61539Y-35616D01*
X61600Y-35555D01*
X61633Y-35476D01*
X61633Y-35390D01*
X61633Y-36177D01*
X61600Y-36097D01*
X61540Y-36037D01*
X61460Y-36003D01*
X61374Y-36003D01*
X61294Y-36036D01*
X61233Y-36097D01*
X61200Y-36177D01*
X61200Y-36263D01*
X61223Y-36318D01*
X60846Y-36318D01*
X60846Y-35783D01*
X60813Y-35704D01*
X60752Y-35643D01*
X60738Y-35637D01*
X60738Y-30284D01*
X60738Y-29284D01*
X60672Y-29125D01*
X60550Y-29003D01*
X60391Y-28937D01*
X60219Y-28936D01*
X60060Y-29002D01*
X59938Y-29124D01*
X59872Y-29283D01*
X59871Y-29455D01*
X59937Y-29615D01*
X60059Y-29737D01*
X60218Y-29803D01*
X60390Y-29803D01*
X60550Y-29737D01*
X60672Y-29615D01*
X60738Y-29456D01*
X60738Y-29284D01*
X60738Y-30284D01*
X60672Y-30125D01*
X60550Y-30003D01*
X60391Y-29937D01*
X60219Y-29936D01*
X60060Y-30002D01*
X59938Y-30124D01*
X59872Y-30283D01*
X59871Y-30455D01*
X59937Y-30615D01*
X60059Y-30737D01*
X60218Y-30803D01*
X60390Y-30803D01*
X60550Y-30737D01*
X60672Y-30615D01*
X60738Y-30456D01*
X60738Y-30284D01*
X60738Y-35637D01*
X60673Y-35610D01*
X60587Y-35610D01*
X60507Y-35643D01*
X60452Y-35697D01*
X60452Y-34209D01*
X60419Y-34129D01*
X60359Y-34068D01*
X60279Y-34035D01*
X60193Y-34035D01*
X60113Y-34068D01*
X60052Y-34129D01*
X60019Y-34208D01*
X60019Y-34294D01*
X60052Y-34374D01*
X60113Y-34435D01*
X60192Y-34468D01*
X60279Y-34468D01*
X60358Y-34435D01*
X60419Y-34374D01*
X60452Y-34295D01*
X60452Y-34209D01*
X60452Y-35697D01*
X60446Y-35703D01*
X60433Y-35736D01*
X60419Y-35704D01*
X60359Y-35643D01*
X60279Y-35610D01*
X60193Y-35610D01*
X60113Y-35643D01*
X60052Y-35703D01*
X60019Y-35783D01*
X60019Y-35869D01*
X60052Y-35949D01*
X60113Y-36010D01*
X60192Y-36043D01*
X60279Y-36043D01*
X60358Y-36010D01*
X60419Y-35949D01*
X60433Y-35917D01*
X60446Y-35949D01*
X60507Y-36010D01*
X60586Y-36043D01*
X60672Y-36043D01*
X60752Y-36010D01*
X60813Y-35949D01*
X60846Y-35870D01*
X60846Y-35783D01*
X60846Y-36318D01*
X60036Y-36318D01*
X60059Y-36263D01*
X60059Y-36177D01*
X60026Y-36097D01*
X59965Y-36037D01*
X59885Y-36003D01*
X59799Y-36003D01*
X59738Y-36029D01*
X59738Y-30284D01*
X59738Y-29284D01*
X59672Y-29125D01*
X59550Y-29003D01*
X59391Y-28937D01*
X59219Y-28936D01*
X59060Y-29002D01*
X58938Y-29124D01*
X58872Y-29283D01*
X58871Y-29455D01*
X58937Y-29615D01*
X59059Y-29737D01*
X59218Y-29803D01*
X59390Y-29803D01*
X59550Y-29737D01*
X59672Y-29615D01*
X59738Y-29456D01*
X59738Y-29284D01*
X59738Y-30284D01*
X59672Y-30125D01*
X59550Y-30003D01*
X59391Y-29937D01*
X59219Y-29936D01*
X59060Y-30002D01*
X58938Y-30124D01*
X58872Y-30283D01*
X58871Y-30455D01*
X58937Y-30615D01*
X59059Y-30737D01*
X59218Y-30803D01*
X59390Y-30803D01*
X59550Y-30737D01*
X59672Y-30615D01*
X59738Y-30456D01*
X59738Y-30284D01*
X59738Y-36029D01*
X59720Y-36036D01*
X59659Y-36097D01*
X59626Y-36177D01*
X59625Y-36263D01*
X59648Y-36318D01*
X59547Y-36318D01*
X59547Y-36420D01*
X59492Y-36397D01*
X59468Y-36397D01*
X59468Y-32043D01*
X59435Y-31964D01*
X59374Y-31903D01*
X59295Y-31870D01*
X59209Y-31870D01*
X59129Y-31902D01*
X59068Y-31963D01*
X59035Y-32043D01*
X59035Y-32129D01*
X59068Y-32209D01*
X59129Y-32270D01*
X59208Y-32303D01*
X59294Y-32303D01*
X59374Y-32270D01*
X59435Y-32209D01*
X59468Y-32129D01*
X59468Y-32043D01*
X59468Y-36397D01*
X59405Y-36397D01*
X59326Y-36430D01*
X59271Y-36485D01*
X59271Y-35783D01*
X59238Y-35704D01*
X59177Y-35643D01*
X59145Y-35629D01*
X59177Y-35616D01*
X59238Y-35555D01*
X59271Y-35476D01*
X59271Y-35390D01*
X59238Y-35310D01*
X59177Y-35249D01*
X59098Y-35216D01*
X59012Y-35216D01*
X58932Y-35249D01*
X58877Y-35303D01*
X58877Y-34602D01*
X58845Y-34523D01*
X58784Y-34462D01*
X58738Y-34443D01*
X58738Y-30284D01*
X58738Y-29284D01*
X58672Y-29125D01*
X58550Y-29003D01*
X58391Y-28937D01*
X58219Y-28936D01*
X58060Y-29002D01*
X57938Y-29124D01*
X57872Y-29283D01*
X57871Y-29455D01*
X57937Y-29615D01*
X58059Y-29737D01*
X58218Y-29803D01*
X58390Y-29803D01*
X58550Y-29737D01*
X58672Y-29615D01*
X58738Y-29456D01*
X58738Y-29284D01*
X58738Y-30284D01*
X58672Y-30125D01*
X58550Y-30003D01*
X58391Y-29937D01*
X58219Y-29936D01*
X58060Y-30002D01*
X57938Y-30124D01*
X57872Y-30283D01*
X57871Y-30455D01*
X57937Y-30615D01*
X58059Y-30737D01*
X58218Y-30803D01*
X58390Y-30803D01*
X58550Y-30737D01*
X58672Y-30615D01*
X58738Y-30456D01*
X58738Y-30284D01*
X58738Y-34443D01*
X58704Y-34429D01*
X58618Y-34429D01*
X58538Y-34461D01*
X58477Y-34522D01*
X58444Y-34602D01*
X58444Y-34688D01*
X58477Y-34768D01*
X58538Y-34829D01*
X58618Y-34862D01*
X58704Y-34862D01*
X58783Y-34829D01*
X58844Y-34768D01*
X58877Y-34688D01*
X58877Y-34602D01*
X58877Y-35303D01*
X58871Y-35310D01*
X58838Y-35389D01*
X58838Y-35475D01*
X58871Y-35555D01*
X58932Y-35616D01*
X58964Y-35629D01*
X58932Y-35643D01*
X58871Y-35703D01*
X58838Y-35783D01*
X58838Y-35869D01*
X58871Y-35949D01*
X58932Y-36010D01*
X59011Y-36043D01*
X59098Y-36043D01*
X59177Y-36010D01*
X59238Y-35949D01*
X59271Y-35870D01*
X59271Y-35783D01*
X59271Y-36485D01*
X59265Y-36491D01*
X59232Y-36570D01*
X59232Y-36657D01*
X59265Y-36736D01*
X59326Y-36797D01*
X59358Y-36811D01*
X59326Y-36824D01*
X59265Y-36885D01*
X59232Y-36964D01*
X59232Y-37050D01*
X59265Y-37130D01*
X59326Y-37191D01*
X59405Y-37224D01*
X59491Y-37224D01*
X59547Y-37201D01*
X59547Y-37601D01*
X59492Y-37578D01*
X59405Y-37578D01*
X59326Y-37611D01*
X59265Y-37672D01*
X59232Y-37752D01*
X59232Y-37838D01*
X59265Y-37917D01*
X59326Y-37978D01*
X59405Y-38011D01*
X59491Y-38011D01*
X59547Y-37988D01*
X59547Y-38090D01*
X59648Y-38090D01*
X59626Y-38145D01*
X59625Y-38231D01*
X59658Y-38311D01*
X59719Y-38372D01*
X59799Y-38405D01*
X59885Y-38405D01*
X59965Y-38372D01*
X60025Y-38311D01*
X60039Y-38279D01*
X60052Y-38311D01*
X60113Y-38372D01*
X60145Y-38385D01*
X60113Y-38399D01*
X60052Y-38459D01*
X60019Y-38539D01*
X60019Y-38625D01*
X60052Y-38705D01*
X60113Y-38766D01*
X60192Y-38799D01*
X60279Y-38799D01*
X60358Y-38766D01*
X60419Y-38705D01*
X60433Y-38673D01*
X60446Y-38705D01*
X60507Y-38766D01*
X60586Y-38799D01*
X60672Y-38799D01*
X60752Y-38766D01*
X60813Y-38705D01*
X60846Y-38625D01*
X60846Y-38539D01*
X60813Y-38460D01*
X60752Y-38399D01*
X60720Y-38385D01*
X60752Y-38372D01*
X60813Y-38311D01*
X60846Y-38232D01*
X60846Y-38146D01*
X60823Y-38090D01*
X61223Y-38090D01*
X61200Y-38145D01*
X61200Y-38231D01*
X61233Y-38311D01*
X61294Y-38372D01*
X61374Y-38405D01*
X61460Y-38405D01*
X61539Y-38372D01*
X61600Y-38311D01*
X61614Y-38279D01*
X61627Y-38311D01*
X61688Y-38372D01*
X61720Y-38385D01*
X61688Y-38399D01*
X61627Y-38459D01*
X61594Y-38539D01*
X61594Y-38625D01*
X61627Y-38705D01*
X61688Y-38766D01*
X61767Y-38799D01*
X61853Y-38799D01*
X61933Y-38766D01*
X61994Y-38705D01*
X62027Y-38625D01*
X62027Y-38539D01*
X61994Y-38460D01*
X61933Y-38399D01*
X61901Y-38385D01*
X61933Y-38372D01*
X61994Y-38311D01*
X62027Y-38232D01*
X62027Y-38146D01*
X62004Y-38090D01*
X63979Y-38090D01*
X63956Y-38145D01*
X63956Y-38231D01*
X63989Y-38311D01*
X64050Y-38372D01*
X64082Y-38385D01*
X64050Y-38399D01*
X63989Y-38459D01*
X63956Y-38539D01*
X63956Y-38625D01*
X63989Y-38705D01*
X64050Y-38766D01*
X64129Y-38799D01*
X64216Y-38799D01*
X64295Y-38766D01*
X64356Y-38705D01*
X64389Y-38625D01*
X64389Y-38539D01*
X64356Y-38460D01*
X64296Y-38399D01*
X64263Y-38385D01*
X64295Y-38372D01*
X64356Y-38311D01*
X64389Y-38232D01*
X64389Y-38146D01*
X64366Y-38090D01*
X67716Y-38090D01*
X67893Y-38090D01*
X67893Y-44114D01*
X73602Y-44114D01*
X73602Y-49192D01*
X73582Y-49192D01*
X73582Y-46701D01*
X73543Y-46607D01*
X73471Y-46535D01*
X73377Y-46496D01*
X73276Y-46496D01*
X73182Y-46534D01*
X73109Y-46606D01*
X73090Y-46653D01*
X73090Y-44732D01*
X73051Y-44638D01*
X72979Y-44566D01*
X72885Y-44527D01*
X72783Y-44527D01*
X72689Y-44566D01*
X72617Y-44638D01*
X72578Y-44732D01*
X72578Y-44834D01*
X72617Y-44928D01*
X72689Y-45000D01*
X72783Y-45039D01*
X72885Y-45039D01*
X72979Y-45000D01*
X73051Y-44928D01*
X73090Y-44834D01*
X73090Y-44732D01*
X73090Y-46653D01*
X73070Y-46700D01*
X73070Y-46802D01*
X73109Y-46896D01*
X73181Y-46968D01*
X73275Y-47007D01*
X73377Y-47007D01*
X73471Y-46969D01*
X73543Y-46897D01*
X73582Y-46803D01*
X73582Y-46701D01*
X73582Y-49192D01*
X73090Y-49192D01*
X73090Y-48669D01*
X73051Y-48575D01*
X72979Y-48503D01*
X72885Y-48464D01*
X72783Y-48464D01*
X72689Y-48503D01*
X72617Y-48575D01*
X72578Y-48669D01*
X72578Y-48771D01*
X72617Y-48865D01*
X72689Y-48937D01*
X72783Y-48976D01*
X72885Y-48976D01*
X72979Y-48937D01*
X73051Y-48865D01*
X73090Y-48771D01*
X73090Y-48669D01*
X73090Y-49192D01*
X71614Y-49192D01*
X71614Y-48669D01*
X71575Y-48575D01*
X71503Y-48503D01*
X71409Y-48464D01*
X71307Y-48464D01*
X71213Y-48503D01*
X71141Y-48575D01*
X71122Y-48621D01*
X71122Y-44732D01*
X71083Y-44638D01*
X71011Y-44566D01*
X70917Y-44527D01*
X70815Y-44527D01*
X70721Y-44566D01*
X70649Y-44638D01*
X70610Y-44732D01*
X70610Y-44834D01*
X70649Y-44928D01*
X70720Y-45000D01*
X70815Y-45039D01*
X70916Y-45039D01*
X71010Y-45000D01*
X71082Y-44928D01*
X71122Y-44834D01*
X71122Y-44732D01*
X71122Y-48621D01*
X71102Y-48669D01*
X71102Y-48771D01*
X71141Y-48865D01*
X71213Y-48937D01*
X71307Y-48976D01*
X71408Y-48976D01*
X71503Y-48937D01*
X71575Y-48865D01*
X71614Y-48771D01*
X71614Y-48669D01*
X71614Y-49192D01*
X71043Y-49192D01*
X71043Y-49980D01*
X71028Y-49980D01*
X71028Y-48726D01*
X70918Y-48460D01*
X70715Y-48257D01*
X70629Y-48221D01*
X70629Y-47193D01*
X70591Y-47099D01*
X70519Y-47027D01*
X70425Y-46988D01*
X70323Y-46988D01*
X70229Y-47027D01*
X70157Y-47098D01*
X70118Y-47192D01*
X70118Y-47294D01*
X70156Y-47388D01*
X70228Y-47460D01*
X70322Y-47499D01*
X70424Y-47500D01*
X70518Y-47461D01*
X70590Y-47389D01*
X70629Y-47295D01*
X70629Y-47193D01*
X70629Y-48221D01*
X70449Y-48146D01*
X70161Y-48146D01*
X69895Y-48256D01*
X69692Y-48459D01*
X69581Y-48725D01*
X69581Y-49013D01*
X69691Y-49279D01*
X69894Y-49483D01*
X70160Y-49593D01*
X70448Y-49593D01*
X70714Y-49483D01*
X70918Y-49280D01*
X71028Y-49014D01*
X71028Y-48726D01*
X71028Y-49980D01*
X69153Y-49980D01*
X69153Y-44732D01*
X69114Y-44638D01*
X69042Y-44566D01*
X68948Y-44527D01*
X68846Y-44527D01*
X68752Y-44566D01*
X68680Y-44638D01*
X68641Y-44732D01*
X68641Y-44834D01*
X68680Y-44928D01*
X68752Y-45000D01*
X68846Y-45039D01*
X68948Y-45039D01*
X69042Y-45000D01*
X69114Y-44928D01*
X69153Y-44834D01*
X69153Y-44732D01*
X69153Y-49980D01*
X68738Y-49980D01*
X68738Y-49284D01*
X68738Y-48284D01*
X68672Y-48125D01*
X68550Y-48003D01*
X68391Y-47937D01*
X68219Y-47936D01*
X68060Y-48002D01*
X68031Y-48031D01*
X68031Y-45429D01*
X67998Y-45349D01*
X67937Y-45288D01*
X67874Y-45262D01*
X67874Y-39319D01*
X67835Y-39225D01*
X67763Y-39153D01*
X67692Y-39123D01*
X67762Y-39095D01*
X67834Y-39023D01*
X67873Y-38929D01*
X67874Y-38827D01*
X67835Y-38733D01*
X67763Y-38661D01*
X67692Y-38631D01*
X67762Y-38602D01*
X67834Y-38530D01*
X67873Y-38436D01*
X67874Y-38335D01*
X67835Y-38241D01*
X67763Y-38169D01*
X67669Y-38129D01*
X67567Y-38129D01*
X67473Y-38168D01*
X67401Y-38240D01*
X67362Y-38334D01*
X67362Y-38436D01*
X67401Y-38530D01*
X67472Y-38602D01*
X67543Y-38631D01*
X67473Y-38660D01*
X67401Y-38732D01*
X67362Y-38826D01*
X67362Y-38928D01*
X67401Y-39022D01*
X67472Y-39094D01*
X67543Y-39124D01*
X67473Y-39153D01*
X67401Y-39224D01*
X67362Y-39318D01*
X67362Y-39420D01*
X67401Y-39514D01*
X67472Y-39586D01*
X67566Y-39625D01*
X67668Y-39626D01*
X67762Y-39587D01*
X67834Y-39515D01*
X67873Y-39421D01*
X67874Y-39319D01*
X67874Y-45262D01*
X67858Y-45255D01*
X67772Y-45255D01*
X67692Y-45288D01*
X67631Y-45349D01*
X67598Y-45429D01*
X67598Y-45515D01*
X67631Y-45594D01*
X67692Y-45655D01*
X67771Y-45688D01*
X67857Y-45689D01*
X67937Y-45656D01*
X67998Y-45595D01*
X68031Y-45515D01*
X68031Y-45429D01*
X68031Y-48031D01*
X67938Y-48124D01*
X67872Y-48283D01*
X67871Y-48455D01*
X67937Y-48615D01*
X68059Y-48737D01*
X68218Y-48803D01*
X68390Y-48803D01*
X68550Y-48737D01*
X68672Y-48615D01*
X68738Y-48456D01*
X68738Y-48284D01*
X68738Y-49284D01*
X68672Y-49125D01*
X68550Y-49003D01*
X68391Y-48937D01*
X68219Y-48936D01*
X68060Y-49002D01*
X67938Y-49124D01*
X67872Y-49283D01*
X67871Y-49455D01*
X67937Y-49615D01*
X68059Y-49737D01*
X68218Y-49803D01*
X68390Y-49803D01*
X68550Y-49737D01*
X68672Y-49615D01*
X68738Y-49456D01*
X68738Y-49284D01*
X68738Y-49980D01*
X67738Y-49980D01*
X67738Y-49284D01*
X67738Y-48284D01*
X67672Y-48125D01*
X67637Y-48090D01*
X67637Y-45724D01*
X67604Y-45645D01*
X67544Y-45584D01*
X67464Y-45551D01*
X67378Y-45551D01*
X67298Y-45584D01*
X67283Y-45599D01*
X67283Y-39319D01*
X67244Y-39225D01*
X67172Y-39153D01*
X67145Y-39142D01*
X67145Y-38638D01*
X67112Y-38558D01*
X67051Y-38497D01*
X66972Y-38464D01*
X66886Y-38464D01*
X66806Y-38497D01*
X66745Y-38558D01*
X66712Y-38637D01*
X66712Y-38723D01*
X66745Y-38803D01*
X66806Y-38864D01*
X66885Y-38897D01*
X66972Y-38897D01*
X67051Y-38864D01*
X67112Y-38803D01*
X67145Y-38724D01*
X67145Y-38638D01*
X67145Y-39142D01*
X67078Y-39114D01*
X66976Y-39114D01*
X66882Y-39153D01*
X66810Y-39224D01*
X66771Y-39318D01*
X66771Y-39420D01*
X66810Y-39514D01*
X66882Y-39586D01*
X66976Y-39625D01*
X67078Y-39626D01*
X67172Y-39587D01*
X67244Y-39515D01*
X67283Y-39421D01*
X67283Y-39319D01*
X67283Y-45599D01*
X67237Y-45644D01*
X67204Y-45724D01*
X67204Y-45810D01*
X67237Y-45890D01*
X67298Y-45951D01*
X67377Y-45984D01*
X67464Y-45984D01*
X67543Y-45951D01*
X67604Y-45890D01*
X67637Y-45810D01*
X67637Y-45724D01*
X67637Y-48090D01*
X67550Y-48003D01*
X67391Y-47937D01*
X67244Y-47936D01*
X67244Y-46020D01*
X67211Y-45940D01*
X67150Y-45879D01*
X67070Y-45846D01*
X66984Y-45846D01*
X66905Y-45879D01*
X66844Y-45940D01*
X66811Y-46019D01*
X66810Y-46105D01*
X66843Y-46185D01*
X66904Y-46246D01*
X66984Y-46279D01*
X67070Y-46279D01*
X67150Y-46246D01*
X67211Y-46185D01*
X67244Y-46106D01*
X67244Y-46020D01*
X67244Y-47936D01*
X67219Y-47936D01*
X67185Y-47951D01*
X67185Y-47193D01*
X67146Y-47099D01*
X67074Y-47027D01*
X66980Y-46988D01*
X66878Y-46988D01*
X66784Y-47027D01*
X66712Y-47098D01*
X66692Y-47145D01*
X66692Y-39319D01*
X66654Y-39225D01*
X66582Y-39153D01*
X66488Y-39114D01*
X66386Y-39114D01*
X66292Y-39153D01*
X66220Y-39224D01*
X66181Y-39318D01*
X66181Y-39420D01*
X66219Y-39514D01*
X66291Y-39586D01*
X66385Y-39625D01*
X66487Y-39626D01*
X66581Y-39587D01*
X66653Y-39515D01*
X66692Y-39421D01*
X66692Y-39319D01*
X66692Y-47145D01*
X66673Y-47192D01*
X66673Y-47294D01*
X66712Y-47388D01*
X66783Y-47460D01*
X66878Y-47499D01*
X66979Y-47500D01*
X67073Y-47461D01*
X67145Y-47389D01*
X67184Y-47295D01*
X67185Y-47193D01*
X67185Y-47951D01*
X67060Y-48002D01*
X66938Y-48124D01*
X66872Y-48283D01*
X66871Y-48455D01*
X66937Y-48615D01*
X67059Y-48737D01*
X67218Y-48803D01*
X67390Y-48803D01*
X67550Y-48737D01*
X67672Y-48615D01*
X67738Y-48456D01*
X67738Y-48284D01*
X67738Y-49284D01*
X67672Y-49125D01*
X67550Y-49003D01*
X67391Y-48937D01*
X67219Y-48936D01*
X67060Y-49002D01*
X66938Y-49124D01*
X66872Y-49283D01*
X66871Y-49455D01*
X66937Y-49615D01*
X67059Y-49737D01*
X67218Y-49803D01*
X67390Y-49803D01*
X67550Y-49737D01*
X67672Y-49615D01*
X67738Y-49456D01*
X67738Y-49284D01*
X67738Y-49980D01*
X66738Y-49980D01*
X66738Y-49284D01*
X66738Y-48284D01*
X66672Y-48125D01*
X66550Y-48003D01*
X66391Y-47937D01*
X66387Y-47937D01*
X66387Y-43238D01*
X66335Y-43112D01*
X66238Y-43015D01*
X66112Y-42962D01*
X65975Y-42962D01*
X65848Y-43014D01*
X65751Y-43111D01*
X65698Y-43238D01*
X65698Y-43375D01*
X65751Y-43501D01*
X65847Y-43598D01*
X65974Y-43651D01*
X66111Y-43651D01*
X66238Y-43599D01*
X66335Y-43502D01*
X66387Y-43375D01*
X66387Y-43238D01*
X66387Y-47937D01*
X66219Y-47936D01*
X66060Y-48002D01*
X65938Y-48124D01*
X65872Y-48283D01*
X65871Y-48455D01*
X65937Y-48615D01*
X66059Y-48737D01*
X66218Y-48803D01*
X66390Y-48803D01*
X66550Y-48737D01*
X66672Y-48615D01*
X66738Y-48456D01*
X66738Y-48284D01*
X66738Y-49284D01*
X66672Y-49125D01*
X66550Y-49003D01*
X66391Y-48937D01*
X66219Y-48936D01*
X66060Y-49002D01*
X65938Y-49124D01*
X65872Y-49283D01*
X65871Y-49455D01*
X65937Y-49615D01*
X66059Y-49737D01*
X66218Y-49803D01*
X66390Y-49803D01*
X66550Y-49737D01*
X66672Y-49615D01*
X66738Y-49456D01*
X66738Y-49284D01*
X66738Y-49980D01*
X65738Y-49980D01*
X65738Y-49284D01*
X65738Y-48284D01*
X65672Y-48125D01*
X65610Y-48062D01*
X65610Y-39220D01*
X65610Y-38630D01*
X65571Y-38536D01*
X65499Y-38464D01*
X65405Y-38425D01*
X65303Y-38425D01*
X65209Y-38464D01*
X65137Y-38535D01*
X65098Y-38629D01*
X65098Y-38731D01*
X65137Y-38825D01*
X65209Y-38897D01*
X65303Y-38936D01*
X65405Y-38937D01*
X65499Y-38898D01*
X65571Y-38826D01*
X65610Y-38732D01*
X65610Y-38630D01*
X65610Y-39220D01*
X65571Y-39126D01*
X65499Y-39054D01*
X65405Y-39015D01*
X65303Y-39015D01*
X65209Y-39054D01*
X65137Y-39126D01*
X65098Y-39220D01*
X65098Y-39322D01*
X65137Y-39416D01*
X65209Y-39488D01*
X65303Y-39527D01*
X65405Y-39527D01*
X65499Y-39488D01*
X65571Y-39416D01*
X65610Y-39322D01*
X65610Y-39220D01*
X65610Y-48062D01*
X65550Y-48003D01*
X65391Y-47937D01*
X65219Y-47936D01*
X65206Y-47942D01*
X65206Y-44419D01*
X65154Y-44293D01*
X65057Y-44196D01*
X65019Y-44180D01*
X65019Y-39220D01*
X65019Y-38630D01*
X64980Y-38536D01*
X64908Y-38464D01*
X64814Y-38425D01*
X64713Y-38425D01*
X64619Y-38464D01*
X64546Y-38535D01*
X64507Y-38629D01*
X64507Y-38731D01*
X64546Y-38825D01*
X64618Y-38897D01*
X64712Y-38936D01*
X64814Y-38937D01*
X64908Y-38898D01*
X64980Y-38826D01*
X65019Y-38732D01*
X65019Y-38630D01*
X65019Y-39220D01*
X64980Y-39126D01*
X64908Y-39054D01*
X64814Y-39015D01*
X64713Y-39015D01*
X64619Y-39054D01*
X64546Y-39126D01*
X64507Y-39220D01*
X64507Y-39322D01*
X64546Y-39416D01*
X64618Y-39488D01*
X64712Y-39527D01*
X64814Y-39527D01*
X64908Y-39488D01*
X64980Y-39416D01*
X65019Y-39322D01*
X65019Y-39220D01*
X65019Y-44180D01*
X64931Y-44143D01*
X64793Y-44143D01*
X64667Y-44195D01*
X64570Y-44292D01*
X64517Y-44419D01*
X64517Y-44556D01*
X64569Y-44683D01*
X64666Y-44780D01*
X64793Y-44832D01*
X64930Y-44832D01*
X65057Y-44780D01*
X65154Y-44683D01*
X65206Y-44557D01*
X65206Y-44419D01*
X65206Y-47942D01*
X65060Y-48002D01*
X64938Y-48124D01*
X64872Y-48283D01*
X64871Y-48455D01*
X64937Y-48615D01*
X65059Y-48737D01*
X65218Y-48803D01*
X65390Y-48803D01*
X65550Y-48737D01*
X65672Y-48615D01*
X65738Y-48456D01*
X65738Y-48284D01*
X65738Y-49284D01*
X65672Y-49125D01*
X65550Y-49003D01*
X65391Y-48937D01*
X65219Y-48936D01*
X65060Y-49002D01*
X64938Y-49124D01*
X64872Y-49283D01*
X64871Y-49455D01*
X64937Y-49615D01*
X65059Y-49737D01*
X65218Y-49803D01*
X65390Y-49803D01*
X65550Y-49737D01*
X65672Y-49615D01*
X65738Y-49456D01*
X65738Y-49284D01*
X65738Y-49980D01*
X64738Y-49980D01*
X64738Y-49284D01*
X64738Y-48284D01*
X64672Y-48125D01*
X64550Y-48003D01*
X64391Y-47937D01*
X64219Y-47936D01*
X64060Y-48002D01*
X63938Y-48124D01*
X63872Y-48283D01*
X63871Y-48455D01*
X63937Y-48615D01*
X64059Y-48737D01*
X64218Y-48803D01*
X64390Y-48803D01*
X64550Y-48737D01*
X64672Y-48615D01*
X64738Y-48456D01*
X64738Y-48284D01*
X64738Y-49284D01*
X64672Y-49125D01*
X64550Y-49003D01*
X64391Y-48937D01*
X64219Y-48936D01*
X64060Y-49002D01*
X63938Y-49124D01*
X63872Y-49283D01*
X63871Y-49455D01*
X63937Y-49615D01*
X64059Y-49737D01*
X64218Y-49803D01*
X64390Y-49803D01*
X64550Y-49737D01*
X64672Y-49615D01*
X64738Y-49456D01*
X64738Y-49284D01*
X64738Y-49980D01*
X63738Y-49980D01*
X63738Y-49284D01*
X63738Y-48284D01*
X63672Y-48125D01*
X63602Y-48054D01*
X63602Y-40114D01*
X63602Y-38933D01*
X63569Y-38853D01*
X63508Y-38792D01*
X63429Y-38759D01*
X63342Y-38759D01*
X63263Y-38792D01*
X63202Y-38853D01*
X63188Y-38885D01*
X63175Y-38853D01*
X63114Y-38792D01*
X63035Y-38759D01*
X62949Y-38759D01*
X62869Y-38792D01*
X62808Y-38853D01*
X62775Y-38933D01*
X62775Y-39019D01*
X62808Y-39098D01*
X62869Y-39159D01*
X62948Y-39192D01*
X63035Y-39192D01*
X63114Y-39160D01*
X63175Y-39099D01*
X63188Y-39066D01*
X63202Y-39098D01*
X63263Y-39159D01*
X63342Y-39192D01*
X63428Y-39192D01*
X63508Y-39160D01*
X63569Y-39099D01*
X63602Y-39019D01*
X63602Y-38933D01*
X63602Y-40114D01*
X63569Y-40034D01*
X63508Y-39974D01*
X63429Y-39940D01*
X63342Y-39940D01*
X63263Y-39973D01*
X63202Y-40034D01*
X63169Y-40114D01*
X63169Y-40200D01*
X63202Y-40279D01*
X63263Y-40340D01*
X63342Y-40373D01*
X63428Y-40374D01*
X63508Y-40341D01*
X63569Y-40280D01*
X63602Y-40200D01*
X63602Y-40114D01*
X63602Y-48054D01*
X63550Y-48003D01*
X63391Y-47937D01*
X63219Y-47936D01*
X63060Y-48002D01*
X62938Y-48124D01*
X62872Y-48283D01*
X62871Y-48455D01*
X62937Y-48615D01*
X63059Y-48737D01*
X63218Y-48803D01*
X63390Y-48803D01*
X63550Y-48737D01*
X63672Y-48615D01*
X63738Y-48456D01*
X63738Y-48284D01*
X63738Y-49284D01*
X63672Y-49125D01*
X63550Y-49003D01*
X63391Y-48937D01*
X63219Y-48936D01*
X63060Y-49002D01*
X62938Y-49124D01*
X62872Y-49283D01*
X62871Y-49455D01*
X62937Y-49615D01*
X63059Y-49737D01*
X63218Y-49803D01*
X63390Y-49803D01*
X63550Y-49737D01*
X63672Y-49615D01*
X63738Y-49456D01*
X63738Y-49284D01*
X63738Y-49980D01*
X62738Y-49980D01*
X62738Y-49284D01*
X62738Y-48284D01*
X62672Y-48125D01*
X62550Y-48003D01*
X62391Y-47937D01*
X62219Y-47936D01*
X62060Y-48002D01*
X62027Y-48035D01*
X62027Y-40508D01*
X61994Y-40428D01*
X61933Y-40367D01*
X61854Y-40334D01*
X61768Y-40334D01*
X61688Y-40367D01*
X61633Y-40422D01*
X61633Y-38933D01*
X61600Y-38853D01*
X61540Y-38792D01*
X61460Y-38759D01*
X61374Y-38759D01*
X61294Y-38792D01*
X61233Y-38853D01*
X61200Y-38933D01*
X61200Y-39019D01*
X61233Y-39098D01*
X61294Y-39159D01*
X61374Y-39192D01*
X61460Y-39192D01*
X61539Y-39160D01*
X61600Y-39099D01*
X61633Y-39019D01*
X61633Y-38933D01*
X61633Y-40422D01*
X61627Y-40428D01*
X61594Y-40507D01*
X61594Y-40594D01*
X61627Y-40673D01*
X61688Y-40734D01*
X61767Y-40767D01*
X61853Y-40767D01*
X61933Y-40734D01*
X61994Y-40673D01*
X62027Y-40594D01*
X62027Y-40508D01*
X62027Y-48035D01*
X61938Y-48124D01*
X61872Y-48283D01*
X61871Y-48455D01*
X61937Y-48615D01*
X62059Y-48737D01*
X62218Y-48803D01*
X62390Y-48803D01*
X62550Y-48737D01*
X62672Y-48615D01*
X62738Y-48456D01*
X62738Y-48284D01*
X62738Y-49284D01*
X62672Y-49125D01*
X62550Y-49003D01*
X62391Y-48937D01*
X62219Y-48936D01*
X62060Y-49002D01*
X61938Y-49124D01*
X61872Y-49283D01*
X61871Y-49455D01*
X61937Y-49615D01*
X62059Y-49737D01*
X62218Y-49803D01*
X62390Y-49803D01*
X62550Y-49737D01*
X62672Y-49615D01*
X62738Y-49456D01*
X62738Y-49284D01*
X62738Y-49980D01*
X61738Y-49980D01*
X61738Y-49284D01*
X61738Y-48284D01*
X61672Y-48125D01*
X61550Y-48003D01*
X61391Y-47937D01*
X61219Y-47936D01*
X61060Y-48002D01*
X60944Y-48117D01*
X60944Y-45921D01*
X60912Y-45842D01*
X60851Y-45781D01*
X60846Y-45779D01*
X60846Y-40508D01*
X60846Y-39720D01*
X60813Y-39641D01*
X60752Y-39580D01*
X60673Y-39547D01*
X60587Y-39547D01*
X60507Y-39580D01*
X60446Y-39640D01*
X60413Y-39720D01*
X60413Y-39806D01*
X60446Y-39886D01*
X60507Y-39947D01*
X60586Y-39980D01*
X60672Y-39980D01*
X60752Y-39947D01*
X60813Y-39886D01*
X60846Y-39807D01*
X60846Y-39720D01*
X60846Y-40508D01*
X60813Y-40428D01*
X60752Y-40367D01*
X60673Y-40334D01*
X60587Y-40334D01*
X60507Y-40367D01*
X60446Y-40428D01*
X60413Y-40507D01*
X60413Y-40594D01*
X60446Y-40673D01*
X60507Y-40734D01*
X60586Y-40767D01*
X60672Y-40767D01*
X60752Y-40734D01*
X60813Y-40673D01*
X60846Y-40594D01*
X60846Y-40508D01*
X60846Y-45779D01*
X60771Y-45748D01*
X60685Y-45747D01*
X60605Y-45780D01*
X60544Y-45841D01*
X60511Y-45921D01*
X60511Y-46007D01*
X60544Y-46087D01*
X60605Y-46148D01*
X60685Y-46181D01*
X60771Y-46181D01*
X60850Y-46148D01*
X60911Y-46087D01*
X60944Y-46007D01*
X60944Y-45921D01*
X60944Y-48117D01*
X60938Y-48124D01*
X60872Y-48283D01*
X60871Y-48455D01*
X60937Y-48615D01*
X61059Y-48737D01*
X61218Y-48803D01*
X61390Y-48803D01*
X61550Y-48737D01*
X61672Y-48615D01*
X61738Y-48456D01*
X61738Y-48284D01*
X61738Y-49284D01*
X61672Y-49125D01*
X61550Y-49003D01*
X61391Y-48937D01*
X61219Y-48936D01*
X61060Y-49002D01*
X60938Y-49124D01*
X60872Y-49283D01*
X60871Y-49455D01*
X60937Y-49615D01*
X61059Y-49737D01*
X61218Y-49803D01*
X61390Y-49803D01*
X61550Y-49737D01*
X61672Y-49615D01*
X61738Y-49456D01*
X61738Y-49284D01*
X61738Y-49980D01*
X60738Y-49980D01*
X60738Y-49284D01*
X60738Y-48284D01*
X60672Y-48125D01*
X60550Y-48003D01*
X60391Y-47937D01*
X60219Y-47936D01*
X60060Y-48002D01*
X59938Y-48124D01*
X59872Y-48283D01*
X59871Y-48455D01*
X59937Y-48615D01*
X60059Y-48737D01*
X60218Y-48803D01*
X60390Y-48803D01*
X60550Y-48737D01*
X60672Y-48615D01*
X60738Y-48456D01*
X60738Y-48284D01*
X60738Y-49284D01*
X60672Y-49125D01*
X60550Y-49003D01*
X60391Y-48937D01*
X60219Y-48936D01*
X60060Y-49002D01*
X59938Y-49124D01*
X59872Y-49283D01*
X59871Y-49455D01*
X59937Y-49615D01*
X60059Y-49737D01*
X60218Y-49803D01*
X60390Y-49803D01*
X60550Y-49737D01*
X60672Y-49615D01*
X60738Y-49456D01*
X60738Y-49284D01*
X60738Y-49980D01*
X59738Y-49980D01*
X59738Y-49284D01*
X59738Y-48284D01*
X59672Y-48125D01*
X59550Y-48003D01*
X59391Y-47937D01*
X59271Y-47936D01*
X59271Y-40114D01*
X59271Y-38539D01*
X59238Y-38460D01*
X59177Y-38399D01*
X59098Y-38366D01*
X59012Y-38366D01*
X58932Y-38399D01*
X58871Y-38459D01*
X58838Y-38539D01*
X58838Y-38625D01*
X58871Y-38705D01*
X58932Y-38766D01*
X59011Y-38799D01*
X59098Y-38799D01*
X59177Y-38766D01*
X59238Y-38705D01*
X59271Y-38625D01*
X59271Y-38539D01*
X59271Y-40114D01*
X59238Y-40034D01*
X59177Y-39974D01*
X59098Y-39940D01*
X59012Y-39940D01*
X58932Y-39973D01*
X58871Y-40034D01*
X58838Y-40114D01*
X58838Y-40200D01*
X58871Y-40279D01*
X58932Y-40340D01*
X59011Y-40373D01*
X59098Y-40374D01*
X59177Y-40341D01*
X59238Y-40280D01*
X59271Y-40200D01*
X59271Y-40114D01*
X59271Y-47936D01*
X59219Y-47936D01*
X59060Y-48002D01*
X58938Y-48124D01*
X58872Y-48283D01*
X58871Y-48455D01*
X58937Y-48615D01*
X59059Y-48737D01*
X59218Y-48803D01*
X59390Y-48803D01*
X59550Y-48737D01*
X59672Y-48615D01*
X59738Y-48456D01*
X59738Y-48284D01*
X59738Y-49284D01*
X59672Y-49125D01*
X59550Y-49003D01*
X59391Y-48937D01*
X59219Y-48936D01*
X59060Y-49002D01*
X58938Y-49124D01*
X58872Y-49283D01*
X58871Y-49455D01*
X58937Y-49615D01*
X59059Y-49737D01*
X59218Y-49803D01*
X59390Y-49803D01*
X59550Y-49737D01*
X59672Y-49615D01*
X59738Y-49456D01*
X59738Y-49284D01*
X59738Y-49980D01*
X58738Y-49980D01*
X58738Y-49284D01*
X58738Y-48284D01*
X58672Y-48125D01*
X58550Y-48003D01*
X58484Y-47975D01*
X58484Y-37752D01*
X58484Y-36177D01*
X58451Y-36097D01*
X58390Y-36037D01*
X58310Y-36003D01*
X58224Y-36003D01*
X58145Y-36036D01*
X58084Y-36097D01*
X58051Y-36177D01*
X58051Y-36263D01*
X58084Y-36342D01*
X58144Y-36403D01*
X58224Y-36436D01*
X58310Y-36437D01*
X58390Y-36404D01*
X58451Y-36343D01*
X58484Y-36263D01*
X58484Y-36177D01*
X58484Y-37752D01*
X58451Y-37672D01*
X58390Y-37611D01*
X58310Y-37578D01*
X58224Y-37578D01*
X58145Y-37611D01*
X58090Y-37666D01*
X58090Y-36571D01*
X58057Y-36491D01*
X57996Y-36430D01*
X57917Y-36397D01*
X57831Y-36397D01*
X57751Y-36430D01*
X57738Y-36443D01*
X57738Y-30284D01*
X57738Y-29284D01*
X57672Y-29125D01*
X57550Y-29003D01*
X57391Y-28937D01*
X57219Y-28936D01*
X57060Y-29002D01*
X56938Y-29124D01*
X56872Y-29283D01*
X56871Y-29455D01*
X56937Y-29615D01*
X57059Y-29737D01*
X57218Y-29803D01*
X57390Y-29803D01*
X57550Y-29737D01*
X57672Y-29615D01*
X57738Y-29456D01*
X57738Y-29284D01*
X57738Y-30284D01*
X57672Y-30125D01*
X57550Y-30003D01*
X57391Y-29937D01*
X57219Y-29936D01*
X57060Y-30002D01*
X56938Y-30124D01*
X56872Y-30283D01*
X56871Y-30455D01*
X56937Y-30615D01*
X57059Y-30737D01*
X57218Y-30803D01*
X57390Y-30803D01*
X57550Y-30737D01*
X57672Y-30615D01*
X57738Y-30456D01*
X57738Y-30284D01*
X57738Y-36443D01*
X57690Y-36491D01*
X57657Y-36570D01*
X57657Y-36657D01*
X57690Y-36736D01*
X57751Y-36797D01*
X57830Y-36830D01*
X57916Y-36830D01*
X57996Y-36797D01*
X58057Y-36736D01*
X58090Y-36657D01*
X58090Y-36571D01*
X58090Y-37666D01*
X58084Y-37672D01*
X58051Y-37752D01*
X58051Y-37838D01*
X58084Y-37917D01*
X58144Y-37978D01*
X58224Y-38011D01*
X58310Y-38011D01*
X58390Y-37978D01*
X58451Y-37918D01*
X58484Y-37838D01*
X58484Y-37752D01*
X58484Y-47975D01*
X58391Y-47937D01*
X58219Y-47936D01*
X58090Y-47990D01*
X58090Y-40508D01*
X58057Y-40428D01*
X57996Y-40367D01*
X57917Y-40334D01*
X57831Y-40334D01*
X57751Y-40367D01*
X57690Y-40428D01*
X57657Y-40507D01*
X57657Y-40594D01*
X57690Y-40673D01*
X57751Y-40734D01*
X57830Y-40767D01*
X57916Y-40767D01*
X57996Y-40734D01*
X58057Y-40673D01*
X58090Y-40594D01*
X58090Y-40508D01*
X58090Y-47990D01*
X58060Y-48002D01*
X57938Y-48124D01*
X57872Y-48283D01*
X57871Y-48455D01*
X57937Y-48615D01*
X58059Y-48737D01*
X58218Y-48803D01*
X58390Y-48803D01*
X58550Y-48737D01*
X58672Y-48615D01*
X58738Y-48456D01*
X58738Y-48284D01*
X58738Y-49284D01*
X58672Y-49125D01*
X58550Y-49003D01*
X58391Y-48937D01*
X58219Y-48936D01*
X58060Y-49002D01*
X57938Y-49124D01*
X57872Y-49283D01*
X57871Y-49455D01*
X57937Y-49615D01*
X58059Y-49737D01*
X58218Y-49803D01*
X58390Y-49803D01*
X58550Y-49737D01*
X58672Y-49615D01*
X58738Y-49456D01*
X58738Y-49284D01*
X58738Y-49980D01*
X57738Y-49980D01*
X57738Y-49284D01*
X57738Y-48284D01*
X57672Y-48125D01*
X57550Y-48003D01*
X57391Y-47937D01*
X57219Y-47936D01*
X57060Y-48002D01*
X56938Y-48124D01*
X56872Y-48283D01*
X56871Y-48455D01*
X56937Y-48615D01*
X57059Y-48737D01*
X57218Y-48803D01*
X57390Y-48803D01*
X57550Y-48737D01*
X57672Y-48615D01*
X57738Y-48456D01*
X57738Y-48284D01*
X57738Y-49284D01*
X57672Y-49125D01*
X57550Y-49003D01*
X57391Y-48937D01*
X57219Y-48936D01*
X57060Y-49002D01*
X56938Y-49124D01*
X56872Y-49283D01*
X56871Y-49455D01*
X56937Y-49615D01*
X57059Y-49737D01*
X57218Y-49803D01*
X57390Y-49803D01*
X57550Y-49737D01*
X57672Y-49615D01*
X57738Y-49456D01*
X57738Y-49284D01*
X57738Y-49980D01*
X56738Y-49980D01*
X56738Y-49284D01*
X56738Y-48284D01*
X56738Y-30284D01*
X56738Y-29284D01*
X56672Y-29125D01*
X56550Y-29003D01*
X56391Y-28937D01*
X56219Y-28936D01*
X56060Y-29002D01*
X55938Y-29124D01*
X55872Y-29283D01*
X55871Y-29455D01*
X55937Y-29615D01*
X56059Y-29737D01*
X56218Y-29803D01*
X56390Y-29803D01*
X56550Y-29737D01*
X56672Y-29615D01*
X56738Y-29456D01*
X56738Y-29284D01*
X56738Y-30284D01*
X56672Y-30125D01*
X56550Y-30003D01*
X56391Y-29937D01*
X56219Y-29936D01*
X56060Y-30002D01*
X55938Y-30124D01*
X55872Y-30283D01*
X55871Y-30455D01*
X55937Y-30615D01*
X56059Y-30737D01*
X56218Y-30803D01*
X56390Y-30803D01*
X56550Y-30737D01*
X56672Y-30615D01*
X56738Y-30456D01*
X56738Y-30284D01*
X56738Y-48284D01*
X56672Y-48125D01*
X56550Y-48003D01*
X56391Y-47937D01*
X56358Y-47937D01*
X56358Y-47193D01*
X56319Y-47099D01*
X56247Y-47027D01*
X56220Y-47016D01*
X56220Y-32043D01*
X56187Y-31964D01*
X56126Y-31903D01*
X56047Y-31870D01*
X55961Y-31870D01*
X55881Y-31902D01*
X55820Y-31963D01*
X55787Y-32043D01*
X55787Y-32129D01*
X55820Y-32209D01*
X55881Y-32270D01*
X55960Y-32303D01*
X56046Y-32303D01*
X56126Y-32270D01*
X56187Y-32209D01*
X56220Y-32129D01*
X56220Y-32043D01*
X56220Y-47016D01*
X56153Y-46988D01*
X56051Y-46988D01*
X55957Y-47027D01*
X55885Y-47098D01*
X55846Y-47192D01*
X55846Y-47294D01*
X55885Y-47388D01*
X55957Y-47460D01*
X56051Y-47499D01*
X56153Y-47500D01*
X56247Y-47461D01*
X56319Y-47389D01*
X56358Y-47295D01*
X56358Y-47193D01*
X56358Y-47937D01*
X56219Y-47936D01*
X56060Y-48002D01*
X55938Y-48124D01*
X55872Y-48283D01*
X55871Y-48455D01*
X55937Y-48615D01*
X56059Y-48737D01*
X56218Y-48803D01*
X56390Y-48803D01*
X56550Y-48737D01*
X56672Y-48615D01*
X56738Y-48456D01*
X56738Y-48284D01*
X56738Y-49284D01*
X56672Y-49125D01*
X56550Y-49003D01*
X56391Y-48937D01*
X56219Y-48936D01*
X56060Y-49002D01*
X55938Y-49124D01*
X55872Y-49283D01*
X55871Y-49455D01*
X55937Y-49615D01*
X56059Y-49737D01*
X56218Y-49803D01*
X56390Y-49803D01*
X56550Y-49737D01*
X56672Y-49615D01*
X56738Y-49456D01*
X56738Y-49284D01*
X56738Y-49980D01*
X55137Y-49980D01*
X55137Y-42470D01*
X55186Y-42470D01*
X55312Y-42418D01*
X55409Y-42321D01*
X55462Y-42194D01*
X55462Y-42057D01*
X55410Y-41931D01*
X55313Y-41834D01*
X55186Y-41781D01*
X55137Y-41781D01*
X55137Y-30964D01*
X55168Y-30964D01*
X55262Y-30925D01*
X55334Y-30853D01*
X55373Y-30759D01*
X55374Y-30657D01*
X55335Y-30563D01*
X55263Y-30491D01*
X55169Y-30452D01*
X55137Y-30452D01*
X55137Y-28759D01*
X73420Y-28759D01*
X74985Y-29542D01*
X75767Y-31107D01*
X75767Y-36594D01*
G54D10*
G36*
X55019Y-49980D02*
X54872Y-49980D01*
X54872Y-42648D01*
X54819Y-42521D01*
X54722Y-42424D01*
X54596Y-42372D01*
X54459Y-42371D01*
X54332Y-42424D01*
X54235Y-42521D01*
X54183Y-42647D01*
X54183Y-42784D01*
X54235Y-42911D01*
X54332Y-43008D01*
X54458Y-43060D01*
X54595Y-43061D01*
X54722Y-43008D01*
X54819Y-42911D01*
X54871Y-42785D01*
X54872Y-42648D01*
X54872Y-49980D01*
X54281Y-49980D01*
X54281Y-43238D01*
X54229Y-43112D01*
X54132Y-43015D01*
X54005Y-42962D01*
X53868Y-42962D01*
X53742Y-43014D01*
X53645Y-43111D01*
X53592Y-43238D01*
X53592Y-43375D01*
X53644Y-43501D01*
X53741Y-43598D01*
X53868Y-43651D01*
X54005Y-43651D01*
X54131Y-43599D01*
X54228Y-43502D01*
X54281Y-43375D01*
X54281Y-43238D01*
X54281Y-49980D01*
X51830Y-49980D01*
X51830Y-45224D01*
X51791Y-45130D01*
X51719Y-45058D01*
X51625Y-45019D01*
X51524Y-45019D01*
X51430Y-45058D01*
X51357Y-45130D01*
X51318Y-45224D01*
X51318Y-45326D01*
X51357Y-45420D01*
X51429Y-45492D01*
X51523Y-45531D01*
X51625Y-45531D01*
X51719Y-45492D01*
X51791Y-45420D01*
X51830Y-45326D01*
X51830Y-45224D01*
X51830Y-49980D01*
X51397Y-49980D01*
X51397Y-45527D01*
X51364Y-45448D01*
X51303Y-45387D01*
X51224Y-45354D01*
X51138Y-45354D01*
X51058Y-45387D01*
X51043Y-45402D01*
X51043Y-45224D01*
X51043Y-44043D01*
X51004Y-43949D01*
X50932Y-43877D01*
X50838Y-43838D01*
X50736Y-43838D01*
X50642Y-43877D01*
X50570Y-43949D01*
X50531Y-44043D01*
X50531Y-44145D01*
X50570Y-44239D01*
X50642Y-44311D01*
X50736Y-44350D01*
X50838Y-44350D01*
X50932Y-44311D01*
X51004Y-44239D01*
X51043Y-44145D01*
X51043Y-44043D01*
X51043Y-45224D01*
X51004Y-45130D01*
X50932Y-45058D01*
X50838Y-45019D01*
X50736Y-45019D01*
X50642Y-45058D01*
X50570Y-45130D01*
X50531Y-45224D01*
X50531Y-45326D01*
X50570Y-45420D01*
X50642Y-45492D01*
X50736Y-45531D01*
X50838Y-45531D01*
X50932Y-45492D01*
X51004Y-45420D01*
X51043Y-45326D01*
X51043Y-45224D01*
X51043Y-45402D01*
X50997Y-45448D01*
X50964Y-45527D01*
X50964Y-45613D01*
X50997Y-45693D01*
X51058Y-45754D01*
X51137Y-45787D01*
X51223Y-45787D01*
X51303Y-45754D01*
X51364Y-45693D01*
X51397Y-45614D01*
X51397Y-45527D01*
X51397Y-49980D01*
X48248Y-49980D01*
X48248Y-44839D01*
X48228Y-44791D01*
X48228Y-43996D01*
X48213Y-43920D01*
X48170Y-43856D01*
X48170Y-43856D01*
X48072Y-43758D01*
X48008Y-43715D01*
X47933Y-43700D01*
X44874Y-43700D01*
X44826Y-43681D01*
X44740Y-43681D01*
X44692Y-43700D01*
X41358Y-43700D01*
X41358Y-42378D01*
X41325Y-42298D01*
X41264Y-42237D01*
X41232Y-42224D01*
X41264Y-42211D01*
X41325Y-42150D01*
X41358Y-42070D01*
X41358Y-41984D01*
X41325Y-41905D01*
X41264Y-41844D01*
X41232Y-41830D01*
X41264Y-41817D01*
X41325Y-41756D01*
X41358Y-41677D01*
X41358Y-41590D01*
X41325Y-41511D01*
X41264Y-41450D01*
X41184Y-41417D01*
X41098Y-41417D01*
X41019Y-41450D01*
X40958Y-41511D01*
X40925Y-41590D01*
X40925Y-41676D01*
X40958Y-41756D01*
X41018Y-41817D01*
X41051Y-41830D01*
X41019Y-41843D01*
X40958Y-41904D01*
X40925Y-41984D01*
X40925Y-42070D01*
X40958Y-42150D01*
X41018Y-42211D01*
X41051Y-42224D01*
X41019Y-42237D01*
X40958Y-42298D01*
X40925Y-42377D01*
X40925Y-42464D01*
X40958Y-42543D01*
X41018Y-42604D01*
X41098Y-42637D01*
X41184Y-42637D01*
X41264Y-42604D01*
X41325Y-42544D01*
X41358Y-42464D01*
X41358Y-42378D01*
X41358Y-43700D01*
X40748Y-43700D01*
X40748Y-43003D01*
X40767Y-42956D01*
X40767Y-42870D01*
X40748Y-42822D01*
X40748Y-42421D01*
X40733Y-42345D01*
X40690Y-42282D01*
X40690Y-42282D01*
X40591Y-42183D01*
X40528Y-42140D01*
X40452Y-42125D01*
X39362Y-42125D01*
X39314Y-42106D01*
X39228Y-42106D01*
X39181Y-42125D01*
X38968Y-42125D01*
X38921Y-42106D01*
X38835Y-42106D01*
X38755Y-42139D01*
X38694Y-42200D01*
X38661Y-42279D01*
X38661Y-42365D01*
X38694Y-42445D01*
X38755Y-42506D01*
X38834Y-42539D01*
X38920Y-42539D01*
X38968Y-42519D01*
X39181Y-42519D01*
X39228Y-42539D01*
X39314Y-42539D01*
X39362Y-42519D01*
X40354Y-42519D01*
X40354Y-42822D01*
X40334Y-42870D01*
X40334Y-42956D01*
X40354Y-43004D01*
X40354Y-43700D01*
X38279Y-43700D01*
X38232Y-43681D01*
X38146Y-43681D01*
X38066Y-43713D01*
X38005Y-43774D01*
X37972Y-43854D01*
X37972Y-43940D01*
X38005Y-44020D01*
X38066Y-44081D01*
X38145Y-44114D01*
X38231Y-44114D01*
X38279Y-44094D01*
X40354Y-44094D01*
X40354Y-44291D01*
X39559Y-44291D01*
X39511Y-44271D01*
X39425Y-44271D01*
X39346Y-44304D01*
X39285Y-44365D01*
X39252Y-44444D01*
X39251Y-44531D01*
X39284Y-44610D01*
X39345Y-44671D01*
X39425Y-44704D01*
X39511Y-44704D01*
X39559Y-44685D01*
X40452Y-44685D01*
X40452Y-44685D01*
X40528Y-44670D01*
X40591Y-44627D01*
X40690Y-44528D01*
X40690Y-44528D01*
X40733Y-44465D01*
X40748Y-44389D01*
X40748Y-44389D01*
X40748Y-44094D01*
X44692Y-44094D01*
X44740Y-44114D01*
X44826Y-44114D01*
X44874Y-44094D01*
X47834Y-44094D01*
X47834Y-44791D01*
X47814Y-44838D01*
X47814Y-44924D01*
X47847Y-45004D01*
X47908Y-45065D01*
X47988Y-45098D01*
X48074Y-45098D01*
X48153Y-45065D01*
X48214Y-45004D01*
X48247Y-44925D01*
X48248Y-44839D01*
X48248Y-49980D01*
X33400Y-49980D01*
X33400Y-48726D01*
X33400Y-29726D01*
X33290Y-29460D01*
X33087Y-29257D01*
X32821Y-29146D01*
X32533Y-29146D01*
X32267Y-29256D01*
X32064Y-29459D01*
X31953Y-29725D01*
X31953Y-30013D01*
X32063Y-30279D01*
X32266Y-30483D01*
X32532Y-30593D01*
X32820Y-30593D01*
X33086Y-30483D01*
X33290Y-30280D01*
X33400Y-30014D01*
X33400Y-29726D01*
X33400Y-48726D01*
X33290Y-48460D01*
X33104Y-48273D01*
X33104Y-38947D01*
X33100Y-38875D01*
X33100Y-38191D01*
X33100Y-37541D01*
X33085Y-37505D01*
X33057Y-37477D01*
X33021Y-37462D01*
X32982Y-37462D01*
X32332Y-37462D01*
X32296Y-37477D01*
X32268Y-37505D01*
X32253Y-37541D01*
X32253Y-37580D01*
X32253Y-38230D01*
X32268Y-38266D01*
X32296Y-38294D01*
X32332Y-38309D01*
X32371Y-38309D01*
X33021Y-38309D01*
X33057Y-38294D01*
X33085Y-38266D01*
X33100Y-38230D01*
X33100Y-38191D01*
X33100Y-38875D01*
X33095Y-38779D01*
X33047Y-38665D01*
X32991Y-38627D01*
X32935Y-38682D01*
X32935Y-38571D01*
X32897Y-38515D01*
X32739Y-38458D01*
X32571Y-38467D01*
X32456Y-38515D01*
X32418Y-38571D01*
X32677Y-38830D01*
X32935Y-38571D01*
X32935Y-38682D01*
X32732Y-38885D01*
X32991Y-39144D01*
X33047Y-39106D01*
X33104Y-38947D01*
X33104Y-48273D01*
X33087Y-48257D01*
X32935Y-48194D01*
X32935Y-39200D01*
X32677Y-38941D01*
X32621Y-38997D01*
X32621Y-38885D01*
X32362Y-38627D01*
X32306Y-38665D01*
X32250Y-38823D01*
X32258Y-38991D01*
X32306Y-39106D01*
X32362Y-39144D01*
X32621Y-38885D01*
X32621Y-38997D01*
X32418Y-39200D01*
X32456Y-39256D01*
X32615Y-39312D01*
X32783Y-39304D01*
X32897Y-39256D01*
X32935Y-39200D01*
X32935Y-48194D01*
X32821Y-48146D01*
X32533Y-48146D01*
X32267Y-48256D01*
X32064Y-48459D01*
X31953Y-48725D01*
X31953Y-49013D01*
X32063Y-49279D01*
X32266Y-49483D01*
X32532Y-49593D01*
X32820Y-49593D01*
X33086Y-49483D01*
X33290Y-49280D01*
X33400Y-49014D01*
X33400Y-48726D01*
X33400Y-49980D01*
X31660Y-49980D01*
X31660Y-45280D01*
X31660Y-44985D01*
X31660Y-44689D01*
X31648Y-44620D01*
X31646Y-44615D01*
X31614Y-44608D01*
X31559Y-44663D01*
X31559Y-44552D01*
X31552Y-44521D01*
X31483Y-44506D01*
X31413Y-44519D01*
X31408Y-44521D01*
X31401Y-44552D01*
X31480Y-44631D01*
X31559Y-44552D01*
X31559Y-44663D01*
X31535Y-44687D01*
X31614Y-44765D01*
X31646Y-44758D01*
X31660Y-44689D01*
X31660Y-44985D01*
X31648Y-44915D01*
X31646Y-44910D01*
X31614Y-44903D01*
X31559Y-44959D01*
X31559Y-44847D01*
X31556Y-44834D01*
X31559Y-44821D01*
X31480Y-44742D01*
X31424Y-44798D01*
X31424Y-44687D01*
X31345Y-44608D01*
X31332Y-44611D01*
X31319Y-44608D01*
X31263Y-44663D01*
X31263Y-44552D01*
X31256Y-44521D01*
X31187Y-44506D01*
X31118Y-44519D01*
X31113Y-44521D01*
X31106Y-44552D01*
X31185Y-44631D01*
X31263Y-44552D01*
X31263Y-44663D01*
X31240Y-44687D01*
X31319Y-44765D01*
X31332Y-44762D01*
X31345Y-44765D01*
X31424Y-44687D01*
X31424Y-44798D01*
X31401Y-44821D01*
X31404Y-44834D01*
X31401Y-44847D01*
X31480Y-44926D01*
X31559Y-44847D01*
X31559Y-44959D01*
X31535Y-44982D01*
X31614Y-45061D01*
X31646Y-45054D01*
X31660Y-44985D01*
X31660Y-45280D01*
X31648Y-45211D01*
X31646Y-45205D01*
X31614Y-45198D01*
X31559Y-45254D01*
X31559Y-45142D01*
X31556Y-45129D01*
X31559Y-45116D01*
X31480Y-45037D01*
X31424Y-45093D01*
X31424Y-44982D01*
X31345Y-44903D01*
X31332Y-44906D01*
X31319Y-44903D01*
X31263Y-44959D01*
X31263Y-44847D01*
X31260Y-44834D01*
X31263Y-44821D01*
X31185Y-44742D01*
X31129Y-44798D01*
X31129Y-44687D01*
X31050Y-44608D01*
X31037Y-44611D01*
X31024Y-44608D01*
X30968Y-44663D01*
X30968Y-44552D01*
X30961Y-44521D01*
X30892Y-44506D01*
X30823Y-44519D01*
X30817Y-44521D01*
X30810Y-44552D01*
X30889Y-44631D01*
X30968Y-44552D01*
X30968Y-44663D01*
X30945Y-44687D01*
X31024Y-44765D01*
X31037Y-44762D01*
X31050Y-44765D01*
X31129Y-44687D01*
X31129Y-44798D01*
X31106Y-44821D01*
X31109Y-44834D01*
X31106Y-44847D01*
X31185Y-44926D01*
X31263Y-44847D01*
X31263Y-44959D01*
X31240Y-44982D01*
X31319Y-45061D01*
X31332Y-45058D01*
X31345Y-45061D01*
X31424Y-44982D01*
X31424Y-45093D01*
X31401Y-45116D01*
X31404Y-45129D01*
X31401Y-45142D01*
X31480Y-45221D01*
X31559Y-45142D01*
X31559Y-45254D01*
X31535Y-45277D01*
X31614Y-45356D01*
X31646Y-45349D01*
X31660Y-45280D01*
X31660Y-49980D01*
X31559Y-49980D01*
X31559Y-45412D01*
X31480Y-45333D01*
X31424Y-45388D01*
X31424Y-45277D01*
X31345Y-45198D01*
X31332Y-45201D01*
X31319Y-45198D01*
X31263Y-45254D01*
X31263Y-45142D01*
X31260Y-45129D01*
X31263Y-45116D01*
X31185Y-45037D01*
X31129Y-45093D01*
X31129Y-44982D01*
X31050Y-44903D01*
X31037Y-44906D01*
X31024Y-44903D01*
X30968Y-44959D01*
X30968Y-44847D01*
X30965Y-44834D01*
X30968Y-44821D01*
X30889Y-44742D01*
X30834Y-44798D01*
X30834Y-44687D01*
X30755Y-44608D01*
X30723Y-44615D01*
X30709Y-44684D01*
X30721Y-44753D01*
X30723Y-44758D01*
X30755Y-44765D01*
X30834Y-44687D01*
X30834Y-44798D01*
X30810Y-44821D01*
X30813Y-44834D01*
X30810Y-44847D01*
X30889Y-44926D01*
X30968Y-44847D01*
X30968Y-44959D01*
X30945Y-44982D01*
X31024Y-45061D01*
X31037Y-45058D01*
X31050Y-45061D01*
X31129Y-44982D01*
X31129Y-45093D01*
X31106Y-45116D01*
X31109Y-45129D01*
X31106Y-45142D01*
X31185Y-45221D01*
X31263Y-45142D01*
X31263Y-45254D01*
X31240Y-45277D01*
X31319Y-45356D01*
X31332Y-45353D01*
X31345Y-45356D01*
X31424Y-45277D01*
X31424Y-45388D01*
X31401Y-45412D01*
X31408Y-45443D01*
X31477Y-45458D01*
X31546Y-45445D01*
X31552Y-45443D01*
X31559Y-45412D01*
X31559Y-49980D01*
X31263Y-49980D01*
X31263Y-45412D01*
X31185Y-45333D01*
X31129Y-45388D01*
X31129Y-45277D01*
X31050Y-45198D01*
X31037Y-45201D01*
X31024Y-45198D01*
X30968Y-45254D01*
X30968Y-45142D01*
X30965Y-45129D01*
X30968Y-45116D01*
X30889Y-45037D01*
X30834Y-45093D01*
X30834Y-44982D01*
X30755Y-44903D01*
X30723Y-44910D01*
X30709Y-44979D01*
X30721Y-45048D01*
X30723Y-45054D01*
X30755Y-45061D01*
X30834Y-44982D01*
X30834Y-45093D01*
X30810Y-45116D01*
X30813Y-45129D01*
X30810Y-45142D01*
X30889Y-45221D01*
X30968Y-45142D01*
X30968Y-45254D01*
X30945Y-45277D01*
X31024Y-45356D01*
X31037Y-45353D01*
X31050Y-45356D01*
X31129Y-45277D01*
X31129Y-45388D01*
X31106Y-45412D01*
X31113Y-45443D01*
X31182Y-45458D01*
X31251Y-45445D01*
X31256Y-45443D01*
X31263Y-45412D01*
X31263Y-49980D01*
X30968Y-49980D01*
X30968Y-45412D01*
X30889Y-45333D01*
X30834Y-45388D01*
X30834Y-45277D01*
X30755Y-45198D01*
X30723Y-45205D01*
X30709Y-45274D01*
X30721Y-45344D01*
X30723Y-45349D01*
X30755Y-45356D01*
X30834Y-45277D01*
X30834Y-45388D01*
X30810Y-45412D01*
X30817Y-45443D01*
X30886Y-45458D01*
X30956Y-45445D01*
X30961Y-45443D01*
X30968Y-45412D01*
X30968Y-49980D01*
X30137Y-49980D01*
X30137Y-44114D01*
X32303Y-44114D01*
X32303Y-42500D01*
X31660Y-42500D01*
X31660Y-41930D01*
X31660Y-41634D01*
X31660Y-41339D01*
X31660Y-35634D01*
X31660Y-35339D01*
X31660Y-35044D01*
X31660Y-32284D01*
X31660Y-31989D01*
X31660Y-31693D01*
X31648Y-31624D01*
X31646Y-31619D01*
X31614Y-31612D01*
X31559Y-31667D01*
X31559Y-31556D01*
X31552Y-31525D01*
X31483Y-31510D01*
X31413Y-31522D01*
X31408Y-31525D01*
X31401Y-31556D01*
X31480Y-31635D01*
X31559Y-31556D01*
X31559Y-31667D01*
X31535Y-31690D01*
X31614Y-31769D01*
X31646Y-31762D01*
X31660Y-31693D01*
X31660Y-31989D01*
X31648Y-31919D01*
X31646Y-31914D01*
X31614Y-31907D01*
X31559Y-31962D01*
X31559Y-31851D01*
X31556Y-31838D01*
X31559Y-31825D01*
X31480Y-31746D01*
X31424Y-31802D01*
X31424Y-31690D01*
X31345Y-31612D01*
X31332Y-31615D01*
X31319Y-31612D01*
X31263Y-31667D01*
X31263Y-31556D01*
X31256Y-31525D01*
X31187Y-31510D01*
X31118Y-31522D01*
X31113Y-31525D01*
X31106Y-31556D01*
X31185Y-31635D01*
X31263Y-31556D01*
X31263Y-31667D01*
X31240Y-31690D01*
X31319Y-31769D01*
X31332Y-31766D01*
X31345Y-31769D01*
X31424Y-31690D01*
X31424Y-31802D01*
X31401Y-31825D01*
X31404Y-31838D01*
X31401Y-31851D01*
X31480Y-31930D01*
X31559Y-31851D01*
X31559Y-31962D01*
X31535Y-31986D01*
X31614Y-32065D01*
X31646Y-32057D01*
X31660Y-31989D01*
X31660Y-32284D01*
X31648Y-32215D01*
X31646Y-32209D01*
X31614Y-32202D01*
X31559Y-32258D01*
X31559Y-32146D01*
X31556Y-32133D01*
X31559Y-32120D01*
X31480Y-32041D01*
X31424Y-32097D01*
X31424Y-31986D01*
X31345Y-31907D01*
X31332Y-31910D01*
X31319Y-31907D01*
X31263Y-31962D01*
X31263Y-31851D01*
X31260Y-31838D01*
X31263Y-31825D01*
X31185Y-31746D01*
X31129Y-31802D01*
X31129Y-31690D01*
X31050Y-31612D01*
X31037Y-31615D01*
X31024Y-31612D01*
X30968Y-31667D01*
X30968Y-31556D01*
X30961Y-31525D01*
X30892Y-31510D01*
X30823Y-31522D01*
X30817Y-31525D01*
X30810Y-31556D01*
X30889Y-31635D01*
X30968Y-31556D01*
X30968Y-31667D01*
X30945Y-31690D01*
X31024Y-31769D01*
X31037Y-31766D01*
X31050Y-31769D01*
X31129Y-31690D01*
X31129Y-31802D01*
X31106Y-31825D01*
X31109Y-31838D01*
X31106Y-31851D01*
X31185Y-31930D01*
X31263Y-31851D01*
X31263Y-31962D01*
X31240Y-31986D01*
X31319Y-32065D01*
X31332Y-32062D01*
X31345Y-32065D01*
X31424Y-31986D01*
X31424Y-32097D01*
X31401Y-32120D01*
X31404Y-32133D01*
X31401Y-32146D01*
X31480Y-32225D01*
X31559Y-32146D01*
X31559Y-32258D01*
X31535Y-32281D01*
X31614Y-32360D01*
X31646Y-32353D01*
X31660Y-32284D01*
X31660Y-35044D01*
X31648Y-34974D01*
X31646Y-34969D01*
X31614Y-34962D01*
X31559Y-35018D01*
X31559Y-34906D01*
X31559Y-32416D01*
X31480Y-32337D01*
X31424Y-32392D01*
X31424Y-32281D01*
X31345Y-32202D01*
X31332Y-32205D01*
X31319Y-32202D01*
X31263Y-32258D01*
X31263Y-32146D01*
X31260Y-32133D01*
X31263Y-32120D01*
X31185Y-32041D01*
X31129Y-32097D01*
X31129Y-31986D01*
X31050Y-31907D01*
X31037Y-31910D01*
X31024Y-31907D01*
X30968Y-31962D01*
X30968Y-31851D01*
X30965Y-31838D01*
X30968Y-31825D01*
X30889Y-31746D01*
X30834Y-31802D01*
X30834Y-31690D01*
X30755Y-31612D01*
X30723Y-31619D01*
X30709Y-31688D01*
X30721Y-31757D01*
X30723Y-31762D01*
X30755Y-31769D01*
X30834Y-31690D01*
X30834Y-31802D01*
X30810Y-31825D01*
X30813Y-31838D01*
X30810Y-31851D01*
X30889Y-31930D01*
X30968Y-31851D01*
X30968Y-31962D01*
X30945Y-31986D01*
X31024Y-32065D01*
X31037Y-32062D01*
X31050Y-32065D01*
X31129Y-31986D01*
X31129Y-32097D01*
X31106Y-32120D01*
X31109Y-32133D01*
X31106Y-32146D01*
X31185Y-32225D01*
X31263Y-32146D01*
X31263Y-32258D01*
X31240Y-32281D01*
X31319Y-32360D01*
X31332Y-32357D01*
X31345Y-32360D01*
X31424Y-32281D01*
X31424Y-32392D01*
X31401Y-32416D01*
X31408Y-32447D01*
X31477Y-32462D01*
X31546Y-32449D01*
X31552Y-32447D01*
X31559Y-32416D01*
X31559Y-34906D01*
X31552Y-34875D01*
X31483Y-34860D01*
X31413Y-34873D01*
X31408Y-34875D01*
X31401Y-34906D01*
X31480Y-34985D01*
X31559Y-34906D01*
X31559Y-35018D01*
X31535Y-35041D01*
X31614Y-35120D01*
X31646Y-35113D01*
X31660Y-35044D01*
X31660Y-35339D01*
X31648Y-35270D01*
X31646Y-35264D01*
X31614Y-35257D01*
X31559Y-35313D01*
X31559Y-35202D01*
X31556Y-35188D01*
X31559Y-35175D01*
X31480Y-35097D01*
X31424Y-35152D01*
X31424Y-35041D01*
X31345Y-34962D01*
X31332Y-34965D01*
X31319Y-34962D01*
X31263Y-35018D01*
X31263Y-34906D01*
X31263Y-32416D01*
X31185Y-32337D01*
X31129Y-32392D01*
X31129Y-32281D01*
X31050Y-32202D01*
X31037Y-32205D01*
X31024Y-32202D01*
X30968Y-32258D01*
X30968Y-32146D01*
X30965Y-32133D01*
X30968Y-32120D01*
X30889Y-32041D01*
X30834Y-32097D01*
X30834Y-31986D01*
X30755Y-31907D01*
X30723Y-31914D01*
X30709Y-31983D01*
X30721Y-32052D01*
X30723Y-32057D01*
X30755Y-32065D01*
X30834Y-31986D01*
X30834Y-32097D01*
X30810Y-32120D01*
X30813Y-32133D01*
X30810Y-32146D01*
X30889Y-32225D01*
X30968Y-32146D01*
X30968Y-32258D01*
X30945Y-32281D01*
X31024Y-32360D01*
X31037Y-32357D01*
X31050Y-32360D01*
X31129Y-32281D01*
X31129Y-32392D01*
X31106Y-32416D01*
X31113Y-32447D01*
X31182Y-32462D01*
X31251Y-32449D01*
X31256Y-32447D01*
X31263Y-32416D01*
X31263Y-34906D01*
X31256Y-34875D01*
X31187Y-34860D01*
X31118Y-34873D01*
X31113Y-34875D01*
X31106Y-34906D01*
X31185Y-34985D01*
X31263Y-34906D01*
X31263Y-35018D01*
X31240Y-35041D01*
X31319Y-35120D01*
X31332Y-35117D01*
X31345Y-35120D01*
X31424Y-35041D01*
X31424Y-35152D01*
X31401Y-35175D01*
X31404Y-35188D01*
X31401Y-35202D01*
X31480Y-35280D01*
X31559Y-35202D01*
X31559Y-35313D01*
X31535Y-35336D01*
X31614Y-35415D01*
X31646Y-35408D01*
X31660Y-35339D01*
X31660Y-35634D01*
X31648Y-35565D01*
X31646Y-35560D01*
X31614Y-35552D01*
X31559Y-35608D01*
X31559Y-35497D01*
X31556Y-35484D01*
X31559Y-35471D01*
X31480Y-35392D01*
X31424Y-35447D01*
X31424Y-35336D01*
X31345Y-35257D01*
X31332Y-35260D01*
X31319Y-35257D01*
X31263Y-35313D01*
X31263Y-35202D01*
X31260Y-35188D01*
X31263Y-35175D01*
X31185Y-35097D01*
X31129Y-35152D01*
X31129Y-35041D01*
X31050Y-34962D01*
X31037Y-34965D01*
X31024Y-34962D01*
X30968Y-35018D01*
X30968Y-34906D01*
X30968Y-32416D01*
X30889Y-32337D01*
X30834Y-32392D01*
X30834Y-32281D01*
X30755Y-32202D01*
X30723Y-32209D01*
X30709Y-32278D01*
X30721Y-32347D01*
X30723Y-32353D01*
X30755Y-32360D01*
X30834Y-32281D01*
X30834Y-32392D01*
X30810Y-32416D01*
X30817Y-32447D01*
X30886Y-32462D01*
X30956Y-32449D01*
X30961Y-32447D01*
X30968Y-32416D01*
X30968Y-34906D01*
X30961Y-34875D01*
X30892Y-34860D01*
X30823Y-34873D01*
X30817Y-34875D01*
X30810Y-34906D01*
X30889Y-34985D01*
X30968Y-34906D01*
X30968Y-35018D01*
X30945Y-35041D01*
X31024Y-35120D01*
X31037Y-35117D01*
X31050Y-35120D01*
X31129Y-35041D01*
X31129Y-35152D01*
X31106Y-35175D01*
X31109Y-35188D01*
X31106Y-35202D01*
X31185Y-35280D01*
X31263Y-35202D01*
X31263Y-35313D01*
X31240Y-35336D01*
X31319Y-35415D01*
X31332Y-35412D01*
X31345Y-35415D01*
X31424Y-35336D01*
X31424Y-35447D01*
X31401Y-35471D01*
X31404Y-35484D01*
X31401Y-35497D01*
X31480Y-35576D01*
X31559Y-35497D01*
X31559Y-35608D01*
X31535Y-35631D01*
X31614Y-35710D01*
X31646Y-35703D01*
X31660Y-35634D01*
X31660Y-41339D01*
X31648Y-41270D01*
X31646Y-41264D01*
X31614Y-41257D01*
X31559Y-41313D01*
X31559Y-41202D01*
X31559Y-35766D01*
X31480Y-35687D01*
X31424Y-35743D01*
X31424Y-35631D01*
X31345Y-35552D01*
X31332Y-35555D01*
X31319Y-35552D01*
X31263Y-35608D01*
X31263Y-35497D01*
X31260Y-35484D01*
X31263Y-35471D01*
X31185Y-35392D01*
X31129Y-35447D01*
X31129Y-35336D01*
X31050Y-35257D01*
X31037Y-35260D01*
X31024Y-35257D01*
X30968Y-35313D01*
X30968Y-35202D01*
X30965Y-35188D01*
X30968Y-35175D01*
X30889Y-35097D01*
X30834Y-35152D01*
X30834Y-35041D01*
X30755Y-34962D01*
X30723Y-34969D01*
X30709Y-35038D01*
X30721Y-35107D01*
X30723Y-35113D01*
X30755Y-35120D01*
X30834Y-35041D01*
X30834Y-35152D01*
X30810Y-35175D01*
X30813Y-35188D01*
X30810Y-35202D01*
X30889Y-35280D01*
X30968Y-35202D01*
X30968Y-35313D01*
X30945Y-35336D01*
X31024Y-35415D01*
X31037Y-35412D01*
X31050Y-35415D01*
X31129Y-35336D01*
X31129Y-35447D01*
X31106Y-35471D01*
X31109Y-35484D01*
X31106Y-35497D01*
X31185Y-35576D01*
X31263Y-35497D01*
X31263Y-35608D01*
X31240Y-35631D01*
X31319Y-35710D01*
X31332Y-35707D01*
X31345Y-35710D01*
X31424Y-35631D01*
X31424Y-35743D01*
X31401Y-35766D01*
X31408Y-35797D01*
X31477Y-35812D01*
X31546Y-35799D01*
X31552Y-35797D01*
X31559Y-35766D01*
X31559Y-41202D01*
X31552Y-41170D01*
X31483Y-41156D01*
X31413Y-41168D01*
X31408Y-41170D01*
X31401Y-41202D01*
X31480Y-41280D01*
X31559Y-41202D01*
X31559Y-41313D01*
X31535Y-41336D01*
X31614Y-41415D01*
X31646Y-41408D01*
X31660Y-41339D01*
X31660Y-41634D01*
X31648Y-41565D01*
X31646Y-41560D01*
X31614Y-41552D01*
X31559Y-41608D01*
X31559Y-41497D01*
X31556Y-41484D01*
X31559Y-41471D01*
X31480Y-41392D01*
X31424Y-41447D01*
X31424Y-41336D01*
X31345Y-41257D01*
X31332Y-41260D01*
X31319Y-41257D01*
X31263Y-41313D01*
X31263Y-41202D01*
X31263Y-35766D01*
X31185Y-35687D01*
X31129Y-35743D01*
X31129Y-35631D01*
X31050Y-35552D01*
X31037Y-35555D01*
X31024Y-35552D01*
X30968Y-35608D01*
X30968Y-35497D01*
X30965Y-35484D01*
X30968Y-35471D01*
X30889Y-35392D01*
X30834Y-35447D01*
X30834Y-35336D01*
X30755Y-35257D01*
X30723Y-35264D01*
X30709Y-35333D01*
X30721Y-35403D01*
X30723Y-35408D01*
X30755Y-35415D01*
X30834Y-35336D01*
X30834Y-35447D01*
X30810Y-35471D01*
X30813Y-35484D01*
X30810Y-35497D01*
X30889Y-35576D01*
X30968Y-35497D01*
X30968Y-35608D01*
X30945Y-35631D01*
X31024Y-35710D01*
X31037Y-35707D01*
X31050Y-35710D01*
X31129Y-35631D01*
X31129Y-35743D01*
X31106Y-35766D01*
X31113Y-35797D01*
X31182Y-35812D01*
X31251Y-35799D01*
X31256Y-35797D01*
X31263Y-35766D01*
X31263Y-41202D01*
X31256Y-41170D01*
X31187Y-41156D01*
X31118Y-41168D01*
X31113Y-41170D01*
X31106Y-41202D01*
X31185Y-41280D01*
X31263Y-41202D01*
X31263Y-41313D01*
X31240Y-41336D01*
X31319Y-41415D01*
X31332Y-41412D01*
X31345Y-41415D01*
X31424Y-41336D01*
X31424Y-41447D01*
X31401Y-41471D01*
X31404Y-41484D01*
X31401Y-41497D01*
X31480Y-41576D01*
X31559Y-41497D01*
X31559Y-41608D01*
X31535Y-41631D01*
X31614Y-41710D01*
X31646Y-41703D01*
X31660Y-41634D01*
X31660Y-41930D01*
X31648Y-41860D01*
X31646Y-41855D01*
X31614Y-41848D01*
X31559Y-41903D01*
X31559Y-41792D01*
X31556Y-41779D01*
X31559Y-41766D01*
X31480Y-41687D01*
X31424Y-41743D01*
X31424Y-41631D01*
X31345Y-41552D01*
X31332Y-41555D01*
X31319Y-41552D01*
X31263Y-41608D01*
X31263Y-41497D01*
X31260Y-41484D01*
X31263Y-41471D01*
X31185Y-41392D01*
X31129Y-41447D01*
X31129Y-41336D01*
X31050Y-41257D01*
X31037Y-41260D01*
X31024Y-41257D01*
X30968Y-41313D01*
X30968Y-41202D01*
X30968Y-35766D01*
X30889Y-35687D01*
X30834Y-35743D01*
X30834Y-35631D01*
X30755Y-35552D01*
X30723Y-35560D01*
X30709Y-35629D01*
X30721Y-35698D01*
X30723Y-35703D01*
X30755Y-35710D01*
X30834Y-35631D01*
X30834Y-35743D01*
X30810Y-35766D01*
X30817Y-35797D01*
X30886Y-35812D01*
X30956Y-35799D01*
X30961Y-35797D01*
X30968Y-35766D01*
X30968Y-41202D01*
X30961Y-41170D01*
X30892Y-41156D01*
X30823Y-41168D01*
X30817Y-41170D01*
X30810Y-41202D01*
X30889Y-41280D01*
X30968Y-41202D01*
X30968Y-41313D01*
X30945Y-41336D01*
X31024Y-41415D01*
X31037Y-41412D01*
X31050Y-41415D01*
X31129Y-41336D01*
X31129Y-41447D01*
X31106Y-41471D01*
X31109Y-41484D01*
X31106Y-41497D01*
X31185Y-41576D01*
X31263Y-41497D01*
X31263Y-41608D01*
X31240Y-41631D01*
X31319Y-41710D01*
X31332Y-41707D01*
X31345Y-41710D01*
X31424Y-41631D01*
X31424Y-41743D01*
X31401Y-41766D01*
X31404Y-41779D01*
X31401Y-41792D01*
X31480Y-41871D01*
X31559Y-41792D01*
X31559Y-41903D01*
X31535Y-41927D01*
X31614Y-42006D01*
X31646Y-41998D01*
X31660Y-41930D01*
X31660Y-42500D01*
X31559Y-42500D01*
X31559Y-42061D01*
X31480Y-41982D01*
X31424Y-42038D01*
X31424Y-41927D01*
X31345Y-41848D01*
X31332Y-41851D01*
X31319Y-41848D01*
X31263Y-41903D01*
X31263Y-41792D01*
X31260Y-41779D01*
X31263Y-41766D01*
X31185Y-41687D01*
X31129Y-41743D01*
X31129Y-41631D01*
X31050Y-41552D01*
X31037Y-41555D01*
X31024Y-41552D01*
X30968Y-41608D01*
X30968Y-41497D01*
X30965Y-41484D01*
X30968Y-41471D01*
X30889Y-41392D01*
X30834Y-41447D01*
X30834Y-41336D01*
X30755Y-41257D01*
X30723Y-41264D01*
X30709Y-41333D01*
X30721Y-41403D01*
X30723Y-41408D01*
X30755Y-41415D01*
X30834Y-41336D01*
X30834Y-41447D01*
X30810Y-41471D01*
X30813Y-41484D01*
X30810Y-41497D01*
X30889Y-41576D01*
X30968Y-41497D01*
X30968Y-41608D01*
X30945Y-41631D01*
X31024Y-41710D01*
X31037Y-41707D01*
X31050Y-41710D01*
X31129Y-41631D01*
X31129Y-41743D01*
X31106Y-41766D01*
X31109Y-41779D01*
X31106Y-41792D01*
X31185Y-41871D01*
X31263Y-41792D01*
X31263Y-41903D01*
X31240Y-41927D01*
X31319Y-42006D01*
X31332Y-42003D01*
X31345Y-42006D01*
X31424Y-41927D01*
X31424Y-42038D01*
X31401Y-42061D01*
X31408Y-42092D01*
X31477Y-42107D01*
X31546Y-42095D01*
X31552Y-42092D01*
X31559Y-42061D01*
X31559Y-42500D01*
X31263Y-42500D01*
X31263Y-42061D01*
X31185Y-41982D01*
X31129Y-42038D01*
X31129Y-41927D01*
X31050Y-41848D01*
X31037Y-41851D01*
X31024Y-41848D01*
X30968Y-41903D01*
X30968Y-41792D01*
X30965Y-41779D01*
X30968Y-41766D01*
X30889Y-41687D01*
X30834Y-41743D01*
X30834Y-41631D01*
X30755Y-41552D01*
X30723Y-41560D01*
X30709Y-41629D01*
X30721Y-41698D01*
X30723Y-41703D01*
X30755Y-41710D01*
X30834Y-41631D01*
X30834Y-41743D01*
X30810Y-41766D01*
X30813Y-41779D01*
X30810Y-41792D01*
X30889Y-41871D01*
X30968Y-41792D01*
X30968Y-41903D01*
X30945Y-41927D01*
X31024Y-42006D01*
X31037Y-42003D01*
X31050Y-42006D01*
X31129Y-41927D01*
X31129Y-42038D01*
X31106Y-42061D01*
X31113Y-42092D01*
X31182Y-42107D01*
X31251Y-42095D01*
X31256Y-42092D01*
X31263Y-42061D01*
X31263Y-42500D01*
X30968Y-42500D01*
X30968Y-42061D01*
X30889Y-41982D01*
X30834Y-42038D01*
X30834Y-41927D01*
X30755Y-41848D01*
X30723Y-41855D01*
X30709Y-41924D01*
X30721Y-41993D01*
X30723Y-41998D01*
X30755Y-42006D01*
X30834Y-41927D01*
X30834Y-42038D01*
X30810Y-42061D01*
X30817Y-42092D01*
X30886Y-42107D01*
X30956Y-42095D01*
X30961Y-42092D01*
X30968Y-42061D01*
X30968Y-42500D01*
X30137Y-42500D01*
X30137Y-28759D01*
X47539Y-28759D01*
X47539Y-30610D01*
X42027Y-30610D01*
X42027Y-35925D01*
X46555Y-35925D01*
X46555Y-32381D01*
X47539Y-32381D01*
X47539Y-39665D01*
X53248Y-39665D01*
X53248Y-28759D01*
X55019Y-28759D01*
X55019Y-30472D01*
X54973Y-30491D01*
X54901Y-30563D01*
X54862Y-30657D01*
X54862Y-30759D01*
X54901Y-30853D01*
X54972Y-30925D01*
X55019Y-30944D01*
X55019Y-41793D01*
X54940Y-41826D01*
X54940Y-30961D01*
X54908Y-30881D01*
X54847Y-30820D01*
X54767Y-30787D01*
X54681Y-30787D01*
X54601Y-30820D01*
X54586Y-30835D01*
X54586Y-30657D01*
X54547Y-30563D01*
X54475Y-30491D01*
X54381Y-30452D01*
X54280Y-30452D01*
X54252Y-30464D01*
X54252Y-29287D01*
X54219Y-29208D01*
X54158Y-29147D01*
X54078Y-29114D01*
X53992Y-29114D01*
X53912Y-29147D01*
X53851Y-29207D01*
X53818Y-29287D01*
X53818Y-29373D01*
X53851Y-29453D01*
X53912Y-29514D01*
X53992Y-29547D01*
X54078Y-29547D01*
X54157Y-29514D01*
X54218Y-29453D01*
X54251Y-29373D01*
X54252Y-29287D01*
X54252Y-30464D01*
X54185Y-30491D01*
X54113Y-30563D01*
X54074Y-30657D01*
X54074Y-30759D01*
X54113Y-30853D01*
X54185Y-30925D01*
X54279Y-30964D01*
X54381Y-30964D01*
X54475Y-30925D01*
X54547Y-30853D01*
X54586Y-30759D01*
X54586Y-30657D01*
X54586Y-30835D01*
X54540Y-30881D01*
X54507Y-30960D01*
X54507Y-31046D01*
X54540Y-31126D01*
X54601Y-31187D01*
X54681Y-31220D01*
X54767Y-31220D01*
X54846Y-31187D01*
X54907Y-31126D01*
X54940Y-31047D01*
X54940Y-30961D01*
X54940Y-41826D01*
X54923Y-41833D01*
X54826Y-41930D01*
X54773Y-42057D01*
X54773Y-42194D01*
X54825Y-42320D01*
X54922Y-42417D01*
X55019Y-42458D01*
X55019Y-49980D01*
X55019Y-49980D01*
G37*
G54D20*
X55019Y-49980D02*
X54872Y-49980D01*
X54872Y-42648D01*
X54819Y-42521D01*
X54722Y-42424D01*
X54596Y-42372D01*
X54459Y-42371D01*
X54332Y-42424D01*
X54235Y-42521D01*
X54183Y-42647D01*
X54183Y-42784D01*
X54235Y-42911D01*
X54332Y-43008D01*
X54458Y-43060D01*
X54595Y-43061D01*
X54722Y-43008D01*
X54819Y-42911D01*
X54871Y-42785D01*
X54872Y-42648D01*
X54872Y-49980D01*
X54281Y-49980D01*
X54281Y-43238D01*
X54229Y-43112D01*
X54132Y-43015D01*
X54005Y-42962D01*
X53868Y-42962D01*
X53742Y-43014D01*
X53645Y-43111D01*
X53592Y-43238D01*
X53592Y-43375D01*
X53644Y-43501D01*
X53741Y-43598D01*
X53868Y-43651D01*
X54005Y-43651D01*
X54131Y-43599D01*
X54228Y-43502D01*
X54281Y-43375D01*
X54281Y-43238D01*
X54281Y-49980D01*
X51830Y-49980D01*
X51830Y-45224D01*
X51791Y-45130D01*
X51719Y-45058D01*
X51625Y-45019D01*
X51524Y-45019D01*
X51430Y-45058D01*
X51357Y-45130D01*
X51318Y-45224D01*
X51318Y-45326D01*
X51357Y-45420D01*
X51429Y-45492D01*
X51523Y-45531D01*
X51625Y-45531D01*
X51719Y-45492D01*
X51791Y-45420D01*
X51830Y-45326D01*
X51830Y-45224D01*
X51830Y-49980D01*
X51397Y-49980D01*
X51397Y-45527D01*
X51364Y-45448D01*
X51303Y-45387D01*
X51224Y-45354D01*
X51138Y-45354D01*
X51058Y-45387D01*
X51043Y-45402D01*
X51043Y-45224D01*
X51043Y-44043D01*
X51004Y-43949D01*
X50932Y-43877D01*
X50838Y-43838D01*
X50736Y-43838D01*
X50642Y-43877D01*
X50570Y-43949D01*
X50531Y-44043D01*
X50531Y-44145D01*
X50570Y-44239D01*
X50642Y-44311D01*
X50736Y-44350D01*
X50838Y-44350D01*
X50932Y-44311D01*
X51004Y-44239D01*
X51043Y-44145D01*
X51043Y-44043D01*
X51043Y-45224D01*
X51004Y-45130D01*
X50932Y-45058D01*
X50838Y-45019D01*
X50736Y-45019D01*
X50642Y-45058D01*
X50570Y-45130D01*
X50531Y-45224D01*
X50531Y-45326D01*
X50570Y-45420D01*
X50642Y-45492D01*
X50736Y-45531D01*
X50838Y-45531D01*
X50932Y-45492D01*
X51004Y-45420D01*
X51043Y-45326D01*
X51043Y-45224D01*
X51043Y-45402D01*
X50997Y-45448D01*
X50964Y-45527D01*
X50964Y-45613D01*
X50997Y-45693D01*
X51058Y-45754D01*
X51137Y-45787D01*
X51223Y-45787D01*
X51303Y-45754D01*
X51364Y-45693D01*
X51397Y-45614D01*
X51397Y-45527D01*
X51397Y-49980D01*
X48248Y-49980D01*
X48248Y-44839D01*
X48228Y-44791D01*
X48228Y-43996D01*
X48213Y-43920D01*
X48170Y-43856D01*
X48170Y-43856D01*
X48072Y-43758D01*
X48008Y-43715D01*
X47933Y-43700D01*
X44874Y-43700D01*
X44826Y-43681D01*
X44740Y-43681D01*
X44692Y-43700D01*
X41358Y-43700D01*
X41358Y-42378D01*
X41325Y-42298D01*
X41264Y-42237D01*
X41232Y-42224D01*
X41264Y-42211D01*
X41325Y-42150D01*
X41358Y-42070D01*
X41358Y-41984D01*
X41325Y-41905D01*
X41264Y-41844D01*
X41232Y-41830D01*
X41264Y-41817D01*
X41325Y-41756D01*
X41358Y-41677D01*
X41358Y-41590D01*
X41325Y-41511D01*
X41264Y-41450D01*
X41184Y-41417D01*
X41098Y-41417D01*
X41019Y-41450D01*
X40958Y-41511D01*
X40925Y-41590D01*
X40925Y-41676D01*
X40958Y-41756D01*
X41018Y-41817D01*
X41051Y-41830D01*
X41019Y-41843D01*
X40958Y-41904D01*
X40925Y-41984D01*
X40925Y-42070D01*
X40958Y-42150D01*
X41018Y-42211D01*
X41051Y-42224D01*
X41019Y-42237D01*
X40958Y-42298D01*
X40925Y-42377D01*
X40925Y-42464D01*
X40958Y-42543D01*
X41018Y-42604D01*
X41098Y-42637D01*
X41184Y-42637D01*
X41264Y-42604D01*
X41325Y-42544D01*
X41358Y-42464D01*
X41358Y-42378D01*
X41358Y-43700D01*
X40748Y-43700D01*
X40748Y-43003D01*
X40767Y-42956D01*
X40767Y-42870D01*
X40748Y-42822D01*
X40748Y-42421D01*
X40733Y-42345D01*
X40690Y-42282D01*
X40690Y-42282D01*
X40591Y-42183D01*
X40528Y-42140D01*
X40452Y-42125D01*
X39362Y-42125D01*
X39314Y-42106D01*
X39228Y-42106D01*
X39181Y-42125D01*
X38968Y-42125D01*
X38921Y-42106D01*
X38835Y-42106D01*
X38755Y-42139D01*
X38694Y-42200D01*
X38661Y-42279D01*
X38661Y-42365D01*
X38694Y-42445D01*
X38755Y-42506D01*
X38834Y-42539D01*
X38920Y-42539D01*
X38968Y-42519D01*
X39181Y-42519D01*
X39228Y-42539D01*
X39314Y-42539D01*
X39362Y-42519D01*
X40354Y-42519D01*
X40354Y-42822D01*
X40334Y-42870D01*
X40334Y-42956D01*
X40354Y-43004D01*
X40354Y-43700D01*
X38279Y-43700D01*
X38232Y-43681D01*
X38146Y-43681D01*
X38066Y-43713D01*
X38005Y-43774D01*
X37972Y-43854D01*
X37972Y-43940D01*
X38005Y-44020D01*
X38066Y-44081D01*
X38145Y-44114D01*
X38231Y-44114D01*
X38279Y-44094D01*
X40354Y-44094D01*
X40354Y-44291D01*
X39559Y-44291D01*
X39511Y-44271D01*
X39425Y-44271D01*
X39346Y-44304D01*
X39285Y-44365D01*
X39252Y-44444D01*
X39251Y-44531D01*
X39284Y-44610D01*
X39345Y-44671D01*
X39425Y-44704D01*
X39511Y-44704D01*
X39559Y-44685D01*
X40452Y-44685D01*
X40452Y-44685D01*
X40528Y-44670D01*
X40591Y-44627D01*
X40690Y-44528D01*
X40690Y-44528D01*
X40733Y-44465D01*
X40748Y-44389D01*
X40748Y-44389D01*
X40748Y-44094D01*
X44692Y-44094D01*
X44740Y-44114D01*
X44826Y-44114D01*
X44874Y-44094D01*
X47834Y-44094D01*
X47834Y-44791D01*
X47814Y-44838D01*
X47814Y-44924D01*
X47847Y-45004D01*
X47908Y-45065D01*
X47988Y-45098D01*
X48074Y-45098D01*
X48153Y-45065D01*
X48214Y-45004D01*
X48247Y-44925D01*
X48248Y-44839D01*
X48248Y-49980D01*
X33400Y-49980D01*
X33400Y-48726D01*
X33400Y-29726D01*
X33290Y-29460D01*
X33087Y-29257D01*
X32821Y-29146D01*
X32533Y-29146D01*
X32267Y-29256D01*
X32064Y-29459D01*
X31953Y-29725D01*
X31953Y-30013D01*
X32063Y-30279D01*
X32266Y-30483D01*
X32532Y-30593D01*
X32820Y-30593D01*
X33086Y-30483D01*
X33290Y-30280D01*
X33400Y-30014D01*
X33400Y-29726D01*
X33400Y-48726D01*
X33290Y-48460D01*
X33104Y-48273D01*
X33104Y-38947D01*
X33100Y-38875D01*
X33100Y-38191D01*
X33100Y-37541D01*
X33085Y-37505D01*
X33057Y-37477D01*
X33021Y-37462D01*
X32982Y-37462D01*
X32332Y-37462D01*
X32296Y-37477D01*
X32268Y-37505D01*
X32253Y-37541D01*
X32253Y-37580D01*
X32253Y-38230D01*
X32268Y-38266D01*
X32296Y-38294D01*
X32332Y-38309D01*
X32371Y-38309D01*
X33021Y-38309D01*
X33057Y-38294D01*
X33085Y-38266D01*
X33100Y-38230D01*
X33100Y-38191D01*
X33100Y-38875D01*
X33095Y-38779D01*
X33047Y-38665D01*
X32991Y-38627D01*
X32935Y-38682D01*
X32935Y-38571D01*
X32897Y-38515D01*
X32739Y-38458D01*
X32571Y-38467D01*
X32456Y-38515D01*
X32418Y-38571D01*
X32677Y-38830D01*
X32935Y-38571D01*
X32935Y-38682D01*
X32732Y-38885D01*
X32991Y-39144D01*
X33047Y-39106D01*
X33104Y-38947D01*
X33104Y-48273D01*
X33087Y-48257D01*
X32935Y-48194D01*
X32935Y-39200D01*
X32677Y-38941D01*
X32621Y-38997D01*
X32621Y-38885D01*
X32362Y-38627D01*
X32306Y-38665D01*
X32250Y-38823D01*
X32258Y-38991D01*
X32306Y-39106D01*
X32362Y-39144D01*
X32621Y-38885D01*
X32621Y-38997D01*
X32418Y-39200D01*
X32456Y-39256D01*
X32615Y-39312D01*
X32783Y-39304D01*
X32897Y-39256D01*
X32935Y-39200D01*
X32935Y-48194D01*
X32821Y-48146D01*
X32533Y-48146D01*
X32267Y-48256D01*
X32064Y-48459D01*
X31953Y-48725D01*
X31953Y-49013D01*
X32063Y-49279D01*
X32266Y-49483D01*
X32532Y-49593D01*
X32820Y-49593D01*
X33086Y-49483D01*
X33290Y-49280D01*
X33400Y-49014D01*
X33400Y-48726D01*
X33400Y-49980D01*
X31660Y-49980D01*
X31660Y-45280D01*
X31660Y-44985D01*
X31660Y-44689D01*
X31648Y-44620D01*
X31646Y-44615D01*
X31614Y-44608D01*
X31559Y-44663D01*
X31559Y-44552D01*
X31552Y-44521D01*
X31483Y-44506D01*
X31413Y-44519D01*
X31408Y-44521D01*
X31401Y-44552D01*
X31480Y-44631D01*
X31559Y-44552D01*
X31559Y-44663D01*
X31535Y-44687D01*
X31614Y-44765D01*
X31646Y-44758D01*
X31660Y-44689D01*
X31660Y-44985D01*
X31648Y-44915D01*
X31646Y-44910D01*
X31614Y-44903D01*
X31559Y-44959D01*
X31559Y-44847D01*
X31556Y-44834D01*
X31559Y-44821D01*
X31480Y-44742D01*
X31424Y-44798D01*
X31424Y-44687D01*
X31345Y-44608D01*
X31332Y-44611D01*
X31319Y-44608D01*
X31263Y-44663D01*
X31263Y-44552D01*
X31256Y-44521D01*
X31187Y-44506D01*
X31118Y-44519D01*
X31113Y-44521D01*
X31106Y-44552D01*
X31185Y-44631D01*
X31263Y-44552D01*
X31263Y-44663D01*
X31240Y-44687D01*
X31319Y-44765D01*
X31332Y-44762D01*
X31345Y-44765D01*
X31424Y-44687D01*
X31424Y-44798D01*
X31401Y-44821D01*
X31404Y-44834D01*
X31401Y-44847D01*
X31480Y-44926D01*
X31559Y-44847D01*
X31559Y-44959D01*
X31535Y-44982D01*
X31614Y-45061D01*
X31646Y-45054D01*
X31660Y-44985D01*
X31660Y-45280D01*
X31648Y-45211D01*
X31646Y-45205D01*
X31614Y-45198D01*
X31559Y-45254D01*
X31559Y-45142D01*
X31556Y-45129D01*
X31559Y-45116D01*
X31480Y-45037D01*
X31424Y-45093D01*
X31424Y-44982D01*
X31345Y-44903D01*
X31332Y-44906D01*
X31319Y-44903D01*
X31263Y-44959D01*
X31263Y-44847D01*
X31260Y-44834D01*
X31263Y-44821D01*
X31185Y-44742D01*
X31129Y-44798D01*
X31129Y-44687D01*
X31050Y-44608D01*
X31037Y-44611D01*
X31024Y-44608D01*
X30968Y-44663D01*
X30968Y-44552D01*
X30961Y-44521D01*
X30892Y-44506D01*
X30823Y-44519D01*
X30817Y-44521D01*
X30810Y-44552D01*
X30889Y-44631D01*
X30968Y-44552D01*
X30968Y-44663D01*
X30945Y-44687D01*
X31024Y-44765D01*
X31037Y-44762D01*
X31050Y-44765D01*
X31129Y-44687D01*
X31129Y-44798D01*
X31106Y-44821D01*
X31109Y-44834D01*
X31106Y-44847D01*
X31185Y-44926D01*
X31263Y-44847D01*
X31263Y-44959D01*
X31240Y-44982D01*
X31319Y-45061D01*
X31332Y-45058D01*
X31345Y-45061D01*
X31424Y-44982D01*
X31424Y-45093D01*
X31401Y-45116D01*
X31404Y-45129D01*
X31401Y-45142D01*
X31480Y-45221D01*
X31559Y-45142D01*
X31559Y-45254D01*
X31535Y-45277D01*
X31614Y-45356D01*
X31646Y-45349D01*
X31660Y-45280D01*
X31660Y-49980D01*
X31559Y-49980D01*
X31559Y-45412D01*
X31480Y-45333D01*
X31424Y-45388D01*
X31424Y-45277D01*
X31345Y-45198D01*
X31332Y-45201D01*
X31319Y-45198D01*
X31263Y-45254D01*
X31263Y-45142D01*
X31260Y-45129D01*
X31263Y-45116D01*
X31185Y-45037D01*
X31129Y-45093D01*
X31129Y-44982D01*
X31050Y-44903D01*
X31037Y-44906D01*
X31024Y-44903D01*
X30968Y-44959D01*
X30968Y-44847D01*
X30965Y-44834D01*
X30968Y-44821D01*
X30889Y-44742D01*
X30834Y-44798D01*
X30834Y-44687D01*
X30755Y-44608D01*
X30723Y-44615D01*
X30709Y-44684D01*
X30721Y-44753D01*
X30723Y-44758D01*
X30755Y-44765D01*
X30834Y-44687D01*
X30834Y-44798D01*
X30810Y-44821D01*
X30813Y-44834D01*
X30810Y-44847D01*
X30889Y-44926D01*
X30968Y-44847D01*
X30968Y-44959D01*
X30945Y-44982D01*
X31024Y-45061D01*
X31037Y-45058D01*
X31050Y-45061D01*
X31129Y-44982D01*
X31129Y-45093D01*
X31106Y-45116D01*
X31109Y-45129D01*
X31106Y-45142D01*
X31185Y-45221D01*
X31263Y-45142D01*
X31263Y-45254D01*
X31240Y-45277D01*
X31319Y-45356D01*
X31332Y-45353D01*
X31345Y-45356D01*
X31424Y-45277D01*
X31424Y-45388D01*
X31401Y-45412D01*
X31408Y-45443D01*
X31477Y-45458D01*
X31546Y-45445D01*
X31552Y-45443D01*
X31559Y-45412D01*
X31559Y-49980D01*
X31263Y-49980D01*
X31263Y-45412D01*
X31185Y-45333D01*
X31129Y-45388D01*
X31129Y-45277D01*
X31050Y-45198D01*
X31037Y-45201D01*
X31024Y-45198D01*
X30968Y-45254D01*
X30968Y-45142D01*
X30965Y-45129D01*
X30968Y-45116D01*
X30889Y-45037D01*
X30834Y-45093D01*
X30834Y-44982D01*
X30755Y-44903D01*
X30723Y-44910D01*
X30709Y-44979D01*
X30721Y-45048D01*
X30723Y-45054D01*
X30755Y-45061D01*
X30834Y-44982D01*
X30834Y-45093D01*
X30810Y-45116D01*
X30813Y-45129D01*
X30810Y-45142D01*
X30889Y-45221D01*
X30968Y-45142D01*
X30968Y-45254D01*
X30945Y-45277D01*
X31024Y-45356D01*
X31037Y-45353D01*
X31050Y-45356D01*
X31129Y-45277D01*
X31129Y-45388D01*
X31106Y-45412D01*
X31113Y-45443D01*
X31182Y-45458D01*
X31251Y-45445D01*
X31256Y-45443D01*
X31263Y-45412D01*
X31263Y-49980D01*
X30968Y-49980D01*
X30968Y-45412D01*
X30889Y-45333D01*
X30834Y-45388D01*
X30834Y-45277D01*
X30755Y-45198D01*
X30723Y-45205D01*
X30709Y-45274D01*
X30721Y-45344D01*
X30723Y-45349D01*
X30755Y-45356D01*
X30834Y-45277D01*
X30834Y-45388D01*
X30810Y-45412D01*
X30817Y-45443D01*
X30886Y-45458D01*
X30956Y-45445D01*
X30961Y-45443D01*
X30968Y-45412D01*
X30968Y-49980D01*
X30137Y-49980D01*
X30137Y-44114D01*
X32303Y-44114D01*
X32303Y-42500D01*
X31660Y-42500D01*
X31660Y-41930D01*
X31660Y-41634D01*
X31660Y-41339D01*
X31660Y-35634D01*
X31660Y-35339D01*
X31660Y-35044D01*
X31660Y-32284D01*
X31660Y-31989D01*
X31660Y-31693D01*
X31648Y-31624D01*
X31646Y-31619D01*
X31614Y-31612D01*
X31559Y-31667D01*
X31559Y-31556D01*
X31552Y-31525D01*
X31483Y-31510D01*
X31413Y-31522D01*
X31408Y-31525D01*
X31401Y-31556D01*
X31480Y-31635D01*
X31559Y-31556D01*
X31559Y-31667D01*
X31535Y-31690D01*
X31614Y-31769D01*
X31646Y-31762D01*
X31660Y-31693D01*
X31660Y-31989D01*
X31648Y-31919D01*
X31646Y-31914D01*
X31614Y-31907D01*
X31559Y-31962D01*
X31559Y-31851D01*
X31556Y-31838D01*
X31559Y-31825D01*
X31480Y-31746D01*
X31424Y-31802D01*
X31424Y-31690D01*
X31345Y-31612D01*
X31332Y-31615D01*
X31319Y-31612D01*
X31263Y-31667D01*
X31263Y-31556D01*
X31256Y-31525D01*
X31187Y-31510D01*
X31118Y-31522D01*
X31113Y-31525D01*
X31106Y-31556D01*
X31185Y-31635D01*
X31263Y-31556D01*
X31263Y-31667D01*
X31240Y-31690D01*
X31319Y-31769D01*
X31332Y-31766D01*
X31345Y-31769D01*
X31424Y-31690D01*
X31424Y-31802D01*
X31401Y-31825D01*
X31404Y-31838D01*
X31401Y-31851D01*
X31480Y-31930D01*
X31559Y-31851D01*
X31559Y-31962D01*
X31535Y-31986D01*
X31614Y-32065D01*
X31646Y-32057D01*
X31660Y-31989D01*
X31660Y-32284D01*
X31648Y-32215D01*
X31646Y-32209D01*
X31614Y-32202D01*
X31559Y-32258D01*
X31559Y-32146D01*
X31556Y-32133D01*
X31559Y-32120D01*
X31480Y-32041D01*
X31424Y-32097D01*
X31424Y-31986D01*
X31345Y-31907D01*
X31332Y-31910D01*
X31319Y-31907D01*
X31263Y-31962D01*
X31263Y-31851D01*
X31260Y-31838D01*
X31263Y-31825D01*
X31185Y-31746D01*
X31129Y-31802D01*
X31129Y-31690D01*
X31050Y-31612D01*
X31037Y-31615D01*
X31024Y-31612D01*
X30968Y-31667D01*
X30968Y-31556D01*
X30961Y-31525D01*
X30892Y-31510D01*
X30823Y-31522D01*
X30817Y-31525D01*
X30810Y-31556D01*
X30889Y-31635D01*
X30968Y-31556D01*
X30968Y-31667D01*
X30945Y-31690D01*
X31024Y-31769D01*
X31037Y-31766D01*
X31050Y-31769D01*
X31129Y-31690D01*
X31129Y-31802D01*
X31106Y-31825D01*
X31109Y-31838D01*
X31106Y-31851D01*
X31185Y-31930D01*
X31263Y-31851D01*
X31263Y-31962D01*
X31240Y-31986D01*
X31319Y-32065D01*
X31332Y-32062D01*
X31345Y-32065D01*
X31424Y-31986D01*
X31424Y-32097D01*
X31401Y-32120D01*
X31404Y-32133D01*
X31401Y-32146D01*
X31480Y-32225D01*
X31559Y-32146D01*
X31559Y-32258D01*
X31535Y-32281D01*
X31614Y-32360D01*
X31646Y-32353D01*
X31660Y-32284D01*
X31660Y-35044D01*
X31648Y-34974D01*
X31646Y-34969D01*
X31614Y-34962D01*
X31559Y-35018D01*
X31559Y-34906D01*
X31559Y-32416D01*
X31480Y-32337D01*
X31424Y-32392D01*
X31424Y-32281D01*
X31345Y-32202D01*
X31332Y-32205D01*
X31319Y-32202D01*
X31263Y-32258D01*
X31263Y-32146D01*
X31260Y-32133D01*
X31263Y-32120D01*
X31185Y-32041D01*
X31129Y-32097D01*
X31129Y-31986D01*
X31050Y-31907D01*
X31037Y-31910D01*
X31024Y-31907D01*
X30968Y-31962D01*
X30968Y-31851D01*
X30965Y-31838D01*
X30968Y-31825D01*
X30889Y-31746D01*
X30834Y-31802D01*
X30834Y-31690D01*
X30755Y-31612D01*
X30723Y-31619D01*
X30709Y-31688D01*
X30721Y-31757D01*
X30723Y-31762D01*
X30755Y-31769D01*
X30834Y-31690D01*
X30834Y-31802D01*
X30810Y-31825D01*
X30813Y-31838D01*
X30810Y-31851D01*
X30889Y-31930D01*
X30968Y-31851D01*
X30968Y-31962D01*
X30945Y-31986D01*
X31024Y-32065D01*
X31037Y-32062D01*
X31050Y-32065D01*
X31129Y-31986D01*
X31129Y-32097D01*
X31106Y-32120D01*
X31109Y-32133D01*
X31106Y-32146D01*
X31185Y-32225D01*
X31263Y-32146D01*
X31263Y-32258D01*
X31240Y-32281D01*
X31319Y-32360D01*
X31332Y-32357D01*
X31345Y-32360D01*
X31424Y-32281D01*
X31424Y-32392D01*
X31401Y-32416D01*
X31408Y-32447D01*
X31477Y-32462D01*
X31546Y-32449D01*
X31552Y-32447D01*
X31559Y-32416D01*
X31559Y-34906D01*
X31552Y-34875D01*
X31483Y-34860D01*
X31413Y-34873D01*
X31408Y-34875D01*
X31401Y-34906D01*
X31480Y-34985D01*
X31559Y-34906D01*
X31559Y-35018D01*
X31535Y-35041D01*
X31614Y-35120D01*
X31646Y-35113D01*
X31660Y-35044D01*
X31660Y-35339D01*
X31648Y-35270D01*
X31646Y-35264D01*
X31614Y-35257D01*
X31559Y-35313D01*
X31559Y-35202D01*
X31556Y-35188D01*
X31559Y-35175D01*
X31480Y-35097D01*
X31424Y-35152D01*
X31424Y-35041D01*
X31345Y-34962D01*
X31332Y-34965D01*
X31319Y-34962D01*
X31263Y-35018D01*
X31263Y-34906D01*
X31263Y-32416D01*
X31185Y-32337D01*
X31129Y-32392D01*
X31129Y-32281D01*
X31050Y-32202D01*
X31037Y-32205D01*
X31024Y-32202D01*
X30968Y-32258D01*
X30968Y-32146D01*
X30965Y-32133D01*
X30968Y-32120D01*
X30889Y-32041D01*
X30834Y-32097D01*
X30834Y-31986D01*
X30755Y-31907D01*
X30723Y-31914D01*
X30709Y-31983D01*
X30721Y-32052D01*
X30723Y-32057D01*
X30755Y-32065D01*
X30834Y-31986D01*
X30834Y-32097D01*
X30810Y-32120D01*
X30813Y-32133D01*
X30810Y-32146D01*
X30889Y-32225D01*
X30968Y-32146D01*
X30968Y-32258D01*
X30945Y-32281D01*
X31024Y-32360D01*
X31037Y-32357D01*
X31050Y-32360D01*
X31129Y-32281D01*
X31129Y-32392D01*
X31106Y-32416D01*
X31113Y-32447D01*
X31182Y-32462D01*
X31251Y-32449D01*
X31256Y-32447D01*
X31263Y-32416D01*
X31263Y-34906D01*
X31256Y-34875D01*
X31187Y-34860D01*
X31118Y-34873D01*
X31113Y-34875D01*
X31106Y-34906D01*
X31185Y-34985D01*
X31263Y-34906D01*
X31263Y-35018D01*
X31240Y-35041D01*
X31319Y-35120D01*
X31332Y-35117D01*
X31345Y-35120D01*
X31424Y-35041D01*
X31424Y-35152D01*
X31401Y-35175D01*
X31404Y-35188D01*
X31401Y-35202D01*
X31480Y-35280D01*
X31559Y-35202D01*
X31559Y-35313D01*
X31535Y-35336D01*
X31614Y-35415D01*
X31646Y-35408D01*
X31660Y-35339D01*
X31660Y-35634D01*
X31648Y-35565D01*
X31646Y-35560D01*
X31614Y-35552D01*
X31559Y-35608D01*
X31559Y-35497D01*
X31556Y-35484D01*
X31559Y-35471D01*
X31480Y-35392D01*
X31424Y-35447D01*
X31424Y-35336D01*
X31345Y-35257D01*
X31332Y-35260D01*
X31319Y-35257D01*
X31263Y-35313D01*
X31263Y-35202D01*
X31260Y-35188D01*
X31263Y-35175D01*
X31185Y-35097D01*
X31129Y-35152D01*
X31129Y-35041D01*
X31050Y-34962D01*
X31037Y-34965D01*
X31024Y-34962D01*
X30968Y-35018D01*
X30968Y-34906D01*
X30968Y-32416D01*
X30889Y-32337D01*
X30834Y-32392D01*
X30834Y-32281D01*
X30755Y-32202D01*
X30723Y-32209D01*
X30709Y-32278D01*
X30721Y-32347D01*
X30723Y-32353D01*
X30755Y-32360D01*
X30834Y-32281D01*
X30834Y-32392D01*
X30810Y-32416D01*
X30817Y-32447D01*
X30886Y-32462D01*
X30956Y-32449D01*
X30961Y-32447D01*
X30968Y-32416D01*
X30968Y-34906D01*
X30961Y-34875D01*
X30892Y-34860D01*
X30823Y-34873D01*
X30817Y-34875D01*
X30810Y-34906D01*
X30889Y-34985D01*
X30968Y-34906D01*
X30968Y-35018D01*
X30945Y-35041D01*
X31024Y-35120D01*
X31037Y-35117D01*
X31050Y-35120D01*
X31129Y-35041D01*
X31129Y-35152D01*
X31106Y-35175D01*
X31109Y-35188D01*
X31106Y-35202D01*
X31185Y-35280D01*
X31263Y-35202D01*
X31263Y-35313D01*
X31240Y-35336D01*
X31319Y-35415D01*
X31332Y-35412D01*
X31345Y-35415D01*
X31424Y-35336D01*
X31424Y-35447D01*
X31401Y-35471D01*
X31404Y-35484D01*
X31401Y-35497D01*
X31480Y-35576D01*
X31559Y-35497D01*
X31559Y-35608D01*
X31535Y-35631D01*
X31614Y-35710D01*
X31646Y-35703D01*
X31660Y-35634D01*
X31660Y-41339D01*
X31648Y-41270D01*
X31646Y-41264D01*
X31614Y-41257D01*
X31559Y-41313D01*
X31559Y-41202D01*
X31559Y-35766D01*
X31480Y-35687D01*
X31424Y-35743D01*
X31424Y-35631D01*
X31345Y-35552D01*
X31332Y-35555D01*
X31319Y-35552D01*
X31263Y-35608D01*
X31263Y-35497D01*
X31260Y-35484D01*
X31263Y-35471D01*
X31185Y-35392D01*
X31129Y-35447D01*
X31129Y-35336D01*
X31050Y-35257D01*
X31037Y-35260D01*
X31024Y-35257D01*
X30968Y-35313D01*
X30968Y-35202D01*
X30965Y-35188D01*
X30968Y-35175D01*
X30889Y-35097D01*
X30834Y-35152D01*
X30834Y-35041D01*
X30755Y-34962D01*
X30723Y-34969D01*
X30709Y-35038D01*
X30721Y-35107D01*
X30723Y-35113D01*
X30755Y-35120D01*
X30834Y-35041D01*
X30834Y-35152D01*
X30810Y-35175D01*
X30813Y-35188D01*
X30810Y-35202D01*
X30889Y-35280D01*
X30968Y-35202D01*
X30968Y-35313D01*
X30945Y-35336D01*
X31024Y-35415D01*
X31037Y-35412D01*
X31050Y-35415D01*
X31129Y-35336D01*
X31129Y-35447D01*
X31106Y-35471D01*
X31109Y-35484D01*
X31106Y-35497D01*
X31185Y-35576D01*
X31263Y-35497D01*
X31263Y-35608D01*
X31240Y-35631D01*
X31319Y-35710D01*
X31332Y-35707D01*
X31345Y-35710D01*
X31424Y-35631D01*
X31424Y-35743D01*
X31401Y-35766D01*
X31408Y-35797D01*
X31477Y-35812D01*
X31546Y-35799D01*
X31552Y-35797D01*
X31559Y-35766D01*
X31559Y-41202D01*
X31552Y-41170D01*
X31483Y-41156D01*
X31413Y-41168D01*
X31408Y-41170D01*
X31401Y-41202D01*
X31480Y-41280D01*
X31559Y-41202D01*
X31559Y-41313D01*
X31535Y-41336D01*
X31614Y-41415D01*
X31646Y-41408D01*
X31660Y-41339D01*
X31660Y-41634D01*
X31648Y-41565D01*
X31646Y-41560D01*
X31614Y-41552D01*
X31559Y-41608D01*
X31559Y-41497D01*
X31556Y-41484D01*
X31559Y-41471D01*
X31480Y-41392D01*
X31424Y-41447D01*
X31424Y-41336D01*
X31345Y-41257D01*
X31332Y-41260D01*
X31319Y-41257D01*
X31263Y-41313D01*
X31263Y-41202D01*
X31263Y-35766D01*
X31185Y-35687D01*
X31129Y-35743D01*
X31129Y-35631D01*
X31050Y-35552D01*
X31037Y-35555D01*
X31024Y-35552D01*
X30968Y-35608D01*
X30968Y-35497D01*
X30965Y-35484D01*
X30968Y-35471D01*
X30889Y-35392D01*
X30834Y-35447D01*
X30834Y-35336D01*
X30755Y-35257D01*
X30723Y-35264D01*
X30709Y-35333D01*
X30721Y-35403D01*
X30723Y-35408D01*
X30755Y-35415D01*
X30834Y-35336D01*
X30834Y-35447D01*
X30810Y-35471D01*
X30813Y-35484D01*
X30810Y-35497D01*
X30889Y-35576D01*
X30968Y-35497D01*
X30968Y-35608D01*
X30945Y-35631D01*
X31024Y-35710D01*
X31037Y-35707D01*
X31050Y-35710D01*
X31129Y-35631D01*
X31129Y-35743D01*
X31106Y-35766D01*
X31113Y-35797D01*
X31182Y-35812D01*
X31251Y-35799D01*
X31256Y-35797D01*
X31263Y-35766D01*
X31263Y-41202D01*
X31256Y-41170D01*
X31187Y-41156D01*
X31118Y-41168D01*
X31113Y-41170D01*
X31106Y-41202D01*
X31185Y-41280D01*
X31263Y-41202D01*
X31263Y-41313D01*
X31240Y-41336D01*
X31319Y-41415D01*
X31332Y-41412D01*
X31345Y-41415D01*
X31424Y-41336D01*
X31424Y-41447D01*
X31401Y-41471D01*
X31404Y-41484D01*
X31401Y-41497D01*
X31480Y-41576D01*
X31559Y-41497D01*
X31559Y-41608D01*
X31535Y-41631D01*
X31614Y-41710D01*
X31646Y-41703D01*
X31660Y-41634D01*
X31660Y-41930D01*
X31648Y-41860D01*
X31646Y-41855D01*
X31614Y-41848D01*
X31559Y-41903D01*
X31559Y-41792D01*
X31556Y-41779D01*
X31559Y-41766D01*
X31480Y-41687D01*
X31424Y-41743D01*
X31424Y-41631D01*
X31345Y-41552D01*
X31332Y-41555D01*
X31319Y-41552D01*
X31263Y-41608D01*
X31263Y-41497D01*
X31260Y-41484D01*
X31263Y-41471D01*
X31185Y-41392D01*
X31129Y-41447D01*
X31129Y-41336D01*
X31050Y-41257D01*
X31037Y-41260D01*
X31024Y-41257D01*
X30968Y-41313D01*
X30968Y-41202D01*
X30968Y-35766D01*
X30889Y-35687D01*
X30834Y-35743D01*
X30834Y-35631D01*
X30755Y-35552D01*
X30723Y-35560D01*
X30709Y-35629D01*
X30721Y-35698D01*
X30723Y-35703D01*
X30755Y-35710D01*
X30834Y-35631D01*
X30834Y-35743D01*
X30810Y-35766D01*
X30817Y-35797D01*
X30886Y-35812D01*
X30956Y-35799D01*
X30961Y-35797D01*
X30968Y-35766D01*
X30968Y-41202D01*
X30961Y-41170D01*
X30892Y-41156D01*
X30823Y-41168D01*
X30817Y-41170D01*
X30810Y-41202D01*
X30889Y-41280D01*
X30968Y-41202D01*
X30968Y-41313D01*
X30945Y-41336D01*
X31024Y-41415D01*
X31037Y-41412D01*
X31050Y-41415D01*
X31129Y-41336D01*
X31129Y-41447D01*
X31106Y-41471D01*
X31109Y-41484D01*
X31106Y-41497D01*
X31185Y-41576D01*
X31263Y-41497D01*
X31263Y-41608D01*
X31240Y-41631D01*
X31319Y-41710D01*
X31332Y-41707D01*
X31345Y-41710D01*
X31424Y-41631D01*
X31424Y-41743D01*
X31401Y-41766D01*
X31404Y-41779D01*
X31401Y-41792D01*
X31480Y-41871D01*
X31559Y-41792D01*
X31559Y-41903D01*
X31535Y-41927D01*
X31614Y-42006D01*
X31646Y-41998D01*
X31660Y-41930D01*
X31660Y-42500D01*
X31559Y-42500D01*
X31559Y-42061D01*
X31480Y-41982D01*
X31424Y-42038D01*
X31424Y-41927D01*
X31345Y-41848D01*
X31332Y-41851D01*
X31319Y-41848D01*
X31263Y-41903D01*
X31263Y-41792D01*
X31260Y-41779D01*
X31263Y-41766D01*
X31185Y-41687D01*
X31129Y-41743D01*
X31129Y-41631D01*
X31050Y-41552D01*
X31037Y-41555D01*
X31024Y-41552D01*
X30968Y-41608D01*
X30968Y-41497D01*
X30965Y-41484D01*
X30968Y-41471D01*
X30889Y-41392D01*
X30834Y-41447D01*
X30834Y-41336D01*
X30755Y-41257D01*
X30723Y-41264D01*
X30709Y-41333D01*
X30721Y-41403D01*
X30723Y-41408D01*
X30755Y-41415D01*
X30834Y-41336D01*
X30834Y-41447D01*
X30810Y-41471D01*
X30813Y-41484D01*
X30810Y-41497D01*
X30889Y-41576D01*
X30968Y-41497D01*
X30968Y-41608D01*
X30945Y-41631D01*
X31024Y-41710D01*
X31037Y-41707D01*
X31050Y-41710D01*
X31129Y-41631D01*
X31129Y-41743D01*
X31106Y-41766D01*
X31109Y-41779D01*
X31106Y-41792D01*
X31185Y-41871D01*
X31263Y-41792D01*
X31263Y-41903D01*
X31240Y-41927D01*
X31319Y-42006D01*
X31332Y-42003D01*
X31345Y-42006D01*
X31424Y-41927D01*
X31424Y-42038D01*
X31401Y-42061D01*
X31408Y-42092D01*
X31477Y-42107D01*
X31546Y-42095D01*
X31552Y-42092D01*
X31559Y-42061D01*
X31559Y-42500D01*
X31263Y-42500D01*
X31263Y-42061D01*
X31185Y-41982D01*
X31129Y-42038D01*
X31129Y-41927D01*
X31050Y-41848D01*
X31037Y-41851D01*
X31024Y-41848D01*
X30968Y-41903D01*
X30968Y-41792D01*
X30965Y-41779D01*
X30968Y-41766D01*
X30889Y-41687D01*
X30834Y-41743D01*
X30834Y-41631D01*
X30755Y-41552D01*
X30723Y-41560D01*
X30709Y-41629D01*
X30721Y-41698D01*
X30723Y-41703D01*
X30755Y-41710D01*
X30834Y-41631D01*
X30834Y-41743D01*
X30810Y-41766D01*
X30813Y-41779D01*
X30810Y-41792D01*
X30889Y-41871D01*
X30968Y-41792D01*
X30968Y-41903D01*
X30945Y-41927D01*
X31024Y-42006D01*
X31037Y-42003D01*
X31050Y-42006D01*
X31129Y-41927D01*
X31129Y-42038D01*
X31106Y-42061D01*
X31113Y-42092D01*
X31182Y-42107D01*
X31251Y-42095D01*
X31256Y-42092D01*
X31263Y-42061D01*
X31263Y-42500D01*
X30968Y-42500D01*
X30968Y-42061D01*
X30889Y-41982D01*
X30834Y-42038D01*
X30834Y-41927D01*
X30755Y-41848D01*
X30723Y-41855D01*
X30709Y-41924D01*
X30721Y-41993D01*
X30723Y-41998D01*
X30755Y-42006D01*
X30834Y-41927D01*
X30834Y-42038D01*
X30810Y-42061D01*
X30817Y-42092D01*
X30886Y-42107D01*
X30956Y-42095D01*
X30961Y-42092D01*
X30968Y-42061D01*
X30968Y-42500D01*
X30137Y-42500D01*
X30137Y-28759D01*
X47539Y-28759D01*
X47539Y-30610D01*
X42027Y-30610D01*
X42027Y-35925D01*
X46555Y-35925D01*
X46555Y-32381D01*
X47539Y-32381D01*
X47539Y-39665D01*
X53248Y-39665D01*
X53248Y-28759D01*
X55019Y-28759D01*
X55019Y-30472D01*
X54973Y-30491D01*
X54901Y-30563D01*
X54862Y-30657D01*
X54862Y-30759D01*
X54901Y-30853D01*
X54972Y-30925D01*
X55019Y-30944D01*
X55019Y-41793D01*
X54940Y-41826D01*
X54940Y-30961D01*
X54908Y-30881D01*
X54847Y-30820D01*
X54767Y-30787D01*
X54681Y-30787D01*
X54601Y-30820D01*
X54586Y-30835D01*
X54586Y-30657D01*
X54547Y-30563D01*
X54475Y-30491D01*
X54381Y-30452D01*
X54280Y-30452D01*
X54252Y-30464D01*
X54252Y-29287D01*
X54219Y-29208D01*
X54158Y-29147D01*
X54078Y-29114D01*
X53992Y-29114D01*
X53912Y-29147D01*
X53851Y-29207D01*
X53818Y-29287D01*
X53818Y-29373D01*
X53851Y-29453D01*
X53912Y-29514D01*
X53992Y-29547D01*
X54078Y-29547D01*
X54157Y-29514D01*
X54218Y-29453D01*
X54251Y-29373D01*
X54252Y-29287D01*
X54252Y-30464D01*
X54185Y-30491D01*
X54113Y-30563D01*
X54074Y-30657D01*
X54074Y-30759D01*
X54113Y-30853D01*
X54185Y-30925D01*
X54279Y-30964D01*
X54381Y-30964D01*
X54475Y-30925D01*
X54547Y-30853D01*
X54586Y-30759D01*
X54586Y-30657D01*
X54586Y-30835D01*
X54540Y-30881D01*
X54507Y-30960D01*
X54507Y-31046D01*
X54540Y-31126D01*
X54601Y-31187D01*
X54681Y-31220D01*
X54767Y-31220D01*
X54846Y-31187D01*
X54907Y-31126D01*
X54940Y-31047D01*
X54940Y-30961D01*
X54940Y-41826D01*
X54923Y-41833D01*
X54826Y-41930D01*
X54773Y-42057D01*
X54773Y-42194D01*
X54825Y-42320D01*
X54922Y-42417D01*
X55019Y-42458D01*
X55019Y-49980D01*
M02*
