G04 (created by PCBNEW (2013-mar-25)-stable) date Wednesday, January 13, 2016 08:40:10 PM*
%MOIN*%
G04 Gerber Fmt 3.4, Leading zero omitted, Abs format*
%FSLAX34Y34*%
G01*
G70*
G90*
G04 APERTURE LIST*
%ADD10C,0.006*%
%ADD11C,0.00590551*%
%ADD12C,0.011811*%
%ADD13C,0.00984252*%
%ADD14C,0.000393701*%
%ADD15C,0.000787402*%
G04 APERTURE END LIST*
G54D10*
G54D11*
X45031Y-24962D02*
X45031Y-24568D01*
X45211Y-24962D02*
X45076Y-24737D01*
X45211Y-24568D02*
X45031Y-24793D01*
X45346Y-24962D02*
X45346Y-24700D01*
X45346Y-24568D02*
X45331Y-24587D01*
X45346Y-24606D01*
X45361Y-24587D01*
X45346Y-24568D01*
X45346Y-24606D01*
X45466Y-24700D02*
X45526Y-24962D01*
X45586Y-24775D01*
X45646Y-24962D01*
X45706Y-24700D01*
X45826Y-24962D02*
X45826Y-24700D01*
X45826Y-24568D02*
X45811Y-24587D01*
X45826Y-24606D01*
X45841Y-24587D01*
X45826Y-24568D01*
X45826Y-24606D01*
X45961Y-24943D02*
X46006Y-24962D01*
X46081Y-24962D01*
X46111Y-24943D01*
X46126Y-24925D01*
X46141Y-24887D01*
X46141Y-24850D01*
X46126Y-24812D01*
X46111Y-24793D01*
X46081Y-24775D01*
X46021Y-24756D01*
X45991Y-24737D01*
X45976Y-24718D01*
X45961Y-24681D01*
X45961Y-24643D01*
X45976Y-24606D01*
X45991Y-24587D01*
X46021Y-24568D01*
X46096Y-24568D01*
X46141Y-24587D01*
X46276Y-24962D02*
X46276Y-24568D01*
X46351Y-24568D01*
X46396Y-24587D01*
X46426Y-24625D01*
X46441Y-24662D01*
X46456Y-24737D01*
X46456Y-24793D01*
X46441Y-24868D01*
X46426Y-24906D01*
X46396Y-24943D01*
X46351Y-24962D01*
X46276Y-24962D01*
X46771Y-24962D02*
X46666Y-24775D01*
X46591Y-24962D02*
X46591Y-24568D01*
X46711Y-24568D01*
X46741Y-24587D01*
X46756Y-24606D01*
X46771Y-24643D01*
X46771Y-24700D01*
X46756Y-24737D01*
X46741Y-24756D01*
X46711Y-24775D01*
X46591Y-24775D01*
X47146Y-24700D02*
X47146Y-25093D01*
X47146Y-24718D02*
X47176Y-24700D01*
X47236Y-24700D01*
X47266Y-24718D01*
X47281Y-24737D01*
X47296Y-24775D01*
X47296Y-24887D01*
X47281Y-24925D01*
X47266Y-24943D01*
X47236Y-24962D01*
X47176Y-24962D01*
X47146Y-24943D01*
X47431Y-24962D02*
X47431Y-24700D01*
X47431Y-24775D02*
X47446Y-24737D01*
X47461Y-24718D01*
X47491Y-24700D01*
X47521Y-24700D01*
X47671Y-24962D02*
X47641Y-24943D01*
X47626Y-24925D01*
X47611Y-24887D01*
X47611Y-24775D01*
X47626Y-24737D01*
X47641Y-24718D01*
X47671Y-24700D01*
X47716Y-24700D01*
X47746Y-24718D01*
X47761Y-24737D01*
X47776Y-24775D01*
X47776Y-24887D01*
X47761Y-24925D01*
X47746Y-24943D01*
X47716Y-24962D01*
X47671Y-24962D01*
X47866Y-24700D02*
X47986Y-24700D01*
X47911Y-24568D02*
X47911Y-24906D01*
X47926Y-24943D01*
X47956Y-24962D01*
X47986Y-24962D01*
X48136Y-24962D02*
X48106Y-24943D01*
X48091Y-24925D01*
X48076Y-24887D01*
X48076Y-24775D01*
X48091Y-24737D01*
X48106Y-24718D01*
X48136Y-24700D01*
X48181Y-24700D01*
X48211Y-24718D01*
X48226Y-24737D01*
X48241Y-24775D01*
X48241Y-24887D01*
X48226Y-24925D01*
X48211Y-24943D01*
X48181Y-24962D01*
X48136Y-24962D01*
X48331Y-24700D02*
X48451Y-24700D01*
X48376Y-24568D02*
X48376Y-24906D01*
X48391Y-24943D01*
X48421Y-24962D01*
X48451Y-24962D01*
X48526Y-24700D02*
X48601Y-24962D01*
X48676Y-24700D02*
X48601Y-24962D01*
X48571Y-25056D01*
X48556Y-25074D01*
X48526Y-25093D01*
X48796Y-24700D02*
X48796Y-25093D01*
X48796Y-24718D02*
X48826Y-24700D01*
X48886Y-24700D01*
X48916Y-24718D01*
X48931Y-24737D01*
X48946Y-24775D01*
X48946Y-24887D01*
X48931Y-24925D01*
X48916Y-24943D01*
X48886Y-24962D01*
X48826Y-24962D01*
X48796Y-24943D01*
X49201Y-24943D02*
X49171Y-24962D01*
X49111Y-24962D01*
X49081Y-24943D01*
X49066Y-24906D01*
X49066Y-24756D01*
X49081Y-24718D01*
X49111Y-24700D01*
X49171Y-24700D01*
X49201Y-24718D01*
X49216Y-24756D01*
X49216Y-24793D01*
X49066Y-24831D01*
X49561Y-24700D02*
X49636Y-24962D01*
X49711Y-24700D01*
X49891Y-24568D02*
X49921Y-24568D01*
X49951Y-24587D01*
X49966Y-24606D01*
X49981Y-24643D01*
X49996Y-24718D01*
X49996Y-24812D01*
X49981Y-24887D01*
X49966Y-24925D01*
X49951Y-24943D01*
X49921Y-24962D01*
X49891Y-24962D01*
X49861Y-24943D01*
X49846Y-24925D01*
X49831Y-24887D01*
X49816Y-24812D01*
X49816Y-24718D01*
X49831Y-24643D01*
X49846Y-24606D01*
X49861Y-24587D01*
X49891Y-24568D01*
X50131Y-24925D02*
X50146Y-24943D01*
X50131Y-24962D01*
X50116Y-24943D01*
X50131Y-24925D01*
X50131Y-24962D01*
X50251Y-24568D02*
X50446Y-24568D01*
X50341Y-24718D01*
X50386Y-24718D01*
X50416Y-24737D01*
X50431Y-24756D01*
X50446Y-24793D01*
X50446Y-24887D01*
X50431Y-24925D01*
X50416Y-24943D01*
X50386Y-24962D01*
X50296Y-24962D01*
X50266Y-24943D01*
X50251Y-24925D01*
X50986Y-24962D02*
X50806Y-24962D01*
X50896Y-24962D02*
X50896Y-24568D01*
X50866Y-24625D01*
X50836Y-24662D01*
X50806Y-24681D01*
X51271Y-24568D02*
X51121Y-24568D01*
X51106Y-24756D01*
X51121Y-24737D01*
X51151Y-24718D01*
X51226Y-24718D01*
X51256Y-24737D01*
X51271Y-24756D01*
X51286Y-24793D01*
X51286Y-24887D01*
X51271Y-24925D01*
X51256Y-24943D01*
X51226Y-24962D01*
X51151Y-24962D01*
X51121Y-24943D01*
X51106Y-24925D01*
X51421Y-24812D02*
X51661Y-24812D01*
X51901Y-24568D02*
X51901Y-24850D01*
X51886Y-24906D01*
X51856Y-24943D01*
X51811Y-24962D01*
X51781Y-24962D01*
X52185Y-24700D02*
X52185Y-24962D01*
X52050Y-24700D02*
X52050Y-24906D01*
X52065Y-24943D01*
X52095Y-24962D01*
X52140Y-24962D01*
X52170Y-24943D01*
X52185Y-24925D01*
X52380Y-24962D02*
X52350Y-24943D01*
X52335Y-24906D01*
X52335Y-24568D01*
X52470Y-24700D02*
X52545Y-24962D01*
X52620Y-24700D02*
X52545Y-24962D01*
X52515Y-25056D01*
X52500Y-25074D01*
X52470Y-25093D01*
X52740Y-24812D02*
X52980Y-24812D01*
X53115Y-24606D02*
X53130Y-24587D01*
X53160Y-24568D01*
X53235Y-24568D01*
X53265Y-24587D01*
X53280Y-24606D01*
X53295Y-24643D01*
X53295Y-24681D01*
X53280Y-24737D01*
X53100Y-24962D01*
X53295Y-24962D01*
X53490Y-24568D02*
X53520Y-24568D01*
X53550Y-24587D01*
X53565Y-24606D01*
X53580Y-24643D01*
X53595Y-24718D01*
X53595Y-24812D01*
X53580Y-24887D01*
X53565Y-24925D01*
X53550Y-24943D01*
X53520Y-24962D01*
X53490Y-24962D01*
X53460Y-24943D01*
X53445Y-24925D01*
X53430Y-24887D01*
X53415Y-24812D01*
X53415Y-24718D01*
X53430Y-24643D01*
X53445Y-24606D01*
X53460Y-24587D01*
X53490Y-24568D01*
X53895Y-24962D02*
X53715Y-24962D01*
X53805Y-24962D02*
X53805Y-24568D01*
X53775Y-24625D01*
X53745Y-24662D01*
X53715Y-24681D01*
X54180Y-24568D02*
X54030Y-24568D01*
X54015Y-24756D01*
X54030Y-24737D01*
X54060Y-24718D01*
X54135Y-24718D01*
X54165Y-24737D01*
X54180Y-24756D01*
X54195Y-24793D01*
X54195Y-24887D01*
X54180Y-24925D01*
X54165Y-24943D01*
X54135Y-24962D01*
X54060Y-24962D01*
X54030Y-24943D01*
X54015Y-24925D01*
G54D12*
X44277Y-22445D02*
X44277Y-21461D01*
X44652Y-21461D01*
X44745Y-21508D01*
X44792Y-21555D01*
X44839Y-21648D01*
X44839Y-21789D01*
X44792Y-21883D01*
X44745Y-21930D01*
X44652Y-21976D01*
X44277Y-21976D01*
X45823Y-22445D02*
X45495Y-21976D01*
X45261Y-22445D02*
X45261Y-21461D01*
X45636Y-21461D01*
X45730Y-21508D01*
X45777Y-21555D01*
X45823Y-21648D01*
X45823Y-21789D01*
X45777Y-21883D01*
X45730Y-21930D01*
X45636Y-21976D01*
X45261Y-21976D01*
X46433Y-21461D02*
X46620Y-21461D01*
X46714Y-21508D01*
X46808Y-21601D01*
X46855Y-21789D01*
X46855Y-22117D01*
X46808Y-22305D01*
X46714Y-22398D01*
X46620Y-22445D01*
X46433Y-22445D01*
X46339Y-22398D01*
X46245Y-22305D01*
X46198Y-22117D01*
X46198Y-21789D01*
X46245Y-21601D01*
X46339Y-21508D01*
X46433Y-21461D01*
X47136Y-21461D02*
X47698Y-21461D01*
X47417Y-22445D02*
X47417Y-21461D01*
X48214Y-21461D02*
X48401Y-21461D01*
X48495Y-21508D01*
X48589Y-21601D01*
X48636Y-21789D01*
X48636Y-22117D01*
X48589Y-22305D01*
X48495Y-22398D01*
X48401Y-22445D01*
X48214Y-22445D01*
X48120Y-22398D01*
X48026Y-22305D01*
X47979Y-22117D01*
X47979Y-21789D01*
X48026Y-21601D01*
X48120Y-21508D01*
X48214Y-21461D01*
X48917Y-21461D02*
X49479Y-21461D01*
X49198Y-22445D02*
X49198Y-21461D01*
X49995Y-21976D02*
X49995Y-22445D01*
X49667Y-21461D02*
X49995Y-21976D01*
X50323Y-21461D01*
X50651Y-22445D02*
X50651Y-21461D01*
X51026Y-21461D01*
X51120Y-21508D01*
X51167Y-21555D01*
X51213Y-21648D01*
X51213Y-21789D01*
X51167Y-21883D01*
X51120Y-21930D01*
X51026Y-21976D01*
X50651Y-21976D01*
X51635Y-21930D02*
X51963Y-21930D01*
X52104Y-22445D02*
X51635Y-22445D01*
X51635Y-21461D01*
X52104Y-21461D01*
X53463Y-21461D02*
X53651Y-21461D01*
X53744Y-21508D01*
X53838Y-21601D01*
X53885Y-21789D01*
X53885Y-22117D01*
X53838Y-22305D01*
X53744Y-22398D01*
X53651Y-22445D01*
X53463Y-22445D01*
X53369Y-22398D01*
X53276Y-22305D01*
X53229Y-22117D01*
X53229Y-21789D01*
X53276Y-21601D01*
X53369Y-21508D01*
X53463Y-21461D01*
X54307Y-22445D02*
X54307Y-21461D01*
X54869Y-22445D01*
X54869Y-21461D01*
X55807Y-22445D02*
X55338Y-22445D01*
X55338Y-21461D01*
X56322Y-21976D02*
X56322Y-22445D01*
X55994Y-21461D02*
X56322Y-21976D01*
X56650Y-21461D01*
X38652Y-23941D02*
X38652Y-22957D01*
X39215Y-23941D01*
X39215Y-22957D01*
X39871Y-22957D02*
X40059Y-22957D01*
X40152Y-23004D01*
X40246Y-23098D01*
X40293Y-23285D01*
X40293Y-23613D01*
X40246Y-23801D01*
X40152Y-23894D01*
X40059Y-23941D01*
X39871Y-23941D01*
X39777Y-23894D01*
X39684Y-23801D01*
X39637Y-23613D01*
X39637Y-23285D01*
X39684Y-23098D01*
X39777Y-23004D01*
X39871Y-22957D01*
X40574Y-22957D02*
X41137Y-22957D01*
X40855Y-23941D02*
X40855Y-22957D01*
X42543Y-23426D02*
X42215Y-23426D01*
X42215Y-23941D02*
X42215Y-22957D01*
X42683Y-22957D01*
X43246Y-22957D02*
X43433Y-22957D01*
X43527Y-23004D01*
X43621Y-23098D01*
X43667Y-23285D01*
X43667Y-23613D01*
X43621Y-23801D01*
X43527Y-23894D01*
X43433Y-23941D01*
X43246Y-23941D01*
X43152Y-23894D01*
X43058Y-23801D01*
X43011Y-23613D01*
X43011Y-23285D01*
X43058Y-23098D01*
X43152Y-23004D01*
X43246Y-22957D01*
X44652Y-23941D02*
X44324Y-23473D01*
X44089Y-23941D02*
X44089Y-22957D01*
X44464Y-22957D01*
X44558Y-23004D01*
X44605Y-23051D01*
X44652Y-23144D01*
X44652Y-23285D01*
X44605Y-23379D01*
X44558Y-23426D01*
X44464Y-23473D01*
X44089Y-23473D01*
X46480Y-24035D02*
X46386Y-23988D01*
X46292Y-23894D01*
X46152Y-23754D01*
X46058Y-23707D01*
X45964Y-23707D01*
X46011Y-23941D02*
X45917Y-23894D01*
X45823Y-23801D01*
X45777Y-23613D01*
X45777Y-23285D01*
X45823Y-23098D01*
X45917Y-23004D01*
X46011Y-22957D01*
X46198Y-22957D01*
X46292Y-23004D01*
X46386Y-23098D01*
X46433Y-23285D01*
X46433Y-23613D01*
X46386Y-23801D01*
X46292Y-23894D01*
X46198Y-23941D01*
X46011Y-23941D01*
X46855Y-22957D02*
X46855Y-23754D01*
X46901Y-23847D01*
X46948Y-23894D01*
X47042Y-23941D01*
X47230Y-23941D01*
X47323Y-23894D01*
X47370Y-23847D01*
X47417Y-23754D01*
X47417Y-22957D01*
X47839Y-23660D02*
X48308Y-23660D01*
X47745Y-23941D02*
X48073Y-22957D01*
X48401Y-23941D01*
X48729Y-23941D02*
X48729Y-22957D01*
X49292Y-23941D01*
X49292Y-22957D01*
X49620Y-22957D02*
X50182Y-22957D01*
X49901Y-23941D02*
X49901Y-22957D01*
X50510Y-23941D02*
X50510Y-22957D01*
X50838Y-22957D02*
X51401Y-22957D01*
X51120Y-23941D02*
X51120Y-22957D01*
X51916Y-23473D02*
X51916Y-23941D01*
X51588Y-22957D02*
X51916Y-23473D01*
X52245Y-22957D01*
X53323Y-23941D02*
X53323Y-22957D01*
X53697Y-22957D01*
X53791Y-23004D01*
X53838Y-23051D01*
X53885Y-23144D01*
X53885Y-23285D01*
X53838Y-23379D01*
X53791Y-23426D01*
X53697Y-23473D01*
X53323Y-23473D01*
X54869Y-23941D02*
X54541Y-23473D01*
X54307Y-23941D02*
X54307Y-22957D01*
X54682Y-22957D01*
X54775Y-23004D01*
X54822Y-23051D01*
X54869Y-23144D01*
X54869Y-23285D01*
X54822Y-23379D01*
X54775Y-23426D01*
X54682Y-23473D01*
X54307Y-23473D01*
X55479Y-22957D02*
X55666Y-22957D01*
X55760Y-23004D01*
X55853Y-23098D01*
X55900Y-23285D01*
X55900Y-23613D01*
X55853Y-23801D01*
X55760Y-23894D01*
X55666Y-23941D01*
X55479Y-23941D01*
X55385Y-23894D01*
X55291Y-23801D01*
X55244Y-23613D01*
X55244Y-23285D01*
X55291Y-23098D01*
X55385Y-23004D01*
X55479Y-22957D01*
X56322Y-23941D02*
X56322Y-22957D01*
X56556Y-22957D01*
X56697Y-23004D01*
X56791Y-23098D01*
X56838Y-23191D01*
X56885Y-23379D01*
X56885Y-23519D01*
X56838Y-23707D01*
X56791Y-23801D01*
X56697Y-23894D01*
X56556Y-23941D01*
X56322Y-23941D01*
X57306Y-22957D02*
X57306Y-23754D01*
X57353Y-23847D01*
X57400Y-23894D01*
X57494Y-23941D01*
X57681Y-23941D01*
X57775Y-23894D01*
X57822Y-23847D01*
X57869Y-23754D01*
X57869Y-22957D01*
X58900Y-23847D02*
X58853Y-23894D01*
X58712Y-23941D01*
X58619Y-23941D01*
X58478Y-23894D01*
X58384Y-23801D01*
X58338Y-23707D01*
X58291Y-23519D01*
X58291Y-23379D01*
X58338Y-23191D01*
X58384Y-23098D01*
X58478Y-23004D01*
X58619Y-22957D01*
X58712Y-22957D01*
X58853Y-23004D01*
X58900Y-23051D01*
X59181Y-22957D02*
X59744Y-22957D01*
X59462Y-23941D02*
X59462Y-22957D01*
X60072Y-23941D02*
X60072Y-22957D01*
X60728Y-22957D02*
X60915Y-22957D01*
X61009Y-23004D01*
X61103Y-23098D01*
X61150Y-23285D01*
X61150Y-23613D01*
X61103Y-23801D01*
X61009Y-23894D01*
X60915Y-23941D01*
X60728Y-23941D01*
X60634Y-23894D01*
X60540Y-23801D01*
X60494Y-23613D01*
X60494Y-23285D01*
X60540Y-23098D01*
X60634Y-23004D01*
X60728Y-22957D01*
X61571Y-23941D02*
X61571Y-22957D01*
X62134Y-23941D01*
X62134Y-22957D01*
G54D11*
X48631Y-26143D02*
X48451Y-26143D01*
X48541Y-26143D02*
X48541Y-25749D01*
X48511Y-25806D01*
X48481Y-25843D01*
X48451Y-25862D01*
X48931Y-26143D02*
X48751Y-26143D01*
X48841Y-26143D02*
X48841Y-25749D01*
X48811Y-25806D01*
X48781Y-25843D01*
X48751Y-25862D01*
X49036Y-25749D02*
X49246Y-25749D01*
X49111Y-26143D01*
X49366Y-26106D02*
X49381Y-26124D01*
X49366Y-26143D01*
X49351Y-26124D01*
X49366Y-26106D01*
X49366Y-26143D01*
X49576Y-25749D02*
X49606Y-25749D01*
X49636Y-25768D01*
X49651Y-25787D01*
X49666Y-25824D01*
X49681Y-25899D01*
X49681Y-25993D01*
X49666Y-26068D01*
X49651Y-26106D01*
X49636Y-26124D01*
X49606Y-26143D01*
X49576Y-26143D01*
X49546Y-26124D01*
X49531Y-26106D01*
X49516Y-26068D01*
X49501Y-25993D01*
X49501Y-25899D01*
X49516Y-25824D01*
X49531Y-25787D01*
X49546Y-25768D01*
X49576Y-25749D01*
X50056Y-26143D02*
X50056Y-25881D01*
X50056Y-25918D02*
X50071Y-25899D01*
X50101Y-25881D01*
X50146Y-25881D01*
X50176Y-25899D01*
X50191Y-25937D01*
X50191Y-26143D01*
X50191Y-25937D02*
X50206Y-25899D01*
X50236Y-25881D01*
X50281Y-25881D01*
X50311Y-25899D01*
X50326Y-25937D01*
X50326Y-26143D01*
X50476Y-26143D02*
X50476Y-25881D01*
X50476Y-25918D02*
X50491Y-25899D01*
X50521Y-25881D01*
X50566Y-25881D01*
X50596Y-25899D01*
X50611Y-25937D01*
X50611Y-26143D01*
X50611Y-25937D02*
X50626Y-25899D01*
X50656Y-25881D01*
X50701Y-25881D01*
X50731Y-25899D01*
X50746Y-25937D01*
X50746Y-26143D01*
G54D13*
X29921Y-26771D02*
X75984Y-26771D01*
X29921Y-25984D02*
X29921Y-27559D01*
X75984Y-25984D02*
X75984Y-27559D01*
X29921Y-26771D02*
X30314Y-26377D01*
X29921Y-26771D02*
X30314Y-27165D01*
X75984Y-26771D02*
X75590Y-26377D01*
X75984Y-26771D02*
X75590Y-27165D01*
G54D11*
X79081Y-39923D02*
X78931Y-39923D01*
X78916Y-40110D01*
X78931Y-40091D01*
X78961Y-40073D01*
X79036Y-40073D01*
X79066Y-40091D01*
X79081Y-40110D01*
X79096Y-40148D01*
X79096Y-40241D01*
X79081Y-40279D01*
X79066Y-40298D01*
X79036Y-40316D01*
X78961Y-40316D01*
X78931Y-40298D01*
X78916Y-40279D01*
X79381Y-39923D02*
X79231Y-39923D01*
X79216Y-40110D01*
X79231Y-40091D01*
X79261Y-40073D01*
X79336Y-40073D01*
X79366Y-40091D01*
X79381Y-40110D01*
X79396Y-40148D01*
X79396Y-40241D01*
X79381Y-40279D01*
X79366Y-40298D01*
X79336Y-40316D01*
X79261Y-40316D01*
X79231Y-40298D01*
X79216Y-40279D01*
X79531Y-40279D02*
X79546Y-40298D01*
X79531Y-40316D01*
X79516Y-40298D01*
X79531Y-40279D01*
X79531Y-40316D01*
X79741Y-39923D02*
X79771Y-39923D01*
X79801Y-39941D01*
X79816Y-39960D01*
X79831Y-39998D01*
X79846Y-40073D01*
X79846Y-40166D01*
X79831Y-40241D01*
X79816Y-40279D01*
X79801Y-40298D01*
X79771Y-40316D01*
X79741Y-40316D01*
X79711Y-40298D01*
X79696Y-40279D01*
X79681Y-40241D01*
X79666Y-40166D01*
X79666Y-40073D01*
X79681Y-39998D01*
X79696Y-39960D01*
X79711Y-39941D01*
X79741Y-39923D01*
X80221Y-40316D02*
X80221Y-40054D01*
X80221Y-40091D02*
X80236Y-40073D01*
X80266Y-40054D01*
X80311Y-40054D01*
X80341Y-40073D01*
X80356Y-40110D01*
X80356Y-40316D01*
X80356Y-40110D02*
X80371Y-40073D01*
X80401Y-40054D01*
X80446Y-40054D01*
X80476Y-40073D01*
X80491Y-40110D01*
X80491Y-40316D01*
X80641Y-40316D02*
X80641Y-40054D01*
X80641Y-40091D02*
X80656Y-40073D01*
X80686Y-40054D01*
X80731Y-40054D01*
X80761Y-40073D01*
X80776Y-40110D01*
X80776Y-40316D01*
X80776Y-40110D02*
X80791Y-40073D01*
X80821Y-40054D01*
X80866Y-40054D01*
X80896Y-40073D01*
X80911Y-40110D01*
X80911Y-40316D01*
G54D13*
X77559Y-28543D02*
X77559Y-50196D01*
X76771Y-50196D02*
X78346Y-50196D01*
X76771Y-28543D02*
X78346Y-28543D01*
X77559Y-28543D02*
X77165Y-28937D01*
X77559Y-28543D02*
X77952Y-28937D01*
X77559Y-50196D02*
X77165Y-49803D01*
X77559Y-50196D02*
X77952Y-49803D01*
G54D14*
X72145Y-34547D02*
X73720Y-34547D01*
X73720Y-34547D02*
X73720Y-36122D01*
X73720Y-36122D02*
X72145Y-36122D01*
X72145Y-36122D02*
X72145Y-34547D01*
X43543Y-43730D02*
X42283Y-43730D01*
X42283Y-43730D02*
X42283Y-42746D01*
X42283Y-42746D02*
X43543Y-42746D01*
X43543Y-42746D02*
X43543Y-43730D01*
X38877Y-44685D02*
X39862Y-44685D01*
X39862Y-44685D02*
X39862Y-45472D01*
X39862Y-45472D02*
X38877Y-45472D01*
X38877Y-45472D02*
X38877Y-44685D01*
X52834Y-34094D02*
X53464Y-34094D01*
X53464Y-34094D02*
X53464Y-35590D01*
X53464Y-35590D02*
X52834Y-35590D01*
X52834Y-35590D02*
X52834Y-34094D01*
X52834Y-31338D02*
X53464Y-31338D01*
X53464Y-31338D02*
X53464Y-32834D01*
X53464Y-32834D02*
X52834Y-32834D01*
X52834Y-32834D02*
X52834Y-31338D01*
X49803Y-32480D02*
X51771Y-32480D01*
X51771Y-32480D02*
X51771Y-34448D01*
X51771Y-34448D02*
X49803Y-34448D01*
X49803Y-34448D02*
X49803Y-32480D01*
X65541Y-38533D02*
X65541Y-37844D01*
X65541Y-37844D02*
X66742Y-37844D01*
X66742Y-37844D02*
X66742Y-38533D01*
X66742Y-38533D02*
X65541Y-38533D01*
X49950Y-45088D02*
X49261Y-45088D01*
X49261Y-45088D02*
X49261Y-43887D01*
X49261Y-43887D02*
X49950Y-43887D01*
X49950Y-43887D02*
X49950Y-45088D01*
X53494Y-30521D02*
X52805Y-30521D01*
X52805Y-30521D02*
X52805Y-29320D01*
X52805Y-29320D02*
X53494Y-29320D01*
X53494Y-29320D02*
X53494Y-30521D01*
X57677Y-40748D02*
X57677Y-34055D01*
X57677Y-34055D02*
X64370Y-34055D01*
X64370Y-34055D02*
X64370Y-40748D01*
X64370Y-40748D02*
X57677Y-40748D01*
X71850Y-31299D02*
X73031Y-31299D01*
X73031Y-31299D02*
X73031Y-32480D01*
X73031Y-32480D02*
X71850Y-32480D01*
X71850Y-32480D02*
X71850Y-31299D01*
X38582Y-42618D02*
X40157Y-42618D01*
X40157Y-42618D02*
X40157Y-44192D01*
X40157Y-44192D02*
X38582Y-44192D01*
X38582Y-44192D02*
X38582Y-42618D01*
X43897Y-33464D02*
X43897Y-32283D01*
X43897Y-32283D02*
X45078Y-32283D01*
X45078Y-32283D02*
X45078Y-33464D01*
X45078Y-33464D02*
X43897Y-33464D01*
X29921Y-28543D02*
X29921Y-50196D01*
X29921Y-50196D02*
X73818Y-50196D01*
X73818Y-50196D02*
X73818Y-43897D01*
X73818Y-43897D02*
X68110Y-43897D01*
X68110Y-36811D02*
X68110Y-43897D01*
X75984Y-36811D02*
X75984Y-31102D01*
X75984Y-36811D02*
X68110Y-36811D01*
X29921Y-28543D02*
X73425Y-28543D01*
X75984Y-31102D02*
G75*
G03X73425Y-28543I-2559J0D01*
G74*
G01*
X70944Y-46653D02*
X69212Y-46653D01*
X69212Y-46653D02*
X69212Y-45472D01*
X69212Y-45472D02*
X70944Y-45472D01*
X70944Y-45472D02*
X70944Y-46653D01*
X52755Y-37647D02*
X53543Y-37647D01*
X53543Y-37647D02*
X53543Y-37155D01*
X53543Y-37155D02*
X52755Y-37155D01*
X52755Y-37155D02*
X52755Y-37647D01*
X32972Y-32834D02*
X32972Y-33622D01*
X32972Y-33622D02*
X32381Y-33622D01*
X32381Y-33622D02*
X32381Y-32834D01*
X32381Y-32834D02*
X32972Y-32834D01*
X33956Y-37295D02*
X33956Y-39476D01*
X33956Y-39476D02*
X31397Y-39476D01*
X31397Y-39476D02*
X31397Y-37295D01*
X31397Y-37295D02*
X33956Y-37295D01*
G54D15*
X29271Y-42066D02*
X26161Y-42066D01*
X26161Y-42066D02*
X26161Y-44547D01*
X26161Y-44547D02*
X29271Y-44547D01*
X31791Y-41832D02*
X31791Y-41431D01*
X31791Y-41431D02*
X29271Y-41431D01*
X29271Y-41431D02*
X29271Y-45183D01*
X29271Y-45183D02*
X31791Y-45183D01*
X31791Y-44781D02*
X31791Y-45183D01*
X29921Y-41832D02*
X31791Y-41832D01*
X29921Y-41832D02*
X29921Y-44781D01*
X29921Y-44781D02*
X31791Y-44781D01*
X29921Y-43157D02*
X31791Y-43157D01*
X29921Y-43456D02*
X31791Y-43456D01*
X31791Y-43157D02*
X31791Y-43456D01*
G54D14*
X69893Y-35053D02*
X69893Y-33253D01*
X69893Y-33253D02*
X71444Y-33253D01*
X71444Y-33253D02*
X71444Y-35053D01*
X71444Y-35053D02*
X69893Y-35053D01*
X52755Y-39222D02*
X53543Y-39222D01*
X53543Y-39222D02*
X53543Y-38730D01*
X53543Y-38730D02*
X52755Y-38730D01*
X52755Y-38730D02*
X52755Y-39222D01*
X47935Y-37286D02*
X49884Y-35337D01*
X47935Y-37286D02*
X49327Y-38678D01*
X51276Y-36729D02*
X49884Y-35337D01*
X49327Y-38678D02*
X51276Y-36729D01*
X47244Y-37854D02*
X35370Y-37854D01*
X35370Y-37854D02*
X35370Y-30255D01*
X35370Y-30255D02*
X47244Y-30255D01*
X47244Y-30255D02*
X47244Y-37854D01*
X47244Y-48287D02*
X35370Y-48287D01*
X35370Y-48287D02*
X35370Y-40688D01*
X35370Y-40688D02*
X47244Y-40688D01*
X47244Y-40688D02*
X47244Y-48287D01*
X31850Y-36417D02*
X32637Y-36417D01*
X32637Y-36417D02*
X32637Y-37007D01*
X32637Y-37007D02*
X31850Y-37007D01*
X31850Y-37007D02*
X31850Y-36417D01*
M02*
