G04 (created by PCBNEW (2013-mar-25)-stable) date Tuesday, March 01, 2016 03:52:00 PM*
%MOIN*%
G04 Gerber Fmt 3.4, Leading zero omitted, Abs format*
%FSLAX34Y34*%
G01*
G70*
G90*
G04 APERTURE LIST*
%ADD10C,0.006*%
%ADD11C,0.0708661*%
%ADD12C,0.128937*%
%ADD13R,0.0688976X0.0688976*%
%ADD14C,0.0688976*%
%ADD15R,0.0275591X0.019685*%
%ADD16R,0.019685X0.0275591*%
%ADD17C,0.11811*%
%ADD18R,0.161417X0.0826772*%
%ADD19O,0.122047X0.0728346*%
%ADD20C,0.0826772*%
G04 APERTURE END LIST*
G54D10*
G54D11*
X68305Y-48370D03*
X68305Y-49370D03*
X67305Y-48370D03*
X67305Y-49370D03*
X66305Y-48370D03*
X66305Y-49370D03*
X65305Y-48370D03*
X65305Y-49370D03*
X64305Y-48370D03*
X64305Y-49370D03*
X63305Y-48370D03*
X63305Y-49370D03*
X62305Y-48370D03*
X62305Y-49370D03*
X61305Y-48370D03*
X61305Y-49370D03*
X60305Y-48370D03*
X60305Y-49370D03*
X59305Y-48370D03*
X59305Y-49370D03*
X58305Y-48370D03*
X58305Y-49370D03*
X57305Y-48370D03*
X57305Y-49370D03*
X56305Y-48370D03*
X56305Y-49370D03*
X68305Y-29370D03*
X68305Y-30370D03*
X67305Y-29370D03*
X67305Y-30370D03*
X66305Y-29370D03*
X66305Y-30370D03*
X65305Y-29370D03*
X65305Y-30370D03*
X64305Y-29370D03*
X64305Y-30370D03*
X63305Y-29370D03*
X63305Y-30370D03*
X62305Y-29370D03*
X62305Y-30370D03*
X61305Y-29370D03*
X61305Y-30370D03*
X60305Y-29370D03*
X60305Y-30370D03*
X59305Y-29370D03*
X59305Y-30370D03*
X58305Y-29370D03*
X58305Y-30370D03*
X57305Y-29370D03*
X57305Y-30370D03*
X56305Y-29370D03*
X56305Y-30370D03*
G54D12*
X70305Y-29870D03*
X70305Y-48870D03*
X32677Y-29870D03*
X32677Y-48870D03*
G54D13*
X32677Y-37885D03*
G54D14*
X32677Y-38885D03*
G54D15*
X61023Y-38956D03*
X61023Y-38602D03*
X60925Y-33444D03*
X60925Y-33090D03*
X59842Y-41358D03*
X59842Y-41712D03*
X64960Y-35019D03*
X64960Y-34665D03*
G54D16*
X57066Y-36614D03*
X56712Y-36614D03*
X57066Y-34251D03*
X56712Y-34251D03*
G54D15*
X64074Y-41358D03*
X64074Y-41712D03*
G54D16*
X57066Y-37401D03*
X56712Y-37401D03*
X57066Y-39173D03*
X56712Y-39173D03*
G54D15*
X64173Y-33444D03*
X64173Y-33090D03*
X64960Y-36240D03*
X64960Y-36594D03*
G54D16*
X65570Y-37893D03*
X65925Y-37893D03*
X63759Y-40551D03*
X63405Y-40551D03*
X58681Y-37401D03*
X59035Y-37401D03*
X58248Y-37401D03*
X57893Y-37401D03*
G54D15*
X64173Y-39350D03*
X64173Y-38996D03*
G54D16*
X62618Y-34251D03*
X62972Y-34251D03*
G54D15*
X61023Y-39389D03*
X61023Y-39744D03*
X61023Y-40177D03*
X61023Y-40531D03*
X57874Y-35846D03*
X57874Y-36200D03*
G54D16*
X59429Y-40551D03*
X59074Y-40551D03*
G54D15*
X61023Y-35059D03*
X61023Y-35413D03*
G54D16*
X58287Y-34251D03*
X58641Y-34251D03*
G54D15*
X61023Y-37814D03*
X61023Y-38169D03*
G54D16*
X59822Y-37401D03*
X59468Y-37401D03*
G54D15*
X61023Y-36200D03*
X61023Y-35846D03*
X64173Y-35413D03*
X64173Y-35059D03*
X61023Y-36988D03*
X61023Y-36633D03*
G54D16*
X61437Y-37401D03*
X61791Y-37401D03*
X63011Y-37401D03*
X63366Y-37401D03*
G54D15*
X61023Y-34625D03*
X61023Y-34271D03*
G54D16*
X60610Y-37401D03*
X60255Y-37401D03*
G54D15*
X57874Y-39783D03*
X57874Y-40137D03*
G54D16*
X62224Y-37401D03*
X62578Y-37401D03*
X63799Y-37401D03*
X64153Y-37401D03*
G54D17*
X31102Y-49015D03*
X74606Y-29921D03*
G54D18*
X30905Y-44291D03*
X30905Y-42322D03*
X30905Y-34645D03*
X30905Y-32677D03*
G54D19*
X71850Y-45275D03*
X71850Y-46456D03*
X71850Y-48503D03*
G54D20*
X74409Y-46653D03*
M02*
