G04 (created by PCBNEW (2013-mar-25)-stable) date Wednesday, January 13, 2016 08:40:04 PM*
%MOIN*%
G04 Gerber Fmt 3.4, Leading zero omitted, Abs format*
%FSLAX34Y34*%
G01*
G70*
G90*
G04 APERTURE LIST*
%ADD10C,0.005*%
%ADD11C,0.00787402*%
%ADD12C,0.011811*%
G04 APERTURE END LIST*
G54D10*
G54D11*
X30830Y-31631D02*
X30948Y-31750D01*
X30948Y-31631D02*
X30830Y-31750D01*
X30830Y-31927D02*
X30948Y-32045D01*
X30948Y-31927D02*
X30830Y-32045D01*
X30830Y-32222D02*
X30948Y-32340D01*
X30948Y-32222D02*
X30830Y-32340D01*
X30830Y-34982D02*
X30948Y-35100D01*
X30948Y-34982D02*
X30830Y-35100D01*
X30830Y-35277D02*
X30948Y-35395D01*
X30948Y-35277D02*
X30830Y-35395D01*
X30830Y-35572D02*
X30948Y-35690D01*
X30948Y-35572D02*
X30830Y-35690D01*
X30830Y-41277D02*
X30948Y-41395D01*
X30948Y-41277D02*
X30830Y-41395D01*
X30830Y-41572D02*
X30948Y-41690D01*
X30948Y-41572D02*
X30830Y-41690D01*
X30830Y-41868D02*
X30948Y-41986D01*
X30948Y-41868D02*
X30830Y-41986D01*
X30830Y-44627D02*
X30948Y-44746D01*
X30948Y-44627D02*
X30830Y-44746D01*
X30830Y-44923D02*
X30948Y-45041D01*
X30948Y-44923D02*
X30830Y-45041D01*
X30830Y-45218D02*
X30948Y-45336D01*
X30948Y-45218D02*
X30830Y-45336D01*
X31125Y-31631D02*
X31244Y-31750D01*
X31244Y-31631D02*
X31125Y-31750D01*
X31125Y-31927D02*
X31244Y-32045D01*
X31244Y-31927D02*
X31125Y-32045D01*
X31125Y-32222D02*
X31244Y-32340D01*
X31244Y-32222D02*
X31125Y-32340D01*
X31125Y-34982D02*
X31244Y-35100D01*
X31244Y-34982D02*
X31125Y-35100D01*
X31125Y-35277D02*
X31244Y-35395D01*
X31244Y-35277D02*
X31125Y-35395D01*
X31125Y-35572D02*
X31244Y-35690D01*
X31244Y-35572D02*
X31125Y-35690D01*
X31125Y-41277D02*
X31244Y-41395D01*
X31244Y-41277D02*
X31125Y-41395D01*
X31125Y-41572D02*
X31244Y-41690D01*
X31244Y-41572D02*
X31125Y-41690D01*
X31125Y-41868D02*
X31244Y-41986D01*
X31244Y-41868D02*
X31125Y-41986D01*
X31125Y-44627D02*
X31244Y-44746D01*
X31244Y-44627D02*
X31125Y-44746D01*
X31125Y-44923D02*
X31244Y-45041D01*
X31244Y-44923D02*
X31125Y-45041D01*
X31125Y-45218D02*
X31244Y-45336D01*
X31244Y-45218D02*
X31125Y-45336D01*
X31421Y-31631D02*
X31539Y-31750D01*
X31539Y-31631D02*
X31421Y-31750D01*
X31421Y-31927D02*
X31539Y-32045D01*
X31539Y-31927D02*
X31421Y-32045D01*
X31421Y-32222D02*
X31539Y-32340D01*
X31539Y-32222D02*
X31421Y-32340D01*
X31421Y-34982D02*
X31539Y-35100D01*
X31539Y-34982D02*
X31421Y-35100D01*
X31421Y-35277D02*
X31539Y-35395D01*
X31539Y-35277D02*
X31421Y-35395D01*
X31421Y-35572D02*
X31539Y-35690D01*
X31539Y-35572D02*
X31421Y-35690D01*
X31421Y-41277D02*
X31539Y-41395D01*
X31539Y-41277D02*
X31421Y-41395D01*
X31421Y-41572D02*
X31539Y-41690D01*
X31539Y-41572D02*
X31421Y-41690D01*
X31421Y-41868D02*
X31539Y-41986D01*
X31539Y-41868D02*
X31421Y-41986D01*
X31421Y-44627D02*
X31539Y-44746D01*
X31539Y-44627D02*
X31421Y-44746D01*
X31421Y-44923D02*
X31539Y-45041D01*
X31539Y-44923D02*
X31421Y-45041D01*
X31421Y-45218D02*
X31539Y-45336D01*
X31539Y-45218D02*
X31421Y-45336D01*
X38129Y-43838D02*
X38248Y-43956D01*
X38248Y-43838D02*
X38129Y-43956D01*
X38818Y-42263D02*
X38937Y-42381D01*
X38937Y-42263D02*
X38818Y-42381D01*
X39015Y-44429D02*
X39133Y-44547D01*
X39133Y-44429D02*
X39015Y-44547D01*
X39114Y-43149D02*
X39232Y-43267D01*
X39232Y-43149D02*
X39114Y-43267D01*
X39114Y-43543D02*
X39232Y-43661D01*
X39232Y-43543D02*
X39114Y-43661D01*
X39212Y-42263D02*
X39330Y-42381D01*
X39330Y-42263D02*
X39212Y-42381D01*
X39409Y-44429D02*
X39527Y-44547D01*
X39527Y-44429D02*
X39409Y-44547D01*
X39507Y-43149D02*
X39625Y-43267D01*
X39625Y-43149D02*
X39507Y-43267D01*
X39507Y-43543D02*
X39625Y-43661D01*
X39625Y-43543D02*
X39507Y-43661D01*
X40492Y-42854D02*
X40610Y-42972D01*
X40610Y-42854D02*
X40492Y-42972D01*
X41082Y-41574D02*
X41200Y-41692D01*
X41200Y-41574D02*
X41082Y-41692D01*
X41082Y-41968D02*
X41200Y-42086D01*
X41200Y-41968D02*
X41082Y-42086D01*
X41082Y-42362D02*
X41200Y-42480D01*
X41200Y-42362D02*
X41082Y-42480D01*
X44429Y-32667D02*
X44547Y-32785D01*
X44547Y-32667D02*
X44429Y-32785D01*
X44429Y-32962D02*
X44547Y-33080D01*
X44547Y-32962D02*
X44429Y-33080D01*
X44724Y-43838D02*
X44842Y-43956D01*
X44842Y-43838D02*
X44724Y-43956D01*
X47972Y-44822D02*
X48090Y-44940D01*
X48090Y-44822D02*
X47972Y-44940D01*
X50137Y-31633D02*
X50255Y-31751D01*
X50255Y-31633D02*
X50137Y-31751D01*
X50334Y-33011D02*
X50452Y-33129D01*
X50452Y-33011D02*
X50334Y-33129D01*
X50334Y-33405D02*
X50452Y-33523D01*
X50452Y-33405D02*
X50334Y-33523D01*
X50334Y-33799D02*
X50452Y-33917D01*
X50452Y-33799D02*
X50334Y-33917D01*
X50728Y-33011D02*
X50846Y-33129D01*
X50846Y-33011D02*
X50728Y-33129D01*
X50728Y-33405D02*
X50846Y-33523D01*
X50846Y-33405D02*
X50728Y-33523D01*
X50728Y-33799D02*
X50846Y-33917D01*
X50846Y-33799D02*
X50728Y-33917D01*
X51122Y-33011D02*
X51240Y-33129D01*
X51240Y-33011D02*
X51122Y-33129D01*
X51122Y-33405D02*
X51240Y-33523D01*
X51240Y-33405D02*
X51122Y-33523D01*
X51122Y-33799D02*
X51240Y-33917D01*
X51240Y-33799D02*
X51122Y-33917D01*
X51122Y-45511D02*
X51240Y-45629D01*
X51240Y-45511D02*
X51122Y-45629D01*
X51614Y-31240D02*
X51732Y-31358D01*
X51732Y-31240D02*
X51614Y-31358D01*
X53877Y-43248D02*
X53996Y-43366D01*
X53996Y-43248D02*
X53877Y-43366D01*
X53976Y-29271D02*
X54094Y-29389D01*
X54094Y-29271D02*
X53976Y-29389D01*
X54468Y-42657D02*
X54586Y-42775D01*
X54586Y-42657D02*
X54468Y-42775D01*
X54665Y-30944D02*
X54783Y-31062D01*
X54783Y-30944D02*
X54665Y-31062D01*
X55059Y-42066D02*
X55177Y-42185D01*
X55177Y-42066D02*
X55059Y-42185D01*
X55944Y-32027D02*
X56062Y-32145D01*
X56062Y-32027D02*
X55944Y-32145D01*
X57322Y-34192D02*
X57440Y-34311D01*
X57440Y-34192D02*
X57322Y-34311D01*
X57322Y-37342D02*
X57440Y-37460D01*
X57440Y-37342D02*
X57322Y-37460D01*
X57322Y-39114D02*
X57440Y-39232D01*
X57440Y-39114D02*
X57322Y-39232D01*
X57814Y-34192D02*
X57933Y-34311D01*
X57933Y-34192D02*
X57814Y-34311D01*
X57814Y-36555D02*
X57933Y-36673D01*
X57933Y-36555D02*
X57814Y-36673D01*
X57814Y-38523D02*
X57933Y-38641D01*
X57933Y-38523D02*
X57814Y-38641D01*
X57814Y-40492D02*
X57933Y-40610D01*
X57933Y-40492D02*
X57814Y-40610D01*
X58208Y-36161D02*
X58326Y-36279D01*
X58326Y-36161D02*
X58208Y-36279D01*
X58208Y-37736D02*
X58326Y-37854D01*
X58326Y-37736D02*
X58208Y-37854D01*
X58602Y-34586D02*
X58720Y-34704D01*
X58720Y-34586D02*
X58602Y-34704D01*
X58602Y-35767D02*
X58720Y-35885D01*
X58720Y-35767D02*
X58602Y-35885D01*
X58602Y-36948D02*
X58720Y-37066D01*
X58720Y-36948D02*
X58602Y-37066D01*
X58602Y-39704D02*
X58720Y-39822D01*
X58720Y-39704D02*
X58602Y-39822D01*
X58996Y-35374D02*
X59114Y-35492D01*
X59114Y-35374D02*
X58996Y-35492D01*
X58996Y-35767D02*
X59114Y-35885D01*
X59114Y-35767D02*
X58996Y-35885D01*
X58996Y-37736D02*
X59114Y-37854D01*
X59114Y-37736D02*
X58996Y-37854D01*
X58996Y-38523D02*
X59114Y-38641D01*
X59114Y-38523D02*
X58996Y-38641D01*
X58996Y-40098D02*
X59114Y-40216D01*
X59114Y-40098D02*
X58996Y-40216D01*
X59192Y-32027D02*
X59311Y-32145D01*
X59311Y-32027D02*
X59192Y-32145D01*
X59389Y-36555D02*
X59507Y-36673D01*
X59507Y-36555D02*
X59389Y-36673D01*
X59389Y-36948D02*
X59507Y-37066D01*
X59507Y-36948D02*
X59389Y-37066D01*
X59389Y-37736D02*
X59507Y-37854D01*
X59507Y-37736D02*
X59389Y-37854D01*
X59389Y-38129D02*
X59507Y-38248D01*
X59507Y-38129D02*
X59389Y-38248D01*
X59783Y-34980D02*
X59901Y-35098D01*
X59901Y-34980D02*
X59783Y-35098D01*
X59783Y-36161D02*
X59901Y-36279D01*
X59901Y-36161D02*
X59783Y-36279D01*
X59783Y-36555D02*
X59901Y-36673D01*
X59901Y-36555D02*
X59783Y-36673D01*
X59783Y-36948D02*
X59901Y-37066D01*
X59901Y-36948D02*
X59783Y-37066D01*
X59783Y-38129D02*
X59901Y-38248D01*
X59901Y-38129D02*
X59783Y-38248D01*
X59783Y-39311D02*
X59901Y-39429D01*
X59901Y-39311D02*
X59783Y-39429D01*
X59783Y-40492D02*
X59901Y-40610D01*
X59901Y-40492D02*
X59783Y-40610D01*
X59783Y-40984D02*
X59901Y-41102D01*
X59901Y-40984D02*
X59783Y-41102D01*
X60177Y-34192D02*
X60295Y-34311D01*
X60295Y-34192D02*
X60177Y-34311D01*
X60177Y-35767D02*
X60295Y-35885D01*
X60295Y-35767D02*
X60177Y-35885D01*
X60177Y-36948D02*
X60295Y-37066D01*
X60295Y-36948D02*
X60177Y-37066D01*
X60177Y-37736D02*
X60295Y-37854D01*
X60295Y-37736D02*
X60177Y-37854D01*
X60177Y-38129D02*
X60295Y-38248D01*
X60295Y-38129D02*
X60177Y-38248D01*
X60177Y-38523D02*
X60295Y-38641D01*
X60295Y-38523D02*
X60177Y-38641D01*
X60570Y-33700D02*
X60688Y-33818D01*
X60688Y-33700D02*
X60570Y-33818D01*
X60570Y-34586D02*
X60688Y-34704D01*
X60688Y-34586D02*
X60570Y-34704D01*
X60570Y-35767D02*
X60688Y-35885D01*
X60688Y-35767D02*
X60570Y-35885D01*
X60570Y-36555D02*
X60688Y-36673D01*
X60688Y-36555D02*
X60570Y-36673D01*
X60570Y-36948D02*
X60688Y-37066D01*
X60688Y-36948D02*
X60570Y-37066D01*
X60570Y-37736D02*
X60688Y-37854D01*
X60688Y-37736D02*
X60570Y-37854D01*
X60570Y-38129D02*
X60688Y-38248D01*
X60688Y-38129D02*
X60570Y-38248D01*
X60570Y-38523D02*
X60688Y-38641D01*
X60688Y-38523D02*
X60570Y-38641D01*
X60570Y-39704D02*
X60688Y-39822D01*
X60688Y-39704D02*
X60570Y-39822D01*
X60570Y-40492D02*
X60688Y-40610D01*
X60688Y-40492D02*
X60570Y-40610D01*
X60669Y-45905D02*
X60787Y-46023D01*
X60787Y-45905D02*
X60669Y-46023D01*
X61358Y-34980D02*
X61476Y-35098D01*
X61476Y-34980D02*
X61358Y-35098D01*
X61358Y-35374D02*
X61476Y-35492D01*
X61476Y-35374D02*
X61358Y-35492D01*
X61358Y-35767D02*
X61476Y-35885D01*
X61476Y-35767D02*
X61358Y-35885D01*
X61358Y-36161D02*
X61476Y-36279D01*
X61476Y-36161D02*
X61358Y-36279D01*
X61358Y-36555D02*
X61476Y-36673D01*
X61476Y-36555D02*
X61358Y-36673D01*
X61358Y-36948D02*
X61476Y-37066D01*
X61476Y-36948D02*
X61358Y-37066D01*
X61358Y-38129D02*
X61476Y-38248D01*
X61476Y-38129D02*
X61358Y-38248D01*
X61358Y-38917D02*
X61476Y-39035D01*
X61476Y-38917D02*
X61358Y-39035D01*
X61358Y-39704D02*
X61476Y-39822D01*
X61476Y-39704D02*
X61358Y-39822D01*
X61751Y-36555D02*
X61870Y-36673D01*
X61870Y-36555D02*
X61751Y-36673D01*
X61751Y-36948D02*
X61870Y-37066D01*
X61870Y-36948D02*
X61751Y-37066D01*
X61751Y-37736D02*
X61870Y-37854D01*
X61870Y-37736D02*
X61751Y-37854D01*
X61751Y-38129D02*
X61870Y-38248D01*
X61870Y-38129D02*
X61751Y-38248D01*
X61751Y-38523D02*
X61870Y-38641D01*
X61870Y-38523D02*
X61751Y-38641D01*
X61751Y-40492D02*
X61870Y-40610D01*
X61870Y-40492D02*
X61751Y-40610D01*
X62145Y-34192D02*
X62263Y-34311D01*
X62263Y-34192D02*
X62145Y-34311D01*
X62145Y-34980D02*
X62263Y-35098D01*
X62263Y-34980D02*
X62145Y-35098D01*
X62145Y-35374D02*
X62263Y-35492D01*
X62263Y-35374D02*
X62145Y-35492D01*
X62145Y-36161D02*
X62263Y-36279D01*
X62263Y-36161D02*
X62145Y-36279D01*
X62145Y-36555D02*
X62263Y-36673D01*
X62263Y-36555D02*
X62145Y-36673D01*
X62145Y-37736D02*
X62263Y-37854D01*
X62263Y-37736D02*
X62145Y-37854D01*
X62145Y-38523D02*
X62263Y-38641D01*
X62263Y-38523D02*
X62145Y-38641D01*
X62539Y-35374D02*
X62657Y-35492D01*
X62657Y-35374D02*
X62539Y-35492D01*
X62539Y-36161D02*
X62657Y-36279D01*
X62657Y-36161D02*
X62539Y-36279D01*
X62539Y-36555D02*
X62657Y-36673D01*
X62657Y-36555D02*
X62539Y-36673D01*
X62539Y-36948D02*
X62657Y-37066D01*
X62657Y-36948D02*
X62539Y-37066D01*
X62539Y-37736D02*
X62657Y-37854D01*
X62657Y-37736D02*
X62539Y-37854D01*
X62539Y-39704D02*
X62657Y-39822D01*
X62657Y-39704D02*
X62539Y-39822D01*
X62933Y-34586D02*
X63051Y-34704D01*
X63051Y-34586D02*
X62933Y-34704D01*
X62933Y-36555D02*
X63051Y-36673D01*
X63051Y-36555D02*
X62933Y-36673D01*
X62933Y-38917D02*
X63051Y-39035D01*
X63051Y-38917D02*
X62933Y-39035D01*
X63326Y-35767D02*
X63444Y-35885D01*
X63444Y-35767D02*
X63326Y-35885D01*
X63326Y-38129D02*
X63444Y-38248D01*
X63444Y-38129D02*
X63326Y-38248D01*
X63326Y-38917D02*
X63444Y-39035D01*
X63444Y-38917D02*
X63326Y-39035D01*
X63326Y-40098D02*
X63444Y-40216D01*
X63444Y-40098D02*
X63326Y-40216D01*
X63720Y-35374D02*
X63838Y-35492D01*
X63838Y-35374D02*
X63720Y-35492D01*
X63720Y-36948D02*
X63838Y-37066D01*
X63838Y-36948D02*
X63720Y-37066D01*
X63720Y-39311D02*
X63838Y-39429D01*
X63838Y-39311D02*
X63720Y-39429D01*
X64015Y-40984D02*
X64133Y-41102D01*
X64133Y-40984D02*
X64015Y-41102D01*
X64114Y-33700D02*
X64232Y-33818D01*
X64232Y-33700D02*
X64114Y-33818D01*
X64114Y-34586D02*
X64232Y-34704D01*
X64232Y-34586D02*
X64114Y-34704D01*
X64114Y-36161D02*
X64232Y-36279D01*
X64232Y-36161D02*
X64114Y-36279D01*
X64114Y-38129D02*
X64232Y-38248D01*
X64232Y-38129D02*
X64114Y-38248D01*
X64114Y-38523D02*
X64232Y-38641D01*
X64232Y-38523D02*
X64114Y-38641D01*
X64114Y-40492D02*
X64232Y-40610D01*
X64232Y-40492D02*
X64114Y-40610D01*
X64803Y-44429D02*
X64921Y-44547D01*
X64921Y-44429D02*
X64803Y-44547D01*
X64901Y-35275D02*
X65019Y-35393D01*
X65019Y-35275D02*
X64901Y-35393D01*
X64901Y-35866D02*
X65019Y-35984D01*
X65019Y-35866D02*
X64901Y-35984D01*
X65984Y-43248D02*
X66102Y-43366D01*
X66102Y-43248D02*
X65984Y-43366D01*
X66870Y-38622D02*
X66988Y-38740D01*
X66988Y-38622D02*
X66870Y-38740D01*
X66968Y-46003D02*
X67086Y-46122D01*
X67086Y-46003D02*
X66968Y-46122D01*
X67362Y-44330D02*
X67480Y-44448D01*
X67480Y-44330D02*
X67362Y-44448D01*
X67362Y-45708D02*
X67480Y-45826D01*
X67480Y-45708D02*
X67362Y-45826D01*
X67755Y-45413D02*
X67874Y-45531D01*
X67874Y-45413D02*
X67755Y-45531D01*
X68641Y-46496D02*
X68759Y-46614D01*
X68759Y-46496D02*
X68641Y-46614D01*
X70019Y-31437D02*
X70137Y-31555D01*
X70137Y-31437D02*
X70019Y-31555D01*
X71397Y-45708D02*
X71515Y-45826D01*
X71515Y-45708D02*
X71397Y-45826D01*
X72145Y-31830D02*
X72263Y-31948D01*
X72263Y-31830D02*
X72145Y-31948D01*
X72381Y-31830D02*
X72500Y-31948D01*
X72500Y-31830D02*
X72381Y-31948D01*
X72480Y-29960D02*
X72598Y-30078D01*
X72598Y-29960D02*
X72480Y-30078D01*
X72618Y-31830D02*
X72736Y-31948D01*
X72736Y-31830D02*
X72618Y-31948D01*
X72677Y-46299D02*
X72795Y-46417D01*
X72795Y-46299D02*
X72677Y-46417D01*
X31574Y-47244D02*
G75*
G03X31574Y-47244I-78J0D01*
G74*
G01*
X32755Y-42913D02*
G75*
G03X32755Y-42913I-78J0D01*
G74*
G01*
X32755Y-43700D02*
G75*
G03X32755Y-43700I-78J0D01*
G74*
G01*
X33543Y-42913D02*
G75*
G03X33543Y-42913I-78J0D01*
G74*
G01*
X33543Y-43700D02*
G75*
G03X33543Y-43700I-78J0D01*
G74*
G01*
X33543Y-47244D02*
G75*
G03X33543Y-47244I-78J0D01*
G74*
G01*
X34330Y-42913D02*
G75*
G03X34330Y-42913I-78J0D01*
G74*
G01*
X34330Y-43700D02*
G75*
G03X34330Y-43700I-78J0D01*
G74*
G01*
X34527Y-29527D02*
G75*
G03X34527Y-29527I-78J0D01*
G74*
G01*
X34527Y-49212D02*
G75*
G03X34527Y-49212I-78J0D01*
G74*
G01*
X35118Y-42913D02*
G75*
G03X35118Y-42913I-78J0D01*
G74*
G01*
X35118Y-43700D02*
G75*
G03X35118Y-43700I-78J0D01*
G74*
G01*
X35610Y-32874D02*
G75*
G03X35610Y-32874I-78J0D01*
G74*
G01*
X36200Y-42913D02*
G75*
G03X36200Y-42913I-78J0D01*
G74*
G01*
X36200Y-43700D02*
G75*
G03X36200Y-43700I-78J0D01*
G74*
G01*
X36496Y-29527D02*
G75*
G03X36496Y-29527I-78J0D01*
G74*
G01*
X36496Y-29527D02*
G75*
G03X36496Y-29527I-78J0D01*
G74*
G01*
X36496Y-49212D02*
G75*
G03X36496Y-49212I-78J0D01*
G74*
G01*
X36988Y-42913D02*
G75*
G03X36988Y-42913I-78J0D01*
G74*
G01*
X36988Y-43700D02*
G75*
G03X36988Y-43700I-78J0D01*
G74*
G01*
X37874Y-30413D02*
G75*
G03X37874Y-30413I-78J0D01*
G74*
G01*
X37874Y-37696D02*
G75*
G03X37874Y-37696I-78J0D01*
G74*
G01*
X38464Y-29527D02*
G75*
G03X38464Y-29527I-78J0D01*
G74*
G01*
X38464Y-49212D02*
G75*
G03X38464Y-49212I-78J0D01*
G74*
G01*
X40236Y-30413D02*
G75*
G03X40236Y-30413I-78J0D01*
G74*
G01*
X40236Y-37696D02*
G75*
G03X40236Y-37696I-78J0D01*
G74*
G01*
X40433Y-29527D02*
G75*
G03X40433Y-29527I-78J0D01*
G74*
G01*
X40433Y-49212D02*
G75*
G03X40433Y-49212I-78J0D01*
G74*
G01*
X40629Y-43897D02*
G75*
G03X40629Y-43897I-78J0D01*
G74*
G01*
X42401Y-29527D02*
G75*
G03X42401Y-29527I-78J0D01*
G74*
G01*
X42401Y-49212D02*
G75*
G03X42401Y-49212I-78J0D01*
G74*
G01*
X42598Y-30413D02*
G75*
G03X42598Y-30413I-78J0D01*
G74*
G01*
X42598Y-37696D02*
G75*
G03X42598Y-37696I-78J0D01*
G74*
G01*
X44173Y-34153D02*
G75*
G03X44173Y-34153I-78J0D01*
G74*
G01*
X44370Y-29527D02*
G75*
G03X44370Y-29527I-78J0D01*
G74*
G01*
X44370Y-49212D02*
G75*
G03X44370Y-49212I-78J0D01*
G74*
G01*
X44665Y-31397D02*
G75*
G03X44665Y-31397I-78J0D01*
G74*
G01*
X44960Y-30413D02*
G75*
G03X44960Y-30413I-78J0D01*
G74*
G01*
X44960Y-34153D02*
G75*
G03X44960Y-34153I-78J0D01*
G74*
G01*
X44960Y-37696D02*
G75*
G03X44960Y-37696I-78J0D01*
G74*
G01*
X45354Y-34153D02*
G75*
G03X45354Y-34153I-78J0D01*
G74*
G01*
X46338Y-29527D02*
G75*
G03X46338Y-29527I-78J0D01*
G74*
G01*
X46338Y-46653D02*
G75*
G03X46338Y-46653I-78J0D01*
G74*
G01*
X46338Y-49212D02*
G75*
G03X46338Y-49212I-78J0D01*
G74*
G01*
X47125Y-35236D02*
G75*
G03X47125Y-35236I-78J0D01*
G74*
G01*
X47913Y-31299D02*
G75*
G03X47913Y-31299I-78J0D01*
G74*
G01*
X47913Y-35925D02*
G75*
G03X47913Y-35925I-78J0D01*
G74*
G01*
X47913Y-36318D02*
G75*
G03X47913Y-36318I-78J0D01*
G74*
G01*
X48307Y-29527D02*
G75*
G03X48307Y-29527I-78J0D01*
G74*
G01*
X48307Y-49212D02*
G75*
G03X48307Y-49212I-78J0D01*
G74*
G01*
X48700Y-35925D02*
G75*
G03X48700Y-35925I-78J0D01*
G74*
G01*
X48700Y-36318D02*
G75*
G03X48700Y-36318I-78J0D01*
G74*
G01*
X48897Y-31299D02*
G75*
G03X48897Y-31299I-78J0D01*
G74*
G01*
X48897Y-34153D02*
G75*
G03X48897Y-34153I-78J0D01*
G74*
G01*
X49488Y-32381D02*
G75*
G03X49488Y-32381I-78J0D01*
G74*
G01*
X49685Y-34448D02*
G75*
G03X49685Y-34448I-78J0D01*
G74*
G01*
X49685Y-44094D02*
G75*
G03X49685Y-44094I-78J0D01*
G74*
G01*
X49685Y-44488D02*
G75*
G03X49685Y-44488I-78J0D01*
G74*
G01*
X49685Y-44881D02*
G75*
G03X49685Y-44881I-78J0D01*
G74*
G01*
X50275Y-29527D02*
G75*
G03X50275Y-29527I-78J0D01*
G74*
G01*
X50275Y-49212D02*
G75*
G03X50275Y-49212I-78J0D01*
G74*
G01*
X50866Y-44094D02*
G75*
G03X50866Y-44094I-78J0D01*
G74*
G01*
X50866Y-45275D02*
G75*
G03X50866Y-45275I-78J0D01*
G74*
G01*
X51456Y-36417D02*
G75*
G03X51456Y-36417I-78J0D01*
G74*
G01*
X51456Y-37401D02*
G75*
G03X51456Y-37401I-78J0D01*
G74*
G01*
X51653Y-30314D02*
G75*
G03X51653Y-30314I-78J0D01*
G74*
G01*
X51653Y-45275D02*
G75*
G03X51653Y-45275I-78J0D01*
G74*
G01*
X52145Y-37007D02*
G75*
G03X52145Y-37007I-78J0D01*
G74*
G01*
X52145Y-38582D02*
G75*
G03X52145Y-38582I-78J0D01*
G74*
G01*
X52244Y-49212D02*
G75*
G03X52244Y-49212I-78J0D01*
G74*
G01*
X52539Y-37696D02*
G75*
G03X52539Y-37696I-78J0D01*
G74*
G01*
X52539Y-39271D02*
G75*
G03X52539Y-39271I-78J0D01*
G74*
G01*
X52834Y-33070D02*
G75*
G03X52834Y-33070I-78J0D01*
G74*
G01*
X53228Y-29527D02*
G75*
G03X53228Y-29527I-78J0D01*
G74*
G01*
X53228Y-29921D02*
G75*
G03X53228Y-29921I-78J0D01*
G74*
G01*
X53228Y-30314D02*
G75*
G03X53228Y-30314I-78J0D01*
G74*
G01*
X53326Y-33464D02*
G75*
G03X53326Y-33464I-78J0D01*
G74*
G01*
X53818Y-37795D02*
G75*
G03X53818Y-37795I-78J0D01*
G74*
G01*
X53818Y-39370D02*
G75*
G03X53818Y-39370I-78J0D01*
G74*
G01*
X54212Y-49212D02*
G75*
G03X54212Y-49212I-78J0D01*
G74*
G01*
X54409Y-30708D02*
G75*
G03X54409Y-30708I-78J0D01*
G74*
G01*
X55196Y-30708D02*
G75*
G03X55196Y-30708I-78J0D01*
G74*
G01*
X56181Y-47244D02*
G75*
G03X56181Y-47244I-78J0D01*
G74*
G01*
X64448Y-31299D02*
G75*
G03X64448Y-31299I-78J0D01*
G74*
G01*
X64448Y-32086D02*
G75*
G03X64448Y-32086I-78J0D01*
G74*
G01*
X64842Y-30807D02*
G75*
G03X64842Y-30807I-78J0D01*
G74*
G01*
X64842Y-37795D02*
G75*
G03X64842Y-37795I-78J0D01*
G74*
G01*
X64842Y-38681D02*
G75*
G03X64842Y-38681I-78J0D01*
G74*
G01*
X64842Y-39271D02*
G75*
G03X64842Y-39271I-78J0D01*
G74*
G01*
X65039Y-32578D02*
G75*
G03X65039Y-32578I-78J0D01*
G74*
G01*
X65334Y-37401D02*
G75*
G03X65334Y-37401I-78J0D01*
G74*
G01*
X65433Y-38681D02*
G75*
G03X65433Y-38681I-78J0D01*
G74*
G01*
X65433Y-39271D02*
G75*
G03X65433Y-39271I-78J0D01*
G74*
G01*
X65629Y-31299D02*
G75*
G03X65629Y-31299I-78J0D01*
G74*
G01*
X65629Y-32086D02*
G75*
G03X65629Y-32086I-78J0D01*
G74*
G01*
X66023Y-32086D02*
G75*
G03X66023Y-32086I-78J0D01*
G74*
G01*
X66062Y-31299D02*
G75*
G03X66062Y-31299I-78J0D01*
G74*
G01*
X66220Y-37598D02*
G75*
G03X66220Y-37598I-78J0D01*
G74*
G01*
X66515Y-39370D02*
G75*
G03X66515Y-39370I-78J0D01*
G74*
G01*
X66614Y-32578D02*
G75*
G03X66614Y-32578I-78J0D01*
G74*
G01*
X66811Y-30826D02*
G75*
G03X66811Y-30826I-78J0D01*
G74*
G01*
X67007Y-47244D02*
G75*
G03X67007Y-47244I-78J0D01*
G74*
G01*
X67106Y-37696D02*
G75*
G03X67106Y-37696I-78J0D01*
G74*
G01*
X67106Y-39370D02*
G75*
G03X67106Y-39370I-78J0D01*
G74*
G01*
X67204Y-31299D02*
G75*
G03X67204Y-31299I-78J0D01*
G74*
G01*
X67204Y-32086D02*
G75*
G03X67204Y-32086I-78J0D01*
G74*
G01*
X67204Y-34940D02*
G75*
G03X67204Y-34940I-78J0D01*
G74*
G01*
X67696Y-38385D02*
G75*
G03X67696Y-38385I-78J0D01*
G74*
G01*
X67696Y-38877D02*
G75*
G03X67696Y-38877I-78J0D01*
G74*
G01*
X67696Y-39370D02*
G75*
G03X67696Y-39370I-78J0D01*
G74*
G01*
X67795Y-35433D02*
G75*
G03X67795Y-35433I-78J0D01*
G74*
G01*
X67795Y-37401D02*
G75*
G03X67795Y-37401I-78J0D01*
G74*
G01*
X68385Y-34940D02*
G75*
G03X68385Y-34940I-78J0D01*
G74*
G01*
X68484Y-32283D02*
G75*
G03X68484Y-32283I-78J0D01*
G74*
G01*
X68976Y-44783D02*
G75*
G03X68976Y-44783I-78J0D01*
G74*
G01*
X69173Y-31791D02*
G75*
G03X69173Y-31791I-78J0D01*
G74*
G01*
X69862Y-32283D02*
G75*
G03X69862Y-32283I-78J0D01*
G74*
G01*
X70452Y-47244D02*
G75*
G03X70452Y-47244I-78J0D01*
G74*
G01*
X70944Y-44783D02*
G75*
G03X70944Y-44783I-78J0D01*
G74*
G01*
X71437Y-48720D02*
G75*
G03X71437Y-48720I-78J0D01*
G74*
G01*
X71732Y-31496D02*
G75*
G03X71732Y-31496I-78J0D01*
G74*
G01*
X71732Y-31889D02*
G75*
G03X71732Y-31889I-78J0D01*
G74*
G01*
X71732Y-32283D02*
G75*
G03X71732Y-32283I-78J0D01*
G74*
G01*
X71929Y-29527D02*
G75*
G03X71929Y-29527I-78J0D01*
G74*
G01*
X72913Y-44783D02*
G75*
G03X72913Y-44783I-78J0D01*
G74*
G01*
X72913Y-48720D02*
G75*
G03X72913Y-48720I-78J0D01*
G74*
G01*
X73208Y-32972D02*
G75*
G03X73208Y-32972I-78J0D01*
G74*
G01*
X73208Y-33366D02*
G75*
G03X73208Y-33366I-78J0D01*
G74*
G01*
X73208Y-33759D02*
G75*
G03X73208Y-33759I-78J0D01*
G74*
G01*
X73307Y-31496D02*
G75*
G03X73307Y-31496I-78J0D01*
G74*
G01*
X73307Y-31889D02*
G75*
G03X73307Y-31889I-78J0D01*
G74*
G01*
X73405Y-46751D02*
G75*
G03X73405Y-46751I-78J0D01*
G74*
G01*
X73602Y-32972D02*
G75*
G03X73602Y-32972I-78J0D01*
G74*
G01*
X73602Y-33366D02*
G75*
G03X73602Y-33366I-78J0D01*
G74*
G01*
X73602Y-33759D02*
G75*
G03X73602Y-33759I-78J0D01*
G74*
G01*
X74488Y-35826D02*
G75*
G03X74488Y-35826I-78J0D01*
G74*
G01*
X74488Y-36220D02*
G75*
G03X74488Y-36220I-78J0D01*
G74*
G01*
X74881Y-35826D02*
G75*
G03X74881Y-35826I-78J0D01*
G74*
G01*
X74881Y-36220D02*
G75*
G03X74881Y-36220I-78J0D01*
G74*
G01*
X75275Y-35826D02*
G75*
G03X75275Y-35826I-78J0D01*
G74*
G01*
X75275Y-36220D02*
G75*
G03X75275Y-36220I-78J0D01*
G74*
G01*
X32677Y-37669D02*
X32677Y-38102D01*
X32460Y-37885D02*
X32893Y-37885D01*
X32677Y-38669D02*
X32677Y-39102D01*
X32460Y-38885D02*
X32893Y-38885D01*
X56305Y-29153D02*
X56305Y-29586D01*
X56088Y-29370D02*
X56521Y-29370D01*
X56305Y-30153D02*
X56305Y-30586D01*
X56088Y-30370D02*
X56521Y-30370D01*
X56305Y-48153D02*
X56305Y-48586D01*
X56088Y-48370D02*
X56521Y-48370D01*
X56305Y-49153D02*
X56305Y-49586D01*
X56088Y-49370D02*
X56521Y-49370D01*
X57305Y-29153D02*
X57305Y-29586D01*
X57088Y-29370D02*
X57521Y-29370D01*
X57305Y-30153D02*
X57305Y-30586D01*
X57088Y-30370D02*
X57521Y-30370D01*
X57305Y-48153D02*
X57305Y-48586D01*
X57088Y-48370D02*
X57521Y-48370D01*
X57305Y-49153D02*
X57305Y-49586D01*
X57088Y-49370D02*
X57521Y-49370D01*
X58305Y-29153D02*
X58305Y-29586D01*
X58088Y-29370D02*
X58521Y-29370D01*
X58305Y-30153D02*
X58305Y-30586D01*
X58088Y-30370D02*
X58521Y-30370D01*
X58305Y-48153D02*
X58305Y-48586D01*
X58088Y-48370D02*
X58521Y-48370D01*
X58305Y-49153D02*
X58305Y-49586D01*
X58088Y-49370D02*
X58521Y-49370D01*
X59305Y-29153D02*
X59305Y-29586D01*
X59088Y-29370D02*
X59521Y-29370D01*
X59305Y-30153D02*
X59305Y-30586D01*
X59088Y-30370D02*
X59521Y-30370D01*
X59305Y-48153D02*
X59305Y-48586D01*
X59088Y-48370D02*
X59521Y-48370D01*
X59305Y-49153D02*
X59305Y-49586D01*
X59088Y-49370D02*
X59521Y-49370D01*
X60305Y-29153D02*
X60305Y-29586D01*
X60088Y-29370D02*
X60521Y-29370D01*
X60305Y-30153D02*
X60305Y-30586D01*
X60088Y-30370D02*
X60521Y-30370D01*
X60305Y-48153D02*
X60305Y-48586D01*
X60088Y-48370D02*
X60521Y-48370D01*
X60305Y-49153D02*
X60305Y-49586D01*
X60088Y-49370D02*
X60521Y-49370D01*
X61305Y-29153D02*
X61305Y-29586D01*
X61088Y-29370D02*
X61521Y-29370D01*
X61305Y-30153D02*
X61305Y-30586D01*
X61088Y-30370D02*
X61521Y-30370D01*
X61305Y-48153D02*
X61305Y-48586D01*
X61088Y-48370D02*
X61521Y-48370D01*
X61305Y-49153D02*
X61305Y-49586D01*
X61088Y-49370D02*
X61521Y-49370D01*
X62305Y-29153D02*
X62305Y-29586D01*
X62088Y-29370D02*
X62521Y-29370D01*
X62305Y-30153D02*
X62305Y-30586D01*
X62088Y-30370D02*
X62521Y-30370D01*
X62305Y-48153D02*
X62305Y-48586D01*
X62088Y-48370D02*
X62521Y-48370D01*
X62305Y-49153D02*
X62305Y-49586D01*
X62088Y-49370D02*
X62521Y-49370D01*
X63305Y-29153D02*
X63305Y-29586D01*
X63088Y-29370D02*
X63521Y-29370D01*
X63305Y-30153D02*
X63305Y-30586D01*
X63088Y-30370D02*
X63521Y-30370D01*
X63305Y-48153D02*
X63305Y-48586D01*
X63088Y-48370D02*
X63521Y-48370D01*
X63305Y-49153D02*
X63305Y-49586D01*
X63088Y-49370D02*
X63521Y-49370D01*
X64305Y-29153D02*
X64305Y-29586D01*
X64088Y-29370D02*
X64521Y-29370D01*
X64305Y-30153D02*
X64305Y-30586D01*
X64088Y-30370D02*
X64521Y-30370D01*
X64305Y-48153D02*
X64305Y-48586D01*
X64088Y-48370D02*
X64521Y-48370D01*
X64305Y-49153D02*
X64305Y-49586D01*
X64088Y-49370D02*
X64521Y-49370D01*
X65305Y-29153D02*
X65305Y-29586D01*
X65088Y-29370D02*
X65521Y-29370D01*
X65305Y-30153D02*
X65305Y-30586D01*
X65088Y-30370D02*
X65521Y-30370D01*
X65305Y-48153D02*
X65305Y-48586D01*
X65088Y-48370D02*
X65521Y-48370D01*
X65305Y-49153D02*
X65305Y-49586D01*
X65088Y-49370D02*
X65521Y-49370D01*
X66305Y-29153D02*
X66305Y-29586D01*
X66088Y-29370D02*
X66521Y-29370D01*
X66305Y-30153D02*
X66305Y-30586D01*
X66088Y-30370D02*
X66521Y-30370D01*
X66305Y-48153D02*
X66305Y-48586D01*
X66088Y-48370D02*
X66521Y-48370D01*
X66305Y-49153D02*
X66305Y-49586D01*
X66088Y-49370D02*
X66521Y-49370D01*
X67305Y-29153D02*
X67305Y-29586D01*
X67088Y-29370D02*
X67521Y-29370D01*
X67305Y-30153D02*
X67305Y-30586D01*
X67088Y-30370D02*
X67521Y-30370D01*
X67305Y-48153D02*
X67305Y-48586D01*
X67088Y-48370D02*
X67521Y-48370D01*
X67305Y-49153D02*
X67305Y-49586D01*
X67088Y-49370D02*
X67521Y-49370D01*
X68305Y-29153D02*
X68305Y-29586D01*
X68088Y-29370D02*
X68521Y-29370D01*
X68305Y-30153D02*
X68305Y-30586D01*
X68088Y-30370D02*
X68521Y-30370D01*
X68305Y-48153D02*
X68305Y-48586D01*
X68088Y-48370D02*
X68521Y-48370D01*
X68305Y-49153D02*
X68305Y-49586D01*
X68088Y-49370D02*
X68521Y-49370D01*
G54D12*
X1068Y-1777D02*
X1068Y-596D01*
X1349Y-596D01*
X1518Y-652D01*
X1631Y-764D01*
X1687Y-877D01*
X1743Y-1102D01*
X1743Y-1271D01*
X1687Y-1496D01*
X1631Y-1608D01*
X1518Y-1721D01*
X1349Y-1777D01*
X1068Y-1777D01*
X2249Y-1777D02*
X2249Y-989D01*
X2249Y-1214D02*
X2305Y-1102D01*
X2362Y-1046D01*
X2474Y-989D01*
X2587Y-989D01*
X2980Y-1777D02*
X2980Y-989D01*
X2980Y-596D02*
X2924Y-652D01*
X2980Y-708D01*
X3037Y-652D01*
X2980Y-596D01*
X2980Y-708D01*
X3712Y-1777D02*
X3599Y-1721D01*
X3543Y-1608D01*
X3543Y-596D01*
X4330Y-1777D02*
X4218Y-1721D01*
X4161Y-1608D01*
X4161Y-596D01*
X5680Y-1777D02*
X5680Y-596D01*
X6074Y-1439D01*
X6467Y-596D01*
X6467Y-1777D01*
X7536Y-1777D02*
X7536Y-1158D01*
X7480Y-1046D01*
X7367Y-989D01*
X7142Y-989D01*
X7030Y-1046D01*
X7536Y-1721D02*
X7424Y-1777D01*
X7142Y-1777D01*
X7030Y-1721D01*
X6974Y-1608D01*
X6974Y-1496D01*
X7030Y-1383D01*
X7142Y-1327D01*
X7424Y-1327D01*
X7536Y-1271D01*
X8098Y-989D02*
X8098Y-2170D01*
X8098Y-1046D02*
X8211Y-989D01*
X8436Y-989D01*
X8548Y-1046D01*
X8605Y-1102D01*
X8661Y-1214D01*
X8661Y-1552D01*
X8605Y-1664D01*
X8548Y-1721D01*
X8436Y-1777D01*
X8211Y-1777D01*
X8098Y-1721D01*
X9167Y-1664D02*
X9223Y-1721D01*
X9167Y-1777D01*
X9111Y-1721D01*
X9167Y-1664D01*
X9167Y-1777D01*
X9167Y-1046D02*
X9223Y-1102D01*
X9167Y-1158D01*
X9111Y-1102D01*
X9167Y-1046D01*
X9167Y-1158D01*
X-118Y-3720D02*
X0Y-3838D01*
X0Y-3720D02*
X-118Y-3838D01*
X1293Y-3076D02*
X1406Y-3076D01*
X1518Y-3132D01*
X1574Y-3188D01*
X1631Y-3301D01*
X1687Y-3526D01*
X1687Y-3807D01*
X1631Y-4032D01*
X1574Y-4145D01*
X1518Y-4201D01*
X1406Y-4257D01*
X1293Y-4257D01*
X1181Y-4201D01*
X1124Y-4145D01*
X1068Y-4032D01*
X1012Y-3807D01*
X1012Y-3526D01*
X1068Y-3301D01*
X1124Y-3188D01*
X1181Y-3132D01*
X1293Y-3076D01*
X2193Y-4145D02*
X2249Y-4201D01*
X2193Y-4257D01*
X2137Y-4201D01*
X2193Y-4145D01*
X2193Y-4257D01*
X2643Y-3076D02*
X3374Y-3076D01*
X2980Y-3526D01*
X3149Y-3526D01*
X3262Y-3582D01*
X3318Y-3638D01*
X3374Y-3751D01*
X3374Y-4032D01*
X3318Y-4145D01*
X3262Y-4201D01*
X3149Y-4257D01*
X2812Y-4257D01*
X2699Y-4201D01*
X2643Y-4145D01*
X4105Y-3076D02*
X4218Y-3076D01*
X4330Y-3132D01*
X4386Y-3188D01*
X4443Y-3301D01*
X4499Y-3526D01*
X4499Y-3807D01*
X4443Y-4032D01*
X4386Y-4145D01*
X4330Y-4201D01*
X4218Y-4257D01*
X4105Y-4257D01*
X3993Y-4201D01*
X3937Y-4145D01*
X3880Y-4032D01*
X3824Y-3807D01*
X3824Y-3526D01*
X3880Y-3301D01*
X3937Y-3188D01*
X3993Y-3132D01*
X4105Y-3076D01*
X5005Y-4257D02*
X5005Y-3470D01*
X5005Y-3582D02*
X5061Y-3526D01*
X5174Y-3470D01*
X5343Y-3470D01*
X5455Y-3526D01*
X5511Y-3638D01*
X5511Y-4257D01*
X5511Y-3638D02*
X5568Y-3526D01*
X5680Y-3470D01*
X5849Y-3470D01*
X5961Y-3526D01*
X6017Y-3638D01*
X6017Y-4257D01*
X6580Y-4257D02*
X6580Y-3470D01*
X6580Y-3582D02*
X6636Y-3526D01*
X6749Y-3470D01*
X6917Y-3470D01*
X7030Y-3526D01*
X7086Y-3638D01*
X7086Y-4257D01*
X7086Y-3638D02*
X7142Y-3526D01*
X7255Y-3470D01*
X7424Y-3470D01*
X7536Y-3526D01*
X7592Y-3638D01*
X7592Y-4257D01*
X9898Y-3020D02*
X8886Y-4538D01*
X11417Y-3076D02*
X11529Y-3076D01*
X11642Y-3132D01*
X11698Y-3188D01*
X11754Y-3301D01*
X11811Y-3526D01*
X11811Y-3807D01*
X11754Y-4032D01*
X11698Y-4145D01*
X11642Y-4201D01*
X11529Y-4257D01*
X11417Y-4257D01*
X11304Y-4201D01*
X11248Y-4145D01*
X11192Y-4032D01*
X11136Y-3807D01*
X11136Y-3526D01*
X11192Y-3301D01*
X11248Y-3188D01*
X11304Y-3132D01*
X11417Y-3076D01*
X12317Y-4145D02*
X12373Y-4201D01*
X12317Y-4257D01*
X12260Y-4201D01*
X12317Y-4145D01*
X12317Y-4257D01*
X13104Y-3076D02*
X13217Y-3076D01*
X13329Y-3132D01*
X13385Y-3188D01*
X13442Y-3301D01*
X13498Y-3526D01*
X13498Y-3807D01*
X13442Y-4032D01*
X13385Y-4145D01*
X13329Y-4201D01*
X13217Y-4257D01*
X13104Y-4257D01*
X12992Y-4201D01*
X12935Y-4145D01*
X12879Y-4032D01*
X12823Y-3807D01*
X12823Y-3526D01*
X12879Y-3301D01*
X12935Y-3188D01*
X12992Y-3132D01*
X13104Y-3076D01*
X14623Y-4257D02*
X13948Y-4257D01*
X14285Y-4257D02*
X14285Y-3076D01*
X14173Y-3245D01*
X14060Y-3357D01*
X13948Y-3413D01*
X15073Y-3188D02*
X15129Y-3132D01*
X15241Y-3076D01*
X15523Y-3076D01*
X15635Y-3132D01*
X15691Y-3188D01*
X15748Y-3301D01*
X15748Y-3413D01*
X15691Y-3582D01*
X15016Y-4257D01*
X15748Y-4257D01*
X16197Y-3076D02*
X16197Y-3301D01*
X16647Y-3076D02*
X16647Y-3301D01*
X18391Y-4707D02*
X18335Y-4651D01*
X18222Y-4482D01*
X18166Y-4370D01*
X18110Y-4201D01*
X18053Y-3920D01*
X18053Y-3695D01*
X18110Y-3413D01*
X18166Y-3245D01*
X18222Y-3132D01*
X18335Y-2964D01*
X18391Y-2907D01*
X19460Y-4257D02*
X18785Y-4257D01*
X19122Y-4257D02*
X19122Y-3076D01*
X19010Y-3245D01*
X18897Y-3357D01*
X18785Y-3413D01*
X20134Y-3582D02*
X20022Y-3526D01*
X19966Y-3470D01*
X19910Y-3357D01*
X19910Y-3301D01*
X19966Y-3188D01*
X20022Y-3132D01*
X20134Y-3076D01*
X20359Y-3076D01*
X20472Y-3132D01*
X20528Y-3188D01*
X20584Y-3301D01*
X20584Y-3357D01*
X20528Y-3470D01*
X20472Y-3526D01*
X20359Y-3582D01*
X20134Y-3582D01*
X20022Y-3638D01*
X19966Y-3695D01*
X19910Y-3807D01*
X19910Y-4032D01*
X19966Y-4145D01*
X20022Y-4201D01*
X20134Y-4257D01*
X20359Y-4257D01*
X20472Y-4201D01*
X20528Y-4145D01*
X20584Y-4032D01*
X20584Y-3807D01*
X20528Y-3695D01*
X20472Y-3638D01*
X20359Y-3582D01*
X21709Y-4257D02*
X21034Y-4257D01*
X21372Y-4257D02*
X21372Y-3076D01*
X21259Y-3245D01*
X21147Y-3357D01*
X21034Y-3413D01*
X23115Y-4257D02*
X23115Y-3076D01*
X23622Y-4257D02*
X23622Y-3638D01*
X23565Y-3526D01*
X23453Y-3470D01*
X23284Y-3470D01*
X23172Y-3526D01*
X23115Y-3582D01*
X24353Y-4257D02*
X24240Y-4201D01*
X24184Y-4145D01*
X24128Y-4032D01*
X24128Y-3695D01*
X24184Y-3582D01*
X24240Y-3526D01*
X24353Y-3470D01*
X24521Y-3470D01*
X24634Y-3526D01*
X24690Y-3582D01*
X24746Y-3695D01*
X24746Y-4032D01*
X24690Y-4145D01*
X24634Y-4201D01*
X24521Y-4257D01*
X24353Y-4257D01*
X25421Y-4257D02*
X25309Y-4201D01*
X25253Y-4088D01*
X25253Y-3076D01*
X26321Y-4201D02*
X26209Y-4257D01*
X25984Y-4257D01*
X25871Y-4201D01*
X25815Y-4088D01*
X25815Y-3638D01*
X25871Y-3526D01*
X25984Y-3470D01*
X26209Y-3470D01*
X26321Y-3526D01*
X26377Y-3638D01*
X26377Y-3751D01*
X25815Y-3863D01*
X26827Y-4201D02*
X26940Y-4257D01*
X27165Y-4257D01*
X27277Y-4201D01*
X27334Y-4088D01*
X27334Y-4032D01*
X27277Y-3920D01*
X27165Y-3863D01*
X26996Y-3863D01*
X26884Y-3807D01*
X26827Y-3695D01*
X26827Y-3638D01*
X26884Y-3526D01*
X26996Y-3470D01*
X27165Y-3470D01*
X27277Y-3526D01*
X27727Y-4707D02*
X27784Y-4651D01*
X27896Y-4482D01*
X27952Y-4370D01*
X28008Y-4201D01*
X28065Y-3920D01*
X28065Y-3695D01*
X28008Y-3413D01*
X27952Y-3245D01*
X27896Y-3132D01*
X27784Y-2964D01*
X27727Y-2907D01*
G54D11*
X0Y-5338D02*
G75*
G03X0Y-5338I-78J0D01*
G74*
G01*
G54D12*
X1293Y-4635D02*
X1406Y-4635D01*
X1518Y-4691D01*
X1574Y-4748D01*
X1631Y-4860D01*
X1687Y-5085D01*
X1687Y-5366D01*
X1631Y-5591D01*
X1574Y-5704D01*
X1518Y-5760D01*
X1406Y-5816D01*
X1293Y-5816D01*
X1181Y-5760D01*
X1124Y-5704D01*
X1068Y-5591D01*
X1012Y-5366D01*
X1012Y-5085D01*
X1068Y-4860D01*
X1124Y-4748D01*
X1181Y-4691D01*
X1293Y-4635D01*
X2193Y-5704D02*
X2249Y-5760D01*
X2193Y-5816D01*
X2137Y-5760D01*
X2193Y-5704D01*
X2193Y-5816D01*
X3262Y-5029D02*
X3262Y-5816D01*
X2980Y-4579D02*
X2699Y-5422D01*
X3430Y-5422D01*
X4105Y-4635D02*
X4218Y-4635D01*
X4330Y-4691D01*
X4386Y-4748D01*
X4443Y-4860D01*
X4499Y-5085D01*
X4499Y-5366D01*
X4443Y-5591D01*
X4386Y-5704D01*
X4330Y-5760D01*
X4218Y-5816D01*
X4105Y-5816D01*
X3993Y-5760D01*
X3937Y-5704D01*
X3880Y-5591D01*
X3824Y-5366D01*
X3824Y-5085D01*
X3880Y-4860D01*
X3937Y-4748D01*
X3993Y-4691D01*
X4105Y-4635D01*
X5005Y-5816D02*
X5005Y-5029D01*
X5005Y-5141D02*
X5061Y-5085D01*
X5174Y-5029D01*
X5343Y-5029D01*
X5455Y-5085D01*
X5511Y-5197D01*
X5511Y-5816D01*
X5511Y-5197D02*
X5568Y-5085D01*
X5680Y-5029D01*
X5849Y-5029D01*
X5961Y-5085D01*
X6017Y-5197D01*
X6017Y-5816D01*
X6580Y-5816D02*
X6580Y-5029D01*
X6580Y-5141D02*
X6636Y-5085D01*
X6749Y-5029D01*
X6917Y-5029D01*
X7030Y-5085D01*
X7086Y-5197D01*
X7086Y-5816D01*
X7086Y-5197D02*
X7142Y-5085D01*
X7255Y-5029D01*
X7424Y-5029D01*
X7536Y-5085D01*
X7592Y-5197D01*
X7592Y-5816D01*
X9898Y-4579D02*
X8886Y-6097D01*
X11417Y-4635D02*
X11529Y-4635D01*
X11642Y-4691D01*
X11698Y-4748D01*
X11754Y-4860D01*
X11811Y-5085D01*
X11811Y-5366D01*
X11754Y-5591D01*
X11698Y-5704D01*
X11642Y-5760D01*
X11529Y-5816D01*
X11417Y-5816D01*
X11304Y-5760D01*
X11248Y-5704D01*
X11192Y-5591D01*
X11136Y-5366D01*
X11136Y-5085D01*
X11192Y-4860D01*
X11248Y-4748D01*
X11304Y-4691D01*
X11417Y-4635D01*
X12317Y-5704D02*
X12373Y-5760D01*
X12317Y-5816D01*
X12260Y-5760D01*
X12317Y-5704D01*
X12317Y-5816D01*
X13104Y-4635D02*
X13217Y-4635D01*
X13329Y-4691D01*
X13385Y-4748D01*
X13442Y-4860D01*
X13498Y-5085D01*
X13498Y-5366D01*
X13442Y-5591D01*
X13385Y-5704D01*
X13329Y-5760D01*
X13217Y-5816D01*
X13104Y-5816D01*
X12992Y-5760D01*
X12935Y-5704D01*
X12879Y-5591D01*
X12823Y-5366D01*
X12823Y-5085D01*
X12879Y-4860D01*
X12935Y-4748D01*
X12992Y-4691D01*
X13104Y-4635D01*
X14623Y-5816D02*
X13948Y-5816D01*
X14285Y-5816D02*
X14285Y-4635D01*
X14173Y-4804D01*
X14060Y-4916D01*
X13948Y-4973D01*
X15635Y-4635D02*
X15410Y-4635D01*
X15298Y-4691D01*
X15241Y-4748D01*
X15129Y-4916D01*
X15073Y-5141D01*
X15073Y-5591D01*
X15129Y-5704D01*
X15185Y-5760D01*
X15298Y-5816D01*
X15523Y-5816D01*
X15635Y-5760D01*
X15691Y-5704D01*
X15748Y-5591D01*
X15748Y-5310D01*
X15691Y-5197D01*
X15635Y-5141D01*
X15523Y-5085D01*
X15298Y-5085D01*
X15185Y-5141D01*
X15129Y-5197D01*
X15073Y-5310D01*
X16197Y-4635D02*
X16197Y-4860D01*
X16647Y-4635D02*
X16647Y-4860D01*
X18391Y-6266D02*
X18335Y-6210D01*
X18222Y-6041D01*
X18166Y-5929D01*
X18110Y-5760D01*
X18053Y-5479D01*
X18053Y-5254D01*
X18110Y-4973D01*
X18166Y-4804D01*
X18222Y-4691D01*
X18335Y-4523D01*
X18391Y-4466D01*
X19460Y-5816D02*
X18785Y-5816D01*
X19122Y-5816D02*
X19122Y-4635D01*
X19010Y-4804D01*
X18897Y-4916D01*
X18785Y-4973D01*
X20472Y-5029D02*
X20472Y-5816D01*
X20191Y-4579D02*
X19910Y-5422D01*
X20641Y-5422D01*
X21709Y-5816D02*
X21034Y-5816D01*
X21372Y-5816D02*
X21372Y-4635D01*
X21259Y-4804D01*
X21147Y-4916D01*
X21034Y-4973D01*
X23115Y-5816D02*
X23115Y-4635D01*
X23622Y-5816D02*
X23622Y-5197D01*
X23565Y-5085D01*
X23453Y-5029D01*
X23284Y-5029D01*
X23172Y-5085D01*
X23115Y-5141D01*
X24353Y-5816D02*
X24240Y-5760D01*
X24184Y-5704D01*
X24128Y-5591D01*
X24128Y-5254D01*
X24184Y-5141D01*
X24240Y-5085D01*
X24353Y-5029D01*
X24521Y-5029D01*
X24634Y-5085D01*
X24690Y-5141D01*
X24746Y-5254D01*
X24746Y-5591D01*
X24690Y-5704D01*
X24634Y-5760D01*
X24521Y-5816D01*
X24353Y-5816D01*
X25421Y-5816D02*
X25309Y-5760D01*
X25253Y-5647D01*
X25253Y-4635D01*
X26321Y-5760D02*
X26209Y-5816D01*
X25984Y-5816D01*
X25871Y-5760D01*
X25815Y-5647D01*
X25815Y-5197D01*
X25871Y-5085D01*
X25984Y-5029D01*
X26209Y-5029D01*
X26321Y-5085D01*
X26377Y-5197D01*
X26377Y-5310D01*
X25815Y-5422D01*
X26827Y-5760D02*
X26940Y-5816D01*
X27165Y-5816D01*
X27277Y-5760D01*
X27334Y-5647D01*
X27334Y-5591D01*
X27277Y-5479D01*
X27165Y-5422D01*
X26996Y-5422D01*
X26884Y-5366D01*
X26827Y-5254D01*
X26827Y-5197D01*
X26884Y-5085D01*
X26996Y-5029D01*
X27165Y-5029D01*
X27277Y-5085D01*
X27727Y-6266D02*
X27784Y-6210D01*
X27896Y-6041D01*
X27952Y-5929D01*
X28008Y-5760D01*
X28065Y-5479D01*
X28065Y-5254D01*
X28008Y-4973D01*
X27952Y-4804D01*
X27896Y-4691D01*
X27784Y-4523D01*
X27727Y-4466D01*
X-216Y-6681D02*
X-216Y-7114D01*
X-433Y-6897D02*
X0Y-6897D01*
X1687Y-7375D02*
X1012Y-7375D01*
X1349Y-7375D02*
X1349Y-6194D01*
X1237Y-6363D01*
X1124Y-6475D01*
X1012Y-6532D01*
X2193Y-7263D02*
X2249Y-7319D01*
X2193Y-7375D01*
X2137Y-7319D01*
X2193Y-7263D01*
X2193Y-7375D01*
X3374Y-7375D02*
X2699Y-7375D01*
X3037Y-7375D02*
X3037Y-6194D01*
X2924Y-6363D01*
X2812Y-6475D01*
X2699Y-6532D01*
X4105Y-6194D02*
X4218Y-6194D01*
X4330Y-6250D01*
X4386Y-6307D01*
X4443Y-6419D01*
X4499Y-6644D01*
X4499Y-6925D01*
X4443Y-7150D01*
X4386Y-7263D01*
X4330Y-7319D01*
X4218Y-7375D01*
X4105Y-7375D01*
X3993Y-7319D01*
X3937Y-7263D01*
X3880Y-7150D01*
X3824Y-6925D01*
X3824Y-6644D01*
X3880Y-6419D01*
X3937Y-6307D01*
X3993Y-6250D01*
X4105Y-6194D01*
X5005Y-7375D02*
X5005Y-6588D01*
X5005Y-6700D02*
X5061Y-6644D01*
X5174Y-6588D01*
X5343Y-6588D01*
X5455Y-6644D01*
X5511Y-6757D01*
X5511Y-7375D01*
X5511Y-6757D02*
X5568Y-6644D01*
X5680Y-6588D01*
X5849Y-6588D01*
X5961Y-6644D01*
X6017Y-6757D01*
X6017Y-7375D01*
X6580Y-7375D02*
X6580Y-6588D01*
X6580Y-6700D02*
X6636Y-6644D01*
X6749Y-6588D01*
X6917Y-6588D01*
X7030Y-6644D01*
X7086Y-6757D01*
X7086Y-7375D01*
X7086Y-6757D02*
X7142Y-6644D01*
X7255Y-6588D01*
X7424Y-6588D01*
X7536Y-6644D01*
X7592Y-6757D01*
X7592Y-7375D01*
X9898Y-6138D02*
X8886Y-7656D01*
X11417Y-6194D02*
X11529Y-6194D01*
X11642Y-6250D01*
X11698Y-6307D01*
X11754Y-6419D01*
X11811Y-6644D01*
X11811Y-6925D01*
X11754Y-7150D01*
X11698Y-7263D01*
X11642Y-7319D01*
X11529Y-7375D01*
X11417Y-7375D01*
X11304Y-7319D01*
X11248Y-7263D01*
X11192Y-7150D01*
X11136Y-6925D01*
X11136Y-6644D01*
X11192Y-6419D01*
X11248Y-6307D01*
X11304Y-6250D01*
X11417Y-6194D01*
X12317Y-7263D02*
X12373Y-7319D01*
X12317Y-7375D01*
X12260Y-7319D01*
X12317Y-7263D01*
X12317Y-7375D01*
X13104Y-6194D02*
X13217Y-6194D01*
X13329Y-6250D01*
X13385Y-6307D01*
X13442Y-6419D01*
X13498Y-6644D01*
X13498Y-6925D01*
X13442Y-7150D01*
X13385Y-7263D01*
X13329Y-7319D01*
X13217Y-7375D01*
X13104Y-7375D01*
X12992Y-7319D01*
X12935Y-7263D01*
X12879Y-7150D01*
X12823Y-6925D01*
X12823Y-6644D01*
X12879Y-6419D01*
X12935Y-6307D01*
X12992Y-6250D01*
X13104Y-6194D01*
X14510Y-6588D02*
X14510Y-7375D01*
X14229Y-6138D02*
X13948Y-6982D01*
X14679Y-6982D01*
X15016Y-6194D02*
X15748Y-6194D01*
X15354Y-6644D01*
X15523Y-6644D01*
X15635Y-6700D01*
X15691Y-6757D01*
X15748Y-6869D01*
X15748Y-7150D01*
X15691Y-7263D01*
X15635Y-7319D01*
X15523Y-7375D01*
X15185Y-7375D01*
X15073Y-7319D01*
X15016Y-7263D01*
X16197Y-6194D02*
X16197Y-6419D01*
X16647Y-6194D02*
X16647Y-6419D01*
X18391Y-7825D02*
X18335Y-7769D01*
X18222Y-7600D01*
X18166Y-7488D01*
X18110Y-7319D01*
X18053Y-7038D01*
X18053Y-6813D01*
X18110Y-6532D01*
X18166Y-6363D01*
X18222Y-6250D01*
X18335Y-6082D01*
X18391Y-6025D01*
X19403Y-6194D02*
X18841Y-6194D01*
X18785Y-6757D01*
X18841Y-6700D01*
X18953Y-6644D01*
X19235Y-6644D01*
X19347Y-6700D01*
X19403Y-6757D01*
X19460Y-6869D01*
X19460Y-7150D01*
X19403Y-7263D01*
X19347Y-7319D01*
X19235Y-7375D01*
X18953Y-7375D01*
X18841Y-7319D01*
X18785Y-7263D01*
X20472Y-6588D02*
X20472Y-7375D01*
X20191Y-6138D02*
X19910Y-6982D01*
X20641Y-6982D01*
X21991Y-7375D02*
X21991Y-6194D01*
X22497Y-7375D02*
X22497Y-6757D01*
X22440Y-6644D01*
X22328Y-6588D01*
X22159Y-6588D01*
X22047Y-6644D01*
X21991Y-6700D01*
X23228Y-7375D02*
X23115Y-7319D01*
X23059Y-7263D01*
X23003Y-7150D01*
X23003Y-6813D01*
X23059Y-6700D01*
X23115Y-6644D01*
X23228Y-6588D01*
X23397Y-6588D01*
X23509Y-6644D01*
X23565Y-6700D01*
X23622Y-6813D01*
X23622Y-7150D01*
X23565Y-7263D01*
X23509Y-7319D01*
X23397Y-7375D01*
X23228Y-7375D01*
X24296Y-7375D02*
X24184Y-7319D01*
X24128Y-7206D01*
X24128Y-6194D01*
X25196Y-7319D02*
X25084Y-7375D01*
X24859Y-7375D01*
X24746Y-7319D01*
X24690Y-7206D01*
X24690Y-6757D01*
X24746Y-6644D01*
X24859Y-6588D01*
X25084Y-6588D01*
X25196Y-6644D01*
X25253Y-6757D01*
X25253Y-6869D01*
X24690Y-6982D01*
X25703Y-7319D02*
X25815Y-7375D01*
X26040Y-7375D01*
X26152Y-7319D01*
X26209Y-7206D01*
X26209Y-7150D01*
X26152Y-7038D01*
X26040Y-6982D01*
X25871Y-6982D01*
X25759Y-6925D01*
X25703Y-6813D01*
X25703Y-6757D01*
X25759Y-6644D01*
X25871Y-6588D01*
X26040Y-6588D01*
X26152Y-6644D01*
X26602Y-7825D02*
X26659Y-7769D01*
X26771Y-7600D01*
X26827Y-7488D01*
X26884Y-7319D01*
X26940Y-7038D01*
X26940Y-6813D01*
X26884Y-6532D01*
X26827Y-6363D01*
X26771Y-6250D01*
X26659Y-6082D01*
X26602Y-6025D01*
M02*
