G04 (created by PCBNEW (2013-mar-25)-stable) date Tuesday, March 01, 2016 03:51:52 PM*
%MOIN*%
G04 Gerber Fmt 3.4, Leading zero omitted, Abs format*
%FSLAX34Y34*%
G01*
G70*
G90*
G04 APERTURE LIST*
%ADD10C,0.005*%
%ADD11C,0.00787402*%
%ADD12C,0.011811*%
G04 APERTURE END LIST*
G54D10*
G54D11*
X74015Y-46259D02*
X74803Y-47047D01*
X74803Y-46259D02*
X74015Y-47047D01*
X33302Y-29870D02*
G75*
G03X33302Y-29870I-625J0D01*
G74*
G01*
X33302Y-48870D02*
G75*
G03X33302Y-48870I-625J0D01*
G74*
G01*
X70930Y-29870D02*
G75*
G03X70930Y-29870I-625J0D01*
G74*
G01*
X70930Y-48870D02*
G75*
G03X70930Y-48870I-625J0D01*
G74*
G01*
G54D12*
X1068Y-1777D02*
X1068Y-596D01*
X1349Y-596D01*
X1518Y-652D01*
X1631Y-764D01*
X1687Y-877D01*
X1743Y-1102D01*
X1743Y-1271D01*
X1687Y-1496D01*
X1631Y-1608D01*
X1518Y-1721D01*
X1349Y-1777D01*
X1068Y-1777D01*
X2249Y-1777D02*
X2249Y-989D01*
X2249Y-1214D02*
X2305Y-1102D01*
X2362Y-1046D01*
X2474Y-989D01*
X2587Y-989D01*
X2980Y-1777D02*
X2980Y-989D01*
X2980Y-596D02*
X2924Y-652D01*
X2980Y-708D01*
X3037Y-652D01*
X2980Y-596D01*
X2980Y-708D01*
X3712Y-1777D02*
X3599Y-1721D01*
X3543Y-1608D01*
X3543Y-596D01*
X4330Y-1777D02*
X4218Y-1721D01*
X4161Y-1608D01*
X4161Y-596D01*
X5680Y-1777D02*
X5680Y-596D01*
X6074Y-1439D01*
X6467Y-596D01*
X6467Y-1777D01*
X7536Y-1777D02*
X7536Y-1158D01*
X7480Y-1046D01*
X7367Y-989D01*
X7142Y-989D01*
X7030Y-1046D01*
X7536Y-1721D02*
X7424Y-1777D01*
X7142Y-1777D01*
X7030Y-1721D01*
X6974Y-1608D01*
X6974Y-1496D01*
X7030Y-1383D01*
X7142Y-1327D01*
X7424Y-1327D01*
X7536Y-1271D01*
X8098Y-989D02*
X8098Y-2170D01*
X8098Y-1046D02*
X8211Y-989D01*
X8436Y-989D01*
X8548Y-1046D01*
X8605Y-1102D01*
X8661Y-1214D01*
X8661Y-1552D01*
X8605Y-1664D01*
X8548Y-1721D01*
X8436Y-1777D01*
X8211Y-1777D01*
X8098Y-1721D01*
X9167Y-1664D02*
X9223Y-1721D01*
X9167Y-1777D01*
X9111Y-1721D01*
X9167Y-1664D01*
X9167Y-1777D01*
X9167Y-1046D02*
X9223Y-1102D01*
X9167Y-1158D01*
X9111Y-1102D01*
X9167Y-1046D01*
X9167Y-1158D01*
X-787Y-3385D02*
X0Y-4173D01*
X0Y-3385D02*
X-787Y-4173D01*
X1012Y-3188D02*
X1068Y-3132D01*
X1181Y-3076D01*
X1462Y-3076D01*
X1574Y-3132D01*
X1631Y-3188D01*
X1687Y-3301D01*
X1687Y-3413D01*
X1631Y-3582D01*
X956Y-4257D01*
X1687Y-4257D01*
X2193Y-4145D02*
X2249Y-4201D01*
X2193Y-4257D01*
X2137Y-4201D01*
X2193Y-4145D01*
X2193Y-4257D01*
X2980Y-3076D02*
X3093Y-3076D01*
X3205Y-3132D01*
X3262Y-3188D01*
X3318Y-3301D01*
X3374Y-3526D01*
X3374Y-3807D01*
X3318Y-4032D01*
X3262Y-4145D01*
X3205Y-4201D01*
X3093Y-4257D01*
X2980Y-4257D01*
X2868Y-4201D01*
X2812Y-4145D01*
X2755Y-4032D01*
X2699Y-3807D01*
X2699Y-3526D01*
X2755Y-3301D01*
X2812Y-3188D01*
X2868Y-3132D01*
X2980Y-3076D01*
X4105Y-3076D02*
X4218Y-3076D01*
X4330Y-3132D01*
X4386Y-3188D01*
X4443Y-3301D01*
X4499Y-3526D01*
X4499Y-3807D01*
X4443Y-4032D01*
X4386Y-4145D01*
X4330Y-4201D01*
X4218Y-4257D01*
X4105Y-4257D01*
X3993Y-4201D01*
X3937Y-4145D01*
X3880Y-4032D01*
X3824Y-3807D01*
X3824Y-3526D01*
X3880Y-3301D01*
X3937Y-3188D01*
X3993Y-3132D01*
X4105Y-3076D01*
X5005Y-4257D02*
X5005Y-3470D01*
X5005Y-3582D02*
X5061Y-3526D01*
X5174Y-3470D01*
X5343Y-3470D01*
X5455Y-3526D01*
X5511Y-3638D01*
X5511Y-4257D01*
X5511Y-3638D02*
X5568Y-3526D01*
X5680Y-3470D01*
X5849Y-3470D01*
X5961Y-3526D01*
X6017Y-3638D01*
X6017Y-4257D01*
X6580Y-4257D02*
X6580Y-3470D01*
X6580Y-3582D02*
X6636Y-3526D01*
X6749Y-3470D01*
X6917Y-3470D01*
X7030Y-3526D01*
X7086Y-3638D01*
X7086Y-4257D01*
X7086Y-3638D02*
X7142Y-3526D01*
X7255Y-3470D01*
X7424Y-3470D01*
X7536Y-3526D01*
X7592Y-3638D01*
X7592Y-4257D01*
X9898Y-3020D02*
X8886Y-4538D01*
X11417Y-3076D02*
X11529Y-3076D01*
X11642Y-3132D01*
X11698Y-3188D01*
X11754Y-3301D01*
X11811Y-3526D01*
X11811Y-3807D01*
X11754Y-4032D01*
X11698Y-4145D01*
X11642Y-4201D01*
X11529Y-4257D01*
X11417Y-4257D01*
X11304Y-4201D01*
X11248Y-4145D01*
X11192Y-4032D01*
X11136Y-3807D01*
X11136Y-3526D01*
X11192Y-3301D01*
X11248Y-3188D01*
X11304Y-3132D01*
X11417Y-3076D01*
X12317Y-4145D02*
X12373Y-4201D01*
X12317Y-4257D01*
X12260Y-4201D01*
X12317Y-4145D01*
X12317Y-4257D01*
X13104Y-3076D02*
X13217Y-3076D01*
X13329Y-3132D01*
X13385Y-3188D01*
X13442Y-3301D01*
X13498Y-3526D01*
X13498Y-3807D01*
X13442Y-4032D01*
X13385Y-4145D01*
X13329Y-4201D01*
X13217Y-4257D01*
X13104Y-4257D01*
X12992Y-4201D01*
X12935Y-4145D01*
X12879Y-4032D01*
X12823Y-3807D01*
X12823Y-3526D01*
X12879Y-3301D01*
X12935Y-3188D01*
X12992Y-3132D01*
X13104Y-3076D01*
X13892Y-3076D02*
X14679Y-3076D01*
X14173Y-4257D01*
X15185Y-4257D02*
X15410Y-4257D01*
X15523Y-4201D01*
X15579Y-4145D01*
X15691Y-3976D01*
X15748Y-3751D01*
X15748Y-3301D01*
X15691Y-3188D01*
X15635Y-3132D01*
X15523Y-3076D01*
X15298Y-3076D01*
X15185Y-3132D01*
X15129Y-3188D01*
X15073Y-3301D01*
X15073Y-3582D01*
X15129Y-3695D01*
X15185Y-3751D01*
X15298Y-3807D01*
X15523Y-3807D01*
X15635Y-3751D01*
X15691Y-3695D01*
X15748Y-3582D01*
X16197Y-3076D02*
X16197Y-3301D01*
X16647Y-3076D02*
X16647Y-3301D01*
X18391Y-4707D02*
X18335Y-4651D01*
X18222Y-4482D01*
X18166Y-4370D01*
X18110Y-4201D01*
X18053Y-3920D01*
X18053Y-3695D01*
X18110Y-3413D01*
X18166Y-3245D01*
X18222Y-3132D01*
X18335Y-2964D01*
X18391Y-2907D01*
X19460Y-4257D02*
X18785Y-4257D01*
X19122Y-4257D02*
X19122Y-3076D01*
X19010Y-3245D01*
X18897Y-3357D01*
X18785Y-3413D01*
X20866Y-4257D02*
X20866Y-3076D01*
X21372Y-4257D02*
X21372Y-3638D01*
X21316Y-3526D01*
X21203Y-3470D01*
X21034Y-3470D01*
X20922Y-3526D01*
X20866Y-3582D01*
X22103Y-4257D02*
X21991Y-4201D01*
X21934Y-4145D01*
X21878Y-4032D01*
X21878Y-3695D01*
X21934Y-3582D01*
X21991Y-3526D01*
X22103Y-3470D01*
X22272Y-3470D01*
X22384Y-3526D01*
X22440Y-3582D01*
X22497Y-3695D01*
X22497Y-4032D01*
X22440Y-4145D01*
X22384Y-4201D01*
X22272Y-4257D01*
X22103Y-4257D01*
X23172Y-4257D02*
X23059Y-4201D01*
X23003Y-4088D01*
X23003Y-3076D01*
X24071Y-4201D02*
X23959Y-4257D01*
X23734Y-4257D01*
X23622Y-4201D01*
X23565Y-4088D01*
X23565Y-3638D01*
X23622Y-3526D01*
X23734Y-3470D01*
X23959Y-3470D01*
X24071Y-3526D01*
X24128Y-3638D01*
X24128Y-3751D01*
X23565Y-3863D01*
X24521Y-4707D02*
X24578Y-4651D01*
X24690Y-4482D01*
X24746Y-4370D01*
X24803Y-4201D01*
X24859Y-3920D01*
X24859Y-3695D01*
X24803Y-3413D01*
X24746Y-3245D01*
X24690Y-3132D01*
X24578Y-2964D01*
X24521Y-2907D01*
G54D11*
X0Y-5338D02*
G75*
G03X0Y-5338I-625J0D01*
G74*
G01*
G54D12*
X956Y-4635D02*
X1687Y-4635D01*
X1293Y-5085D01*
X1462Y-5085D01*
X1574Y-5141D01*
X1631Y-5197D01*
X1687Y-5310D01*
X1687Y-5591D01*
X1631Y-5704D01*
X1574Y-5760D01*
X1462Y-5816D01*
X1124Y-5816D01*
X1012Y-5760D01*
X956Y-5704D01*
X2193Y-5704D02*
X2249Y-5760D01*
X2193Y-5816D01*
X2137Y-5760D01*
X2193Y-5704D01*
X2193Y-5816D01*
X3374Y-5816D02*
X2699Y-5816D01*
X3037Y-5816D02*
X3037Y-4635D01*
X2924Y-4804D01*
X2812Y-4916D01*
X2699Y-4973D01*
X3768Y-4635D02*
X4555Y-4635D01*
X4049Y-5816D01*
X5005Y-5816D02*
X5005Y-5029D01*
X5005Y-5141D02*
X5061Y-5085D01*
X5174Y-5029D01*
X5343Y-5029D01*
X5455Y-5085D01*
X5511Y-5197D01*
X5511Y-5816D01*
X5511Y-5197D02*
X5568Y-5085D01*
X5680Y-5029D01*
X5849Y-5029D01*
X5961Y-5085D01*
X6017Y-5197D01*
X6017Y-5816D01*
X6580Y-5816D02*
X6580Y-5029D01*
X6580Y-5141D02*
X6636Y-5085D01*
X6749Y-5029D01*
X6917Y-5029D01*
X7030Y-5085D01*
X7086Y-5197D01*
X7086Y-5816D01*
X7086Y-5197D02*
X7142Y-5085D01*
X7255Y-5029D01*
X7424Y-5029D01*
X7536Y-5085D01*
X7592Y-5197D01*
X7592Y-5816D01*
X9898Y-4579D02*
X8886Y-6097D01*
X11417Y-4635D02*
X11529Y-4635D01*
X11642Y-4691D01*
X11698Y-4748D01*
X11754Y-4860D01*
X11811Y-5085D01*
X11811Y-5366D01*
X11754Y-5591D01*
X11698Y-5704D01*
X11642Y-5760D01*
X11529Y-5816D01*
X11417Y-5816D01*
X11304Y-5760D01*
X11248Y-5704D01*
X11192Y-5591D01*
X11136Y-5366D01*
X11136Y-5085D01*
X11192Y-4860D01*
X11248Y-4748D01*
X11304Y-4691D01*
X11417Y-4635D01*
X12317Y-5704D02*
X12373Y-5760D01*
X12317Y-5816D01*
X12260Y-5760D01*
X12317Y-5704D01*
X12317Y-5816D01*
X13498Y-5816D02*
X12823Y-5816D01*
X13160Y-5816D02*
X13160Y-4635D01*
X13048Y-4804D01*
X12935Y-4916D01*
X12823Y-4973D01*
X13948Y-4748D02*
X14004Y-4691D01*
X14116Y-4635D01*
X14398Y-4635D01*
X14510Y-4691D01*
X14566Y-4748D01*
X14623Y-4860D01*
X14623Y-4973D01*
X14566Y-5141D01*
X13892Y-5816D01*
X14623Y-5816D01*
X15691Y-4635D02*
X15129Y-4635D01*
X15073Y-5197D01*
X15129Y-5141D01*
X15241Y-5085D01*
X15523Y-5085D01*
X15635Y-5141D01*
X15691Y-5197D01*
X15748Y-5310D01*
X15748Y-5591D01*
X15691Y-5704D01*
X15635Y-5760D01*
X15523Y-5816D01*
X15241Y-5816D01*
X15129Y-5760D01*
X15073Y-5704D01*
X16197Y-4635D02*
X16197Y-4860D01*
X16647Y-4635D02*
X16647Y-4860D01*
X18391Y-6266D02*
X18335Y-6210D01*
X18222Y-6041D01*
X18166Y-5929D01*
X18110Y-5760D01*
X18053Y-5479D01*
X18053Y-5254D01*
X18110Y-4973D01*
X18166Y-4804D01*
X18222Y-4691D01*
X18335Y-4523D01*
X18391Y-4466D01*
X19347Y-5029D02*
X19347Y-5816D01*
X19066Y-4579D02*
X18785Y-5422D01*
X19516Y-5422D01*
X20866Y-5816D02*
X20866Y-4635D01*
X21372Y-5816D02*
X21372Y-5197D01*
X21316Y-5085D01*
X21203Y-5029D01*
X21034Y-5029D01*
X20922Y-5085D01*
X20866Y-5141D01*
X22103Y-5816D02*
X21991Y-5760D01*
X21934Y-5704D01*
X21878Y-5591D01*
X21878Y-5254D01*
X21934Y-5141D01*
X21991Y-5085D01*
X22103Y-5029D01*
X22272Y-5029D01*
X22384Y-5085D01*
X22440Y-5141D01*
X22497Y-5254D01*
X22497Y-5591D01*
X22440Y-5704D01*
X22384Y-5760D01*
X22272Y-5816D01*
X22103Y-5816D01*
X23172Y-5816D02*
X23059Y-5760D01*
X23003Y-5647D01*
X23003Y-4635D01*
X24071Y-5760D02*
X23959Y-5816D01*
X23734Y-5816D01*
X23622Y-5760D01*
X23565Y-5647D01*
X23565Y-5197D01*
X23622Y-5085D01*
X23734Y-5029D01*
X23959Y-5029D01*
X24071Y-5085D01*
X24128Y-5197D01*
X24128Y-5310D01*
X23565Y-5422D01*
X24578Y-5760D02*
X24690Y-5816D01*
X24915Y-5816D01*
X25028Y-5760D01*
X25084Y-5647D01*
X25084Y-5591D01*
X25028Y-5479D01*
X24915Y-5422D01*
X24746Y-5422D01*
X24634Y-5366D01*
X24578Y-5254D01*
X24578Y-5197D01*
X24634Y-5085D01*
X24746Y-5029D01*
X24915Y-5029D01*
X25028Y-5085D01*
X25478Y-6266D02*
X25534Y-6210D01*
X25646Y-6041D01*
X25703Y-5929D01*
X25759Y-5760D01*
X25815Y-5479D01*
X25815Y-5254D01*
X25759Y-4973D01*
X25703Y-4804D01*
X25646Y-4691D01*
X25534Y-4523D01*
X25478Y-4466D01*
M02*
