G04 (created by PCBNEW (2013-mar-25)-stable) date Tuesday, March 01, 2016 03:52:00 PM*
%MOIN*%
G04 Gerber Fmt 3.4, Leading zero omitted, Abs format*
%FSLAX34Y34*%
G01*
G70*
G90*
G04 APERTURE LIST*
%ADD10C,0.006*%
%ADD11C,0.00590551*%
%ADD12C,0.015748*%
%ADD13C,0.0669291*%
%ADD14C,0.023622*%
%ADD15R,0.0649606X0.0649606*%
%ADD16C,0.0649606*%
%ADD17C,0.0492126*%
%ADD18O,0.11811X0.0688976*%
%ADD19C,0.0314961*%
%ADD20C,0.019685*%
%ADD21C,0.00393701*%
G04 APERTURE END LIST*
G54D10*
G54D11*
X72139Y-49568D02*
X72334Y-49568D01*
X72229Y-49718D01*
X72274Y-49718D01*
X72304Y-49737D01*
X72319Y-49756D01*
X72334Y-49793D01*
X72334Y-49887D01*
X72319Y-49925D01*
X72304Y-49943D01*
X72274Y-49962D01*
X72184Y-49962D01*
X72154Y-49943D01*
X72139Y-49925D01*
G54D12*
X50787Y-33464D03*
X50393Y-33464D03*
X51181Y-33464D03*
X51181Y-33070D03*
X50787Y-33070D03*
X50393Y-33070D03*
X50393Y-33858D03*
X50787Y-33858D03*
X51181Y-33858D03*
X72440Y-31889D03*
X72677Y-31889D03*
X72204Y-31889D03*
X39173Y-43208D03*
X39566Y-43208D03*
X39173Y-43602D03*
X39566Y-43602D03*
X44488Y-32726D03*
X44488Y-33021D03*
G54D13*
X68305Y-48370D03*
X68305Y-49370D03*
X67305Y-48370D03*
X67305Y-49370D03*
X66305Y-48370D03*
X66305Y-49370D03*
X65305Y-48370D03*
X65305Y-49370D03*
X64305Y-48370D03*
X64305Y-49370D03*
X63305Y-48370D03*
X63305Y-49370D03*
X62305Y-48370D03*
X62305Y-49370D03*
X61305Y-48370D03*
X61305Y-49370D03*
X60305Y-48370D03*
X60305Y-49370D03*
X59305Y-48370D03*
X59305Y-49370D03*
X58305Y-48370D03*
X58305Y-49370D03*
X57305Y-48370D03*
X57305Y-49370D03*
X56305Y-48370D03*
X56305Y-49370D03*
X68305Y-29370D03*
X68305Y-30370D03*
X67305Y-29370D03*
X67305Y-30370D03*
X66305Y-29370D03*
X66305Y-30370D03*
X65305Y-29370D03*
X65305Y-30370D03*
X64305Y-29370D03*
X64305Y-30370D03*
X63305Y-29370D03*
X63305Y-30370D03*
X62305Y-29370D03*
X62305Y-30370D03*
X61305Y-29370D03*
X61305Y-30370D03*
X60305Y-29370D03*
X60305Y-30370D03*
X59305Y-29370D03*
X59305Y-30370D03*
X58305Y-29370D03*
X58305Y-30370D03*
X57305Y-29370D03*
X57305Y-30370D03*
X56305Y-29370D03*
X56305Y-30370D03*
G54D14*
X60334Y-33759D03*
G54D15*
X32677Y-37885D03*
G54D16*
X32677Y-38885D03*
G54D17*
X55118Y-42125D03*
X54527Y-42716D03*
X53937Y-43307D03*
G54D14*
X51673Y-31299D03*
G54D12*
X30610Y-44438D03*
X30610Y-44143D03*
X30905Y-44438D03*
X30905Y-44143D03*
X31200Y-44438D03*
X31200Y-44143D03*
X30610Y-42175D03*
X30610Y-42470D03*
X30905Y-42175D03*
X30905Y-42470D03*
X31200Y-42175D03*
X31200Y-42470D03*
X30610Y-34793D03*
X30610Y-34498D03*
X30905Y-34793D03*
X30905Y-34498D03*
X31200Y-34793D03*
X31200Y-34498D03*
X30610Y-32529D03*
X30610Y-32824D03*
X30905Y-32529D03*
X30905Y-32824D03*
X31200Y-32529D03*
X31200Y-32824D03*
G54D18*
X71850Y-45275D03*
X71850Y-46456D03*
X71850Y-48503D03*
G54D19*
X47834Y-31299D03*
X44586Y-31397D03*
X44094Y-34153D03*
X45275Y-34153D03*
G54D14*
X50196Y-31692D03*
G54D19*
X44881Y-34153D03*
G54D14*
X60236Y-34645D03*
G54D19*
X56003Y-45866D03*
G54D14*
X59251Y-32086D03*
X56003Y-32086D03*
G54D19*
X56299Y-45570D03*
G54D14*
X61811Y-36614D03*
X61417Y-35039D03*
X62204Y-35433D03*
X64173Y-38188D03*
X63385Y-38976D03*
G54D19*
X75196Y-35826D03*
G54D14*
X61811Y-37007D03*
X70078Y-31496D03*
G54D19*
X67125Y-34940D03*
X68307Y-34940D03*
X67716Y-35433D03*
G54D14*
X57874Y-36614D03*
X64960Y-35334D03*
X60629Y-37007D03*
X59842Y-38188D03*
X60629Y-38188D03*
G54D19*
X74803Y-35826D03*
X75196Y-36220D03*
X74803Y-36220D03*
X74409Y-35826D03*
X74409Y-36220D03*
G54D14*
X61417Y-38188D03*
X62204Y-37795D03*
X59842Y-36220D03*
X59448Y-36614D03*
X59842Y-37007D03*
G54D19*
X65255Y-37401D03*
X65255Y-37893D03*
X67027Y-37893D03*
X67027Y-37401D03*
G54D14*
X60629Y-36614D03*
X60629Y-37795D03*
X62204Y-36614D03*
X61417Y-36614D03*
X60236Y-37795D03*
G54D19*
X60236Y-45866D03*
X57086Y-47244D03*
X68405Y-32283D03*
X69783Y-32283D03*
X69094Y-31791D03*
G54D14*
X58661Y-37007D03*
X58661Y-35826D03*
X59842Y-39370D03*
X63779Y-35433D03*
X63779Y-39370D03*
X58661Y-39763D03*
X57381Y-37401D03*
X57381Y-39173D03*
X59842Y-41043D03*
X64074Y-41043D03*
X64960Y-35925D03*
X64173Y-33759D03*
X60925Y-33759D03*
X57381Y-34251D03*
X57874Y-34251D03*
X60629Y-34645D03*
X62204Y-34251D03*
X59842Y-35039D03*
X59055Y-37795D03*
X59842Y-40551D03*
X64173Y-40551D03*
X62598Y-39763D03*
X61417Y-39763D03*
X63385Y-38188D03*
X62204Y-35039D03*
X62598Y-35433D03*
X61417Y-35826D03*
X64173Y-36220D03*
X62598Y-36220D03*
X62598Y-36614D03*
X62992Y-36614D03*
X62598Y-37007D03*
X57874Y-38582D03*
X62204Y-38582D03*
X59448Y-38188D03*
G54D19*
X48818Y-31299D03*
X52755Y-33070D03*
G54D14*
X49409Y-32381D03*
G54D19*
X48818Y-34153D03*
X52066Y-38582D03*
X52066Y-37007D03*
X47834Y-36318D03*
X48622Y-36318D03*
X51574Y-30314D03*
X48031Y-44881D03*
G54D14*
X44783Y-43897D03*
X39468Y-44488D03*
X38188Y-43897D03*
G54D19*
X40551Y-43897D03*
G54D14*
X40551Y-42913D03*
X38877Y-42322D03*
X39271Y-42322D03*
G54D19*
X65452Y-44488D03*
X65452Y-44881D03*
X65452Y-45275D03*
X65452Y-44094D03*
X65059Y-44488D03*
X65059Y-45275D03*
X65059Y-44881D03*
X65059Y-44094D03*
G54D14*
X54035Y-29330D03*
G54D19*
X54330Y-30708D03*
X55118Y-30708D03*
X54724Y-31003D03*
X50787Y-45275D03*
X51574Y-45275D03*
X51181Y-45570D03*
G54D14*
X66830Y-38681D03*
X50787Y-44094D03*
G54D19*
X73523Y-33366D03*
X73523Y-33759D03*
X73129Y-33366D03*
X73523Y-32972D03*
X73129Y-33759D03*
X73129Y-32972D03*
X65255Y-38681D03*
X65255Y-39173D03*
G54D14*
X72539Y-30019D03*
G54D19*
X60433Y-46259D03*
X56299Y-46259D03*
G54D14*
X60629Y-40551D03*
X41141Y-41633D03*
X41141Y-42421D03*
G54D19*
X65452Y-47244D03*
X65452Y-46850D03*
X65452Y-46456D03*
X65452Y-47637D03*
X65059Y-47244D03*
X65059Y-46456D03*
X65059Y-46850D03*
X65059Y-47637D03*
X66929Y-39271D03*
X56692Y-47244D03*
X60137Y-46653D03*
X34251Y-43700D03*
X35039Y-43700D03*
X33464Y-43700D03*
X32677Y-43700D03*
X54133Y-49212D03*
X50196Y-49212D03*
X44291Y-49212D03*
X40354Y-49212D03*
X38385Y-49212D03*
X36417Y-49212D03*
X33464Y-47244D03*
X31496Y-47244D03*
X34448Y-49212D03*
X42322Y-49212D03*
X46259Y-49212D03*
X48228Y-49212D03*
X52165Y-49212D03*
X34251Y-42913D03*
X32677Y-42913D03*
X33464Y-42913D03*
X35039Y-42913D03*
X47047Y-35236D03*
X44881Y-37696D03*
X42519Y-37696D03*
X40157Y-37696D03*
X37795Y-37696D03*
X44881Y-30413D03*
X42519Y-30413D03*
X40157Y-30413D03*
X37795Y-30413D03*
X35531Y-32874D03*
X53248Y-33464D03*
X49606Y-34448D03*
X47834Y-35925D03*
X48622Y-35925D03*
X52460Y-39271D03*
X52460Y-37696D03*
X53740Y-39370D03*
X53740Y-37795D03*
X51377Y-37401D03*
X51377Y-36417D03*
X53149Y-29921D03*
X53149Y-30314D03*
X53149Y-29527D03*
X49606Y-44488D03*
X49606Y-44881D03*
X49606Y-44094D03*
X71850Y-29527D03*
X48228Y-29527D03*
X44291Y-29527D03*
X40354Y-29527D03*
X36417Y-29527D03*
X38385Y-29527D03*
X42322Y-29527D03*
X46259Y-29527D03*
X50196Y-29527D03*
X34448Y-29527D03*
X36417Y-29527D03*
G54D14*
X61417Y-37007D03*
G54D19*
X36122Y-43700D03*
X36909Y-43700D03*
X36122Y-42913D03*
X36909Y-42913D03*
G54D14*
X39074Y-44488D03*
G54D19*
X66929Y-40748D03*
X66929Y-40255D03*
X66929Y-39763D03*
G54D14*
X63385Y-40157D03*
X58661Y-34645D03*
X60629Y-35826D03*
X64173Y-34645D03*
X62992Y-34645D03*
X58267Y-36220D03*
X61417Y-36220D03*
X61417Y-35433D03*
X60236Y-37007D03*
X59055Y-40157D03*
X61811Y-40551D03*
X59448Y-37007D03*
X64173Y-38582D03*
X57874Y-40551D03*
X60629Y-39763D03*
X61811Y-37795D03*
X62598Y-37795D03*
G54D19*
X73228Y-31889D03*
X71653Y-31889D03*
X73228Y-31496D03*
X71653Y-31496D03*
X71653Y-32283D03*
X46259Y-46653D03*
G54D14*
X58267Y-37795D03*
X60236Y-34251D03*
X59055Y-35826D03*
X63385Y-35826D03*
X62204Y-36220D03*
X63779Y-37007D03*
X61417Y-38976D03*
X62992Y-38976D03*
X59055Y-38582D03*
X60629Y-38582D03*
X61811Y-38582D03*
X61811Y-38188D03*
X60236Y-38582D03*
X60236Y-38188D03*
X59842Y-36614D03*
X41141Y-42027D03*
X59448Y-37795D03*
X59055Y-35433D03*
G54D20*
X47933Y-43897D02*
X48031Y-43996D01*
X47933Y-43897D02*
X44783Y-43897D01*
X48031Y-44881D02*
X48031Y-43996D01*
X40551Y-43897D02*
X44783Y-43897D01*
X39468Y-44488D02*
X40452Y-44488D01*
X40551Y-44389D02*
X40551Y-43897D01*
X40452Y-44488D02*
X40551Y-44389D01*
X38188Y-43897D02*
X40551Y-43897D01*
X40551Y-42913D02*
X40551Y-43897D01*
X39271Y-42322D02*
X40452Y-42322D01*
X40551Y-42421D02*
X40551Y-42913D01*
X40452Y-42322D02*
X40551Y-42421D01*
X38877Y-42322D02*
X39271Y-42322D01*
G54D10*
G36*
X67893Y-37972D02*
X67716Y-37972D01*
X64173Y-37972D01*
X64130Y-37972D01*
X64130Y-37972D01*
X63385Y-37972D01*
X63342Y-37972D01*
X63342Y-37972D01*
X62727Y-37972D01*
X62781Y-37918D01*
X62814Y-37838D01*
X62814Y-37752D01*
X62782Y-37672D01*
X62721Y-37611D01*
X62641Y-37578D01*
X62555Y-37578D01*
X62475Y-37611D01*
X62414Y-37672D01*
X62401Y-37704D01*
X62388Y-37672D01*
X62327Y-37611D01*
X62247Y-37578D01*
X62161Y-37578D01*
X62082Y-37611D01*
X62021Y-37672D01*
X62007Y-37704D01*
X61994Y-37672D01*
X61933Y-37611D01*
X61854Y-37578D01*
X61768Y-37578D01*
X61688Y-37611D01*
X61627Y-37672D01*
X61594Y-37752D01*
X61594Y-37838D01*
X61627Y-37917D01*
X61681Y-37972D01*
X61417Y-37972D01*
X61374Y-37972D01*
X61374Y-37972D01*
X60629Y-37972D01*
X60587Y-37972D01*
X60586Y-37972D01*
X60236Y-37972D01*
X60193Y-37972D01*
X60193Y-37972D01*
X59842Y-37972D01*
X59799Y-37972D01*
X59799Y-37972D01*
X59665Y-37972D01*
X59665Y-37795D01*
X59665Y-37752D01*
X59665Y-37752D01*
X59665Y-37136D01*
X59719Y-37191D01*
X59799Y-37224D01*
X59885Y-37224D01*
X59965Y-37191D01*
X60025Y-37130D01*
X60039Y-37098D01*
X60052Y-37130D01*
X60113Y-37191D01*
X60192Y-37224D01*
X60279Y-37224D01*
X60358Y-37191D01*
X60419Y-37130D01*
X60433Y-37098D01*
X60446Y-37130D01*
X60507Y-37191D01*
X60586Y-37224D01*
X60672Y-37224D01*
X60752Y-37191D01*
X60813Y-37130D01*
X60846Y-37051D01*
X60846Y-36964D01*
X60813Y-36885D01*
X60752Y-36824D01*
X60673Y-36791D01*
X60587Y-36791D01*
X60507Y-36824D01*
X60446Y-36885D01*
X60433Y-36917D01*
X60419Y-36885D01*
X60359Y-36824D01*
X60279Y-36791D01*
X60193Y-36791D01*
X60113Y-36824D01*
X60052Y-36885D01*
X60039Y-36917D01*
X60026Y-36885D01*
X59965Y-36824D01*
X59933Y-36811D01*
X59965Y-36797D01*
X60025Y-36736D01*
X60059Y-36657D01*
X60059Y-36571D01*
X60026Y-36491D01*
X59971Y-36437D01*
X61417Y-36437D01*
X61460Y-36437D01*
X61460Y-36437D01*
X61682Y-36437D01*
X61627Y-36491D01*
X61594Y-36570D01*
X61594Y-36657D01*
X61627Y-36736D01*
X61688Y-36797D01*
X61720Y-36811D01*
X61688Y-36824D01*
X61627Y-36885D01*
X61614Y-36917D01*
X61600Y-36885D01*
X61540Y-36824D01*
X61460Y-36791D01*
X61374Y-36791D01*
X61294Y-36824D01*
X61233Y-36885D01*
X61200Y-36964D01*
X61200Y-37050D01*
X61233Y-37130D01*
X61294Y-37191D01*
X61374Y-37224D01*
X61460Y-37224D01*
X61539Y-37191D01*
X61600Y-37130D01*
X61614Y-37098D01*
X61627Y-37130D01*
X61688Y-37191D01*
X61767Y-37224D01*
X61853Y-37224D01*
X61933Y-37191D01*
X61994Y-37130D01*
X62027Y-37051D01*
X62027Y-36964D01*
X61994Y-36885D01*
X61933Y-36824D01*
X61901Y-36811D01*
X61933Y-36797D01*
X61994Y-36736D01*
X62027Y-36657D01*
X62027Y-36571D01*
X61994Y-36491D01*
X61940Y-36437D01*
X62204Y-36437D01*
X62247Y-36437D01*
X62247Y-36437D01*
X62381Y-36437D01*
X62381Y-36614D01*
X62381Y-36657D01*
X62381Y-36657D01*
X62381Y-37007D01*
X62381Y-37050D01*
X62381Y-37050D01*
X62381Y-37224D01*
X62598Y-37224D01*
X62641Y-37224D01*
X62641Y-37224D01*
X63779Y-37224D01*
X63822Y-37224D01*
X63822Y-37224D01*
X67893Y-37224D01*
X67893Y-37972D01*
X67893Y-37972D01*
G37*
G54D21*
X67893Y-37972D02*
X67716Y-37972D01*
X64173Y-37972D01*
X64130Y-37972D01*
X64130Y-37972D01*
X63385Y-37972D01*
X63342Y-37972D01*
X63342Y-37972D01*
X62727Y-37972D01*
X62781Y-37918D01*
X62814Y-37838D01*
X62814Y-37752D01*
X62782Y-37672D01*
X62721Y-37611D01*
X62641Y-37578D01*
X62555Y-37578D01*
X62475Y-37611D01*
X62414Y-37672D01*
X62401Y-37704D01*
X62388Y-37672D01*
X62327Y-37611D01*
X62247Y-37578D01*
X62161Y-37578D01*
X62082Y-37611D01*
X62021Y-37672D01*
X62007Y-37704D01*
X61994Y-37672D01*
X61933Y-37611D01*
X61854Y-37578D01*
X61768Y-37578D01*
X61688Y-37611D01*
X61627Y-37672D01*
X61594Y-37752D01*
X61594Y-37838D01*
X61627Y-37917D01*
X61681Y-37972D01*
X61417Y-37972D01*
X61374Y-37972D01*
X61374Y-37972D01*
X60629Y-37972D01*
X60587Y-37972D01*
X60586Y-37972D01*
X60236Y-37972D01*
X60193Y-37972D01*
X60193Y-37972D01*
X59842Y-37972D01*
X59799Y-37972D01*
X59799Y-37972D01*
X59665Y-37972D01*
X59665Y-37795D01*
X59665Y-37752D01*
X59665Y-37752D01*
X59665Y-37136D01*
X59719Y-37191D01*
X59799Y-37224D01*
X59885Y-37224D01*
X59965Y-37191D01*
X60025Y-37130D01*
X60039Y-37098D01*
X60052Y-37130D01*
X60113Y-37191D01*
X60192Y-37224D01*
X60279Y-37224D01*
X60358Y-37191D01*
X60419Y-37130D01*
X60433Y-37098D01*
X60446Y-37130D01*
X60507Y-37191D01*
X60586Y-37224D01*
X60672Y-37224D01*
X60752Y-37191D01*
X60813Y-37130D01*
X60846Y-37051D01*
X60846Y-36964D01*
X60813Y-36885D01*
X60752Y-36824D01*
X60673Y-36791D01*
X60587Y-36791D01*
X60507Y-36824D01*
X60446Y-36885D01*
X60433Y-36917D01*
X60419Y-36885D01*
X60359Y-36824D01*
X60279Y-36791D01*
X60193Y-36791D01*
X60113Y-36824D01*
X60052Y-36885D01*
X60039Y-36917D01*
X60026Y-36885D01*
X59965Y-36824D01*
X59933Y-36811D01*
X59965Y-36797D01*
X60025Y-36736D01*
X60059Y-36657D01*
X60059Y-36571D01*
X60026Y-36491D01*
X59971Y-36437D01*
X61417Y-36437D01*
X61460Y-36437D01*
X61460Y-36437D01*
X61682Y-36437D01*
X61627Y-36491D01*
X61594Y-36570D01*
X61594Y-36657D01*
X61627Y-36736D01*
X61688Y-36797D01*
X61720Y-36811D01*
X61688Y-36824D01*
X61627Y-36885D01*
X61614Y-36917D01*
X61600Y-36885D01*
X61540Y-36824D01*
X61460Y-36791D01*
X61374Y-36791D01*
X61294Y-36824D01*
X61233Y-36885D01*
X61200Y-36964D01*
X61200Y-37050D01*
X61233Y-37130D01*
X61294Y-37191D01*
X61374Y-37224D01*
X61460Y-37224D01*
X61539Y-37191D01*
X61600Y-37130D01*
X61614Y-37098D01*
X61627Y-37130D01*
X61688Y-37191D01*
X61767Y-37224D01*
X61853Y-37224D01*
X61933Y-37191D01*
X61994Y-37130D01*
X62027Y-37051D01*
X62027Y-36964D01*
X61994Y-36885D01*
X61933Y-36824D01*
X61901Y-36811D01*
X61933Y-36797D01*
X61994Y-36736D01*
X62027Y-36657D01*
X62027Y-36571D01*
X61994Y-36491D01*
X61940Y-36437D01*
X62204Y-36437D01*
X62247Y-36437D01*
X62247Y-36437D01*
X62381Y-36437D01*
X62381Y-36614D01*
X62381Y-36657D01*
X62381Y-36657D01*
X62381Y-37007D01*
X62381Y-37050D01*
X62381Y-37050D01*
X62381Y-37224D01*
X62598Y-37224D01*
X62641Y-37224D01*
X62641Y-37224D01*
X63779Y-37224D01*
X63822Y-37224D01*
X63822Y-37224D01*
X67893Y-37224D01*
X67893Y-37972D01*
G54D10*
G36*
X48405Y-32263D02*
X46437Y-32263D01*
X46437Y-35807D01*
X45137Y-35807D01*
X45137Y-34102D01*
X45098Y-34008D01*
X45027Y-33936D01*
X44933Y-33897D01*
X44831Y-33897D01*
X44737Y-33936D01*
X44665Y-34008D01*
X44665Y-32986D01*
X44638Y-32921D01*
X44591Y-32873D01*
X44638Y-32826D01*
X44665Y-32761D01*
X44665Y-32691D01*
X44638Y-32626D01*
X44588Y-32576D01*
X44523Y-32549D01*
X44453Y-32549D01*
X44387Y-32576D01*
X44338Y-32625D01*
X44311Y-32690D01*
X44310Y-32761D01*
X44337Y-32826D01*
X44385Y-32874D01*
X44338Y-32921D01*
X44311Y-32986D01*
X44310Y-33056D01*
X44337Y-33121D01*
X44387Y-33171D01*
X44452Y-33198D01*
X44523Y-33198D01*
X44588Y-33171D01*
X44638Y-33122D01*
X44665Y-33057D01*
X44665Y-32986D01*
X44665Y-34008D01*
X44665Y-34008D01*
X44626Y-34102D01*
X44625Y-34204D01*
X44664Y-34298D01*
X44736Y-34370D01*
X44830Y-34409D01*
X44932Y-34409D01*
X45026Y-34370D01*
X45098Y-34298D01*
X45137Y-34204D01*
X45137Y-34102D01*
X45137Y-35807D01*
X42145Y-35807D01*
X42145Y-30728D01*
X48405Y-30728D01*
X48405Y-32263D01*
X48405Y-32263D01*
G37*
G54D21*
X48405Y-32263D02*
X46437Y-32263D01*
X46437Y-35807D01*
X45137Y-35807D01*
X45137Y-34102D01*
X45098Y-34008D01*
X45027Y-33936D01*
X44933Y-33897D01*
X44831Y-33897D01*
X44737Y-33936D01*
X44665Y-34008D01*
X44665Y-32986D01*
X44638Y-32921D01*
X44591Y-32873D01*
X44638Y-32826D01*
X44665Y-32761D01*
X44665Y-32691D01*
X44638Y-32626D01*
X44588Y-32576D01*
X44523Y-32549D01*
X44453Y-32549D01*
X44387Y-32576D01*
X44338Y-32625D01*
X44311Y-32690D01*
X44310Y-32761D01*
X44337Y-32826D01*
X44385Y-32874D01*
X44338Y-32921D01*
X44311Y-32986D01*
X44310Y-33056D01*
X44337Y-33121D01*
X44387Y-33171D01*
X44452Y-33198D01*
X44523Y-33198D01*
X44588Y-33171D01*
X44638Y-33122D01*
X44665Y-33057D01*
X44665Y-32986D01*
X44665Y-34008D01*
X44665Y-34008D01*
X44626Y-34102D01*
X44625Y-34204D01*
X44664Y-34298D01*
X44736Y-34370D01*
X44830Y-34409D01*
X44932Y-34409D01*
X45026Y-34370D01*
X45098Y-34298D01*
X45137Y-34204D01*
X45137Y-34102D01*
X45137Y-35807D01*
X42145Y-35807D01*
X42145Y-30728D01*
X48405Y-30728D01*
X48405Y-32263D01*
G54D10*
G36*
X53129Y-39547D02*
X52716Y-39547D01*
X52716Y-39220D01*
X52716Y-37646D01*
X52677Y-37552D01*
X52605Y-37480D01*
X52511Y-37440D01*
X52409Y-37440D01*
X52315Y-37479D01*
X52243Y-37551D01*
X52204Y-37645D01*
X52204Y-37747D01*
X52243Y-37841D01*
X52315Y-37913D01*
X52409Y-37952D01*
X52511Y-37952D01*
X52605Y-37913D01*
X52677Y-37841D01*
X52716Y-37747D01*
X52716Y-37646D01*
X52716Y-39220D01*
X52677Y-39126D01*
X52605Y-39054D01*
X52511Y-39015D01*
X52409Y-39015D01*
X52315Y-39054D01*
X52243Y-39126D01*
X52204Y-39220D01*
X52204Y-39322D01*
X52243Y-39416D01*
X52315Y-39488D01*
X52409Y-39527D01*
X52511Y-39527D01*
X52605Y-39488D01*
X52677Y-39416D01*
X52716Y-39322D01*
X52716Y-39220D01*
X52716Y-39547D01*
X51633Y-39547D01*
X51633Y-37350D01*
X51633Y-36366D01*
X51595Y-36272D01*
X51523Y-36200D01*
X51429Y-36161D01*
X51358Y-36161D01*
X51358Y-33823D01*
X51358Y-33429D01*
X51358Y-33035D01*
X51331Y-32970D01*
X51281Y-32920D01*
X51216Y-32893D01*
X51146Y-32893D01*
X51080Y-32920D01*
X51030Y-32970D01*
X51003Y-33035D01*
X51003Y-33105D01*
X51030Y-33171D01*
X51080Y-33220D01*
X51145Y-33248D01*
X51216Y-33248D01*
X51281Y-33221D01*
X51331Y-33171D01*
X51358Y-33106D01*
X51358Y-33035D01*
X51358Y-33429D01*
X51331Y-33364D01*
X51281Y-33314D01*
X51216Y-33287D01*
X51146Y-33287D01*
X51080Y-33314D01*
X51030Y-33364D01*
X51003Y-33429D01*
X51003Y-33499D01*
X51030Y-33564D01*
X51080Y-33614D01*
X51145Y-33641D01*
X51216Y-33641D01*
X51281Y-33614D01*
X51331Y-33565D01*
X51358Y-33499D01*
X51358Y-33429D01*
X51358Y-33823D01*
X51331Y-33758D01*
X51281Y-33708D01*
X51216Y-33681D01*
X51146Y-33681D01*
X51080Y-33707D01*
X51030Y-33757D01*
X51003Y-33822D01*
X51003Y-33893D01*
X51030Y-33958D01*
X51080Y-34008D01*
X51145Y-34035D01*
X51216Y-34035D01*
X51281Y-34008D01*
X51331Y-33958D01*
X51358Y-33893D01*
X51358Y-33823D01*
X51358Y-36161D01*
X51327Y-36161D01*
X51233Y-36200D01*
X51161Y-36272D01*
X51122Y-36366D01*
X51122Y-36468D01*
X51160Y-36562D01*
X51232Y-36634D01*
X51326Y-36673D01*
X51428Y-36673D01*
X51522Y-36634D01*
X51594Y-36562D01*
X51633Y-36468D01*
X51633Y-36366D01*
X51633Y-37350D01*
X51595Y-37256D01*
X51523Y-37184D01*
X51429Y-37145D01*
X51327Y-37145D01*
X51233Y-37184D01*
X51161Y-37256D01*
X51122Y-37350D01*
X51122Y-37452D01*
X51160Y-37546D01*
X51232Y-37618D01*
X51326Y-37657D01*
X51428Y-37657D01*
X51522Y-37618D01*
X51594Y-37546D01*
X51633Y-37452D01*
X51633Y-37350D01*
X51633Y-39547D01*
X50964Y-39547D01*
X50964Y-33823D01*
X50964Y-33429D01*
X50964Y-33035D01*
X50937Y-32970D01*
X50887Y-32920D01*
X50822Y-32893D01*
X50752Y-32893D01*
X50687Y-32920D01*
X50637Y-32970D01*
X50610Y-33035D01*
X50610Y-33105D01*
X50637Y-33171D01*
X50686Y-33220D01*
X50752Y-33248D01*
X50822Y-33248D01*
X50887Y-33221D01*
X50937Y-33171D01*
X50964Y-33106D01*
X50964Y-33035D01*
X50964Y-33429D01*
X50937Y-33364D01*
X50887Y-33314D01*
X50822Y-33287D01*
X50752Y-33287D01*
X50687Y-33314D01*
X50637Y-33364D01*
X50610Y-33429D01*
X50610Y-33499D01*
X50637Y-33564D01*
X50686Y-33614D01*
X50752Y-33641D01*
X50822Y-33641D01*
X50887Y-33614D01*
X50937Y-33565D01*
X50964Y-33499D01*
X50964Y-33429D01*
X50964Y-33823D01*
X50937Y-33758D01*
X50887Y-33708D01*
X50822Y-33681D01*
X50752Y-33681D01*
X50687Y-33707D01*
X50637Y-33757D01*
X50610Y-33822D01*
X50610Y-33893D01*
X50637Y-33958D01*
X50686Y-34008D01*
X50752Y-34035D01*
X50822Y-34035D01*
X50887Y-34008D01*
X50937Y-33958D01*
X50964Y-33893D01*
X50964Y-33823D01*
X50964Y-39547D01*
X50570Y-39547D01*
X50570Y-33823D01*
X50570Y-33429D01*
X50570Y-33035D01*
X50543Y-32970D01*
X50494Y-32920D01*
X50452Y-32903D01*
X50452Y-29476D01*
X50413Y-29382D01*
X50341Y-29310D01*
X50247Y-29271D01*
X50146Y-29271D01*
X50052Y-29310D01*
X49980Y-29382D01*
X49940Y-29476D01*
X49940Y-29578D01*
X49979Y-29672D01*
X50051Y-29744D01*
X50145Y-29783D01*
X50247Y-29783D01*
X50341Y-29744D01*
X50413Y-29672D01*
X50452Y-29578D01*
X50452Y-29476D01*
X50452Y-32903D01*
X50429Y-32893D01*
X50413Y-32893D01*
X50413Y-31650D01*
X50380Y-31570D01*
X50319Y-31509D01*
X50240Y-31476D01*
X50153Y-31476D01*
X50074Y-31509D01*
X50013Y-31570D01*
X49980Y-31649D01*
X49980Y-31735D01*
X50013Y-31815D01*
X50074Y-31876D01*
X50153Y-31909D01*
X50239Y-31909D01*
X50319Y-31876D01*
X50380Y-31815D01*
X50413Y-31736D01*
X50413Y-31650D01*
X50413Y-32893D01*
X50358Y-32893D01*
X50293Y-32920D01*
X50243Y-32970D01*
X50216Y-33035D01*
X50216Y-33105D01*
X50243Y-33171D01*
X50293Y-33220D01*
X50358Y-33248D01*
X50428Y-33248D01*
X50493Y-33221D01*
X50543Y-33171D01*
X50570Y-33106D01*
X50570Y-33035D01*
X50570Y-33429D01*
X50543Y-33364D01*
X50494Y-33314D01*
X50429Y-33287D01*
X50358Y-33287D01*
X50293Y-33314D01*
X50243Y-33364D01*
X50216Y-33429D01*
X50216Y-33499D01*
X50243Y-33564D01*
X50293Y-33614D01*
X50358Y-33641D01*
X50428Y-33641D01*
X50493Y-33614D01*
X50543Y-33565D01*
X50570Y-33499D01*
X50570Y-33429D01*
X50570Y-33823D01*
X50543Y-33758D01*
X50494Y-33708D01*
X50429Y-33681D01*
X50358Y-33681D01*
X50293Y-33707D01*
X50243Y-33757D01*
X50216Y-33822D01*
X50216Y-33893D01*
X50243Y-33958D01*
X50293Y-34008D01*
X50358Y-34035D01*
X50428Y-34035D01*
X50493Y-34008D01*
X50543Y-33958D01*
X50570Y-33893D01*
X50570Y-33823D01*
X50570Y-39547D01*
X49862Y-39547D01*
X49862Y-34398D01*
X49823Y-34304D01*
X49751Y-34231D01*
X49657Y-34192D01*
X49555Y-34192D01*
X49461Y-34231D01*
X49389Y-34303D01*
X49350Y-34397D01*
X49350Y-34499D01*
X49389Y-34593D01*
X49461Y-34665D01*
X49555Y-34704D01*
X49656Y-34704D01*
X49751Y-34665D01*
X49823Y-34593D01*
X49862Y-34499D01*
X49862Y-34398D01*
X49862Y-39547D01*
X48877Y-39547D01*
X48877Y-35874D01*
X48839Y-35780D01*
X48767Y-35708D01*
X48673Y-35669D01*
X48571Y-35669D01*
X48477Y-35708D01*
X48405Y-35780D01*
X48366Y-35874D01*
X48366Y-35975D01*
X48404Y-36069D01*
X48476Y-36142D01*
X48570Y-36181D01*
X48672Y-36181D01*
X48766Y-36142D01*
X48838Y-36070D01*
X48877Y-35976D01*
X48877Y-35874D01*
X48877Y-39547D01*
X47657Y-39547D01*
X47657Y-36109D01*
X47689Y-36142D01*
X47783Y-36181D01*
X47885Y-36181D01*
X47979Y-36142D01*
X48051Y-36070D01*
X48090Y-35976D01*
X48090Y-35874D01*
X48051Y-35780D01*
X47979Y-35708D01*
X47885Y-35669D01*
X47783Y-35669D01*
X47689Y-35708D01*
X47657Y-35740D01*
X47657Y-32381D01*
X48523Y-32381D01*
X48523Y-30610D01*
X48484Y-30610D01*
X48484Y-29476D01*
X48445Y-29382D01*
X48373Y-29310D01*
X48279Y-29271D01*
X48177Y-29271D01*
X48083Y-29310D01*
X48011Y-29382D01*
X47972Y-29476D01*
X47972Y-29578D01*
X48011Y-29672D01*
X48083Y-29744D01*
X48177Y-29783D01*
X48279Y-29783D01*
X48373Y-29744D01*
X48445Y-29672D01*
X48484Y-29578D01*
X48484Y-29476D01*
X48484Y-30610D01*
X47657Y-30610D01*
X47657Y-28759D01*
X53129Y-28759D01*
X53129Y-29271D01*
X53098Y-29271D01*
X53004Y-29310D01*
X52932Y-29382D01*
X52893Y-29476D01*
X52893Y-29578D01*
X52932Y-29672D01*
X52984Y-29724D01*
X52932Y-29776D01*
X52893Y-29870D01*
X52893Y-29971D01*
X52932Y-30066D01*
X52984Y-30118D01*
X52932Y-30169D01*
X52893Y-30263D01*
X52893Y-30365D01*
X52932Y-30459D01*
X53004Y-30531D01*
X53098Y-30570D01*
X53129Y-30570D01*
X53129Y-33236D01*
X53103Y-33247D01*
X53031Y-33319D01*
X52992Y-33413D01*
X52992Y-33515D01*
X53030Y-33609D01*
X53102Y-33681D01*
X53129Y-33692D01*
X53129Y-39547D01*
X53129Y-39547D01*
G37*
G54D21*
X53129Y-39547D02*
X52716Y-39547D01*
X52716Y-39220D01*
X52716Y-37646D01*
X52677Y-37552D01*
X52605Y-37480D01*
X52511Y-37440D01*
X52409Y-37440D01*
X52315Y-37479D01*
X52243Y-37551D01*
X52204Y-37645D01*
X52204Y-37747D01*
X52243Y-37841D01*
X52315Y-37913D01*
X52409Y-37952D01*
X52511Y-37952D01*
X52605Y-37913D01*
X52677Y-37841D01*
X52716Y-37747D01*
X52716Y-37646D01*
X52716Y-39220D01*
X52677Y-39126D01*
X52605Y-39054D01*
X52511Y-39015D01*
X52409Y-39015D01*
X52315Y-39054D01*
X52243Y-39126D01*
X52204Y-39220D01*
X52204Y-39322D01*
X52243Y-39416D01*
X52315Y-39488D01*
X52409Y-39527D01*
X52511Y-39527D01*
X52605Y-39488D01*
X52677Y-39416D01*
X52716Y-39322D01*
X52716Y-39220D01*
X52716Y-39547D01*
X51633Y-39547D01*
X51633Y-37350D01*
X51633Y-36366D01*
X51595Y-36272D01*
X51523Y-36200D01*
X51429Y-36161D01*
X51358Y-36161D01*
X51358Y-33823D01*
X51358Y-33429D01*
X51358Y-33035D01*
X51331Y-32970D01*
X51281Y-32920D01*
X51216Y-32893D01*
X51146Y-32893D01*
X51080Y-32920D01*
X51030Y-32970D01*
X51003Y-33035D01*
X51003Y-33105D01*
X51030Y-33171D01*
X51080Y-33220D01*
X51145Y-33248D01*
X51216Y-33248D01*
X51281Y-33221D01*
X51331Y-33171D01*
X51358Y-33106D01*
X51358Y-33035D01*
X51358Y-33429D01*
X51331Y-33364D01*
X51281Y-33314D01*
X51216Y-33287D01*
X51146Y-33287D01*
X51080Y-33314D01*
X51030Y-33364D01*
X51003Y-33429D01*
X51003Y-33499D01*
X51030Y-33564D01*
X51080Y-33614D01*
X51145Y-33641D01*
X51216Y-33641D01*
X51281Y-33614D01*
X51331Y-33565D01*
X51358Y-33499D01*
X51358Y-33429D01*
X51358Y-33823D01*
X51331Y-33758D01*
X51281Y-33708D01*
X51216Y-33681D01*
X51146Y-33681D01*
X51080Y-33707D01*
X51030Y-33757D01*
X51003Y-33822D01*
X51003Y-33893D01*
X51030Y-33958D01*
X51080Y-34008D01*
X51145Y-34035D01*
X51216Y-34035D01*
X51281Y-34008D01*
X51331Y-33958D01*
X51358Y-33893D01*
X51358Y-33823D01*
X51358Y-36161D01*
X51327Y-36161D01*
X51233Y-36200D01*
X51161Y-36272D01*
X51122Y-36366D01*
X51122Y-36468D01*
X51160Y-36562D01*
X51232Y-36634D01*
X51326Y-36673D01*
X51428Y-36673D01*
X51522Y-36634D01*
X51594Y-36562D01*
X51633Y-36468D01*
X51633Y-36366D01*
X51633Y-37350D01*
X51595Y-37256D01*
X51523Y-37184D01*
X51429Y-37145D01*
X51327Y-37145D01*
X51233Y-37184D01*
X51161Y-37256D01*
X51122Y-37350D01*
X51122Y-37452D01*
X51160Y-37546D01*
X51232Y-37618D01*
X51326Y-37657D01*
X51428Y-37657D01*
X51522Y-37618D01*
X51594Y-37546D01*
X51633Y-37452D01*
X51633Y-37350D01*
X51633Y-39547D01*
X50964Y-39547D01*
X50964Y-33823D01*
X50964Y-33429D01*
X50964Y-33035D01*
X50937Y-32970D01*
X50887Y-32920D01*
X50822Y-32893D01*
X50752Y-32893D01*
X50687Y-32920D01*
X50637Y-32970D01*
X50610Y-33035D01*
X50610Y-33105D01*
X50637Y-33171D01*
X50686Y-33220D01*
X50752Y-33248D01*
X50822Y-33248D01*
X50887Y-33221D01*
X50937Y-33171D01*
X50964Y-33106D01*
X50964Y-33035D01*
X50964Y-33429D01*
X50937Y-33364D01*
X50887Y-33314D01*
X50822Y-33287D01*
X50752Y-33287D01*
X50687Y-33314D01*
X50637Y-33364D01*
X50610Y-33429D01*
X50610Y-33499D01*
X50637Y-33564D01*
X50686Y-33614D01*
X50752Y-33641D01*
X50822Y-33641D01*
X50887Y-33614D01*
X50937Y-33565D01*
X50964Y-33499D01*
X50964Y-33429D01*
X50964Y-33823D01*
X50937Y-33758D01*
X50887Y-33708D01*
X50822Y-33681D01*
X50752Y-33681D01*
X50687Y-33707D01*
X50637Y-33757D01*
X50610Y-33822D01*
X50610Y-33893D01*
X50637Y-33958D01*
X50686Y-34008D01*
X50752Y-34035D01*
X50822Y-34035D01*
X50887Y-34008D01*
X50937Y-33958D01*
X50964Y-33893D01*
X50964Y-33823D01*
X50964Y-39547D01*
X50570Y-39547D01*
X50570Y-33823D01*
X50570Y-33429D01*
X50570Y-33035D01*
X50543Y-32970D01*
X50494Y-32920D01*
X50452Y-32903D01*
X50452Y-29476D01*
X50413Y-29382D01*
X50341Y-29310D01*
X50247Y-29271D01*
X50146Y-29271D01*
X50052Y-29310D01*
X49980Y-29382D01*
X49940Y-29476D01*
X49940Y-29578D01*
X49979Y-29672D01*
X50051Y-29744D01*
X50145Y-29783D01*
X50247Y-29783D01*
X50341Y-29744D01*
X50413Y-29672D01*
X50452Y-29578D01*
X50452Y-29476D01*
X50452Y-32903D01*
X50429Y-32893D01*
X50413Y-32893D01*
X50413Y-31650D01*
X50380Y-31570D01*
X50319Y-31509D01*
X50240Y-31476D01*
X50153Y-31476D01*
X50074Y-31509D01*
X50013Y-31570D01*
X49980Y-31649D01*
X49980Y-31735D01*
X50013Y-31815D01*
X50074Y-31876D01*
X50153Y-31909D01*
X50239Y-31909D01*
X50319Y-31876D01*
X50380Y-31815D01*
X50413Y-31736D01*
X50413Y-31650D01*
X50413Y-32893D01*
X50358Y-32893D01*
X50293Y-32920D01*
X50243Y-32970D01*
X50216Y-33035D01*
X50216Y-33105D01*
X50243Y-33171D01*
X50293Y-33220D01*
X50358Y-33248D01*
X50428Y-33248D01*
X50493Y-33221D01*
X50543Y-33171D01*
X50570Y-33106D01*
X50570Y-33035D01*
X50570Y-33429D01*
X50543Y-33364D01*
X50494Y-33314D01*
X50429Y-33287D01*
X50358Y-33287D01*
X50293Y-33314D01*
X50243Y-33364D01*
X50216Y-33429D01*
X50216Y-33499D01*
X50243Y-33564D01*
X50293Y-33614D01*
X50358Y-33641D01*
X50428Y-33641D01*
X50493Y-33614D01*
X50543Y-33565D01*
X50570Y-33499D01*
X50570Y-33429D01*
X50570Y-33823D01*
X50543Y-33758D01*
X50494Y-33708D01*
X50429Y-33681D01*
X50358Y-33681D01*
X50293Y-33707D01*
X50243Y-33757D01*
X50216Y-33822D01*
X50216Y-33893D01*
X50243Y-33958D01*
X50293Y-34008D01*
X50358Y-34035D01*
X50428Y-34035D01*
X50493Y-34008D01*
X50543Y-33958D01*
X50570Y-33893D01*
X50570Y-33823D01*
X50570Y-39547D01*
X49862Y-39547D01*
X49862Y-34398D01*
X49823Y-34304D01*
X49751Y-34231D01*
X49657Y-34192D01*
X49555Y-34192D01*
X49461Y-34231D01*
X49389Y-34303D01*
X49350Y-34397D01*
X49350Y-34499D01*
X49389Y-34593D01*
X49461Y-34665D01*
X49555Y-34704D01*
X49656Y-34704D01*
X49751Y-34665D01*
X49823Y-34593D01*
X49862Y-34499D01*
X49862Y-34398D01*
X49862Y-39547D01*
X48877Y-39547D01*
X48877Y-35874D01*
X48839Y-35780D01*
X48767Y-35708D01*
X48673Y-35669D01*
X48571Y-35669D01*
X48477Y-35708D01*
X48405Y-35780D01*
X48366Y-35874D01*
X48366Y-35975D01*
X48404Y-36069D01*
X48476Y-36142D01*
X48570Y-36181D01*
X48672Y-36181D01*
X48766Y-36142D01*
X48838Y-36070D01*
X48877Y-35976D01*
X48877Y-35874D01*
X48877Y-39547D01*
X47657Y-39547D01*
X47657Y-36109D01*
X47689Y-36142D01*
X47783Y-36181D01*
X47885Y-36181D01*
X47979Y-36142D01*
X48051Y-36070D01*
X48090Y-35976D01*
X48090Y-35874D01*
X48051Y-35780D01*
X47979Y-35708D01*
X47885Y-35669D01*
X47783Y-35669D01*
X47689Y-35708D01*
X47657Y-35740D01*
X47657Y-32381D01*
X48523Y-32381D01*
X48523Y-30610D01*
X48484Y-30610D01*
X48484Y-29476D01*
X48445Y-29382D01*
X48373Y-29310D01*
X48279Y-29271D01*
X48177Y-29271D01*
X48083Y-29310D01*
X48011Y-29382D01*
X47972Y-29476D01*
X47972Y-29578D01*
X48011Y-29672D01*
X48083Y-29744D01*
X48177Y-29783D01*
X48279Y-29783D01*
X48373Y-29744D01*
X48445Y-29672D01*
X48484Y-29578D01*
X48484Y-29476D01*
X48484Y-30610D01*
X47657Y-30610D01*
X47657Y-28759D01*
X53129Y-28759D01*
X53129Y-29271D01*
X53098Y-29271D01*
X53004Y-29310D01*
X52932Y-29382D01*
X52893Y-29476D01*
X52893Y-29578D01*
X52932Y-29672D01*
X52984Y-29724D01*
X52932Y-29776D01*
X52893Y-29870D01*
X52893Y-29971D01*
X52932Y-30066D01*
X52984Y-30118D01*
X52932Y-30169D01*
X52893Y-30263D01*
X52893Y-30365D01*
X52932Y-30459D01*
X53004Y-30531D01*
X53098Y-30570D01*
X53129Y-30570D01*
X53129Y-33236D01*
X53103Y-33247D01*
X53031Y-33319D01*
X52992Y-33413D01*
X52992Y-33515D01*
X53030Y-33609D01*
X53102Y-33681D01*
X53129Y-33692D01*
X53129Y-39547D01*
G54D10*
G36*
X75767Y-36594D02*
X75452Y-36594D01*
X75452Y-36169D01*
X75413Y-36075D01*
X75361Y-36023D01*
X75413Y-35971D01*
X75452Y-35877D01*
X75452Y-35776D01*
X75413Y-35682D01*
X75341Y-35609D01*
X75247Y-35570D01*
X75146Y-35570D01*
X75052Y-35609D01*
X74999Y-35661D01*
X74948Y-35609D01*
X74854Y-35570D01*
X74752Y-35570D01*
X74658Y-35609D01*
X74606Y-35661D01*
X74554Y-35609D01*
X74460Y-35570D01*
X74358Y-35570D01*
X74264Y-35609D01*
X74192Y-35681D01*
X74153Y-35775D01*
X74153Y-35877D01*
X74192Y-35971D01*
X74244Y-36023D01*
X74192Y-36075D01*
X74153Y-36169D01*
X74153Y-36271D01*
X74192Y-36365D01*
X74264Y-36437D01*
X74358Y-36476D01*
X74460Y-36476D01*
X74554Y-36437D01*
X74606Y-36385D01*
X74658Y-36437D01*
X74752Y-36476D01*
X74853Y-36476D01*
X74947Y-36437D01*
X75000Y-36385D01*
X75051Y-36437D01*
X75145Y-36476D01*
X75247Y-36476D01*
X75341Y-36437D01*
X75413Y-36365D01*
X75452Y-36271D01*
X75452Y-36169D01*
X75452Y-36594D01*
X73779Y-36594D01*
X73779Y-33709D01*
X73740Y-33615D01*
X73688Y-33562D01*
X73740Y-33511D01*
X73779Y-33417D01*
X73779Y-33315D01*
X73740Y-33221D01*
X73688Y-33169D01*
X73740Y-33117D01*
X73779Y-33023D01*
X73779Y-32921D01*
X73740Y-32827D01*
X73668Y-32755D01*
X73574Y-32716D01*
X73484Y-32716D01*
X73484Y-31839D01*
X73445Y-31744D01*
X73393Y-31692D01*
X73445Y-31641D01*
X73484Y-31547D01*
X73484Y-31445D01*
X73445Y-31351D01*
X73373Y-31279D01*
X73279Y-31240D01*
X73177Y-31240D01*
X73083Y-31278D01*
X73011Y-31350D01*
X72972Y-31444D01*
X72972Y-31546D01*
X73011Y-31640D01*
X73063Y-31692D01*
X73011Y-31744D01*
X72972Y-31838D01*
X72972Y-31940D01*
X73011Y-32034D01*
X73083Y-32106D01*
X73177Y-32145D01*
X73279Y-32145D01*
X73373Y-32106D01*
X73445Y-32034D01*
X73484Y-31940D01*
X73484Y-31839D01*
X73484Y-32716D01*
X73472Y-32716D01*
X73378Y-32755D01*
X73326Y-32807D01*
X73275Y-32755D01*
X73181Y-32716D01*
X73079Y-32716D01*
X72985Y-32755D01*
X72913Y-32827D01*
X72874Y-32921D01*
X72873Y-33023D01*
X72912Y-33117D01*
X72964Y-33169D01*
X72913Y-33220D01*
X72874Y-33315D01*
X72873Y-33416D01*
X72912Y-33510D01*
X72964Y-33563D01*
X72913Y-33614D01*
X72874Y-33708D01*
X72873Y-33810D01*
X72912Y-33904D01*
X72984Y-33976D01*
X73078Y-34015D01*
X73180Y-34015D01*
X73274Y-33976D01*
X73326Y-33924D01*
X73378Y-33976D01*
X73472Y-34015D01*
X73574Y-34015D01*
X73668Y-33976D01*
X73740Y-33904D01*
X73779Y-33810D01*
X73779Y-33709D01*
X73779Y-36594D01*
X72854Y-36594D01*
X72854Y-31854D01*
X72827Y-31789D01*
X72777Y-31739D01*
X72755Y-31730D01*
X72755Y-29976D01*
X72723Y-29897D01*
X72662Y-29836D01*
X72582Y-29803D01*
X72496Y-29803D01*
X72416Y-29836D01*
X72355Y-29896D01*
X72322Y-29976D01*
X72322Y-30062D01*
X72355Y-30142D01*
X72416Y-30203D01*
X72496Y-30236D01*
X72582Y-30236D01*
X72661Y-30203D01*
X72722Y-30142D01*
X72755Y-30062D01*
X72755Y-29976D01*
X72755Y-31730D01*
X72712Y-31712D01*
X72642Y-31712D01*
X72576Y-31739D01*
X72559Y-31757D01*
X72541Y-31739D01*
X72476Y-31712D01*
X72405Y-31712D01*
X72340Y-31739D01*
X72322Y-31757D01*
X72305Y-31739D01*
X72240Y-31712D01*
X72169Y-31712D01*
X72106Y-31738D01*
X72106Y-29476D01*
X72067Y-29382D01*
X71995Y-29310D01*
X71901Y-29271D01*
X71799Y-29271D01*
X71705Y-29310D01*
X71633Y-29382D01*
X71594Y-29476D01*
X71594Y-29578D01*
X71633Y-29672D01*
X71705Y-29744D01*
X71799Y-29783D01*
X71901Y-29783D01*
X71995Y-29744D01*
X72067Y-29672D01*
X72106Y-29578D01*
X72106Y-29476D01*
X72106Y-31738D01*
X72104Y-31739D01*
X72054Y-31789D01*
X72027Y-31854D01*
X72027Y-31924D01*
X72054Y-31989D01*
X72104Y-32039D01*
X72169Y-32066D01*
X72239Y-32066D01*
X72304Y-32040D01*
X72322Y-32022D01*
X72340Y-32039D01*
X72405Y-32066D01*
X72476Y-32066D01*
X72541Y-32040D01*
X72559Y-32022D01*
X72576Y-32039D01*
X72641Y-32066D01*
X72712Y-32066D01*
X72777Y-32040D01*
X72827Y-31990D01*
X72854Y-31925D01*
X72854Y-31854D01*
X72854Y-36594D01*
X71909Y-36594D01*
X71909Y-32232D01*
X71870Y-32138D01*
X71818Y-32086D01*
X71870Y-32034D01*
X71909Y-31940D01*
X71909Y-31839D01*
X71870Y-31744D01*
X71818Y-31692D01*
X71870Y-31641D01*
X71909Y-31547D01*
X71909Y-31445D01*
X71870Y-31351D01*
X71798Y-31279D01*
X71704Y-31240D01*
X71602Y-31240D01*
X71508Y-31278D01*
X71436Y-31350D01*
X71397Y-31444D01*
X71397Y-31546D01*
X71436Y-31640D01*
X71488Y-31692D01*
X71436Y-31744D01*
X71397Y-31838D01*
X71397Y-31940D01*
X71436Y-32034D01*
X71488Y-32086D01*
X71436Y-32138D01*
X71397Y-32232D01*
X71397Y-32334D01*
X71436Y-32428D01*
X71508Y-32500D01*
X71602Y-32539D01*
X71704Y-32539D01*
X71798Y-32500D01*
X71870Y-32428D01*
X71909Y-32334D01*
X71909Y-32232D01*
X71909Y-36594D01*
X71028Y-36594D01*
X71028Y-29726D01*
X70918Y-29460D01*
X70715Y-29257D01*
X70449Y-29146D01*
X70161Y-29146D01*
X69895Y-29256D01*
X69692Y-29459D01*
X69581Y-29725D01*
X69581Y-30013D01*
X69691Y-30279D01*
X69894Y-30483D01*
X70160Y-30593D01*
X70448Y-30593D01*
X70714Y-30483D01*
X70918Y-30280D01*
X71028Y-30014D01*
X71028Y-29726D01*
X71028Y-36594D01*
X70295Y-36594D01*
X70295Y-31453D01*
X70262Y-31373D01*
X70201Y-31312D01*
X70122Y-31279D01*
X70035Y-31279D01*
X69956Y-31312D01*
X69895Y-31373D01*
X69862Y-31452D01*
X69862Y-31538D01*
X69895Y-31618D01*
X69955Y-31679D01*
X70035Y-31712D01*
X70121Y-31712D01*
X70201Y-31679D01*
X70262Y-31618D01*
X70295Y-31539D01*
X70295Y-31453D01*
X70295Y-36594D01*
X68738Y-36594D01*
X68738Y-30284D01*
X68738Y-29284D01*
X68672Y-29125D01*
X68550Y-29003D01*
X68391Y-28937D01*
X68219Y-28936D01*
X68060Y-29002D01*
X67938Y-29124D01*
X67872Y-29283D01*
X67871Y-29455D01*
X67937Y-29615D01*
X68059Y-29737D01*
X68218Y-29803D01*
X68390Y-29803D01*
X68550Y-29737D01*
X68672Y-29615D01*
X68738Y-29456D01*
X68738Y-29284D01*
X68738Y-30284D01*
X68672Y-30125D01*
X68550Y-30003D01*
X68391Y-29937D01*
X68219Y-29936D01*
X68060Y-30002D01*
X67938Y-30124D01*
X67872Y-30283D01*
X67871Y-30455D01*
X67937Y-30615D01*
X68059Y-30737D01*
X68218Y-30803D01*
X68390Y-30803D01*
X68550Y-30737D01*
X68672Y-30615D01*
X68738Y-30456D01*
X68738Y-30284D01*
X68738Y-36594D01*
X68563Y-36594D01*
X68563Y-34890D01*
X68524Y-34796D01*
X68452Y-34724D01*
X68358Y-34685D01*
X68256Y-34684D01*
X68162Y-34723D01*
X68090Y-34795D01*
X68051Y-34889D01*
X68051Y-34991D01*
X68090Y-35085D01*
X68161Y-35157D01*
X68255Y-35196D01*
X68357Y-35196D01*
X68451Y-35158D01*
X68523Y-35086D01*
X68562Y-34992D01*
X68563Y-34890D01*
X68563Y-36594D01*
X67972Y-36594D01*
X67972Y-35382D01*
X67933Y-35288D01*
X67861Y-35216D01*
X67767Y-35177D01*
X67741Y-35177D01*
X67741Y-30434D01*
X67741Y-29434D01*
X67733Y-29262D01*
X67684Y-29143D01*
X67626Y-29104D01*
X67570Y-29160D01*
X67570Y-29048D01*
X67531Y-28991D01*
X67369Y-28933D01*
X67197Y-28941D01*
X67078Y-28991D01*
X67039Y-29048D01*
X67305Y-29314D01*
X67570Y-29048D01*
X67570Y-29160D01*
X67360Y-29370D01*
X67626Y-29635D01*
X67684Y-29596D01*
X67741Y-29434D01*
X67741Y-30434D01*
X67733Y-30262D01*
X67684Y-30143D01*
X67626Y-30104D01*
X67570Y-30160D01*
X67570Y-30048D01*
X67570Y-29691D01*
X67305Y-29425D01*
X67249Y-29481D01*
X67249Y-29370D01*
X66983Y-29104D01*
X66926Y-29143D01*
X66868Y-29305D01*
X66876Y-29477D01*
X66926Y-29596D01*
X66983Y-29635D01*
X67249Y-29370D01*
X67249Y-29481D01*
X67039Y-29691D01*
X67078Y-29749D01*
X67240Y-29806D01*
X67412Y-29798D01*
X67531Y-29749D01*
X67570Y-29691D01*
X67570Y-30048D01*
X67531Y-29991D01*
X67369Y-29933D01*
X67197Y-29941D01*
X67078Y-29991D01*
X67039Y-30048D01*
X67305Y-30314D01*
X67570Y-30048D01*
X67570Y-30160D01*
X67360Y-30370D01*
X67626Y-30635D01*
X67684Y-30596D01*
X67741Y-30434D01*
X67741Y-35177D01*
X67665Y-35177D01*
X67571Y-35215D01*
X67570Y-35216D01*
X67570Y-30691D01*
X67305Y-30425D01*
X67249Y-30481D01*
X67249Y-30370D01*
X66983Y-30104D01*
X66926Y-30143D01*
X66868Y-30305D01*
X66876Y-30477D01*
X66926Y-30596D01*
X66983Y-30635D01*
X67249Y-30370D01*
X67249Y-30481D01*
X67039Y-30691D01*
X67078Y-30749D01*
X67240Y-30806D01*
X67412Y-30798D01*
X67531Y-30749D01*
X67570Y-30691D01*
X67570Y-35216D01*
X67499Y-35287D01*
X67460Y-35381D01*
X67460Y-35483D01*
X67499Y-35577D01*
X67571Y-35649D01*
X67665Y-35688D01*
X67767Y-35689D01*
X67861Y-35650D01*
X67933Y-35578D01*
X67972Y-35484D01*
X67972Y-35382D01*
X67972Y-36594D01*
X67893Y-36594D01*
X67893Y-37106D01*
X67381Y-37106D01*
X67381Y-34890D01*
X67343Y-34796D01*
X67271Y-34724D01*
X67177Y-34685D01*
X67075Y-34684D01*
X66981Y-34723D01*
X66909Y-34795D01*
X66870Y-34889D01*
X66870Y-34991D01*
X66908Y-35085D01*
X66980Y-35157D01*
X67074Y-35196D01*
X67176Y-35196D01*
X67270Y-35158D01*
X67342Y-35086D01*
X67381Y-34992D01*
X67381Y-34890D01*
X67381Y-37106D01*
X66738Y-37106D01*
X66738Y-30284D01*
X66738Y-29284D01*
X66672Y-29125D01*
X66550Y-29003D01*
X66391Y-28937D01*
X66219Y-28936D01*
X66060Y-29002D01*
X65938Y-29124D01*
X65872Y-29283D01*
X65871Y-29455D01*
X65937Y-29615D01*
X66059Y-29737D01*
X66218Y-29803D01*
X66390Y-29803D01*
X66550Y-29737D01*
X66672Y-29615D01*
X66738Y-29456D01*
X66738Y-29284D01*
X66738Y-30284D01*
X66672Y-30125D01*
X66550Y-30003D01*
X66391Y-29937D01*
X66219Y-29936D01*
X66060Y-30002D01*
X65938Y-30124D01*
X65872Y-30283D01*
X65871Y-30455D01*
X65937Y-30615D01*
X66059Y-30737D01*
X66218Y-30803D01*
X66390Y-30803D01*
X66550Y-30737D01*
X66672Y-30615D01*
X66738Y-30456D01*
X66738Y-30284D01*
X66738Y-37106D01*
X65738Y-37106D01*
X65738Y-30284D01*
X65738Y-29284D01*
X65672Y-29125D01*
X65550Y-29003D01*
X65391Y-28937D01*
X65219Y-28936D01*
X65060Y-29002D01*
X64938Y-29124D01*
X64872Y-29283D01*
X64871Y-29455D01*
X64937Y-29615D01*
X65059Y-29737D01*
X65218Y-29803D01*
X65390Y-29803D01*
X65550Y-29737D01*
X65672Y-29615D01*
X65738Y-29456D01*
X65738Y-29284D01*
X65738Y-30284D01*
X65672Y-30125D01*
X65550Y-30003D01*
X65391Y-29937D01*
X65219Y-29936D01*
X65060Y-30002D01*
X64938Y-30124D01*
X64872Y-30283D01*
X64871Y-30455D01*
X64937Y-30615D01*
X65059Y-30737D01*
X65218Y-30803D01*
X65390Y-30803D01*
X65550Y-30737D01*
X65672Y-30615D01*
X65738Y-30456D01*
X65738Y-30284D01*
X65738Y-37106D01*
X65177Y-37106D01*
X65177Y-35291D01*
X65144Y-35212D01*
X65083Y-35151D01*
X65003Y-35118D01*
X64917Y-35118D01*
X64838Y-35150D01*
X64777Y-35211D01*
X64744Y-35291D01*
X64744Y-35377D01*
X64776Y-35457D01*
X64837Y-35518D01*
X64917Y-35551D01*
X65003Y-35551D01*
X65083Y-35518D01*
X65144Y-35457D01*
X65177Y-35377D01*
X65177Y-35291D01*
X65177Y-37106D01*
X64738Y-37106D01*
X64738Y-30284D01*
X64738Y-29284D01*
X64672Y-29125D01*
X64550Y-29003D01*
X64391Y-28937D01*
X64219Y-28936D01*
X64060Y-29002D01*
X63938Y-29124D01*
X63872Y-29283D01*
X63871Y-29455D01*
X63937Y-29615D01*
X64059Y-29737D01*
X64218Y-29803D01*
X64390Y-29803D01*
X64550Y-29737D01*
X64672Y-29615D01*
X64738Y-29456D01*
X64738Y-29284D01*
X64738Y-30284D01*
X64672Y-30125D01*
X64550Y-30003D01*
X64391Y-29937D01*
X64219Y-29936D01*
X64060Y-30002D01*
X63938Y-30124D01*
X63872Y-30283D01*
X63871Y-30455D01*
X63937Y-30615D01*
X64059Y-30737D01*
X64218Y-30803D01*
X64390Y-30803D01*
X64550Y-30737D01*
X64672Y-30615D01*
X64738Y-30456D01*
X64738Y-30284D01*
X64738Y-37106D01*
X64389Y-37106D01*
X64389Y-34602D01*
X64356Y-34523D01*
X64296Y-34462D01*
X64216Y-34429D01*
X64130Y-34429D01*
X64050Y-34461D01*
X63989Y-34522D01*
X63956Y-34602D01*
X63956Y-34688D01*
X63989Y-34768D01*
X64050Y-34829D01*
X64129Y-34862D01*
X64216Y-34862D01*
X64295Y-34829D01*
X64356Y-34768D01*
X64389Y-34688D01*
X64389Y-34602D01*
X64389Y-37106D01*
X63973Y-37106D01*
X63996Y-37051D01*
X63996Y-36964D01*
X63963Y-36885D01*
X63902Y-36824D01*
X63822Y-36791D01*
X63738Y-36791D01*
X63738Y-30284D01*
X63738Y-29284D01*
X63672Y-29125D01*
X63550Y-29003D01*
X63391Y-28937D01*
X63219Y-28936D01*
X63060Y-29002D01*
X62938Y-29124D01*
X62872Y-29283D01*
X62871Y-29455D01*
X62937Y-29615D01*
X63059Y-29737D01*
X63218Y-29803D01*
X63390Y-29803D01*
X63550Y-29737D01*
X63672Y-29615D01*
X63738Y-29456D01*
X63738Y-29284D01*
X63738Y-30284D01*
X63672Y-30125D01*
X63550Y-30003D01*
X63391Y-29937D01*
X63219Y-29936D01*
X63060Y-30002D01*
X62938Y-30124D01*
X62872Y-30283D01*
X62871Y-30455D01*
X62937Y-30615D01*
X63059Y-30737D01*
X63218Y-30803D01*
X63390Y-30803D01*
X63550Y-30737D01*
X63672Y-30615D01*
X63738Y-30456D01*
X63738Y-30284D01*
X63738Y-36791D01*
X63736Y-36791D01*
X63657Y-36824D01*
X63602Y-36878D01*
X63602Y-35783D01*
X63569Y-35704D01*
X63508Y-35643D01*
X63429Y-35610D01*
X63342Y-35610D01*
X63263Y-35643D01*
X63208Y-35697D01*
X63208Y-34602D01*
X63175Y-34523D01*
X63114Y-34462D01*
X63035Y-34429D01*
X62949Y-34429D01*
X62869Y-34461D01*
X62808Y-34522D01*
X62775Y-34602D01*
X62775Y-34688D01*
X62808Y-34768D01*
X62869Y-34829D01*
X62948Y-34862D01*
X63035Y-34862D01*
X63114Y-34829D01*
X63175Y-34768D01*
X63208Y-34688D01*
X63208Y-34602D01*
X63208Y-35697D01*
X63202Y-35703D01*
X63169Y-35783D01*
X63169Y-35869D01*
X63202Y-35949D01*
X63263Y-36010D01*
X63342Y-36043D01*
X63428Y-36043D01*
X63508Y-36010D01*
X63569Y-35949D01*
X63602Y-35870D01*
X63602Y-35783D01*
X63602Y-36878D01*
X63596Y-36885D01*
X63563Y-36964D01*
X63562Y-37050D01*
X63585Y-37106D01*
X62738Y-37106D01*
X62738Y-30284D01*
X62738Y-29284D01*
X62672Y-29125D01*
X62550Y-29003D01*
X62391Y-28937D01*
X62219Y-28936D01*
X62060Y-29002D01*
X61938Y-29124D01*
X61872Y-29283D01*
X61871Y-29455D01*
X61937Y-29615D01*
X62059Y-29737D01*
X62218Y-29803D01*
X62390Y-29803D01*
X62550Y-29737D01*
X62672Y-29615D01*
X62738Y-29456D01*
X62738Y-29284D01*
X62738Y-30284D01*
X62672Y-30125D01*
X62550Y-30003D01*
X62391Y-29937D01*
X62219Y-29936D01*
X62060Y-30002D01*
X61938Y-30124D01*
X61872Y-30283D01*
X61871Y-30455D01*
X61937Y-30615D01*
X62059Y-30737D01*
X62218Y-30803D01*
X62390Y-30803D01*
X62550Y-30737D01*
X62672Y-30615D01*
X62738Y-30456D01*
X62738Y-30284D01*
X62738Y-37106D01*
X62500Y-37106D01*
X62500Y-36318D01*
X62398Y-36318D01*
X62421Y-36263D01*
X62421Y-36177D01*
X62421Y-35390D01*
X62388Y-35310D01*
X62327Y-35249D01*
X62247Y-35216D01*
X62161Y-35216D01*
X62082Y-35249D01*
X62021Y-35310D01*
X61988Y-35389D01*
X61988Y-35475D01*
X62021Y-35555D01*
X62081Y-35616D01*
X62161Y-35649D01*
X62247Y-35649D01*
X62327Y-35616D01*
X62388Y-35555D01*
X62421Y-35476D01*
X62421Y-35390D01*
X62421Y-36177D01*
X62388Y-36097D01*
X62327Y-36037D01*
X62247Y-36003D01*
X62161Y-36003D01*
X62082Y-36036D01*
X62021Y-36097D01*
X61988Y-36177D01*
X61988Y-36263D01*
X62011Y-36318D01*
X61738Y-36318D01*
X61738Y-30284D01*
X61738Y-29284D01*
X61672Y-29125D01*
X61550Y-29003D01*
X61391Y-28937D01*
X61219Y-28936D01*
X61060Y-29002D01*
X60938Y-29124D01*
X60872Y-29283D01*
X60871Y-29455D01*
X60937Y-29615D01*
X61059Y-29737D01*
X61218Y-29803D01*
X61390Y-29803D01*
X61550Y-29737D01*
X61672Y-29615D01*
X61738Y-29456D01*
X61738Y-29284D01*
X61738Y-30284D01*
X61672Y-30125D01*
X61550Y-30003D01*
X61391Y-29937D01*
X61219Y-29936D01*
X61060Y-30002D01*
X60938Y-30124D01*
X60872Y-30283D01*
X60871Y-30455D01*
X60937Y-30615D01*
X61059Y-30737D01*
X61218Y-30803D01*
X61390Y-30803D01*
X61550Y-30737D01*
X61672Y-30615D01*
X61738Y-30456D01*
X61738Y-30284D01*
X61738Y-36318D01*
X61610Y-36318D01*
X61633Y-36263D01*
X61633Y-36177D01*
X61633Y-35390D01*
X61600Y-35310D01*
X61540Y-35249D01*
X61507Y-35236D01*
X61539Y-35223D01*
X61600Y-35162D01*
X61633Y-35082D01*
X61633Y-34996D01*
X61600Y-34916D01*
X61540Y-34855D01*
X61460Y-34822D01*
X61374Y-34822D01*
X61294Y-34855D01*
X61233Y-34916D01*
X61200Y-34996D01*
X61200Y-35082D01*
X61233Y-35161D01*
X61294Y-35222D01*
X61326Y-35236D01*
X61294Y-35249D01*
X61233Y-35310D01*
X61200Y-35389D01*
X61200Y-35475D01*
X61233Y-35555D01*
X61294Y-35616D01*
X61374Y-35649D01*
X61460Y-35649D01*
X61539Y-35616D01*
X61600Y-35555D01*
X61633Y-35476D01*
X61633Y-35390D01*
X61633Y-36177D01*
X61600Y-36097D01*
X61540Y-36037D01*
X61460Y-36003D01*
X61374Y-36003D01*
X61294Y-36036D01*
X61233Y-36097D01*
X61200Y-36177D01*
X61200Y-36263D01*
X61223Y-36318D01*
X60846Y-36318D01*
X60846Y-35783D01*
X60813Y-35704D01*
X60752Y-35643D01*
X60738Y-35637D01*
X60738Y-30284D01*
X60738Y-29284D01*
X60672Y-29125D01*
X60550Y-29003D01*
X60391Y-28937D01*
X60219Y-28936D01*
X60060Y-29002D01*
X59938Y-29124D01*
X59872Y-29283D01*
X59871Y-29455D01*
X59937Y-29615D01*
X60059Y-29737D01*
X60218Y-29803D01*
X60390Y-29803D01*
X60550Y-29737D01*
X60672Y-29615D01*
X60738Y-29456D01*
X60738Y-29284D01*
X60738Y-30284D01*
X60672Y-30125D01*
X60550Y-30003D01*
X60391Y-29937D01*
X60219Y-29936D01*
X60060Y-30002D01*
X59938Y-30124D01*
X59872Y-30283D01*
X59871Y-30455D01*
X59937Y-30615D01*
X60059Y-30737D01*
X60218Y-30803D01*
X60390Y-30803D01*
X60550Y-30737D01*
X60672Y-30615D01*
X60738Y-30456D01*
X60738Y-30284D01*
X60738Y-35637D01*
X60673Y-35610D01*
X60587Y-35610D01*
X60551Y-35624D01*
X60551Y-33716D01*
X60518Y-33637D01*
X60457Y-33576D01*
X60377Y-33543D01*
X60291Y-33543D01*
X60212Y-33576D01*
X60151Y-33637D01*
X60118Y-33716D01*
X60118Y-33802D01*
X60150Y-33882D01*
X60211Y-33943D01*
X60291Y-33976D01*
X60377Y-33976D01*
X60457Y-33943D01*
X60518Y-33882D01*
X60551Y-33803D01*
X60551Y-33716D01*
X60551Y-35624D01*
X60507Y-35643D01*
X60452Y-35697D01*
X60452Y-34602D01*
X60419Y-34523D01*
X60359Y-34462D01*
X60326Y-34448D01*
X60358Y-34435D01*
X60419Y-34374D01*
X60452Y-34295D01*
X60452Y-34209D01*
X60419Y-34129D01*
X60359Y-34068D01*
X60279Y-34035D01*
X60193Y-34035D01*
X60113Y-34068D01*
X60052Y-34129D01*
X60019Y-34208D01*
X60019Y-34294D01*
X60052Y-34374D01*
X60113Y-34435D01*
X60145Y-34448D01*
X60113Y-34461D01*
X60052Y-34522D01*
X60019Y-34602D01*
X60019Y-34688D01*
X60052Y-34768D01*
X60113Y-34829D01*
X60192Y-34862D01*
X60279Y-34862D01*
X60358Y-34829D01*
X60419Y-34768D01*
X60452Y-34688D01*
X60452Y-34602D01*
X60452Y-35697D01*
X60446Y-35703D01*
X60413Y-35783D01*
X60413Y-35869D01*
X60446Y-35949D01*
X60507Y-36010D01*
X60586Y-36043D01*
X60672Y-36043D01*
X60752Y-36010D01*
X60813Y-35949D01*
X60846Y-35870D01*
X60846Y-35783D01*
X60846Y-36318D01*
X60036Y-36318D01*
X60059Y-36263D01*
X60059Y-36177D01*
X60026Y-36097D01*
X59965Y-36037D01*
X59885Y-36003D01*
X59799Y-36003D01*
X59738Y-36029D01*
X59738Y-30284D01*
X59738Y-29284D01*
X59672Y-29125D01*
X59550Y-29003D01*
X59391Y-28937D01*
X59219Y-28936D01*
X59060Y-29002D01*
X58938Y-29124D01*
X58872Y-29283D01*
X58871Y-29455D01*
X58937Y-29615D01*
X59059Y-29737D01*
X59218Y-29803D01*
X59390Y-29803D01*
X59550Y-29737D01*
X59672Y-29615D01*
X59738Y-29456D01*
X59738Y-29284D01*
X59738Y-30284D01*
X59672Y-30125D01*
X59550Y-30003D01*
X59391Y-29937D01*
X59219Y-29936D01*
X59060Y-30002D01*
X58938Y-30124D01*
X58872Y-30283D01*
X58871Y-30455D01*
X58937Y-30615D01*
X59059Y-30737D01*
X59218Y-30803D01*
X59390Y-30803D01*
X59550Y-30737D01*
X59672Y-30615D01*
X59738Y-30456D01*
X59738Y-30284D01*
X59738Y-36029D01*
X59720Y-36036D01*
X59659Y-36097D01*
X59626Y-36177D01*
X59625Y-36263D01*
X59648Y-36318D01*
X59547Y-36318D01*
X59547Y-36420D01*
X59492Y-36397D01*
X59468Y-36397D01*
X59468Y-32043D01*
X59435Y-31964D01*
X59374Y-31903D01*
X59295Y-31870D01*
X59209Y-31870D01*
X59129Y-31902D01*
X59068Y-31963D01*
X59035Y-32043D01*
X59035Y-32129D01*
X59068Y-32209D01*
X59129Y-32270D01*
X59208Y-32303D01*
X59294Y-32303D01*
X59374Y-32270D01*
X59435Y-32209D01*
X59468Y-32129D01*
X59468Y-32043D01*
X59468Y-36397D01*
X59405Y-36397D01*
X59326Y-36430D01*
X59271Y-36485D01*
X59271Y-35783D01*
X59238Y-35704D01*
X59177Y-35643D01*
X59145Y-35629D01*
X59177Y-35616D01*
X59238Y-35555D01*
X59271Y-35476D01*
X59271Y-35390D01*
X59238Y-35310D01*
X59177Y-35249D01*
X59098Y-35216D01*
X59012Y-35216D01*
X58932Y-35249D01*
X58877Y-35303D01*
X58877Y-34602D01*
X58845Y-34523D01*
X58784Y-34462D01*
X58738Y-34443D01*
X58738Y-30284D01*
X58738Y-29284D01*
X58672Y-29125D01*
X58550Y-29003D01*
X58391Y-28937D01*
X58219Y-28936D01*
X58060Y-29002D01*
X57938Y-29124D01*
X57872Y-29283D01*
X57871Y-29455D01*
X57937Y-29615D01*
X58059Y-29737D01*
X58218Y-29803D01*
X58390Y-29803D01*
X58550Y-29737D01*
X58672Y-29615D01*
X58738Y-29456D01*
X58738Y-29284D01*
X58738Y-30284D01*
X58672Y-30125D01*
X58550Y-30003D01*
X58391Y-29937D01*
X58219Y-29936D01*
X58060Y-30002D01*
X57938Y-30124D01*
X57872Y-30283D01*
X57871Y-30455D01*
X57937Y-30615D01*
X58059Y-30737D01*
X58218Y-30803D01*
X58390Y-30803D01*
X58550Y-30737D01*
X58672Y-30615D01*
X58738Y-30456D01*
X58738Y-30284D01*
X58738Y-34443D01*
X58704Y-34429D01*
X58618Y-34429D01*
X58538Y-34461D01*
X58477Y-34522D01*
X58444Y-34602D01*
X58444Y-34688D01*
X58477Y-34768D01*
X58538Y-34829D01*
X58618Y-34862D01*
X58704Y-34862D01*
X58783Y-34829D01*
X58844Y-34768D01*
X58877Y-34688D01*
X58877Y-34602D01*
X58877Y-35303D01*
X58871Y-35310D01*
X58838Y-35389D01*
X58838Y-35475D01*
X58871Y-35555D01*
X58932Y-35616D01*
X58964Y-35629D01*
X58932Y-35643D01*
X58871Y-35703D01*
X58838Y-35783D01*
X58838Y-35869D01*
X58871Y-35949D01*
X58932Y-36010D01*
X59011Y-36043D01*
X59098Y-36043D01*
X59177Y-36010D01*
X59238Y-35949D01*
X59271Y-35870D01*
X59271Y-35783D01*
X59271Y-36485D01*
X59265Y-36491D01*
X59232Y-36570D01*
X59232Y-36657D01*
X59265Y-36736D01*
X59326Y-36797D01*
X59358Y-36811D01*
X59326Y-36824D01*
X59265Y-36885D01*
X59232Y-36964D01*
X59232Y-37050D01*
X59265Y-37130D01*
X59326Y-37191D01*
X59405Y-37224D01*
X59491Y-37224D01*
X59547Y-37201D01*
X59547Y-37601D01*
X59492Y-37578D01*
X59405Y-37578D01*
X59326Y-37611D01*
X59265Y-37672D01*
X59232Y-37752D01*
X59232Y-37838D01*
X59265Y-37917D01*
X59326Y-37978D01*
X59405Y-38011D01*
X59491Y-38011D01*
X59547Y-37988D01*
X59547Y-38090D01*
X59648Y-38090D01*
X59626Y-38145D01*
X59625Y-38231D01*
X59658Y-38311D01*
X59719Y-38372D01*
X59799Y-38405D01*
X59885Y-38405D01*
X59965Y-38372D01*
X60025Y-38311D01*
X60039Y-38279D01*
X60052Y-38311D01*
X60113Y-38372D01*
X60145Y-38385D01*
X60113Y-38399D01*
X60052Y-38459D01*
X60019Y-38539D01*
X60019Y-38625D01*
X60052Y-38705D01*
X60113Y-38766D01*
X60192Y-38799D01*
X60279Y-38799D01*
X60358Y-38766D01*
X60419Y-38705D01*
X60433Y-38673D01*
X60446Y-38705D01*
X60507Y-38766D01*
X60586Y-38799D01*
X60672Y-38799D01*
X60752Y-38766D01*
X60813Y-38705D01*
X60846Y-38625D01*
X60846Y-38539D01*
X60813Y-38460D01*
X60752Y-38399D01*
X60720Y-38385D01*
X60752Y-38372D01*
X60813Y-38311D01*
X60846Y-38232D01*
X60846Y-38146D01*
X60823Y-38090D01*
X61223Y-38090D01*
X61200Y-38145D01*
X61200Y-38231D01*
X61233Y-38311D01*
X61294Y-38372D01*
X61374Y-38405D01*
X61460Y-38405D01*
X61539Y-38372D01*
X61600Y-38311D01*
X61614Y-38279D01*
X61627Y-38311D01*
X61688Y-38372D01*
X61720Y-38385D01*
X61688Y-38399D01*
X61627Y-38459D01*
X61594Y-38539D01*
X61594Y-38625D01*
X61627Y-38705D01*
X61688Y-38766D01*
X61767Y-38799D01*
X61853Y-38799D01*
X61933Y-38766D01*
X61994Y-38705D01*
X62027Y-38625D01*
X62027Y-38539D01*
X61994Y-38460D01*
X61933Y-38399D01*
X61901Y-38385D01*
X61933Y-38372D01*
X61994Y-38311D01*
X62027Y-38232D01*
X62027Y-38146D01*
X62004Y-38090D01*
X63979Y-38090D01*
X63956Y-38145D01*
X63956Y-38231D01*
X63989Y-38311D01*
X64050Y-38372D01*
X64082Y-38385D01*
X64050Y-38399D01*
X63989Y-38459D01*
X63956Y-38539D01*
X63956Y-38625D01*
X63989Y-38705D01*
X64050Y-38766D01*
X64129Y-38799D01*
X64216Y-38799D01*
X64295Y-38766D01*
X64356Y-38705D01*
X64389Y-38625D01*
X64389Y-38539D01*
X64356Y-38460D01*
X64296Y-38399D01*
X64263Y-38385D01*
X64295Y-38372D01*
X64356Y-38311D01*
X64389Y-38232D01*
X64389Y-38146D01*
X64366Y-38090D01*
X65090Y-38090D01*
X65110Y-38110D01*
X65204Y-38149D01*
X65306Y-38149D01*
X65400Y-38110D01*
X65420Y-38090D01*
X66862Y-38090D01*
X66882Y-38110D01*
X66976Y-38149D01*
X67078Y-38149D01*
X67172Y-38110D01*
X67192Y-38090D01*
X67716Y-38090D01*
X67893Y-38090D01*
X67893Y-43287D01*
X67500Y-43287D01*
X67500Y-47618D01*
X67185Y-47618D01*
X67185Y-40697D01*
X67146Y-40603D01*
X67074Y-40531D01*
X67003Y-40501D01*
X67073Y-40472D01*
X67145Y-40401D01*
X67184Y-40307D01*
X67185Y-40205D01*
X67146Y-40111D01*
X67074Y-40039D01*
X67003Y-40009D01*
X67073Y-39980D01*
X67145Y-39908D01*
X67184Y-39814D01*
X67185Y-39713D01*
X67146Y-39619D01*
X67074Y-39546D01*
X67003Y-39517D01*
X67073Y-39488D01*
X67145Y-39416D01*
X67184Y-39322D01*
X67185Y-39220D01*
X67146Y-39126D01*
X67074Y-39054D01*
X67047Y-39043D01*
X67047Y-38638D01*
X67014Y-38558D01*
X66953Y-38497D01*
X66873Y-38464D01*
X66787Y-38464D01*
X66708Y-38497D01*
X66647Y-38558D01*
X66614Y-38637D01*
X66614Y-38723D01*
X66647Y-38803D01*
X66707Y-38864D01*
X66787Y-38897D01*
X66873Y-38897D01*
X66953Y-38864D01*
X67014Y-38803D01*
X67047Y-38724D01*
X67047Y-38638D01*
X67047Y-39043D01*
X66980Y-39015D01*
X66878Y-39015D01*
X66784Y-39054D01*
X66712Y-39126D01*
X66673Y-39220D01*
X66673Y-39322D01*
X66712Y-39416D01*
X66783Y-39488D01*
X66854Y-39517D01*
X66784Y-39546D01*
X66712Y-39618D01*
X66673Y-39712D01*
X66673Y-39814D01*
X66712Y-39908D01*
X66783Y-39980D01*
X66854Y-40009D01*
X66784Y-40038D01*
X66712Y-40110D01*
X66673Y-40204D01*
X66673Y-40306D01*
X66712Y-40400D01*
X66783Y-40472D01*
X66854Y-40501D01*
X66784Y-40530D01*
X66712Y-40602D01*
X66673Y-40696D01*
X66673Y-40798D01*
X66712Y-40892D01*
X66783Y-40964D01*
X66878Y-41003D01*
X66979Y-41003D01*
X67073Y-40965D01*
X67145Y-40893D01*
X67184Y-40799D01*
X67185Y-40697D01*
X67185Y-47618D01*
X65925Y-47618D01*
X65925Y-48155D01*
X65872Y-48283D01*
X65871Y-48455D01*
X65925Y-48584D01*
X65925Y-49155D01*
X65872Y-49283D01*
X65871Y-49455D01*
X65925Y-49584D01*
X65925Y-49980D01*
X65738Y-49980D01*
X65738Y-49284D01*
X65738Y-48284D01*
X65708Y-48212D01*
X65708Y-47587D01*
X65669Y-47493D01*
X65617Y-47440D01*
X65669Y-47389D01*
X65708Y-47295D01*
X65708Y-47193D01*
X65669Y-47099D01*
X65617Y-47047D01*
X65669Y-46995D01*
X65708Y-46901D01*
X65708Y-46799D01*
X65669Y-46705D01*
X65617Y-46653D01*
X65669Y-46601D01*
X65708Y-46507D01*
X65708Y-46406D01*
X65708Y-45224D01*
X65669Y-45130D01*
X65617Y-45078D01*
X65669Y-45027D01*
X65708Y-44933D01*
X65708Y-44831D01*
X65669Y-44737D01*
X65617Y-44685D01*
X65669Y-44633D01*
X65708Y-44539D01*
X65708Y-44437D01*
X65669Y-44343D01*
X65617Y-44291D01*
X65669Y-44239D01*
X65708Y-44145D01*
X65708Y-44043D01*
X65669Y-43949D01*
X65597Y-43877D01*
X65511Y-43841D01*
X65511Y-39122D01*
X65472Y-39028D01*
X65401Y-38956D01*
X65330Y-38927D01*
X65400Y-38898D01*
X65472Y-38826D01*
X65511Y-38732D01*
X65511Y-38630D01*
X65472Y-38536D01*
X65401Y-38464D01*
X65307Y-38425D01*
X65205Y-38425D01*
X65111Y-38464D01*
X65039Y-38535D01*
X65000Y-38629D01*
X64999Y-38731D01*
X65038Y-38825D01*
X65110Y-38897D01*
X65181Y-38927D01*
X65111Y-38956D01*
X65039Y-39028D01*
X65000Y-39122D01*
X64999Y-39223D01*
X65038Y-39317D01*
X65110Y-39390D01*
X65204Y-39429D01*
X65306Y-39429D01*
X65400Y-39390D01*
X65472Y-39318D01*
X65511Y-39224D01*
X65511Y-39122D01*
X65511Y-43841D01*
X65503Y-43838D01*
X65402Y-43838D01*
X65307Y-43877D01*
X65255Y-43929D01*
X65204Y-43877D01*
X65110Y-43838D01*
X65008Y-43838D01*
X64914Y-43877D01*
X64842Y-43949D01*
X64803Y-44043D01*
X64803Y-44145D01*
X64841Y-44239D01*
X64894Y-44291D01*
X64842Y-44343D01*
X64803Y-44437D01*
X64803Y-44538D01*
X64841Y-44632D01*
X64894Y-44685D01*
X64842Y-44736D01*
X64803Y-44830D01*
X64803Y-44932D01*
X64841Y-45026D01*
X64894Y-45078D01*
X64842Y-45130D01*
X64803Y-45224D01*
X64803Y-45326D01*
X64841Y-45420D01*
X64913Y-45492D01*
X65007Y-45531D01*
X65109Y-45531D01*
X65203Y-45492D01*
X65255Y-45440D01*
X65307Y-45492D01*
X65401Y-45531D01*
X65503Y-45531D01*
X65597Y-45492D01*
X65669Y-45420D01*
X65708Y-45326D01*
X65708Y-45224D01*
X65708Y-46406D01*
X65669Y-46311D01*
X65597Y-46239D01*
X65503Y-46200D01*
X65402Y-46200D01*
X65307Y-46239D01*
X65255Y-46291D01*
X65204Y-46239D01*
X65110Y-46200D01*
X65008Y-46200D01*
X64914Y-46239D01*
X64842Y-46311D01*
X64803Y-46405D01*
X64803Y-46507D01*
X64841Y-46601D01*
X64894Y-46653D01*
X64842Y-46705D01*
X64803Y-46799D01*
X64803Y-46901D01*
X64841Y-46995D01*
X64894Y-47047D01*
X64842Y-47098D01*
X64803Y-47192D01*
X64803Y-47294D01*
X64841Y-47388D01*
X64894Y-47440D01*
X64842Y-47492D01*
X64803Y-47586D01*
X64803Y-47688D01*
X64841Y-47782D01*
X64913Y-47854D01*
X65007Y-47893D01*
X65109Y-47893D01*
X65203Y-47854D01*
X65255Y-47802D01*
X65307Y-47854D01*
X65401Y-47893D01*
X65503Y-47893D01*
X65597Y-47854D01*
X65669Y-47782D01*
X65708Y-47688D01*
X65708Y-47587D01*
X65708Y-48212D01*
X65672Y-48125D01*
X65550Y-48003D01*
X65391Y-47937D01*
X65219Y-47936D01*
X65060Y-48002D01*
X64938Y-48124D01*
X64872Y-48283D01*
X64871Y-48455D01*
X64937Y-48615D01*
X65059Y-48737D01*
X65218Y-48803D01*
X65390Y-48803D01*
X65550Y-48737D01*
X65672Y-48615D01*
X65738Y-48456D01*
X65738Y-48284D01*
X65738Y-49284D01*
X65672Y-49125D01*
X65550Y-49003D01*
X65391Y-48937D01*
X65219Y-48936D01*
X65060Y-49002D01*
X64938Y-49124D01*
X64872Y-49283D01*
X64871Y-49455D01*
X64937Y-49615D01*
X65059Y-49737D01*
X65218Y-49803D01*
X65390Y-49803D01*
X65550Y-49737D01*
X65672Y-49615D01*
X65738Y-49456D01*
X65738Y-49284D01*
X65738Y-49980D01*
X64738Y-49980D01*
X64738Y-49284D01*
X64738Y-48284D01*
X64672Y-48125D01*
X64550Y-48003D01*
X64391Y-47937D01*
X64219Y-47936D01*
X64060Y-48002D01*
X63938Y-48124D01*
X63872Y-48283D01*
X63871Y-48455D01*
X63937Y-48615D01*
X64059Y-48737D01*
X64218Y-48803D01*
X64390Y-48803D01*
X64550Y-48737D01*
X64672Y-48615D01*
X64738Y-48456D01*
X64738Y-48284D01*
X64738Y-49284D01*
X64672Y-49125D01*
X64550Y-49003D01*
X64391Y-48937D01*
X64219Y-48936D01*
X64060Y-49002D01*
X63938Y-49124D01*
X63872Y-49283D01*
X63871Y-49455D01*
X63937Y-49615D01*
X64059Y-49737D01*
X64218Y-49803D01*
X64390Y-49803D01*
X64550Y-49737D01*
X64672Y-49615D01*
X64738Y-49456D01*
X64738Y-49284D01*
X64738Y-49980D01*
X63738Y-49980D01*
X63738Y-49284D01*
X63738Y-48284D01*
X63672Y-48125D01*
X63602Y-48054D01*
X63602Y-40114D01*
X63602Y-38933D01*
X63569Y-38853D01*
X63508Y-38792D01*
X63429Y-38759D01*
X63342Y-38759D01*
X63263Y-38792D01*
X63202Y-38853D01*
X63188Y-38885D01*
X63175Y-38853D01*
X63114Y-38792D01*
X63035Y-38759D01*
X62949Y-38759D01*
X62869Y-38792D01*
X62808Y-38853D01*
X62775Y-38933D01*
X62775Y-39019D01*
X62808Y-39098D01*
X62869Y-39159D01*
X62948Y-39192D01*
X63035Y-39192D01*
X63114Y-39160D01*
X63175Y-39099D01*
X63188Y-39066D01*
X63202Y-39098D01*
X63263Y-39159D01*
X63342Y-39192D01*
X63428Y-39192D01*
X63508Y-39160D01*
X63569Y-39099D01*
X63602Y-39019D01*
X63602Y-38933D01*
X63602Y-40114D01*
X63569Y-40034D01*
X63508Y-39974D01*
X63429Y-39940D01*
X63342Y-39940D01*
X63263Y-39973D01*
X63202Y-40034D01*
X63169Y-40114D01*
X63169Y-40200D01*
X63202Y-40279D01*
X63263Y-40340D01*
X63342Y-40373D01*
X63428Y-40374D01*
X63508Y-40341D01*
X63569Y-40280D01*
X63602Y-40200D01*
X63602Y-40114D01*
X63602Y-48054D01*
X63550Y-48003D01*
X63391Y-47937D01*
X63219Y-47936D01*
X63060Y-48002D01*
X62938Y-48124D01*
X62872Y-48283D01*
X62871Y-48455D01*
X62937Y-48615D01*
X63059Y-48737D01*
X63218Y-48803D01*
X63390Y-48803D01*
X63550Y-48737D01*
X63672Y-48615D01*
X63738Y-48456D01*
X63738Y-48284D01*
X63738Y-49284D01*
X63672Y-49125D01*
X63550Y-49003D01*
X63391Y-48937D01*
X63219Y-48936D01*
X63060Y-49002D01*
X62938Y-49124D01*
X62872Y-49283D01*
X62871Y-49455D01*
X62937Y-49615D01*
X63059Y-49737D01*
X63218Y-49803D01*
X63390Y-49803D01*
X63550Y-49737D01*
X63672Y-49615D01*
X63738Y-49456D01*
X63738Y-49284D01*
X63738Y-49980D01*
X62738Y-49980D01*
X62738Y-49284D01*
X62738Y-48284D01*
X62672Y-48125D01*
X62550Y-48003D01*
X62391Y-47937D01*
X62219Y-47936D01*
X62060Y-48002D01*
X62027Y-48035D01*
X62027Y-40508D01*
X61994Y-40428D01*
X61933Y-40367D01*
X61854Y-40334D01*
X61768Y-40334D01*
X61688Y-40367D01*
X61633Y-40422D01*
X61633Y-38933D01*
X61600Y-38853D01*
X61540Y-38792D01*
X61460Y-38759D01*
X61374Y-38759D01*
X61294Y-38792D01*
X61233Y-38853D01*
X61200Y-38933D01*
X61200Y-39019D01*
X61233Y-39098D01*
X61294Y-39159D01*
X61374Y-39192D01*
X61460Y-39192D01*
X61539Y-39160D01*
X61600Y-39099D01*
X61633Y-39019D01*
X61633Y-38933D01*
X61633Y-40422D01*
X61627Y-40428D01*
X61594Y-40507D01*
X61594Y-40594D01*
X61627Y-40673D01*
X61688Y-40734D01*
X61767Y-40767D01*
X61853Y-40767D01*
X61933Y-40734D01*
X61994Y-40673D01*
X62027Y-40594D01*
X62027Y-40508D01*
X62027Y-48035D01*
X61938Y-48124D01*
X61872Y-48283D01*
X61871Y-48455D01*
X61937Y-48615D01*
X62059Y-48737D01*
X62218Y-48803D01*
X62390Y-48803D01*
X62550Y-48737D01*
X62672Y-48615D01*
X62738Y-48456D01*
X62738Y-48284D01*
X62738Y-49284D01*
X62672Y-49125D01*
X62550Y-49003D01*
X62391Y-48937D01*
X62219Y-48936D01*
X62060Y-49002D01*
X61938Y-49124D01*
X61872Y-49283D01*
X61871Y-49455D01*
X61937Y-49615D01*
X62059Y-49737D01*
X62218Y-49803D01*
X62390Y-49803D01*
X62550Y-49737D01*
X62672Y-49615D01*
X62738Y-49456D01*
X62738Y-49284D01*
X62738Y-49980D01*
X61738Y-49980D01*
X61738Y-49284D01*
X61738Y-48284D01*
X61672Y-48125D01*
X61550Y-48003D01*
X61391Y-47937D01*
X61219Y-47936D01*
X61060Y-48002D01*
X60938Y-48124D01*
X60872Y-48283D01*
X60871Y-48455D01*
X60937Y-48615D01*
X61059Y-48737D01*
X61218Y-48803D01*
X61390Y-48803D01*
X61550Y-48737D01*
X61672Y-48615D01*
X61738Y-48456D01*
X61738Y-48284D01*
X61738Y-49284D01*
X61672Y-49125D01*
X61550Y-49003D01*
X61391Y-48937D01*
X61219Y-48936D01*
X61060Y-49002D01*
X60938Y-49124D01*
X60872Y-49283D01*
X60871Y-49455D01*
X60937Y-49615D01*
X61059Y-49737D01*
X61218Y-49803D01*
X61390Y-49803D01*
X61550Y-49737D01*
X61672Y-49615D01*
X61738Y-49456D01*
X61738Y-49284D01*
X61738Y-49980D01*
X60846Y-49980D01*
X60846Y-40508D01*
X60846Y-39720D01*
X60813Y-39641D01*
X60752Y-39580D01*
X60673Y-39547D01*
X60587Y-39547D01*
X60507Y-39580D01*
X60446Y-39640D01*
X60413Y-39720D01*
X60413Y-39806D01*
X60446Y-39886D01*
X60507Y-39947D01*
X60586Y-39980D01*
X60672Y-39980D01*
X60752Y-39947D01*
X60813Y-39886D01*
X60846Y-39807D01*
X60846Y-39720D01*
X60846Y-40508D01*
X60813Y-40428D01*
X60752Y-40367D01*
X60673Y-40334D01*
X60587Y-40334D01*
X60507Y-40367D01*
X60446Y-40428D01*
X60413Y-40507D01*
X60413Y-40594D01*
X60446Y-40673D01*
X60507Y-40734D01*
X60586Y-40767D01*
X60672Y-40767D01*
X60752Y-40734D01*
X60813Y-40673D01*
X60846Y-40594D01*
X60846Y-40508D01*
X60846Y-49980D01*
X60738Y-49980D01*
X60738Y-49284D01*
X60738Y-48284D01*
X60689Y-48165D01*
X60689Y-46209D01*
X60650Y-46115D01*
X60578Y-46043D01*
X60484Y-46003D01*
X60382Y-46003D01*
X60288Y-46042D01*
X60216Y-46114D01*
X60177Y-46208D01*
X60177Y-46310D01*
X60215Y-46404D01*
X60223Y-46411D01*
X60188Y-46397D01*
X60087Y-46397D01*
X59993Y-46436D01*
X59920Y-46508D01*
X59881Y-46602D01*
X59881Y-46704D01*
X59920Y-46798D01*
X59992Y-46870D01*
X60086Y-46909D01*
X60188Y-46909D01*
X60282Y-46870D01*
X60354Y-46798D01*
X60393Y-46704D01*
X60393Y-46602D01*
X60354Y-46508D01*
X60347Y-46501D01*
X60381Y-46515D01*
X60483Y-46515D01*
X60577Y-46476D01*
X60649Y-46404D01*
X60688Y-46310D01*
X60689Y-46209D01*
X60689Y-48165D01*
X60672Y-48125D01*
X60550Y-48003D01*
X60391Y-47937D01*
X60219Y-47936D01*
X60060Y-48002D01*
X59938Y-48124D01*
X59872Y-48283D01*
X59871Y-48455D01*
X59937Y-48615D01*
X60059Y-48737D01*
X60218Y-48803D01*
X60390Y-48803D01*
X60550Y-48737D01*
X60672Y-48615D01*
X60738Y-48456D01*
X60738Y-48284D01*
X60738Y-49284D01*
X60672Y-49125D01*
X60550Y-49003D01*
X60391Y-48937D01*
X60219Y-48936D01*
X60060Y-49002D01*
X59938Y-49124D01*
X59872Y-49283D01*
X59871Y-49455D01*
X59937Y-49615D01*
X60059Y-49737D01*
X60218Y-49803D01*
X60390Y-49803D01*
X60550Y-49737D01*
X60672Y-49615D01*
X60738Y-49456D01*
X60738Y-49284D01*
X60738Y-49980D01*
X59738Y-49980D01*
X59738Y-49284D01*
X59738Y-48284D01*
X59672Y-48125D01*
X59550Y-48003D01*
X59391Y-47937D01*
X59271Y-47936D01*
X59271Y-40114D01*
X59271Y-38539D01*
X59238Y-38460D01*
X59177Y-38399D01*
X59098Y-38366D01*
X59012Y-38366D01*
X58932Y-38399D01*
X58871Y-38459D01*
X58838Y-38539D01*
X58838Y-38625D01*
X58871Y-38705D01*
X58932Y-38766D01*
X59011Y-38799D01*
X59098Y-38799D01*
X59177Y-38766D01*
X59238Y-38705D01*
X59271Y-38625D01*
X59271Y-38539D01*
X59271Y-40114D01*
X59238Y-40034D01*
X59177Y-39974D01*
X59098Y-39940D01*
X59012Y-39940D01*
X58932Y-39973D01*
X58871Y-40034D01*
X58838Y-40114D01*
X58838Y-40200D01*
X58871Y-40279D01*
X58932Y-40340D01*
X59011Y-40373D01*
X59098Y-40374D01*
X59177Y-40341D01*
X59238Y-40280D01*
X59271Y-40200D01*
X59271Y-40114D01*
X59271Y-47936D01*
X59219Y-47936D01*
X59060Y-48002D01*
X58938Y-48124D01*
X58872Y-48283D01*
X58871Y-48455D01*
X58937Y-48615D01*
X59059Y-48737D01*
X59218Y-48803D01*
X59390Y-48803D01*
X59550Y-48737D01*
X59672Y-48615D01*
X59738Y-48456D01*
X59738Y-48284D01*
X59738Y-49284D01*
X59672Y-49125D01*
X59550Y-49003D01*
X59391Y-48937D01*
X59219Y-48936D01*
X59060Y-49002D01*
X58938Y-49124D01*
X58872Y-49283D01*
X58871Y-49455D01*
X58937Y-49615D01*
X59059Y-49737D01*
X59218Y-49803D01*
X59390Y-49803D01*
X59550Y-49737D01*
X59672Y-49615D01*
X59738Y-49456D01*
X59738Y-49284D01*
X59738Y-49980D01*
X58738Y-49980D01*
X58738Y-49284D01*
X58738Y-48284D01*
X58672Y-48125D01*
X58550Y-48003D01*
X58484Y-47975D01*
X58484Y-37752D01*
X58484Y-36177D01*
X58451Y-36097D01*
X58390Y-36037D01*
X58310Y-36003D01*
X58224Y-36003D01*
X58145Y-36036D01*
X58084Y-36097D01*
X58051Y-36177D01*
X58051Y-36263D01*
X58084Y-36342D01*
X58144Y-36403D01*
X58224Y-36436D01*
X58310Y-36437D01*
X58390Y-36404D01*
X58451Y-36343D01*
X58484Y-36263D01*
X58484Y-36177D01*
X58484Y-37752D01*
X58451Y-37672D01*
X58390Y-37611D01*
X58310Y-37578D01*
X58224Y-37578D01*
X58145Y-37611D01*
X58090Y-37666D01*
X58090Y-36571D01*
X58057Y-36491D01*
X57996Y-36430D01*
X57917Y-36397D01*
X57831Y-36397D01*
X57751Y-36430D01*
X57738Y-36443D01*
X57738Y-30284D01*
X57738Y-29284D01*
X57672Y-29125D01*
X57550Y-29003D01*
X57391Y-28937D01*
X57219Y-28936D01*
X57060Y-29002D01*
X56938Y-29124D01*
X56872Y-29283D01*
X56871Y-29455D01*
X56937Y-29615D01*
X57059Y-29737D01*
X57218Y-29803D01*
X57390Y-29803D01*
X57550Y-29737D01*
X57672Y-29615D01*
X57738Y-29456D01*
X57738Y-29284D01*
X57738Y-30284D01*
X57672Y-30125D01*
X57550Y-30003D01*
X57391Y-29937D01*
X57219Y-29936D01*
X57060Y-30002D01*
X56938Y-30124D01*
X56872Y-30283D01*
X56871Y-30455D01*
X56937Y-30615D01*
X57059Y-30737D01*
X57218Y-30803D01*
X57390Y-30803D01*
X57550Y-30737D01*
X57672Y-30615D01*
X57738Y-30456D01*
X57738Y-30284D01*
X57738Y-36443D01*
X57690Y-36491D01*
X57657Y-36570D01*
X57657Y-36657D01*
X57690Y-36736D01*
X57751Y-36797D01*
X57830Y-36830D01*
X57916Y-36830D01*
X57996Y-36797D01*
X58057Y-36736D01*
X58090Y-36657D01*
X58090Y-36571D01*
X58090Y-37666D01*
X58084Y-37672D01*
X58051Y-37752D01*
X58051Y-37838D01*
X58084Y-37917D01*
X58144Y-37978D01*
X58224Y-38011D01*
X58310Y-38011D01*
X58390Y-37978D01*
X58451Y-37918D01*
X58484Y-37838D01*
X58484Y-37752D01*
X58484Y-47975D01*
X58391Y-47937D01*
X58219Y-47936D01*
X58090Y-47990D01*
X58090Y-40508D01*
X58057Y-40428D01*
X57996Y-40367D01*
X57917Y-40334D01*
X57831Y-40334D01*
X57751Y-40367D01*
X57690Y-40428D01*
X57657Y-40507D01*
X57657Y-40594D01*
X57690Y-40673D01*
X57751Y-40734D01*
X57830Y-40767D01*
X57916Y-40767D01*
X57996Y-40734D01*
X58057Y-40673D01*
X58090Y-40594D01*
X58090Y-40508D01*
X58090Y-47990D01*
X58060Y-48002D01*
X57938Y-48124D01*
X57872Y-48283D01*
X57871Y-48455D01*
X57937Y-48615D01*
X58059Y-48737D01*
X58218Y-48803D01*
X58390Y-48803D01*
X58550Y-48737D01*
X58672Y-48615D01*
X58738Y-48456D01*
X58738Y-48284D01*
X58738Y-49284D01*
X58672Y-49125D01*
X58550Y-49003D01*
X58391Y-48937D01*
X58219Y-48936D01*
X58060Y-49002D01*
X57938Y-49124D01*
X57872Y-49283D01*
X57871Y-49455D01*
X57937Y-49615D01*
X58059Y-49737D01*
X58218Y-49803D01*
X58390Y-49803D01*
X58550Y-49737D01*
X58672Y-49615D01*
X58738Y-49456D01*
X58738Y-49284D01*
X58738Y-49980D01*
X57738Y-49980D01*
X57738Y-49284D01*
X57738Y-48284D01*
X57672Y-48125D01*
X57550Y-48003D01*
X57391Y-47937D01*
X57219Y-47936D01*
X57060Y-48002D01*
X56948Y-48113D01*
X56948Y-47193D01*
X56909Y-47099D01*
X56838Y-47027D01*
X56744Y-46988D01*
X56738Y-46988D01*
X56738Y-30284D01*
X56738Y-29284D01*
X56672Y-29125D01*
X56550Y-29003D01*
X56391Y-28937D01*
X56219Y-28936D01*
X56060Y-29002D01*
X55938Y-29124D01*
X55872Y-29283D01*
X55871Y-29455D01*
X55937Y-29615D01*
X56059Y-29737D01*
X56218Y-29803D01*
X56390Y-29803D01*
X56550Y-29737D01*
X56672Y-29615D01*
X56738Y-29456D01*
X56738Y-29284D01*
X56738Y-30284D01*
X56672Y-30125D01*
X56550Y-30003D01*
X56391Y-29937D01*
X56219Y-29936D01*
X56060Y-30002D01*
X55938Y-30124D01*
X55872Y-30283D01*
X55871Y-30455D01*
X55937Y-30615D01*
X56059Y-30737D01*
X56218Y-30803D01*
X56390Y-30803D01*
X56550Y-30737D01*
X56672Y-30615D01*
X56738Y-30456D01*
X56738Y-30284D01*
X56738Y-46988D01*
X56642Y-46988D01*
X56555Y-47024D01*
X56555Y-46209D01*
X56516Y-46115D01*
X56444Y-46043D01*
X56350Y-46003D01*
X56248Y-46003D01*
X56213Y-46018D01*
X56220Y-46011D01*
X56259Y-45917D01*
X56259Y-45826D01*
X56349Y-45826D01*
X56443Y-45787D01*
X56516Y-45716D01*
X56555Y-45621D01*
X56555Y-45520D01*
X56516Y-45426D01*
X56444Y-45354D01*
X56350Y-45315D01*
X56248Y-45314D01*
X56220Y-45326D01*
X56220Y-32043D01*
X56187Y-31964D01*
X56126Y-31903D01*
X56047Y-31870D01*
X55961Y-31870D01*
X55881Y-31902D01*
X55820Y-31963D01*
X55787Y-32043D01*
X55787Y-32129D01*
X55820Y-32209D01*
X55881Y-32270D01*
X55960Y-32303D01*
X56046Y-32303D01*
X56126Y-32270D01*
X56187Y-32209D01*
X56220Y-32129D01*
X56220Y-32043D01*
X56220Y-45326D01*
X56154Y-45353D01*
X56082Y-45425D01*
X56043Y-45519D01*
X56043Y-45610D01*
X55953Y-45610D01*
X55859Y-45649D01*
X55787Y-45720D01*
X55748Y-45815D01*
X55747Y-45916D01*
X55786Y-46010D01*
X55858Y-46082D01*
X55952Y-46122D01*
X56054Y-46122D01*
X56089Y-46107D01*
X56082Y-46114D01*
X56043Y-46208D01*
X56043Y-46310D01*
X56082Y-46404D01*
X56154Y-46476D01*
X56248Y-46515D01*
X56349Y-46515D01*
X56443Y-46476D01*
X56516Y-46404D01*
X56555Y-46310D01*
X56555Y-46209D01*
X56555Y-47024D01*
X56548Y-47027D01*
X56476Y-47098D01*
X56437Y-47192D01*
X56436Y-47294D01*
X56475Y-47388D01*
X56547Y-47460D01*
X56641Y-47499D01*
X56743Y-47500D01*
X56837Y-47461D01*
X56909Y-47389D01*
X56948Y-47295D01*
X56948Y-47193D01*
X56948Y-48113D01*
X56938Y-48124D01*
X56872Y-48283D01*
X56871Y-48455D01*
X56937Y-48615D01*
X57059Y-48737D01*
X57218Y-48803D01*
X57390Y-48803D01*
X57550Y-48737D01*
X57672Y-48615D01*
X57738Y-48456D01*
X57738Y-48284D01*
X57738Y-49284D01*
X57672Y-49125D01*
X57550Y-49003D01*
X57391Y-48937D01*
X57219Y-48936D01*
X57060Y-49002D01*
X56938Y-49124D01*
X56872Y-49283D01*
X56871Y-49455D01*
X56937Y-49615D01*
X57059Y-49737D01*
X57218Y-49803D01*
X57390Y-49803D01*
X57550Y-49737D01*
X57672Y-49615D01*
X57738Y-49456D01*
X57738Y-49284D01*
X57738Y-49980D01*
X56738Y-49980D01*
X56738Y-49284D01*
X56738Y-48284D01*
X56672Y-48125D01*
X56550Y-48003D01*
X56391Y-47937D01*
X56219Y-47936D01*
X56060Y-48002D01*
X55938Y-48124D01*
X55872Y-48283D01*
X55871Y-48455D01*
X55937Y-48615D01*
X56059Y-48737D01*
X56218Y-48803D01*
X56390Y-48803D01*
X56550Y-48737D01*
X56672Y-48615D01*
X56738Y-48456D01*
X56738Y-48284D01*
X56738Y-49284D01*
X56672Y-49125D01*
X56550Y-49003D01*
X56391Y-48937D01*
X56219Y-48936D01*
X56060Y-49002D01*
X55938Y-49124D01*
X55872Y-49283D01*
X55871Y-49455D01*
X55937Y-49615D01*
X56059Y-49737D01*
X56218Y-49803D01*
X56390Y-49803D01*
X56550Y-49737D01*
X56672Y-49615D01*
X56738Y-49456D01*
X56738Y-49284D01*
X56738Y-49980D01*
X55137Y-49980D01*
X55137Y-42470D01*
X55186Y-42470D01*
X55312Y-42418D01*
X55409Y-42321D01*
X55462Y-42194D01*
X55462Y-42057D01*
X55410Y-41931D01*
X55313Y-41834D01*
X55186Y-41781D01*
X55137Y-41781D01*
X55137Y-30964D01*
X55168Y-30964D01*
X55262Y-30925D01*
X55334Y-30853D01*
X55373Y-30759D01*
X55374Y-30657D01*
X55335Y-30563D01*
X55263Y-30491D01*
X55169Y-30452D01*
X55137Y-30452D01*
X55137Y-28759D01*
X73420Y-28759D01*
X74985Y-29542D01*
X75767Y-31107D01*
X75767Y-36594D01*
X75767Y-36594D01*
G37*
G54D21*
X75767Y-36594D02*
X75452Y-36594D01*
X75452Y-36169D01*
X75413Y-36075D01*
X75361Y-36023D01*
X75413Y-35971D01*
X75452Y-35877D01*
X75452Y-35776D01*
X75413Y-35682D01*
X75341Y-35609D01*
X75247Y-35570D01*
X75146Y-35570D01*
X75052Y-35609D01*
X74999Y-35661D01*
X74948Y-35609D01*
X74854Y-35570D01*
X74752Y-35570D01*
X74658Y-35609D01*
X74606Y-35661D01*
X74554Y-35609D01*
X74460Y-35570D01*
X74358Y-35570D01*
X74264Y-35609D01*
X74192Y-35681D01*
X74153Y-35775D01*
X74153Y-35877D01*
X74192Y-35971D01*
X74244Y-36023D01*
X74192Y-36075D01*
X74153Y-36169D01*
X74153Y-36271D01*
X74192Y-36365D01*
X74264Y-36437D01*
X74358Y-36476D01*
X74460Y-36476D01*
X74554Y-36437D01*
X74606Y-36385D01*
X74658Y-36437D01*
X74752Y-36476D01*
X74853Y-36476D01*
X74947Y-36437D01*
X75000Y-36385D01*
X75051Y-36437D01*
X75145Y-36476D01*
X75247Y-36476D01*
X75341Y-36437D01*
X75413Y-36365D01*
X75452Y-36271D01*
X75452Y-36169D01*
X75452Y-36594D01*
X73779Y-36594D01*
X73779Y-33709D01*
X73740Y-33615D01*
X73688Y-33562D01*
X73740Y-33511D01*
X73779Y-33417D01*
X73779Y-33315D01*
X73740Y-33221D01*
X73688Y-33169D01*
X73740Y-33117D01*
X73779Y-33023D01*
X73779Y-32921D01*
X73740Y-32827D01*
X73668Y-32755D01*
X73574Y-32716D01*
X73484Y-32716D01*
X73484Y-31839D01*
X73445Y-31744D01*
X73393Y-31692D01*
X73445Y-31641D01*
X73484Y-31547D01*
X73484Y-31445D01*
X73445Y-31351D01*
X73373Y-31279D01*
X73279Y-31240D01*
X73177Y-31240D01*
X73083Y-31278D01*
X73011Y-31350D01*
X72972Y-31444D01*
X72972Y-31546D01*
X73011Y-31640D01*
X73063Y-31692D01*
X73011Y-31744D01*
X72972Y-31838D01*
X72972Y-31940D01*
X73011Y-32034D01*
X73083Y-32106D01*
X73177Y-32145D01*
X73279Y-32145D01*
X73373Y-32106D01*
X73445Y-32034D01*
X73484Y-31940D01*
X73484Y-31839D01*
X73484Y-32716D01*
X73472Y-32716D01*
X73378Y-32755D01*
X73326Y-32807D01*
X73275Y-32755D01*
X73181Y-32716D01*
X73079Y-32716D01*
X72985Y-32755D01*
X72913Y-32827D01*
X72874Y-32921D01*
X72873Y-33023D01*
X72912Y-33117D01*
X72964Y-33169D01*
X72913Y-33220D01*
X72874Y-33315D01*
X72873Y-33416D01*
X72912Y-33510D01*
X72964Y-33563D01*
X72913Y-33614D01*
X72874Y-33708D01*
X72873Y-33810D01*
X72912Y-33904D01*
X72984Y-33976D01*
X73078Y-34015D01*
X73180Y-34015D01*
X73274Y-33976D01*
X73326Y-33924D01*
X73378Y-33976D01*
X73472Y-34015D01*
X73574Y-34015D01*
X73668Y-33976D01*
X73740Y-33904D01*
X73779Y-33810D01*
X73779Y-33709D01*
X73779Y-36594D01*
X72854Y-36594D01*
X72854Y-31854D01*
X72827Y-31789D01*
X72777Y-31739D01*
X72755Y-31730D01*
X72755Y-29976D01*
X72723Y-29897D01*
X72662Y-29836D01*
X72582Y-29803D01*
X72496Y-29803D01*
X72416Y-29836D01*
X72355Y-29896D01*
X72322Y-29976D01*
X72322Y-30062D01*
X72355Y-30142D01*
X72416Y-30203D01*
X72496Y-30236D01*
X72582Y-30236D01*
X72661Y-30203D01*
X72722Y-30142D01*
X72755Y-30062D01*
X72755Y-29976D01*
X72755Y-31730D01*
X72712Y-31712D01*
X72642Y-31712D01*
X72576Y-31739D01*
X72559Y-31757D01*
X72541Y-31739D01*
X72476Y-31712D01*
X72405Y-31712D01*
X72340Y-31739D01*
X72322Y-31757D01*
X72305Y-31739D01*
X72240Y-31712D01*
X72169Y-31712D01*
X72106Y-31738D01*
X72106Y-29476D01*
X72067Y-29382D01*
X71995Y-29310D01*
X71901Y-29271D01*
X71799Y-29271D01*
X71705Y-29310D01*
X71633Y-29382D01*
X71594Y-29476D01*
X71594Y-29578D01*
X71633Y-29672D01*
X71705Y-29744D01*
X71799Y-29783D01*
X71901Y-29783D01*
X71995Y-29744D01*
X72067Y-29672D01*
X72106Y-29578D01*
X72106Y-29476D01*
X72106Y-31738D01*
X72104Y-31739D01*
X72054Y-31789D01*
X72027Y-31854D01*
X72027Y-31924D01*
X72054Y-31989D01*
X72104Y-32039D01*
X72169Y-32066D01*
X72239Y-32066D01*
X72304Y-32040D01*
X72322Y-32022D01*
X72340Y-32039D01*
X72405Y-32066D01*
X72476Y-32066D01*
X72541Y-32040D01*
X72559Y-32022D01*
X72576Y-32039D01*
X72641Y-32066D01*
X72712Y-32066D01*
X72777Y-32040D01*
X72827Y-31990D01*
X72854Y-31925D01*
X72854Y-31854D01*
X72854Y-36594D01*
X71909Y-36594D01*
X71909Y-32232D01*
X71870Y-32138D01*
X71818Y-32086D01*
X71870Y-32034D01*
X71909Y-31940D01*
X71909Y-31839D01*
X71870Y-31744D01*
X71818Y-31692D01*
X71870Y-31641D01*
X71909Y-31547D01*
X71909Y-31445D01*
X71870Y-31351D01*
X71798Y-31279D01*
X71704Y-31240D01*
X71602Y-31240D01*
X71508Y-31278D01*
X71436Y-31350D01*
X71397Y-31444D01*
X71397Y-31546D01*
X71436Y-31640D01*
X71488Y-31692D01*
X71436Y-31744D01*
X71397Y-31838D01*
X71397Y-31940D01*
X71436Y-32034D01*
X71488Y-32086D01*
X71436Y-32138D01*
X71397Y-32232D01*
X71397Y-32334D01*
X71436Y-32428D01*
X71508Y-32500D01*
X71602Y-32539D01*
X71704Y-32539D01*
X71798Y-32500D01*
X71870Y-32428D01*
X71909Y-32334D01*
X71909Y-32232D01*
X71909Y-36594D01*
X71028Y-36594D01*
X71028Y-29726D01*
X70918Y-29460D01*
X70715Y-29257D01*
X70449Y-29146D01*
X70161Y-29146D01*
X69895Y-29256D01*
X69692Y-29459D01*
X69581Y-29725D01*
X69581Y-30013D01*
X69691Y-30279D01*
X69894Y-30483D01*
X70160Y-30593D01*
X70448Y-30593D01*
X70714Y-30483D01*
X70918Y-30280D01*
X71028Y-30014D01*
X71028Y-29726D01*
X71028Y-36594D01*
X70295Y-36594D01*
X70295Y-31453D01*
X70262Y-31373D01*
X70201Y-31312D01*
X70122Y-31279D01*
X70035Y-31279D01*
X69956Y-31312D01*
X69895Y-31373D01*
X69862Y-31452D01*
X69862Y-31538D01*
X69895Y-31618D01*
X69955Y-31679D01*
X70035Y-31712D01*
X70121Y-31712D01*
X70201Y-31679D01*
X70262Y-31618D01*
X70295Y-31539D01*
X70295Y-31453D01*
X70295Y-36594D01*
X68738Y-36594D01*
X68738Y-30284D01*
X68738Y-29284D01*
X68672Y-29125D01*
X68550Y-29003D01*
X68391Y-28937D01*
X68219Y-28936D01*
X68060Y-29002D01*
X67938Y-29124D01*
X67872Y-29283D01*
X67871Y-29455D01*
X67937Y-29615D01*
X68059Y-29737D01*
X68218Y-29803D01*
X68390Y-29803D01*
X68550Y-29737D01*
X68672Y-29615D01*
X68738Y-29456D01*
X68738Y-29284D01*
X68738Y-30284D01*
X68672Y-30125D01*
X68550Y-30003D01*
X68391Y-29937D01*
X68219Y-29936D01*
X68060Y-30002D01*
X67938Y-30124D01*
X67872Y-30283D01*
X67871Y-30455D01*
X67937Y-30615D01*
X68059Y-30737D01*
X68218Y-30803D01*
X68390Y-30803D01*
X68550Y-30737D01*
X68672Y-30615D01*
X68738Y-30456D01*
X68738Y-30284D01*
X68738Y-36594D01*
X68563Y-36594D01*
X68563Y-34890D01*
X68524Y-34796D01*
X68452Y-34724D01*
X68358Y-34685D01*
X68256Y-34684D01*
X68162Y-34723D01*
X68090Y-34795D01*
X68051Y-34889D01*
X68051Y-34991D01*
X68090Y-35085D01*
X68161Y-35157D01*
X68255Y-35196D01*
X68357Y-35196D01*
X68451Y-35158D01*
X68523Y-35086D01*
X68562Y-34992D01*
X68563Y-34890D01*
X68563Y-36594D01*
X67972Y-36594D01*
X67972Y-35382D01*
X67933Y-35288D01*
X67861Y-35216D01*
X67767Y-35177D01*
X67741Y-35177D01*
X67741Y-30434D01*
X67741Y-29434D01*
X67733Y-29262D01*
X67684Y-29143D01*
X67626Y-29104D01*
X67570Y-29160D01*
X67570Y-29048D01*
X67531Y-28991D01*
X67369Y-28933D01*
X67197Y-28941D01*
X67078Y-28991D01*
X67039Y-29048D01*
X67305Y-29314D01*
X67570Y-29048D01*
X67570Y-29160D01*
X67360Y-29370D01*
X67626Y-29635D01*
X67684Y-29596D01*
X67741Y-29434D01*
X67741Y-30434D01*
X67733Y-30262D01*
X67684Y-30143D01*
X67626Y-30104D01*
X67570Y-30160D01*
X67570Y-30048D01*
X67570Y-29691D01*
X67305Y-29425D01*
X67249Y-29481D01*
X67249Y-29370D01*
X66983Y-29104D01*
X66926Y-29143D01*
X66868Y-29305D01*
X66876Y-29477D01*
X66926Y-29596D01*
X66983Y-29635D01*
X67249Y-29370D01*
X67249Y-29481D01*
X67039Y-29691D01*
X67078Y-29749D01*
X67240Y-29806D01*
X67412Y-29798D01*
X67531Y-29749D01*
X67570Y-29691D01*
X67570Y-30048D01*
X67531Y-29991D01*
X67369Y-29933D01*
X67197Y-29941D01*
X67078Y-29991D01*
X67039Y-30048D01*
X67305Y-30314D01*
X67570Y-30048D01*
X67570Y-30160D01*
X67360Y-30370D01*
X67626Y-30635D01*
X67684Y-30596D01*
X67741Y-30434D01*
X67741Y-35177D01*
X67665Y-35177D01*
X67571Y-35215D01*
X67570Y-35216D01*
X67570Y-30691D01*
X67305Y-30425D01*
X67249Y-30481D01*
X67249Y-30370D01*
X66983Y-30104D01*
X66926Y-30143D01*
X66868Y-30305D01*
X66876Y-30477D01*
X66926Y-30596D01*
X66983Y-30635D01*
X67249Y-30370D01*
X67249Y-30481D01*
X67039Y-30691D01*
X67078Y-30749D01*
X67240Y-30806D01*
X67412Y-30798D01*
X67531Y-30749D01*
X67570Y-30691D01*
X67570Y-35216D01*
X67499Y-35287D01*
X67460Y-35381D01*
X67460Y-35483D01*
X67499Y-35577D01*
X67571Y-35649D01*
X67665Y-35688D01*
X67767Y-35689D01*
X67861Y-35650D01*
X67933Y-35578D01*
X67972Y-35484D01*
X67972Y-35382D01*
X67972Y-36594D01*
X67893Y-36594D01*
X67893Y-37106D01*
X67381Y-37106D01*
X67381Y-34890D01*
X67343Y-34796D01*
X67271Y-34724D01*
X67177Y-34685D01*
X67075Y-34684D01*
X66981Y-34723D01*
X66909Y-34795D01*
X66870Y-34889D01*
X66870Y-34991D01*
X66908Y-35085D01*
X66980Y-35157D01*
X67074Y-35196D01*
X67176Y-35196D01*
X67270Y-35158D01*
X67342Y-35086D01*
X67381Y-34992D01*
X67381Y-34890D01*
X67381Y-37106D01*
X66738Y-37106D01*
X66738Y-30284D01*
X66738Y-29284D01*
X66672Y-29125D01*
X66550Y-29003D01*
X66391Y-28937D01*
X66219Y-28936D01*
X66060Y-29002D01*
X65938Y-29124D01*
X65872Y-29283D01*
X65871Y-29455D01*
X65937Y-29615D01*
X66059Y-29737D01*
X66218Y-29803D01*
X66390Y-29803D01*
X66550Y-29737D01*
X66672Y-29615D01*
X66738Y-29456D01*
X66738Y-29284D01*
X66738Y-30284D01*
X66672Y-30125D01*
X66550Y-30003D01*
X66391Y-29937D01*
X66219Y-29936D01*
X66060Y-30002D01*
X65938Y-30124D01*
X65872Y-30283D01*
X65871Y-30455D01*
X65937Y-30615D01*
X66059Y-30737D01*
X66218Y-30803D01*
X66390Y-30803D01*
X66550Y-30737D01*
X66672Y-30615D01*
X66738Y-30456D01*
X66738Y-30284D01*
X66738Y-37106D01*
X65738Y-37106D01*
X65738Y-30284D01*
X65738Y-29284D01*
X65672Y-29125D01*
X65550Y-29003D01*
X65391Y-28937D01*
X65219Y-28936D01*
X65060Y-29002D01*
X64938Y-29124D01*
X64872Y-29283D01*
X64871Y-29455D01*
X64937Y-29615D01*
X65059Y-29737D01*
X65218Y-29803D01*
X65390Y-29803D01*
X65550Y-29737D01*
X65672Y-29615D01*
X65738Y-29456D01*
X65738Y-29284D01*
X65738Y-30284D01*
X65672Y-30125D01*
X65550Y-30003D01*
X65391Y-29937D01*
X65219Y-29936D01*
X65060Y-30002D01*
X64938Y-30124D01*
X64872Y-30283D01*
X64871Y-30455D01*
X64937Y-30615D01*
X65059Y-30737D01*
X65218Y-30803D01*
X65390Y-30803D01*
X65550Y-30737D01*
X65672Y-30615D01*
X65738Y-30456D01*
X65738Y-30284D01*
X65738Y-37106D01*
X65177Y-37106D01*
X65177Y-35291D01*
X65144Y-35212D01*
X65083Y-35151D01*
X65003Y-35118D01*
X64917Y-35118D01*
X64838Y-35150D01*
X64777Y-35211D01*
X64744Y-35291D01*
X64744Y-35377D01*
X64776Y-35457D01*
X64837Y-35518D01*
X64917Y-35551D01*
X65003Y-35551D01*
X65083Y-35518D01*
X65144Y-35457D01*
X65177Y-35377D01*
X65177Y-35291D01*
X65177Y-37106D01*
X64738Y-37106D01*
X64738Y-30284D01*
X64738Y-29284D01*
X64672Y-29125D01*
X64550Y-29003D01*
X64391Y-28937D01*
X64219Y-28936D01*
X64060Y-29002D01*
X63938Y-29124D01*
X63872Y-29283D01*
X63871Y-29455D01*
X63937Y-29615D01*
X64059Y-29737D01*
X64218Y-29803D01*
X64390Y-29803D01*
X64550Y-29737D01*
X64672Y-29615D01*
X64738Y-29456D01*
X64738Y-29284D01*
X64738Y-30284D01*
X64672Y-30125D01*
X64550Y-30003D01*
X64391Y-29937D01*
X64219Y-29936D01*
X64060Y-30002D01*
X63938Y-30124D01*
X63872Y-30283D01*
X63871Y-30455D01*
X63937Y-30615D01*
X64059Y-30737D01*
X64218Y-30803D01*
X64390Y-30803D01*
X64550Y-30737D01*
X64672Y-30615D01*
X64738Y-30456D01*
X64738Y-30284D01*
X64738Y-37106D01*
X64389Y-37106D01*
X64389Y-34602D01*
X64356Y-34523D01*
X64296Y-34462D01*
X64216Y-34429D01*
X64130Y-34429D01*
X64050Y-34461D01*
X63989Y-34522D01*
X63956Y-34602D01*
X63956Y-34688D01*
X63989Y-34768D01*
X64050Y-34829D01*
X64129Y-34862D01*
X64216Y-34862D01*
X64295Y-34829D01*
X64356Y-34768D01*
X64389Y-34688D01*
X64389Y-34602D01*
X64389Y-37106D01*
X63973Y-37106D01*
X63996Y-37051D01*
X63996Y-36964D01*
X63963Y-36885D01*
X63902Y-36824D01*
X63822Y-36791D01*
X63738Y-36791D01*
X63738Y-30284D01*
X63738Y-29284D01*
X63672Y-29125D01*
X63550Y-29003D01*
X63391Y-28937D01*
X63219Y-28936D01*
X63060Y-29002D01*
X62938Y-29124D01*
X62872Y-29283D01*
X62871Y-29455D01*
X62937Y-29615D01*
X63059Y-29737D01*
X63218Y-29803D01*
X63390Y-29803D01*
X63550Y-29737D01*
X63672Y-29615D01*
X63738Y-29456D01*
X63738Y-29284D01*
X63738Y-30284D01*
X63672Y-30125D01*
X63550Y-30003D01*
X63391Y-29937D01*
X63219Y-29936D01*
X63060Y-30002D01*
X62938Y-30124D01*
X62872Y-30283D01*
X62871Y-30455D01*
X62937Y-30615D01*
X63059Y-30737D01*
X63218Y-30803D01*
X63390Y-30803D01*
X63550Y-30737D01*
X63672Y-30615D01*
X63738Y-30456D01*
X63738Y-30284D01*
X63738Y-36791D01*
X63736Y-36791D01*
X63657Y-36824D01*
X63602Y-36878D01*
X63602Y-35783D01*
X63569Y-35704D01*
X63508Y-35643D01*
X63429Y-35610D01*
X63342Y-35610D01*
X63263Y-35643D01*
X63208Y-35697D01*
X63208Y-34602D01*
X63175Y-34523D01*
X63114Y-34462D01*
X63035Y-34429D01*
X62949Y-34429D01*
X62869Y-34461D01*
X62808Y-34522D01*
X62775Y-34602D01*
X62775Y-34688D01*
X62808Y-34768D01*
X62869Y-34829D01*
X62948Y-34862D01*
X63035Y-34862D01*
X63114Y-34829D01*
X63175Y-34768D01*
X63208Y-34688D01*
X63208Y-34602D01*
X63208Y-35697D01*
X63202Y-35703D01*
X63169Y-35783D01*
X63169Y-35869D01*
X63202Y-35949D01*
X63263Y-36010D01*
X63342Y-36043D01*
X63428Y-36043D01*
X63508Y-36010D01*
X63569Y-35949D01*
X63602Y-35870D01*
X63602Y-35783D01*
X63602Y-36878D01*
X63596Y-36885D01*
X63563Y-36964D01*
X63562Y-37050D01*
X63585Y-37106D01*
X62738Y-37106D01*
X62738Y-30284D01*
X62738Y-29284D01*
X62672Y-29125D01*
X62550Y-29003D01*
X62391Y-28937D01*
X62219Y-28936D01*
X62060Y-29002D01*
X61938Y-29124D01*
X61872Y-29283D01*
X61871Y-29455D01*
X61937Y-29615D01*
X62059Y-29737D01*
X62218Y-29803D01*
X62390Y-29803D01*
X62550Y-29737D01*
X62672Y-29615D01*
X62738Y-29456D01*
X62738Y-29284D01*
X62738Y-30284D01*
X62672Y-30125D01*
X62550Y-30003D01*
X62391Y-29937D01*
X62219Y-29936D01*
X62060Y-30002D01*
X61938Y-30124D01*
X61872Y-30283D01*
X61871Y-30455D01*
X61937Y-30615D01*
X62059Y-30737D01*
X62218Y-30803D01*
X62390Y-30803D01*
X62550Y-30737D01*
X62672Y-30615D01*
X62738Y-30456D01*
X62738Y-30284D01*
X62738Y-37106D01*
X62500Y-37106D01*
X62500Y-36318D01*
X62398Y-36318D01*
X62421Y-36263D01*
X62421Y-36177D01*
X62421Y-35390D01*
X62388Y-35310D01*
X62327Y-35249D01*
X62247Y-35216D01*
X62161Y-35216D01*
X62082Y-35249D01*
X62021Y-35310D01*
X61988Y-35389D01*
X61988Y-35475D01*
X62021Y-35555D01*
X62081Y-35616D01*
X62161Y-35649D01*
X62247Y-35649D01*
X62327Y-35616D01*
X62388Y-35555D01*
X62421Y-35476D01*
X62421Y-35390D01*
X62421Y-36177D01*
X62388Y-36097D01*
X62327Y-36037D01*
X62247Y-36003D01*
X62161Y-36003D01*
X62082Y-36036D01*
X62021Y-36097D01*
X61988Y-36177D01*
X61988Y-36263D01*
X62011Y-36318D01*
X61738Y-36318D01*
X61738Y-30284D01*
X61738Y-29284D01*
X61672Y-29125D01*
X61550Y-29003D01*
X61391Y-28937D01*
X61219Y-28936D01*
X61060Y-29002D01*
X60938Y-29124D01*
X60872Y-29283D01*
X60871Y-29455D01*
X60937Y-29615D01*
X61059Y-29737D01*
X61218Y-29803D01*
X61390Y-29803D01*
X61550Y-29737D01*
X61672Y-29615D01*
X61738Y-29456D01*
X61738Y-29284D01*
X61738Y-30284D01*
X61672Y-30125D01*
X61550Y-30003D01*
X61391Y-29937D01*
X61219Y-29936D01*
X61060Y-30002D01*
X60938Y-30124D01*
X60872Y-30283D01*
X60871Y-30455D01*
X60937Y-30615D01*
X61059Y-30737D01*
X61218Y-30803D01*
X61390Y-30803D01*
X61550Y-30737D01*
X61672Y-30615D01*
X61738Y-30456D01*
X61738Y-30284D01*
X61738Y-36318D01*
X61610Y-36318D01*
X61633Y-36263D01*
X61633Y-36177D01*
X61633Y-35390D01*
X61600Y-35310D01*
X61540Y-35249D01*
X61507Y-35236D01*
X61539Y-35223D01*
X61600Y-35162D01*
X61633Y-35082D01*
X61633Y-34996D01*
X61600Y-34916D01*
X61540Y-34855D01*
X61460Y-34822D01*
X61374Y-34822D01*
X61294Y-34855D01*
X61233Y-34916D01*
X61200Y-34996D01*
X61200Y-35082D01*
X61233Y-35161D01*
X61294Y-35222D01*
X61326Y-35236D01*
X61294Y-35249D01*
X61233Y-35310D01*
X61200Y-35389D01*
X61200Y-35475D01*
X61233Y-35555D01*
X61294Y-35616D01*
X61374Y-35649D01*
X61460Y-35649D01*
X61539Y-35616D01*
X61600Y-35555D01*
X61633Y-35476D01*
X61633Y-35390D01*
X61633Y-36177D01*
X61600Y-36097D01*
X61540Y-36037D01*
X61460Y-36003D01*
X61374Y-36003D01*
X61294Y-36036D01*
X61233Y-36097D01*
X61200Y-36177D01*
X61200Y-36263D01*
X61223Y-36318D01*
X60846Y-36318D01*
X60846Y-35783D01*
X60813Y-35704D01*
X60752Y-35643D01*
X60738Y-35637D01*
X60738Y-30284D01*
X60738Y-29284D01*
X60672Y-29125D01*
X60550Y-29003D01*
X60391Y-28937D01*
X60219Y-28936D01*
X60060Y-29002D01*
X59938Y-29124D01*
X59872Y-29283D01*
X59871Y-29455D01*
X59937Y-29615D01*
X60059Y-29737D01*
X60218Y-29803D01*
X60390Y-29803D01*
X60550Y-29737D01*
X60672Y-29615D01*
X60738Y-29456D01*
X60738Y-29284D01*
X60738Y-30284D01*
X60672Y-30125D01*
X60550Y-30003D01*
X60391Y-29937D01*
X60219Y-29936D01*
X60060Y-30002D01*
X59938Y-30124D01*
X59872Y-30283D01*
X59871Y-30455D01*
X59937Y-30615D01*
X60059Y-30737D01*
X60218Y-30803D01*
X60390Y-30803D01*
X60550Y-30737D01*
X60672Y-30615D01*
X60738Y-30456D01*
X60738Y-30284D01*
X60738Y-35637D01*
X60673Y-35610D01*
X60587Y-35610D01*
X60551Y-35624D01*
X60551Y-33716D01*
X60518Y-33637D01*
X60457Y-33576D01*
X60377Y-33543D01*
X60291Y-33543D01*
X60212Y-33576D01*
X60151Y-33637D01*
X60118Y-33716D01*
X60118Y-33802D01*
X60150Y-33882D01*
X60211Y-33943D01*
X60291Y-33976D01*
X60377Y-33976D01*
X60457Y-33943D01*
X60518Y-33882D01*
X60551Y-33803D01*
X60551Y-33716D01*
X60551Y-35624D01*
X60507Y-35643D01*
X60452Y-35697D01*
X60452Y-34602D01*
X60419Y-34523D01*
X60359Y-34462D01*
X60326Y-34448D01*
X60358Y-34435D01*
X60419Y-34374D01*
X60452Y-34295D01*
X60452Y-34209D01*
X60419Y-34129D01*
X60359Y-34068D01*
X60279Y-34035D01*
X60193Y-34035D01*
X60113Y-34068D01*
X60052Y-34129D01*
X60019Y-34208D01*
X60019Y-34294D01*
X60052Y-34374D01*
X60113Y-34435D01*
X60145Y-34448D01*
X60113Y-34461D01*
X60052Y-34522D01*
X60019Y-34602D01*
X60019Y-34688D01*
X60052Y-34768D01*
X60113Y-34829D01*
X60192Y-34862D01*
X60279Y-34862D01*
X60358Y-34829D01*
X60419Y-34768D01*
X60452Y-34688D01*
X60452Y-34602D01*
X60452Y-35697D01*
X60446Y-35703D01*
X60413Y-35783D01*
X60413Y-35869D01*
X60446Y-35949D01*
X60507Y-36010D01*
X60586Y-36043D01*
X60672Y-36043D01*
X60752Y-36010D01*
X60813Y-35949D01*
X60846Y-35870D01*
X60846Y-35783D01*
X60846Y-36318D01*
X60036Y-36318D01*
X60059Y-36263D01*
X60059Y-36177D01*
X60026Y-36097D01*
X59965Y-36037D01*
X59885Y-36003D01*
X59799Y-36003D01*
X59738Y-36029D01*
X59738Y-30284D01*
X59738Y-29284D01*
X59672Y-29125D01*
X59550Y-29003D01*
X59391Y-28937D01*
X59219Y-28936D01*
X59060Y-29002D01*
X58938Y-29124D01*
X58872Y-29283D01*
X58871Y-29455D01*
X58937Y-29615D01*
X59059Y-29737D01*
X59218Y-29803D01*
X59390Y-29803D01*
X59550Y-29737D01*
X59672Y-29615D01*
X59738Y-29456D01*
X59738Y-29284D01*
X59738Y-30284D01*
X59672Y-30125D01*
X59550Y-30003D01*
X59391Y-29937D01*
X59219Y-29936D01*
X59060Y-30002D01*
X58938Y-30124D01*
X58872Y-30283D01*
X58871Y-30455D01*
X58937Y-30615D01*
X59059Y-30737D01*
X59218Y-30803D01*
X59390Y-30803D01*
X59550Y-30737D01*
X59672Y-30615D01*
X59738Y-30456D01*
X59738Y-30284D01*
X59738Y-36029D01*
X59720Y-36036D01*
X59659Y-36097D01*
X59626Y-36177D01*
X59625Y-36263D01*
X59648Y-36318D01*
X59547Y-36318D01*
X59547Y-36420D01*
X59492Y-36397D01*
X59468Y-36397D01*
X59468Y-32043D01*
X59435Y-31964D01*
X59374Y-31903D01*
X59295Y-31870D01*
X59209Y-31870D01*
X59129Y-31902D01*
X59068Y-31963D01*
X59035Y-32043D01*
X59035Y-32129D01*
X59068Y-32209D01*
X59129Y-32270D01*
X59208Y-32303D01*
X59294Y-32303D01*
X59374Y-32270D01*
X59435Y-32209D01*
X59468Y-32129D01*
X59468Y-32043D01*
X59468Y-36397D01*
X59405Y-36397D01*
X59326Y-36430D01*
X59271Y-36485D01*
X59271Y-35783D01*
X59238Y-35704D01*
X59177Y-35643D01*
X59145Y-35629D01*
X59177Y-35616D01*
X59238Y-35555D01*
X59271Y-35476D01*
X59271Y-35390D01*
X59238Y-35310D01*
X59177Y-35249D01*
X59098Y-35216D01*
X59012Y-35216D01*
X58932Y-35249D01*
X58877Y-35303D01*
X58877Y-34602D01*
X58845Y-34523D01*
X58784Y-34462D01*
X58738Y-34443D01*
X58738Y-30284D01*
X58738Y-29284D01*
X58672Y-29125D01*
X58550Y-29003D01*
X58391Y-28937D01*
X58219Y-28936D01*
X58060Y-29002D01*
X57938Y-29124D01*
X57872Y-29283D01*
X57871Y-29455D01*
X57937Y-29615D01*
X58059Y-29737D01*
X58218Y-29803D01*
X58390Y-29803D01*
X58550Y-29737D01*
X58672Y-29615D01*
X58738Y-29456D01*
X58738Y-29284D01*
X58738Y-30284D01*
X58672Y-30125D01*
X58550Y-30003D01*
X58391Y-29937D01*
X58219Y-29936D01*
X58060Y-30002D01*
X57938Y-30124D01*
X57872Y-30283D01*
X57871Y-30455D01*
X57937Y-30615D01*
X58059Y-30737D01*
X58218Y-30803D01*
X58390Y-30803D01*
X58550Y-30737D01*
X58672Y-30615D01*
X58738Y-30456D01*
X58738Y-30284D01*
X58738Y-34443D01*
X58704Y-34429D01*
X58618Y-34429D01*
X58538Y-34461D01*
X58477Y-34522D01*
X58444Y-34602D01*
X58444Y-34688D01*
X58477Y-34768D01*
X58538Y-34829D01*
X58618Y-34862D01*
X58704Y-34862D01*
X58783Y-34829D01*
X58844Y-34768D01*
X58877Y-34688D01*
X58877Y-34602D01*
X58877Y-35303D01*
X58871Y-35310D01*
X58838Y-35389D01*
X58838Y-35475D01*
X58871Y-35555D01*
X58932Y-35616D01*
X58964Y-35629D01*
X58932Y-35643D01*
X58871Y-35703D01*
X58838Y-35783D01*
X58838Y-35869D01*
X58871Y-35949D01*
X58932Y-36010D01*
X59011Y-36043D01*
X59098Y-36043D01*
X59177Y-36010D01*
X59238Y-35949D01*
X59271Y-35870D01*
X59271Y-35783D01*
X59271Y-36485D01*
X59265Y-36491D01*
X59232Y-36570D01*
X59232Y-36657D01*
X59265Y-36736D01*
X59326Y-36797D01*
X59358Y-36811D01*
X59326Y-36824D01*
X59265Y-36885D01*
X59232Y-36964D01*
X59232Y-37050D01*
X59265Y-37130D01*
X59326Y-37191D01*
X59405Y-37224D01*
X59491Y-37224D01*
X59547Y-37201D01*
X59547Y-37601D01*
X59492Y-37578D01*
X59405Y-37578D01*
X59326Y-37611D01*
X59265Y-37672D01*
X59232Y-37752D01*
X59232Y-37838D01*
X59265Y-37917D01*
X59326Y-37978D01*
X59405Y-38011D01*
X59491Y-38011D01*
X59547Y-37988D01*
X59547Y-38090D01*
X59648Y-38090D01*
X59626Y-38145D01*
X59625Y-38231D01*
X59658Y-38311D01*
X59719Y-38372D01*
X59799Y-38405D01*
X59885Y-38405D01*
X59965Y-38372D01*
X60025Y-38311D01*
X60039Y-38279D01*
X60052Y-38311D01*
X60113Y-38372D01*
X60145Y-38385D01*
X60113Y-38399D01*
X60052Y-38459D01*
X60019Y-38539D01*
X60019Y-38625D01*
X60052Y-38705D01*
X60113Y-38766D01*
X60192Y-38799D01*
X60279Y-38799D01*
X60358Y-38766D01*
X60419Y-38705D01*
X60433Y-38673D01*
X60446Y-38705D01*
X60507Y-38766D01*
X60586Y-38799D01*
X60672Y-38799D01*
X60752Y-38766D01*
X60813Y-38705D01*
X60846Y-38625D01*
X60846Y-38539D01*
X60813Y-38460D01*
X60752Y-38399D01*
X60720Y-38385D01*
X60752Y-38372D01*
X60813Y-38311D01*
X60846Y-38232D01*
X60846Y-38146D01*
X60823Y-38090D01*
X61223Y-38090D01*
X61200Y-38145D01*
X61200Y-38231D01*
X61233Y-38311D01*
X61294Y-38372D01*
X61374Y-38405D01*
X61460Y-38405D01*
X61539Y-38372D01*
X61600Y-38311D01*
X61614Y-38279D01*
X61627Y-38311D01*
X61688Y-38372D01*
X61720Y-38385D01*
X61688Y-38399D01*
X61627Y-38459D01*
X61594Y-38539D01*
X61594Y-38625D01*
X61627Y-38705D01*
X61688Y-38766D01*
X61767Y-38799D01*
X61853Y-38799D01*
X61933Y-38766D01*
X61994Y-38705D01*
X62027Y-38625D01*
X62027Y-38539D01*
X61994Y-38460D01*
X61933Y-38399D01*
X61901Y-38385D01*
X61933Y-38372D01*
X61994Y-38311D01*
X62027Y-38232D01*
X62027Y-38146D01*
X62004Y-38090D01*
X63979Y-38090D01*
X63956Y-38145D01*
X63956Y-38231D01*
X63989Y-38311D01*
X64050Y-38372D01*
X64082Y-38385D01*
X64050Y-38399D01*
X63989Y-38459D01*
X63956Y-38539D01*
X63956Y-38625D01*
X63989Y-38705D01*
X64050Y-38766D01*
X64129Y-38799D01*
X64216Y-38799D01*
X64295Y-38766D01*
X64356Y-38705D01*
X64389Y-38625D01*
X64389Y-38539D01*
X64356Y-38460D01*
X64296Y-38399D01*
X64263Y-38385D01*
X64295Y-38372D01*
X64356Y-38311D01*
X64389Y-38232D01*
X64389Y-38146D01*
X64366Y-38090D01*
X65090Y-38090D01*
X65110Y-38110D01*
X65204Y-38149D01*
X65306Y-38149D01*
X65400Y-38110D01*
X65420Y-38090D01*
X66862Y-38090D01*
X66882Y-38110D01*
X66976Y-38149D01*
X67078Y-38149D01*
X67172Y-38110D01*
X67192Y-38090D01*
X67716Y-38090D01*
X67893Y-38090D01*
X67893Y-43287D01*
X67500Y-43287D01*
X67500Y-47618D01*
X67185Y-47618D01*
X67185Y-40697D01*
X67146Y-40603D01*
X67074Y-40531D01*
X67003Y-40501D01*
X67073Y-40472D01*
X67145Y-40401D01*
X67184Y-40307D01*
X67185Y-40205D01*
X67146Y-40111D01*
X67074Y-40039D01*
X67003Y-40009D01*
X67073Y-39980D01*
X67145Y-39908D01*
X67184Y-39814D01*
X67185Y-39713D01*
X67146Y-39619D01*
X67074Y-39546D01*
X67003Y-39517D01*
X67073Y-39488D01*
X67145Y-39416D01*
X67184Y-39322D01*
X67185Y-39220D01*
X67146Y-39126D01*
X67074Y-39054D01*
X67047Y-39043D01*
X67047Y-38638D01*
X67014Y-38558D01*
X66953Y-38497D01*
X66873Y-38464D01*
X66787Y-38464D01*
X66708Y-38497D01*
X66647Y-38558D01*
X66614Y-38637D01*
X66614Y-38723D01*
X66647Y-38803D01*
X66707Y-38864D01*
X66787Y-38897D01*
X66873Y-38897D01*
X66953Y-38864D01*
X67014Y-38803D01*
X67047Y-38724D01*
X67047Y-38638D01*
X67047Y-39043D01*
X66980Y-39015D01*
X66878Y-39015D01*
X66784Y-39054D01*
X66712Y-39126D01*
X66673Y-39220D01*
X66673Y-39322D01*
X66712Y-39416D01*
X66783Y-39488D01*
X66854Y-39517D01*
X66784Y-39546D01*
X66712Y-39618D01*
X66673Y-39712D01*
X66673Y-39814D01*
X66712Y-39908D01*
X66783Y-39980D01*
X66854Y-40009D01*
X66784Y-40038D01*
X66712Y-40110D01*
X66673Y-40204D01*
X66673Y-40306D01*
X66712Y-40400D01*
X66783Y-40472D01*
X66854Y-40501D01*
X66784Y-40530D01*
X66712Y-40602D01*
X66673Y-40696D01*
X66673Y-40798D01*
X66712Y-40892D01*
X66783Y-40964D01*
X66878Y-41003D01*
X66979Y-41003D01*
X67073Y-40965D01*
X67145Y-40893D01*
X67184Y-40799D01*
X67185Y-40697D01*
X67185Y-47618D01*
X65925Y-47618D01*
X65925Y-48155D01*
X65872Y-48283D01*
X65871Y-48455D01*
X65925Y-48584D01*
X65925Y-49155D01*
X65872Y-49283D01*
X65871Y-49455D01*
X65925Y-49584D01*
X65925Y-49980D01*
X65738Y-49980D01*
X65738Y-49284D01*
X65738Y-48284D01*
X65708Y-48212D01*
X65708Y-47587D01*
X65669Y-47493D01*
X65617Y-47440D01*
X65669Y-47389D01*
X65708Y-47295D01*
X65708Y-47193D01*
X65669Y-47099D01*
X65617Y-47047D01*
X65669Y-46995D01*
X65708Y-46901D01*
X65708Y-46799D01*
X65669Y-46705D01*
X65617Y-46653D01*
X65669Y-46601D01*
X65708Y-46507D01*
X65708Y-46406D01*
X65708Y-45224D01*
X65669Y-45130D01*
X65617Y-45078D01*
X65669Y-45027D01*
X65708Y-44933D01*
X65708Y-44831D01*
X65669Y-44737D01*
X65617Y-44685D01*
X65669Y-44633D01*
X65708Y-44539D01*
X65708Y-44437D01*
X65669Y-44343D01*
X65617Y-44291D01*
X65669Y-44239D01*
X65708Y-44145D01*
X65708Y-44043D01*
X65669Y-43949D01*
X65597Y-43877D01*
X65511Y-43841D01*
X65511Y-39122D01*
X65472Y-39028D01*
X65401Y-38956D01*
X65330Y-38927D01*
X65400Y-38898D01*
X65472Y-38826D01*
X65511Y-38732D01*
X65511Y-38630D01*
X65472Y-38536D01*
X65401Y-38464D01*
X65307Y-38425D01*
X65205Y-38425D01*
X65111Y-38464D01*
X65039Y-38535D01*
X65000Y-38629D01*
X64999Y-38731D01*
X65038Y-38825D01*
X65110Y-38897D01*
X65181Y-38927D01*
X65111Y-38956D01*
X65039Y-39028D01*
X65000Y-39122D01*
X64999Y-39223D01*
X65038Y-39317D01*
X65110Y-39390D01*
X65204Y-39429D01*
X65306Y-39429D01*
X65400Y-39390D01*
X65472Y-39318D01*
X65511Y-39224D01*
X65511Y-39122D01*
X65511Y-43841D01*
X65503Y-43838D01*
X65402Y-43838D01*
X65307Y-43877D01*
X65255Y-43929D01*
X65204Y-43877D01*
X65110Y-43838D01*
X65008Y-43838D01*
X64914Y-43877D01*
X64842Y-43949D01*
X64803Y-44043D01*
X64803Y-44145D01*
X64841Y-44239D01*
X64894Y-44291D01*
X64842Y-44343D01*
X64803Y-44437D01*
X64803Y-44538D01*
X64841Y-44632D01*
X64894Y-44685D01*
X64842Y-44736D01*
X64803Y-44830D01*
X64803Y-44932D01*
X64841Y-45026D01*
X64894Y-45078D01*
X64842Y-45130D01*
X64803Y-45224D01*
X64803Y-45326D01*
X64841Y-45420D01*
X64913Y-45492D01*
X65007Y-45531D01*
X65109Y-45531D01*
X65203Y-45492D01*
X65255Y-45440D01*
X65307Y-45492D01*
X65401Y-45531D01*
X65503Y-45531D01*
X65597Y-45492D01*
X65669Y-45420D01*
X65708Y-45326D01*
X65708Y-45224D01*
X65708Y-46406D01*
X65669Y-46311D01*
X65597Y-46239D01*
X65503Y-46200D01*
X65402Y-46200D01*
X65307Y-46239D01*
X65255Y-46291D01*
X65204Y-46239D01*
X65110Y-46200D01*
X65008Y-46200D01*
X64914Y-46239D01*
X64842Y-46311D01*
X64803Y-46405D01*
X64803Y-46507D01*
X64841Y-46601D01*
X64894Y-46653D01*
X64842Y-46705D01*
X64803Y-46799D01*
X64803Y-46901D01*
X64841Y-46995D01*
X64894Y-47047D01*
X64842Y-47098D01*
X64803Y-47192D01*
X64803Y-47294D01*
X64841Y-47388D01*
X64894Y-47440D01*
X64842Y-47492D01*
X64803Y-47586D01*
X64803Y-47688D01*
X64841Y-47782D01*
X64913Y-47854D01*
X65007Y-47893D01*
X65109Y-47893D01*
X65203Y-47854D01*
X65255Y-47802D01*
X65307Y-47854D01*
X65401Y-47893D01*
X65503Y-47893D01*
X65597Y-47854D01*
X65669Y-47782D01*
X65708Y-47688D01*
X65708Y-47587D01*
X65708Y-48212D01*
X65672Y-48125D01*
X65550Y-48003D01*
X65391Y-47937D01*
X65219Y-47936D01*
X65060Y-48002D01*
X64938Y-48124D01*
X64872Y-48283D01*
X64871Y-48455D01*
X64937Y-48615D01*
X65059Y-48737D01*
X65218Y-48803D01*
X65390Y-48803D01*
X65550Y-48737D01*
X65672Y-48615D01*
X65738Y-48456D01*
X65738Y-48284D01*
X65738Y-49284D01*
X65672Y-49125D01*
X65550Y-49003D01*
X65391Y-48937D01*
X65219Y-48936D01*
X65060Y-49002D01*
X64938Y-49124D01*
X64872Y-49283D01*
X64871Y-49455D01*
X64937Y-49615D01*
X65059Y-49737D01*
X65218Y-49803D01*
X65390Y-49803D01*
X65550Y-49737D01*
X65672Y-49615D01*
X65738Y-49456D01*
X65738Y-49284D01*
X65738Y-49980D01*
X64738Y-49980D01*
X64738Y-49284D01*
X64738Y-48284D01*
X64672Y-48125D01*
X64550Y-48003D01*
X64391Y-47937D01*
X64219Y-47936D01*
X64060Y-48002D01*
X63938Y-48124D01*
X63872Y-48283D01*
X63871Y-48455D01*
X63937Y-48615D01*
X64059Y-48737D01*
X64218Y-48803D01*
X64390Y-48803D01*
X64550Y-48737D01*
X64672Y-48615D01*
X64738Y-48456D01*
X64738Y-48284D01*
X64738Y-49284D01*
X64672Y-49125D01*
X64550Y-49003D01*
X64391Y-48937D01*
X64219Y-48936D01*
X64060Y-49002D01*
X63938Y-49124D01*
X63872Y-49283D01*
X63871Y-49455D01*
X63937Y-49615D01*
X64059Y-49737D01*
X64218Y-49803D01*
X64390Y-49803D01*
X64550Y-49737D01*
X64672Y-49615D01*
X64738Y-49456D01*
X64738Y-49284D01*
X64738Y-49980D01*
X63738Y-49980D01*
X63738Y-49284D01*
X63738Y-48284D01*
X63672Y-48125D01*
X63602Y-48054D01*
X63602Y-40114D01*
X63602Y-38933D01*
X63569Y-38853D01*
X63508Y-38792D01*
X63429Y-38759D01*
X63342Y-38759D01*
X63263Y-38792D01*
X63202Y-38853D01*
X63188Y-38885D01*
X63175Y-38853D01*
X63114Y-38792D01*
X63035Y-38759D01*
X62949Y-38759D01*
X62869Y-38792D01*
X62808Y-38853D01*
X62775Y-38933D01*
X62775Y-39019D01*
X62808Y-39098D01*
X62869Y-39159D01*
X62948Y-39192D01*
X63035Y-39192D01*
X63114Y-39160D01*
X63175Y-39099D01*
X63188Y-39066D01*
X63202Y-39098D01*
X63263Y-39159D01*
X63342Y-39192D01*
X63428Y-39192D01*
X63508Y-39160D01*
X63569Y-39099D01*
X63602Y-39019D01*
X63602Y-38933D01*
X63602Y-40114D01*
X63569Y-40034D01*
X63508Y-39974D01*
X63429Y-39940D01*
X63342Y-39940D01*
X63263Y-39973D01*
X63202Y-40034D01*
X63169Y-40114D01*
X63169Y-40200D01*
X63202Y-40279D01*
X63263Y-40340D01*
X63342Y-40373D01*
X63428Y-40374D01*
X63508Y-40341D01*
X63569Y-40280D01*
X63602Y-40200D01*
X63602Y-40114D01*
X63602Y-48054D01*
X63550Y-48003D01*
X63391Y-47937D01*
X63219Y-47936D01*
X63060Y-48002D01*
X62938Y-48124D01*
X62872Y-48283D01*
X62871Y-48455D01*
X62937Y-48615D01*
X63059Y-48737D01*
X63218Y-48803D01*
X63390Y-48803D01*
X63550Y-48737D01*
X63672Y-48615D01*
X63738Y-48456D01*
X63738Y-48284D01*
X63738Y-49284D01*
X63672Y-49125D01*
X63550Y-49003D01*
X63391Y-48937D01*
X63219Y-48936D01*
X63060Y-49002D01*
X62938Y-49124D01*
X62872Y-49283D01*
X62871Y-49455D01*
X62937Y-49615D01*
X63059Y-49737D01*
X63218Y-49803D01*
X63390Y-49803D01*
X63550Y-49737D01*
X63672Y-49615D01*
X63738Y-49456D01*
X63738Y-49284D01*
X63738Y-49980D01*
X62738Y-49980D01*
X62738Y-49284D01*
X62738Y-48284D01*
X62672Y-48125D01*
X62550Y-48003D01*
X62391Y-47937D01*
X62219Y-47936D01*
X62060Y-48002D01*
X62027Y-48035D01*
X62027Y-40508D01*
X61994Y-40428D01*
X61933Y-40367D01*
X61854Y-40334D01*
X61768Y-40334D01*
X61688Y-40367D01*
X61633Y-40422D01*
X61633Y-38933D01*
X61600Y-38853D01*
X61540Y-38792D01*
X61460Y-38759D01*
X61374Y-38759D01*
X61294Y-38792D01*
X61233Y-38853D01*
X61200Y-38933D01*
X61200Y-39019D01*
X61233Y-39098D01*
X61294Y-39159D01*
X61374Y-39192D01*
X61460Y-39192D01*
X61539Y-39160D01*
X61600Y-39099D01*
X61633Y-39019D01*
X61633Y-38933D01*
X61633Y-40422D01*
X61627Y-40428D01*
X61594Y-40507D01*
X61594Y-40594D01*
X61627Y-40673D01*
X61688Y-40734D01*
X61767Y-40767D01*
X61853Y-40767D01*
X61933Y-40734D01*
X61994Y-40673D01*
X62027Y-40594D01*
X62027Y-40508D01*
X62027Y-48035D01*
X61938Y-48124D01*
X61872Y-48283D01*
X61871Y-48455D01*
X61937Y-48615D01*
X62059Y-48737D01*
X62218Y-48803D01*
X62390Y-48803D01*
X62550Y-48737D01*
X62672Y-48615D01*
X62738Y-48456D01*
X62738Y-48284D01*
X62738Y-49284D01*
X62672Y-49125D01*
X62550Y-49003D01*
X62391Y-48937D01*
X62219Y-48936D01*
X62060Y-49002D01*
X61938Y-49124D01*
X61872Y-49283D01*
X61871Y-49455D01*
X61937Y-49615D01*
X62059Y-49737D01*
X62218Y-49803D01*
X62390Y-49803D01*
X62550Y-49737D01*
X62672Y-49615D01*
X62738Y-49456D01*
X62738Y-49284D01*
X62738Y-49980D01*
X61738Y-49980D01*
X61738Y-49284D01*
X61738Y-48284D01*
X61672Y-48125D01*
X61550Y-48003D01*
X61391Y-47937D01*
X61219Y-47936D01*
X61060Y-48002D01*
X60938Y-48124D01*
X60872Y-48283D01*
X60871Y-48455D01*
X60937Y-48615D01*
X61059Y-48737D01*
X61218Y-48803D01*
X61390Y-48803D01*
X61550Y-48737D01*
X61672Y-48615D01*
X61738Y-48456D01*
X61738Y-48284D01*
X61738Y-49284D01*
X61672Y-49125D01*
X61550Y-49003D01*
X61391Y-48937D01*
X61219Y-48936D01*
X61060Y-49002D01*
X60938Y-49124D01*
X60872Y-49283D01*
X60871Y-49455D01*
X60937Y-49615D01*
X61059Y-49737D01*
X61218Y-49803D01*
X61390Y-49803D01*
X61550Y-49737D01*
X61672Y-49615D01*
X61738Y-49456D01*
X61738Y-49284D01*
X61738Y-49980D01*
X60846Y-49980D01*
X60846Y-40508D01*
X60846Y-39720D01*
X60813Y-39641D01*
X60752Y-39580D01*
X60673Y-39547D01*
X60587Y-39547D01*
X60507Y-39580D01*
X60446Y-39640D01*
X60413Y-39720D01*
X60413Y-39806D01*
X60446Y-39886D01*
X60507Y-39947D01*
X60586Y-39980D01*
X60672Y-39980D01*
X60752Y-39947D01*
X60813Y-39886D01*
X60846Y-39807D01*
X60846Y-39720D01*
X60846Y-40508D01*
X60813Y-40428D01*
X60752Y-40367D01*
X60673Y-40334D01*
X60587Y-40334D01*
X60507Y-40367D01*
X60446Y-40428D01*
X60413Y-40507D01*
X60413Y-40594D01*
X60446Y-40673D01*
X60507Y-40734D01*
X60586Y-40767D01*
X60672Y-40767D01*
X60752Y-40734D01*
X60813Y-40673D01*
X60846Y-40594D01*
X60846Y-40508D01*
X60846Y-49980D01*
X60738Y-49980D01*
X60738Y-49284D01*
X60738Y-48284D01*
X60689Y-48165D01*
X60689Y-46209D01*
X60650Y-46115D01*
X60578Y-46043D01*
X60484Y-46003D01*
X60382Y-46003D01*
X60288Y-46042D01*
X60216Y-46114D01*
X60177Y-46208D01*
X60177Y-46310D01*
X60215Y-46404D01*
X60223Y-46411D01*
X60188Y-46397D01*
X60087Y-46397D01*
X59993Y-46436D01*
X59920Y-46508D01*
X59881Y-46602D01*
X59881Y-46704D01*
X59920Y-46798D01*
X59992Y-46870D01*
X60086Y-46909D01*
X60188Y-46909D01*
X60282Y-46870D01*
X60354Y-46798D01*
X60393Y-46704D01*
X60393Y-46602D01*
X60354Y-46508D01*
X60347Y-46501D01*
X60381Y-46515D01*
X60483Y-46515D01*
X60577Y-46476D01*
X60649Y-46404D01*
X60688Y-46310D01*
X60689Y-46209D01*
X60689Y-48165D01*
X60672Y-48125D01*
X60550Y-48003D01*
X60391Y-47937D01*
X60219Y-47936D01*
X60060Y-48002D01*
X59938Y-48124D01*
X59872Y-48283D01*
X59871Y-48455D01*
X59937Y-48615D01*
X60059Y-48737D01*
X60218Y-48803D01*
X60390Y-48803D01*
X60550Y-48737D01*
X60672Y-48615D01*
X60738Y-48456D01*
X60738Y-48284D01*
X60738Y-49284D01*
X60672Y-49125D01*
X60550Y-49003D01*
X60391Y-48937D01*
X60219Y-48936D01*
X60060Y-49002D01*
X59938Y-49124D01*
X59872Y-49283D01*
X59871Y-49455D01*
X59937Y-49615D01*
X60059Y-49737D01*
X60218Y-49803D01*
X60390Y-49803D01*
X60550Y-49737D01*
X60672Y-49615D01*
X60738Y-49456D01*
X60738Y-49284D01*
X60738Y-49980D01*
X59738Y-49980D01*
X59738Y-49284D01*
X59738Y-48284D01*
X59672Y-48125D01*
X59550Y-48003D01*
X59391Y-47937D01*
X59271Y-47936D01*
X59271Y-40114D01*
X59271Y-38539D01*
X59238Y-38460D01*
X59177Y-38399D01*
X59098Y-38366D01*
X59012Y-38366D01*
X58932Y-38399D01*
X58871Y-38459D01*
X58838Y-38539D01*
X58838Y-38625D01*
X58871Y-38705D01*
X58932Y-38766D01*
X59011Y-38799D01*
X59098Y-38799D01*
X59177Y-38766D01*
X59238Y-38705D01*
X59271Y-38625D01*
X59271Y-38539D01*
X59271Y-40114D01*
X59238Y-40034D01*
X59177Y-39974D01*
X59098Y-39940D01*
X59012Y-39940D01*
X58932Y-39973D01*
X58871Y-40034D01*
X58838Y-40114D01*
X58838Y-40200D01*
X58871Y-40279D01*
X58932Y-40340D01*
X59011Y-40373D01*
X59098Y-40374D01*
X59177Y-40341D01*
X59238Y-40280D01*
X59271Y-40200D01*
X59271Y-40114D01*
X59271Y-47936D01*
X59219Y-47936D01*
X59060Y-48002D01*
X58938Y-48124D01*
X58872Y-48283D01*
X58871Y-48455D01*
X58937Y-48615D01*
X59059Y-48737D01*
X59218Y-48803D01*
X59390Y-48803D01*
X59550Y-48737D01*
X59672Y-48615D01*
X59738Y-48456D01*
X59738Y-48284D01*
X59738Y-49284D01*
X59672Y-49125D01*
X59550Y-49003D01*
X59391Y-48937D01*
X59219Y-48936D01*
X59060Y-49002D01*
X58938Y-49124D01*
X58872Y-49283D01*
X58871Y-49455D01*
X58937Y-49615D01*
X59059Y-49737D01*
X59218Y-49803D01*
X59390Y-49803D01*
X59550Y-49737D01*
X59672Y-49615D01*
X59738Y-49456D01*
X59738Y-49284D01*
X59738Y-49980D01*
X58738Y-49980D01*
X58738Y-49284D01*
X58738Y-48284D01*
X58672Y-48125D01*
X58550Y-48003D01*
X58484Y-47975D01*
X58484Y-37752D01*
X58484Y-36177D01*
X58451Y-36097D01*
X58390Y-36037D01*
X58310Y-36003D01*
X58224Y-36003D01*
X58145Y-36036D01*
X58084Y-36097D01*
X58051Y-36177D01*
X58051Y-36263D01*
X58084Y-36342D01*
X58144Y-36403D01*
X58224Y-36436D01*
X58310Y-36437D01*
X58390Y-36404D01*
X58451Y-36343D01*
X58484Y-36263D01*
X58484Y-36177D01*
X58484Y-37752D01*
X58451Y-37672D01*
X58390Y-37611D01*
X58310Y-37578D01*
X58224Y-37578D01*
X58145Y-37611D01*
X58090Y-37666D01*
X58090Y-36571D01*
X58057Y-36491D01*
X57996Y-36430D01*
X57917Y-36397D01*
X57831Y-36397D01*
X57751Y-36430D01*
X57738Y-36443D01*
X57738Y-30284D01*
X57738Y-29284D01*
X57672Y-29125D01*
X57550Y-29003D01*
X57391Y-28937D01*
X57219Y-28936D01*
X57060Y-29002D01*
X56938Y-29124D01*
X56872Y-29283D01*
X56871Y-29455D01*
X56937Y-29615D01*
X57059Y-29737D01*
X57218Y-29803D01*
X57390Y-29803D01*
X57550Y-29737D01*
X57672Y-29615D01*
X57738Y-29456D01*
X57738Y-29284D01*
X57738Y-30284D01*
X57672Y-30125D01*
X57550Y-30003D01*
X57391Y-29937D01*
X57219Y-29936D01*
X57060Y-30002D01*
X56938Y-30124D01*
X56872Y-30283D01*
X56871Y-30455D01*
X56937Y-30615D01*
X57059Y-30737D01*
X57218Y-30803D01*
X57390Y-30803D01*
X57550Y-30737D01*
X57672Y-30615D01*
X57738Y-30456D01*
X57738Y-30284D01*
X57738Y-36443D01*
X57690Y-36491D01*
X57657Y-36570D01*
X57657Y-36657D01*
X57690Y-36736D01*
X57751Y-36797D01*
X57830Y-36830D01*
X57916Y-36830D01*
X57996Y-36797D01*
X58057Y-36736D01*
X58090Y-36657D01*
X58090Y-36571D01*
X58090Y-37666D01*
X58084Y-37672D01*
X58051Y-37752D01*
X58051Y-37838D01*
X58084Y-37917D01*
X58144Y-37978D01*
X58224Y-38011D01*
X58310Y-38011D01*
X58390Y-37978D01*
X58451Y-37918D01*
X58484Y-37838D01*
X58484Y-37752D01*
X58484Y-47975D01*
X58391Y-47937D01*
X58219Y-47936D01*
X58090Y-47990D01*
X58090Y-40508D01*
X58057Y-40428D01*
X57996Y-40367D01*
X57917Y-40334D01*
X57831Y-40334D01*
X57751Y-40367D01*
X57690Y-40428D01*
X57657Y-40507D01*
X57657Y-40594D01*
X57690Y-40673D01*
X57751Y-40734D01*
X57830Y-40767D01*
X57916Y-40767D01*
X57996Y-40734D01*
X58057Y-40673D01*
X58090Y-40594D01*
X58090Y-40508D01*
X58090Y-47990D01*
X58060Y-48002D01*
X57938Y-48124D01*
X57872Y-48283D01*
X57871Y-48455D01*
X57937Y-48615D01*
X58059Y-48737D01*
X58218Y-48803D01*
X58390Y-48803D01*
X58550Y-48737D01*
X58672Y-48615D01*
X58738Y-48456D01*
X58738Y-48284D01*
X58738Y-49284D01*
X58672Y-49125D01*
X58550Y-49003D01*
X58391Y-48937D01*
X58219Y-48936D01*
X58060Y-49002D01*
X57938Y-49124D01*
X57872Y-49283D01*
X57871Y-49455D01*
X57937Y-49615D01*
X58059Y-49737D01*
X58218Y-49803D01*
X58390Y-49803D01*
X58550Y-49737D01*
X58672Y-49615D01*
X58738Y-49456D01*
X58738Y-49284D01*
X58738Y-49980D01*
X57738Y-49980D01*
X57738Y-49284D01*
X57738Y-48284D01*
X57672Y-48125D01*
X57550Y-48003D01*
X57391Y-47937D01*
X57219Y-47936D01*
X57060Y-48002D01*
X56948Y-48113D01*
X56948Y-47193D01*
X56909Y-47099D01*
X56838Y-47027D01*
X56744Y-46988D01*
X56738Y-46988D01*
X56738Y-30284D01*
X56738Y-29284D01*
X56672Y-29125D01*
X56550Y-29003D01*
X56391Y-28937D01*
X56219Y-28936D01*
X56060Y-29002D01*
X55938Y-29124D01*
X55872Y-29283D01*
X55871Y-29455D01*
X55937Y-29615D01*
X56059Y-29737D01*
X56218Y-29803D01*
X56390Y-29803D01*
X56550Y-29737D01*
X56672Y-29615D01*
X56738Y-29456D01*
X56738Y-29284D01*
X56738Y-30284D01*
X56672Y-30125D01*
X56550Y-30003D01*
X56391Y-29937D01*
X56219Y-29936D01*
X56060Y-30002D01*
X55938Y-30124D01*
X55872Y-30283D01*
X55871Y-30455D01*
X55937Y-30615D01*
X56059Y-30737D01*
X56218Y-30803D01*
X56390Y-30803D01*
X56550Y-30737D01*
X56672Y-30615D01*
X56738Y-30456D01*
X56738Y-30284D01*
X56738Y-46988D01*
X56642Y-46988D01*
X56555Y-47024D01*
X56555Y-46209D01*
X56516Y-46115D01*
X56444Y-46043D01*
X56350Y-46003D01*
X56248Y-46003D01*
X56213Y-46018D01*
X56220Y-46011D01*
X56259Y-45917D01*
X56259Y-45826D01*
X56349Y-45826D01*
X56443Y-45787D01*
X56516Y-45716D01*
X56555Y-45621D01*
X56555Y-45520D01*
X56516Y-45426D01*
X56444Y-45354D01*
X56350Y-45315D01*
X56248Y-45314D01*
X56220Y-45326D01*
X56220Y-32043D01*
X56187Y-31964D01*
X56126Y-31903D01*
X56047Y-31870D01*
X55961Y-31870D01*
X55881Y-31902D01*
X55820Y-31963D01*
X55787Y-32043D01*
X55787Y-32129D01*
X55820Y-32209D01*
X55881Y-32270D01*
X55960Y-32303D01*
X56046Y-32303D01*
X56126Y-32270D01*
X56187Y-32209D01*
X56220Y-32129D01*
X56220Y-32043D01*
X56220Y-45326D01*
X56154Y-45353D01*
X56082Y-45425D01*
X56043Y-45519D01*
X56043Y-45610D01*
X55953Y-45610D01*
X55859Y-45649D01*
X55787Y-45720D01*
X55748Y-45815D01*
X55747Y-45916D01*
X55786Y-46010D01*
X55858Y-46082D01*
X55952Y-46122D01*
X56054Y-46122D01*
X56089Y-46107D01*
X56082Y-46114D01*
X56043Y-46208D01*
X56043Y-46310D01*
X56082Y-46404D01*
X56154Y-46476D01*
X56248Y-46515D01*
X56349Y-46515D01*
X56443Y-46476D01*
X56516Y-46404D01*
X56555Y-46310D01*
X56555Y-46209D01*
X56555Y-47024D01*
X56548Y-47027D01*
X56476Y-47098D01*
X56437Y-47192D01*
X56436Y-47294D01*
X56475Y-47388D01*
X56547Y-47460D01*
X56641Y-47499D01*
X56743Y-47500D01*
X56837Y-47461D01*
X56909Y-47389D01*
X56948Y-47295D01*
X56948Y-47193D01*
X56948Y-48113D01*
X56938Y-48124D01*
X56872Y-48283D01*
X56871Y-48455D01*
X56937Y-48615D01*
X57059Y-48737D01*
X57218Y-48803D01*
X57390Y-48803D01*
X57550Y-48737D01*
X57672Y-48615D01*
X57738Y-48456D01*
X57738Y-48284D01*
X57738Y-49284D01*
X57672Y-49125D01*
X57550Y-49003D01*
X57391Y-48937D01*
X57219Y-48936D01*
X57060Y-49002D01*
X56938Y-49124D01*
X56872Y-49283D01*
X56871Y-49455D01*
X56937Y-49615D01*
X57059Y-49737D01*
X57218Y-49803D01*
X57390Y-49803D01*
X57550Y-49737D01*
X57672Y-49615D01*
X57738Y-49456D01*
X57738Y-49284D01*
X57738Y-49980D01*
X56738Y-49980D01*
X56738Y-49284D01*
X56738Y-48284D01*
X56672Y-48125D01*
X56550Y-48003D01*
X56391Y-47937D01*
X56219Y-47936D01*
X56060Y-48002D01*
X55938Y-48124D01*
X55872Y-48283D01*
X55871Y-48455D01*
X55937Y-48615D01*
X56059Y-48737D01*
X56218Y-48803D01*
X56390Y-48803D01*
X56550Y-48737D01*
X56672Y-48615D01*
X56738Y-48456D01*
X56738Y-48284D01*
X56738Y-49284D01*
X56672Y-49125D01*
X56550Y-49003D01*
X56391Y-48937D01*
X56219Y-48936D01*
X56060Y-49002D01*
X55938Y-49124D01*
X55872Y-49283D01*
X55871Y-49455D01*
X55937Y-49615D01*
X56059Y-49737D01*
X56218Y-49803D01*
X56390Y-49803D01*
X56550Y-49737D01*
X56672Y-49615D01*
X56738Y-49456D01*
X56738Y-49284D01*
X56738Y-49980D01*
X55137Y-49980D01*
X55137Y-42470D01*
X55186Y-42470D01*
X55312Y-42418D01*
X55409Y-42321D01*
X55462Y-42194D01*
X55462Y-42057D01*
X55410Y-41931D01*
X55313Y-41834D01*
X55186Y-41781D01*
X55137Y-41781D01*
X55137Y-30964D01*
X55168Y-30964D01*
X55262Y-30925D01*
X55334Y-30853D01*
X55373Y-30759D01*
X55374Y-30657D01*
X55335Y-30563D01*
X55263Y-30491D01*
X55169Y-30452D01*
X55137Y-30452D01*
X55137Y-28759D01*
X73420Y-28759D01*
X74985Y-29542D01*
X75767Y-31107D01*
X75767Y-36594D01*
G54D10*
G36*
X55019Y-49980D02*
X54872Y-49980D01*
X54872Y-42648D01*
X54819Y-42521D01*
X54722Y-42424D01*
X54596Y-42372D01*
X54459Y-42371D01*
X54332Y-42424D01*
X54235Y-42521D01*
X54183Y-42647D01*
X54183Y-42784D01*
X54235Y-42911D01*
X54332Y-43008D01*
X54458Y-43060D01*
X54595Y-43061D01*
X54722Y-43008D01*
X54819Y-42911D01*
X54871Y-42785D01*
X54872Y-42648D01*
X54872Y-49980D01*
X54281Y-49980D01*
X54281Y-43238D01*
X54229Y-43112D01*
X54132Y-43015D01*
X54005Y-42962D01*
X53868Y-42962D01*
X53742Y-43014D01*
X53645Y-43111D01*
X53592Y-43238D01*
X53592Y-43375D01*
X53644Y-43501D01*
X53741Y-43598D01*
X53868Y-43651D01*
X54005Y-43651D01*
X54131Y-43599D01*
X54228Y-43502D01*
X54281Y-43375D01*
X54281Y-43238D01*
X54281Y-49980D01*
X51830Y-49980D01*
X51830Y-45224D01*
X51791Y-45130D01*
X51719Y-45058D01*
X51625Y-45019D01*
X51524Y-45019D01*
X51430Y-45058D01*
X51357Y-45130D01*
X51318Y-45224D01*
X51318Y-45326D01*
X51333Y-45361D01*
X51326Y-45354D01*
X51232Y-45315D01*
X51130Y-45314D01*
X51036Y-45353D01*
X51028Y-45361D01*
X51043Y-45326D01*
X51043Y-45224D01*
X51004Y-45130D01*
X51003Y-45130D01*
X51003Y-44051D01*
X50971Y-43971D01*
X50910Y-43911D01*
X50830Y-43877D01*
X50744Y-43877D01*
X50664Y-43910D01*
X50603Y-43971D01*
X50570Y-44051D01*
X50570Y-44137D01*
X50603Y-44216D01*
X50664Y-44277D01*
X50744Y-44310D01*
X50830Y-44311D01*
X50909Y-44278D01*
X50970Y-44217D01*
X51003Y-44137D01*
X51003Y-44051D01*
X51003Y-45130D01*
X50932Y-45058D01*
X50838Y-45019D01*
X50736Y-45019D01*
X50642Y-45058D01*
X50570Y-45130D01*
X50531Y-45224D01*
X50531Y-45326D01*
X50570Y-45420D01*
X50642Y-45492D01*
X50736Y-45531D01*
X50838Y-45531D01*
X50932Y-45492D01*
X50939Y-45485D01*
X50925Y-45519D01*
X50925Y-45621D01*
X50964Y-45715D01*
X51035Y-45787D01*
X51129Y-45826D01*
X51231Y-45826D01*
X51325Y-45787D01*
X51397Y-45716D01*
X51436Y-45621D01*
X51437Y-45520D01*
X51422Y-45485D01*
X51429Y-45492D01*
X51523Y-45531D01*
X51625Y-45531D01*
X51719Y-45492D01*
X51791Y-45420D01*
X51830Y-45326D01*
X51830Y-45224D01*
X51830Y-49980D01*
X48287Y-49980D01*
X48287Y-44831D01*
X48248Y-44737D01*
X48228Y-44716D01*
X48228Y-43996D01*
X48213Y-43920D01*
X48170Y-43856D01*
X48170Y-43856D01*
X48072Y-43758D01*
X48008Y-43715D01*
X47933Y-43700D01*
X44874Y-43700D01*
X44826Y-43681D01*
X44740Y-43681D01*
X44692Y-43700D01*
X41358Y-43700D01*
X41358Y-42378D01*
X41325Y-42298D01*
X41264Y-42237D01*
X41232Y-42224D01*
X41264Y-42211D01*
X41325Y-42150D01*
X41358Y-42070D01*
X41358Y-41984D01*
X41325Y-41905D01*
X41264Y-41844D01*
X41232Y-41830D01*
X41264Y-41817D01*
X41325Y-41756D01*
X41358Y-41677D01*
X41358Y-41590D01*
X41325Y-41511D01*
X41264Y-41450D01*
X41184Y-41417D01*
X41098Y-41417D01*
X41019Y-41450D01*
X40958Y-41511D01*
X40925Y-41590D01*
X40925Y-41676D01*
X40958Y-41756D01*
X41018Y-41817D01*
X41051Y-41830D01*
X41019Y-41843D01*
X40958Y-41904D01*
X40925Y-41984D01*
X40925Y-42070D01*
X40958Y-42150D01*
X41018Y-42211D01*
X41051Y-42224D01*
X41019Y-42237D01*
X40958Y-42298D01*
X40925Y-42377D01*
X40925Y-42464D01*
X40958Y-42543D01*
X41018Y-42604D01*
X41098Y-42637D01*
X41184Y-42637D01*
X41264Y-42604D01*
X41325Y-42544D01*
X41358Y-42464D01*
X41358Y-42378D01*
X41358Y-43700D01*
X40748Y-43700D01*
X40748Y-43003D01*
X40767Y-42956D01*
X40767Y-42870D01*
X40748Y-42822D01*
X40748Y-42421D01*
X40733Y-42345D01*
X40690Y-42282D01*
X40690Y-42282D01*
X40591Y-42183D01*
X40528Y-42140D01*
X40452Y-42125D01*
X39362Y-42125D01*
X39314Y-42106D01*
X39228Y-42106D01*
X39181Y-42125D01*
X38968Y-42125D01*
X38921Y-42106D01*
X38835Y-42106D01*
X38755Y-42139D01*
X38694Y-42200D01*
X38661Y-42279D01*
X38661Y-42365D01*
X38694Y-42445D01*
X38755Y-42506D01*
X38834Y-42539D01*
X38920Y-42539D01*
X38968Y-42519D01*
X39181Y-42519D01*
X39228Y-42539D01*
X39314Y-42539D01*
X39362Y-42519D01*
X40354Y-42519D01*
X40354Y-42822D01*
X40334Y-42870D01*
X40334Y-42956D01*
X40354Y-43004D01*
X40354Y-43700D01*
X38279Y-43700D01*
X38232Y-43681D01*
X38146Y-43681D01*
X38066Y-43713D01*
X38005Y-43774D01*
X37972Y-43854D01*
X37972Y-43940D01*
X38005Y-44020D01*
X38066Y-44081D01*
X38145Y-44114D01*
X38231Y-44114D01*
X38279Y-44094D01*
X40354Y-44094D01*
X40354Y-44291D01*
X39559Y-44291D01*
X39511Y-44271D01*
X39425Y-44271D01*
X39346Y-44304D01*
X39285Y-44365D01*
X39252Y-44444D01*
X39251Y-44531D01*
X39284Y-44610D01*
X39345Y-44671D01*
X39425Y-44704D01*
X39511Y-44704D01*
X39559Y-44685D01*
X40452Y-44685D01*
X40452Y-44685D01*
X40528Y-44670D01*
X40591Y-44627D01*
X40690Y-44528D01*
X40690Y-44528D01*
X40733Y-44465D01*
X40748Y-44389D01*
X40748Y-44389D01*
X40748Y-44094D01*
X44692Y-44094D01*
X44740Y-44114D01*
X44826Y-44114D01*
X44874Y-44094D01*
X47834Y-44094D01*
X47834Y-44716D01*
X47814Y-44736D01*
X47775Y-44830D01*
X47775Y-44932D01*
X47814Y-45026D01*
X47886Y-45098D01*
X47980Y-45137D01*
X48082Y-45137D01*
X48176Y-45098D01*
X48248Y-45027D01*
X48287Y-44933D01*
X48287Y-44831D01*
X48287Y-49980D01*
X33400Y-49980D01*
X33400Y-48726D01*
X33400Y-29726D01*
X33290Y-29460D01*
X33087Y-29257D01*
X32821Y-29146D01*
X32533Y-29146D01*
X32267Y-29256D01*
X32064Y-29459D01*
X31953Y-29725D01*
X31953Y-30013D01*
X32063Y-30279D01*
X32266Y-30483D01*
X32532Y-30593D01*
X32820Y-30593D01*
X33086Y-30483D01*
X33290Y-30280D01*
X33400Y-30014D01*
X33400Y-29726D01*
X33400Y-48726D01*
X33290Y-48460D01*
X33104Y-48273D01*
X33104Y-38947D01*
X33100Y-38875D01*
X33100Y-38191D01*
X33100Y-37541D01*
X33085Y-37505D01*
X33057Y-37477D01*
X33021Y-37462D01*
X32982Y-37462D01*
X32332Y-37462D01*
X32296Y-37477D01*
X32268Y-37505D01*
X32253Y-37541D01*
X32253Y-37580D01*
X32253Y-38230D01*
X32268Y-38266D01*
X32296Y-38294D01*
X32332Y-38309D01*
X32371Y-38309D01*
X33021Y-38309D01*
X33057Y-38294D01*
X33085Y-38266D01*
X33100Y-38230D01*
X33100Y-38191D01*
X33100Y-38875D01*
X33095Y-38779D01*
X33047Y-38665D01*
X32991Y-38627D01*
X32935Y-38682D01*
X32935Y-38571D01*
X32897Y-38515D01*
X32739Y-38458D01*
X32571Y-38467D01*
X32456Y-38515D01*
X32418Y-38571D01*
X32677Y-38830D01*
X32935Y-38571D01*
X32935Y-38682D01*
X32732Y-38885D01*
X32991Y-39144D01*
X33047Y-39106D01*
X33104Y-38947D01*
X33104Y-48273D01*
X33087Y-48257D01*
X32935Y-48194D01*
X32935Y-39200D01*
X32677Y-38941D01*
X32621Y-38997D01*
X32621Y-38885D01*
X32362Y-38627D01*
X32306Y-38665D01*
X32250Y-38823D01*
X32258Y-38991D01*
X32306Y-39106D01*
X32362Y-39144D01*
X32621Y-38885D01*
X32621Y-38997D01*
X32418Y-39200D01*
X32456Y-39256D01*
X32615Y-39312D01*
X32783Y-39304D01*
X32897Y-39256D01*
X32935Y-39200D01*
X32935Y-48194D01*
X32821Y-48146D01*
X32533Y-48146D01*
X32267Y-48256D01*
X32064Y-48459D01*
X31953Y-48725D01*
X31953Y-49013D01*
X32063Y-49279D01*
X32266Y-49483D01*
X32532Y-49593D01*
X32820Y-49593D01*
X33086Y-49483D01*
X33290Y-49280D01*
X33400Y-49014D01*
X33400Y-48726D01*
X33400Y-49980D01*
X31381Y-49980D01*
X31381Y-44441D01*
X31381Y-44146D01*
X31368Y-44077D01*
X31366Y-44071D01*
X31335Y-44064D01*
X31279Y-44120D01*
X31279Y-44009D01*
X31272Y-43977D01*
X31203Y-43963D01*
X31134Y-43975D01*
X31129Y-43977D01*
X31121Y-44009D01*
X31200Y-44088D01*
X31279Y-44009D01*
X31279Y-44120D01*
X31256Y-44143D01*
X31335Y-44222D01*
X31366Y-44215D01*
X31381Y-44146D01*
X31381Y-44441D01*
X31368Y-44372D01*
X31366Y-44367D01*
X31335Y-44360D01*
X31279Y-44415D01*
X31279Y-44304D01*
X31276Y-44291D01*
X31279Y-44278D01*
X31200Y-44199D01*
X31145Y-44255D01*
X31145Y-44143D01*
X31066Y-44064D01*
X31053Y-44067D01*
X31040Y-44064D01*
X30984Y-44120D01*
X30984Y-44009D01*
X30977Y-43977D01*
X30908Y-43963D01*
X30839Y-43975D01*
X30833Y-43977D01*
X30826Y-44009D01*
X30905Y-44088D01*
X30984Y-44009D01*
X30984Y-44120D01*
X30961Y-44143D01*
X31040Y-44222D01*
X31053Y-44219D01*
X31066Y-44222D01*
X31145Y-44143D01*
X31145Y-44255D01*
X31121Y-44278D01*
X31124Y-44291D01*
X31121Y-44304D01*
X31200Y-44383D01*
X31279Y-44304D01*
X31279Y-44415D01*
X31256Y-44438D01*
X31335Y-44517D01*
X31366Y-44510D01*
X31381Y-44441D01*
X31381Y-49980D01*
X31279Y-49980D01*
X31279Y-44573D01*
X31200Y-44494D01*
X31145Y-44550D01*
X31145Y-44438D01*
X31066Y-44360D01*
X31053Y-44363D01*
X31040Y-44360D01*
X30984Y-44415D01*
X30984Y-44304D01*
X30981Y-44291D01*
X30984Y-44278D01*
X30905Y-44199D01*
X30849Y-44255D01*
X30849Y-44143D01*
X30770Y-44064D01*
X30757Y-44067D01*
X30744Y-44064D01*
X30689Y-44120D01*
X30689Y-44009D01*
X30682Y-43977D01*
X30613Y-43963D01*
X30543Y-43975D01*
X30538Y-43977D01*
X30531Y-44009D01*
X30610Y-44088D01*
X30689Y-44009D01*
X30689Y-44120D01*
X30665Y-44143D01*
X30744Y-44222D01*
X30757Y-44219D01*
X30770Y-44222D01*
X30849Y-44143D01*
X30849Y-44255D01*
X30826Y-44278D01*
X30829Y-44291D01*
X30826Y-44304D01*
X30905Y-44383D01*
X30984Y-44304D01*
X30984Y-44415D01*
X30961Y-44438D01*
X31040Y-44517D01*
X31053Y-44514D01*
X31066Y-44517D01*
X31145Y-44438D01*
X31145Y-44550D01*
X31121Y-44573D01*
X31129Y-44604D01*
X31197Y-44619D01*
X31267Y-44606D01*
X31272Y-44604D01*
X31279Y-44573D01*
X31279Y-49980D01*
X30984Y-49980D01*
X30984Y-44573D01*
X30905Y-44494D01*
X30849Y-44550D01*
X30849Y-44438D01*
X30770Y-44360D01*
X30757Y-44363D01*
X30744Y-44360D01*
X30689Y-44415D01*
X30689Y-44304D01*
X30686Y-44291D01*
X30689Y-44278D01*
X30610Y-44199D01*
X30554Y-44255D01*
X30554Y-44143D01*
X30475Y-44064D01*
X30444Y-44071D01*
X30429Y-44140D01*
X30442Y-44210D01*
X30444Y-44215D01*
X30475Y-44222D01*
X30554Y-44143D01*
X30554Y-44255D01*
X30531Y-44278D01*
X30534Y-44291D01*
X30531Y-44304D01*
X30610Y-44383D01*
X30689Y-44304D01*
X30689Y-44415D01*
X30665Y-44438D01*
X30744Y-44517D01*
X30757Y-44514D01*
X30770Y-44517D01*
X30849Y-44438D01*
X30849Y-44550D01*
X30826Y-44573D01*
X30833Y-44604D01*
X30902Y-44619D01*
X30971Y-44606D01*
X30977Y-44604D01*
X30984Y-44573D01*
X30984Y-49980D01*
X30689Y-49980D01*
X30689Y-44573D01*
X30610Y-44494D01*
X30554Y-44550D01*
X30554Y-44438D01*
X30475Y-44360D01*
X30444Y-44367D01*
X30429Y-44436D01*
X30442Y-44505D01*
X30444Y-44510D01*
X30475Y-44517D01*
X30554Y-44438D01*
X30554Y-44550D01*
X30531Y-44573D01*
X30538Y-44604D01*
X30607Y-44619D01*
X30676Y-44606D01*
X30682Y-44604D01*
X30689Y-44573D01*
X30689Y-49980D01*
X30137Y-49980D01*
X30137Y-43917D01*
X32303Y-43917D01*
X32303Y-42696D01*
X31381Y-42696D01*
X31381Y-42473D01*
X31381Y-42178D01*
X31381Y-34796D01*
X31381Y-34500D01*
X31381Y-32827D01*
X31381Y-32532D01*
X31368Y-32463D01*
X31366Y-32457D01*
X31335Y-32450D01*
X31279Y-32506D01*
X31279Y-32394D01*
X31272Y-32363D01*
X31203Y-32348D01*
X31134Y-32361D01*
X31129Y-32363D01*
X31121Y-32394D01*
X31200Y-32473D01*
X31279Y-32394D01*
X31279Y-32506D01*
X31256Y-32529D01*
X31335Y-32608D01*
X31366Y-32601D01*
X31381Y-32532D01*
X31381Y-32827D01*
X31368Y-32758D01*
X31366Y-32753D01*
X31335Y-32745D01*
X31279Y-32801D01*
X31279Y-32690D01*
X31276Y-32677D01*
X31279Y-32664D01*
X31200Y-32585D01*
X31145Y-32640D01*
X31145Y-32529D01*
X31066Y-32450D01*
X31053Y-32453D01*
X31040Y-32450D01*
X30984Y-32506D01*
X30984Y-32394D01*
X30977Y-32363D01*
X30908Y-32348D01*
X30839Y-32361D01*
X30833Y-32363D01*
X30826Y-32394D01*
X30905Y-32473D01*
X30984Y-32394D01*
X30984Y-32506D01*
X30961Y-32529D01*
X31040Y-32608D01*
X31053Y-32605D01*
X31066Y-32608D01*
X31145Y-32529D01*
X31145Y-32640D01*
X31121Y-32664D01*
X31124Y-32677D01*
X31121Y-32690D01*
X31200Y-32769D01*
X31279Y-32690D01*
X31279Y-32801D01*
X31256Y-32824D01*
X31335Y-32903D01*
X31366Y-32896D01*
X31381Y-32827D01*
X31381Y-34500D01*
X31368Y-34431D01*
X31366Y-34426D01*
X31335Y-34419D01*
X31279Y-34474D01*
X31279Y-34363D01*
X31279Y-32959D01*
X31200Y-32880D01*
X31145Y-32936D01*
X31145Y-32824D01*
X31066Y-32745D01*
X31053Y-32748D01*
X31040Y-32745D01*
X30984Y-32801D01*
X30984Y-32690D01*
X30981Y-32677D01*
X30984Y-32664D01*
X30905Y-32585D01*
X30849Y-32640D01*
X30849Y-32529D01*
X30770Y-32450D01*
X30757Y-32453D01*
X30744Y-32450D01*
X30689Y-32506D01*
X30689Y-32394D01*
X30682Y-32363D01*
X30613Y-32348D01*
X30543Y-32361D01*
X30538Y-32363D01*
X30531Y-32394D01*
X30610Y-32473D01*
X30689Y-32394D01*
X30689Y-32506D01*
X30665Y-32529D01*
X30744Y-32608D01*
X30757Y-32605D01*
X30770Y-32608D01*
X30849Y-32529D01*
X30849Y-32640D01*
X30826Y-32664D01*
X30829Y-32677D01*
X30826Y-32690D01*
X30905Y-32769D01*
X30984Y-32690D01*
X30984Y-32801D01*
X30961Y-32824D01*
X31040Y-32903D01*
X31053Y-32900D01*
X31066Y-32903D01*
X31145Y-32824D01*
X31145Y-32936D01*
X31121Y-32959D01*
X31129Y-32990D01*
X31197Y-33005D01*
X31267Y-32992D01*
X31272Y-32990D01*
X31279Y-32959D01*
X31279Y-34363D01*
X31272Y-34332D01*
X31203Y-34317D01*
X31134Y-34330D01*
X31129Y-34332D01*
X31121Y-34363D01*
X31200Y-34442D01*
X31279Y-34363D01*
X31279Y-34474D01*
X31256Y-34498D01*
X31335Y-34576D01*
X31366Y-34569D01*
X31381Y-34500D01*
X31381Y-34796D01*
X31368Y-34726D01*
X31366Y-34721D01*
X31335Y-34714D01*
X31279Y-34770D01*
X31279Y-34658D01*
X31276Y-34645D01*
X31279Y-34632D01*
X31200Y-34553D01*
X31145Y-34609D01*
X31145Y-34498D01*
X31066Y-34419D01*
X31053Y-34422D01*
X31040Y-34419D01*
X30984Y-34474D01*
X30984Y-34363D01*
X30984Y-32959D01*
X30905Y-32880D01*
X30849Y-32936D01*
X30849Y-32824D01*
X30770Y-32745D01*
X30757Y-32748D01*
X30744Y-32745D01*
X30689Y-32801D01*
X30689Y-32690D01*
X30686Y-32677D01*
X30689Y-32664D01*
X30610Y-32585D01*
X30554Y-32640D01*
X30554Y-32529D01*
X30475Y-32450D01*
X30444Y-32457D01*
X30429Y-32526D01*
X30442Y-32595D01*
X30444Y-32601D01*
X30475Y-32608D01*
X30554Y-32529D01*
X30554Y-32640D01*
X30531Y-32664D01*
X30534Y-32677D01*
X30531Y-32690D01*
X30610Y-32769D01*
X30689Y-32690D01*
X30689Y-32801D01*
X30665Y-32824D01*
X30744Y-32903D01*
X30757Y-32900D01*
X30770Y-32903D01*
X30849Y-32824D01*
X30849Y-32936D01*
X30826Y-32959D01*
X30833Y-32990D01*
X30902Y-33005D01*
X30971Y-32992D01*
X30977Y-32990D01*
X30984Y-32959D01*
X30984Y-34363D01*
X30977Y-34332D01*
X30908Y-34317D01*
X30839Y-34330D01*
X30833Y-34332D01*
X30826Y-34363D01*
X30905Y-34442D01*
X30984Y-34363D01*
X30984Y-34474D01*
X30961Y-34498D01*
X31040Y-34576D01*
X31053Y-34573D01*
X31066Y-34576D01*
X31145Y-34498D01*
X31145Y-34609D01*
X31121Y-34632D01*
X31124Y-34645D01*
X31121Y-34658D01*
X31200Y-34737D01*
X31279Y-34658D01*
X31279Y-34770D01*
X31256Y-34793D01*
X31335Y-34872D01*
X31366Y-34865D01*
X31381Y-34796D01*
X31381Y-42178D01*
X31368Y-42108D01*
X31366Y-42103D01*
X31335Y-42096D01*
X31279Y-42151D01*
X31279Y-42040D01*
X31279Y-34927D01*
X31200Y-34848D01*
X31145Y-34904D01*
X31145Y-34793D01*
X31066Y-34714D01*
X31053Y-34717D01*
X31040Y-34714D01*
X30984Y-34770D01*
X30984Y-34658D01*
X30981Y-34645D01*
X30984Y-34632D01*
X30905Y-34553D01*
X30849Y-34609D01*
X30849Y-34498D01*
X30770Y-34419D01*
X30757Y-34422D01*
X30744Y-34419D01*
X30689Y-34474D01*
X30689Y-34363D01*
X30689Y-32959D01*
X30610Y-32880D01*
X30554Y-32936D01*
X30554Y-32824D01*
X30475Y-32745D01*
X30444Y-32753D01*
X30429Y-32821D01*
X30442Y-32891D01*
X30444Y-32896D01*
X30475Y-32903D01*
X30554Y-32824D01*
X30554Y-32936D01*
X30531Y-32959D01*
X30538Y-32990D01*
X30607Y-33005D01*
X30676Y-32992D01*
X30682Y-32990D01*
X30689Y-32959D01*
X30689Y-34363D01*
X30682Y-34332D01*
X30613Y-34317D01*
X30543Y-34330D01*
X30538Y-34332D01*
X30531Y-34363D01*
X30610Y-34442D01*
X30689Y-34363D01*
X30689Y-34474D01*
X30665Y-34498D01*
X30744Y-34576D01*
X30757Y-34573D01*
X30770Y-34576D01*
X30849Y-34498D01*
X30849Y-34609D01*
X30826Y-34632D01*
X30829Y-34645D01*
X30826Y-34658D01*
X30905Y-34737D01*
X30984Y-34658D01*
X30984Y-34770D01*
X30961Y-34793D01*
X31040Y-34872D01*
X31053Y-34869D01*
X31066Y-34872D01*
X31145Y-34793D01*
X31145Y-34904D01*
X31121Y-34927D01*
X31129Y-34959D01*
X31197Y-34973D01*
X31267Y-34961D01*
X31272Y-34959D01*
X31279Y-34927D01*
X31279Y-42040D01*
X31272Y-42009D01*
X31203Y-41994D01*
X31134Y-42007D01*
X31129Y-42009D01*
X31121Y-42040D01*
X31200Y-42119D01*
X31279Y-42040D01*
X31279Y-42151D01*
X31256Y-42175D01*
X31335Y-42254D01*
X31366Y-42246D01*
X31381Y-42178D01*
X31381Y-42473D01*
X31368Y-42404D01*
X31366Y-42398D01*
X31335Y-42391D01*
X31279Y-42447D01*
X31279Y-42335D01*
X31276Y-42322D01*
X31279Y-42309D01*
X31200Y-42230D01*
X31145Y-42286D01*
X31145Y-42175D01*
X31066Y-42096D01*
X31053Y-42099D01*
X31040Y-42096D01*
X30984Y-42151D01*
X30984Y-42040D01*
X30984Y-34927D01*
X30905Y-34848D01*
X30849Y-34904D01*
X30849Y-34793D01*
X30770Y-34714D01*
X30757Y-34717D01*
X30744Y-34714D01*
X30689Y-34770D01*
X30689Y-34658D01*
X30686Y-34645D01*
X30689Y-34632D01*
X30610Y-34553D01*
X30554Y-34609D01*
X30554Y-34498D01*
X30475Y-34419D01*
X30444Y-34426D01*
X30429Y-34495D01*
X30442Y-34564D01*
X30444Y-34569D01*
X30475Y-34576D01*
X30554Y-34498D01*
X30554Y-34609D01*
X30531Y-34632D01*
X30534Y-34645D01*
X30531Y-34658D01*
X30610Y-34737D01*
X30689Y-34658D01*
X30689Y-34770D01*
X30665Y-34793D01*
X30744Y-34872D01*
X30757Y-34869D01*
X30770Y-34872D01*
X30849Y-34793D01*
X30849Y-34904D01*
X30826Y-34927D01*
X30833Y-34959D01*
X30902Y-34973D01*
X30971Y-34961D01*
X30977Y-34959D01*
X30984Y-34927D01*
X30984Y-42040D01*
X30977Y-42009D01*
X30908Y-41994D01*
X30839Y-42007D01*
X30833Y-42009D01*
X30826Y-42040D01*
X30905Y-42119D01*
X30984Y-42040D01*
X30984Y-42151D01*
X30961Y-42175D01*
X31040Y-42254D01*
X31053Y-42251D01*
X31066Y-42254D01*
X31145Y-42175D01*
X31145Y-42286D01*
X31121Y-42309D01*
X31124Y-42322D01*
X31121Y-42335D01*
X31200Y-42414D01*
X31279Y-42335D01*
X31279Y-42447D01*
X31256Y-42470D01*
X31335Y-42549D01*
X31366Y-42542D01*
X31381Y-42473D01*
X31381Y-42696D01*
X31279Y-42696D01*
X31279Y-42605D01*
X31200Y-42526D01*
X31145Y-42581D01*
X31145Y-42470D01*
X31066Y-42391D01*
X31053Y-42394D01*
X31040Y-42391D01*
X30984Y-42447D01*
X30984Y-42335D01*
X30981Y-42322D01*
X30984Y-42309D01*
X30905Y-42230D01*
X30849Y-42286D01*
X30849Y-42175D01*
X30770Y-42096D01*
X30757Y-42099D01*
X30744Y-42096D01*
X30689Y-42151D01*
X30689Y-42040D01*
X30689Y-34927D01*
X30610Y-34848D01*
X30554Y-34904D01*
X30554Y-34793D01*
X30475Y-34714D01*
X30444Y-34721D01*
X30429Y-34790D01*
X30442Y-34859D01*
X30444Y-34865D01*
X30475Y-34872D01*
X30554Y-34793D01*
X30554Y-34904D01*
X30531Y-34927D01*
X30538Y-34959D01*
X30607Y-34973D01*
X30676Y-34961D01*
X30682Y-34959D01*
X30689Y-34927D01*
X30689Y-42040D01*
X30682Y-42009D01*
X30613Y-41994D01*
X30543Y-42007D01*
X30538Y-42009D01*
X30531Y-42040D01*
X30610Y-42119D01*
X30689Y-42040D01*
X30689Y-42151D01*
X30665Y-42175D01*
X30744Y-42254D01*
X30757Y-42251D01*
X30770Y-42254D01*
X30849Y-42175D01*
X30849Y-42286D01*
X30826Y-42309D01*
X30829Y-42322D01*
X30826Y-42335D01*
X30905Y-42414D01*
X30984Y-42335D01*
X30984Y-42447D01*
X30961Y-42470D01*
X31040Y-42549D01*
X31053Y-42546D01*
X31066Y-42549D01*
X31145Y-42470D01*
X31145Y-42581D01*
X31121Y-42605D01*
X31129Y-42636D01*
X31197Y-42651D01*
X31267Y-42638D01*
X31272Y-42636D01*
X31279Y-42605D01*
X31279Y-42696D01*
X30984Y-42696D01*
X30984Y-42605D01*
X30905Y-42526D01*
X30849Y-42581D01*
X30849Y-42470D01*
X30770Y-42391D01*
X30757Y-42394D01*
X30744Y-42391D01*
X30689Y-42447D01*
X30689Y-42335D01*
X30686Y-42322D01*
X30689Y-42309D01*
X30610Y-42230D01*
X30554Y-42286D01*
X30554Y-42175D01*
X30475Y-42096D01*
X30444Y-42103D01*
X30429Y-42172D01*
X30442Y-42241D01*
X30444Y-42246D01*
X30475Y-42254D01*
X30554Y-42175D01*
X30554Y-42286D01*
X30531Y-42309D01*
X30534Y-42322D01*
X30531Y-42335D01*
X30610Y-42414D01*
X30689Y-42335D01*
X30689Y-42447D01*
X30665Y-42470D01*
X30744Y-42549D01*
X30757Y-42546D01*
X30770Y-42549D01*
X30849Y-42470D01*
X30849Y-42581D01*
X30826Y-42605D01*
X30833Y-42636D01*
X30902Y-42651D01*
X30971Y-42638D01*
X30977Y-42636D01*
X30984Y-42605D01*
X30984Y-42696D01*
X30689Y-42696D01*
X30689Y-42605D01*
X30610Y-42526D01*
X30554Y-42581D01*
X30554Y-42470D01*
X30475Y-42391D01*
X30444Y-42398D01*
X30429Y-42467D01*
X30442Y-42536D01*
X30444Y-42542D01*
X30475Y-42549D01*
X30554Y-42470D01*
X30554Y-42581D01*
X30531Y-42605D01*
X30538Y-42636D01*
X30607Y-42651D01*
X30676Y-42638D01*
X30682Y-42636D01*
X30689Y-42605D01*
X30689Y-42696D01*
X30137Y-42696D01*
X30137Y-28759D01*
X47539Y-28759D01*
X47539Y-30610D01*
X42027Y-30610D01*
X42027Y-35925D01*
X46555Y-35925D01*
X46555Y-32381D01*
X47539Y-32381D01*
X47539Y-39665D01*
X53248Y-39665D01*
X53248Y-28759D01*
X55019Y-28759D01*
X55019Y-30472D01*
X54973Y-30491D01*
X54901Y-30563D01*
X54862Y-30657D01*
X54862Y-30759D01*
X54876Y-30794D01*
X54869Y-30787D01*
X54775Y-30748D01*
X54673Y-30747D01*
X54579Y-30786D01*
X54572Y-30794D01*
X54586Y-30759D01*
X54586Y-30657D01*
X54547Y-30563D01*
X54475Y-30491D01*
X54381Y-30452D01*
X54280Y-30452D01*
X54252Y-30464D01*
X54252Y-29287D01*
X54219Y-29208D01*
X54158Y-29147D01*
X54078Y-29114D01*
X53992Y-29114D01*
X53912Y-29147D01*
X53851Y-29207D01*
X53818Y-29287D01*
X53818Y-29373D01*
X53851Y-29453D01*
X53912Y-29514D01*
X53992Y-29547D01*
X54078Y-29547D01*
X54157Y-29514D01*
X54218Y-29453D01*
X54251Y-29373D01*
X54252Y-29287D01*
X54252Y-30464D01*
X54185Y-30491D01*
X54113Y-30563D01*
X54074Y-30657D01*
X54074Y-30759D01*
X54113Y-30853D01*
X54185Y-30925D01*
X54279Y-30964D01*
X54381Y-30964D01*
X54475Y-30925D01*
X54482Y-30918D01*
X54468Y-30952D01*
X54468Y-31054D01*
X54507Y-31148D01*
X54579Y-31220D01*
X54673Y-31259D01*
X54775Y-31259D01*
X54869Y-31221D01*
X54941Y-31149D01*
X54980Y-31055D01*
X54980Y-30953D01*
X54966Y-30918D01*
X54972Y-30925D01*
X55019Y-30944D01*
X55019Y-41793D01*
X54923Y-41833D01*
X54826Y-41930D01*
X54773Y-42057D01*
X54773Y-42194D01*
X54825Y-42320D01*
X54922Y-42417D01*
X55019Y-42458D01*
X55019Y-49980D01*
X55019Y-49980D01*
G37*
G54D21*
X55019Y-49980D02*
X54872Y-49980D01*
X54872Y-42648D01*
X54819Y-42521D01*
X54722Y-42424D01*
X54596Y-42372D01*
X54459Y-42371D01*
X54332Y-42424D01*
X54235Y-42521D01*
X54183Y-42647D01*
X54183Y-42784D01*
X54235Y-42911D01*
X54332Y-43008D01*
X54458Y-43060D01*
X54595Y-43061D01*
X54722Y-43008D01*
X54819Y-42911D01*
X54871Y-42785D01*
X54872Y-42648D01*
X54872Y-49980D01*
X54281Y-49980D01*
X54281Y-43238D01*
X54229Y-43112D01*
X54132Y-43015D01*
X54005Y-42962D01*
X53868Y-42962D01*
X53742Y-43014D01*
X53645Y-43111D01*
X53592Y-43238D01*
X53592Y-43375D01*
X53644Y-43501D01*
X53741Y-43598D01*
X53868Y-43651D01*
X54005Y-43651D01*
X54131Y-43599D01*
X54228Y-43502D01*
X54281Y-43375D01*
X54281Y-43238D01*
X54281Y-49980D01*
X51830Y-49980D01*
X51830Y-45224D01*
X51791Y-45130D01*
X51719Y-45058D01*
X51625Y-45019D01*
X51524Y-45019D01*
X51430Y-45058D01*
X51357Y-45130D01*
X51318Y-45224D01*
X51318Y-45326D01*
X51333Y-45361D01*
X51326Y-45354D01*
X51232Y-45315D01*
X51130Y-45314D01*
X51036Y-45353D01*
X51028Y-45361D01*
X51043Y-45326D01*
X51043Y-45224D01*
X51004Y-45130D01*
X51003Y-45130D01*
X51003Y-44051D01*
X50971Y-43971D01*
X50910Y-43911D01*
X50830Y-43877D01*
X50744Y-43877D01*
X50664Y-43910D01*
X50603Y-43971D01*
X50570Y-44051D01*
X50570Y-44137D01*
X50603Y-44216D01*
X50664Y-44277D01*
X50744Y-44310D01*
X50830Y-44311D01*
X50909Y-44278D01*
X50970Y-44217D01*
X51003Y-44137D01*
X51003Y-44051D01*
X51003Y-45130D01*
X50932Y-45058D01*
X50838Y-45019D01*
X50736Y-45019D01*
X50642Y-45058D01*
X50570Y-45130D01*
X50531Y-45224D01*
X50531Y-45326D01*
X50570Y-45420D01*
X50642Y-45492D01*
X50736Y-45531D01*
X50838Y-45531D01*
X50932Y-45492D01*
X50939Y-45485D01*
X50925Y-45519D01*
X50925Y-45621D01*
X50964Y-45715D01*
X51035Y-45787D01*
X51129Y-45826D01*
X51231Y-45826D01*
X51325Y-45787D01*
X51397Y-45716D01*
X51436Y-45621D01*
X51437Y-45520D01*
X51422Y-45485D01*
X51429Y-45492D01*
X51523Y-45531D01*
X51625Y-45531D01*
X51719Y-45492D01*
X51791Y-45420D01*
X51830Y-45326D01*
X51830Y-45224D01*
X51830Y-49980D01*
X48287Y-49980D01*
X48287Y-44831D01*
X48248Y-44737D01*
X48228Y-44716D01*
X48228Y-43996D01*
X48213Y-43920D01*
X48170Y-43856D01*
X48170Y-43856D01*
X48072Y-43758D01*
X48008Y-43715D01*
X47933Y-43700D01*
X44874Y-43700D01*
X44826Y-43681D01*
X44740Y-43681D01*
X44692Y-43700D01*
X41358Y-43700D01*
X41358Y-42378D01*
X41325Y-42298D01*
X41264Y-42237D01*
X41232Y-42224D01*
X41264Y-42211D01*
X41325Y-42150D01*
X41358Y-42070D01*
X41358Y-41984D01*
X41325Y-41905D01*
X41264Y-41844D01*
X41232Y-41830D01*
X41264Y-41817D01*
X41325Y-41756D01*
X41358Y-41677D01*
X41358Y-41590D01*
X41325Y-41511D01*
X41264Y-41450D01*
X41184Y-41417D01*
X41098Y-41417D01*
X41019Y-41450D01*
X40958Y-41511D01*
X40925Y-41590D01*
X40925Y-41676D01*
X40958Y-41756D01*
X41018Y-41817D01*
X41051Y-41830D01*
X41019Y-41843D01*
X40958Y-41904D01*
X40925Y-41984D01*
X40925Y-42070D01*
X40958Y-42150D01*
X41018Y-42211D01*
X41051Y-42224D01*
X41019Y-42237D01*
X40958Y-42298D01*
X40925Y-42377D01*
X40925Y-42464D01*
X40958Y-42543D01*
X41018Y-42604D01*
X41098Y-42637D01*
X41184Y-42637D01*
X41264Y-42604D01*
X41325Y-42544D01*
X41358Y-42464D01*
X41358Y-42378D01*
X41358Y-43700D01*
X40748Y-43700D01*
X40748Y-43003D01*
X40767Y-42956D01*
X40767Y-42870D01*
X40748Y-42822D01*
X40748Y-42421D01*
X40733Y-42345D01*
X40690Y-42282D01*
X40690Y-42282D01*
X40591Y-42183D01*
X40528Y-42140D01*
X40452Y-42125D01*
X39362Y-42125D01*
X39314Y-42106D01*
X39228Y-42106D01*
X39181Y-42125D01*
X38968Y-42125D01*
X38921Y-42106D01*
X38835Y-42106D01*
X38755Y-42139D01*
X38694Y-42200D01*
X38661Y-42279D01*
X38661Y-42365D01*
X38694Y-42445D01*
X38755Y-42506D01*
X38834Y-42539D01*
X38920Y-42539D01*
X38968Y-42519D01*
X39181Y-42519D01*
X39228Y-42539D01*
X39314Y-42539D01*
X39362Y-42519D01*
X40354Y-42519D01*
X40354Y-42822D01*
X40334Y-42870D01*
X40334Y-42956D01*
X40354Y-43004D01*
X40354Y-43700D01*
X38279Y-43700D01*
X38232Y-43681D01*
X38146Y-43681D01*
X38066Y-43713D01*
X38005Y-43774D01*
X37972Y-43854D01*
X37972Y-43940D01*
X38005Y-44020D01*
X38066Y-44081D01*
X38145Y-44114D01*
X38231Y-44114D01*
X38279Y-44094D01*
X40354Y-44094D01*
X40354Y-44291D01*
X39559Y-44291D01*
X39511Y-44271D01*
X39425Y-44271D01*
X39346Y-44304D01*
X39285Y-44365D01*
X39252Y-44444D01*
X39251Y-44531D01*
X39284Y-44610D01*
X39345Y-44671D01*
X39425Y-44704D01*
X39511Y-44704D01*
X39559Y-44685D01*
X40452Y-44685D01*
X40452Y-44685D01*
X40528Y-44670D01*
X40591Y-44627D01*
X40690Y-44528D01*
X40690Y-44528D01*
X40733Y-44465D01*
X40748Y-44389D01*
X40748Y-44389D01*
X40748Y-44094D01*
X44692Y-44094D01*
X44740Y-44114D01*
X44826Y-44114D01*
X44874Y-44094D01*
X47834Y-44094D01*
X47834Y-44716D01*
X47814Y-44736D01*
X47775Y-44830D01*
X47775Y-44932D01*
X47814Y-45026D01*
X47886Y-45098D01*
X47980Y-45137D01*
X48082Y-45137D01*
X48176Y-45098D01*
X48248Y-45027D01*
X48287Y-44933D01*
X48287Y-44831D01*
X48287Y-49980D01*
X33400Y-49980D01*
X33400Y-48726D01*
X33400Y-29726D01*
X33290Y-29460D01*
X33087Y-29257D01*
X32821Y-29146D01*
X32533Y-29146D01*
X32267Y-29256D01*
X32064Y-29459D01*
X31953Y-29725D01*
X31953Y-30013D01*
X32063Y-30279D01*
X32266Y-30483D01*
X32532Y-30593D01*
X32820Y-30593D01*
X33086Y-30483D01*
X33290Y-30280D01*
X33400Y-30014D01*
X33400Y-29726D01*
X33400Y-48726D01*
X33290Y-48460D01*
X33104Y-48273D01*
X33104Y-38947D01*
X33100Y-38875D01*
X33100Y-38191D01*
X33100Y-37541D01*
X33085Y-37505D01*
X33057Y-37477D01*
X33021Y-37462D01*
X32982Y-37462D01*
X32332Y-37462D01*
X32296Y-37477D01*
X32268Y-37505D01*
X32253Y-37541D01*
X32253Y-37580D01*
X32253Y-38230D01*
X32268Y-38266D01*
X32296Y-38294D01*
X32332Y-38309D01*
X32371Y-38309D01*
X33021Y-38309D01*
X33057Y-38294D01*
X33085Y-38266D01*
X33100Y-38230D01*
X33100Y-38191D01*
X33100Y-38875D01*
X33095Y-38779D01*
X33047Y-38665D01*
X32991Y-38627D01*
X32935Y-38682D01*
X32935Y-38571D01*
X32897Y-38515D01*
X32739Y-38458D01*
X32571Y-38467D01*
X32456Y-38515D01*
X32418Y-38571D01*
X32677Y-38830D01*
X32935Y-38571D01*
X32935Y-38682D01*
X32732Y-38885D01*
X32991Y-39144D01*
X33047Y-39106D01*
X33104Y-38947D01*
X33104Y-48273D01*
X33087Y-48257D01*
X32935Y-48194D01*
X32935Y-39200D01*
X32677Y-38941D01*
X32621Y-38997D01*
X32621Y-38885D01*
X32362Y-38627D01*
X32306Y-38665D01*
X32250Y-38823D01*
X32258Y-38991D01*
X32306Y-39106D01*
X32362Y-39144D01*
X32621Y-38885D01*
X32621Y-38997D01*
X32418Y-39200D01*
X32456Y-39256D01*
X32615Y-39312D01*
X32783Y-39304D01*
X32897Y-39256D01*
X32935Y-39200D01*
X32935Y-48194D01*
X32821Y-48146D01*
X32533Y-48146D01*
X32267Y-48256D01*
X32064Y-48459D01*
X31953Y-48725D01*
X31953Y-49013D01*
X32063Y-49279D01*
X32266Y-49483D01*
X32532Y-49593D01*
X32820Y-49593D01*
X33086Y-49483D01*
X33290Y-49280D01*
X33400Y-49014D01*
X33400Y-48726D01*
X33400Y-49980D01*
X31381Y-49980D01*
X31381Y-44441D01*
X31381Y-44146D01*
X31368Y-44077D01*
X31366Y-44071D01*
X31335Y-44064D01*
X31279Y-44120D01*
X31279Y-44009D01*
X31272Y-43977D01*
X31203Y-43963D01*
X31134Y-43975D01*
X31129Y-43977D01*
X31121Y-44009D01*
X31200Y-44088D01*
X31279Y-44009D01*
X31279Y-44120D01*
X31256Y-44143D01*
X31335Y-44222D01*
X31366Y-44215D01*
X31381Y-44146D01*
X31381Y-44441D01*
X31368Y-44372D01*
X31366Y-44367D01*
X31335Y-44360D01*
X31279Y-44415D01*
X31279Y-44304D01*
X31276Y-44291D01*
X31279Y-44278D01*
X31200Y-44199D01*
X31145Y-44255D01*
X31145Y-44143D01*
X31066Y-44064D01*
X31053Y-44067D01*
X31040Y-44064D01*
X30984Y-44120D01*
X30984Y-44009D01*
X30977Y-43977D01*
X30908Y-43963D01*
X30839Y-43975D01*
X30833Y-43977D01*
X30826Y-44009D01*
X30905Y-44088D01*
X30984Y-44009D01*
X30984Y-44120D01*
X30961Y-44143D01*
X31040Y-44222D01*
X31053Y-44219D01*
X31066Y-44222D01*
X31145Y-44143D01*
X31145Y-44255D01*
X31121Y-44278D01*
X31124Y-44291D01*
X31121Y-44304D01*
X31200Y-44383D01*
X31279Y-44304D01*
X31279Y-44415D01*
X31256Y-44438D01*
X31335Y-44517D01*
X31366Y-44510D01*
X31381Y-44441D01*
X31381Y-49980D01*
X31279Y-49980D01*
X31279Y-44573D01*
X31200Y-44494D01*
X31145Y-44550D01*
X31145Y-44438D01*
X31066Y-44360D01*
X31053Y-44363D01*
X31040Y-44360D01*
X30984Y-44415D01*
X30984Y-44304D01*
X30981Y-44291D01*
X30984Y-44278D01*
X30905Y-44199D01*
X30849Y-44255D01*
X30849Y-44143D01*
X30770Y-44064D01*
X30757Y-44067D01*
X30744Y-44064D01*
X30689Y-44120D01*
X30689Y-44009D01*
X30682Y-43977D01*
X30613Y-43963D01*
X30543Y-43975D01*
X30538Y-43977D01*
X30531Y-44009D01*
X30610Y-44088D01*
X30689Y-44009D01*
X30689Y-44120D01*
X30665Y-44143D01*
X30744Y-44222D01*
X30757Y-44219D01*
X30770Y-44222D01*
X30849Y-44143D01*
X30849Y-44255D01*
X30826Y-44278D01*
X30829Y-44291D01*
X30826Y-44304D01*
X30905Y-44383D01*
X30984Y-44304D01*
X30984Y-44415D01*
X30961Y-44438D01*
X31040Y-44517D01*
X31053Y-44514D01*
X31066Y-44517D01*
X31145Y-44438D01*
X31145Y-44550D01*
X31121Y-44573D01*
X31129Y-44604D01*
X31197Y-44619D01*
X31267Y-44606D01*
X31272Y-44604D01*
X31279Y-44573D01*
X31279Y-49980D01*
X30984Y-49980D01*
X30984Y-44573D01*
X30905Y-44494D01*
X30849Y-44550D01*
X30849Y-44438D01*
X30770Y-44360D01*
X30757Y-44363D01*
X30744Y-44360D01*
X30689Y-44415D01*
X30689Y-44304D01*
X30686Y-44291D01*
X30689Y-44278D01*
X30610Y-44199D01*
X30554Y-44255D01*
X30554Y-44143D01*
X30475Y-44064D01*
X30444Y-44071D01*
X30429Y-44140D01*
X30442Y-44210D01*
X30444Y-44215D01*
X30475Y-44222D01*
X30554Y-44143D01*
X30554Y-44255D01*
X30531Y-44278D01*
X30534Y-44291D01*
X30531Y-44304D01*
X30610Y-44383D01*
X30689Y-44304D01*
X30689Y-44415D01*
X30665Y-44438D01*
X30744Y-44517D01*
X30757Y-44514D01*
X30770Y-44517D01*
X30849Y-44438D01*
X30849Y-44550D01*
X30826Y-44573D01*
X30833Y-44604D01*
X30902Y-44619D01*
X30971Y-44606D01*
X30977Y-44604D01*
X30984Y-44573D01*
X30984Y-49980D01*
X30689Y-49980D01*
X30689Y-44573D01*
X30610Y-44494D01*
X30554Y-44550D01*
X30554Y-44438D01*
X30475Y-44360D01*
X30444Y-44367D01*
X30429Y-44436D01*
X30442Y-44505D01*
X30444Y-44510D01*
X30475Y-44517D01*
X30554Y-44438D01*
X30554Y-44550D01*
X30531Y-44573D01*
X30538Y-44604D01*
X30607Y-44619D01*
X30676Y-44606D01*
X30682Y-44604D01*
X30689Y-44573D01*
X30689Y-49980D01*
X30137Y-49980D01*
X30137Y-43917D01*
X32303Y-43917D01*
X32303Y-42696D01*
X31381Y-42696D01*
X31381Y-42473D01*
X31381Y-42178D01*
X31381Y-34796D01*
X31381Y-34500D01*
X31381Y-32827D01*
X31381Y-32532D01*
X31368Y-32463D01*
X31366Y-32457D01*
X31335Y-32450D01*
X31279Y-32506D01*
X31279Y-32394D01*
X31272Y-32363D01*
X31203Y-32348D01*
X31134Y-32361D01*
X31129Y-32363D01*
X31121Y-32394D01*
X31200Y-32473D01*
X31279Y-32394D01*
X31279Y-32506D01*
X31256Y-32529D01*
X31335Y-32608D01*
X31366Y-32601D01*
X31381Y-32532D01*
X31381Y-32827D01*
X31368Y-32758D01*
X31366Y-32753D01*
X31335Y-32745D01*
X31279Y-32801D01*
X31279Y-32690D01*
X31276Y-32677D01*
X31279Y-32664D01*
X31200Y-32585D01*
X31145Y-32640D01*
X31145Y-32529D01*
X31066Y-32450D01*
X31053Y-32453D01*
X31040Y-32450D01*
X30984Y-32506D01*
X30984Y-32394D01*
X30977Y-32363D01*
X30908Y-32348D01*
X30839Y-32361D01*
X30833Y-32363D01*
X30826Y-32394D01*
X30905Y-32473D01*
X30984Y-32394D01*
X30984Y-32506D01*
X30961Y-32529D01*
X31040Y-32608D01*
X31053Y-32605D01*
X31066Y-32608D01*
X31145Y-32529D01*
X31145Y-32640D01*
X31121Y-32664D01*
X31124Y-32677D01*
X31121Y-32690D01*
X31200Y-32769D01*
X31279Y-32690D01*
X31279Y-32801D01*
X31256Y-32824D01*
X31335Y-32903D01*
X31366Y-32896D01*
X31381Y-32827D01*
X31381Y-34500D01*
X31368Y-34431D01*
X31366Y-34426D01*
X31335Y-34419D01*
X31279Y-34474D01*
X31279Y-34363D01*
X31279Y-32959D01*
X31200Y-32880D01*
X31145Y-32936D01*
X31145Y-32824D01*
X31066Y-32745D01*
X31053Y-32748D01*
X31040Y-32745D01*
X30984Y-32801D01*
X30984Y-32690D01*
X30981Y-32677D01*
X30984Y-32664D01*
X30905Y-32585D01*
X30849Y-32640D01*
X30849Y-32529D01*
X30770Y-32450D01*
X30757Y-32453D01*
X30744Y-32450D01*
X30689Y-32506D01*
X30689Y-32394D01*
X30682Y-32363D01*
X30613Y-32348D01*
X30543Y-32361D01*
X30538Y-32363D01*
X30531Y-32394D01*
X30610Y-32473D01*
X30689Y-32394D01*
X30689Y-32506D01*
X30665Y-32529D01*
X30744Y-32608D01*
X30757Y-32605D01*
X30770Y-32608D01*
X30849Y-32529D01*
X30849Y-32640D01*
X30826Y-32664D01*
X30829Y-32677D01*
X30826Y-32690D01*
X30905Y-32769D01*
X30984Y-32690D01*
X30984Y-32801D01*
X30961Y-32824D01*
X31040Y-32903D01*
X31053Y-32900D01*
X31066Y-32903D01*
X31145Y-32824D01*
X31145Y-32936D01*
X31121Y-32959D01*
X31129Y-32990D01*
X31197Y-33005D01*
X31267Y-32992D01*
X31272Y-32990D01*
X31279Y-32959D01*
X31279Y-34363D01*
X31272Y-34332D01*
X31203Y-34317D01*
X31134Y-34330D01*
X31129Y-34332D01*
X31121Y-34363D01*
X31200Y-34442D01*
X31279Y-34363D01*
X31279Y-34474D01*
X31256Y-34498D01*
X31335Y-34576D01*
X31366Y-34569D01*
X31381Y-34500D01*
X31381Y-34796D01*
X31368Y-34726D01*
X31366Y-34721D01*
X31335Y-34714D01*
X31279Y-34770D01*
X31279Y-34658D01*
X31276Y-34645D01*
X31279Y-34632D01*
X31200Y-34553D01*
X31145Y-34609D01*
X31145Y-34498D01*
X31066Y-34419D01*
X31053Y-34422D01*
X31040Y-34419D01*
X30984Y-34474D01*
X30984Y-34363D01*
X30984Y-32959D01*
X30905Y-32880D01*
X30849Y-32936D01*
X30849Y-32824D01*
X30770Y-32745D01*
X30757Y-32748D01*
X30744Y-32745D01*
X30689Y-32801D01*
X30689Y-32690D01*
X30686Y-32677D01*
X30689Y-32664D01*
X30610Y-32585D01*
X30554Y-32640D01*
X30554Y-32529D01*
X30475Y-32450D01*
X30444Y-32457D01*
X30429Y-32526D01*
X30442Y-32595D01*
X30444Y-32601D01*
X30475Y-32608D01*
X30554Y-32529D01*
X30554Y-32640D01*
X30531Y-32664D01*
X30534Y-32677D01*
X30531Y-32690D01*
X30610Y-32769D01*
X30689Y-32690D01*
X30689Y-32801D01*
X30665Y-32824D01*
X30744Y-32903D01*
X30757Y-32900D01*
X30770Y-32903D01*
X30849Y-32824D01*
X30849Y-32936D01*
X30826Y-32959D01*
X30833Y-32990D01*
X30902Y-33005D01*
X30971Y-32992D01*
X30977Y-32990D01*
X30984Y-32959D01*
X30984Y-34363D01*
X30977Y-34332D01*
X30908Y-34317D01*
X30839Y-34330D01*
X30833Y-34332D01*
X30826Y-34363D01*
X30905Y-34442D01*
X30984Y-34363D01*
X30984Y-34474D01*
X30961Y-34498D01*
X31040Y-34576D01*
X31053Y-34573D01*
X31066Y-34576D01*
X31145Y-34498D01*
X31145Y-34609D01*
X31121Y-34632D01*
X31124Y-34645D01*
X31121Y-34658D01*
X31200Y-34737D01*
X31279Y-34658D01*
X31279Y-34770D01*
X31256Y-34793D01*
X31335Y-34872D01*
X31366Y-34865D01*
X31381Y-34796D01*
X31381Y-42178D01*
X31368Y-42108D01*
X31366Y-42103D01*
X31335Y-42096D01*
X31279Y-42151D01*
X31279Y-42040D01*
X31279Y-34927D01*
X31200Y-34848D01*
X31145Y-34904D01*
X31145Y-34793D01*
X31066Y-34714D01*
X31053Y-34717D01*
X31040Y-34714D01*
X30984Y-34770D01*
X30984Y-34658D01*
X30981Y-34645D01*
X30984Y-34632D01*
X30905Y-34553D01*
X30849Y-34609D01*
X30849Y-34498D01*
X30770Y-34419D01*
X30757Y-34422D01*
X30744Y-34419D01*
X30689Y-34474D01*
X30689Y-34363D01*
X30689Y-32959D01*
X30610Y-32880D01*
X30554Y-32936D01*
X30554Y-32824D01*
X30475Y-32745D01*
X30444Y-32753D01*
X30429Y-32821D01*
X30442Y-32891D01*
X30444Y-32896D01*
X30475Y-32903D01*
X30554Y-32824D01*
X30554Y-32936D01*
X30531Y-32959D01*
X30538Y-32990D01*
X30607Y-33005D01*
X30676Y-32992D01*
X30682Y-32990D01*
X30689Y-32959D01*
X30689Y-34363D01*
X30682Y-34332D01*
X30613Y-34317D01*
X30543Y-34330D01*
X30538Y-34332D01*
X30531Y-34363D01*
X30610Y-34442D01*
X30689Y-34363D01*
X30689Y-34474D01*
X30665Y-34498D01*
X30744Y-34576D01*
X30757Y-34573D01*
X30770Y-34576D01*
X30849Y-34498D01*
X30849Y-34609D01*
X30826Y-34632D01*
X30829Y-34645D01*
X30826Y-34658D01*
X30905Y-34737D01*
X30984Y-34658D01*
X30984Y-34770D01*
X30961Y-34793D01*
X31040Y-34872D01*
X31053Y-34869D01*
X31066Y-34872D01*
X31145Y-34793D01*
X31145Y-34904D01*
X31121Y-34927D01*
X31129Y-34959D01*
X31197Y-34973D01*
X31267Y-34961D01*
X31272Y-34959D01*
X31279Y-34927D01*
X31279Y-42040D01*
X31272Y-42009D01*
X31203Y-41994D01*
X31134Y-42007D01*
X31129Y-42009D01*
X31121Y-42040D01*
X31200Y-42119D01*
X31279Y-42040D01*
X31279Y-42151D01*
X31256Y-42175D01*
X31335Y-42254D01*
X31366Y-42246D01*
X31381Y-42178D01*
X31381Y-42473D01*
X31368Y-42404D01*
X31366Y-42398D01*
X31335Y-42391D01*
X31279Y-42447D01*
X31279Y-42335D01*
X31276Y-42322D01*
X31279Y-42309D01*
X31200Y-42230D01*
X31145Y-42286D01*
X31145Y-42175D01*
X31066Y-42096D01*
X31053Y-42099D01*
X31040Y-42096D01*
X30984Y-42151D01*
X30984Y-42040D01*
X30984Y-34927D01*
X30905Y-34848D01*
X30849Y-34904D01*
X30849Y-34793D01*
X30770Y-34714D01*
X30757Y-34717D01*
X30744Y-34714D01*
X30689Y-34770D01*
X30689Y-34658D01*
X30686Y-34645D01*
X30689Y-34632D01*
X30610Y-34553D01*
X30554Y-34609D01*
X30554Y-34498D01*
X30475Y-34419D01*
X30444Y-34426D01*
X30429Y-34495D01*
X30442Y-34564D01*
X30444Y-34569D01*
X30475Y-34576D01*
X30554Y-34498D01*
X30554Y-34609D01*
X30531Y-34632D01*
X30534Y-34645D01*
X30531Y-34658D01*
X30610Y-34737D01*
X30689Y-34658D01*
X30689Y-34770D01*
X30665Y-34793D01*
X30744Y-34872D01*
X30757Y-34869D01*
X30770Y-34872D01*
X30849Y-34793D01*
X30849Y-34904D01*
X30826Y-34927D01*
X30833Y-34959D01*
X30902Y-34973D01*
X30971Y-34961D01*
X30977Y-34959D01*
X30984Y-34927D01*
X30984Y-42040D01*
X30977Y-42009D01*
X30908Y-41994D01*
X30839Y-42007D01*
X30833Y-42009D01*
X30826Y-42040D01*
X30905Y-42119D01*
X30984Y-42040D01*
X30984Y-42151D01*
X30961Y-42175D01*
X31040Y-42254D01*
X31053Y-42251D01*
X31066Y-42254D01*
X31145Y-42175D01*
X31145Y-42286D01*
X31121Y-42309D01*
X31124Y-42322D01*
X31121Y-42335D01*
X31200Y-42414D01*
X31279Y-42335D01*
X31279Y-42447D01*
X31256Y-42470D01*
X31335Y-42549D01*
X31366Y-42542D01*
X31381Y-42473D01*
X31381Y-42696D01*
X31279Y-42696D01*
X31279Y-42605D01*
X31200Y-42526D01*
X31145Y-42581D01*
X31145Y-42470D01*
X31066Y-42391D01*
X31053Y-42394D01*
X31040Y-42391D01*
X30984Y-42447D01*
X30984Y-42335D01*
X30981Y-42322D01*
X30984Y-42309D01*
X30905Y-42230D01*
X30849Y-42286D01*
X30849Y-42175D01*
X30770Y-42096D01*
X30757Y-42099D01*
X30744Y-42096D01*
X30689Y-42151D01*
X30689Y-42040D01*
X30689Y-34927D01*
X30610Y-34848D01*
X30554Y-34904D01*
X30554Y-34793D01*
X30475Y-34714D01*
X30444Y-34721D01*
X30429Y-34790D01*
X30442Y-34859D01*
X30444Y-34865D01*
X30475Y-34872D01*
X30554Y-34793D01*
X30554Y-34904D01*
X30531Y-34927D01*
X30538Y-34959D01*
X30607Y-34973D01*
X30676Y-34961D01*
X30682Y-34959D01*
X30689Y-34927D01*
X30689Y-42040D01*
X30682Y-42009D01*
X30613Y-41994D01*
X30543Y-42007D01*
X30538Y-42009D01*
X30531Y-42040D01*
X30610Y-42119D01*
X30689Y-42040D01*
X30689Y-42151D01*
X30665Y-42175D01*
X30744Y-42254D01*
X30757Y-42251D01*
X30770Y-42254D01*
X30849Y-42175D01*
X30849Y-42286D01*
X30826Y-42309D01*
X30829Y-42322D01*
X30826Y-42335D01*
X30905Y-42414D01*
X30984Y-42335D01*
X30984Y-42447D01*
X30961Y-42470D01*
X31040Y-42549D01*
X31053Y-42546D01*
X31066Y-42549D01*
X31145Y-42470D01*
X31145Y-42581D01*
X31121Y-42605D01*
X31129Y-42636D01*
X31197Y-42651D01*
X31267Y-42638D01*
X31272Y-42636D01*
X31279Y-42605D01*
X31279Y-42696D01*
X30984Y-42696D01*
X30984Y-42605D01*
X30905Y-42526D01*
X30849Y-42581D01*
X30849Y-42470D01*
X30770Y-42391D01*
X30757Y-42394D01*
X30744Y-42391D01*
X30689Y-42447D01*
X30689Y-42335D01*
X30686Y-42322D01*
X30689Y-42309D01*
X30610Y-42230D01*
X30554Y-42286D01*
X30554Y-42175D01*
X30475Y-42096D01*
X30444Y-42103D01*
X30429Y-42172D01*
X30442Y-42241D01*
X30444Y-42246D01*
X30475Y-42254D01*
X30554Y-42175D01*
X30554Y-42286D01*
X30531Y-42309D01*
X30534Y-42322D01*
X30531Y-42335D01*
X30610Y-42414D01*
X30689Y-42335D01*
X30689Y-42447D01*
X30665Y-42470D01*
X30744Y-42549D01*
X30757Y-42546D01*
X30770Y-42549D01*
X30849Y-42470D01*
X30849Y-42581D01*
X30826Y-42605D01*
X30833Y-42636D01*
X30902Y-42651D01*
X30971Y-42638D01*
X30977Y-42636D01*
X30984Y-42605D01*
X30984Y-42696D01*
X30689Y-42696D01*
X30689Y-42605D01*
X30610Y-42526D01*
X30554Y-42581D01*
X30554Y-42470D01*
X30475Y-42391D01*
X30444Y-42398D01*
X30429Y-42467D01*
X30442Y-42536D01*
X30444Y-42542D01*
X30475Y-42549D01*
X30554Y-42470D01*
X30554Y-42581D01*
X30531Y-42605D01*
X30538Y-42636D01*
X30607Y-42651D01*
X30676Y-42638D01*
X30682Y-42636D01*
X30689Y-42605D01*
X30689Y-42696D01*
X30137Y-42696D01*
X30137Y-28759D01*
X47539Y-28759D01*
X47539Y-30610D01*
X42027Y-30610D01*
X42027Y-35925D01*
X46555Y-35925D01*
X46555Y-32381D01*
X47539Y-32381D01*
X47539Y-39665D01*
X53248Y-39665D01*
X53248Y-28759D01*
X55019Y-28759D01*
X55019Y-30472D01*
X54973Y-30491D01*
X54901Y-30563D01*
X54862Y-30657D01*
X54862Y-30759D01*
X54876Y-30794D01*
X54869Y-30787D01*
X54775Y-30748D01*
X54673Y-30747D01*
X54579Y-30786D01*
X54572Y-30794D01*
X54586Y-30759D01*
X54586Y-30657D01*
X54547Y-30563D01*
X54475Y-30491D01*
X54381Y-30452D01*
X54280Y-30452D01*
X54252Y-30464D01*
X54252Y-29287D01*
X54219Y-29208D01*
X54158Y-29147D01*
X54078Y-29114D01*
X53992Y-29114D01*
X53912Y-29147D01*
X53851Y-29207D01*
X53818Y-29287D01*
X53818Y-29373D01*
X53851Y-29453D01*
X53912Y-29514D01*
X53992Y-29547D01*
X54078Y-29547D01*
X54157Y-29514D01*
X54218Y-29453D01*
X54251Y-29373D01*
X54252Y-29287D01*
X54252Y-30464D01*
X54185Y-30491D01*
X54113Y-30563D01*
X54074Y-30657D01*
X54074Y-30759D01*
X54113Y-30853D01*
X54185Y-30925D01*
X54279Y-30964D01*
X54381Y-30964D01*
X54475Y-30925D01*
X54482Y-30918D01*
X54468Y-30952D01*
X54468Y-31054D01*
X54507Y-31148D01*
X54579Y-31220D01*
X54673Y-31259D01*
X54775Y-31259D01*
X54869Y-31221D01*
X54941Y-31149D01*
X54980Y-31055D01*
X54980Y-30953D01*
X54966Y-30918D01*
X54972Y-30925D01*
X55019Y-30944D01*
X55019Y-41793D01*
X54923Y-41833D01*
X54826Y-41930D01*
X54773Y-42057D01*
X54773Y-42194D01*
X54825Y-42320D01*
X54922Y-42417D01*
X55019Y-42458D01*
X55019Y-49980D01*
M02*
