G04 (created by PCBNEW (2013-mar-25)-stable) date Tuesday, March 01, 2016 03:52:00 PM*
%MOIN*%
G04 Gerber Fmt 3.4, Leading zero omitted, Abs format*
%FSLAX34Y34*%
G01*
G70*
G90*
G04 APERTURE LIST*
%ADD10C,0.006*%
%ADD11C,0.00590551*%
%ADD12C,0.015748*%
%ADD13C,0.0669291*%
%ADD14C,0.023622*%
%ADD15R,0.0649606X0.0649606*%
%ADD16C,0.0649606*%
%ADD17C,0.0492126*%
%ADD18O,0.11811X0.0688976*%
%ADD19C,0.0314961*%
%ADD20C,0.00393701*%
G04 APERTURE END LIST*
G54D10*
G54D11*
X71760Y-49606D02*
X71775Y-49587D01*
X71805Y-49568D01*
X71880Y-49568D01*
X71910Y-49587D01*
X71925Y-49606D01*
X71940Y-49643D01*
X71940Y-49681D01*
X71925Y-49737D01*
X71745Y-49962D01*
X71940Y-49962D01*
G54D12*
X50787Y-33464D03*
X50393Y-33464D03*
X51181Y-33464D03*
X51181Y-33070D03*
X50787Y-33070D03*
X50393Y-33070D03*
X50393Y-33858D03*
X50787Y-33858D03*
X51181Y-33858D03*
X72440Y-31889D03*
X72677Y-31889D03*
X72204Y-31889D03*
X39173Y-43208D03*
X39566Y-43208D03*
X39173Y-43602D03*
X39566Y-43602D03*
X44488Y-32726D03*
X44488Y-33021D03*
G54D13*
X68305Y-48370D03*
X68305Y-49370D03*
X67305Y-48370D03*
X67305Y-49370D03*
X66305Y-48370D03*
X66305Y-49370D03*
X65305Y-48370D03*
X65305Y-49370D03*
X64305Y-48370D03*
X64305Y-49370D03*
X63305Y-48370D03*
X63305Y-49370D03*
X62305Y-48370D03*
X62305Y-49370D03*
X61305Y-48370D03*
X61305Y-49370D03*
X60305Y-48370D03*
X60305Y-49370D03*
X59305Y-48370D03*
X59305Y-49370D03*
X58305Y-48370D03*
X58305Y-49370D03*
X57305Y-48370D03*
X57305Y-49370D03*
X56305Y-48370D03*
X56305Y-49370D03*
X68305Y-29370D03*
X68305Y-30370D03*
X67305Y-29370D03*
X67305Y-30370D03*
X66305Y-29370D03*
X66305Y-30370D03*
X65305Y-29370D03*
X65305Y-30370D03*
X64305Y-29370D03*
X64305Y-30370D03*
X63305Y-29370D03*
X63305Y-30370D03*
X62305Y-29370D03*
X62305Y-30370D03*
X61305Y-29370D03*
X61305Y-30370D03*
X60305Y-29370D03*
X60305Y-30370D03*
X59305Y-29370D03*
X59305Y-30370D03*
X58305Y-29370D03*
X58305Y-30370D03*
X57305Y-29370D03*
X57305Y-30370D03*
X56305Y-29370D03*
X56305Y-30370D03*
G54D14*
X60334Y-33759D03*
G54D15*
X32677Y-37885D03*
G54D16*
X32677Y-38885D03*
G54D17*
X55118Y-42125D03*
X54527Y-42716D03*
X53937Y-43307D03*
G54D14*
X51673Y-31299D03*
G54D12*
X30610Y-44438D03*
X30610Y-44143D03*
X30905Y-44438D03*
X30905Y-44143D03*
X31200Y-44438D03*
X31200Y-44143D03*
X30610Y-42175D03*
X30610Y-42470D03*
X30905Y-42175D03*
X30905Y-42470D03*
X31200Y-42175D03*
X31200Y-42470D03*
X30610Y-34793D03*
X30610Y-34498D03*
X30905Y-34793D03*
X30905Y-34498D03*
X31200Y-34793D03*
X31200Y-34498D03*
X30610Y-32529D03*
X30610Y-32824D03*
X30905Y-32529D03*
X30905Y-32824D03*
X31200Y-32529D03*
X31200Y-32824D03*
G54D18*
X71850Y-45275D03*
X71850Y-46456D03*
X71850Y-48503D03*
G54D19*
X47834Y-31299D03*
X44586Y-31397D03*
X44094Y-34153D03*
X45275Y-34153D03*
G54D14*
X50196Y-31692D03*
G54D19*
X44881Y-34153D03*
G54D14*
X60236Y-34645D03*
G54D19*
X56003Y-45866D03*
G54D14*
X59251Y-32086D03*
X56003Y-32086D03*
G54D19*
X56299Y-45570D03*
G54D14*
X61811Y-36614D03*
X61417Y-35039D03*
X62204Y-35433D03*
X64173Y-38188D03*
X63385Y-38976D03*
G54D19*
X75196Y-35826D03*
G54D14*
X61811Y-37007D03*
X70078Y-31496D03*
G54D19*
X67125Y-34940D03*
X68307Y-34940D03*
X67716Y-35433D03*
G54D14*
X57874Y-36614D03*
X64960Y-35334D03*
X60629Y-37007D03*
X59842Y-38188D03*
X60629Y-38188D03*
G54D19*
X74803Y-35826D03*
X75196Y-36220D03*
X74803Y-36220D03*
X74409Y-35826D03*
X74409Y-36220D03*
G54D14*
X61417Y-38188D03*
X62204Y-37795D03*
X59842Y-36220D03*
X59448Y-36614D03*
X59842Y-37007D03*
G54D19*
X65255Y-37401D03*
X65255Y-37893D03*
X67027Y-37893D03*
X67027Y-37401D03*
G54D14*
X60629Y-36614D03*
X60629Y-37795D03*
X62204Y-36614D03*
X61417Y-36614D03*
X60236Y-37795D03*
G54D19*
X60236Y-45866D03*
X57086Y-47244D03*
X68405Y-32283D03*
X69783Y-32283D03*
X69094Y-31791D03*
G54D14*
X58661Y-37007D03*
X58661Y-35826D03*
X59842Y-39370D03*
X63779Y-35433D03*
X63779Y-39370D03*
X58661Y-39763D03*
X57381Y-37401D03*
X57381Y-39173D03*
X59842Y-41043D03*
X64074Y-41043D03*
X64960Y-35925D03*
X64173Y-33759D03*
X60925Y-33759D03*
X57381Y-34251D03*
X57874Y-34251D03*
X60629Y-34645D03*
X62204Y-34251D03*
X59842Y-35039D03*
X59055Y-37795D03*
X59842Y-40551D03*
X64173Y-40551D03*
X62598Y-39763D03*
X61417Y-39763D03*
X63385Y-38188D03*
X62204Y-35039D03*
X62598Y-35433D03*
X61417Y-35826D03*
X64173Y-36220D03*
X62598Y-36220D03*
X62598Y-36614D03*
X62992Y-36614D03*
X62598Y-37007D03*
X57874Y-38582D03*
X62204Y-38582D03*
X59448Y-38188D03*
G54D19*
X48818Y-31299D03*
X52755Y-33070D03*
G54D14*
X49409Y-32381D03*
G54D19*
X48818Y-34153D03*
X52066Y-38582D03*
X52066Y-37007D03*
X47834Y-36318D03*
X48622Y-36318D03*
X51574Y-30314D03*
X48031Y-44881D03*
G54D14*
X44783Y-43897D03*
X39468Y-44488D03*
X38188Y-43897D03*
G54D19*
X40551Y-43897D03*
G54D14*
X40551Y-42913D03*
X38877Y-42322D03*
X39271Y-42322D03*
G54D19*
X65452Y-44488D03*
X65452Y-44881D03*
X65452Y-45275D03*
X65452Y-44094D03*
X65059Y-44488D03*
X65059Y-45275D03*
X65059Y-44881D03*
X65059Y-44094D03*
G54D14*
X54035Y-29330D03*
G54D19*
X54330Y-30708D03*
X55118Y-30708D03*
X54724Y-31003D03*
X50787Y-45275D03*
X51574Y-45275D03*
X51181Y-45570D03*
G54D14*
X66830Y-38681D03*
X50787Y-44094D03*
G54D19*
X73523Y-33366D03*
X73523Y-33759D03*
X73129Y-33366D03*
X73523Y-32972D03*
X73129Y-33759D03*
X73129Y-32972D03*
X65255Y-38681D03*
X65255Y-39173D03*
G54D14*
X72539Y-30019D03*
G54D19*
X60433Y-46259D03*
X56299Y-46259D03*
G54D14*
X60629Y-40551D03*
X41141Y-41633D03*
X41141Y-42421D03*
G54D19*
X65452Y-47244D03*
X65452Y-46850D03*
X65452Y-46456D03*
X65452Y-47637D03*
X65059Y-47244D03*
X65059Y-46456D03*
X65059Y-46850D03*
X65059Y-47637D03*
X66929Y-39271D03*
X56692Y-47244D03*
X60137Y-46653D03*
X34251Y-43700D03*
X35039Y-43700D03*
X33464Y-43700D03*
X32677Y-43700D03*
X54133Y-49212D03*
X50196Y-49212D03*
X44291Y-49212D03*
X40354Y-49212D03*
X38385Y-49212D03*
X36417Y-49212D03*
X33464Y-47244D03*
X31496Y-47244D03*
X34448Y-49212D03*
X42322Y-49212D03*
X46259Y-49212D03*
X48228Y-49212D03*
X52165Y-49212D03*
X34251Y-42913D03*
X32677Y-42913D03*
X33464Y-42913D03*
X35039Y-42913D03*
X47047Y-35236D03*
X44881Y-37696D03*
X42519Y-37696D03*
X40157Y-37696D03*
X37795Y-37696D03*
X44881Y-30413D03*
X42519Y-30413D03*
X40157Y-30413D03*
X37795Y-30413D03*
X35531Y-32874D03*
X53248Y-33464D03*
X49606Y-34448D03*
X47834Y-35925D03*
X48622Y-35925D03*
X52460Y-39271D03*
X52460Y-37696D03*
X53740Y-39370D03*
X53740Y-37795D03*
X51377Y-37401D03*
X51377Y-36417D03*
X53149Y-29921D03*
X53149Y-30314D03*
X53149Y-29527D03*
X49606Y-44488D03*
X49606Y-44881D03*
X49606Y-44094D03*
X71850Y-29527D03*
X48228Y-29527D03*
X44291Y-29527D03*
X40354Y-29527D03*
X36417Y-29527D03*
X38385Y-29527D03*
X42322Y-29527D03*
X46259Y-29527D03*
X50196Y-29527D03*
X34448Y-29527D03*
X36417Y-29527D03*
G54D14*
X61417Y-37007D03*
G54D19*
X36122Y-43700D03*
X36909Y-43700D03*
X36122Y-42913D03*
X36909Y-42913D03*
G54D14*
X39074Y-44488D03*
G54D19*
X66929Y-40748D03*
X66929Y-40255D03*
X66929Y-39763D03*
G54D14*
X63385Y-40157D03*
X58661Y-34645D03*
X60629Y-35826D03*
X64173Y-34645D03*
X62992Y-34645D03*
X58267Y-36220D03*
X61417Y-36220D03*
X61417Y-35433D03*
X60236Y-37007D03*
X59055Y-40157D03*
X61811Y-40551D03*
X59448Y-37007D03*
X64173Y-38582D03*
X57874Y-40551D03*
X60629Y-39763D03*
X61811Y-37795D03*
X62598Y-37795D03*
G54D19*
X73228Y-31889D03*
X71653Y-31889D03*
X73228Y-31496D03*
X71653Y-31496D03*
X71653Y-32283D03*
X46259Y-46653D03*
G54D14*
X58267Y-37795D03*
X60236Y-34251D03*
X59055Y-35826D03*
X63385Y-35826D03*
X62204Y-36220D03*
X63779Y-37007D03*
X61417Y-38976D03*
X62992Y-38976D03*
X59055Y-38582D03*
X60629Y-38582D03*
X61811Y-38582D03*
X61811Y-38188D03*
X60236Y-38582D03*
X60236Y-38188D03*
X59842Y-36614D03*
X41141Y-42027D03*
X59448Y-37795D03*
X59055Y-35433D03*
G54D10*
G36*
X75767Y-36594D02*
X75452Y-36594D01*
X75452Y-36169D01*
X75413Y-36075D01*
X75361Y-36023D01*
X75413Y-35971D01*
X75452Y-35877D01*
X75452Y-35776D01*
X75413Y-35682D01*
X75341Y-35609D01*
X75247Y-35570D01*
X75146Y-35570D01*
X75052Y-35609D01*
X74999Y-35661D01*
X74948Y-35609D01*
X74854Y-35570D01*
X74752Y-35570D01*
X74658Y-35609D01*
X74606Y-35661D01*
X74554Y-35609D01*
X74460Y-35570D01*
X74358Y-35570D01*
X74264Y-35609D01*
X74192Y-35681D01*
X74153Y-35775D01*
X74153Y-35877D01*
X74192Y-35971D01*
X74244Y-36023D01*
X74192Y-36075D01*
X74153Y-36169D01*
X74153Y-36271D01*
X74192Y-36365D01*
X74264Y-36437D01*
X74358Y-36476D01*
X74460Y-36476D01*
X74554Y-36437D01*
X74606Y-36385D01*
X74658Y-36437D01*
X74752Y-36476D01*
X74853Y-36476D01*
X74947Y-36437D01*
X75000Y-36385D01*
X75051Y-36437D01*
X75145Y-36476D01*
X75247Y-36476D01*
X75341Y-36437D01*
X75413Y-36365D01*
X75452Y-36271D01*
X75452Y-36169D01*
X75452Y-36594D01*
X73779Y-36594D01*
X73779Y-33709D01*
X73740Y-33615D01*
X73688Y-33562D01*
X73740Y-33511D01*
X73779Y-33417D01*
X73779Y-33315D01*
X73740Y-33221D01*
X73688Y-33169D01*
X73740Y-33117D01*
X73779Y-33023D01*
X73779Y-32921D01*
X73740Y-32827D01*
X73668Y-32755D01*
X73574Y-32716D01*
X73472Y-32716D01*
X73378Y-32755D01*
X73326Y-32807D01*
X73275Y-32755D01*
X73181Y-32716D01*
X73079Y-32716D01*
X72985Y-32755D01*
X72913Y-32827D01*
X72874Y-32921D01*
X72873Y-33023D01*
X72912Y-33117D01*
X72964Y-33169D01*
X72913Y-33220D01*
X72874Y-33315D01*
X72873Y-33416D01*
X72912Y-33510D01*
X72964Y-33563D01*
X72913Y-33614D01*
X72874Y-33708D01*
X72873Y-33810D01*
X72912Y-33904D01*
X72984Y-33976D01*
X73078Y-34015D01*
X73180Y-34015D01*
X73274Y-33976D01*
X73326Y-33924D01*
X73378Y-33976D01*
X73472Y-34015D01*
X73574Y-34015D01*
X73668Y-33976D01*
X73740Y-33904D01*
X73779Y-33810D01*
X73779Y-33709D01*
X73779Y-36594D01*
X72755Y-36594D01*
X72755Y-29976D01*
X72723Y-29897D01*
X72662Y-29836D01*
X72582Y-29803D01*
X72496Y-29803D01*
X72416Y-29836D01*
X72355Y-29896D01*
X72322Y-29976D01*
X72322Y-30062D01*
X72355Y-30142D01*
X72416Y-30203D01*
X72496Y-30236D01*
X72582Y-30236D01*
X72661Y-30203D01*
X72722Y-30142D01*
X72755Y-30062D01*
X72755Y-29976D01*
X72755Y-36594D01*
X71028Y-36594D01*
X71028Y-29726D01*
X70918Y-29460D01*
X70715Y-29257D01*
X70449Y-29146D01*
X70161Y-29146D01*
X69895Y-29256D01*
X69692Y-29459D01*
X69581Y-29725D01*
X69581Y-30013D01*
X69691Y-30279D01*
X69894Y-30483D01*
X70160Y-30593D01*
X70448Y-30593D01*
X70714Y-30483D01*
X70918Y-30280D01*
X71028Y-30014D01*
X71028Y-29726D01*
X71028Y-36594D01*
X70295Y-36594D01*
X70295Y-31453D01*
X70262Y-31373D01*
X70201Y-31312D01*
X70122Y-31279D01*
X70035Y-31279D01*
X69956Y-31312D01*
X69895Y-31373D01*
X69862Y-31452D01*
X69862Y-31538D01*
X69895Y-31618D01*
X69955Y-31679D01*
X70035Y-31712D01*
X70121Y-31712D01*
X70201Y-31679D01*
X70262Y-31618D01*
X70295Y-31539D01*
X70295Y-31453D01*
X70295Y-36594D01*
X70039Y-36594D01*
X70039Y-32232D01*
X70000Y-32138D01*
X69928Y-32066D01*
X69834Y-32027D01*
X69732Y-32027D01*
X69638Y-32066D01*
X69566Y-32138D01*
X69527Y-32232D01*
X69527Y-32334D01*
X69566Y-32428D01*
X69638Y-32500D01*
X69732Y-32539D01*
X69834Y-32539D01*
X69928Y-32500D01*
X70000Y-32428D01*
X70039Y-32334D01*
X70039Y-32232D01*
X70039Y-36594D01*
X69350Y-36594D01*
X69350Y-31740D01*
X69311Y-31646D01*
X69239Y-31574D01*
X69145Y-31535D01*
X69043Y-31535D01*
X68949Y-31574D01*
X68877Y-31646D01*
X68838Y-31740D01*
X68838Y-31842D01*
X68877Y-31936D01*
X68949Y-32008D01*
X69043Y-32047D01*
X69145Y-32047D01*
X69239Y-32008D01*
X69311Y-31936D01*
X69350Y-31842D01*
X69350Y-31740D01*
X69350Y-36594D01*
X68741Y-36594D01*
X68741Y-30434D01*
X68741Y-29434D01*
X68733Y-29262D01*
X68684Y-29143D01*
X68626Y-29104D01*
X68570Y-29160D01*
X68570Y-29048D01*
X68531Y-28991D01*
X68369Y-28933D01*
X68197Y-28941D01*
X68078Y-28991D01*
X68039Y-29048D01*
X68305Y-29314D01*
X68570Y-29048D01*
X68570Y-29160D01*
X68360Y-29370D01*
X68626Y-29635D01*
X68684Y-29596D01*
X68741Y-29434D01*
X68741Y-30434D01*
X68733Y-30262D01*
X68684Y-30143D01*
X68626Y-30104D01*
X68570Y-30160D01*
X68570Y-30048D01*
X68570Y-29691D01*
X68305Y-29425D01*
X68249Y-29481D01*
X68249Y-29370D01*
X67983Y-29104D01*
X67926Y-29143D01*
X67868Y-29305D01*
X67876Y-29477D01*
X67926Y-29596D01*
X67983Y-29635D01*
X68249Y-29370D01*
X68249Y-29481D01*
X68039Y-29691D01*
X68078Y-29749D01*
X68240Y-29806D01*
X68412Y-29798D01*
X68531Y-29749D01*
X68570Y-29691D01*
X68570Y-30048D01*
X68531Y-29991D01*
X68369Y-29933D01*
X68197Y-29941D01*
X68078Y-29991D01*
X68039Y-30048D01*
X68305Y-30314D01*
X68570Y-30048D01*
X68570Y-30160D01*
X68360Y-30370D01*
X68626Y-30635D01*
X68684Y-30596D01*
X68741Y-30434D01*
X68741Y-36594D01*
X68661Y-36594D01*
X68661Y-32232D01*
X68622Y-32138D01*
X68570Y-32086D01*
X68570Y-30691D01*
X68305Y-30425D01*
X68249Y-30481D01*
X68249Y-30370D01*
X67983Y-30104D01*
X67926Y-30143D01*
X67868Y-30305D01*
X67876Y-30477D01*
X67926Y-30596D01*
X67983Y-30635D01*
X68249Y-30370D01*
X68249Y-30481D01*
X68039Y-30691D01*
X68078Y-30749D01*
X68240Y-30806D01*
X68412Y-30798D01*
X68531Y-30749D01*
X68570Y-30691D01*
X68570Y-32086D01*
X68550Y-32066D01*
X68456Y-32027D01*
X68354Y-32027D01*
X68260Y-32066D01*
X68188Y-32138D01*
X68149Y-32232D01*
X68149Y-32334D01*
X68188Y-32428D01*
X68260Y-32500D01*
X68354Y-32539D01*
X68456Y-32539D01*
X68550Y-32500D01*
X68622Y-32428D01*
X68661Y-32334D01*
X68661Y-32232D01*
X68661Y-36594D01*
X68563Y-36594D01*
X68563Y-34890D01*
X68524Y-34796D01*
X68452Y-34724D01*
X68358Y-34685D01*
X68256Y-34684D01*
X68162Y-34723D01*
X68090Y-34795D01*
X68051Y-34889D01*
X68051Y-34991D01*
X68090Y-35085D01*
X68161Y-35157D01*
X68255Y-35196D01*
X68357Y-35196D01*
X68451Y-35158D01*
X68523Y-35086D01*
X68562Y-34992D01*
X68563Y-34890D01*
X68563Y-36594D01*
X67972Y-36594D01*
X67972Y-35382D01*
X67933Y-35288D01*
X67861Y-35216D01*
X67767Y-35177D01*
X67738Y-35177D01*
X67738Y-30284D01*
X67738Y-29284D01*
X67672Y-29125D01*
X67550Y-29003D01*
X67391Y-28937D01*
X67219Y-28936D01*
X67060Y-29002D01*
X66938Y-29124D01*
X66872Y-29283D01*
X66871Y-29455D01*
X66937Y-29615D01*
X67059Y-29737D01*
X67218Y-29803D01*
X67390Y-29803D01*
X67550Y-29737D01*
X67672Y-29615D01*
X67738Y-29456D01*
X67738Y-29284D01*
X67738Y-30284D01*
X67672Y-30125D01*
X67550Y-30003D01*
X67391Y-29937D01*
X67219Y-29936D01*
X67060Y-30002D01*
X66938Y-30124D01*
X66872Y-30283D01*
X66871Y-30455D01*
X66937Y-30615D01*
X67059Y-30737D01*
X67218Y-30803D01*
X67390Y-30803D01*
X67550Y-30737D01*
X67672Y-30615D01*
X67738Y-30456D01*
X67738Y-30284D01*
X67738Y-35177D01*
X67665Y-35177D01*
X67571Y-35215D01*
X67499Y-35287D01*
X67460Y-35381D01*
X67460Y-35483D01*
X67499Y-35577D01*
X67571Y-35649D01*
X67665Y-35688D01*
X67767Y-35689D01*
X67861Y-35650D01*
X67933Y-35578D01*
X67972Y-35484D01*
X67972Y-35382D01*
X67972Y-36594D01*
X67893Y-36594D01*
X67893Y-43287D01*
X67500Y-43287D01*
X67500Y-47618D01*
X67381Y-47618D01*
X67381Y-34890D01*
X67343Y-34796D01*
X67271Y-34724D01*
X67177Y-34685D01*
X67075Y-34684D01*
X66981Y-34723D01*
X66909Y-34795D01*
X66870Y-34889D01*
X66870Y-34991D01*
X66908Y-35085D01*
X66980Y-35157D01*
X67074Y-35196D01*
X67176Y-35196D01*
X67270Y-35158D01*
X67342Y-35086D01*
X67381Y-34992D01*
X67381Y-34890D01*
X67381Y-47618D01*
X67283Y-47618D01*
X67283Y-37843D01*
X67244Y-37748D01*
X67172Y-37676D01*
X67102Y-37647D01*
X67172Y-37618D01*
X67244Y-37546D01*
X67283Y-37452D01*
X67283Y-37350D01*
X67244Y-37256D01*
X67172Y-37184D01*
X67078Y-37145D01*
X66976Y-37145D01*
X66882Y-37184D01*
X66810Y-37256D01*
X66771Y-37350D01*
X66771Y-37452D01*
X66810Y-37546D01*
X66882Y-37618D01*
X66952Y-37647D01*
X66882Y-37676D01*
X66810Y-37748D01*
X66771Y-37842D01*
X66771Y-37944D01*
X66810Y-38038D01*
X66882Y-38110D01*
X66976Y-38149D01*
X67078Y-38149D01*
X67172Y-38110D01*
X67244Y-38038D01*
X67283Y-37944D01*
X67283Y-37843D01*
X67283Y-47618D01*
X67047Y-47618D01*
X67047Y-38638D01*
X67014Y-38558D01*
X66953Y-38497D01*
X66873Y-38464D01*
X66787Y-38464D01*
X66738Y-38485D01*
X66738Y-30284D01*
X66738Y-29284D01*
X66672Y-29125D01*
X66550Y-29003D01*
X66391Y-28937D01*
X66219Y-28936D01*
X66060Y-29002D01*
X65938Y-29124D01*
X65872Y-29283D01*
X65871Y-29455D01*
X65937Y-29615D01*
X66059Y-29737D01*
X66218Y-29803D01*
X66390Y-29803D01*
X66550Y-29737D01*
X66672Y-29615D01*
X66738Y-29456D01*
X66738Y-29284D01*
X66738Y-30284D01*
X66672Y-30125D01*
X66550Y-30003D01*
X66391Y-29937D01*
X66219Y-29936D01*
X66060Y-30002D01*
X65938Y-30124D01*
X65872Y-30283D01*
X65871Y-30455D01*
X65937Y-30615D01*
X66059Y-30737D01*
X66218Y-30803D01*
X66390Y-30803D01*
X66550Y-30737D01*
X66672Y-30615D01*
X66738Y-30456D01*
X66738Y-30284D01*
X66738Y-38485D01*
X66708Y-38497D01*
X66647Y-38558D01*
X66614Y-38637D01*
X66614Y-38723D01*
X66647Y-38803D01*
X66707Y-38864D01*
X66787Y-38897D01*
X66873Y-38897D01*
X66953Y-38864D01*
X67014Y-38803D01*
X67047Y-38724D01*
X67047Y-38638D01*
X67047Y-47618D01*
X65925Y-47618D01*
X65925Y-48155D01*
X65872Y-48283D01*
X65871Y-48455D01*
X65925Y-48584D01*
X65925Y-49155D01*
X65872Y-49283D01*
X65871Y-49455D01*
X65925Y-49584D01*
X65925Y-49980D01*
X65738Y-49980D01*
X65738Y-49284D01*
X65738Y-48284D01*
X65738Y-30284D01*
X65738Y-29284D01*
X65672Y-29125D01*
X65550Y-29003D01*
X65391Y-28937D01*
X65219Y-28936D01*
X65060Y-29002D01*
X64938Y-29124D01*
X64872Y-29283D01*
X64871Y-29455D01*
X64937Y-29615D01*
X65059Y-29737D01*
X65218Y-29803D01*
X65390Y-29803D01*
X65550Y-29737D01*
X65672Y-29615D01*
X65738Y-29456D01*
X65738Y-29284D01*
X65738Y-30284D01*
X65672Y-30125D01*
X65550Y-30003D01*
X65391Y-29937D01*
X65219Y-29936D01*
X65060Y-30002D01*
X64938Y-30124D01*
X64872Y-30283D01*
X64871Y-30455D01*
X64937Y-30615D01*
X65059Y-30737D01*
X65218Y-30803D01*
X65390Y-30803D01*
X65550Y-30737D01*
X65672Y-30615D01*
X65738Y-30456D01*
X65738Y-30284D01*
X65738Y-48284D01*
X65708Y-48212D01*
X65708Y-45224D01*
X65669Y-45130D01*
X65617Y-45078D01*
X65669Y-45027D01*
X65708Y-44933D01*
X65708Y-44831D01*
X65669Y-44737D01*
X65617Y-44685D01*
X65669Y-44633D01*
X65708Y-44539D01*
X65708Y-44437D01*
X65669Y-44343D01*
X65617Y-44291D01*
X65669Y-44239D01*
X65708Y-44145D01*
X65708Y-44043D01*
X65669Y-43949D01*
X65597Y-43877D01*
X65511Y-43841D01*
X65511Y-39122D01*
X65472Y-39028D01*
X65401Y-38956D01*
X65330Y-38927D01*
X65400Y-38898D01*
X65472Y-38826D01*
X65511Y-38732D01*
X65511Y-38630D01*
X65511Y-37843D01*
X65472Y-37748D01*
X65401Y-37676D01*
X65330Y-37647D01*
X65400Y-37618D01*
X65472Y-37546D01*
X65511Y-37452D01*
X65511Y-37350D01*
X65472Y-37256D01*
X65401Y-37184D01*
X65307Y-37145D01*
X65205Y-37145D01*
X65177Y-37157D01*
X65177Y-35882D01*
X65177Y-35291D01*
X65144Y-35212D01*
X65083Y-35151D01*
X65003Y-35118D01*
X64917Y-35118D01*
X64838Y-35150D01*
X64777Y-35211D01*
X64744Y-35291D01*
X64744Y-35377D01*
X64776Y-35457D01*
X64837Y-35518D01*
X64917Y-35551D01*
X65003Y-35551D01*
X65083Y-35518D01*
X65144Y-35457D01*
X65177Y-35377D01*
X65177Y-35291D01*
X65177Y-35882D01*
X65144Y-35802D01*
X65083Y-35741D01*
X65003Y-35708D01*
X64917Y-35708D01*
X64838Y-35741D01*
X64777Y-35802D01*
X64744Y-35881D01*
X64744Y-35968D01*
X64776Y-36047D01*
X64837Y-36108D01*
X64917Y-36141D01*
X65003Y-36141D01*
X65083Y-36108D01*
X65144Y-36048D01*
X65177Y-35968D01*
X65177Y-35882D01*
X65177Y-37157D01*
X65111Y-37184D01*
X65039Y-37256D01*
X65000Y-37350D01*
X64999Y-37452D01*
X65038Y-37546D01*
X65110Y-37618D01*
X65181Y-37647D01*
X65111Y-37676D01*
X65039Y-37748D01*
X65000Y-37842D01*
X64999Y-37944D01*
X65038Y-38038D01*
X65110Y-38110D01*
X65204Y-38149D01*
X65306Y-38149D01*
X65400Y-38110D01*
X65472Y-38038D01*
X65511Y-37944D01*
X65511Y-37843D01*
X65511Y-38630D01*
X65472Y-38536D01*
X65401Y-38464D01*
X65307Y-38425D01*
X65205Y-38425D01*
X65111Y-38464D01*
X65039Y-38535D01*
X65000Y-38629D01*
X64999Y-38731D01*
X65038Y-38825D01*
X65110Y-38897D01*
X65181Y-38927D01*
X65111Y-38956D01*
X65039Y-39028D01*
X65000Y-39122D01*
X64999Y-39223D01*
X65038Y-39317D01*
X65110Y-39390D01*
X65204Y-39429D01*
X65306Y-39429D01*
X65400Y-39390D01*
X65472Y-39318D01*
X65511Y-39224D01*
X65511Y-39122D01*
X65511Y-43841D01*
X65503Y-43838D01*
X65402Y-43838D01*
X65307Y-43877D01*
X65255Y-43929D01*
X65204Y-43877D01*
X65110Y-43838D01*
X65008Y-43838D01*
X64914Y-43877D01*
X64842Y-43949D01*
X64803Y-44043D01*
X64803Y-44145D01*
X64841Y-44239D01*
X64894Y-44291D01*
X64842Y-44343D01*
X64803Y-44437D01*
X64803Y-44538D01*
X64841Y-44632D01*
X64894Y-44685D01*
X64842Y-44736D01*
X64803Y-44830D01*
X64803Y-44932D01*
X64841Y-45026D01*
X64894Y-45078D01*
X64842Y-45130D01*
X64803Y-45224D01*
X64803Y-45326D01*
X64841Y-45420D01*
X64913Y-45492D01*
X65007Y-45531D01*
X65109Y-45531D01*
X65203Y-45492D01*
X65255Y-45440D01*
X65307Y-45492D01*
X65401Y-45531D01*
X65503Y-45531D01*
X65597Y-45492D01*
X65669Y-45420D01*
X65708Y-45326D01*
X65708Y-45224D01*
X65708Y-48212D01*
X65672Y-48125D01*
X65550Y-48003D01*
X65391Y-47937D01*
X65219Y-47936D01*
X65060Y-48002D01*
X64938Y-48124D01*
X64872Y-48283D01*
X64871Y-48455D01*
X64937Y-48615D01*
X65059Y-48737D01*
X65218Y-48803D01*
X65390Y-48803D01*
X65550Y-48737D01*
X65672Y-48615D01*
X65738Y-48456D01*
X65738Y-48284D01*
X65738Y-49284D01*
X65672Y-49125D01*
X65550Y-49003D01*
X65391Y-48937D01*
X65219Y-48936D01*
X65060Y-49002D01*
X64938Y-49124D01*
X64872Y-49283D01*
X64871Y-49455D01*
X64937Y-49615D01*
X65059Y-49737D01*
X65218Y-49803D01*
X65390Y-49803D01*
X65550Y-49737D01*
X65672Y-49615D01*
X65738Y-49456D01*
X65738Y-49284D01*
X65738Y-49980D01*
X64738Y-49980D01*
X64738Y-49284D01*
X64738Y-48284D01*
X64738Y-30284D01*
X64738Y-29284D01*
X64672Y-29125D01*
X64550Y-29003D01*
X64391Y-28937D01*
X64219Y-28936D01*
X64060Y-29002D01*
X63938Y-29124D01*
X63872Y-29283D01*
X63871Y-29455D01*
X63937Y-29615D01*
X64059Y-29737D01*
X64218Y-29803D01*
X64390Y-29803D01*
X64550Y-29737D01*
X64672Y-29615D01*
X64738Y-29456D01*
X64738Y-29284D01*
X64738Y-30284D01*
X64672Y-30125D01*
X64550Y-30003D01*
X64391Y-29937D01*
X64219Y-29936D01*
X64060Y-30002D01*
X63938Y-30124D01*
X63872Y-30283D01*
X63871Y-30455D01*
X63937Y-30615D01*
X64059Y-30737D01*
X64218Y-30803D01*
X64390Y-30803D01*
X64550Y-30737D01*
X64672Y-30615D01*
X64738Y-30456D01*
X64738Y-30284D01*
X64738Y-48284D01*
X64672Y-48125D01*
X64550Y-48003D01*
X64391Y-47937D01*
X64389Y-47937D01*
X64389Y-40508D01*
X64389Y-38146D01*
X64389Y-36177D01*
X64389Y-33716D01*
X64356Y-33637D01*
X64296Y-33576D01*
X64216Y-33543D01*
X64130Y-33543D01*
X64050Y-33576D01*
X63989Y-33637D01*
X63956Y-33716D01*
X63956Y-33802D01*
X63989Y-33882D01*
X64050Y-33943D01*
X64129Y-33976D01*
X64216Y-33976D01*
X64295Y-33943D01*
X64356Y-33882D01*
X64389Y-33803D01*
X64389Y-33716D01*
X64389Y-36177D01*
X64356Y-36097D01*
X64296Y-36037D01*
X64216Y-36003D01*
X64130Y-36003D01*
X64050Y-36036D01*
X63996Y-36091D01*
X63996Y-35390D01*
X63963Y-35310D01*
X63902Y-35249D01*
X63822Y-35216D01*
X63738Y-35216D01*
X63738Y-30284D01*
X63738Y-29284D01*
X63672Y-29125D01*
X63550Y-29003D01*
X63391Y-28937D01*
X63219Y-28936D01*
X63060Y-29002D01*
X62938Y-29124D01*
X62872Y-29283D01*
X62871Y-29455D01*
X62937Y-29615D01*
X63059Y-29737D01*
X63218Y-29803D01*
X63390Y-29803D01*
X63550Y-29737D01*
X63672Y-29615D01*
X63738Y-29456D01*
X63738Y-29284D01*
X63738Y-30284D01*
X63672Y-30125D01*
X63550Y-30003D01*
X63391Y-29937D01*
X63219Y-29936D01*
X63060Y-30002D01*
X62938Y-30124D01*
X62872Y-30283D01*
X62871Y-30455D01*
X62937Y-30615D01*
X63059Y-30737D01*
X63218Y-30803D01*
X63390Y-30803D01*
X63550Y-30737D01*
X63672Y-30615D01*
X63738Y-30456D01*
X63738Y-30284D01*
X63738Y-35216D01*
X63736Y-35216D01*
X63657Y-35249D01*
X63596Y-35310D01*
X63563Y-35389D01*
X63562Y-35475D01*
X63595Y-35555D01*
X63656Y-35616D01*
X63736Y-35649D01*
X63822Y-35649D01*
X63902Y-35616D01*
X63962Y-35555D01*
X63996Y-35476D01*
X63996Y-35390D01*
X63996Y-36091D01*
X63989Y-36097D01*
X63956Y-36177D01*
X63956Y-36263D01*
X63989Y-36342D01*
X64050Y-36403D01*
X64129Y-36436D01*
X64216Y-36437D01*
X64295Y-36404D01*
X64356Y-36343D01*
X64389Y-36263D01*
X64389Y-36177D01*
X64389Y-38146D01*
X64356Y-38066D01*
X64296Y-38005D01*
X64216Y-37972D01*
X64130Y-37972D01*
X64050Y-38005D01*
X63989Y-38066D01*
X63956Y-38145D01*
X63956Y-38231D01*
X63989Y-38311D01*
X64050Y-38372D01*
X64129Y-38405D01*
X64216Y-38405D01*
X64295Y-38372D01*
X64356Y-38311D01*
X64389Y-38232D01*
X64389Y-38146D01*
X64389Y-40508D01*
X64356Y-40428D01*
X64296Y-40367D01*
X64216Y-40334D01*
X64130Y-40334D01*
X64050Y-40367D01*
X63996Y-40422D01*
X63996Y-39327D01*
X63963Y-39247D01*
X63902Y-39186D01*
X63822Y-39153D01*
X63736Y-39153D01*
X63657Y-39186D01*
X63602Y-39240D01*
X63602Y-38933D01*
X63602Y-38146D01*
X63569Y-38066D01*
X63508Y-38005D01*
X63429Y-37972D01*
X63342Y-37972D01*
X63263Y-38005D01*
X63208Y-38059D01*
X63208Y-36571D01*
X63175Y-36491D01*
X63114Y-36430D01*
X63035Y-36397D01*
X62949Y-36397D01*
X62869Y-36430D01*
X62808Y-36491D01*
X62795Y-36523D01*
X62782Y-36491D01*
X62721Y-36430D01*
X62689Y-36417D01*
X62720Y-36404D01*
X62781Y-36343D01*
X62814Y-36263D01*
X62814Y-36177D01*
X62814Y-35390D01*
X62782Y-35310D01*
X62738Y-35266D01*
X62738Y-30284D01*
X62738Y-29284D01*
X62672Y-29125D01*
X62550Y-29003D01*
X62391Y-28937D01*
X62219Y-28936D01*
X62060Y-29002D01*
X61938Y-29124D01*
X61872Y-29283D01*
X61871Y-29455D01*
X61937Y-29615D01*
X62059Y-29737D01*
X62218Y-29803D01*
X62390Y-29803D01*
X62550Y-29737D01*
X62672Y-29615D01*
X62738Y-29456D01*
X62738Y-29284D01*
X62738Y-30284D01*
X62672Y-30125D01*
X62550Y-30003D01*
X62391Y-29937D01*
X62219Y-29936D01*
X62060Y-30002D01*
X61938Y-30124D01*
X61872Y-30283D01*
X61871Y-30455D01*
X61937Y-30615D01*
X62059Y-30737D01*
X62218Y-30803D01*
X62390Y-30803D01*
X62550Y-30737D01*
X62672Y-30615D01*
X62738Y-30456D01*
X62738Y-30284D01*
X62738Y-35266D01*
X62721Y-35249D01*
X62641Y-35216D01*
X62555Y-35216D01*
X62475Y-35249D01*
X62414Y-35310D01*
X62401Y-35342D01*
X62388Y-35310D01*
X62327Y-35249D01*
X62295Y-35236D01*
X62327Y-35223D01*
X62388Y-35162D01*
X62421Y-35082D01*
X62421Y-34996D01*
X62421Y-34209D01*
X62388Y-34129D01*
X62327Y-34068D01*
X62247Y-34035D01*
X62161Y-34035D01*
X62082Y-34068D01*
X62021Y-34129D01*
X61988Y-34208D01*
X61988Y-34294D01*
X62021Y-34374D01*
X62081Y-34435D01*
X62161Y-34468D01*
X62247Y-34468D01*
X62327Y-34435D01*
X62388Y-34374D01*
X62421Y-34295D01*
X62421Y-34209D01*
X62421Y-34996D01*
X62388Y-34916D01*
X62327Y-34855D01*
X62247Y-34822D01*
X62161Y-34822D01*
X62082Y-34855D01*
X62021Y-34916D01*
X61988Y-34996D01*
X61988Y-35082D01*
X62021Y-35161D01*
X62081Y-35222D01*
X62114Y-35236D01*
X62082Y-35249D01*
X62021Y-35310D01*
X61988Y-35389D01*
X61988Y-35475D01*
X62021Y-35555D01*
X62081Y-35616D01*
X62161Y-35649D01*
X62247Y-35649D01*
X62327Y-35616D01*
X62388Y-35555D01*
X62401Y-35523D01*
X62414Y-35555D01*
X62475Y-35616D01*
X62555Y-35649D01*
X62641Y-35649D01*
X62720Y-35616D01*
X62781Y-35555D01*
X62814Y-35476D01*
X62814Y-35390D01*
X62814Y-36177D01*
X62782Y-36097D01*
X62721Y-36037D01*
X62641Y-36003D01*
X62555Y-36003D01*
X62475Y-36036D01*
X62414Y-36097D01*
X62381Y-36177D01*
X62381Y-36263D01*
X62414Y-36342D01*
X62475Y-36403D01*
X62507Y-36417D01*
X62475Y-36430D01*
X62414Y-36491D01*
X62401Y-36523D01*
X62388Y-36491D01*
X62327Y-36430D01*
X62247Y-36397D01*
X62161Y-36397D01*
X62082Y-36430D01*
X62021Y-36491D01*
X62007Y-36523D01*
X61994Y-36491D01*
X61933Y-36430D01*
X61854Y-36397D01*
X61768Y-36397D01*
X61738Y-36409D01*
X61738Y-30284D01*
X61738Y-29284D01*
X61672Y-29125D01*
X61550Y-29003D01*
X61391Y-28937D01*
X61219Y-28936D01*
X61060Y-29002D01*
X60938Y-29124D01*
X60872Y-29283D01*
X60871Y-29455D01*
X60937Y-29615D01*
X61059Y-29737D01*
X61218Y-29803D01*
X61390Y-29803D01*
X61550Y-29737D01*
X61672Y-29615D01*
X61738Y-29456D01*
X61738Y-29284D01*
X61738Y-30284D01*
X61672Y-30125D01*
X61550Y-30003D01*
X61391Y-29937D01*
X61219Y-29936D01*
X61060Y-30002D01*
X60938Y-30124D01*
X60872Y-30283D01*
X60871Y-30455D01*
X60937Y-30615D01*
X61059Y-30737D01*
X61218Y-30803D01*
X61390Y-30803D01*
X61550Y-30737D01*
X61672Y-30615D01*
X61738Y-30456D01*
X61738Y-30284D01*
X61738Y-36409D01*
X61688Y-36430D01*
X61633Y-36485D01*
X61633Y-35783D01*
X61633Y-34996D01*
X61600Y-34916D01*
X61540Y-34855D01*
X61460Y-34822D01*
X61374Y-34822D01*
X61294Y-34855D01*
X61233Y-34916D01*
X61200Y-34996D01*
X61200Y-35082D01*
X61233Y-35161D01*
X61294Y-35222D01*
X61374Y-35255D01*
X61460Y-35255D01*
X61539Y-35223D01*
X61600Y-35162D01*
X61633Y-35082D01*
X61633Y-34996D01*
X61633Y-35783D01*
X61600Y-35704D01*
X61540Y-35643D01*
X61460Y-35610D01*
X61374Y-35610D01*
X61294Y-35643D01*
X61233Y-35703D01*
X61200Y-35783D01*
X61200Y-35869D01*
X61233Y-35949D01*
X61294Y-36010D01*
X61374Y-36043D01*
X61460Y-36043D01*
X61539Y-36010D01*
X61600Y-35949D01*
X61633Y-35870D01*
X61633Y-35783D01*
X61633Y-36485D01*
X61627Y-36491D01*
X61614Y-36523D01*
X61600Y-36491D01*
X61540Y-36430D01*
X61460Y-36397D01*
X61374Y-36397D01*
X61294Y-36430D01*
X61233Y-36491D01*
X61200Y-36570D01*
X61200Y-36657D01*
X61233Y-36736D01*
X61294Y-36797D01*
X61374Y-36830D01*
X61460Y-36830D01*
X61539Y-36797D01*
X61600Y-36736D01*
X61614Y-36704D01*
X61627Y-36736D01*
X61688Y-36797D01*
X61720Y-36811D01*
X61688Y-36824D01*
X61627Y-36885D01*
X61594Y-36964D01*
X61594Y-37050D01*
X61627Y-37130D01*
X61688Y-37191D01*
X61767Y-37224D01*
X61853Y-37224D01*
X61933Y-37191D01*
X61994Y-37130D01*
X62027Y-37051D01*
X62027Y-36964D01*
X61994Y-36885D01*
X61933Y-36824D01*
X61901Y-36811D01*
X61933Y-36797D01*
X61994Y-36736D01*
X62007Y-36704D01*
X62021Y-36736D01*
X62081Y-36797D01*
X62161Y-36830D01*
X62247Y-36830D01*
X62327Y-36797D01*
X62388Y-36736D01*
X62401Y-36704D01*
X62414Y-36736D01*
X62475Y-36797D01*
X62507Y-36811D01*
X62475Y-36824D01*
X62414Y-36885D01*
X62381Y-36964D01*
X62381Y-37050D01*
X62414Y-37130D01*
X62475Y-37191D01*
X62555Y-37224D01*
X62641Y-37224D01*
X62720Y-37191D01*
X62781Y-37130D01*
X62814Y-37051D01*
X62814Y-36964D01*
X62782Y-36885D01*
X62721Y-36824D01*
X62689Y-36811D01*
X62720Y-36797D01*
X62781Y-36736D01*
X62795Y-36704D01*
X62808Y-36736D01*
X62869Y-36797D01*
X62948Y-36830D01*
X63035Y-36830D01*
X63114Y-36797D01*
X63175Y-36736D01*
X63208Y-36657D01*
X63208Y-36571D01*
X63208Y-38059D01*
X63202Y-38066D01*
X63169Y-38145D01*
X63169Y-38231D01*
X63202Y-38311D01*
X63263Y-38372D01*
X63342Y-38405D01*
X63428Y-38405D01*
X63508Y-38372D01*
X63569Y-38311D01*
X63602Y-38232D01*
X63602Y-38146D01*
X63602Y-38933D01*
X63569Y-38853D01*
X63508Y-38792D01*
X63429Y-38759D01*
X63342Y-38759D01*
X63263Y-38792D01*
X63202Y-38853D01*
X63169Y-38933D01*
X63169Y-39019D01*
X63202Y-39098D01*
X63263Y-39159D01*
X63342Y-39192D01*
X63428Y-39192D01*
X63508Y-39160D01*
X63569Y-39099D01*
X63602Y-39019D01*
X63602Y-38933D01*
X63602Y-39240D01*
X63596Y-39247D01*
X63563Y-39326D01*
X63562Y-39412D01*
X63595Y-39492D01*
X63656Y-39553D01*
X63736Y-39586D01*
X63822Y-39586D01*
X63902Y-39553D01*
X63962Y-39492D01*
X63996Y-39413D01*
X63996Y-39327D01*
X63996Y-40422D01*
X63989Y-40428D01*
X63956Y-40507D01*
X63956Y-40594D01*
X63989Y-40673D01*
X64050Y-40734D01*
X64129Y-40767D01*
X64216Y-40767D01*
X64295Y-40734D01*
X64356Y-40673D01*
X64389Y-40594D01*
X64389Y-40508D01*
X64389Y-47937D01*
X64291Y-47936D01*
X64291Y-41000D01*
X64258Y-40920D01*
X64197Y-40859D01*
X64118Y-40826D01*
X64031Y-40826D01*
X63952Y-40859D01*
X63891Y-40920D01*
X63858Y-41000D01*
X63858Y-41086D01*
X63891Y-41165D01*
X63951Y-41226D01*
X64031Y-41259D01*
X64117Y-41259D01*
X64197Y-41226D01*
X64258Y-41166D01*
X64291Y-41086D01*
X64291Y-41000D01*
X64291Y-47936D01*
X64219Y-47936D01*
X64060Y-48002D01*
X63938Y-48124D01*
X63872Y-48283D01*
X63871Y-48455D01*
X63937Y-48615D01*
X64059Y-48737D01*
X64218Y-48803D01*
X64390Y-48803D01*
X64550Y-48737D01*
X64672Y-48615D01*
X64738Y-48456D01*
X64738Y-48284D01*
X64738Y-49284D01*
X64672Y-49125D01*
X64550Y-49003D01*
X64391Y-48937D01*
X64219Y-48936D01*
X64060Y-49002D01*
X63938Y-49124D01*
X63872Y-49283D01*
X63871Y-49455D01*
X63937Y-49615D01*
X64059Y-49737D01*
X64218Y-49803D01*
X64390Y-49803D01*
X64550Y-49737D01*
X64672Y-49615D01*
X64738Y-49456D01*
X64738Y-49284D01*
X64738Y-49980D01*
X63738Y-49980D01*
X63738Y-49284D01*
X63738Y-48284D01*
X63672Y-48125D01*
X63550Y-48003D01*
X63391Y-47937D01*
X63219Y-47936D01*
X63060Y-48002D01*
X62938Y-48124D01*
X62872Y-48283D01*
X62871Y-48455D01*
X62937Y-48615D01*
X63059Y-48737D01*
X63218Y-48803D01*
X63390Y-48803D01*
X63550Y-48737D01*
X63672Y-48615D01*
X63738Y-48456D01*
X63738Y-48284D01*
X63738Y-49284D01*
X63672Y-49125D01*
X63550Y-49003D01*
X63391Y-48937D01*
X63219Y-48936D01*
X63060Y-49002D01*
X62938Y-49124D01*
X62872Y-49283D01*
X62871Y-49455D01*
X62937Y-49615D01*
X63059Y-49737D01*
X63218Y-49803D01*
X63390Y-49803D01*
X63550Y-49737D01*
X63672Y-49615D01*
X63738Y-49456D01*
X63738Y-49284D01*
X63738Y-49980D01*
X62814Y-49980D01*
X62814Y-39720D01*
X62782Y-39641D01*
X62721Y-39580D01*
X62641Y-39547D01*
X62555Y-39547D01*
X62475Y-39580D01*
X62421Y-39634D01*
X62421Y-38539D01*
X62421Y-37752D01*
X62388Y-37672D01*
X62327Y-37611D01*
X62247Y-37578D01*
X62161Y-37578D01*
X62082Y-37611D01*
X62021Y-37672D01*
X61988Y-37752D01*
X61988Y-37838D01*
X62021Y-37917D01*
X62081Y-37978D01*
X62161Y-38011D01*
X62247Y-38011D01*
X62327Y-37978D01*
X62388Y-37918D01*
X62421Y-37838D01*
X62421Y-37752D01*
X62421Y-38539D01*
X62388Y-38460D01*
X62327Y-38399D01*
X62247Y-38366D01*
X62161Y-38366D01*
X62082Y-38399D01*
X62021Y-38459D01*
X61988Y-38539D01*
X61988Y-38625D01*
X62021Y-38705D01*
X62081Y-38766D01*
X62161Y-38799D01*
X62247Y-38799D01*
X62327Y-38766D01*
X62388Y-38705D01*
X62421Y-38625D01*
X62421Y-38539D01*
X62421Y-39634D01*
X62414Y-39640D01*
X62381Y-39720D01*
X62381Y-39806D01*
X62414Y-39886D01*
X62475Y-39947D01*
X62555Y-39980D01*
X62641Y-39980D01*
X62720Y-39947D01*
X62781Y-39886D01*
X62814Y-39807D01*
X62814Y-39720D01*
X62814Y-49980D01*
X62738Y-49980D01*
X62738Y-49284D01*
X62738Y-48284D01*
X62672Y-48125D01*
X62550Y-48003D01*
X62391Y-47937D01*
X62219Y-47936D01*
X62060Y-48002D01*
X61938Y-48124D01*
X61872Y-48283D01*
X61871Y-48455D01*
X61937Y-48615D01*
X62059Y-48737D01*
X62218Y-48803D01*
X62390Y-48803D01*
X62550Y-48737D01*
X62672Y-48615D01*
X62738Y-48456D01*
X62738Y-48284D01*
X62738Y-49284D01*
X62672Y-49125D01*
X62550Y-49003D01*
X62391Y-48937D01*
X62219Y-48936D01*
X62060Y-49002D01*
X61938Y-49124D01*
X61872Y-49283D01*
X61871Y-49455D01*
X61937Y-49615D01*
X62059Y-49737D01*
X62218Y-49803D01*
X62390Y-49803D01*
X62550Y-49737D01*
X62672Y-49615D01*
X62738Y-49456D01*
X62738Y-49284D01*
X62738Y-49980D01*
X61738Y-49980D01*
X61738Y-49284D01*
X61738Y-48284D01*
X61672Y-48125D01*
X61633Y-48086D01*
X61633Y-39720D01*
X61633Y-38146D01*
X61600Y-38066D01*
X61540Y-38005D01*
X61460Y-37972D01*
X61374Y-37972D01*
X61294Y-38005D01*
X61233Y-38066D01*
X61200Y-38145D01*
X61200Y-38231D01*
X61233Y-38311D01*
X61294Y-38372D01*
X61374Y-38405D01*
X61460Y-38405D01*
X61539Y-38372D01*
X61600Y-38311D01*
X61633Y-38232D01*
X61633Y-38146D01*
X61633Y-39720D01*
X61600Y-39641D01*
X61540Y-39580D01*
X61460Y-39547D01*
X61374Y-39547D01*
X61294Y-39580D01*
X61233Y-39640D01*
X61200Y-39720D01*
X61200Y-39806D01*
X61233Y-39886D01*
X61294Y-39947D01*
X61374Y-39980D01*
X61460Y-39980D01*
X61539Y-39947D01*
X61600Y-39886D01*
X61633Y-39807D01*
X61633Y-39720D01*
X61633Y-48086D01*
X61550Y-48003D01*
X61391Y-47937D01*
X61219Y-47936D01*
X61141Y-47968D01*
X61141Y-33716D01*
X61108Y-33637D01*
X61048Y-33576D01*
X60968Y-33543D01*
X60882Y-33543D01*
X60802Y-33576D01*
X60741Y-33637D01*
X60738Y-33645D01*
X60738Y-30284D01*
X60738Y-29284D01*
X60672Y-29125D01*
X60550Y-29003D01*
X60391Y-28937D01*
X60219Y-28936D01*
X60060Y-29002D01*
X59938Y-29124D01*
X59872Y-29283D01*
X59871Y-29455D01*
X59937Y-29615D01*
X60059Y-29737D01*
X60218Y-29803D01*
X60390Y-29803D01*
X60550Y-29737D01*
X60672Y-29615D01*
X60738Y-29456D01*
X60738Y-29284D01*
X60738Y-30284D01*
X60672Y-30125D01*
X60550Y-30003D01*
X60391Y-29937D01*
X60219Y-29936D01*
X60060Y-30002D01*
X59938Y-30124D01*
X59872Y-30283D01*
X59871Y-30455D01*
X59937Y-30615D01*
X60059Y-30737D01*
X60218Y-30803D01*
X60390Y-30803D01*
X60550Y-30737D01*
X60672Y-30615D01*
X60738Y-30456D01*
X60738Y-30284D01*
X60738Y-33645D01*
X60708Y-33716D01*
X60708Y-33802D01*
X60741Y-33882D01*
X60802Y-33943D01*
X60881Y-33976D01*
X60968Y-33976D01*
X61047Y-33943D01*
X61108Y-33882D01*
X61141Y-33803D01*
X61141Y-33716D01*
X61141Y-47968D01*
X61060Y-48002D01*
X60938Y-48124D01*
X60872Y-48283D01*
X60871Y-48455D01*
X60937Y-48615D01*
X61059Y-48737D01*
X61218Y-48803D01*
X61390Y-48803D01*
X61550Y-48737D01*
X61672Y-48615D01*
X61738Y-48456D01*
X61738Y-48284D01*
X61738Y-49284D01*
X61672Y-49125D01*
X61550Y-49003D01*
X61391Y-48937D01*
X61219Y-48936D01*
X61060Y-49002D01*
X60938Y-49124D01*
X60872Y-49283D01*
X60871Y-49455D01*
X60937Y-49615D01*
X61059Y-49737D01*
X61218Y-49803D01*
X61390Y-49803D01*
X61550Y-49737D01*
X61672Y-49615D01*
X61738Y-49456D01*
X61738Y-49284D01*
X61738Y-49980D01*
X60846Y-49980D01*
X60846Y-40508D01*
X60846Y-38146D01*
X60813Y-38066D01*
X60752Y-38005D01*
X60720Y-37992D01*
X60752Y-37978D01*
X60813Y-37918D01*
X60846Y-37838D01*
X60846Y-37752D01*
X60846Y-36964D01*
X60813Y-36885D01*
X60752Y-36824D01*
X60720Y-36811D01*
X60752Y-36797D01*
X60813Y-36736D01*
X60846Y-36657D01*
X60846Y-36571D01*
X60846Y-34602D01*
X60813Y-34523D01*
X60752Y-34462D01*
X60673Y-34429D01*
X60587Y-34429D01*
X60551Y-34443D01*
X60551Y-33716D01*
X60518Y-33637D01*
X60457Y-33576D01*
X60377Y-33543D01*
X60291Y-33543D01*
X60212Y-33576D01*
X60151Y-33637D01*
X60118Y-33716D01*
X60118Y-33802D01*
X60150Y-33882D01*
X60211Y-33943D01*
X60291Y-33976D01*
X60377Y-33976D01*
X60457Y-33943D01*
X60518Y-33882D01*
X60551Y-33803D01*
X60551Y-33716D01*
X60551Y-34443D01*
X60507Y-34461D01*
X60446Y-34522D01*
X60433Y-34555D01*
X60419Y-34523D01*
X60359Y-34462D01*
X60279Y-34429D01*
X60193Y-34429D01*
X60113Y-34461D01*
X60052Y-34522D01*
X60019Y-34602D01*
X60019Y-34688D01*
X60052Y-34768D01*
X60113Y-34829D01*
X60192Y-34862D01*
X60279Y-34862D01*
X60358Y-34829D01*
X60419Y-34768D01*
X60433Y-34736D01*
X60446Y-34768D01*
X60507Y-34829D01*
X60586Y-34862D01*
X60672Y-34862D01*
X60752Y-34829D01*
X60813Y-34768D01*
X60846Y-34688D01*
X60846Y-34602D01*
X60846Y-36571D01*
X60813Y-36491D01*
X60752Y-36430D01*
X60673Y-36397D01*
X60587Y-36397D01*
X60507Y-36430D01*
X60446Y-36491D01*
X60413Y-36570D01*
X60413Y-36657D01*
X60446Y-36736D01*
X60507Y-36797D01*
X60539Y-36811D01*
X60507Y-36824D01*
X60446Y-36885D01*
X60413Y-36964D01*
X60413Y-37050D01*
X60446Y-37130D01*
X60507Y-37191D01*
X60586Y-37224D01*
X60672Y-37224D01*
X60752Y-37191D01*
X60813Y-37130D01*
X60846Y-37051D01*
X60846Y-36964D01*
X60846Y-37752D01*
X60813Y-37672D01*
X60752Y-37611D01*
X60673Y-37578D01*
X60587Y-37578D01*
X60507Y-37611D01*
X60446Y-37672D01*
X60433Y-37704D01*
X60419Y-37672D01*
X60359Y-37611D01*
X60279Y-37578D01*
X60193Y-37578D01*
X60113Y-37611D01*
X60059Y-37666D01*
X60059Y-36964D01*
X60059Y-36177D01*
X60059Y-34996D01*
X60026Y-34916D01*
X59965Y-34855D01*
X59885Y-34822D01*
X59799Y-34822D01*
X59738Y-34848D01*
X59738Y-30284D01*
X59738Y-29284D01*
X59672Y-29125D01*
X59550Y-29003D01*
X59391Y-28937D01*
X59219Y-28936D01*
X59060Y-29002D01*
X58938Y-29124D01*
X58872Y-29283D01*
X58871Y-29455D01*
X58937Y-29615D01*
X59059Y-29737D01*
X59218Y-29803D01*
X59390Y-29803D01*
X59550Y-29737D01*
X59672Y-29615D01*
X59738Y-29456D01*
X59738Y-29284D01*
X59738Y-30284D01*
X59672Y-30125D01*
X59550Y-30003D01*
X59391Y-29937D01*
X59219Y-29936D01*
X59060Y-30002D01*
X58938Y-30124D01*
X58872Y-30283D01*
X58871Y-30455D01*
X58937Y-30615D01*
X59059Y-30737D01*
X59218Y-30803D01*
X59390Y-30803D01*
X59550Y-30737D01*
X59672Y-30615D01*
X59738Y-30456D01*
X59738Y-30284D01*
X59738Y-34848D01*
X59720Y-34855D01*
X59659Y-34916D01*
X59626Y-34996D01*
X59625Y-35082D01*
X59658Y-35161D01*
X59719Y-35222D01*
X59799Y-35255D01*
X59885Y-35255D01*
X59965Y-35223D01*
X60025Y-35162D01*
X60059Y-35082D01*
X60059Y-34996D01*
X60059Y-36177D01*
X60026Y-36097D01*
X59965Y-36037D01*
X59885Y-36003D01*
X59799Y-36003D01*
X59720Y-36036D01*
X59659Y-36097D01*
X59626Y-36177D01*
X59625Y-36263D01*
X59658Y-36342D01*
X59719Y-36403D01*
X59799Y-36436D01*
X59885Y-36437D01*
X59965Y-36404D01*
X60025Y-36343D01*
X60059Y-36263D01*
X60059Y-36177D01*
X60059Y-36964D01*
X60026Y-36885D01*
X59965Y-36824D01*
X59885Y-36791D01*
X59799Y-36791D01*
X59720Y-36824D01*
X59665Y-36878D01*
X59665Y-36571D01*
X59632Y-36491D01*
X59571Y-36430D01*
X59492Y-36397D01*
X59468Y-36397D01*
X59468Y-32043D01*
X59435Y-31964D01*
X59374Y-31903D01*
X59295Y-31870D01*
X59209Y-31870D01*
X59129Y-31902D01*
X59068Y-31963D01*
X59035Y-32043D01*
X59035Y-32129D01*
X59068Y-32209D01*
X59129Y-32270D01*
X59208Y-32303D01*
X59294Y-32303D01*
X59374Y-32270D01*
X59435Y-32209D01*
X59468Y-32129D01*
X59468Y-32043D01*
X59468Y-36397D01*
X59405Y-36397D01*
X59326Y-36430D01*
X59271Y-36485D01*
X59271Y-35390D01*
X59238Y-35310D01*
X59177Y-35249D01*
X59098Y-35216D01*
X59012Y-35216D01*
X58932Y-35249D01*
X58871Y-35310D01*
X58838Y-35389D01*
X58838Y-35475D01*
X58871Y-35555D01*
X58932Y-35616D01*
X59011Y-35649D01*
X59098Y-35649D01*
X59177Y-35616D01*
X59238Y-35555D01*
X59271Y-35476D01*
X59271Y-35390D01*
X59271Y-36485D01*
X59265Y-36491D01*
X59232Y-36570D01*
X59232Y-36657D01*
X59265Y-36736D01*
X59326Y-36797D01*
X59405Y-36830D01*
X59491Y-36830D01*
X59571Y-36797D01*
X59632Y-36736D01*
X59665Y-36657D01*
X59665Y-36571D01*
X59665Y-36878D01*
X59659Y-36885D01*
X59626Y-36964D01*
X59625Y-37050D01*
X59658Y-37130D01*
X59719Y-37191D01*
X59799Y-37224D01*
X59885Y-37224D01*
X59965Y-37191D01*
X60025Y-37130D01*
X60059Y-37051D01*
X60059Y-36964D01*
X60059Y-37666D01*
X60052Y-37672D01*
X60019Y-37752D01*
X60019Y-37838D01*
X60052Y-37917D01*
X60113Y-37978D01*
X60192Y-38011D01*
X60279Y-38011D01*
X60358Y-37978D01*
X60419Y-37918D01*
X60433Y-37885D01*
X60446Y-37917D01*
X60507Y-37978D01*
X60539Y-37992D01*
X60507Y-38005D01*
X60446Y-38066D01*
X60413Y-38145D01*
X60413Y-38231D01*
X60446Y-38311D01*
X60507Y-38372D01*
X60586Y-38405D01*
X60672Y-38405D01*
X60752Y-38372D01*
X60813Y-38311D01*
X60846Y-38232D01*
X60846Y-38146D01*
X60846Y-40508D01*
X60813Y-40428D01*
X60752Y-40367D01*
X60673Y-40334D01*
X60587Y-40334D01*
X60507Y-40367D01*
X60446Y-40428D01*
X60413Y-40507D01*
X60413Y-40594D01*
X60446Y-40673D01*
X60507Y-40734D01*
X60586Y-40767D01*
X60672Y-40767D01*
X60752Y-40734D01*
X60813Y-40673D01*
X60846Y-40594D01*
X60846Y-40508D01*
X60846Y-49980D01*
X60738Y-49980D01*
X60738Y-49284D01*
X60738Y-48284D01*
X60689Y-48165D01*
X60689Y-46209D01*
X60650Y-46115D01*
X60578Y-46043D01*
X60484Y-46003D01*
X60456Y-46003D01*
X60492Y-45917D01*
X60492Y-45815D01*
X60453Y-45721D01*
X60381Y-45649D01*
X60287Y-45610D01*
X60185Y-45610D01*
X60091Y-45649D01*
X60059Y-45681D01*
X60059Y-41000D01*
X60059Y-40508D01*
X60059Y-39327D01*
X60059Y-38146D01*
X60026Y-38066D01*
X59965Y-38005D01*
X59885Y-37972D01*
X59799Y-37972D01*
X59720Y-38005D01*
X59659Y-38066D01*
X59645Y-38098D01*
X59632Y-38066D01*
X59571Y-38005D01*
X59539Y-37992D01*
X59571Y-37978D01*
X59632Y-37918D01*
X59665Y-37838D01*
X59665Y-37752D01*
X59632Y-37672D01*
X59571Y-37611D01*
X59492Y-37578D01*
X59405Y-37578D01*
X59326Y-37611D01*
X59265Y-37672D01*
X59251Y-37704D01*
X59238Y-37672D01*
X59177Y-37611D01*
X59098Y-37578D01*
X59012Y-37578D01*
X58932Y-37611D01*
X58877Y-37666D01*
X58877Y-36964D01*
X58877Y-35783D01*
X58845Y-35704D01*
X58784Y-35643D01*
X58738Y-35624D01*
X58738Y-30284D01*
X58738Y-29284D01*
X58672Y-29125D01*
X58550Y-29003D01*
X58391Y-28937D01*
X58219Y-28936D01*
X58060Y-29002D01*
X57938Y-29124D01*
X57872Y-29283D01*
X57871Y-29455D01*
X57937Y-29615D01*
X58059Y-29737D01*
X58218Y-29803D01*
X58390Y-29803D01*
X58550Y-29737D01*
X58672Y-29615D01*
X58738Y-29456D01*
X58738Y-29284D01*
X58738Y-30284D01*
X58672Y-30125D01*
X58550Y-30003D01*
X58391Y-29937D01*
X58219Y-29936D01*
X58060Y-30002D01*
X57938Y-30124D01*
X57872Y-30283D01*
X57871Y-30455D01*
X57937Y-30615D01*
X58059Y-30737D01*
X58218Y-30803D01*
X58390Y-30803D01*
X58550Y-30737D01*
X58672Y-30615D01*
X58738Y-30456D01*
X58738Y-30284D01*
X58738Y-35624D01*
X58704Y-35610D01*
X58618Y-35610D01*
X58538Y-35643D01*
X58477Y-35703D01*
X58444Y-35783D01*
X58444Y-35869D01*
X58477Y-35949D01*
X58538Y-36010D01*
X58618Y-36043D01*
X58704Y-36043D01*
X58783Y-36010D01*
X58844Y-35949D01*
X58877Y-35870D01*
X58877Y-35783D01*
X58877Y-36964D01*
X58845Y-36885D01*
X58784Y-36824D01*
X58704Y-36791D01*
X58618Y-36791D01*
X58538Y-36824D01*
X58477Y-36885D01*
X58444Y-36964D01*
X58444Y-37050D01*
X58477Y-37130D01*
X58538Y-37191D01*
X58618Y-37224D01*
X58704Y-37224D01*
X58783Y-37191D01*
X58844Y-37130D01*
X58877Y-37051D01*
X58877Y-36964D01*
X58877Y-37666D01*
X58871Y-37672D01*
X58838Y-37752D01*
X58838Y-37838D01*
X58871Y-37917D01*
X58932Y-37978D01*
X59011Y-38011D01*
X59098Y-38011D01*
X59177Y-37978D01*
X59238Y-37918D01*
X59251Y-37885D01*
X59265Y-37917D01*
X59326Y-37978D01*
X59358Y-37992D01*
X59326Y-38005D01*
X59265Y-38066D01*
X59232Y-38145D01*
X59232Y-38231D01*
X59265Y-38311D01*
X59326Y-38372D01*
X59405Y-38405D01*
X59491Y-38405D01*
X59571Y-38372D01*
X59632Y-38311D01*
X59645Y-38279D01*
X59658Y-38311D01*
X59719Y-38372D01*
X59799Y-38405D01*
X59885Y-38405D01*
X59965Y-38372D01*
X60025Y-38311D01*
X60059Y-38232D01*
X60059Y-38146D01*
X60059Y-39327D01*
X60026Y-39247D01*
X59965Y-39186D01*
X59885Y-39153D01*
X59799Y-39153D01*
X59720Y-39186D01*
X59659Y-39247D01*
X59626Y-39326D01*
X59625Y-39412D01*
X59658Y-39492D01*
X59719Y-39553D01*
X59799Y-39586D01*
X59885Y-39586D01*
X59965Y-39553D01*
X60025Y-39492D01*
X60059Y-39413D01*
X60059Y-39327D01*
X60059Y-40508D01*
X60026Y-40428D01*
X59965Y-40367D01*
X59885Y-40334D01*
X59799Y-40334D01*
X59720Y-40367D01*
X59659Y-40428D01*
X59626Y-40507D01*
X59625Y-40594D01*
X59658Y-40673D01*
X59719Y-40734D01*
X59799Y-40767D01*
X59885Y-40767D01*
X59965Y-40734D01*
X60025Y-40673D01*
X60059Y-40594D01*
X60059Y-40508D01*
X60059Y-41000D01*
X60026Y-40920D01*
X59965Y-40859D01*
X59885Y-40826D01*
X59799Y-40826D01*
X59720Y-40859D01*
X59659Y-40920D01*
X59626Y-41000D01*
X59625Y-41086D01*
X59658Y-41165D01*
X59719Y-41226D01*
X59799Y-41259D01*
X59885Y-41259D01*
X59965Y-41226D01*
X60025Y-41166D01*
X60059Y-41086D01*
X60059Y-41000D01*
X60059Y-45681D01*
X60019Y-45720D01*
X59980Y-45815D01*
X59980Y-45916D01*
X60019Y-46010D01*
X60091Y-46082D01*
X60185Y-46122D01*
X60213Y-46122D01*
X60177Y-46208D01*
X60177Y-46310D01*
X60215Y-46404D01*
X60287Y-46476D01*
X60381Y-46515D01*
X60483Y-46515D01*
X60577Y-46476D01*
X60649Y-46404D01*
X60688Y-46310D01*
X60689Y-46209D01*
X60689Y-48165D01*
X60672Y-48125D01*
X60550Y-48003D01*
X60391Y-47937D01*
X60219Y-47936D01*
X60060Y-48002D01*
X59938Y-48124D01*
X59872Y-48283D01*
X59871Y-48455D01*
X59937Y-48615D01*
X60059Y-48737D01*
X60218Y-48803D01*
X60390Y-48803D01*
X60550Y-48737D01*
X60672Y-48615D01*
X60738Y-48456D01*
X60738Y-48284D01*
X60738Y-49284D01*
X60672Y-49125D01*
X60550Y-49003D01*
X60391Y-48937D01*
X60219Y-48936D01*
X60060Y-49002D01*
X59938Y-49124D01*
X59872Y-49283D01*
X59871Y-49455D01*
X59937Y-49615D01*
X60059Y-49737D01*
X60218Y-49803D01*
X60390Y-49803D01*
X60550Y-49737D01*
X60672Y-49615D01*
X60738Y-49456D01*
X60738Y-49284D01*
X60738Y-49980D01*
X59738Y-49980D01*
X59738Y-49284D01*
X59738Y-48284D01*
X59672Y-48125D01*
X59550Y-48003D01*
X59391Y-47937D01*
X59219Y-47936D01*
X59060Y-48002D01*
X58938Y-48124D01*
X58877Y-48269D01*
X58877Y-39720D01*
X58845Y-39641D01*
X58784Y-39580D01*
X58704Y-39547D01*
X58618Y-39547D01*
X58538Y-39580D01*
X58477Y-39640D01*
X58444Y-39720D01*
X58444Y-39806D01*
X58477Y-39886D01*
X58538Y-39947D01*
X58618Y-39980D01*
X58704Y-39980D01*
X58783Y-39947D01*
X58844Y-39886D01*
X58877Y-39807D01*
X58877Y-39720D01*
X58877Y-48269D01*
X58872Y-48283D01*
X58871Y-48455D01*
X58937Y-48615D01*
X59059Y-48737D01*
X59218Y-48803D01*
X59390Y-48803D01*
X59550Y-48737D01*
X59672Y-48615D01*
X59738Y-48456D01*
X59738Y-48284D01*
X59738Y-49284D01*
X59672Y-49125D01*
X59550Y-49003D01*
X59391Y-48937D01*
X59219Y-48936D01*
X59060Y-49002D01*
X58938Y-49124D01*
X58872Y-49283D01*
X58871Y-49455D01*
X58937Y-49615D01*
X59059Y-49737D01*
X59218Y-49803D01*
X59390Y-49803D01*
X59550Y-49737D01*
X59672Y-49615D01*
X59738Y-49456D01*
X59738Y-49284D01*
X59738Y-49980D01*
X58738Y-49980D01*
X58738Y-49284D01*
X58738Y-48284D01*
X58672Y-48125D01*
X58550Y-48003D01*
X58391Y-47937D01*
X58219Y-47936D01*
X58090Y-47990D01*
X58090Y-38539D01*
X58090Y-36571D01*
X58090Y-34209D01*
X58057Y-34129D01*
X57996Y-34068D01*
X57917Y-34035D01*
X57831Y-34035D01*
X57751Y-34068D01*
X57738Y-34081D01*
X57738Y-30284D01*
X57738Y-29284D01*
X57672Y-29125D01*
X57550Y-29003D01*
X57391Y-28937D01*
X57219Y-28936D01*
X57060Y-29002D01*
X56938Y-29124D01*
X56872Y-29283D01*
X56871Y-29455D01*
X56937Y-29615D01*
X57059Y-29737D01*
X57218Y-29803D01*
X57390Y-29803D01*
X57550Y-29737D01*
X57672Y-29615D01*
X57738Y-29456D01*
X57738Y-29284D01*
X57738Y-30284D01*
X57672Y-30125D01*
X57550Y-30003D01*
X57391Y-29937D01*
X57219Y-29936D01*
X57060Y-30002D01*
X56938Y-30124D01*
X56872Y-30283D01*
X56871Y-30455D01*
X56937Y-30615D01*
X57059Y-30737D01*
X57218Y-30803D01*
X57390Y-30803D01*
X57550Y-30737D01*
X57672Y-30615D01*
X57738Y-30456D01*
X57738Y-30284D01*
X57738Y-34081D01*
X57690Y-34129D01*
X57657Y-34208D01*
X57657Y-34294D01*
X57690Y-34374D01*
X57751Y-34435D01*
X57830Y-34468D01*
X57916Y-34468D01*
X57996Y-34435D01*
X58057Y-34374D01*
X58090Y-34295D01*
X58090Y-34209D01*
X58090Y-36571D01*
X58057Y-36491D01*
X57996Y-36430D01*
X57917Y-36397D01*
X57831Y-36397D01*
X57751Y-36430D01*
X57690Y-36491D01*
X57657Y-36570D01*
X57657Y-36657D01*
X57690Y-36736D01*
X57751Y-36797D01*
X57830Y-36830D01*
X57916Y-36830D01*
X57996Y-36797D01*
X58057Y-36736D01*
X58090Y-36657D01*
X58090Y-36571D01*
X58090Y-38539D01*
X58057Y-38460D01*
X57996Y-38399D01*
X57917Y-38366D01*
X57831Y-38366D01*
X57751Y-38399D01*
X57690Y-38459D01*
X57657Y-38539D01*
X57657Y-38625D01*
X57690Y-38705D01*
X57751Y-38766D01*
X57830Y-38799D01*
X57916Y-38799D01*
X57996Y-38766D01*
X58057Y-38705D01*
X58090Y-38625D01*
X58090Y-38539D01*
X58090Y-47990D01*
X58060Y-48002D01*
X57938Y-48124D01*
X57872Y-48283D01*
X57871Y-48455D01*
X57937Y-48615D01*
X58059Y-48737D01*
X58218Y-48803D01*
X58390Y-48803D01*
X58550Y-48737D01*
X58672Y-48615D01*
X58738Y-48456D01*
X58738Y-48284D01*
X58738Y-49284D01*
X58672Y-49125D01*
X58550Y-49003D01*
X58391Y-48937D01*
X58219Y-48936D01*
X58060Y-49002D01*
X57938Y-49124D01*
X57872Y-49283D01*
X57871Y-49455D01*
X57937Y-49615D01*
X58059Y-49737D01*
X58218Y-49803D01*
X58390Y-49803D01*
X58550Y-49737D01*
X58672Y-49615D01*
X58738Y-49456D01*
X58738Y-49284D01*
X58738Y-49980D01*
X57738Y-49980D01*
X57738Y-49284D01*
X57738Y-48284D01*
X57672Y-48125D01*
X57598Y-48050D01*
X57598Y-39130D01*
X57598Y-37358D01*
X57598Y-34209D01*
X57565Y-34129D01*
X57504Y-34068D01*
X57425Y-34035D01*
X57339Y-34035D01*
X57259Y-34068D01*
X57198Y-34129D01*
X57165Y-34208D01*
X57165Y-34294D01*
X57198Y-34374D01*
X57259Y-34435D01*
X57338Y-34468D01*
X57424Y-34468D01*
X57504Y-34435D01*
X57565Y-34374D01*
X57598Y-34295D01*
X57598Y-34209D01*
X57598Y-37358D01*
X57565Y-37279D01*
X57504Y-37218D01*
X57425Y-37185D01*
X57339Y-37185D01*
X57259Y-37217D01*
X57198Y-37278D01*
X57165Y-37358D01*
X57165Y-37444D01*
X57198Y-37524D01*
X57259Y-37585D01*
X57338Y-37618D01*
X57424Y-37618D01*
X57504Y-37585D01*
X57565Y-37524D01*
X57598Y-37444D01*
X57598Y-37358D01*
X57598Y-39130D01*
X57565Y-39050D01*
X57504Y-38989D01*
X57425Y-38956D01*
X57339Y-38956D01*
X57259Y-38989D01*
X57198Y-39050D01*
X57165Y-39129D01*
X57165Y-39216D01*
X57198Y-39295D01*
X57259Y-39356D01*
X57338Y-39389D01*
X57424Y-39389D01*
X57504Y-39356D01*
X57565Y-39296D01*
X57598Y-39216D01*
X57598Y-39130D01*
X57598Y-48050D01*
X57550Y-48003D01*
X57391Y-47937D01*
X57342Y-47937D01*
X57342Y-47193D01*
X57303Y-47099D01*
X57231Y-47027D01*
X57137Y-46988D01*
X57035Y-46988D01*
X56941Y-47027D01*
X56869Y-47098D01*
X56830Y-47192D01*
X56830Y-47294D01*
X56869Y-47388D01*
X56941Y-47460D01*
X57035Y-47499D01*
X57137Y-47500D01*
X57231Y-47461D01*
X57303Y-47389D01*
X57342Y-47295D01*
X57342Y-47193D01*
X57342Y-47937D01*
X57219Y-47936D01*
X57060Y-48002D01*
X56938Y-48124D01*
X56872Y-48283D01*
X56871Y-48455D01*
X56937Y-48615D01*
X57059Y-48737D01*
X57218Y-48803D01*
X57390Y-48803D01*
X57550Y-48737D01*
X57672Y-48615D01*
X57738Y-48456D01*
X57738Y-48284D01*
X57738Y-49284D01*
X57672Y-49125D01*
X57550Y-49003D01*
X57391Y-48937D01*
X57219Y-48936D01*
X57060Y-49002D01*
X56938Y-49124D01*
X56872Y-49283D01*
X56871Y-49455D01*
X56937Y-49615D01*
X57059Y-49737D01*
X57218Y-49803D01*
X57390Y-49803D01*
X57550Y-49737D01*
X57672Y-49615D01*
X57738Y-49456D01*
X57738Y-49284D01*
X57738Y-49980D01*
X56738Y-49980D01*
X56738Y-49284D01*
X56738Y-48284D01*
X56738Y-30284D01*
X56738Y-29284D01*
X56672Y-29125D01*
X56550Y-29003D01*
X56391Y-28937D01*
X56219Y-28936D01*
X56060Y-29002D01*
X55938Y-29124D01*
X55872Y-29283D01*
X55871Y-29455D01*
X55937Y-29615D01*
X56059Y-29737D01*
X56218Y-29803D01*
X56390Y-29803D01*
X56550Y-29737D01*
X56672Y-29615D01*
X56738Y-29456D01*
X56738Y-29284D01*
X56738Y-30284D01*
X56672Y-30125D01*
X56550Y-30003D01*
X56391Y-29937D01*
X56219Y-29936D01*
X56060Y-30002D01*
X55938Y-30124D01*
X55872Y-30283D01*
X55871Y-30455D01*
X55937Y-30615D01*
X56059Y-30737D01*
X56218Y-30803D01*
X56390Y-30803D01*
X56550Y-30737D01*
X56672Y-30615D01*
X56738Y-30456D01*
X56738Y-30284D01*
X56738Y-48284D01*
X56672Y-48125D01*
X56555Y-48007D01*
X56555Y-46209D01*
X56516Y-46115D01*
X56444Y-46043D01*
X56350Y-46003D01*
X56248Y-46003D01*
X56213Y-46018D01*
X56220Y-46011D01*
X56259Y-45917D01*
X56259Y-45826D01*
X56349Y-45826D01*
X56443Y-45787D01*
X56516Y-45716D01*
X56555Y-45621D01*
X56555Y-45520D01*
X56516Y-45426D01*
X56444Y-45354D01*
X56350Y-45315D01*
X56248Y-45314D01*
X56220Y-45326D01*
X56220Y-32043D01*
X56187Y-31964D01*
X56126Y-31903D01*
X56047Y-31870D01*
X55961Y-31870D01*
X55881Y-31902D01*
X55820Y-31963D01*
X55787Y-32043D01*
X55787Y-32129D01*
X55820Y-32209D01*
X55881Y-32270D01*
X55960Y-32303D01*
X56046Y-32303D01*
X56126Y-32270D01*
X56187Y-32209D01*
X56220Y-32129D01*
X56220Y-32043D01*
X56220Y-45326D01*
X56154Y-45353D01*
X56082Y-45425D01*
X56043Y-45519D01*
X56043Y-45610D01*
X55953Y-45610D01*
X55859Y-45649D01*
X55787Y-45720D01*
X55748Y-45815D01*
X55747Y-45916D01*
X55786Y-46010D01*
X55858Y-46082D01*
X55952Y-46122D01*
X56054Y-46122D01*
X56089Y-46107D01*
X56082Y-46114D01*
X56043Y-46208D01*
X56043Y-46310D01*
X56082Y-46404D01*
X56154Y-46476D01*
X56248Y-46515D01*
X56349Y-46515D01*
X56443Y-46476D01*
X56516Y-46404D01*
X56555Y-46310D01*
X56555Y-46209D01*
X56555Y-48007D01*
X56550Y-48003D01*
X56391Y-47937D01*
X56219Y-47936D01*
X56060Y-48002D01*
X55938Y-48124D01*
X55872Y-48283D01*
X55871Y-48455D01*
X55937Y-48615D01*
X56059Y-48737D01*
X56218Y-48803D01*
X56390Y-48803D01*
X56550Y-48737D01*
X56672Y-48615D01*
X56738Y-48456D01*
X56738Y-48284D01*
X56738Y-49284D01*
X56672Y-49125D01*
X56550Y-49003D01*
X56391Y-48937D01*
X56219Y-48936D01*
X56060Y-49002D01*
X55938Y-49124D01*
X55872Y-49283D01*
X55871Y-49455D01*
X55937Y-49615D01*
X56059Y-49737D01*
X56218Y-49803D01*
X56390Y-49803D01*
X56550Y-49737D01*
X56672Y-49615D01*
X56738Y-49456D01*
X56738Y-49284D01*
X56738Y-49980D01*
X55462Y-49980D01*
X55462Y-42057D01*
X55410Y-41931D01*
X55374Y-41894D01*
X55374Y-30657D01*
X55335Y-30563D01*
X55263Y-30491D01*
X55169Y-30452D01*
X55067Y-30452D01*
X54973Y-30491D01*
X54901Y-30563D01*
X54862Y-30657D01*
X54862Y-30759D01*
X54876Y-30794D01*
X54869Y-30787D01*
X54775Y-30748D01*
X54673Y-30747D01*
X54579Y-30786D01*
X54572Y-30794D01*
X54586Y-30759D01*
X54586Y-30657D01*
X54547Y-30563D01*
X54475Y-30491D01*
X54381Y-30452D01*
X54280Y-30452D01*
X54252Y-30464D01*
X54252Y-29287D01*
X54219Y-29208D01*
X54158Y-29147D01*
X54078Y-29114D01*
X53992Y-29114D01*
X53912Y-29147D01*
X53851Y-29207D01*
X53818Y-29287D01*
X53818Y-29373D01*
X53851Y-29453D01*
X53912Y-29514D01*
X53992Y-29547D01*
X54078Y-29547D01*
X54157Y-29514D01*
X54218Y-29453D01*
X54251Y-29373D01*
X54252Y-29287D01*
X54252Y-30464D01*
X54185Y-30491D01*
X54113Y-30563D01*
X54074Y-30657D01*
X54074Y-30759D01*
X54113Y-30853D01*
X54185Y-30925D01*
X54279Y-30964D01*
X54381Y-30964D01*
X54475Y-30925D01*
X54482Y-30918D01*
X54468Y-30952D01*
X54468Y-31054D01*
X54507Y-31148D01*
X54579Y-31220D01*
X54673Y-31259D01*
X54775Y-31259D01*
X54869Y-31221D01*
X54941Y-31149D01*
X54980Y-31055D01*
X54980Y-30953D01*
X54966Y-30918D01*
X54972Y-30925D01*
X55066Y-30964D01*
X55168Y-30964D01*
X55262Y-30925D01*
X55334Y-30853D01*
X55373Y-30759D01*
X55374Y-30657D01*
X55374Y-41894D01*
X55313Y-41834D01*
X55186Y-41781D01*
X55049Y-41781D01*
X54923Y-41833D01*
X54826Y-41930D01*
X54773Y-42057D01*
X54773Y-42194D01*
X54825Y-42320D01*
X54922Y-42417D01*
X55049Y-42470D01*
X55186Y-42470D01*
X55312Y-42418D01*
X55409Y-42321D01*
X55462Y-42194D01*
X55462Y-42057D01*
X55462Y-49980D01*
X54872Y-49980D01*
X54872Y-42648D01*
X54819Y-42521D01*
X54722Y-42424D01*
X54596Y-42372D01*
X54459Y-42371D01*
X54332Y-42424D01*
X54235Y-42521D01*
X54183Y-42647D01*
X54183Y-42784D01*
X54235Y-42911D01*
X54332Y-43008D01*
X54458Y-43060D01*
X54595Y-43061D01*
X54722Y-43008D01*
X54819Y-42911D01*
X54871Y-42785D01*
X54872Y-42648D01*
X54872Y-49980D01*
X54281Y-49980D01*
X54281Y-43238D01*
X54229Y-43112D01*
X54132Y-43015D01*
X54005Y-42962D01*
X53868Y-42962D01*
X53742Y-43014D01*
X53645Y-43111D01*
X53592Y-43238D01*
X53592Y-43375D01*
X53644Y-43501D01*
X53741Y-43598D01*
X53868Y-43651D01*
X54005Y-43651D01*
X54131Y-43599D01*
X54228Y-43502D01*
X54281Y-43375D01*
X54281Y-43238D01*
X54281Y-49980D01*
X53011Y-49980D01*
X53011Y-33020D01*
X52972Y-32926D01*
X52901Y-32854D01*
X52807Y-32815D01*
X52705Y-32814D01*
X52611Y-32853D01*
X52539Y-32925D01*
X52500Y-33019D01*
X52499Y-33121D01*
X52538Y-33215D01*
X52610Y-33287D01*
X52704Y-33326D01*
X52806Y-33326D01*
X52900Y-33287D01*
X52972Y-33216D01*
X53011Y-33121D01*
X53011Y-33020D01*
X53011Y-49980D01*
X52322Y-49980D01*
X52322Y-38531D01*
X52322Y-36957D01*
X52284Y-36863D01*
X52212Y-36791D01*
X52118Y-36752D01*
X52016Y-36751D01*
X51922Y-36790D01*
X51889Y-36823D01*
X51889Y-31256D01*
X51856Y-31176D01*
X51830Y-31150D01*
X51830Y-30264D01*
X51791Y-30170D01*
X51719Y-30098D01*
X51625Y-30059D01*
X51524Y-30059D01*
X51430Y-30097D01*
X51357Y-30169D01*
X51318Y-30263D01*
X51318Y-30365D01*
X51357Y-30459D01*
X51429Y-30531D01*
X51523Y-30570D01*
X51625Y-30570D01*
X51719Y-30532D01*
X51791Y-30460D01*
X51830Y-30366D01*
X51830Y-30264D01*
X51830Y-31150D01*
X51796Y-31115D01*
X51716Y-31082D01*
X51630Y-31082D01*
X51550Y-31115D01*
X51489Y-31176D01*
X51456Y-31255D01*
X51456Y-31342D01*
X51489Y-31421D01*
X51550Y-31482D01*
X51629Y-31515D01*
X51716Y-31515D01*
X51795Y-31482D01*
X51856Y-31422D01*
X51889Y-31342D01*
X51889Y-31256D01*
X51889Y-36823D01*
X51850Y-36862D01*
X51811Y-36956D01*
X51810Y-37058D01*
X51849Y-37152D01*
X51921Y-37224D01*
X52015Y-37263D01*
X52117Y-37263D01*
X52211Y-37224D01*
X52283Y-37153D01*
X52322Y-37059D01*
X52322Y-36957D01*
X52322Y-38531D01*
X52284Y-38437D01*
X52212Y-38365D01*
X52118Y-38326D01*
X52016Y-38326D01*
X51922Y-38365D01*
X51850Y-38437D01*
X51811Y-38531D01*
X51810Y-38633D01*
X51849Y-38727D01*
X51921Y-38799D01*
X52015Y-38838D01*
X52117Y-38838D01*
X52211Y-38799D01*
X52283Y-38727D01*
X52322Y-38633D01*
X52322Y-38531D01*
X52322Y-49980D01*
X51830Y-49980D01*
X51830Y-45224D01*
X51791Y-45130D01*
X51719Y-45058D01*
X51625Y-45019D01*
X51524Y-45019D01*
X51430Y-45058D01*
X51357Y-45130D01*
X51318Y-45224D01*
X51318Y-45326D01*
X51333Y-45361D01*
X51326Y-45354D01*
X51232Y-45315D01*
X51130Y-45314D01*
X51036Y-45353D01*
X51028Y-45361D01*
X51043Y-45326D01*
X51043Y-45224D01*
X51004Y-45130D01*
X51003Y-45130D01*
X51003Y-44051D01*
X50971Y-43971D01*
X50910Y-43911D01*
X50830Y-43877D01*
X50744Y-43877D01*
X50664Y-43910D01*
X50603Y-43971D01*
X50570Y-44051D01*
X50570Y-44137D01*
X50603Y-44216D01*
X50664Y-44277D01*
X50744Y-44310D01*
X50830Y-44311D01*
X50909Y-44278D01*
X50970Y-44217D01*
X51003Y-44137D01*
X51003Y-44051D01*
X51003Y-45130D01*
X50932Y-45058D01*
X50838Y-45019D01*
X50736Y-45019D01*
X50642Y-45058D01*
X50570Y-45130D01*
X50531Y-45224D01*
X50531Y-45326D01*
X50570Y-45420D01*
X50642Y-45492D01*
X50736Y-45531D01*
X50838Y-45531D01*
X50932Y-45492D01*
X50939Y-45485D01*
X50925Y-45519D01*
X50925Y-45621D01*
X50964Y-45715D01*
X51035Y-45787D01*
X51129Y-45826D01*
X51231Y-45826D01*
X51325Y-45787D01*
X51397Y-45716D01*
X51436Y-45621D01*
X51437Y-45520D01*
X51422Y-45485D01*
X51429Y-45492D01*
X51523Y-45531D01*
X51625Y-45531D01*
X51719Y-45492D01*
X51791Y-45420D01*
X51830Y-45326D01*
X51830Y-45224D01*
X51830Y-49980D01*
X50413Y-49980D01*
X50413Y-31650D01*
X50380Y-31570D01*
X50319Y-31509D01*
X50240Y-31476D01*
X50153Y-31476D01*
X50074Y-31509D01*
X50013Y-31570D01*
X49980Y-31649D01*
X49980Y-31735D01*
X50013Y-31815D01*
X50074Y-31876D01*
X50153Y-31909D01*
X50239Y-31909D01*
X50319Y-31876D01*
X50380Y-31815D01*
X50413Y-31736D01*
X50413Y-31650D01*
X50413Y-49980D01*
X49626Y-49980D01*
X49626Y-32339D01*
X49593Y-32259D01*
X49532Y-32198D01*
X49452Y-32165D01*
X49366Y-32165D01*
X49286Y-32198D01*
X49225Y-32259D01*
X49192Y-32338D01*
X49192Y-32424D01*
X49225Y-32504D01*
X49286Y-32565D01*
X49366Y-32598D01*
X49452Y-32598D01*
X49531Y-32565D01*
X49592Y-32504D01*
X49625Y-32425D01*
X49626Y-32339D01*
X49626Y-49980D01*
X49074Y-49980D01*
X49074Y-34102D01*
X49074Y-31248D01*
X49035Y-31154D01*
X48964Y-31082D01*
X48870Y-31043D01*
X48768Y-31043D01*
X48674Y-31082D01*
X48602Y-31154D01*
X48563Y-31248D01*
X48562Y-31349D01*
X48601Y-31443D01*
X48673Y-31516D01*
X48767Y-31555D01*
X48869Y-31555D01*
X48963Y-31516D01*
X49035Y-31444D01*
X49074Y-31350D01*
X49074Y-31248D01*
X49074Y-34102D01*
X49035Y-34008D01*
X48964Y-33936D01*
X48870Y-33897D01*
X48768Y-33897D01*
X48674Y-33936D01*
X48602Y-34008D01*
X48563Y-34102D01*
X48562Y-34204D01*
X48601Y-34298D01*
X48673Y-34370D01*
X48767Y-34409D01*
X48869Y-34409D01*
X48963Y-34370D01*
X49035Y-34298D01*
X49074Y-34204D01*
X49074Y-34102D01*
X49074Y-49980D01*
X48877Y-49980D01*
X48877Y-36268D01*
X48839Y-36174D01*
X48767Y-36102D01*
X48673Y-36063D01*
X48571Y-36062D01*
X48477Y-36101D01*
X48405Y-36173D01*
X48366Y-36267D01*
X48366Y-36369D01*
X48404Y-36463D01*
X48476Y-36535D01*
X48570Y-36574D01*
X48672Y-36574D01*
X48766Y-36535D01*
X48838Y-36464D01*
X48877Y-36370D01*
X48877Y-36268D01*
X48877Y-49980D01*
X48287Y-49980D01*
X48287Y-44831D01*
X48248Y-44737D01*
X48176Y-44665D01*
X48090Y-44629D01*
X48090Y-36268D01*
X48090Y-31248D01*
X48051Y-31154D01*
X47979Y-31082D01*
X47885Y-31043D01*
X47783Y-31043D01*
X47689Y-31082D01*
X47617Y-31154D01*
X47578Y-31248D01*
X47578Y-31349D01*
X47617Y-31443D01*
X47689Y-31516D01*
X47783Y-31555D01*
X47885Y-31555D01*
X47979Y-31516D01*
X48051Y-31444D01*
X48090Y-31350D01*
X48090Y-31248D01*
X48090Y-36268D01*
X48051Y-36174D01*
X47979Y-36102D01*
X47885Y-36063D01*
X47783Y-36062D01*
X47689Y-36101D01*
X47617Y-36173D01*
X47578Y-36267D01*
X47578Y-36369D01*
X47617Y-36463D01*
X47689Y-36535D01*
X47783Y-36574D01*
X47885Y-36574D01*
X47979Y-36535D01*
X48051Y-36464D01*
X48090Y-36370D01*
X48090Y-36268D01*
X48090Y-44629D01*
X48082Y-44626D01*
X47980Y-44625D01*
X47886Y-44664D01*
X47814Y-44736D01*
X47775Y-44830D01*
X47775Y-44932D01*
X47814Y-45026D01*
X47886Y-45098D01*
X47980Y-45137D01*
X48082Y-45137D01*
X48176Y-45098D01*
X48248Y-45027D01*
X48287Y-44933D01*
X48287Y-44831D01*
X48287Y-49980D01*
X45531Y-49980D01*
X45531Y-34102D01*
X45492Y-34008D01*
X45420Y-33936D01*
X45326Y-33897D01*
X45224Y-33897D01*
X45130Y-33936D01*
X45078Y-33988D01*
X45027Y-33936D01*
X44933Y-33897D01*
X44842Y-33897D01*
X44842Y-31346D01*
X44803Y-31252D01*
X44731Y-31180D01*
X44637Y-31141D01*
X44535Y-31141D01*
X44441Y-31180D01*
X44369Y-31252D01*
X44330Y-31346D01*
X44330Y-31448D01*
X44369Y-31542D01*
X44441Y-31614D01*
X44535Y-31653D01*
X44637Y-31653D01*
X44731Y-31614D01*
X44803Y-31542D01*
X44842Y-31448D01*
X44842Y-31346D01*
X44842Y-33897D01*
X44831Y-33897D01*
X44737Y-33936D01*
X44665Y-34008D01*
X44626Y-34102D01*
X44625Y-34204D01*
X44664Y-34298D01*
X44736Y-34370D01*
X44830Y-34409D01*
X44932Y-34409D01*
X45026Y-34370D01*
X45078Y-34318D01*
X45130Y-34370D01*
X45224Y-34409D01*
X45326Y-34409D01*
X45420Y-34370D01*
X45492Y-34298D01*
X45531Y-34204D01*
X45531Y-34102D01*
X45531Y-49980D01*
X45000Y-49980D01*
X45000Y-43854D01*
X44967Y-43775D01*
X44906Y-43714D01*
X44826Y-43681D01*
X44740Y-43681D01*
X44660Y-43713D01*
X44600Y-43774D01*
X44566Y-43854D01*
X44566Y-43940D01*
X44599Y-44020D01*
X44660Y-44081D01*
X44740Y-44114D01*
X44826Y-44114D01*
X44905Y-44081D01*
X44966Y-44020D01*
X44999Y-43940D01*
X45000Y-43854D01*
X45000Y-49980D01*
X44350Y-49980D01*
X44350Y-34102D01*
X44311Y-34008D01*
X44239Y-33936D01*
X44145Y-33897D01*
X44043Y-33897D01*
X43949Y-33936D01*
X43877Y-34008D01*
X43838Y-34102D01*
X43838Y-34204D01*
X43877Y-34298D01*
X43949Y-34370D01*
X44043Y-34409D01*
X44145Y-34409D01*
X44239Y-34370D01*
X44311Y-34298D01*
X44350Y-34204D01*
X44350Y-34102D01*
X44350Y-49980D01*
X41358Y-49980D01*
X41358Y-42378D01*
X41325Y-42298D01*
X41264Y-42237D01*
X41232Y-42224D01*
X41264Y-42211D01*
X41325Y-42150D01*
X41358Y-42070D01*
X41358Y-41984D01*
X41325Y-41905D01*
X41264Y-41844D01*
X41232Y-41830D01*
X41264Y-41817D01*
X41325Y-41756D01*
X41358Y-41677D01*
X41358Y-41590D01*
X41325Y-41511D01*
X41264Y-41450D01*
X41184Y-41417D01*
X41098Y-41417D01*
X41019Y-41450D01*
X40958Y-41511D01*
X40925Y-41590D01*
X40925Y-41676D01*
X40958Y-41756D01*
X41018Y-41817D01*
X41051Y-41830D01*
X41019Y-41843D01*
X40958Y-41904D01*
X40925Y-41984D01*
X40925Y-42070D01*
X40958Y-42150D01*
X41018Y-42211D01*
X41051Y-42224D01*
X41019Y-42237D01*
X40958Y-42298D01*
X40925Y-42377D01*
X40925Y-42464D01*
X40958Y-42543D01*
X41018Y-42604D01*
X41098Y-42637D01*
X41184Y-42637D01*
X41264Y-42604D01*
X41325Y-42544D01*
X41358Y-42464D01*
X41358Y-42378D01*
X41358Y-49980D01*
X40807Y-49980D01*
X40807Y-43846D01*
X40768Y-43752D01*
X40767Y-43752D01*
X40767Y-42870D01*
X40734Y-42790D01*
X40673Y-42729D01*
X40594Y-42696D01*
X40508Y-42696D01*
X40428Y-42729D01*
X40367Y-42790D01*
X40334Y-42870D01*
X40334Y-42956D01*
X40367Y-43035D01*
X40428Y-43096D01*
X40507Y-43129D01*
X40594Y-43129D01*
X40673Y-43097D01*
X40734Y-43036D01*
X40767Y-42956D01*
X40767Y-42870D01*
X40767Y-43752D01*
X40696Y-43680D01*
X40602Y-43641D01*
X40500Y-43641D01*
X40406Y-43680D01*
X40334Y-43752D01*
X40295Y-43846D01*
X40295Y-43948D01*
X40334Y-44042D01*
X40406Y-44114D01*
X40500Y-44153D01*
X40601Y-44153D01*
X40695Y-44114D01*
X40768Y-44042D01*
X40807Y-43948D01*
X40807Y-43846D01*
X40807Y-49980D01*
X39685Y-49980D01*
X39685Y-44445D01*
X39652Y-44365D01*
X39591Y-44304D01*
X39511Y-44271D01*
X39488Y-44271D01*
X39488Y-42279D01*
X39455Y-42200D01*
X39394Y-42139D01*
X39314Y-42106D01*
X39228Y-42106D01*
X39149Y-42139D01*
X39088Y-42200D01*
X39074Y-42232D01*
X39061Y-42200D01*
X39000Y-42139D01*
X38921Y-42106D01*
X38835Y-42106D01*
X38755Y-42139D01*
X38694Y-42200D01*
X38661Y-42279D01*
X38661Y-42365D01*
X38694Y-42445D01*
X38755Y-42506D01*
X38834Y-42539D01*
X38920Y-42539D01*
X39000Y-42506D01*
X39061Y-42445D01*
X39074Y-42413D01*
X39087Y-42445D01*
X39148Y-42506D01*
X39228Y-42539D01*
X39314Y-42539D01*
X39394Y-42506D01*
X39455Y-42445D01*
X39488Y-42366D01*
X39488Y-42279D01*
X39488Y-44271D01*
X39425Y-44271D01*
X39346Y-44304D01*
X39285Y-44365D01*
X39252Y-44444D01*
X39251Y-44531D01*
X39284Y-44610D01*
X39345Y-44671D01*
X39425Y-44704D01*
X39511Y-44704D01*
X39591Y-44671D01*
X39651Y-44611D01*
X39685Y-44531D01*
X39685Y-44445D01*
X39685Y-49980D01*
X38405Y-49980D01*
X38405Y-43854D01*
X38372Y-43775D01*
X38311Y-43714D01*
X38232Y-43681D01*
X38146Y-43681D01*
X38066Y-43713D01*
X38005Y-43774D01*
X37972Y-43854D01*
X37972Y-43940D01*
X38005Y-44020D01*
X38066Y-44081D01*
X38145Y-44114D01*
X38231Y-44114D01*
X38311Y-44081D01*
X38372Y-44020D01*
X38405Y-43940D01*
X38405Y-43854D01*
X38405Y-49980D01*
X33400Y-49980D01*
X33400Y-48726D01*
X33400Y-29726D01*
X33290Y-29460D01*
X33087Y-29257D01*
X32821Y-29146D01*
X32533Y-29146D01*
X32267Y-29256D01*
X32064Y-29459D01*
X31953Y-29725D01*
X31953Y-30013D01*
X32063Y-30279D01*
X32266Y-30483D01*
X32532Y-30593D01*
X32820Y-30593D01*
X33086Y-30483D01*
X33290Y-30280D01*
X33400Y-30014D01*
X33400Y-29726D01*
X33400Y-48726D01*
X33290Y-48460D01*
X33104Y-48273D01*
X33104Y-38947D01*
X33100Y-38875D01*
X33100Y-38191D01*
X33100Y-37541D01*
X33085Y-37505D01*
X33057Y-37477D01*
X33021Y-37462D01*
X32982Y-37462D01*
X32332Y-37462D01*
X32296Y-37477D01*
X32268Y-37505D01*
X32253Y-37541D01*
X32253Y-37580D01*
X32253Y-38230D01*
X32268Y-38266D01*
X32296Y-38294D01*
X32332Y-38309D01*
X32371Y-38309D01*
X33021Y-38309D01*
X33057Y-38294D01*
X33085Y-38266D01*
X33100Y-38230D01*
X33100Y-38191D01*
X33100Y-38875D01*
X33095Y-38779D01*
X33047Y-38665D01*
X32991Y-38627D01*
X32935Y-38682D01*
X32935Y-38571D01*
X32897Y-38515D01*
X32739Y-38458D01*
X32571Y-38467D01*
X32456Y-38515D01*
X32418Y-38571D01*
X32677Y-38830D01*
X32935Y-38571D01*
X32935Y-38682D01*
X32732Y-38885D01*
X32991Y-39144D01*
X33047Y-39106D01*
X33104Y-38947D01*
X33104Y-48273D01*
X33087Y-48257D01*
X32935Y-48194D01*
X32935Y-39200D01*
X32677Y-38941D01*
X32621Y-38997D01*
X32621Y-38885D01*
X32362Y-38627D01*
X32306Y-38665D01*
X32250Y-38823D01*
X32258Y-38991D01*
X32306Y-39106D01*
X32362Y-39144D01*
X32621Y-38885D01*
X32621Y-38997D01*
X32418Y-39200D01*
X32456Y-39256D01*
X32615Y-39312D01*
X32783Y-39304D01*
X32897Y-39256D01*
X32935Y-39200D01*
X32935Y-48194D01*
X32821Y-48146D01*
X32533Y-48146D01*
X32267Y-48256D01*
X32064Y-48459D01*
X31953Y-48725D01*
X31953Y-49013D01*
X32063Y-49279D01*
X32266Y-49483D01*
X32532Y-49593D01*
X32820Y-49593D01*
X33086Y-49483D01*
X33290Y-49280D01*
X33400Y-49014D01*
X33400Y-48726D01*
X33400Y-49980D01*
X31381Y-49980D01*
X31381Y-44441D01*
X31381Y-44146D01*
X31368Y-44077D01*
X31366Y-44071D01*
X31335Y-44064D01*
X31279Y-44120D01*
X31279Y-44009D01*
X31272Y-43977D01*
X31203Y-43963D01*
X31134Y-43975D01*
X31129Y-43977D01*
X31121Y-44009D01*
X31200Y-44088D01*
X31279Y-44009D01*
X31279Y-44120D01*
X31256Y-44143D01*
X31335Y-44222D01*
X31366Y-44215D01*
X31381Y-44146D01*
X31381Y-44441D01*
X31368Y-44372D01*
X31366Y-44367D01*
X31335Y-44360D01*
X31279Y-44415D01*
X31279Y-44304D01*
X31276Y-44291D01*
X31279Y-44278D01*
X31200Y-44199D01*
X31145Y-44255D01*
X31145Y-44143D01*
X31066Y-44064D01*
X31053Y-44067D01*
X31040Y-44064D01*
X30984Y-44120D01*
X30984Y-44009D01*
X30977Y-43977D01*
X30908Y-43963D01*
X30839Y-43975D01*
X30833Y-43977D01*
X30826Y-44009D01*
X30905Y-44088D01*
X30984Y-44009D01*
X30984Y-44120D01*
X30961Y-44143D01*
X31040Y-44222D01*
X31053Y-44219D01*
X31066Y-44222D01*
X31145Y-44143D01*
X31145Y-44255D01*
X31121Y-44278D01*
X31124Y-44291D01*
X31121Y-44304D01*
X31200Y-44383D01*
X31279Y-44304D01*
X31279Y-44415D01*
X31256Y-44438D01*
X31335Y-44517D01*
X31366Y-44510D01*
X31381Y-44441D01*
X31381Y-49980D01*
X31279Y-49980D01*
X31279Y-44573D01*
X31200Y-44494D01*
X31145Y-44550D01*
X31145Y-44438D01*
X31066Y-44360D01*
X31053Y-44363D01*
X31040Y-44360D01*
X30984Y-44415D01*
X30984Y-44304D01*
X30981Y-44291D01*
X30984Y-44278D01*
X30905Y-44199D01*
X30849Y-44255D01*
X30849Y-44143D01*
X30770Y-44064D01*
X30757Y-44067D01*
X30744Y-44064D01*
X30689Y-44120D01*
X30689Y-44009D01*
X30682Y-43977D01*
X30613Y-43963D01*
X30543Y-43975D01*
X30538Y-43977D01*
X30531Y-44009D01*
X30610Y-44088D01*
X30689Y-44009D01*
X30689Y-44120D01*
X30665Y-44143D01*
X30744Y-44222D01*
X30757Y-44219D01*
X30770Y-44222D01*
X30849Y-44143D01*
X30849Y-44255D01*
X30826Y-44278D01*
X30829Y-44291D01*
X30826Y-44304D01*
X30905Y-44383D01*
X30984Y-44304D01*
X30984Y-44415D01*
X30961Y-44438D01*
X31040Y-44517D01*
X31053Y-44514D01*
X31066Y-44517D01*
X31145Y-44438D01*
X31145Y-44550D01*
X31121Y-44573D01*
X31129Y-44604D01*
X31197Y-44619D01*
X31267Y-44606D01*
X31272Y-44604D01*
X31279Y-44573D01*
X31279Y-49980D01*
X30984Y-49980D01*
X30984Y-44573D01*
X30905Y-44494D01*
X30849Y-44550D01*
X30849Y-44438D01*
X30770Y-44360D01*
X30757Y-44363D01*
X30744Y-44360D01*
X30689Y-44415D01*
X30689Y-44304D01*
X30686Y-44291D01*
X30689Y-44278D01*
X30610Y-44199D01*
X30554Y-44255D01*
X30554Y-44143D01*
X30475Y-44064D01*
X30444Y-44071D01*
X30429Y-44140D01*
X30442Y-44210D01*
X30444Y-44215D01*
X30475Y-44222D01*
X30554Y-44143D01*
X30554Y-44255D01*
X30531Y-44278D01*
X30534Y-44291D01*
X30531Y-44304D01*
X30610Y-44383D01*
X30689Y-44304D01*
X30689Y-44415D01*
X30665Y-44438D01*
X30744Y-44517D01*
X30757Y-44514D01*
X30770Y-44517D01*
X30849Y-44438D01*
X30849Y-44550D01*
X30826Y-44573D01*
X30833Y-44604D01*
X30902Y-44619D01*
X30971Y-44606D01*
X30977Y-44604D01*
X30984Y-44573D01*
X30984Y-49980D01*
X30689Y-49980D01*
X30689Y-44573D01*
X30610Y-44494D01*
X30554Y-44550D01*
X30554Y-44438D01*
X30475Y-44360D01*
X30444Y-44367D01*
X30429Y-44436D01*
X30442Y-44505D01*
X30444Y-44510D01*
X30475Y-44517D01*
X30554Y-44438D01*
X30554Y-44550D01*
X30531Y-44573D01*
X30538Y-44604D01*
X30607Y-44619D01*
X30676Y-44606D01*
X30682Y-44604D01*
X30689Y-44573D01*
X30689Y-49980D01*
X30137Y-49980D01*
X30137Y-43917D01*
X32303Y-43917D01*
X32303Y-42696D01*
X31381Y-42696D01*
X31381Y-42473D01*
X31381Y-42178D01*
X31381Y-34796D01*
X31381Y-34500D01*
X31381Y-32827D01*
X31381Y-32532D01*
X31368Y-32463D01*
X31366Y-32457D01*
X31335Y-32450D01*
X31279Y-32506D01*
X31279Y-32394D01*
X31272Y-32363D01*
X31203Y-32348D01*
X31134Y-32361D01*
X31129Y-32363D01*
X31121Y-32394D01*
X31200Y-32473D01*
X31279Y-32394D01*
X31279Y-32506D01*
X31256Y-32529D01*
X31335Y-32608D01*
X31366Y-32601D01*
X31381Y-32532D01*
X31381Y-32827D01*
X31368Y-32758D01*
X31366Y-32753D01*
X31335Y-32745D01*
X31279Y-32801D01*
X31279Y-32690D01*
X31276Y-32677D01*
X31279Y-32664D01*
X31200Y-32585D01*
X31145Y-32640D01*
X31145Y-32529D01*
X31066Y-32450D01*
X31053Y-32453D01*
X31040Y-32450D01*
X30984Y-32506D01*
X30984Y-32394D01*
X30977Y-32363D01*
X30908Y-32348D01*
X30839Y-32361D01*
X30833Y-32363D01*
X30826Y-32394D01*
X30905Y-32473D01*
X30984Y-32394D01*
X30984Y-32506D01*
X30961Y-32529D01*
X31040Y-32608D01*
X31053Y-32605D01*
X31066Y-32608D01*
X31145Y-32529D01*
X31145Y-32640D01*
X31121Y-32664D01*
X31124Y-32677D01*
X31121Y-32690D01*
X31200Y-32769D01*
X31279Y-32690D01*
X31279Y-32801D01*
X31256Y-32824D01*
X31335Y-32903D01*
X31366Y-32896D01*
X31381Y-32827D01*
X31381Y-34500D01*
X31368Y-34431D01*
X31366Y-34426D01*
X31335Y-34419D01*
X31279Y-34474D01*
X31279Y-34363D01*
X31279Y-32959D01*
X31200Y-32880D01*
X31145Y-32936D01*
X31145Y-32824D01*
X31066Y-32745D01*
X31053Y-32748D01*
X31040Y-32745D01*
X30984Y-32801D01*
X30984Y-32690D01*
X30981Y-32677D01*
X30984Y-32664D01*
X30905Y-32585D01*
X30849Y-32640D01*
X30849Y-32529D01*
X30770Y-32450D01*
X30757Y-32453D01*
X30744Y-32450D01*
X30689Y-32506D01*
X30689Y-32394D01*
X30682Y-32363D01*
X30613Y-32348D01*
X30543Y-32361D01*
X30538Y-32363D01*
X30531Y-32394D01*
X30610Y-32473D01*
X30689Y-32394D01*
X30689Y-32506D01*
X30665Y-32529D01*
X30744Y-32608D01*
X30757Y-32605D01*
X30770Y-32608D01*
X30849Y-32529D01*
X30849Y-32640D01*
X30826Y-32664D01*
X30829Y-32677D01*
X30826Y-32690D01*
X30905Y-32769D01*
X30984Y-32690D01*
X30984Y-32801D01*
X30961Y-32824D01*
X31040Y-32903D01*
X31053Y-32900D01*
X31066Y-32903D01*
X31145Y-32824D01*
X31145Y-32936D01*
X31121Y-32959D01*
X31129Y-32990D01*
X31197Y-33005D01*
X31267Y-32992D01*
X31272Y-32990D01*
X31279Y-32959D01*
X31279Y-34363D01*
X31272Y-34332D01*
X31203Y-34317D01*
X31134Y-34330D01*
X31129Y-34332D01*
X31121Y-34363D01*
X31200Y-34442D01*
X31279Y-34363D01*
X31279Y-34474D01*
X31256Y-34498D01*
X31335Y-34576D01*
X31366Y-34569D01*
X31381Y-34500D01*
X31381Y-34796D01*
X31368Y-34726D01*
X31366Y-34721D01*
X31335Y-34714D01*
X31279Y-34770D01*
X31279Y-34658D01*
X31276Y-34645D01*
X31279Y-34632D01*
X31200Y-34553D01*
X31145Y-34609D01*
X31145Y-34498D01*
X31066Y-34419D01*
X31053Y-34422D01*
X31040Y-34419D01*
X30984Y-34474D01*
X30984Y-34363D01*
X30984Y-32959D01*
X30905Y-32880D01*
X30849Y-32936D01*
X30849Y-32824D01*
X30770Y-32745D01*
X30757Y-32748D01*
X30744Y-32745D01*
X30689Y-32801D01*
X30689Y-32690D01*
X30686Y-32677D01*
X30689Y-32664D01*
X30610Y-32585D01*
X30554Y-32640D01*
X30554Y-32529D01*
X30475Y-32450D01*
X30444Y-32457D01*
X30429Y-32526D01*
X30442Y-32595D01*
X30444Y-32601D01*
X30475Y-32608D01*
X30554Y-32529D01*
X30554Y-32640D01*
X30531Y-32664D01*
X30534Y-32677D01*
X30531Y-32690D01*
X30610Y-32769D01*
X30689Y-32690D01*
X30689Y-32801D01*
X30665Y-32824D01*
X30744Y-32903D01*
X30757Y-32900D01*
X30770Y-32903D01*
X30849Y-32824D01*
X30849Y-32936D01*
X30826Y-32959D01*
X30833Y-32990D01*
X30902Y-33005D01*
X30971Y-32992D01*
X30977Y-32990D01*
X30984Y-32959D01*
X30984Y-34363D01*
X30977Y-34332D01*
X30908Y-34317D01*
X30839Y-34330D01*
X30833Y-34332D01*
X30826Y-34363D01*
X30905Y-34442D01*
X30984Y-34363D01*
X30984Y-34474D01*
X30961Y-34498D01*
X31040Y-34576D01*
X31053Y-34573D01*
X31066Y-34576D01*
X31145Y-34498D01*
X31145Y-34609D01*
X31121Y-34632D01*
X31124Y-34645D01*
X31121Y-34658D01*
X31200Y-34737D01*
X31279Y-34658D01*
X31279Y-34770D01*
X31256Y-34793D01*
X31335Y-34872D01*
X31366Y-34865D01*
X31381Y-34796D01*
X31381Y-42178D01*
X31368Y-42108D01*
X31366Y-42103D01*
X31335Y-42096D01*
X31279Y-42151D01*
X31279Y-42040D01*
X31279Y-34927D01*
X31200Y-34848D01*
X31145Y-34904D01*
X31145Y-34793D01*
X31066Y-34714D01*
X31053Y-34717D01*
X31040Y-34714D01*
X30984Y-34770D01*
X30984Y-34658D01*
X30981Y-34645D01*
X30984Y-34632D01*
X30905Y-34553D01*
X30849Y-34609D01*
X30849Y-34498D01*
X30770Y-34419D01*
X30757Y-34422D01*
X30744Y-34419D01*
X30689Y-34474D01*
X30689Y-34363D01*
X30689Y-32959D01*
X30610Y-32880D01*
X30554Y-32936D01*
X30554Y-32824D01*
X30475Y-32745D01*
X30444Y-32753D01*
X30429Y-32821D01*
X30442Y-32891D01*
X30444Y-32896D01*
X30475Y-32903D01*
X30554Y-32824D01*
X30554Y-32936D01*
X30531Y-32959D01*
X30538Y-32990D01*
X30607Y-33005D01*
X30676Y-32992D01*
X30682Y-32990D01*
X30689Y-32959D01*
X30689Y-34363D01*
X30682Y-34332D01*
X30613Y-34317D01*
X30543Y-34330D01*
X30538Y-34332D01*
X30531Y-34363D01*
X30610Y-34442D01*
X30689Y-34363D01*
X30689Y-34474D01*
X30665Y-34498D01*
X30744Y-34576D01*
X30757Y-34573D01*
X30770Y-34576D01*
X30849Y-34498D01*
X30849Y-34609D01*
X30826Y-34632D01*
X30829Y-34645D01*
X30826Y-34658D01*
X30905Y-34737D01*
X30984Y-34658D01*
X30984Y-34770D01*
X30961Y-34793D01*
X31040Y-34872D01*
X31053Y-34869D01*
X31066Y-34872D01*
X31145Y-34793D01*
X31145Y-34904D01*
X31121Y-34927D01*
X31129Y-34959D01*
X31197Y-34973D01*
X31267Y-34961D01*
X31272Y-34959D01*
X31279Y-34927D01*
X31279Y-42040D01*
X31272Y-42009D01*
X31203Y-41994D01*
X31134Y-42007D01*
X31129Y-42009D01*
X31121Y-42040D01*
X31200Y-42119D01*
X31279Y-42040D01*
X31279Y-42151D01*
X31256Y-42175D01*
X31335Y-42254D01*
X31366Y-42246D01*
X31381Y-42178D01*
X31381Y-42473D01*
X31368Y-42404D01*
X31366Y-42398D01*
X31335Y-42391D01*
X31279Y-42447D01*
X31279Y-42335D01*
X31276Y-42322D01*
X31279Y-42309D01*
X31200Y-42230D01*
X31145Y-42286D01*
X31145Y-42175D01*
X31066Y-42096D01*
X31053Y-42099D01*
X31040Y-42096D01*
X30984Y-42151D01*
X30984Y-42040D01*
X30984Y-34927D01*
X30905Y-34848D01*
X30849Y-34904D01*
X30849Y-34793D01*
X30770Y-34714D01*
X30757Y-34717D01*
X30744Y-34714D01*
X30689Y-34770D01*
X30689Y-34658D01*
X30686Y-34645D01*
X30689Y-34632D01*
X30610Y-34553D01*
X30554Y-34609D01*
X30554Y-34498D01*
X30475Y-34419D01*
X30444Y-34426D01*
X30429Y-34495D01*
X30442Y-34564D01*
X30444Y-34569D01*
X30475Y-34576D01*
X30554Y-34498D01*
X30554Y-34609D01*
X30531Y-34632D01*
X30534Y-34645D01*
X30531Y-34658D01*
X30610Y-34737D01*
X30689Y-34658D01*
X30689Y-34770D01*
X30665Y-34793D01*
X30744Y-34872D01*
X30757Y-34869D01*
X30770Y-34872D01*
X30849Y-34793D01*
X30849Y-34904D01*
X30826Y-34927D01*
X30833Y-34959D01*
X30902Y-34973D01*
X30971Y-34961D01*
X30977Y-34959D01*
X30984Y-34927D01*
X30984Y-42040D01*
X30977Y-42009D01*
X30908Y-41994D01*
X30839Y-42007D01*
X30833Y-42009D01*
X30826Y-42040D01*
X30905Y-42119D01*
X30984Y-42040D01*
X30984Y-42151D01*
X30961Y-42175D01*
X31040Y-42254D01*
X31053Y-42251D01*
X31066Y-42254D01*
X31145Y-42175D01*
X31145Y-42286D01*
X31121Y-42309D01*
X31124Y-42322D01*
X31121Y-42335D01*
X31200Y-42414D01*
X31279Y-42335D01*
X31279Y-42447D01*
X31256Y-42470D01*
X31335Y-42549D01*
X31366Y-42542D01*
X31381Y-42473D01*
X31381Y-42696D01*
X31279Y-42696D01*
X31279Y-42605D01*
X31200Y-42526D01*
X31145Y-42581D01*
X31145Y-42470D01*
X31066Y-42391D01*
X31053Y-42394D01*
X31040Y-42391D01*
X30984Y-42447D01*
X30984Y-42335D01*
X30981Y-42322D01*
X30984Y-42309D01*
X30905Y-42230D01*
X30849Y-42286D01*
X30849Y-42175D01*
X30770Y-42096D01*
X30757Y-42099D01*
X30744Y-42096D01*
X30689Y-42151D01*
X30689Y-42040D01*
X30689Y-34927D01*
X30610Y-34848D01*
X30554Y-34904D01*
X30554Y-34793D01*
X30475Y-34714D01*
X30444Y-34721D01*
X30429Y-34790D01*
X30442Y-34859D01*
X30444Y-34865D01*
X30475Y-34872D01*
X30554Y-34793D01*
X30554Y-34904D01*
X30531Y-34927D01*
X30538Y-34959D01*
X30607Y-34973D01*
X30676Y-34961D01*
X30682Y-34959D01*
X30689Y-34927D01*
X30689Y-42040D01*
X30682Y-42009D01*
X30613Y-41994D01*
X30543Y-42007D01*
X30538Y-42009D01*
X30531Y-42040D01*
X30610Y-42119D01*
X30689Y-42040D01*
X30689Y-42151D01*
X30665Y-42175D01*
X30744Y-42254D01*
X30757Y-42251D01*
X30770Y-42254D01*
X30849Y-42175D01*
X30849Y-42286D01*
X30826Y-42309D01*
X30829Y-42322D01*
X30826Y-42335D01*
X30905Y-42414D01*
X30984Y-42335D01*
X30984Y-42447D01*
X30961Y-42470D01*
X31040Y-42549D01*
X31053Y-42546D01*
X31066Y-42549D01*
X31145Y-42470D01*
X31145Y-42581D01*
X31121Y-42605D01*
X31129Y-42636D01*
X31197Y-42651D01*
X31267Y-42638D01*
X31272Y-42636D01*
X31279Y-42605D01*
X31279Y-42696D01*
X30984Y-42696D01*
X30984Y-42605D01*
X30905Y-42526D01*
X30849Y-42581D01*
X30849Y-42470D01*
X30770Y-42391D01*
X30757Y-42394D01*
X30744Y-42391D01*
X30689Y-42447D01*
X30689Y-42335D01*
X30686Y-42322D01*
X30689Y-42309D01*
X30610Y-42230D01*
X30554Y-42286D01*
X30554Y-42175D01*
X30475Y-42096D01*
X30444Y-42103D01*
X30429Y-42172D01*
X30442Y-42241D01*
X30444Y-42246D01*
X30475Y-42254D01*
X30554Y-42175D01*
X30554Y-42286D01*
X30531Y-42309D01*
X30534Y-42322D01*
X30531Y-42335D01*
X30610Y-42414D01*
X30689Y-42335D01*
X30689Y-42447D01*
X30665Y-42470D01*
X30744Y-42549D01*
X30757Y-42546D01*
X30770Y-42549D01*
X30849Y-42470D01*
X30849Y-42581D01*
X30826Y-42605D01*
X30833Y-42636D01*
X30902Y-42651D01*
X30971Y-42638D01*
X30977Y-42636D01*
X30984Y-42605D01*
X30984Y-42696D01*
X30689Y-42696D01*
X30689Y-42605D01*
X30610Y-42526D01*
X30554Y-42581D01*
X30554Y-42470D01*
X30475Y-42391D01*
X30444Y-42398D01*
X30429Y-42467D01*
X30442Y-42536D01*
X30444Y-42542D01*
X30475Y-42549D01*
X30554Y-42470D01*
X30554Y-42581D01*
X30531Y-42605D01*
X30538Y-42636D01*
X30607Y-42651D01*
X30676Y-42638D01*
X30682Y-42636D01*
X30689Y-42605D01*
X30689Y-42696D01*
X30137Y-42696D01*
X30137Y-28759D01*
X73420Y-28759D01*
X74985Y-29542D01*
X75767Y-31107D01*
X75767Y-36594D01*
X75767Y-36594D01*
G37*
G54D20*
X75767Y-36594D02*
X75452Y-36594D01*
X75452Y-36169D01*
X75413Y-36075D01*
X75361Y-36023D01*
X75413Y-35971D01*
X75452Y-35877D01*
X75452Y-35776D01*
X75413Y-35682D01*
X75341Y-35609D01*
X75247Y-35570D01*
X75146Y-35570D01*
X75052Y-35609D01*
X74999Y-35661D01*
X74948Y-35609D01*
X74854Y-35570D01*
X74752Y-35570D01*
X74658Y-35609D01*
X74606Y-35661D01*
X74554Y-35609D01*
X74460Y-35570D01*
X74358Y-35570D01*
X74264Y-35609D01*
X74192Y-35681D01*
X74153Y-35775D01*
X74153Y-35877D01*
X74192Y-35971D01*
X74244Y-36023D01*
X74192Y-36075D01*
X74153Y-36169D01*
X74153Y-36271D01*
X74192Y-36365D01*
X74264Y-36437D01*
X74358Y-36476D01*
X74460Y-36476D01*
X74554Y-36437D01*
X74606Y-36385D01*
X74658Y-36437D01*
X74752Y-36476D01*
X74853Y-36476D01*
X74947Y-36437D01*
X75000Y-36385D01*
X75051Y-36437D01*
X75145Y-36476D01*
X75247Y-36476D01*
X75341Y-36437D01*
X75413Y-36365D01*
X75452Y-36271D01*
X75452Y-36169D01*
X75452Y-36594D01*
X73779Y-36594D01*
X73779Y-33709D01*
X73740Y-33615D01*
X73688Y-33562D01*
X73740Y-33511D01*
X73779Y-33417D01*
X73779Y-33315D01*
X73740Y-33221D01*
X73688Y-33169D01*
X73740Y-33117D01*
X73779Y-33023D01*
X73779Y-32921D01*
X73740Y-32827D01*
X73668Y-32755D01*
X73574Y-32716D01*
X73472Y-32716D01*
X73378Y-32755D01*
X73326Y-32807D01*
X73275Y-32755D01*
X73181Y-32716D01*
X73079Y-32716D01*
X72985Y-32755D01*
X72913Y-32827D01*
X72874Y-32921D01*
X72873Y-33023D01*
X72912Y-33117D01*
X72964Y-33169D01*
X72913Y-33220D01*
X72874Y-33315D01*
X72873Y-33416D01*
X72912Y-33510D01*
X72964Y-33563D01*
X72913Y-33614D01*
X72874Y-33708D01*
X72873Y-33810D01*
X72912Y-33904D01*
X72984Y-33976D01*
X73078Y-34015D01*
X73180Y-34015D01*
X73274Y-33976D01*
X73326Y-33924D01*
X73378Y-33976D01*
X73472Y-34015D01*
X73574Y-34015D01*
X73668Y-33976D01*
X73740Y-33904D01*
X73779Y-33810D01*
X73779Y-33709D01*
X73779Y-36594D01*
X72755Y-36594D01*
X72755Y-29976D01*
X72723Y-29897D01*
X72662Y-29836D01*
X72582Y-29803D01*
X72496Y-29803D01*
X72416Y-29836D01*
X72355Y-29896D01*
X72322Y-29976D01*
X72322Y-30062D01*
X72355Y-30142D01*
X72416Y-30203D01*
X72496Y-30236D01*
X72582Y-30236D01*
X72661Y-30203D01*
X72722Y-30142D01*
X72755Y-30062D01*
X72755Y-29976D01*
X72755Y-36594D01*
X71028Y-36594D01*
X71028Y-29726D01*
X70918Y-29460D01*
X70715Y-29257D01*
X70449Y-29146D01*
X70161Y-29146D01*
X69895Y-29256D01*
X69692Y-29459D01*
X69581Y-29725D01*
X69581Y-30013D01*
X69691Y-30279D01*
X69894Y-30483D01*
X70160Y-30593D01*
X70448Y-30593D01*
X70714Y-30483D01*
X70918Y-30280D01*
X71028Y-30014D01*
X71028Y-29726D01*
X71028Y-36594D01*
X70295Y-36594D01*
X70295Y-31453D01*
X70262Y-31373D01*
X70201Y-31312D01*
X70122Y-31279D01*
X70035Y-31279D01*
X69956Y-31312D01*
X69895Y-31373D01*
X69862Y-31452D01*
X69862Y-31538D01*
X69895Y-31618D01*
X69955Y-31679D01*
X70035Y-31712D01*
X70121Y-31712D01*
X70201Y-31679D01*
X70262Y-31618D01*
X70295Y-31539D01*
X70295Y-31453D01*
X70295Y-36594D01*
X70039Y-36594D01*
X70039Y-32232D01*
X70000Y-32138D01*
X69928Y-32066D01*
X69834Y-32027D01*
X69732Y-32027D01*
X69638Y-32066D01*
X69566Y-32138D01*
X69527Y-32232D01*
X69527Y-32334D01*
X69566Y-32428D01*
X69638Y-32500D01*
X69732Y-32539D01*
X69834Y-32539D01*
X69928Y-32500D01*
X70000Y-32428D01*
X70039Y-32334D01*
X70039Y-32232D01*
X70039Y-36594D01*
X69350Y-36594D01*
X69350Y-31740D01*
X69311Y-31646D01*
X69239Y-31574D01*
X69145Y-31535D01*
X69043Y-31535D01*
X68949Y-31574D01*
X68877Y-31646D01*
X68838Y-31740D01*
X68838Y-31842D01*
X68877Y-31936D01*
X68949Y-32008D01*
X69043Y-32047D01*
X69145Y-32047D01*
X69239Y-32008D01*
X69311Y-31936D01*
X69350Y-31842D01*
X69350Y-31740D01*
X69350Y-36594D01*
X68741Y-36594D01*
X68741Y-30434D01*
X68741Y-29434D01*
X68733Y-29262D01*
X68684Y-29143D01*
X68626Y-29104D01*
X68570Y-29160D01*
X68570Y-29048D01*
X68531Y-28991D01*
X68369Y-28933D01*
X68197Y-28941D01*
X68078Y-28991D01*
X68039Y-29048D01*
X68305Y-29314D01*
X68570Y-29048D01*
X68570Y-29160D01*
X68360Y-29370D01*
X68626Y-29635D01*
X68684Y-29596D01*
X68741Y-29434D01*
X68741Y-30434D01*
X68733Y-30262D01*
X68684Y-30143D01*
X68626Y-30104D01*
X68570Y-30160D01*
X68570Y-30048D01*
X68570Y-29691D01*
X68305Y-29425D01*
X68249Y-29481D01*
X68249Y-29370D01*
X67983Y-29104D01*
X67926Y-29143D01*
X67868Y-29305D01*
X67876Y-29477D01*
X67926Y-29596D01*
X67983Y-29635D01*
X68249Y-29370D01*
X68249Y-29481D01*
X68039Y-29691D01*
X68078Y-29749D01*
X68240Y-29806D01*
X68412Y-29798D01*
X68531Y-29749D01*
X68570Y-29691D01*
X68570Y-30048D01*
X68531Y-29991D01*
X68369Y-29933D01*
X68197Y-29941D01*
X68078Y-29991D01*
X68039Y-30048D01*
X68305Y-30314D01*
X68570Y-30048D01*
X68570Y-30160D01*
X68360Y-30370D01*
X68626Y-30635D01*
X68684Y-30596D01*
X68741Y-30434D01*
X68741Y-36594D01*
X68661Y-36594D01*
X68661Y-32232D01*
X68622Y-32138D01*
X68570Y-32086D01*
X68570Y-30691D01*
X68305Y-30425D01*
X68249Y-30481D01*
X68249Y-30370D01*
X67983Y-30104D01*
X67926Y-30143D01*
X67868Y-30305D01*
X67876Y-30477D01*
X67926Y-30596D01*
X67983Y-30635D01*
X68249Y-30370D01*
X68249Y-30481D01*
X68039Y-30691D01*
X68078Y-30749D01*
X68240Y-30806D01*
X68412Y-30798D01*
X68531Y-30749D01*
X68570Y-30691D01*
X68570Y-32086D01*
X68550Y-32066D01*
X68456Y-32027D01*
X68354Y-32027D01*
X68260Y-32066D01*
X68188Y-32138D01*
X68149Y-32232D01*
X68149Y-32334D01*
X68188Y-32428D01*
X68260Y-32500D01*
X68354Y-32539D01*
X68456Y-32539D01*
X68550Y-32500D01*
X68622Y-32428D01*
X68661Y-32334D01*
X68661Y-32232D01*
X68661Y-36594D01*
X68563Y-36594D01*
X68563Y-34890D01*
X68524Y-34796D01*
X68452Y-34724D01*
X68358Y-34685D01*
X68256Y-34684D01*
X68162Y-34723D01*
X68090Y-34795D01*
X68051Y-34889D01*
X68051Y-34991D01*
X68090Y-35085D01*
X68161Y-35157D01*
X68255Y-35196D01*
X68357Y-35196D01*
X68451Y-35158D01*
X68523Y-35086D01*
X68562Y-34992D01*
X68563Y-34890D01*
X68563Y-36594D01*
X67972Y-36594D01*
X67972Y-35382D01*
X67933Y-35288D01*
X67861Y-35216D01*
X67767Y-35177D01*
X67738Y-35177D01*
X67738Y-30284D01*
X67738Y-29284D01*
X67672Y-29125D01*
X67550Y-29003D01*
X67391Y-28937D01*
X67219Y-28936D01*
X67060Y-29002D01*
X66938Y-29124D01*
X66872Y-29283D01*
X66871Y-29455D01*
X66937Y-29615D01*
X67059Y-29737D01*
X67218Y-29803D01*
X67390Y-29803D01*
X67550Y-29737D01*
X67672Y-29615D01*
X67738Y-29456D01*
X67738Y-29284D01*
X67738Y-30284D01*
X67672Y-30125D01*
X67550Y-30003D01*
X67391Y-29937D01*
X67219Y-29936D01*
X67060Y-30002D01*
X66938Y-30124D01*
X66872Y-30283D01*
X66871Y-30455D01*
X66937Y-30615D01*
X67059Y-30737D01*
X67218Y-30803D01*
X67390Y-30803D01*
X67550Y-30737D01*
X67672Y-30615D01*
X67738Y-30456D01*
X67738Y-30284D01*
X67738Y-35177D01*
X67665Y-35177D01*
X67571Y-35215D01*
X67499Y-35287D01*
X67460Y-35381D01*
X67460Y-35483D01*
X67499Y-35577D01*
X67571Y-35649D01*
X67665Y-35688D01*
X67767Y-35689D01*
X67861Y-35650D01*
X67933Y-35578D01*
X67972Y-35484D01*
X67972Y-35382D01*
X67972Y-36594D01*
X67893Y-36594D01*
X67893Y-43287D01*
X67500Y-43287D01*
X67500Y-47618D01*
X67381Y-47618D01*
X67381Y-34890D01*
X67343Y-34796D01*
X67271Y-34724D01*
X67177Y-34685D01*
X67075Y-34684D01*
X66981Y-34723D01*
X66909Y-34795D01*
X66870Y-34889D01*
X66870Y-34991D01*
X66908Y-35085D01*
X66980Y-35157D01*
X67074Y-35196D01*
X67176Y-35196D01*
X67270Y-35158D01*
X67342Y-35086D01*
X67381Y-34992D01*
X67381Y-34890D01*
X67381Y-47618D01*
X67283Y-47618D01*
X67283Y-37843D01*
X67244Y-37748D01*
X67172Y-37676D01*
X67102Y-37647D01*
X67172Y-37618D01*
X67244Y-37546D01*
X67283Y-37452D01*
X67283Y-37350D01*
X67244Y-37256D01*
X67172Y-37184D01*
X67078Y-37145D01*
X66976Y-37145D01*
X66882Y-37184D01*
X66810Y-37256D01*
X66771Y-37350D01*
X66771Y-37452D01*
X66810Y-37546D01*
X66882Y-37618D01*
X66952Y-37647D01*
X66882Y-37676D01*
X66810Y-37748D01*
X66771Y-37842D01*
X66771Y-37944D01*
X66810Y-38038D01*
X66882Y-38110D01*
X66976Y-38149D01*
X67078Y-38149D01*
X67172Y-38110D01*
X67244Y-38038D01*
X67283Y-37944D01*
X67283Y-37843D01*
X67283Y-47618D01*
X67047Y-47618D01*
X67047Y-38638D01*
X67014Y-38558D01*
X66953Y-38497D01*
X66873Y-38464D01*
X66787Y-38464D01*
X66738Y-38485D01*
X66738Y-30284D01*
X66738Y-29284D01*
X66672Y-29125D01*
X66550Y-29003D01*
X66391Y-28937D01*
X66219Y-28936D01*
X66060Y-29002D01*
X65938Y-29124D01*
X65872Y-29283D01*
X65871Y-29455D01*
X65937Y-29615D01*
X66059Y-29737D01*
X66218Y-29803D01*
X66390Y-29803D01*
X66550Y-29737D01*
X66672Y-29615D01*
X66738Y-29456D01*
X66738Y-29284D01*
X66738Y-30284D01*
X66672Y-30125D01*
X66550Y-30003D01*
X66391Y-29937D01*
X66219Y-29936D01*
X66060Y-30002D01*
X65938Y-30124D01*
X65872Y-30283D01*
X65871Y-30455D01*
X65937Y-30615D01*
X66059Y-30737D01*
X66218Y-30803D01*
X66390Y-30803D01*
X66550Y-30737D01*
X66672Y-30615D01*
X66738Y-30456D01*
X66738Y-30284D01*
X66738Y-38485D01*
X66708Y-38497D01*
X66647Y-38558D01*
X66614Y-38637D01*
X66614Y-38723D01*
X66647Y-38803D01*
X66707Y-38864D01*
X66787Y-38897D01*
X66873Y-38897D01*
X66953Y-38864D01*
X67014Y-38803D01*
X67047Y-38724D01*
X67047Y-38638D01*
X67047Y-47618D01*
X65925Y-47618D01*
X65925Y-48155D01*
X65872Y-48283D01*
X65871Y-48455D01*
X65925Y-48584D01*
X65925Y-49155D01*
X65872Y-49283D01*
X65871Y-49455D01*
X65925Y-49584D01*
X65925Y-49980D01*
X65738Y-49980D01*
X65738Y-49284D01*
X65738Y-48284D01*
X65738Y-30284D01*
X65738Y-29284D01*
X65672Y-29125D01*
X65550Y-29003D01*
X65391Y-28937D01*
X65219Y-28936D01*
X65060Y-29002D01*
X64938Y-29124D01*
X64872Y-29283D01*
X64871Y-29455D01*
X64937Y-29615D01*
X65059Y-29737D01*
X65218Y-29803D01*
X65390Y-29803D01*
X65550Y-29737D01*
X65672Y-29615D01*
X65738Y-29456D01*
X65738Y-29284D01*
X65738Y-30284D01*
X65672Y-30125D01*
X65550Y-30003D01*
X65391Y-29937D01*
X65219Y-29936D01*
X65060Y-30002D01*
X64938Y-30124D01*
X64872Y-30283D01*
X64871Y-30455D01*
X64937Y-30615D01*
X65059Y-30737D01*
X65218Y-30803D01*
X65390Y-30803D01*
X65550Y-30737D01*
X65672Y-30615D01*
X65738Y-30456D01*
X65738Y-30284D01*
X65738Y-48284D01*
X65708Y-48212D01*
X65708Y-45224D01*
X65669Y-45130D01*
X65617Y-45078D01*
X65669Y-45027D01*
X65708Y-44933D01*
X65708Y-44831D01*
X65669Y-44737D01*
X65617Y-44685D01*
X65669Y-44633D01*
X65708Y-44539D01*
X65708Y-44437D01*
X65669Y-44343D01*
X65617Y-44291D01*
X65669Y-44239D01*
X65708Y-44145D01*
X65708Y-44043D01*
X65669Y-43949D01*
X65597Y-43877D01*
X65511Y-43841D01*
X65511Y-39122D01*
X65472Y-39028D01*
X65401Y-38956D01*
X65330Y-38927D01*
X65400Y-38898D01*
X65472Y-38826D01*
X65511Y-38732D01*
X65511Y-38630D01*
X65511Y-37843D01*
X65472Y-37748D01*
X65401Y-37676D01*
X65330Y-37647D01*
X65400Y-37618D01*
X65472Y-37546D01*
X65511Y-37452D01*
X65511Y-37350D01*
X65472Y-37256D01*
X65401Y-37184D01*
X65307Y-37145D01*
X65205Y-37145D01*
X65177Y-37157D01*
X65177Y-35882D01*
X65177Y-35291D01*
X65144Y-35212D01*
X65083Y-35151D01*
X65003Y-35118D01*
X64917Y-35118D01*
X64838Y-35150D01*
X64777Y-35211D01*
X64744Y-35291D01*
X64744Y-35377D01*
X64776Y-35457D01*
X64837Y-35518D01*
X64917Y-35551D01*
X65003Y-35551D01*
X65083Y-35518D01*
X65144Y-35457D01*
X65177Y-35377D01*
X65177Y-35291D01*
X65177Y-35882D01*
X65144Y-35802D01*
X65083Y-35741D01*
X65003Y-35708D01*
X64917Y-35708D01*
X64838Y-35741D01*
X64777Y-35802D01*
X64744Y-35881D01*
X64744Y-35968D01*
X64776Y-36047D01*
X64837Y-36108D01*
X64917Y-36141D01*
X65003Y-36141D01*
X65083Y-36108D01*
X65144Y-36048D01*
X65177Y-35968D01*
X65177Y-35882D01*
X65177Y-37157D01*
X65111Y-37184D01*
X65039Y-37256D01*
X65000Y-37350D01*
X64999Y-37452D01*
X65038Y-37546D01*
X65110Y-37618D01*
X65181Y-37647D01*
X65111Y-37676D01*
X65039Y-37748D01*
X65000Y-37842D01*
X64999Y-37944D01*
X65038Y-38038D01*
X65110Y-38110D01*
X65204Y-38149D01*
X65306Y-38149D01*
X65400Y-38110D01*
X65472Y-38038D01*
X65511Y-37944D01*
X65511Y-37843D01*
X65511Y-38630D01*
X65472Y-38536D01*
X65401Y-38464D01*
X65307Y-38425D01*
X65205Y-38425D01*
X65111Y-38464D01*
X65039Y-38535D01*
X65000Y-38629D01*
X64999Y-38731D01*
X65038Y-38825D01*
X65110Y-38897D01*
X65181Y-38927D01*
X65111Y-38956D01*
X65039Y-39028D01*
X65000Y-39122D01*
X64999Y-39223D01*
X65038Y-39317D01*
X65110Y-39390D01*
X65204Y-39429D01*
X65306Y-39429D01*
X65400Y-39390D01*
X65472Y-39318D01*
X65511Y-39224D01*
X65511Y-39122D01*
X65511Y-43841D01*
X65503Y-43838D01*
X65402Y-43838D01*
X65307Y-43877D01*
X65255Y-43929D01*
X65204Y-43877D01*
X65110Y-43838D01*
X65008Y-43838D01*
X64914Y-43877D01*
X64842Y-43949D01*
X64803Y-44043D01*
X64803Y-44145D01*
X64841Y-44239D01*
X64894Y-44291D01*
X64842Y-44343D01*
X64803Y-44437D01*
X64803Y-44538D01*
X64841Y-44632D01*
X64894Y-44685D01*
X64842Y-44736D01*
X64803Y-44830D01*
X64803Y-44932D01*
X64841Y-45026D01*
X64894Y-45078D01*
X64842Y-45130D01*
X64803Y-45224D01*
X64803Y-45326D01*
X64841Y-45420D01*
X64913Y-45492D01*
X65007Y-45531D01*
X65109Y-45531D01*
X65203Y-45492D01*
X65255Y-45440D01*
X65307Y-45492D01*
X65401Y-45531D01*
X65503Y-45531D01*
X65597Y-45492D01*
X65669Y-45420D01*
X65708Y-45326D01*
X65708Y-45224D01*
X65708Y-48212D01*
X65672Y-48125D01*
X65550Y-48003D01*
X65391Y-47937D01*
X65219Y-47936D01*
X65060Y-48002D01*
X64938Y-48124D01*
X64872Y-48283D01*
X64871Y-48455D01*
X64937Y-48615D01*
X65059Y-48737D01*
X65218Y-48803D01*
X65390Y-48803D01*
X65550Y-48737D01*
X65672Y-48615D01*
X65738Y-48456D01*
X65738Y-48284D01*
X65738Y-49284D01*
X65672Y-49125D01*
X65550Y-49003D01*
X65391Y-48937D01*
X65219Y-48936D01*
X65060Y-49002D01*
X64938Y-49124D01*
X64872Y-49283D01*
X64871Y-49455D01*
X64937Y-49615D01*
X65059Y-49737D01*
X65218Y-49803D01*
X65390Y-49803D01*
X65550Y-49737D01*
X65672Y-49615D01*
X65738Y-49456D01*
X65738Y-49284D01*
X65738Y-49980D01*
X64738Y-49980D01*
X64738Y-49284D01*
X64738Y-48284D01*
X64738Y-30284D01*
X64738Y-29284D01*
X64672Y-29125D01*
X64550Y-29003D01*
X64391Y-28937D01*
X64219Y-28936D01*
X64060Y-29002D01*
X63938Y-29124D01*
X63872Y-29283D01*
X63871Y-29455D01*
X63937Y-29615D01*
X64059Y-29737D01*
X64218Y-29803D01*
X64390Y-29803D01*
X64550Y-29737D01*
X64672Y-29615D01*
X64738Y-29456D01*
X64738Y-29284D01*
X64738Y-30284D01*
X64672Y-30125D01*
X64550Y-30003D01*
X64391Y-29937D01*
X64219Y-29936D01*
X64060Y-30002D01*
X63938Y-30124D01*
X63872Y-30283D01*
X63871Y-30455D01*
X63937Y-30615D01*
X64059Y-30737D01*
X64218Y-30803D01*
X64390Y-30803D01*
X64550Y-30737D01*
X64672Y-30615D01*
X64738Y-30456D01*
X64738Y-30284D01*
X64738Y-48284D01*
X64672Y-48125D01*
X64550Y-48003D01*
X64391Y-47937D01*
X64389Y-47937D01*
X64389Y-40508D01*
X64389Y-38146D01*
X64389Y-36177D01*
X64389Y-33716D01*
X64356Y-33637D01*
X64296Y-33576D01*
X64216Y-33543D01*
X64130Y-33543D01*
X64050Y-33576D01*
X63989Y-33637D01*
X63956Y-33716D01*
X63956Y-33802D01*
X63989Y-33882D01*
X64050Y-33943D01*
X64129Y-33976D01*
X64216Y-33976D01*
X64295Y-33943D01*
X64356Y-33882D01*
X64389Y-33803D01*
X64389Y-33716D01*
X64389Y-36177D01*
X64356Y-36097D01*
X64296Y-36037D01*
X64216Y-36003D01*
X64130Y-36003D01*
X64050Y-36036D01*
X63996Y-36091D01*
X63996Y-35390D01*
X63963Y-35310D01*
X63902Y-35249D01*
X63822Y-35216D01*
X63738Y-35216D01*
X63738Y-30284D01*
X63738Y-29284D01*
X63672Y-29125D01*
X63550Y-29003D01*
X63391Y-28937D01*
X63219Y-28936D01*
X63060Y-29002D01*
X62938Y-29124D01*
X62872Y-29283D01*
X62871Y-29455D01*
X62937Y-29615D01*
X63059Y-29737D01*
X63218Y-29803D01*
X63390Y-29803D01*
X63550Y-29737D01*
X63672Y-29615D01*
X63738Y-29456D01*
X63738Y-29284D01*
X63738Y-30284D01*
X63672Y-30125D01*
X63550Y-30003D01*
X63391Y-29937D01*
X63219Y-29936D01*
X63060Y-30002D01*
X62938Y-30124D01*
X62872Y-30283D01*
X62871Y-30455D01*
X62937Y-30615D01*
X63059Y-30737D01*
X63218Y-30803D01*
X63390Y-30803D01*
X63550Y-30737D01*
X63672Y-30615D01*
X63738Y-30456D01*
X63738Y-30284D01*
X63738Y-35216D01*
X63736Y-35216D01*
X63657Y-35249D01*
X63596Y-35310D01*
X63563Y-35389D01*
X63562Y-35475D01*
X63595Y-35555D01*
X63656Y-35616D01*
X63736Y-35649D01*
X63822Y-35649D01*
X63902Y-35616D01*
X63962Y-35555D01*
X63996Y-35476D01*
X63996Y-35390D01*
X63996Y-36091D01*
X63989Y-36097D01*
X63956Y-36177D01*
X63956Y-36263D01*
X63989Y-36342D01*
X64050Y-36403D01*
X64129Y-36436D01*
X64216Y-36437D01*
X64295Y-36404D01*
X64356Y-36343D01*
X64389Y-36263D01*
X64389Y-36177D01*
X64389Y-38146D01*
X64356Y-38066D01*
X64296Y-38005D01*
X64216Y-37972D01*
X64130Y-37972D01*
X64050Y-38005D01*
X63989Y-38066D01*
X63956Y-38145D01*
X63956Y-38231D01*
X63989Y-38311D01*
X64050Y-38372D01*
X64129Y-38405D01*
X64216Y-38405D01*
X64295Y-38372D01*
X64356Y-38311D01*
X64389Y-38232D01*
X64389Y-38146D01*
X64389Y-40508D01*
X64356Y-40428D01*
X64296Y-40367D01*
X64216Y-40334D01*
X64130Y-40334D01*
X64050Y-40367D01*
X63996Y-40422D01*
X63996Y-39327D01*
X63963Y-39247D01*
X63902Y-39186D01*
X63822Y-39153D01*
X63736Y-39153D01*
X63657Y-39186D01*
X63602Y-39240D01*
X63602Y-38933D01*
X63602Y-38146D01*
X63569Y-38066D01*
X63508Y-38005D01*
X63429Y-37972D01*
X63342Y-37972D01*
X63263Y-38005D01*
X63208Y-38059D01*
X63208Y-36571D01*
X63175Y-36491D01*
X63114Y-36430D01*
X63035Y-36397D01*
X62949Y-36397D01*
X62869Y-36430D01*
X62808Y-36491D01*
X62795Y-36523D01*
X62782Y-36491D01*
X62721Y-36430D01*
X62689Y-36417D01*
X62720Y-36404D01*
X62781Y-36343D01*
X62814Y-36263D01*
X62814Y-36177D01*
X62814Y-35390D01*
X62782Y-35310D01*
X62738Y-35266D01*
X62738Y-30284D01*
X62738Y-29284D01*
X62672Y-29125D01*
X62550Y-29003D01*
X62391Y-28937D01*
X62219Y-28936D01*
X62060Y-29002D01*
X61938Y-29124D01*
X61872Y-29283D01*
X61871Y-29455D01*
X61937Y-29615D01*
X62059Y-29737D01*
X62218Y-29803D01*
X62390Y-29803D01*
X62550Y-29737D01*
X62672Y-29615D01*
X62738Y-29456D01*
X62738Y-29284D01*
X62738Y-30284D01*
X62672Y-30125D01*
X62550Y-30003D01*
X62391Y-29937D01*
X62219Y-29936D01*
X62060Y-30002D01*
X61938Y-30124D01*
X61872Y-30283D01*
X61871Y-30455D01*
X61937Y-30615D01*
X62059Y-30737D01*
X62218Y-30803D01*
X62390Y-30803D01*
X62550Y-30737D01*
X62672Y-30615D01*
X62738Y-30456D01*
X62738Y-30284D01*
X62738Y-35266D01*
X62721Y-35249D01*
X62641Y-35216D01*
X62555Y-35216D01*
X62475Y-35249D01*
X62414Y-35310D01*
X62401Y-35342D01*
X62388Y-35310D01*
X62327Y-35249D01*
X62295Y-35236D01*
X62327Y-35223D01*
X62388Y-35162D01*
X62421Y-35082D01*
X62421Y-34996D01*
X62421Y-34209D01*
X62388Y-34129D01*
X62327Y-34068D01*
X62247Y-34035D01*
X62161Y-34035D01*
X62082Y-34068D01*
X62021Y-34129D01*
X61988Y-34208D01*
X61988Y-34294D01*
X62021Y-34374D01*
X62081Y-34435D01*
X62161Y-34468D01*
X62247Y-34468D01*
X62327Y-34435D01*
X62388Y-34374D01*
X62421Y-34295D01*
X62421Y-34209D01*
X62421Y-34996D01*
X62388Y-34916D01*
X62327Y-34855D01*
X62247Y-34822D01*
X62161Y-34822D01*
X62082Y-34855D01*
X62021Y-34916D01*
X61988Y-34996D01*
X61988Y-35082D01*
X62021Y-35161D01*
X62081Y-35222D01*
X62114Y-35236D01*
X62082Y-35249D01*
X62021Y-35310D01*
X61988Y-35389D01*
X61988Y-35475D01*
X62021Y-35555D01*
X62081Y-35616D01*
X62161Y-35649D01*
X62247Y-35649D01*
X62327Y-35616D01*
X62388Y-35555D01*
X62401Y-35523D01*
X62414Y-35555D01*
X62475Y-35616D01*
X62555Y-35649D01*
X62641Y-35649D01*
X62720Y-35616D01*
X62781Y-35555D01*
X62814Y-35476D01*
X62814Y-35390D01*
X62814Y-36177D01*
X62782Y-36097D01*
X62721Y-36037D01*
X62641Y-36003D01*
X62555Y-36003D01*
X62475Y-36036D01*
X62414Y-36097D01*
X62381Y-36177D01*
X62381Y-36263D01*
X62414Y-36342D01*
X62475Y-36403D01*
X62507Y-36417D01*
X62475Y-36430D01*
X62414Y-36491D01*
X62401Y-36523D01*
X62388Y-36491D01*
X62327Y-36430D01*
X62247Y-36397D01*
X62161Y-36397D01*
X62082Y-36430D01*
X62021Y-36491D01*
X62007Y-36523D01*
X61994Y-36491D01*
X61933Y-36430D01*
X61854Y-36397D01*
X61768Y-36397D01*
X61738Y-36409D01*
X61738Y-30284D01*
X61738Y-29284D01*
X61672Y-29125D01*
X61550Y-29003D01*
X61391Y-28937D01*
X61219Y-28936D01*
X61060Y-29002D01*
X60938Y-29124D01*
X60872Y-29283D01*
X60871Y-29455D01*
X60937Y-29615D01*
X61059Y-29737D01*
X61218Y-29803D01*
X61390Y-29803D01*
X61550Y-29737D01*
X61672Y-29615D01*
X61738Y-29456D01*
X61738Y-29284D01*
X61738Y-30284D01*
X61672Y-30125D01*
X61550Y-30003D01*
X61391Y-29937D01*
X61219Y-29936D01*
X61060Y-30002D01*
X60938Y-30124D01*
X60872Y-30283D01*
X60871Y-30455D01*
X60937Y-30615D01*
X61059Y-30737D01*
X61218Y-30803D01*
X61390Y-30803D01*
X61550Y-30737D01*
X61672Y-30615D01*
X61738Y-30456D01*
X61738Y-30284D01*
X61738Y-36409D01*
X61688Y-36430D01*
X61633Y-36485D01*
X61633Y-35783D01*
X61633Y-34996D01*
X61600Y-34916D01*
X61540Y-34855D01*
X61460Y-34822D01*
X61374Y-34822D01*
X61294Y-34855D01*
X61233Y-34916D01*
X61200Y-34996D01*
X61200Y-35082D01*
X61233Y-35161D01*
X61294Y-35222D01*
X61374Y-35255D01*
X61460Y-35255D01*
X61539Y-35223D01*
X61600Y-35162D01*
X61633Y-35082D01*
X61633Y-34996D01*
X61633Y-35783D01*
X61600Y-35704D01*
X61540Y-35643D01*
X61460Y-35610D01*
X61374Y-35610D01*
X61294Y-35643D01*
X61233Y-35703D01*
X61200Y-35783D01*
X61200Y-35869D01*
X61233Y-35949D01*
X61294Y-36010D01*
X61374Y-36043D01*
X61460Y-36043D01*
X61539Y-36010D01*
X61600Y-35949D01*
X61633Y-35870D01*
X61633Y-35783D01*
X61633Y-36485D01*
X61627Y-36491D01*
X61614Y-36523D01*
X61600Y-36491D01*
X61540Y-36430D01*
X61460Y-36397D01*
X61374Y-36397D01*
X61294Y-36430D01*
X61233Y-36491D01*
X61200Y-36570D01*
X61200Y-36657D01*
X61233Y-36736D01*
X61294Y-36797D01*
X61374Y-36830D01*
X61460Y-36830D01*
X61539Y-36797D01*
X61600Y-36736D01*
X61614Y-36704D01*
X61627Y-36736D01*
X61688Y-36797D01*
X61720Y-36811D01*
X61688Y-36824D01*
X61627Y-36885D01*
X61594Y-36964D01*
X61594Y-37050D01*
X61627Y-37130D01*
X61688Y-37191D01*
X61767Y-37224D01*
X61853Y-37224D01*
X61933Y-37191D01*
X61994Y-37130D01*
X62027Y-37051D01*
X62027Y-36964D01*
X61994Y-36885D01*
X61933Y-36824D01*
X61901Y-36811D01*
X61933Y-36797D01*
X61994Y-36736D01*
X62007Y-36704D01*
X62021Y-36736D01*
X62081Y-36797D01*
X62161Y-36830D01*
X62247Y-36830D01*
X62327Y-36797D01*
X62388Y-36736D01*
X62401Y-36704D01*
X62414Y-36736D01*
X62475Y-36797D01*
X62507Y-36811D01*
X62475Y-36824D01*
X62414Y-36885D01*
X62381Y-36964D01*
X62381Y-37050D01*
X62414Y-37130D01*
X62475Y-37191D01*
X62555Y-37224D01*
X62641Y-37224D01*
X62720Y-37191D01*
X62781Y-37130D01*
X62814Y-37051D01*
X62814Y-36964D01*
X62782Y-36885D01*
X62721Y-36824D01*
X62689Y-36811D01*
X62720Y-36797D01*
X62781Y-36736D01*
X62795Y-36704D01*
X62808Y-36736D01*
X62869Y-36797D01*
X62948Y-36830D01*
X63035Y-36830D01*
X63114Y-36797D01*
X63175Y-36736D01*
X63208Y-36657D01*
X63208Y-36571D01*
X63208Y-38059D01*
X63202Y-38066D01*
X63169Y-38145D01*
X63169Y-38231D01*
X63202Y-38311D01*
X63263Y-38372D01*
X63342Y-38405D01*
X63428Y-38405D01*
X63508Y-38372D01*
X63569Y-38311D01*
X63602Y-38232D01*
X63602Y-38146D01*
X63602Y-38933D01*
X63569Y-38853D01*
X63508Y-38792D01*
X63429Y-38759D01*
X63342Y-38759D01*
X63263Y-38792D01*
X63202Y-38853D01*
X63169Y-38933D01*
X63169Y-39019D01*
X63202Y-39098D01*
X63263Y-39159D01*
X63342Y-39192D01*
X63428Y-39192D01*
X63508Y-39160D01*
X63569Y-39099D01*
X63602Y-39019D01*
X63602Y-38933D01*
X63602Y-39240D01*
X63596Y-39247D01*
X63563Y-39326D01*
X63562Y-39412D01*
X63595Y-39492D01*
X63656Y-39553D01*
X63736Y-39586D01*
X63822Y-39586D01*
X63902Y-39553D01*
X63962Y-39492D01*
X63996Y-39413D01*
X63996Y-39327D01*
X63996Y-40422D01*
X63989Y-40428D01*
X63956Y-40507D01*
X63956Y-40594D01*
X63989Y-40673D01*
X64050Y-40734D01*
X64129Y-40767D01*
X64216Y-40767D01*
X64295Y-40734D01*
X64356Y-40673D01*
X64389Y-40594D01*
X64389Y-40508D01*
X64389Y-47937D01*
X64291Y-47936D01*
X64291Y-41000D01*
X64258Y-40920D01*
X64197Y-40859D01*
X64118Y-40826D01*
X64031Y-40826D01*
X63952Y-40859D01*
X63891Y-40920D01*
X63858Y-41000D01*
X63858Y-41086D01*
X63891Y-41165D01*
X63951Y-41226D01*
X64031Y-41259D01*
X64117Y-41259D01*
X64197Y-41226D01*
X64258Y-41166D01*
X64291Y-41086D01*
X64291Y-41000D01*
X64291Y-47936D01*
X64219Y-47936D01*
X64060Y-48002D01*
X63938Y-48124D01*
X63872Y-48283D01*
X63871Y-48455D01*
X63937Y-48615D01*
X64059Y-48737D01*
X64218Y-48803D01*
X64390Y-48803D01*
X64550Y-48737D01*
X64672Y-48615D01*
X64738Y-48456D01*
X64738Y-48284D01*
X64738Y-49284D01*
X64672Y-49125D01*
X64550Y-49003D01*
X64391Y-48937D01*
X64219Y-48936D01*
X64060Y-49002D01*
X63938Y-49124D01*
X63872Y-49283D01*
X63871Y-49455D01*
X63937Y-49615D01*
X64059Y-49737D01*
X64218Y-49803D01*
X64390Y-49803D01*
X64550Y-49737D01*
X64672Y-49615D01*
X64738Y-49456D01*
X64738Y-49284D01*
X64738Y-49980D01*
X63738Y-49980D01*
X63738Y-49284D01*
X63738Y-48284D01*
X63672Y-48125D01*
X63550Y-48003D01*
X63391Y-47937D01*
X63219Y-47936D01*
X63060Y-48002D01*
X62938Y-48124D01*
X62872Y-48283D01*
X62871Y-48455D01*
X62937Y-48615D01*
X63059Y-48737D01*
X63218Y-48803D01*
X63390Y-48803D01*
X63550Y-48737D01*
X63672Y-48615D01*
X63738Y-48456D01*
X63738Y-48284D01*
X63738Y-49284D01*
X63672Y-49125D01*
X63550Y-49003D01*
X63391Y-48937D01*
X63219Y-48936D01*
X63060Y-49002D01*
X62938Y-49124D01*
X62872Y-49283D01*
X62871Y-49455D01*
X62937Y-49615D01*
X63059Y-49737D01*
X63218Y-49803D01*
X63390Y-49803D01*
X63550Y-49737D01*
X63672Y-49615D01*
X63738Y-49456D01*
X63738Y-49284D01*
X63738Y-49980D01*
X62814Y-49980D01*
X62814Y-39720D01*
X62782Y-39641D01*
X62721Y-39580D01*
X62641Y-39547D01*
X62555Y-39547D01*
X62475Y-39580D01*
X62421Y-39634D01*
X62421Y-38539D01*
X62421Y-37752D01*
X62388Y-37672D01*
X62327Y-37611D01*
X62247Y-37578D01*
X62161Y-37578D01*
X62082Y-37611D01*
X62021Y-37672D01*
X61988Y-37752D01*
X61988Y-37838D01*
X62021Y-37917D01*
X62081Y-37978D01*
X62161Y-38011D01*
X62247Y-38011D01*
X62327Y-37978D01*
X62388Y-37918D01*
X62421Y-37838D01*
X62421Y-37752D01*
X62421Y-38539D01*
X62388Y-38460D01*
X62327Y-38399D01*
X62247Y-38366D01*
X62161Y-38366D01*
X62082Y-38399D01*
X62021Y-38459D01*
X61988Y-38539D01*
X61988Y-38625D01*
X62021Y-38705D01*
X62081Y-38766D01*
X62161Y-38799D01*
X62247Y-38799D01*
X62327Y-38766D01*
X62388Y-38705D01*
X62421Y-38625D01*
X62421Y-38539D01*
X62421Y-39634D01*
X62414Y-39640D01*
X62381Y-39720D01*
X62381Y-39806D01*
X62414Y-39886D01*
X62475Y-39947D01*
X62555Y-39980D01*
X62641Y-39980D01*
X62720Y-39947D01*
X62781Y-39886D01*
X62814Y-39807D01*
X62814Y-39720D01*
X62814Y-49980D01*
X62738Y-49980D01*
X62738Y-49284D01*
X62738Y-48284D01*
X62672Y-48125D01*
X62550Y-48003D01*
X62391Y-47937D01*
X62219Y-47936D01*
X62060Y-48002D01*
X61938Y-48124D01*
X61872Y-48283D01*
X61871Y-48455D01*
X61937Y-48615D01*
X62059Y-48737D01*
X62218Y-48803D01*
X62390Y-48803D01*
X62550Y-48737D01*
X62672Y-48615D01*
X62738Y-48456D01*
X62738Y-48284D01*
X62738Y-49284D01*
X62672Y-49125D01*
X62550Y-49003D01*
X62391Y-48937D01*
X62219Y-48936D01*
X62060Y-49002D01*
X61938Y-49124D01*
X61872Y-49283D01*
X61871Y-49455D01*
X61937Y-49615D01*
X62059Y-49737D01*
X62218Y-49803D01*
X62390Y-49803D01*
X62550Y-49737D01*
X62672Y-49615D01*
X62738Y-49456D01*
X62738Y-49284D01*
X62738Y-49980D01*
X61738Y-49980D01*
X61738Y-49284D01*
X61738Y-48284D01*
X61672Y-48125D01*
X61633Y-48086D01*
X61633Y-39720D01*
X61633Y-38146D01*
X61600Y-38066D01*
X61540Y-38005D01*
X61460Y-37972D01*
X61374Y-37972D01*
X61294Y-38005D01*
X61233Y-38066D01*
X61200Y-38145D01*
X61200Y-38231D01*
X61233Y-38311D01*
X61294Y-38372D01*
X61374Y-38405D01*
X61460Y-38405D01*
X61539Y-38372D01*
X61600Y-38311D01*
X61633Y-38232D01*
X61633Y-38146D01*
X61633Y-39720D01*
X61600Y-39641D01*
X61540Y-39580D01*
X61460Y-39547D01*
X61374Y-39547D01*
X61294Y-39580D01*
X61233Y-39640D01*
X61200Y-39720D01*
X61200Y-39806D01*
X61233Y-39886D01*
X61294Y-39947D01*
X61374Y-39980D01*
X61460Y-39980D01*
X61539Y-39947D01*
X61600Y-39886D01*
X61633Y-39807D01*
X61633Y-39720D01*
X61633Y-48086D01*
X61550Y-48003D01*
X61391Y-47937D01*
X61219Y-47936D01*
X61141Y-47968D01*
X61141Y-33716D01*
X61108Y-33637D01*
X61048Y-33576D01*
X60968Y-33543D01*
X60882Y-33543D01*
X60802Y-33576D01*
X60741Y-33637D01*
X60738Y-33645D01*
X60738Y-30284D01*
X60738Y-29284D01*
X60672Y-29125D01*
X60550Y-29003D01*
X60391Y-28937D01*
X60219Y-28936D01*
X60060Y-29002D01*
X59938Y-29124D01*
X59872Y-29283D01*
X59871Y-29455D01*
X59937Y-29615D01*
X60059Y-29737D01*
X60218Y-29803D01*
X60390Y-29803D01*
X60550Y-29737D01*
X60672Y-29615D01*
X60738Y-29456D01*
X60738Y-29284D01*
X60738Y-30284D01*
X60672Y-30125D01*
X60550Y-30003D01*
X60391Y-29937D01*
X60219Y-29936D01*
X60060Y-30002D01*
X59938Y-30124D01*
X59872Y-30283D01*
X59871Y-30455D01*
X59937Y-30615D01*
X60059Y-30737D01*
X60218Y-30803D01*
X60390Y-30803D01*
X60550Y-30737D01*
X60672Y-30615D01*
X60738Y-30456D01*
X60738Y-30284D01*
X60738Y-33645D01*
X60708Y-33716D01*
X60708Y-33802D01*
X60741Y-33882D01*
X60802Y-33943D01*
X60881Y-33976D01*
X60968Y-33976D01*
X61047Y-33943D01*
X61108Y-33882D01*
X61141Y-33803D01*
X61141Y-33716D01*
X61141Y-47968D01*
X61060Y-48002D01*
X60938Y-48124D01*
X60872Y-48283D01*
X60871Y-48455D01*
X60937Y-48615D01*
X61059Y-48737D01*
X61218Y-48803D01*
X61390Y-48803D01*
X61550Y-48737D01*
X61672Y-48615D01*
X61738Y-48456D01*
X61738Y-48284D01*
X61738Y-49284D01*
X61672Y-49125D01*
X61550Y-49003D01*
X61391Y-48937D01*
X61219Y-48936D01*
X61060Y-49002D01*
X60938Y-49124D01*
X60872Y-49283D01*
X60871Y-49455D01*
X60937Y-49615D01*
X61059Y-49737D01*
X61218Y-49803D01*
X61390Y-49803D01*
X61550Y-49737D01*
X61672Y-49615D01*
X61738Y-49456D01*
X61738Y-49284D01*
X61738Y-49980D01*
X60846Y-49980D01*
X60846Y-40508D01*
X60846Y-38146D01*
X60813Y-38066D01*
X60752Y-38005D01*
X60720Y-37992D01*
X60752Y-37978D01*
X60813Y-37918D01*
X60846Y-37838D01*
X60846Y-37752D01*
X60846Y-36964D01*
X60813Y-36885D01*
X60752Y-36824D01*
X60720Y-36811D01*
X60752Y-36797D01*
X60813Y-36736D01*
X60846Y-36657D01*
X60846Y-36571D01*
X60846Y-34602D01*
X60813Y-34523D01*
X60752Y-34462D01*
X60673Y-34429D01*
X60587Y-34429D01*
X60551Y-34443D01*
X60551Y-33716D01*
X60518Y-33637D01*
X60457Y-33576D01*
X60377Y-33543D01*
X60291Y-33543D01*
X60212Y-33576D01*
X60151Y-33637D01*
X60118Y-33716D01*
X60118Y-33802D01*
X60150Y-33882D01*
X60211Y-33943D01*
X60291Y-33976D01*
X60377Y-33976D01*
X60457Y-33943D01*
X60518Y-33882D01*
X60551Y-33803D01*
X60551Y-33716D01*
X60551Y-34443D01*
X60507Y-34461D01*
X60446Y-34522D01*
X60433Y-34555D01*
X60419Y-34523D01*
X60359Y-34462D01*
X60279Y-34429D01*
X60193Y-34429D01*
X60113Y-34461D01*
X60052Y-34522D01*
X60019Y-34602D01*
X60019Y-34688D01*
X60052Y-34768D01*
X60113Y-34829D01*
X60192Y-34862D01*
X60279Y-34862D01*
X60358Y-34829D01*
X60419Y-34768D01*
X60433Y-34736D01*
X60446Y-34768D01*
X60507Y-34829D01*
X60586Y-34862D01*
X60672Y-34862D01*
X60752Y-34829D01*
X60813Y-34768D01*
X60846Y-34688D01*
X60846Y-34602D01*
X60846Y-36571D01*
X60813Y-36491D01*
X60752Y-36430D01*
X60673Y-36397D01*
X60587Y-36397D01*
X60507Y-36430D01*
X60446Y-36491D01*
X60413Y-36570D01*
X60413Y-36657D01*
X60446Y-36736D01*
X60507Y-36797D01*
X60539Y-36811D01*
X60507Y-36824D01*
X60446Y-36885D01*
X60413Y-36964D01*
X60413Y-37050D01*
X60446Y-37130D01*
X60507Y-37191D01*
X60586Y-37224D01*
X60672Y-37224D01*
X60752Y-37191D01*
X60813Y-37130D01*
X60846Y-37051D01*
X60846Y-36964D01*
X60846Y-37752D01*
X60813Y-37672D01*
X60752Y-37611D01*
X60673Y-37578D01*
X60587Y-37578D01*
X60507Y-37611D01*
X60446Y-37672D01*
X60433Y-37704D01*
X60419Y-37672D01*
X60359Y-37611D01*
X60279Y-37578D01*
X60193Y-37578D01*
X60113Y-37611D01*
X60059Y-37666D01*
X60059Y-36964D01*
X60059Y-36177D01*
X60059Y-34996D01*
X60026Y-34916D01*
X59965Y-34855D01*
X59885Y-34822D01*
X59799Y-34822D01*
X59738Y-34848D01*
X59738Y-30284D01*
X59738Y-29284D01*
X59672Y-29125D01*
X59550Y-29003D01*
X59391Y-28937D01*
X59219Y-28936D01*
X59060Y-29002D01*
X58938Y-29124D01*
X58872Y-29283D01*
X58871Y-29455D01*
X58937Y-29615D01*
X59059Y-29737D01*
X59218Y-29803D01*
X59390Y-29803D01*
X59550Y-29737D01*
X59672Y-29615D01*
X59738Y-29456D01*
X59738Y-29284D01*
X59738Y-30284D01*
X59672Y-30125D01*
X59550Y-30003D01*
X59391Y-29937D01*
X59219Y-29936D01*
X59060Y-30002D01*
X58938Y-30124D01*
X58872Y-30283D01*
X58871Y-30455D01*
X58937Y-30615D01*
X59059Y-30737D01*
X59218Y-30803D01*
X59390Y-30803D01*
X59550Y-30737D01*
X59672Y-30615D01*
X59738Y-30456D01*
X59738Y-30284D01*
X59738Y-34848D01*
X59720Y-34855D01*
X59659Y-34916D01*
X59626Y-34996D01*
X59625Y-35082D01*
X59658Y-35161D01*
X59719Y-35222D01*
X59799Y-35255D01*
X59885Y-35255D01*
X59965Y-35223D01*
X60025Y-35162D01*
X60059Y-35082D01*
X60059Y-34996D01*
X60059Y-36177D01*
X60026Y-36097D01*
X59965Y-36037D01*
X59885Y-36003D01*
X59799Y-36003D01*
X59720Y-36036D01*
X59659Y-36097D01*
X59626Y-36177D01*
X59625Y-36263D01*
X59658Y-36342D01*
X59719Y-36403D01*
X59799Y-36436D01*
X59885Y-36437D01*
X59965Y-36404D01*
X60025Y-36343D01*
X60059Y-36263D01*
X60059Y-36177D01*
X60059Y-36964D01*
X60026Y-36885D01*
X59965Y-36824D01*
X59885Y-36791D01*
X59799Y-36791D01*
X59720Y-36824D01*
X59665Y-36878D01*
X59665Y-36571D01*
X59632Y-36491D01*
X59571Y-36430D01*
X59492Y-36397D01*
X59468Y-36397D01*
X59468Y-32043D01*
X59435Y-31964D01*
X59374Y-31903D01*
X59295Y-31870D01*
X59209Y-31870D01*
X59129Y-31902D01*
X59068Y-31963D01*
X59035Y-32043D01*
X59035Y-32129D01*
X59068Y-32209D01*
X59129Y-32270D01*
X59208Y-32303D01*
X59294Y-32303D01*
X59374Y-32270D01*
X59435Y-32209D01*
X59468Y-32129D01*
X59468Y-32043D01*
X59468Y-36397D01*
X59405Y-36397D01*
X59326Y-36430D01*
X59271Y-36485D01*
X59271Y-35390D01*
X59238Y-35310D01*
X59177Y-35249D01*
X59098Y-35216D01*
X59012Y-35216D01*
X58932Y-35249D01*
X58871Y-35310D01*
X58838Y-35389D01*
X58838Y-35475D01*
X58871Y-35555D01*
X58932Y-35616D01*
X59011Y-35649D01*
X59098Y-35649D01*
X59177Y-35616D01*
X59238Y-35555D01*
X59271Y-35476D01*
X59271Y-35390D01*
X59271Y-36485D01*
X59265Y-36491D01*
X59232Y-36570D01*
X59232Y-36657D01*
X59265Y-36736D01*
X59326Y-36797D01*
X59405Y-36830D01*
X59491Y-36830D01*
X59571Y-36797D01*
X59632Y-36736D01*
X59665Y-36657D01*
X59665Y-36571D01*
X59665Y-36878D01*
X59659Y-36885D01*
X59626Y-36964D01*
X59625Y-37050D01*
X59658Y-37130D01*
X59719Y-37191D01*
X59799Y-37224D01*
X59885Y-37224D01*
X59965Y-37191D01*
X60025Y-37130D01*
X60059Y-37051D01*
X60059Y-36964D01*
X60059Y-37666D01*
X60052Y-37672D01*
X60019Y-37752D01*
X60019Y-37838D01*
X60052Y-37917D01*
X60113Y-37978D01*
X60192Y-38011D01*
X60279Y-38011D01*
X60358Y-37978D01*
X60419Y-37918D01*
X60433Y-37885D01*
X60446Y-37917D01*
X60507Y-37978D01*
X60539Y-37992D01*
X60507Y-38005D01*
X60446Y-38066D01*
X60413Y-38145D01*
X60413Y-38231D01*
X60446Y-38311D01*
X60507Y-38372D01*
X60586Y-38405D01*
X60672Y-38405D01*
X60752Y-38372D01*
X60813Y-38311D01*
X60846Y-38232D01*
X60846Y-38146D01*
X60846Y-40508D01*
X60813Y-40428D01*
X60752Y-40367D01*
X60673Y-40334D01*
X60587Y-40334D01*
X60507Y-40367D01*
X60446Y-40428D01*
X60413Y-40507D01*
X60413Y-40594D01*
X60446Y-40673D01*
X60507Y-40734D01*
X60586Y-40767D01*
X60672Y-40767D01*
X60752Y-40734D01*
X60813Y-40673D01*
X60846Y-40594D01*
X60846Y-40508D01*
X60846Y-49980D01*
X60738Y-49980D01*
X60738Y-49284D01*
X60738Y-48284D01*
X60689Y-48165D01*
X60689Y-46209D01*
X60650Y-46115D01*
X60578Y-46043D01*
X60484Y-46003D01*
X60456Y-46003D01*
X60492Y-45917D01*
X60492Y-45815D01*
X60453Y-45721D01*
X60381Y-45649D01*
X60287Y-45610D01*
X60185Y-45610D01*
X60091Y-45649D01*
X60059Y-45681D01*
X60059Y-41000D01*
X60059Y-40508D01*
X60059Y-39327D01*
X60059Y-38146D01*
X60026Y-38066D01*
X59965Y-38005D01*
X59885Y-37972D01*
X59799Y-37972D01*
X59720Y-38005D01*
X59659Y-38066D01*
X59645Y-38098D01*
X59632Y-38066D01*
X59571Y-38005D01*
X59539Y-37992D01*
X59571Y-37978D01*
X59632Y-37918D01*
X59665Y-37838D01*
X59665Y-37752D01*
X59632Y-37672D01*
X59571Y-37611D01*
X59492Y-37578D01*
X59405Y-37578D01*
X59326Y-37611D01*
X59265Y-37672D01*
X59251Y-37704D01*
X59238Y-37672D01*
X59177Y-37611D01*
X59098Y-37578D01*
X59012Y-37578D01*
X58932Y-37611D01*
X58877Y-37666D01*
X58877Y-36964D01*
X58877Y-35783D01*
X58845Y-35704D01*
X58784Y-35643D01*
X58738Y-35624D01*
X58738Y-30284D01*
X58738Y-29284D01*
X58672Y-29125D01*
X58550Y-29003D01*
X58391Y-28937D01*
X58219Y-28936D01*
X58060Y-29002D01*
X57938Y-29124D01*
X57872Y-29283D01*
X57871Y-29455D01*
X57937Y-29615D01*
X58059Y-29737D01*
X58218Y-29803D01*
X58390Y-29803D01*
X58550Y-29737D01*
X58672Y-29615D01*
X58738Y-29456D01*
X58738Y-29284D01*
X58738Y-30284D01*
X58672Y-30125D01*
X58550Y-30003D01*
X58391Y-29937D01*
X58219Y-29936D01*
X58060Y-30002D01*
X57938Y-30124D01*
X57872Y-30283D01*
X57871Y-30455D01*
X57937Y-30615D01*
X58059Y-30737D01*
X58218Y-30803D01*
X58390Y-30803D01*
X58550Y-30737D01*
X58672Y-30615D01*
X58738Y-30456D01*
X58738Y-30284D01*
X58738Y-35624D01*
X58704Y-35610D01*
X58618Y-35610D01*
X58538Y-35643D01*
X58477Y-35703D01*
X58444Y-35783D01*
X58444Y-35869D01*
X58477Y-35949D01*
X58538Y-36010D01*
X58618Y-36043D01*
X58704Y-36043D01*
X58783Y-36010D01*
X58844Y-35949D01*
X58877Y-35870D01*
X58877Y-35783D01*
X58877Y-36964D01*
X58845Y-36885D01*
X58784Y-36824D01*
X58704Y-36791D01*
X58618Y-36791D01*
X58538Y-36824D01*
X58477Y-36885D01*
X58444Y-36964D01*
X58444Y-37050D01*
X58477Y-37130D01*
X58538Y-37191D01*
X58618Y-37224D01*
X58704Y-37224D01*
X58783Y-37191D01*
X58844Y-37130D01*
X58877Y-37051D01*
X58877Y-36964D01*
X58877Y-37666D01*
X58871Y-37672D01*
X58838Y-37752D01*
X58838Y-37838D01*
X58871Y-37917D01*
X58932Y-37978D01*
X59011Y-38011D01*
X59098Y-38011D01*
X59177Y-37978D01*
X59238Y-37918D01*
X59251Y-37885D01*
X59265Y-37917D01*
X59326Y-37978D01*
X59358Y-37992D01*
X59326Y-38005D01*
X59265Y-38066D01*
X59232Y-38145D01*
X59232Y-38231D01*
X59265Y-38311D01*
X59326Y-38372D01*
X59405Y-38405D01*
X59491Y-38405D01*
X59571Y-38372D01*
X59632Y-38311D01*
X59645Y-38279D01*
X59658Y-38311D01*
X59719Y-38372D01*
X59799Y-38405D01*
X59885Y-38405D01*
X59965Y-38372D01*
X60025Y-38311D01*
X60059Y-38232D01*
X60059Y-38146D01*
X60059Y-39327D01*
X60026Y-39247D01*
X59965Y-39186D01*
X59885Y-39153D01*
X59799Y-39153D01*
X59720Y-39186D01*
X59659Y-39247D01*
X59626Y-39326D01*
X59625Y-39412D01*
X59658Y-39492D01*
X59719Y-39553D01*
X59799Y-39586D01*
X59885Y-39586D01*
X59965Y-39553D01*
X60025Y-39492D01*
X60059Y-39413D01*
X60059Y-39327D01*
X60059Y-40508D01*
X60026Y-40428D01*
X59965Y-40367D01*
X59885Y-40334D01*
X59799Y-40334D01*
X59720Y-40367D01*
X59659Y-40428D01*
X59626Y-40507D01*
X59625Y-40594D01*
X59658Y-40673D01*
X59719Y-40734D01*
X59799Y-40767D01*
X59885Y-40767D01*
X59965Y-40734D01*
X60025Y-40673D01*
X60059Y-40594D01*
X60059Y-40508D01*
X60059Y-41000D01*
X60026Y-40920D01*
X59965Y-40859D01*
X59885Y-40826D01*
X59799Y-40826D01*
X59720Y-40859D01*
X59659Y-40920D01*
X59626Y-41000D01*
X59625Y-41086D01*
X59658Y-41165D01*
X59719Y-41226D01*
X59799Y-41259D01*
X59885Y-41259D01*
X59965Y-41226D01*
X60025Y-41166D01*
X60059Y-41086D01*
X60059Y-41000D01*
X60059Y-45681D01*
X60019Y-45720D01*
X59980Y-45815D01*
X59980Y-45916D01*
X60019Y-46010D01*
X60091Y-46082D01*
X60185Y-46122D01*
X60213Y-46122D01*
X60177Y-46208D01*
X60177Y-46310D01*
X60215Y-46404D01*
X60287Y-46476D01*
X60381Y-46515D01*
X60483Y-46515D01*
X60577Y-46476D01*
X60649Y-46404D01*
X60688Y-46310D01*
X60689Y-46209D01*
X60689Y-48165D01*
X60672Y-48125D01*
X60550Y-48003D01*
X60391Y-47937D01*
X60219Y-47936D01*
X60060Y-48002D01*
X59938Y-48124D01*
X59872Y-48283D01*
X59871Y-48455D01*
X59937Y-48615D01*
X60059Y-48737D01*
X60218Y-48803D01*
X60390Y-48803D01*
X60550Y-48737D01*
X60672Y-48615D01*
X60738Y-48456D01*
X60738Y-48284D01*
X60738Y-49284D01*
X60672Y-49125D01*
X60550Y-49003D01*
X60391Y-48937D01*
X60219Y-48936D01*
X60060Y-49002D01*
X59938Y-49124D01*
X59872Y-49283D01*
X59871Y-49455D01*
X59937Y-49615D01*
X60059Y-49737D01*
X60218Y-49803D01*
X60390Y-49803D01*
X60550Y-49737D01*
X60672Y-49615D01*
X60738Y-49456D01*
X60738Y-49284D01*
X60738Y-49980D01*
X59738Y-49980D01*
X59738Y-49284D01*
X59738Y-48284D01*
X59672Y-48125D01*
X59550Y-48003D01*
X59391Y-47937D01*
X59219Y-47936D01*
X59060Y-48002D01*
X58938Y-48124D01*
X58877Y-48269D01*
X58877Y-39720D01*
X58845Y-39641D01*
X58784Y-39580D01*
X58704Y-39547D01*
X58618Y-39547D01*
X58538Y-39580D01*
X58477Y-39640D01*
X58444Y-39720D01*
X58444Y-39806D01*
X58477Y-39886D01*
X58538Y-39947D01*
X58618Y-39980D01*
X58704Y-39980D01*
X58783Y-39947D01*
X58844Y-39886D01*
X58877Y-39807D01*
X58877Y-39720D01*
X58877Y-48269D01*
X58872Y-48283D01*
X58871Y-48455D01*
X58937Y-48615D01*
X59059Y-48737D01*
X59218Y-48803D01*
X59390Y-48803D01*
X59550Y-48737D01*
X59672Y-48615D01*
X59738Y-48456D01*
X59738Y-48284D01*
X59738Y-49284D01*
X59672Y-49125D01*
X59550Y-49003D01*
X59391Y-48937D01*
X59219Y-48936D01*
X59060Y-49002D01*
X58938Y-49124D01*
X58872Y-49283D01*
X58871Y-49455D01*
X58937Y-49615D01*
X59059Y-49737D01*
X59218Y-49803D01*
X59390Y-49803D01*
X59550Y-49737D01*
X59672Y-49615D01*
X59738Y-49456D01*
X59738Y-49284D01*
X59738Y-49980D01*
X58738Y-49980D01*
X58738Y-49284D01*
X58738Y-48284D01*
X58672Y-48125D01*
X58550Y-48003D01*
X58391Y-47937D01*
X58219Y-47936D01*
X58090Y-47990D01*
X58090Y-38539D01*
X58090Y-36571D01*
X58090Y-34209D01*
X58057Y-34129D01*
X57996Y-34068D01*
X57917Y-34035D01*
X57831Y-34035D01*
X57751Y-34068D01*
X57738Y-34081D01*
X57738Y-30284D01*
X57738Y-29284D01*
X57672Y-29125D01*
X57550Y-29003D01*
X57391Y-28937D01*
X57219Y-28936D01*
X57060Y-29002D01*
X56938Y-29124D01*
X56872Y-29283D01*
X56871Y-29455D01*
X56937Y-29615D01*
X57059Y-29737D01*
X57218Y-29803D01*
X57390Y-29803D01*
X57550Y-29737D01*
X57672Y-29615D01*
X57738Y-29456D01*
X57738Y-29284D01*
X57738Y-30284D01*
X57672Y-30125D01*
X57550Y-30003D01*
X57391Y-29937D01*
X57219Y-29936D01*
X57060Y-30002D01*
X56938Y-30124D01*
X56872Y-30283D01*
X56871Y-30455D01*
X56937Y-30615D01*
X57059Y-30737D01*
X57218Y-30803D01*
X57390Y-30803D01*
X57550Y-30737D01*
X57672Y-30615D01*
X57738Y-30456D01*
X57738Y-30284D01*
X57738Y-34081D01*
X57690Y-34129D01*
X57657Y-34208D01*
X57657Y-34294D01*
X57690Y-34374D01*
X57751Y-34435D01*
X57830Y-34468D01*
X57916Y-34468D01*
X57996Y-34435D01*
X58057Y-34374D01*
X58090Y-34295D01*
X58090Y-34209D01*
X58090Y-36571D01*
X58057Y-36491D01*
X57996Y-36430D01*
X57917Y-36397D01*
X57831Y-36397D01*
X57751Y-36430D01*
X57690Y-36491D01*
X57657Y-36570D01*
X57657Y-36657D01*
X57690Y-36736D01*
X57751Y-36797D01*
X57830Y-36830D01*
X57916Y-36830D01*
X57996Y-36797D01*
X58057Y-36736D01*
X58090Y-36657D01*
X58090Y-36571D01*
X58090Y-38539D01*
X58057Y-38460D01*
X57996Y-38399D01*
X57917Y-38366D01*
X57831Y-38366D01*
X57751Y-38399D01*
X57690Y-38459D01*
X57657Y-38539D01*
X57657Y-38625D01*
X57690Y-38705D01*
X57751Y-38766D01*
X57830Y-38799D01*
X57916Y-38799D01*
X57996Y-38766D01*
X58057Y-38705D01*
X58090Y-38625D01*
X58090Y-38539D01*
X58090Y-47990D01*
X58060Y-48002D01*
X57938Y-48124D01*
X57872Y-48283D01*
X57871Y-48455D01*
X57937Y-48615D01*
X58059Y-48737D01*
X58218Y-48803D01*
X58390Y-48803D01*
X58550Y-48737D01*
X58672Y-48615D01*
X58738Y-48456D01*
X58738Y-48284D01*
X58738Y-49284D01*
X58672Y-49125D01*
X58550Y-49003D01*
X58391Y-48937D01*
X58219Y-48936D01*
X58060Y-49002D01*
X57938Y-49124D01*
X57872Y-49283D01*
X57871Y-49455D01*
X57937Y-49615D01*
X58059Y-49737D01*
X58218Y-49803D01*
X58390Y-49803D01*
X58550Y-49737D01*
X58672Y-49615D01*
X58738Y-49456D01*
X58738Y-49284D01*
X58738Y-49980D01*
X57738Y-49980D01*
X57738Y-49284D01*
X57738Y-48284D01*
X57672Y-48125D01*
X57598Y-48050D01*
X57598Y-39130D01*
X57598Y-37358D01*
X57598Y-34209D01*
X57565Y-34129D01*
X57504Y-34068D01*
X57425Y-34035D01*
X57339Y-34035D01*
X57259Y-34068D01*
X57198Y-34129D01*
X57165Y-34208D01*
X57165Y-34294D01*
X57198Y-34374D01*
X57259Y-34435D01*
X57338Y-34468D01*
X57424Y-34468D01*
X57504Y-34435D01*
X57565Y-34374D01*
X57598Y-34295D01*
X57598Y-34209D01*
X57598Y-37358D01*
X57565Y-37279D01*
X57504Y-37218D01*
X57425Y-37185D01*
X57339Y-37185D01*
X57259Y-37217D01*
X57198Y-37278D01*
X57165Y-37358D01*
X57165Y-37444D01*
X57198Y-37524D01*
X57259Y-37585D01*
X57338Y-37618D01*
X57424Y-37618D01*
X57504Y-37585D01*
X57565Y-37524D01*
X57598Y-37444D01*
X57598Y-37358D01*
X57598Y-39130D01*
X57565Y-39050D01*
X57504Y-38989D01*
X57425Y-38956D01*
X57339Y-38956D01*
X57259Y-38989D01*
X57198Y-39050D01*
X57165Y-39129D01*
X57165Y-39216D01*
X57198Y-39295D01*
X57259Y-39356D01*
X57338Y-39389D01*
X57424Y-39389D01*
X57504Y-39356D01*
X57565Y-39296D01*
X57598Y-39216D01*
X57598Y-39130D01*
X57598Y-48050D01*
X57550Y-48003D01*
X57391Y-47937D01*
X57342Y-47937D01*
X57342Y-47193D01*
X57303Y-47099D01*
X57231Y-47027D01*
X57137Y-46988D01*
X57035Y-46988D01*
X56941Y-47027D01*
X56869Y-47098D01*
X56830Y-47192D01*
X56830Y-47294D01*
X56869Y-47388D01*
X56941Y-47460D01*
X57035Y-47499D01*
X57137Y-47500D01*
X57231Y-47461D01*
X57303Y-47389D01*
X57342Y-47295D01*
X57342Y-47193D01*
X57342Y-47937D01*
X57219Y-47936D01*
X57060Y-48002D01*
X56938Y-48124D01*
X56872Y-48283D01*
X56871Y-48455D01*
X56937Y-48615D01*
X57059Y-48737D01*
X57218Y-48803D01*
X57390Y-48803D01*
X57550Y-48737D01*
X57672Y-48615D01*
X57738Y-48456D01*
X57738Y-48284D01*
X57738Y-49284D01*
X57672Y-49125D01*
X57550Y-49003D01*
X57391Y-48937D01*
X57219Y-48936D01*
X57060Y-49002D01*
X56938Y-49124D01*
X56872Y-49283D01*
X56871Y-49455D01*
X56937Y-49615D01*
X57059Y-49737D01*
X57218Y-49803D01*
X57390Y-49803D01*
X57550Y-49737D01*
X57672Y-49615D01*
X57738Y-49456D01*
X57738Y-49284D01*
X57738Y-49980D01*
X56738Y-49980D01*
X56738Y-49284D01*
X56738Y-48284D01*
X56738Y-30284D01*
X56738Y-29284D01*
X56672Y-29125D01*
X56550Y-29003D01*
X56391Y-28937D01*
X56219Y-28936D01*
X56060Y-29002D01*
X55938Y-29124D01*
X55872Y-29283D01*
X55871Y-29455D01*
X55937Y-29615D01*
X56059Y-29737D01*
X56218Y-29803D01*
X56390Y-29803D01*
X56550Y-29737D01*
X56672Y-29615D01*
X56738Y-29456D01*
X56738Y-29284D01*
X56738Y-30284D01*
X56672Y-30125D01*
X56550Y-30003D01*
X56391Y-29937D01*
X56219Y-29936D01*
X56060Y-30002D01*
X55938Y-30124D01*
X55872Y-30283D01*
X55871Y-30455D01*
X55937Y-30615D01*
X56059Y-30737D01*
X56218Y-30803D01*
X56390Y-30803D01*
X56550Y-30737D01*
X56672Y-30615D01*
X56738Y-30456D01*
X56738Y-30284D01*
X56738Y-48284D01*
X56672Y-48125D01*
X56555Y-48007D01*
X56555Y-46209D01*
X56516Y-46115D01*
X56444Y-46043D01*
X56350Y-46003D01*
X56248Y-46003D01*
X56213Y-46018D01*
X56220Y-46011D01*
X56259Y-45917D01*
X56259Y-45826D01*
X56349Y-45826D01*
X56443Y-45787D01*
X56516Y-45716D01*
X56555Y-45621D01*
X56555Y-45520D01*
X56516Y-45426D01*
X56444Y-45354D01*
X56350Y-45315D01*
X56248Y-45314D01*
X56220Y-45326D01*
X56220Y-32043D01*
X56187Y-31964D01*
X56126Y-31903D01*
X56047Y-31870D01*
X55961Y-31870D01*
X55881Y-31902D01*
X55820Y-31963D01*
X55787Y-32043D01*
X55787Y-32129D01*
X55820Y-32209D01*
X55881Y-32270D01*
X55960Y-32303D01*
X56046Y-32303D01*
X56126Y-32270D01*
X56187Y-32209D01*
X56220Y-32129D01*
X56220Y-32043D01*
X56220Y-45326D01*
X56154Y-45353D01*
X56082Y-45425D01*
X56043Y-45519D01*
X56043Y-45610D01*
X55953Y-45610D01*
X55859Y-45649D01*
X55787Y-45720D01*
X55748Y-45815D01*
X55747Y-45916D01*
X55786Y-46010D01*
X55858Y-46082D01*
X55952Y-46122D01*
X56054Y-46122D01*
X56089Y-46107D01*
X56082Y-46114D01*
X56043Y-46208D01*
X56043Y-46310D01*
X56082Y-46404D01*
X56154Y-46476D01*
X56248Y-46515D01*
X56349Y-46515D01*
X56443Y-46476D01*
X56516Y-46404D01*
X56555Y-46310D01*
X56555Y-46209D01*
X56555Y-48007D01*
X56550Y-48003D01*
X56391Y-47937D01*
X56219Y-47936D01*
X56060Y-48002D01*
X55938Y-48124D01*
X55872Y-48283D01*
X55871Y-48455D01*
X55937Y-48615D01*
X56059Y-48737D01*
X56218Y-48803D01*
X56390Y-48803D01*
X56550Y-48737D01*
X56672Y-48615D01*
X56738Y-48456D01*
X56738Y-48284D01*
X56738Y-49284D01*
X56672Y-49125D01*
X56550Y-49003D01*
X56391Y-48937D01*
X56219Y-48936D01*
X56060Y-49002D01*
X55938Y-49124D01*
X55872Y-49283D01*
X55871Y-49455D01*
X55937Y-49615D01*
X56059Y-49737D01*
X56218Y-49803D01*
X56390Y-49803D01*
X56550Y-49737D01*
X56672Y-49615D01*
X56738Y-49456D01*
X56738Y-49284D01*
X56738Y-49980D01*
X55462Y-49980D01*
X55462Y-42057D01*
X55410Y-41931D01*
X55374Y-41894D01*
X55374Y-30657D01*
X55335Y-30563D01*
X55263Y-30491D01*
X55169Y-30452D01*
X55067Y-30452D01*
X54973Y-30491D01*
X54901Y-30563D01*
X54862Y-30657D01*
X54862Y-30759D01*
X54876Y-30794D01*
X54869Y-30787D01*
X54775Y-30748D01*
X54673Y-30747D01*
X54579Y-30786D01*
X54572Y-30794D01*
X54586Y-30759D01*
X54586Y-30657D01*
X54547Y-30563D01*
X54475Y-30491D01*
X54381Y-30452D01*
X54280Y-30452D01*
X54252Y-30464D01*
X54252Y-29287D01*
X54219Y-29208D01*
X54158Y-29147D01*
X54078Y-29114D01*
X53992Y-29114D01*
X53912Y-29147D01*
X53851Y-29207D01*
X53818Y-29287D01*
X53818Y-29373D01*
X53851Y-29453D01*
X53912Y-29514D01*
X53992Y-29547D01*
X54078Y-29547D01*
X54157Y-29514D01*
X54218Y-29453D01*
X54251Y-29373D01*
X54252Y-29287D01*
X54252Y-30464D01*
X54185Y-30491D01*
X54113Y-30563D01*
X54074Y-30657D01*
X54074Y-30759D01*
X54113Y-30853D01*
X54185Y-30925D01*
X54279Y-30964D01*
X54381Y-30964D01*
X54475Y-30925D01*
X54482Y-30918D01*
X54468Y-30952D01*
X54468Y-31054D01*
X54507Y-31148D01*
X54579Y-31220D01*
X54673Y-31259D01*
X54775Y-31259D01*
X54869Y-31221D01*
X54941Y-31149D01*
X54980Y-31055D01*
X54980Y-30953D01*
X54966Y-30918D01*
X54972Y-30925D01*
X55066Y-30964D01*
X55168Y-30964D01*
X55262Y-30925D01*
X55334Y-30853D01*
X55373Y-30759D01*
X55374Y-30657D01*
X55374Y-41894D01*
X55313Y-41834D01*
X55186Y-41781D01*
X55049Y-41781D01*
X54923Y-41833D01*
X54826Y-41930D01*
X54773Y-42057D01*
X54773Y-42194D01*
X54825Y-42320D01*
X54922Y-42417D01*
X55049Y-42470D01*
X55186Y-42470D01*
X55312Y-42418D01*
X55409Y-42321D01*
X55462Y-42194D01*
X55462Y-42057D01*
X55462Y-49980D01*
X54872Y-49980D01*
X54872Y-42648D01*
X54819Y-42521D01*
X54722Y-42424D01*
X54596Y-42372D01*
X54459Y-42371D01*
X54332Y-42424D01*
X54235Y-42521D01*
X54183Y-42647D01*
X54183Y-42784D01*
X54235Y-42911D01*
X54332Y-43008D01*
X54458Y-43060D01*
X54595Y-43061D01*
X54722Y-43008D01*
X54819Y-42911D01*
X54871Y-42785D01*
X54872Y-42648D01*
X54872Y-49980D01*
X54281Y-49980D01*
X54281Y-43238D01*
X54229Y-43112D01*
X54132Y-43015D01*
X54005Y-42962D01*
X53868Y-42962D01*
X53742Y-43014D01*
X53645Y-43111D01*
X53592Y-43238D01*
X53592Y-43375D01*
X53644Y-43501D01*
X53741Y-43598D01*
X53868Y-43651D01*
X54005Y-43651D01*
X54131Y-43599D01*
X54228Y-43502D01*
X54281Y-43375D01*
X54281Y-43238D01*
X54281Y-49980D01*
X53011Y-49980D01*
X53011Y-33020D01*
X52972Y-32926D01*
X52901Y-32854D01*
X52807Y-32815D01*
X52705Y-32814D01*
X52611Y-32853D01*
X52539Y-32925D01*
X52500Y-33019D01*
X52499Y-33121D01*
X52538Y-33215D01*
X52610Y-33287D01*
X52704Y-33326D01*
X52806Y-33326D01*
X52900Y-33287D01*
X52972Y-33216D01*
X53011Y-33121D01*
X53011Y-33020D01*
X53011Y-49980D01*
X52322Y-49980D01*
X52322Y-38531D01*
X52322Y-36957D01*
X52284Y-36863D01*
X52212Y-36791D01*
X52118Y-36752D01*
X52016Y-36751D01*
X51922Y-36790D01*
X51889Y-36823D01*
X51889Y-31256D01*
X51856Y-31176D01*
X51830Y-31150D01*
X51830Y-30264D01*
X51791Y-30170D01*
X51719Y-30098D01*
X51625Y-30059D01*
X51524Y-30059D01*
X51430Y-30097D01*
X51357Y-30169D01*
X51318Y-30263D01*
X51318Y-30365D01*
X51357Y-30459D01*
X51429Y-30531D01*
X51523Y-30570D01*
X51625Y-30570D01*
X51719Y-30532D01*
X51791Y-30460D01*
X51830Y-30366D01*
X51830Y-30264D01*
X51830Y-31150D01*
X51796Y-31115D01*
X51716Y-31082D01*
X51630Y-31082D01*
X51550Y-31115D01*
X51489Y-31176D01*
X51456Y-31255D01*
X51456Y-31342D01*
X51489Y-31421D01*
X51550Y-31482D01*
X51629Y-31515D01*
X51716Y-31515D01*
X51795Y-31482D01*
X51856Y-31422D01*
X51889Y-31342D01*
X51889Y-31256D01*
X51889Y-36823D01*
X51850Y-36862D01*
X51811Y-36956D01*
X51810Y-37058D01*
X51849Y-37152D01*
X51921Y-37224D01*
X52015Y-37263D01*
X52117Y-37263D01*
X52211Y-37224D01*
X52283Y-37153D01*
X52322Y-37059D01*
X52322Y-36957D01*
X52322Y-38531D01*
X52284Y-38437D01*
X52212Y-38365D01*
X52118Y-38326D01*
X52016Y-38326D01*
X51922Y-38365D01*
X51850Y-38437D01*
X51811Y-38531D01*
X51810Y-38633D01*
X51849Y-38727D01*
X51921Y-38799D01*
X52015Y-38838D01*
X52117Y-38838D01*
X52211Y-38799D01*
X52283Y-38727D01*
X52322Y-38633D01*
X52322Y-38531D01*
X52322Y-49980D01*
X51830Y-49980D01*
X51830Y-45224D01*
X51791Y-45130D01*
X51719Y-45058D01*
X51625Y-45019D01*
X51524Y-45019D01*
X51430Y-45058D01*
X51357Y-45130D01*
X51318Y-45224D01*
X51318Y-45326D01*
X51333Y-45361D01*
X51326Y-45354D01*
X51232Y-45315D01*
X51130Y-45314D01*
X51036Y-45353D01*
X51028Y-45361D01*
X51043Y-45326D01*
X51043Y-45224D01*
X51004Y-45130D01*
X51003Y-45130D01*
X51003Y-44051D01*
X50971Y-43971D01*
X50910Y-43911D01*
X50830Y-43877D01*
X50744Y-43877D01*
X50664Y-43910D01*
X50603Y-43971D01*
X50570Y-44051D01*
X50570Y-44137D01*
X50603Y-44216D01*
X50664Y-44277D01*
X50744Y-44310D01*
X50830Y-44311D01*
X50909Y-44278D01*
X50970Y-44217D01*
X51003Y-44137D01*
X51003Y-44051D01*
X51003Y-45130D01*
X50932Y-45058D01*
X50838Y-45019D01*
X50736Y-45019D01*
X50642Y-45058D01*
X50570Y-45130D01*
X50531Y-45224D01*
X50531Y-45326D01*
X50570Y-45420D01*
X50642Y-45492D01*
X50736Y-45531D01*
X50838Y-45531D01*
X50932Y-45492D01*
X50939Y-45485D01*
X50925Y-45519D01*
X50925Y-45621D01*
X50964Y-45715D01*
X51035Y-45787D01*
X51129Y-45826D01*
X51231Y-45826D01*
X51325Y-45787D01*
X51397Y-45716D01*
X51436Y-45621D01*
X51437Y-45520D01*
X51422Y-45485D01*
X51429Y-45492D01*
X51523Y-45531D01*
X51625Y-45531D01*
X51719Y-45492D01*
X51791Y-45420D01*
X51830Y-45326D01*
X51830Y-45224D01*
X51830Y-49980D01*
X50413Y-49980D01*
X50413Y-31650D01*
X50380Y-31570D01*
X50319Y-31509D01*
X50240Y-31476D01*
X50153Y-31476D01*
X50074Y-31509D01*
X50013Y-31570D01*
X49980Y-31649D01*
X49980Y-31735D01*
X50013Y-31815D01*
X50074Y-31876D01*
X50153Y-31909D01*
X50239Y-31909D01*
X50319Y-31876D01*
X50380Y-31815D01*
X50413Y-31736D01*
X50413Y-31650D01*
X50413Y-49980D01*
X49626Y-49980D01*
X49626Y-32339D01*
X49593Y-32259D01*
X49532Y-32198D01*
X49452Y-32165D01*
X49366Y-32165D01*
X49286Y-32198D01*
X49225Y-32259D01*
X49192Y-32338D01*
X49192Y-32424D01*
X49225Y-32504D01*
X49286Y-32565D01*
X49366Y-32598D01*
X49452Y-32598D01*
X49531Y-32565D01*
X49592Y-32504D01*
X49625Y-32425D01*
X49626Y-32339D01*
X49626Y-49980D01*
X49074Y-49980D01*
X49074Y-34102D01*
X49074Y-31248D01*
X49035Y-31154D01*
X48964Y-31082D01*
X48870Y-31043D01*
X48768Y-31043D01*
X48674Y-31082D01*
X48602Y-31154D01*
X48563Y-31248D01*
X48562Y-31349D01*
X48601Y-31443D01*
X48673Y-31516D01*
X48767Y-31555D01*
X48869Y-31555D01*
X48963Y-31516D01*
X49035Y-31444D01*
X49074Y-31350D01*
X49074Y-31248D01*
X49074Y-34102D01*
X49035Y-34008D01*
X48964Y-33936D01*
X48870Y-33897D01*
X48768Y-33897D01*
X48674Y-33936D01*
X48602Y-34008D01*
X48563Y-34102D01*
X48562Y-34204D01*
X48601Y-34298D01*
X48673Y-34370D01*
X48767Y-34409D01*
X48869Y-34409D01*
X48963Y-34370D01*
X49035Y-34298D01*
X49074Y-34204D01*
X49074Y-34102D01*
X49074Y-49980D01*
X48877Y-49980D01*
X48877Y-36268D01*
X48839Y-36174D01*
X48767Y-36102D01*
X48673Y-36063D01*
X48571Y-36062D01*
X48477Y-36101D01*
X48405Y-36173D01*
X48366Y-36267D01*
X48366Y-36369D01*
X48404Y-36463D01*
X48476Y-36535D01*
X48570Y-36574D01*
X48672Y-36574D01*
X48766Y-36535D01*
X48838Y-36464D01*
X48877Y-36370D01*
X48877Y-36268D01*
X48877Y-49980D01*
X48287Y-49980D01*
X48287Y-44831D01*
X48248Y-44737D01*
X48176Y-44665D01*
X48090Y-44629D01*
X48090Y-36268D01*
X48090Y-31248D01*
X48051Y-31154D01*
X47979Y-31082D01*
X47885Y-31043D01*
X47783Y-31043D01*
X47689Y-31082D01*
X47617Y-31154D01*
X47578Y-31248D01*
X47578Y-31349D01*
X47617Y-31443D01*
X47689Y-31516D01*
X47783Y-31555D01*
X47885Y-31555D01*
X47979Y-31516D01*
X48051Y-31444D01*
X48090Y-31350D01*
X48090Y-31248D01*
X48090Y-36268D01*
X48051Y-36174D01*
X47979Y-36102D01*
X47885Y-36063D01*
X47783Y-36062D01*
X47689Y-36101D01*
X47617Y-36173D01*
X47578Y-36267D01*
X47578Y-36369D01*
X47617Y-36463D01*
X47689Y-36535D01*
X47783Y-36574D01*
X47885Y-36574D01*
X47979Y-36535D01*
X48051Y-36464D01*
X48090Y-36370D01*
X48090Y-36268D01*
X48090Y-44629D01*
X48082Y-44626D01*
X47980Y-44625D01*
X47886Y-44664D01*
X47814Y-44736D01*
X47775Y-44830D01*
X47775Y-44932D01*
X47814Y-45026D01*
X47886Y-45098D01*
X47980Y-45137D01*
X48082Y-45137D01*
X48176Y-45098D01*
X48248Y-45027D01*
X48287Y-44933D01*
X48287Y-44831D01*
X48287Y-49980D01*
X45531Y-49980D01*
X45531Y-34102D01*
X45492Y-34008D01*
X45420Y-33936D01*
X45326Y-33897D01*
X45224Y-33897D01*
X45130Y-33936D01*
X45078Y-33988D01*
X45027Y-33936D01*
X44933Y-33897D01*
X44842Y-33897D01*
X44842Y-31346D01*
X44803Y-31252D01*
X44731Y-31180D01*
X44637Y-31141D01*
X44535Y-31141D01*
X44441Y-31180D01*
X44369Y-31252D01*
X44330Y-31346D01*
X44330Y-31448D01*
X44369Y-31542D01*
X44441Y-31614D01*
X44535Y-31653D01*
X44637Y-31653D01*
X44731Y-31614D01*
X44803Y-31542D01*
X44842Y-31448D01*
X44842Y-31346D01*
X44842Y-33897D01*
X44831Y-33897D01*
X44737Y-33936D01*
X44665Y-34008D01*
X44626Y-34102D01*
X44625Y-34204D01*
X44664Y-34298D01*
X44736Y-34370D01*
X44830Y-34409D01*
X44932Y-34409D01*
X45026Y-34370D01*
X45078Y-34318D01*
X45130Y-34370D01*
X45224Y-34409D01*
X45326Y-34409D01*
X45420Y-34370D01*
X45492Y-34298D01*
X45531Y-34204D01*
X45531Y-34102D01*
X45531Y-49980D01*
X45000Y-49980D01*
X45000Y-43854D01*
X44967Y-43775D01*
X44906Y-43714D01*
X44826Y-43681D01*
X44740Y-43681D01*
X44660Y-43713D01*
X44600Y-43774D01*
X44566Y-43854D01*
X44566Y-43940D01*
X44599Y-44020D01*
X44660Y-44081D01*
X44740Y-44114D01*
X44826Y-44114D01*
X44905Y-44081D01*
X44966Y-44020D01*
X44999Y-43940D01*
X45000Y-43854D01*
X45000Y-49980D01*
X44350Y-49980D01*
X44350Y-34102D01*
X44311Y-34008D01*
X44239Y-33936D01*
X44145Y-33897D01*
X44043Y-33897D01*
X43949Y-33936D01*
X43877Y-34008D01*
X43838Y-34102D01*
X43838Y-34204D01*
X43877Y-34298D01*
X43949Y-34370D01*
X44043Y-34409D01*
X44145Y-34409D01*
X44239Y-34370D01*
X44311Y-34298D01*
X44350Y-34204D01*
X44350Y-34102D01*
X44350Y-49980D01*
X41358Y-49980D01*
X41358Y-42378D01*
X41325Y-42298D01*
X41264Y-42237D01*
X41232Y-42224D01*
X41264Y-42211D01*
X41325Y-42150D01*
X41358Y-42070D01*
X41358Y-41984D01*
X41325Y-41905D01*
X41264Y-41844D01*
X41232Y-41830D01*
X41264Y-41817D01*
X41325Y-41756D01*
X41358Y-41677D01*
X41358Y-41590D01*
X41325Y-41511D01*
X41264Y-41450D01*
X41184Y-41417D01*
X41098Y-41417D01*
X41019Y-41450D01*
X40958Y-41511D01*
X40925Y-41590D01*
X40925Y-41676D01*
X40958Y-41756D01*
X41018Y-41817D01*
X41051Y-41830D01*
X41019Y-41843D01*
X40958Y-41904D01*
X40925Y-41984D01*
X40925Y-42070D01*
X40958Y-42150D01*
X41018Y-42211D01*
X41051Y-42224D01*
X41019Y-42237D01*
X40958Y-42298D01*
X40925Y-42377D01*
X40925Y-42464D01*
X40958Y-42543D01*
X41018Y-42604D01*
X41098Y-42637D01*
X41184Y-42637D01*
X41264Y-42604D01*
X41325Y-42544D01*
X41358Y-42464D01*
X41358Y-42378D01*
X41358Y-49980D01*
X40807Y-49980D01*
X40807Y-43846D01*
X40768Y-43752D01*
X40767Y-43752D01*
X40767Y-42870D01*
X40734Y-42790D01*
X40673Y-42729D01*
X40594Y-42696D01*
X40508Y-42696D01*
X40428Y-42729D01*
X40367Y-42790D01*
X40334Y-42870D01*
X40334Y-42956D01*
X40367Y-43035D01*
X40428Y-43096D01*
X40507Y-43129D01*
X40594Y-43129D01*
X40673Y-43097D01*
X40734Y-43036D01*
X40767Y-42956D01*
X40767Y-42870D01*
X40767Y-43752D01*
X40696Y-43680D01*
X40602Y-43641D01*
X40500Y-43641D01*
X40406Y-43680D01*
X40334Y-43752D01*
X40295Y-43846D01*
X40295Y-43948D01*
X40334Y-44042D01*
X40406Y-44114D01*
X40500Y-44153D01*
X40601Y-44153D01*
X40695Y-44114D01*
X40768Y-44042D01*
X40807Y-43948D01*
X40807Y-43846D01*
X40807Y-49980D01*
X39685Y-49980D01*
X39685Y-44445D01*
X39652Y-44365D01*
X39591Y-44304D01*
X39511Y-44271D01*
X39488Y-44271D01*
X39488Y-42279D01*
X39455Y-42200D01*
X39394Y-42139D01*
X39314Y-42106D01*
X39228Y-42106D01*
X39149Y-42139D01*
X39088Y-42200D01*
X39074Y-42232D01*
X39061Y-42200D01*
X39000Y-42139D01*
X38921Y-42106D01*
X38835Y-42106D01*
X38755Y-42139D01*
X38694Y-42200D01*
X38661Y-42279D01*
X38661Y-42365D01*
X38694Y-42445D01*
X38755Y-42506D01*
X38834Y-42539D01*
X38920Y-42539D01*
X39000Y-42506D01*
X39061Y-42445D01*
X39074Y-42413D01*
X39087Y-42445D01*
X39148Y-42506D01*
X39228Y-42539D01*
X39314Y-42539D01*
X39394Y-42506D01*
X39455Y-42445D01*
X39488Y-42366D01*
X39488Y-42279D01*
X39488Y-44271D01*
X39425Y-44271D01*
X39346Y-44304D01*
X39285Y-44365D01*
X39252Y-44444D01*
X39251Y-44531D01*
X39284Y-44610D01*
X39345Y-44671D01*
X39425Y-44704D01*
X39511Y-44704D01*
X39591Y-44671D01*
X39651Y-44611D01*
X39685Y-44531D01*
X39685Y-44445D01*
X39685Y-49980D01*
X38405Y-49980D01*
X38405Y-43854D01*
X38372Y-43775D01*
X38311Y-43714D01*
X38232Y-43681D01*
X38146Y-43681D01*
X38066Y-43713D01*
X38005Y-43774D01*
X37972Y-43854D01*
X37972Y-43940D01*
X38005Y-44020D01*
X38066Y-44081D01*
X38145Y-44114D01*
X38231Y-44114D01*
X38311Y-44081D01*
X38372Y-44020D01*
X38405Y-43940D01*
X38405Y-43854D01*
X38405Y-49980D01*
X33400Y-49980D01*
X33400Y-48726D01*
X33400Y-29726D01*
X33290Y-29460D01*
X33087Y-29257D01*
X32821Y-29146D01*
X32533Y-29146D01*
X32267Y-29256D01*
X32064Y-29459D01*
X31953Y-29725D01*
X31953Y-30013D01*
X32063Y-30279D01*
X32266Y-30483D01*
X32532Y-30593D01*
X32820Y-30593D01*
X33086Y-30483D01*
X33290Y-30280D01*
X33400Y-30014D01*
X33400Y-29726D01*
X33400Y-48726D01*
X33290Y-48460D01*
X33104Y-48273D01*
X33104Y-38947D01*
X33100Y-38875D01*
X33100Y-38191D01*
X33100Y-37541D01*
X33085Y-37505D01*
X33057Y-37477D01*
X33021Y-37462D01*
X32982Y-37462D01*
X32332Y-37462D01*
X32296Y-37477D01*
X32268Y-37505D01*
X32253Y-37541D01*
X32253Y-37580D01*
X32253Y-38230D01*
X32268Y-38266D01*
X32296Y-38294D01*
X32332Y-38309D01*
X32371Y-38309D01*
X33021Y-38309D01*
X33057Y-38294D01*
X33085Y-38266D01*
X33100Y-38230D01*
X33100Y-38191D01*
X33100Y-38875D01*
X33095Y-38779D01*
X33047Y-38665D01*
X32991Y-38627D01*
X32935Y-38682D01*
X32935Y-38571D01*
X32897Y-38515D01*
X32739Y-38458D01*
X32571Y-38467D01*
X32456Y-38515D01*
X32418Y-38571D01*
X32677Y-38830D01*
X32935Y-38571D01*
X32935Y-38682D01*
X32732Y-38885D01*
X32991Y-39144D01*
X33047Y-39106D01*
X33104Y-38947D01*
X33104Y-48273D01*
X33087Y-48257D01*
X32935Y-48194D01*
X32935Y-39200D01*
X32677Y-38941D01*
X32621Y-38997D01*
X32621Y-38885D01*
X32362Y-38627D01*
X32306Y-38665D01*
X32250Y-38823D01*
X32258Y-38991D01*
X32306Y-39106D01*
X32362Y-39144D01*
X32621Y-38885D01*
X32621Y-38997D01*
X32418Y-39200D01*
X32456Y-39256D01*
X32615Y-39312D01*
X32783Y-39304D01*
X32897Y-39256D01*
X32935Y-39200D01*
X32935Y-48194D01*
X32821Y-48146D01*
X32533Y-48146D01*
X32267Y-48256D01*
X32064Y-48459D01*
X31953Y-48725D01*
X31953Y-49013D01*
X32063Y-49279D01*
X32266Y-49483D01*
X32532Y-49593D01*
X32820Y-49593D01*
X33086Y-49483D01*
X33290Y-49280D01*
X33400Y-49014D01*
X33400Y-48726D01*
X33400Y-49980D01*
X31381Y-49980D01*
X31381Y-44441D01*
X31381Y-44146D01*
X31368Y-44077D01*
X31366Y-44071D01*
X31335Y-44064D01*
X31279Y-44120D01*
X31279Y-44009D01*
X31272Y-43977D01*
X31203Y-43963D01*
X31134Y-43975D01*
X31129Y-43977D01*
X31121Y-44009D01*
X31200Y-44088D01*
X31279Y-44009D01*
X31279Y-44120D01*
X31256Y-44143D01*
X31335Y-44222D01*
X31366Y-44215D01*
X31381Y-44146D01*
X31381Y-44441D01*
X31368Y-44372D01*
X31366Y-44367D01*
X31335Y-44360D01*
X31279Y-44415D01*
X31279Y-44304D01*
X31276Y-44291D01*
X31279Y-44278D01*
X31200Y-44199D01*
X31145Y-44255D01*
X31145Y-44143D01*
X31066Y-44064D01*
X31053Y-44067D01*
X31040Y-44064D01*
X30984Y-44120D01*
X30984Y-44009D01*
X30977Y-43977D01*
X30908Y-43963D01*
X30839Y-43975D01*
X30833Y-43977D01*
X30826Y-44009D01*
X30905Y-44088D01*
X30984Y-44009D01*
X30984Y-44120D01*
X30961Y-44143D01*
X31040Y-44222D01*
X31053Y-44219D01*
X31066Y-44222D01*
X31145Y-44143D01*
X31145Y-44255D01*
X31121Y-44278D01*
X31124Y-44291D01*
X31121Y-44304D01*
X31200Y-44383D01*
X31279Y-44304D01*
X31279Y-44415D01*
X31256Y-44438D01*
X31335Y-44517D01*
X31366Y-44510D01*
X31381Y-44441D01*
X31381Y-49980D01*
X31279Y-49980D01*
X31279Y-44573D01*
X31200Y-44494D01*
X31145Y-44550D01*
X31145Y-44438D01*
X31066Y-44360D01*
X31053Y-44363D01*
X31040Y-44360D01*
X30984Y-44415D01*
X30984Y-44304D01*
X30981Y-44291D01*
X30984Y-44278D01*
X30905Y-44199D01*
X30849Y-44255D01*
X30849Y-44143D01*
X30770Y-44064D01*
X30757Y-44067D01*
X30744Y-44064D01*
X30689Y-44120D01*
X30689Y-44009D01*
X30682Y-43977D01*
X30613Y-43963D01*
X30543Y-43975D01*
X30538Y-43977D01*
X30531Y-44009D01*
X30610Y-44088D01*
X30689Y-44009D01*
X30689Y-44120D01*
X30665Y-44143D01*
X30744Y-44222D01*
X30757Y-44219D01*
X30770Y-44222D01*
X30849Y-44143D01*
X30849Y-44255D01*
X30826Y-44278D01*
X30829Y-44291D01*
X30826Y-44304D01*
X30905Y-44383D01*
X30984Y-44304D01*
X30984Y-44415D01*
X30961Y-44438D01*
X31040Y-44517D01*
X31053Y-44514D01*
X31066Y-44517D01*
X31145Y-44438D01*
X31145Y-44550D01*
X31121Y-44573D01*
X31129Y-44604D01*
X31197Y-44619D01*
X31267Y-44606D01*
X31272Y-44604D01*
X31279Y-44573D01*
X31279Y-49980D01*
X30984Y-49980D01*
X30984Y-44573D01*
X30905Y-44494D01*
X30849Y-44550D01*
X30849Y-44438D01*
X30770Y-44360D01*
X30757Y-44363D01*
X30744Y-44360D01*
X30689Y-44415D01*
X30689Y-44304D01*
X30686Y-44291D01*
X30689Y-44278D01*
X30610Y-44199D01*
X30554Y-44255D01*
X30554Y-44143D01*
X30475Y-44064D01*
X30444Y-44071D01*
X30429Y-44140D01*
X30442Y-44210D01*
X30444Y-44215D01*
X30475Y-44222D01*
X30554Y-44143D01*
X30554Y-44255D01*
X30531Y-44278D01*
X30534Y-44291D01*
X30531Y-44304D01*
X30610Y-44383D01*
X30689Y-44304D01*
X30689Y-44415D01*
X30665Y-44438D01*
X30744Y-44517D01*
X30757Y-44514D01*
X30770Y-44517D01*
X30849Y-44438D01*
X30849Y-44550D01*
X30826Y-44573D01*
X30833Y-44604D01*
X30902Y-44619D01*
X30971Y-44606D01*
X30977Y-44604D01*
X30984Y-44573D01*
X30984Y-49980D01*
X30689Y-49980D01*
X30689Y-44573D01*
X30610Y-44494D01*
X30554Y-44550D01*
X30554Y-44438D01*
X30475Y-44360D01*
X30444Y-44367D01*
X30429Y-44436D01*
X30442Y-44505D01*
X30444Y-44510D01*
X30475Y-44517D01*
X30554Y-44438D01*
X30554Y-44550D01*
X30531Y-44573D01*
X30538Y-44604D01*
X30607Y-44619D01*
X30676Y-44606D01*
X30682Y-44604D01*
X30689Y-44573D01*
X30689Y-49980D01*
X30137Y-49980D01*
X30137Y-43917D01*
X32303Y-43917D01*
X32303Y-42696D01*
X31381Y-42696D01*
X31381Y-42473D01*
X31381Y-42178D01*
X31381Y-34796D01*
X31381Y-34500D01*
X31381Y-32827D01*
X31381Y-32532D01*
X31368Y-32463D01*
X31366Y-32457D01*
X31335Y-32450D01*
X31279Y-32506D01*
X31279Y-32394D01*
X31272Y-32363D01*
X31203Y-32348D01*
X31134Y-32361D01*
X31129Y-32363D01*
X31121Y-32394D01*
X31200Y-32473D01*
X31279Y-32394D01*
X31279Y-32506D01*
X31256Y-32529D01*
X31335Y-32608D01*
X31366Y-32601D01*
X31381Y-32532D01*
X31381Y-32827D01*
X31368Y-32758D01*
X31366Y-32753D01*
X31335Y-32745D01*
X31279Y-32801D01*
X31279Y-32690D01*
X31276Y-32677D01*
X31279Y-32664D01*
X31200Y-32585D01*
X31145Y-32640D01*
X31145Y-32529D01*
X31066Y-32450D01*
X31053Y-32453D01*
X31040Y-32450D01*
X30984Y-32506D01*
X30984Y-32394D01*
X30977Y-32363D01*
X30908Y-32348D01*
X30839Y-32361D01*
X30833Y-32363D01*
X30826Y-32394D01*
X30905Y-32473D01*
X30984Y-32394D01*
X30984Y-32506D01*
X30961Y-32529D01*
X31040Y-32608D01*
X31053Y-32605D01*
X31066Y-32608D01*
X31145Y-32529D01*
X31145Y-32640D01*
X31121Y-32664D01*
X31124Y-32677D01*
X31121Y-32690D01*
X31200Y-32769D01*
X31279Y-32690D01*
X31279Y-32801D01*
X31256Y-32824D01*
X31335Y-32903D01*
X31366Y-32896D01*
X31381Y-32827D01*
X31381Y-34500D01*
X31368Y-34431D01*
X31366Y-34426D01*
X31335Y-34419D01*
X31279Y-34474D01*
X31279Y-34363D01*
X31279Y-32959D01*
X31200Y-32880D01*
X31145Y-32936D01*
X31145Y-32824D01*
X31066Y-32745D01*
X31053Y-32748D01*
X31040Y-32745D01*
X30984Y-32801D01*
X30984Y-32690D01*
X30981Y-32677D01*
X30984Y-32664D01*
X30905Y-32585D01*
X30849Y-32640D01*
X30849Y-32529D01*
X30770Y-32450D01*
X30757Y-32453D01*
X30744Y-32450D01*
X30689Y-32506D01*
X30689Y-32394D01*
X30682Y-32363D01*
X30613Y-32348D01*
X30543Y-32361D01*
X30538Y-32363D01*
X30531Y-32394D01*
X30610Y-32473D01*
X30689Y-32394D01*
X30689Y-32506D01*
X30665Y-32529D01*
X30744Y-32608D01*
X30757Y-32605D01*
X30770Y-32608D01*
X30849Y-32529D01*
X30849Y-32640D01*
X30826Y-32664D01*
X30829Y-32677D01*
X30826Y-32690D01*
X30905Y-32769D01*
X30984Y-32690D01*
X30984Y-32801D01*
X30961Y-32824D01*
X31040Y-32903D01*
X31053Y-32900D01*
X31066Y-32903D01*
X31145Y-32824D01*
X31145Y-32936D01*
X31121Y-32959D01*
X31129Y-32990D01*
X31197Y-33005D01*
X31267Y-32992D01*
X31272Y-32990D01*
X31279Y-32959D01*
X31279Y-34363D01*
X31272Y-34332D01*
X31203Y-34317D01*
X31134Y-34330D01*
X31129Y-34332D01*
X31121Y-34363D01*
X31200Y-34442D01*
X31279Y-34363D01*
X31279Y-34474D01*
X31256Y-34498D01*
X31335Y-34576D01*
X31366Y-34569D01*
X31381Y-34500D01*
X31381Y-34796D01*
X31368Y-34726D01*
X31366Y-34721D01*
X31335Y-34714D01*
X31279Y-34770D01*
X31279Y-34658D01*
X31276Y-34645D01*
X31279Y-34632D01*
X31200Y-34553D01*
X31145Y-34609D01*
X31145Y-34498D01*
X31066Y-34419D01*
X31053Y-34422D01*
X31040Y-34419D01*
X30984Y-34474D01*
X30984Y-34363D01*
X30984Y-32959D01*
X30905Y-32880D01*
X30849Y-32936D01*
X30849Y-32824D01*
X30770Y-32745D01*
X30757Y-32748D01*
X30744Y-32745D01*
X30689Y-32801D01*
X30689Y-32690D01*
X30686Y-32677D01*
X30689Y-32664D01*
X30610Y-32585D01*
X30554Y-32640D01*
X30554Y-32529D01*
X30475Y-32450D01*
X30444Y-32457D01*
X30429Y-32526D01*
X30442Y-32595D01*
X30444Y-32601D01*
X30475Y-32608D01*
X30554Y-32529D01*
X30554Y-32640D01*
X30531Y-32664D01*
X30534Y-32677D01*
X30531Y-32690D01*
X30610Y-32769D01*
X30689Y-32690D01*
X30689Y-32801D01*
X30665Y-32824D01*
X30744Y-32903D01*
X30757Y-32900D01*
X30770Y-32903D01*
X30849Y-32824D01*
X30849Y-32936D01*
X30826Y-32959D01*
X30833Y-32990D01*
X30902Y-33005D01*
X30971Y-32992D01*
X30977Y-32990D01*
X30984Y-32959D01*
X30984Y-34363D01*
X30977Y-34332D01*
X30908Y-34317D01*
X30839Y-34330D01*
X30833Y-34332D01*
X30826Y-34363D01*
X30905Y-34442D01*
X30984Y-34363D01*
X30984Y-34474D01*
X30961Y-34498D01*
X31040Y-34576D01*
X31053Y-34573D01*
X31066Y-34576D01*
X31145Y-34498D01*
X31145Y-34609D01*
X31121Y-34632D01*
X31124Y-34645D01*
X31121Y-34658D01*
X31200Y-34737D01*
X31279Y-34658D01*
X31279Y-34770D01*
X31256Y-34793D01*
X31335Y-34872D01*
X31366Y-34865D01*
X31381Y-34796D01*
X31381Y-42178D01*
X31368Y-42108D01*
X31366Y-42103D01*
X31335Y-42096D01*
X31279Y-42151D01*
X31279Y-42040D01*
X31279Y-34927D01*
X31200Y-34848D01*
X31145Y-34904D01*
X31145Y-34793D01*
X31066Y-34714D01*
X31053Y-34717D01*
X31040Y-34714D01*
X30984Y-34770D01*
X30984Y-34658D01*
X30981Y-34645D01*
X30984Y-34632D01*
X30905Y-34553D01*
X30849Y-34609D01*
X30849Y-34498D01*
X30770Y-34419D01*
X30757Y-34422D01*
X30744Y-34419D01*
X30689Y-34474D01*
X30689Y-34363D01*
X30689Y-32959D01*
X30610Y-32880D01*
X30554Y-32936D01*
X30554Y-32824D01*
X30475Y-32745D01*
X30444Y-32753D01*
X30429Y-32821D01*
X30442Y-32891D01*
X30444Y-32896D01*
X30475Y-32903D01*
X30554Y-32824D01*
X30554Y-32936D01*
X30531Y-32959D01*
X30538Y-32990D01*
X30607Y-33005D01*
X30676Y-32992D01*
X30682Y-32990D01*
X30689Y-32959D01*
X30689Y-34363D01*
X30682Y-34332D01*
X30613Y-34317D01*
X30543Y-34330D01*
X30538Y-34332D01*
X30531Y-34363D01*
X30610Y-34442D01*
X30689Y-34363D01*
X30689Y-34474D01*
X30665Y-34498D01*
X30744Y-34576D01*
X30757Y-34573D01*
X30770Y-34576D01*
X30849Y-34498D01*
X30849Y-34609D01*
X30826Y-34632D01*
X30829Y-34645D01*
X30826Y-34658D01*
X30905Y-34737D01*
X30984Y-34658D01*
X30984Y-34770D01*
X30961Y-34793D01*
X31040Y-34872D01*
X31053Y-34869D01*
X31066Y-34872D01*
X31145Y-34793D01*
X31145Y-34904D01*
X31121Y-34927D01*
X31129Y-34959D01*
X31197Y-34973D01*
X31267Y-34961D01*
X31272Y-34959D01*
X31279Y-34927D01*
X31279Y-42040D01*
X31272Y-42009D01*
X31203Y-41994D01*
X31134Y-42007D01*
X31129Y-42009D01*
X31121Y-42040D01*
X31200Y-42119D01*
X31279Y-42040D01*
X31279Y-42151D01*
X31256Y-42175D01*
X31335Y-42254D01*
X31366Y-42246D01*
X31381Y-42178D01*
X31381Y-42473D01*
X31368Y-42404D01*
X31366Y-42398D01*
X31335Y-42391D01*
X31279Y-42447D01*
X31279Y-42335D01*
X31276Y-42322D01*
X31279Y-42309D01*
X31200Y-42230D01*
X31145Y-42286D01*
X31145Y-42175D01*
X31066Y-42096D01*
X31053Y-42099D01*
X31040Y-42096D01*
X30984Y-42151D01*
X30984Y-42040D01*
X30984Y-34927D01*
X30905Y-34848D01*
X30849Y-34904D01*
X30849Y-34793D01*
X30770Y-34714D01*
X30757Y-34717D01*
X30744Y-34714D01*
X30689Y-34770D01*
X30689Y-34658D01*
X30686Y-34645D01*
X30689Y-34632D01*
X30610Y-34553D01*
X30554Y-34609D01*
X30554Y-34498D01*
X30475Y-34419D01*
X30444Y-34426D01*
X30429Y-34495D01*
X30442Y-34564D01*
X30444Y-34569D01*
X30475Y-34576D01*
X30554Y-34498D01*
X30554Y-34609D01*
X30531Y-34632D01*
X30534Y-34645D01*
X30531Y-34658D01*
X30610Y-34737D01*
X30689Y-34658D01*
X30689Y-34770D01*
X30665Y-34793D01*
X30744Y-34872D01*
X30757Y-34869D01*
X30770Y-34872D01*
X30849Y-34793D01*
X30849Y-34904D01*
X30826Y-34927D01*
X30833Y-34959D01*
X30902Y-34973D01*
X30971Y-34961D01*
X30977Y-34959D01*
X30984Y-34927D01*
X30984Y-42040D01*
X30977Y-42009D01*
X30908Y-41994D01*
X30839Y-42007D01*
X30833Y-42009D01*
X30826Y-42040D01*
X30905Y-42119D01*
X30984Y-42040D01*
X30984Y-42151D01*
X30961Y-42175D01*
X31040Y-42254D01*
X31053Y-42251D01*
X31066Y-42254D01*
X31145Y-42175D01*
X31145Y-42286D01*
X31121Y-42309D01*
X31124Y-42322D01*
X31121Y-42335D01*
X31200Y-42414D01*
X31279Y-42335D01*
X31279Y-42447D01*
X31256Y-42470D01*
X31335Y-42549D01*
X31366Y-42542D01*
X31381Y-42473D01*
X31381Y-42696D01*
X31279Y-42696D01*
X31279Y-42605D01*
X31200Y-42526D01*
X31145Y-42581D01*
X31145Y-42470D01*
X31066Y-42391D01*
X31053Y-42394D01*
X31040Y-42391D01*
X30984Y-42447D01*
X30984Y-42335D01*
X30981Y-42322D01*
X30984Y-42309D01*
X30905Y-42230D01*
X30849Y-42286D01*
X30849Y-42175D01*
X30770Y-42096D01*
X30757Y-42099D01*
X30744Y-42096D01*
X30689Y-42151D01*
X30689Y-42040D01*
X30689Y-34927D01*
X30610Y-34848D01*
X30554Y-34904D01*
X30554Y-34793D01*
X30475Y-34714D01*
X30444Y-34721D01*
X30429Y-34790D01*
X30442Y-34859D01*
X30444Y-34865D01*
X30475Y-34872D01*
X30554Y-34793D01*
X30554Y-34904D01*
X30531Y-34927D01*
X30538Y-34959D01*
X30607Y-34973D01*
X30676Y-34961D01*
X30682Y-34959D01*
X30689Y-34927D01*
X30689Y-42040D01*
X30682Y-42009D01*
X30613Y-41994D01*
X30543Y-42007D01*
X30538Y-42009D01*
X30531Y-42040D01*
X30610Y-42119D01*
X30689Y-42040D01*
X30689Y-42151D01*
X30665Y-42175D01*
X30744Y-42254D01*
X30757Y-42251D01*
X30770Y-42254D01*
X30849Y-42175D01*
X30849Y-42286D01*
X30826Y-42309D01*
X30829Y-42322D01*
X30826Y-42335D01*
X30905Y-42414D01*
X30984Y-42335D01*
X30984Y-42447D01*
X30961Y-42470D01*
X31040Y-42549D01*
X31053Y-42546D01*
X31066Y-42549D01*
X31145Y-42470D01*
X31145Y-42581D01*
X31121Y-42605D01*
X31129Y-42636D01*
X31197Y-42651D01*
X31267Y-42638D01*
X31272Y-42636D01*
X31279Y-42605D01*
X31279Y-42696D01*
X30984Y-42696D01*
X30984Y-42605D01*
X30905Y-42526D01*
X30849Y-42581D01*
X30849Y-42470D01*
X30770Y-42391D01*
X30757Y-42394D01*
X30744Y-42391D01*
X30689Y-42447D01*
X30689Y-42335D01*
X30686Y-42322D01*
X30689Y-42309D01*
X30610Y-42230D01*
X30554Y-42286D01*
X30554Y-42175D01*
X30475Y-42096D01*
X30444Y-42103D01*
X30429Y-42172D01*
X30442Y-42241D01*
X30444Y-42246D01*
X30475Y-42254D01*
X30554Y-42175D01*
X30554Y-42286D01*
X30531Y-42309D01*
X30534Y-42322D01*
X30531Y-42335D01*
X30610Y-42414D01*
X30689Y-42335D01*
X30689Y-42447D01*
X30665Y-42470D01*
X30744Y-42549D01*
X30757Y-42546D01*
X30770Y-42549D01*
X30849Y-42470D01*
X30849Y-42581D01*
X30826Y-42605D01*
X30833Y-42636D01*
X30902Y-42651D01*
X30971Y-42638D01*
X30977Y-42636D01*
X30984Y-42605D01*
X30984Y-42696D01*
X30689Y-42696D01*
X30689Y-42605D01*
X30610Y-42526D01*
X30554Y-42581D01*
X30554Y-42470D01*
X30475Y-42391D01*
X30444Y-42398D01*
X30429Y-42467D01*
X30442Y-42536D01*
X30444Y-42542D01*
X30475Y-42549D01*
X30554Y-42470D01*
X30554Y-42581D01*
X30531Y-42605D01*
X30538Y-42636D01*
X30607Y-42651D01*
X30676Y-42638D01*
X30682Y-42636D01*
X30689Y-42605D01*
X30689Y-42696D01*
X30137Y-42696D01*
X30137Y-28759D01*
X73420Y-28759D01*
X74985Y-29542D01*
X75767Y-31107D01*
X75767Y-36594D01*
M02*
